version 1
nodes
0 "ValveBiped.Bip01" -1
1 "ValveBiped.Bip01_Spine" 0
2 "ValveBiped.Bip01_Spine1" 1
3 "ValveBiped.Bip01_Spine2" 2
4 "ValveBiped.Bip01_Spine4" 3
5 "ValveBiped.Bip01_R_Clavicle" 4
6 "ValveBiped.Bip01_R_UpperArm" 5
7 "ValveBiped.Bip01_R_Forearm" 6
8 "ValveBiped.Bip01_R_Hand" 7
9 "ValveBiped.Bip01_R_Finger4" 8
10 "ValveBiped.Bip01_R_Finger41" 9
11 "ValveBiped.Bip01_R_Finger42" 10
12 "ValveBiped.Bip01_R_Finger3" 8
13 "ValveBiped.Bip01_R_Finger31" 12
14 "ValveBiped.Bip01_R_Finger32" 13
15 "ValveBiped.Bip01_R_Finger2" 8
16 "ValveBiped.Bip01_R_Finger21" 15
17 "ValveBiped.Bip01_R_Finger22" 16
18 "ValveBiped.Bip01_R_Finger1" 8
19 "ValveBiped.Bip01_R_Finger11" 18
20 "ValveBiped.Bip01_R_Finger12" 19
21 "ValveBiped.Bip01_R_Finger0" 8
22 "ValveBiped.Bip01_R_Finger01" 21
23 "ValveBiped.Bip01_R_Finger02" 22
24 "ValveBiped.Base" 8
25 "ValveBiped.Front_Cover" 24
26 "ValveBiped.Front_Cover_Stop" 25
27 "ValveBiped.Arm1_A" 25
28 "ValveBiped.Arm1_B" 27
29 "ValveBiped.Arm1_C" 28
30 "ValveBiped.Arm2_A" 25
31 "ValveBiped.Arm2_B" 30
32 "ValveBiped.Arm2_C" 31
33 "ValveBiped.Arm3_A" 25
34 "ValveBiped.Arm3_B" 33
35 "ValveBiped.Arm3_C" 34
36 "ValveBiped.Wire1_A" 25
37 "ValveBiped.Wire1_B" 25
38 "ValveBiped.Wire1_C" 25
39 "ValveBiped.Wire2_A" 25
40 "ValveBiped.Wire2_B" 25
41 "ValveBiped.Wire2_C" 25
42 "ValveBiped.Wire3_A" 25
43 "ValveBiped.Wire3_B" 25
44 "ValveBiped.Wire3_C" 25
end
skeleton
time 0
0 0.000000000 -0.533611000 38.566913605 1.570796013 0.000000000 0.000000000
1 0.000000000 3.345132113 -2.981898069 1.570796013 0.083192997 1.570796013
2 3.995837927 0.000000000 0.000000000 0.000000000 0.000000000 -0.028816000
3 3.520298004 0.000000000 0.000000000 0.000000000 0.000000000 0.097306997
4 8.921476364 0.000000000 0.000000000 0.000000000 0.000000000 0.186413005
5 2.059530973 0.977922022 -1.937661052 1.480023623 1.855077624 -0.191445753
6 6.028141022 0.000003000 0.000000000 1.615542054 -0.908887982 -1.292080998
7 11.692554474 0.000002000 0.000000000 0.000000000 0.000000000 -1.739253998
8 11.481651306 -0.000002000 0.000018000 -1.647806048 -0.090039991 -0.896776021
9 3.532386065 -0.276416004 1.536319017 0.374247968 -0.317160994 -0.128775001
10 1.309133053 0.000000000 0.000000000 0.000000000 0.000000000 -0.124738000
11 0.857330978 0.000000000 0.000001000 0.000000000 0.000000000 -0.286408991
12 3.851639986 0.137326002 0.724735022 0.351395994 -0.086529002 -0.046404000
13 1.959903002 0.000000000 -0.000002000 0.000000000 0.000000000 -0.123507999
14 0.980742991 0.000000000 0.000000000 0.000000000 0.000000000 -0.226128995
15 3.922916889 0.534802973 -0.199916005 0.080286995 0.034104999 -0.044594999
16 1.990190983 0.000000000 0.000002000 0.000000000 0.000000000 -0.139776006
17 1.269497991 0.000001000 0.000001000 0.000000000 0.000000000 -0.260185987
18 3.899112940 0.695780993 -1.301560044 -0.136954024 0.133698016 -0.019504000
19 1.849058986 -0.000001000 0.000003000 0.000000000 0.000000000 -0.368053973
20 1.022408962 0.000001000 -0.000002000 0.000000000 0.000000000 -0.051172998
21 1.246204019 -0.165831998 -1.133535028 -1.131680965 1.025774956 -0.123527996
22 1.435385942 -0.000001000 0.000000000 0.000000000 0.000000000 -0.178852007
23 1.316728950 0.000002000 0.000000000 0.000000000 0.000000000 0.018038999
24 -0.267291009 0.147900000 -0.000987000 -1.570796013 0.000000000 -1.570796013
25 0.000000000 0.000000000 22.656486511 0.000000000 0.000000000 0.000000000
26 0.000000000 -0.000001000 -9.245950699 0.000000000 0.000000000 0.000000000
27 -1.576423049 4.638206959 0.069091998 0.021490999 -0.026558001 0.598006010
28 0.022693999 2.517580986 2.098712921 0.000000000 0.000000000 0.000000000
29 0.054257002 0.579430997 4.187384129 0.000000000 0.000000000 1.570796013
30 3.599334955 0.093099996 -0.024607001 -0.008542000 0.034435000 -2.082251072
31 -0.035749000 2.512598038 2.098587990 0.000000000 0.000000000 0.000000000
32 -0.071240000 0.559592009 4.226679802 0.000000000 0.000000000 0.000000000
33 -3.282005072 -0.134427994 -0.097989000 0.000000000 0.000000000 2.150572062
34 0.036786001 2.570754051 2.023871899 0.000000000 0.000000000 0.000000000
35 -0.103078999 0.682137012 4.218969822 0.000000000 0.000000000 0.000000000
36 -1.849997044 4.368055820 -7.061011791 0.021492003 -0.026559001 0.598006010
37 -1.931277990 5.316304207 -4.070703983 -0.674767017 0.018004000 0.562354028
38 -2.754200935 6.422513008 -1.363410950 0.493613005 -0.026559001 0.598006010
39 3.602581978 0.858887017 -7.121084213 -0.008542000 0.034435000 -2.082251072
40 4.197435856 -0.046528000 -4.250997066 -0.645225883 0.132204995 -2.155567884
41 5.318143845 -0.817588985 -1.521412969 0.407768011 0.034435000 -2.082251072
42 -3.331624985 0.672294974 -7.197002888 0.000000000 0.000000000 2.150572062
43 -3.776878119 -0.322162986 -4.363081932 -0.712872028 -0.092963994 2.230654955
44 -4.896677017 -1.171610951 -1.564592957 0.491369992 0.000000000 2.150572062
end
