version 1
nodes
0 "ValveBiped.Bip01" -1
1 "ValveBiped.Bip01_Spine" 0
2 "ValveBiped.Bip01_Spine1" 1
3 "ValveBiped.Bip01_Spine2" 2
4 "ValveBiped.Bip01_Spine4" 3
5 "ValveBiped.Bip01_R_Clavicle" 4
6 "ValveBiped.Bip01_R_UpperArm" 5
7 "ValveBiped.Bip01_R_Forearm" 6
8 "ValveBiped.Bip01_R_Hand" 7
9 "ValveBiped.Bip01_R_Finger4" 8
10 "ValveBiped.Bip01_R_Finger41" 9
11 "ValveBiped.Bip01_R_Finger42" 10
12 "ValveBiped.Bip01_R_Finger3" 8
13 "ValveBiped.Bip01_R_Finger31" 12
14 "ValveBiped.Bip01_R_Finger32" 13
15 "ValveBiped.Bip01_R_Finger2" 8
16 "ValveBiped.Bip01_R_Finger21" 15
17 "ValveBiped.Bip01_R_Finger22" 16
18 "ValveBiped.Bip01_R_Finger1" 8
19 "ValveBiped.Bip01_R_Finger11" 18
20 "ValveBiped.Bip01_R_Finger12" 19
21 "ValveBiped.Bip01_R_Finger0" 8
22 "ValveBiped.Bip01_R_Finger01" 21
23 "ValveBiped.Bip01_R_Finger02" 22
24 "ValveBiped.Base" 8
25 "ValveBiped.Front_Cover" 24
26 "ValveBiped.Front_Cover_Stop" 25
27 "ValveBiped.Arm1_A" 25
28 "ValveBiped.Arm1_B" 27
29 "ValveBiped.Arm1_C" 28
30 "ValveBiped.Arm2_A" 25
31 "ValveBiped.Arm2_B" 30
32 "ValveBiped.Arm2_C" 31
33 "ValveBiped.Arm3_A" 25
34 "ValveBiped.Arm3_B" 33
35 "ValveBiped.Arm3_C" 34
36 "ValveBiped.Wire1_A" 25
37 "ValveBiped.Wire1_B" 25
38 "ValveBiped.Wire1_C" 25
39 "ValveBiped.Wire2_A" 25
40 "ValveBiped.Wire2_B" 25
41 "ValveBiped.Wire2_C" 25
42 "ValveBiped.Wire3_A" 25
43 "ValveBiped.Wire3_B" 25
44 "ValveBiped.Wire3_C" 25
end
skeleton
time 0
0 -20.199989319 -9.103698730 -12.653491974 0.638859749 2.068361759 -0.901623249
1 0.000000238 3.345131636 -2.981899738 1.570795655 0.083193123 1.570798039
2 3.995842695 0.000002861 0.000006437 -0.000000002 -0.000001833 -0.028816035
3 3.520301819 -0.000000298 0.000000954 0.000000017 -0.000000294 0.097307079
4 8.921482086 0.000000745 -0.000002742 -0.035683230 0.009713966 -0.418404669
5 -0.226196796 -19.477071762 -5.292819500 0.370037675 0.436213940 2.163210154
6 5.219935894 -0.148940772 3.088733673 3.104413986 -0.451846898 -0.007329882
7 9.383004189 0.000002585 0.000020839 1.801621556 -0.370157063 -0.056966793
8 9.324231148 -0.219384819 0.009085774 -0.627707005 -0.067488678 -0.167969212
9 4.594279289 -2.634861469 -1.198447227 0.261475801 2.817549229 -1.216540575
10 0.000010252 1.611064792 0.000001192 0.056236722 0.033622663 -0.026695028
11 -0.000000954 1.348503113 -0.000001431 0.079604551 0.005032341 -0.077938177
12 3.523628712 -0.928584814 -0.246673822 0.213242427 2.516042709 -1.306067467
13 -0.000003994 2.304785252 0.000000477 0.018456943 0.016990395 -0.076356359
14 0.000000000 2.038698673 -0.000002861 0.084890492 0.003907836 -0.217210427
15 3.150727749 0.000005722 -0.000005603 -0.014716910 2.526234865 -1.286524773
16 -0.000001073 2.462730169 0.000001907 0.149243340 0.008619652 -0.132469460
17 -0.000010490 1.798557043 -0.000003934 0.081894681 -0.015655164 -0.043693185
18 2.624195576 1.354366064 0.300923467 -0.124232173 2.363960028 -1.393408775
19 -0.000000536 2.140414238 0.000003815 0.096542552 -0.007762826 -0.113803737
20 0.000000358 1.462278843 -0.000001967 0.166254103 -0.065581009 -0.119348392
21 -1.046089649 2.404725075 -0.000001729 0.589666426 1.360166073 -0.480029106
22 0.000012584 2.659263134 -0.000007391 -0.100533865 -0.061873939 -0.089396298
23 0.000004113 1.780091763 0.000006676 0.270359844 0.141218692 0.099935025
24 -0.280542731 -0.043848991 0.112660527 -1.118843317 1.906376958 -1.148720622
25 -0.000002980 0.000002980 22.656490326 0.000000953 -0.000000132 -0.000000239
26 0.000001431 -0.000008404 -9.245958328 -0.000000467 0.000000019 -0.000000015
27 -1.576426744 4.638202190 0.069090903 0.021489717 -0.026557313 0.598006487
28 0.022695541 2.517579556 2.098716021 0.000000000 -0.000000004 0.000000115
29 0.054254055 0.579428673 4.187383175 0.000000237 -0.000000471 1.570794821
30 3.599335670 0.093094677 -0.024611831 -0.008541000 0.034433924 -2.082250595
31 -0.035751343 2.512600660 2.098586798 0.000000019 -0.000000018 0.000000011
32 -0.071235597 0.559594512 4.226671696 0.000000019 -0.000000107 -0.000000004
33 -3.282006502 -0.134423792 -0.097992063 0.000001023 0.000000852 2.150571585
34 0.036786199 2.570756674 2.023870945 0.000000134 -0.000000059 0.000000156
35 -0.103077292 0.682138681 4.218961239 -0.000000237 -0.000000004 -0.000000004
36 -1.850000262 4.368043423 -7.061016083 0.021491729 -0.026558314 0.598006487
37 -1.931276083 5.316288471 -4.070713520 -0.674767971 0.018004568 0.562354684
38 -2.754201651 6.422506809 -1.363417864 0.493612111 -0.026558615 0.598006248
39 3.602583885 0.858876824 -7.121089458 -0.008542226 0.034433845 -2.082251072
40 4.197438240 -0.046528190 -4.251001358 -0.645225525 0.132204577 -2.155567646
41 5.318143845 -0.817591965 -1.521418810 0.407767683 0.034433778 -2.082250595
42 -3.331625462 0.672283769 -7.197002411 0.000000708 0.000000878 2.150571823
43 -3.776882648 -0.322165966 -4.363084793 -0.712871015 -0.092964150 2.230655193
44 -4.896676064 -1.171614766 -1.564593315 0.491369933 0.000001146 2.150571823
end
