version 1
nodes
0 "ValveBiped.Bip01" -1
1 "ValveBiped.Bip01_Spine" 0
2 "ValveBiped.Bip01_Spine1" 1
3 "ValveBiped.Bip01_Spine2" 2
4 "ValveBiped.Bip01_Spine4" 3
5 "ValveBiped.Bip01_L_Clavicle" 4
6 "ValveBiped.Bip01_L_UpperArm" 5
7 "ValveBiped.Bip01_L_Forearm" 6
8 "ValveBiped.Bip01_L_Hand" 7
9 "ValveBiped.Bip01_L_Finger4" 8
10 "ValveBiped.Bip01_L_Finger41" 9
11 "ValveBiped.Bip01_L_Finger42" 10
12 "ValveBiped.Bip01_L_Finger3" 8
13 "ValveBiped.Bip01_L_Finger31" 12
14 "ValveBiped.Bip01_L_Finger32" 13
15 "ValveBiped.Bip01_L_Finger2" 8
16 "ValveBiped.Bip01_L_Finger21" 15
17 "ValveBiped.Bip01_L_Finger22" 16
18 "ValveBiped.Bip01_L_Finger1" 8
19 "ValveBiped.Bip01_L_Finger11" 18
20 "ValveBiped.Bip01_L_Finger12" 19
21 "ValveBiped.Bip01_L_Finger0" 8
22 "ValveBiped.Bip01_L_Finger01" 21
23 "ValveBiped.Bip01_L_Finger02" 22
24 "ValveBiped.Bip01_R_Clavicle" 4
25 "ValveBiped.Bip01_R_UpperArm" 24
26 "ValveBiped.Bip01_R_Forearm" 25
27 "ValveBiped.Bip01_R_Hand" 26
28 "ValveBiped.Bip01_R_Finger4" 27
29 "ValveBiped.Bip01_R_Finger41" 28
30 "ValveBiped.Bip01_R_Finger42" 29
31 "ValveBiped.Bip01_R_Finger3" 27
32 "ValveBiped.Bip01_R_Finger31" 31
33 "ValveBiped.Bip01_R_Finger32" 32
34 "ValveBiped.Bip01_R_Finger2" 27
35 "ValveBiped.Bip01_R_Finger21" 34
36 "ValveBiped.Bip01_R_Finger22" 35
37 "ValveBiped.Bip01_R_Finger1" 27
38 "ValveBiped.Bip01_R_Finger11" 37
39 "ValveBiped.Bip01_R_Finger12" 38
40 "ValveBiped.Bip01_R_Finger0" 27
41 "ValveBiped.Bip01_R_Finger01" 40
42 "ValveBiped.Bip01_R_Finger02" 41
end
skeleton
time 0
0 0.000000000 -0.533595026 38.566879272 1.570796013 0.000000000 0.000000000
1 0.000000000 3.345132113 -2.981898069 1.570796013 0.083192997 1.570796013
2 3.995839119 0.000000000 0.000000000 0.000000000 0.000000000 -0.028816000
3 3.520296097 0.000000000 0.000000000 0.000000000 0.000000000 0.097306997
4 8.921476364 0.000000000 0.000000000 0.000000000 0.000000000 0.186413005
5 2.059530020 0.977922022 1.937661052 -1.551852584 -1.855077624 -0.191445753
6 6.028141022 0.000000000 0.000000000 -1.573855042 0.051610000 -0.584887028
7 11.692555428 0.000000000 0.000000000 0.000000000 0.000000000 -0.060371995
8 11.481671333 0.000000000 -0.000033000 1.568292022 -0.038708996 0.036022000
9 3.850410938 0.126096994 -1.223440051 -0.363880992 0.112040997 -0.355498970
10 1.312564015 -0.000002000 0.000000000 0.000000000 0.054407999 -0.409004003
11 0.729363024 0.000000000 0.000000000 0.000000000 0.040750001 -0.240994006
12 3.926341057 0.316487014 -0.462514997 -0.101498008 0.042178996 -0.269681007
13 1.539098024 -0.000001000 0.000000000 0.000000000 0.003737000 -0.247810006
14 1.196321011 0.000001000 0.000000000 0.000000000 0.006168000 -0.430819988
15 3.881371975 0.214691997 0.400258005 0.090104997 -0.011412000 -0.132528007
16 1.719578981 -0.000001000 0.000000000 0.000000000 -0.020433001 -0.365974009
17 1.209175944 0.000000000 0.000000000 0.000000000 -0.011434000 -0.216123000
18 3.871285915 0.117422998 1.300902009 0.320641965 -0.041414998 -0.125813022
19 1.719429016 0.000001000 0.000001000 0.000000000 -0.106219999 -0.347804010
20 1.099663973 0.000001000 0.000000000 0.000000000 -0.067952998 -0.234887004
21 0.838831007 -0.300280005 1.312773943 -1.243198991 -0.551770985 -0.740652025
22 1.789782047 0.000000000 0.000000000 0.000000000 -0.003711000 0.228609994
23 1.207002997 0.000000000 0.000000000 0.000000000 -0.005668000 0.362985998
24 2.059533119 0.977922022 -1.937661052 1.480023623 1.855077624 -0.191445753
25 6.028141022 0.000003000 0.000000000 1.633733988 -0.011884001 -0.586789012
26 11.692551613 0.000000000 -0.000001000 0.000000000 0.000000000 -0.060371995
27 11.481652260 -0.000001000 0.000017000 -1.568292022 0.038704999 0.036022004
28 3.850428104 0.126101002 1.223440051 0.363880992 -0.112040997 -0.355495006
29 1.312564969 0.000000000 0.000000000 0.000000000 -0.054407999 -0.409004003
30 0.729363024 0.000000000 0.000000000 0.000000000 -0.040750001 -0.240994006
31 3.926358938 0.316487014 0.462514997 0.101497993 -0.042178996 -0.269677013
32 1.539095998 -0.000001000 0.000000000 0.000000000 -0.003737000 -0.247810006
33 1.196321011 0.000000000 0.000000000 0.000000000 -0.006168000 -0.430819988
34 3.881387949 0.214692995 -0.400258005 -0.090104997 0.011412000 -0.132523999
35 1.719578981 0.000001000 0.000000000 0.000000000 0.020433001 -0.365974009
36 1.209177017 0.000000000 0.000000000 0.000000000 0.011434000 -0.216123000
37 3.871304989 0.117425002 -1.300902009 -0.320641965 0.041414998 -0.125808999
38 1.719427943 -0.000001000 -0.000001000 0.000000000 0.106219999 -0.347804010
39 1.099665046 0.000000000 0.000000000 0.000000000 0.067952998 -0.234887004
40 0.838849008 -0.300287008 -1.312773943 1.243198991 0.551769972 -0.740647972
41 1.789785028 0.000000000 -0.000001000 0.000000000 0.003711000 0.228609994
42 1.207003951 0.000000000 0.000000000 0.000000000 0.005668000 0.362985998
end
