version 1
nodes
0 "ValveBiped.Bip01" -1
1 "ValveBiped.Bip01_Spine" 0
2 "ValveBiped.Bip01_Spine1" 1
3 "ValveBiped.Bip01_Spine2" 2
4 "ValveBiped.Bip01_Spine4" 3
5 "ValveBiped.Bip01_L_Clavicle" 4
6 "ValveBiped.Bip01_L_UpperArm" 5
7 "ValveBiped.Bip01_L_Forearm" 6
8 "ValveBiped.Bip01_L_Hand" 7
9 "ValveBiped.Bip01_L_Finger4" 8
10 "ValveBiped.Bip01_L_Finger41" 9
11 "ValveBiped.Bip01_L_Finger42" 10
12 "ValveBiped.Bip01_L_Finger3" 8
13 "ValveBiped.Bip01_L_Finger31" 12
14 "ValveBiped.Bip01_L_Finger32" 13
15 "ValveBiped.Bip01_L_Finger2" 8
16 "ValveBiped.Bip01_L_Finger21" 15
17 "ValveBiped.Bip01_L_Finger22" 16
18 "ValveBiped.Bip01_L_Finger1" 8
19 "ValveBiped.Bip01_L_Finger11" 18
20 "ValveBiped.Bip01_L_Finger12" 19
21 "ValveBiped.Bip01_L_Finger0" 8
22 "ValveBiped.Bip01_L_Finger01" 21
23 "ValveBiped.Bip01_L_Finger02" 22
24 "ValveBiped.Bip01_R_Clavicle" 4
25 "ValveBiped.Bip01_R_UpperArm" 24
26 "ValveBiped.Bip01_R_Forearm" 25
27 "ValveBiped.Bip01_R_Hand" 26
28 "ValveBiped.Bip01_R_Finger4" 27
29 "ValveBiped.Bip01_R_Finger41" 28
30 "ValveBiped.Bip01_R_Finger42" 29
31 "ValveBiped.Bip01_R_Finger3" 27
32 "ValveBiped.Bip01_R_Finger31" 31
33 "ValveBiped.Bip01_R_Finger32" 32
34 "ValveBiped.Bip01_R_Finger2" 27
35 "ValveBiped.Bip01_R_Finger21" 34
36 "ValveBiped.Bip01_R_Finger22" 35
37 "ValveBiped.Bip01_R_Finger1" 27
38 "ValveBiped.Bip01_R_Finger11" 37
39 "ValveBiped.Bip01_R_Finger12" 38
40 "ValveBiped.Bip01_R_Finger0" 27
41 "ValveBiped.Bip01_R_Finger01" 40
42 "ValveBiped.Bip01_R_Finger02" 41
end
skeleton
time 0
0 -0.130918503 -2.493414879 36.895614624 1.570796013 -0.000000000 0.000000000
1 0.000000000 3.345131159 -2.981897831 1.570796132 0.083193004 1.570796013
2 3.995837927 0.000000919 0.000000113 0.000000007 0.000000009 -0.028814988
3 3.520300388 -0.000002718 0.000000128 -0.000000003 -0.000000459 0.097305998
4 8.921475410 0.000000504 -0.000003772 0.000000075 0.000000371 0.186413020
5 4.834897518 -1.604231596 3.873075724 -0.560249925 -0.997878850 3.103820324
6 5.219933987 -0.148934245 -3.088737488 -3.104414225 0.451844335 -0.007329911
7 9.383000374 -0.000008583 0.000009812 -1.801619768 0.370154679 -0.056966726
8 9.324225426 -0.219392046 -0.009091601 0.627705872 0.067487426 -0.167966858
9 4.594272614 -2.634877443 1.198446035 -0.261476099 -2.817549467 -1.216543913
10 0.000005692 1.611065984 -0.000000596 -0.056236673 -0.033623129 -0.026694337
11 0.000004679 1.348497987 0.000000477 -0.079604849 -0.005030847 -0.077938952
12 3.523627043 -0.928595245 0.246670783 -0.213243663 -2.516038418 -1.306069136
13 -0.000001475 2.304782629 -0.000000760 -0.018456934 -0.016993567 -0.076355539
14 0.000002801 2.038694620 0.000002563 -0.084890082 -0.003907028 -0.217211157
15 3.150727510 -0.000002998 0.000003397 0.014716239 -2.526252270 -1.286527753
16 -0.000004709 2.462731361 -0.000010461 -0.149245992 -0.008604229 -0.132468522
17 -0.000006385 1.798555732 0.000002444 -0.081894651 0.015658431 -0.043693986
18 2.624195814 1.354360700 -0.300923347 0.124231510 -2.363958120 -1.393410563
19 -0.000005305 2.140417576 -0.000002563 -0.096542753 0.007766966 -0.113803290
20 0.000002325 1.462279677 0.000000179 -0.166253254 0.065575697 -0.119349025
21 -1.046082377 2.404732466 0.000001311 -0.589658976 -1.360165000 -0.480039746
22 0.000007868 2.659261942 0.000003308 0.100534216 0.061873555 -0.089396216
23 0.000007749 1.780092597 -0.000008062 -0.270360500 -0.141221628 0.099935919
24 4.834960938 -1.604258180 -3.873142481 0.560249388 0.997875750 3.103819609
25 5.219931126 -0.148937821 3.088741064 3.104413271 -0.451847196 -0.007328688
26 9.382997513 0.000000924 0.000016056 1.801620364 -0.370157957 -0.056966729
27 9.324227333 -0.219396874 0.009088278 -0.627705932 -0.067487024 -0.167967469
28 4.594276905 -2.634880304 -1.198447704 0.261476427 2.817550182 -1.216544032
29 0.000009149 1.611065030 0.000005603 0.056236502 0.033622790 -0.026694413
30 0.000005662 1.348500133 -0.000003457 0.079604730 0.005030437 -0.077939190
31 3.523628950 -0.928599834 -0.246675402 0.213243738 2.516039610 -1.306069851
32 -0.000001356 2.304786444 -0.000002354 0.018456291 0.016991345 -0.076356798
33 -0.000003606 2.038699865 -0.000005603 0.084890217 0.003907944 -0.217210144
34 3.150730133 -0.000010108 -0.000007600 -0.014715954 2.526253700 -1.286528468
35 0.000001758 2.462725163 0.000003427 0.149245396 0.008602361 -0.132469475
36 -0.000012338 1.798557162 0.000003040 0.081894957 -0.015657557 -0.043693408
37 2.624198437 1.354355931 0.300919324 -0.124231115 2.363959312 -1.393411398
38 -0.000004709 2.140412807 0.000003695 0.096542619 -0.007767242 -0.113803424
39 0.000005186 1.462273479 -0.000004828 0.166253194 -0.065576039 -0.119349174
40 -1.046080470 2.404729843 -0.000004530 0.589661360 1.360165954 -0.480037957
41 0.000008702 2.659259558 -0.000014603 -0.100533985 -0.061873399 -0.089396276
42 0.000002146 1.780092120 0.000009432 0.270359725 0.141220823 0.099935994
end
