version 1
nodes
0 "bip_pelvis" -1
1 "bip_spine_0" 0
2 "bip_spine_1" 1
3 "bip_spine_2" 2
4 "bip_spine_3" 3
5 "bip_collar_R" 4
6 "bip_upperArm_R" 5
7 "bip_lowerArm_R" 6
8 "bip_hand_R" 7
9 "bip_twistArm_R" 7
10 "bip_pinky_0_R" 8
11 "bip_pinky_1_R" 10
12 "bip_pinky_2_R" 11
13 "bip_ring_0_R" 8
14 "bip_ring_1_R" 13
15 "bip_ring_2_R" 14
16 "bip_middle_0_R" 8
17 "bip_middle_1_R" 16
18 "bip_middle_2_R" 17
19 "bip_index_0_R" 8
20 "bip_index_1_R" 19
21 "bip_index_2_R" 20
22 "bip_thumb_0_R" 8
23 "bip_thumb_1_R" 22
24 "bip_thumb_2_R" 23
25 "bip_collar_L" 4
26 "bip_upperArm_L" 25
27 "bip_lowerArm_L" 26
28 "bip_hand_L" 27
29 "bip_twistArm_L" 27
30 "bip_thumb_0_L" 28
31 "bip_thumb_1_L" 30
32 "bip_thumb_2_L" 31
33 "bip_index_0_L" 28
34 "bip_index_1_L" 33
35 "bip_index_2_L" 34
36 "bip_middle_0_L" 28
37 "bip_middle_1_L" 36
38 "bip_middle_2_L" 37
39 "bip_ring_0_L" 28
40 "bip_ring_1_L" 39
41 "bip_ring_2_L" 40
42 "bip_pinky_0_L" 28
43 "bip_pinky_1_L" 42
44 "bip_pinky_2_L" 43
45 "collar_R" 4
46 "collar_L" 4
47 "bip_neck" 4
48 "bip_head" 47
49 "ponytail" 48
50 "bip_hip_L" 0
51 "bip_knee_L" 50
52 "bip_foot_L" 51
53 "bip_toe_L" 52
54 "spring_base_L" 51
55 "spring_end_L" 54
56 "spring_L" 54
57 "bip_hip_R" 0
58 "bip_knee_R" 57
59 "bip_foot_R" 58
60 "bip_toe_R" 59
61 "spring_base_R" 58
62 "spring_end_R" 61
63 "spring_R" 61
64 "weapon_bone" 8
65 "forward" 48
66 "thigh_twist_L" 50
67 "thigh_twist_R" 57
68 "Tail_1" 0
69 "Tail_2" 68
70 "Tail_3" 69
71 "Tail_4" 70
72 "LeftEye" 48
73 "RightEye" 48
74 "Ear.R" 48
75 "Ear.R.002" 74
76 "Ear.R.001" 75
77 "Ear.R.003" 76
78 "Ear.L" 48
79 "Ear.L.002" 78
80 "Ear.L.001" 79
81 "Ear.L.003" 80
82 "bicep_twist_L" 26
83 "Palm_01_L" 28
84 "Palm_02_L" 28
85 "Palm_03_L" 28
86 "Palm_04_L" 28
87 "Palm_01_L.001" 28
88 "MagBone.L" 28
89 "Magazine Follow.L" 88
90 "bicep_twist_R" 6
91 "Palm_01_R" 8
92 "Palm_02_R" 8
93 "Palm_03_R" 8
94 "Palm_04_R" 8
95 "Breast_L" 4
96 "Breast_R" 4
end
skeleton
time 0
0 0.000000000 41.125423431 0.634114265 -3.111549854 -0.000000000 0.000000000
1 0.000000000 -3.959643602 0.000000000 -0.014022606 -0.000000000 0.000000000
2 0.000000000 -3.565964937 0.000000231 -0.060448300 -0.000000000 0.000000000
3 0.000000000 -3.652182817 0.000000179 -0.175138056 -0.000000000 0.000000000
4 0.000000000 -5.067542553 0.000001043 0.157931358 -0.000000000 0.000000000
5 -1.610729814 -2.879108429 -0.060548425 0.240897864 -0.114563063 1.530737519
6 -0.000005104 4.402925968 0.000003338 -2.958233595 0.081030831 1.594341278
7 9.061444283 0.000004381 -0.000000954 -1.310340405 -0.350754201 0.004461742
8 10.419370651 -0.000001967 0.000018269 1.440738797 -1.644804239 0.409069210
9 5.923514843 -0.000005484 0.000028253 1.666313887 -2.313827276 0.095505312
10 0.024888396 -3.143350601 -1.262748957 0.670474350 -1.347451210 2.684238195
11 -0.000029862 1.182335496 0.000045300 0.036986087 0.048001725 0.053039573
12 0.000039101 0.779124975 -0.000061512 0.575197101 -0.141563907 0.487383515
13 -0.330876112 -3.321617603 -0.366006613 0.694305420 -1.390636563 2.508645535
14 -0.000028087 1.662333012 0.000050485 0.075329721 0.013463701 0.024491750
15 0.000009537 1.121853590 -0.000006437 0.574334562 -0.075833686 0.248024225
16 -0.579619050 -3.450709343 0.531864464 1.372522235 -1.208564281 1.833710194
17 -0.000033706 1.210350871 0.000074834 0.133667752 -0.017362118 0.147103339
18 -0.000001401 1.385103703 -0.000030689 0.524106920 -0.055827923 0.202961192
19 -0.597252369 -3.403414011 1.458481550 1.582503080 -1.176367044 1.533055425
20 -0.000023067 1.490284443 0.000064537 0.107497655 -0.016315937 0.101081759
21 0.000021100 1.082980871 -0.000066593 0.834983766 -0.043006755 0.090597026
22 0.056098510 -0.710336506 1.228240967 2.529113293 -0.338147163 0.396834999
23 0.000014365 1.533518910 0.000065833 0.087229080 -0.069297209 -0.114002019
24 -0.000019968 1.179336071 -0.000003994 -0.432512790 -0.059704084 -0.641288817
25 1.610731602 -2.879112244 -0.060548902 -2.900694132 0.114563212 -1.530738473
26 -0.000000492 -4.402926922 -0.000000715 1.387437820 -0.081031509 -1.547252893
27 9.061396599 -0.000001431 0.000003338 -0.261988372 -0.004189274 0.350757778
28 10.419448853 -0.000003278 0.000017047 -1.700931907 1.496809006 -0.409142256
29 5.923522472 0.000001311 0.000010848 -1.475283265 0.827769756 -0.095511258
30 -0.056127764 -0.710347831 1.228235841 -0.612436712 0.338157624 -0.396870643
31 -0.000003099 -1.533484936 0.000001878 0.087185614 -0.069323614 -0.113971204
32 -0.000012994 -1.179339170 0.000003695 -0.432512403 -0.059699226 -0.641305029
33 0.597189605 -3.403408289 1.458473206 -1.559063554 1.176388741 -1.533085227
34 0.000000775 -1.490237713 -0.000006065 0.107412204 -0.016318109 0.101048328
35 0.000000060 -1.083031178 -0.000002518 0.835034907 -0.043006375 0.090615056
36 0.579540372 -3.450724125 0.531842887 1.372569203 1.932992816 1.307845235
37 -0.000003546 -1.210326552 -0.000009403 0.133589417 -0.017347725 0.147076875
38 0.000000075 -1.385076404 0.000005074 0.524115026 -0.055833016 0.202960327
39 0.330827415 -3.321632862 -0.366014361 0.694226623 1.750943422 0.632814229
40 0.000000207 -1.662311196 0.000009358 0.075294502 0.013462046 0.024464324
41 0.000006020 -1.121863127 -0.000006258 0.574332654 -0.075831406 0.248035014
42 -0.024932623 -3.143346071 -1.262755156 0.670433819 1.794120550 0.457246035
43 0.000002921 -1.182292461 -0.000002503 0.036860012 0.048019428 0.052962646
44 0.000000119 -0.779140472 0.000004411 0.575258434 -0.141602904 0.487428278
45 -2.366219282 -5.132060051 -2.460415125 0.728770912 0.538898766 -0.521737516
46 2.366225719 -5.132067680 -2.460415602 -2.412821770 -0.538898766 0.521737516
47 0.000000000 -4.403792858 -0.004740775 0.196962893 -0.000000000 0.000000000
48 0.000000000 -4.239228725 -0.000001609 -0.109275430 -0.000000000 0.000000000
49 0.000000000 -1.937021732 3.120678902 2.436307430 -0.000000000 0.000000000
50 4.206131458 0.415509582 0.637966335 3.058845997 0.141678572 1.423443556
51 16.584520340 0.000001252 0.000000298 0.007673981 0.323615104 -0.100524463
52 18.127162933 -0.000000902 -0.000001878 -1.100528240 -0.028622016 1.514621258
53 -0.000000149 -6.166086197 0.000001192 -0.468303829 -0.009904343 0.026863512
54 4.615294456 0.595147431 -2.546591759 -3.102707386 -0.001624213 1.534082055
55 0.000000032 20.883522034 0.000001207 2.900890589 -0.024919070 0.006115957
56 -0.129008368 18.597648621 4.167800903 2.846519709 -0.045182772 0.003709403
57 -4.206130028 0.415475279 0.637967944 0.082746595 2.999914169 -1.423443556
58 16.584569931 -0.000001281 0.000000775 -0.007673963 0.323615104 0.100524478
59 18.127155304 0.000000052 -0.000003040 2.041064978 0.028621789 1.626971364
60 0.000002556 6.166089535 -0.000003815 -0.468304336 -0.009904413 0.026863215
61 4.615309238 -0.595147431 -2.546590090 0.038885102 0.001624292 1.607510448
62 -0.000005331 -20.883508682 -0.000010286 2.900890589 -0.024919091 0.006115966
63 0.129006237 -18.597629547 -4.167808056 2.846519709 -0.045182813 0.003709410
64 -0.358402729 0.641670823 -0.362902641 -1.301295996 1.721878052 0.949638903
65 0.000000000 -3.443696022 -3.327405930 1.570796490 1.570796132 0.000000000
66 5.695575714 0.000000734 -0.000000268 -1.761950374 -0.000000664 0.000000551
67 5.695575714 -0.000001285 -0.000000864 0.191153079 -0.000000820 -0.000000086
68 0.107572533 -3.511920214 1.006515861 -0.261006892 -0.000000002 0.000000001
69 -0.000000003 0.000001431 5.249753952 0.162077531 0.000000002 -0.000000000
70 -0.000000020 0.000001967 8.363882065 0.074264571 0.000000000 -0.000000000
71 -0.000000019 0.000005029 0.685907364 0.881068766 0.000000000 -0.000000000
72 2.015471697 -6.399683952 -0.544794142 -1.544743538 0.000000004 3.141592503
73 -2.015471697 -6.399683952 -0.544794142 -1.544743538 -0.000000004 -3.141592503
74 -4.140473843 -6.212675095 2.446213007 -1.472083926 -0.002576770 2.746662855
75 0.000006888 0.000003189 1.942705870 0.000000002 -0.000007054 -0.000000271
76 0.000027351 0.000000283 1.942683697 0.000000057 -0.000000022 -0.000000031
77 0.000027258 0.000000626 1.942677021 0.000000067 0.000001222 -0.000000184
78 4.140473843 -6.212675095 2.446213007 -1.472083926 0.002576770 -2.746662855
79 -0.000006888 0.000003189 1.942705870 0.000000002 0.000007054 0.000000271
80 -0.000027351 0.000000283 1.942683697 0.000000057 0.000000022 0.000000031
81 -0.000027258 0.000000626 1.942677021 0.000000067 -0.000001222 0.000000184
82 4.691502571 -0.000000715 0.000006005 0.000014681 -1.393164515 -1.570812464
83 -0.476022005 -0.428183198 0.471464306 0.808999360 -0.899691880 2.504005671
84 0.202547729 -0.890876830 -0.305104852 0.629668057 -0.969458401 2.743292093
85 0.594027579 -1.215339899 -1.026863575 0.555873215 -0.945268095 2.895684958
86 1.274671555 -1.988789797 -2.575722218 0.420657396 -1.006509185 3.010905981
87 -2.566136837 -5.675148487 1.349704742 0.808995962 -0.899692416 2.504007339
88 -1.186923981 -1.021386504 2.349653244 0.272713602 -0.171223670 -1.461586356
89 1.904484391 8.546306610 -0.587080717 -1.570639491 -0.040154334 -0.000227959
90 4.691504002 -0.000003062 -0.000000358 -0.000000465 -2.963958979 1.570799589
91 0.476001889 -0.428188771 0.471469611 0.809006929 0.899690330 -2.504020929
92 -0.202572763 -0.890872478 -0.305098891 0.629682481 0.969462097 -2.743299484
93 -0.594054103 -1.215331912 -1.026856422 0.555886328 0.945270419 -2.895696640
94 -1.274717808 -1.988780022 -2.575710773 0.420671999 1.006515503 -3.010913849
95 3.413403034 0.096737057 1.197661638 1.509161711 3.141592741 0.000000151
96 -3.413403034 0.096737057 1.197661638 1.509161711 3.141592741 0.000000151
end
