version 1
nodes
0 "bip_pelvis" -1
1 "bip_spine_0" 0
2 "bip_spine_1" 1
3 "bip_spine_2" 2
4 "bip_spine_3" 3
5 "bip_collar_R" 4
6 "bip_upperArm_R" 5
7 "bip_lowerArm_R" 6
8 "bip_hand_R" 7
9 "bip_twistArm_R" 7
10 "bip_pinky_0_R" 8
11 "bip_pinky_1_R" 10
12 "bip_pinky_2_R" 11
13 "bip_ring_0_R" 8
14 "bip_ring_1_R" 13
15 "bip_ring_2_R" 14
16 "bip_middle_0_R" 8
17 "bip_middle_1_R" 16
18 "bip_middle_2_R" 17
19 "bip_index_0_R" 8
20 "bip_index_1_R" 19
21 "bip_index_2_R" 20
22 "bip_thumb_0_R" 8
23 "bip_thumb_1_R" 22
24 "bip_thumb_2_R" 23
25 "bip_collar_L" 4
26 "bip_upperArm_L" 25
27 "bip_lowerArm_L" 26
28 "bip_hand_L" 27
29 "bip_twistArm_L" 27
30 "bip_thumb_0_L" 28
31 "bip_thumb_1_L" 30
32 "bip_thumb_2_L" 31
33 "bip_index_0_L" 28
34 "bip_index_1_L" 33
35 "bip_index_2_L" 34
36 "bip_middle_0_L" 28
37 "bip_middle_1_L" 36
38 "bip_middle_2_L" 37
39 "bip_ring_0_L" 28
40 "bip_ring_1_L" 39
41 "bip_ring_2_L" 40
42 "bip_pinky_0_L" 28
43 "bip_pinky_1_L" 42
44 "bip_pinky_2_L" 43
45 "collar_R" 4
46 "collar_L" 4
47 "bip_neck" 4
48 "bip_head" 47
49 "ponytail" 48
50 "bip_hip_L" 0
51 "bip_knee_L" 50
52 "bip_foot_L" 51
53 "bip_toe_L" 52
54 "spring_base_L" 51
55 "spring_end_L" 54
56 "spring_L" 54
57 "bip_hip_R" 0
58 "bip_knee_R" 57
59 "bip_foot_R" 58
60 "bip_toe_R" 59
61 "spring_base_R" 58
62 "spring_end_R" 61
63 "spring_R" 61
64 "weapon_bone" 8
65 "forward" 48
66 "thigh_twist_L" 50
67 "thigh_twist_R" 57
68 "Tail_1" 0
69 "Tail_2" 68
70 "Tail_3" 69
71 "Tail_4" 70
72 "LeftEye" 48
73 "RightEye" 48
74 "Ear.R" 48
75 "Ear.R.002" 74
76 "Ear.R.001" 75
77 "Ear.R.003" 76
78 "Ear.L" 48
79 "Ear.L.002" 78
80 "Ear.L.001" 79
81 "Ear.L.003" 80
82 "bicep_twist_L" 26
83 "Palm_01_L" 28
84 "Palm_02_L" 28
85 "Palm_03_L" 28
86 "Palm_04_L" 28
87 "Palm_01_L.001" 28
88 "MagBone.L" 28
89 "Magazine Follow.L" 88
90 "bicep_twist_R" 6
91 "Palm_01_R" 8
92 "Palm_02_R" 8
93 "Palm_03_R" 8
94 "Palm_04_R" 8
95 "Breast_L" 4
96 "Breast_R" 4
end
skeleton
time 0
0 0.000000000 30.915294647 -1.393723726 -3.111549854 -0.000000000 0.000000000
1 0.000000000 -7.718697548 -1.967558026 -0.014022605 -0.000000000 0.000000000
2 0.000000000 -3.783939123 0.162977859 -0.060448296 -0.000000000 0.000000000
3 0.000000000 -2.800630569 0.686419368 -0.175138041 -0.000000000 0.000000000
4 0.000000000 -2.877394915 0.187924087 0.157931373 -0.000000000 0.000000000
5 -0.618524432 -3.756993771 -2.310322285 0.240897879 -0.114563063 1.530737519
6 -0.000004772 6.067139626 0.000004709 -2.958233595 0.081030831 1.594341278
7 9.383005142 0.000005811 -0.000001550 -1.310340405 -0.350754231 0.004461746
8 9.326812744 -0.000000071 0.000014877 1.440738320 -1.644804239 0.409069955
9 4.663411617 -0.000000656 0.000007480 1.666313767 -2.313827276 0.095505305
10 -1.909900784 -4.692540169 -1.954120398 0.670474350 -1.347451329 2.684238195
11 -0.000039279 1.611063719 0.000072241 0.036986101 0.048001718 0.053039540
12 0.000071883 1.348505139 -0.000110149 0.575197101 -0.141563937 0.487383485
13 -1.100126982 -3.471724749 -0.275598049 0.694305420 -1.390636563 2.508645535
14 -0.000035727 2.304784536 0.000063658 0.075329751 0.013463710 0.024491765
15 0.000016481 2.038696527 0.000002354 0.574334502 -0.075833626 0.248024225
16 -0.515994787 -3.071914911 0.473482013 1.372522235 -1.208564281 1.833710194
17 -0.000071049 2.462727308 0.000150293 0.133667707 -0.017362142 0.147103339
18 -0.000001192 1.798555374 -0.000030398 0.524106979 -0.055827871 0.202961192
19 0.371694744 -2.518731594 1.526139021 1.582503080 -1.176367044 1.533055305
20 -0.000035167 2.140416145 0.000068367 0.107497677 -0.016315933 0.101081744
21 0.000027180 1.462277770 -0.000089049 0.834983706 -0.043006752 0.090597026
22 1.944491863 0.972336411 1.466470003 2.529113293 -0.338147134 0.396834940
23 0.000020742 2.659258127 0.000113249 0.087229006 -0.069297239 -0.114001997
24 -0.000030041 1.780094385 -0.000014544 -0.432512790 -0.059704088 -0.641288877
25 0.618524432 -3.756993771 -2.310322285 -2.900694132 0.114563204 -1.530738473
26 -0.000001290 -6.067140102 -0.000000477 1.387437820 -0.081031494 -1.547252893
27 9.383004189 -0.000000834 0.000003651 -0.261988401 -0.004189272 0.350757807
28 9.326812744 -0.000003252 0.000011621 -1.700931907 1.496809006 -0.409141809
29 4.663411140 -0.000003159 0.000004023 -1.475283265 0.827769756 -0.095511213
30 -1.944480896 0.972367764 1.466472864 -0.612436712 0.338157684 -0.396870673
31 0.000004530 -2.659265041 0.000000954 0.087185606 -0.069323584 -0.113971233
32 -0.000001192 -1.780093193 0.000006437 -0.432512403 -0.059699245 -0.641305029
33 -0.371761143 -2.518736601 1.526120901 -1.559063554 1.176388741 -1.533085227
34 -0.000001192 -2.140412569 -0.000006557 0.107412212 -0.016318167 0.101048380
35 0.000004053 -1.462278128 0.000012815 0.835034907 -0.043006353 0.090615042
36 0.515921652 -3.071930170 0.473463297 1.372569203 1.932992816 1.307845473
37 0.000000775 -2.462728024 -0.000006616 0.133589432 -0.017347760 0.147076860
38 0.000002980 -1.798555136 0.000003219 0.524114966 -0.055833001 0.202960312
39 1.100046396 -3.471746445 -0.275618553 0.694226444 1.750943422 0.632814169
40 -0.000002984 -2.304782867 0.000008970 0.075294495 0.013462078 0.024464333
41 0.000003248 -2.038695097 -0.000005677 0.574332714 -0.075831413 0.248035029
42 1.909797311 -4.692568302 -1.954147100 0.670433819 1.794120550 0.457245976
43 0.000002831 -1.611061811 0.000000119 0.036859989 0.048019461 0.052962642
44 0.000000477 -1.348502755 0.000010252 0.575258493 -0.141602859 0.487428308
45 -2.000000000 0.000005513 0.000000238 0.728770912 0.538898766 -0.521737516
46 2.000000000 0.000005513 0.000000238 -2.412821531 -0.538898766 0.521737516
47 0.000000000 -5.374016285 -0.177789569 0.196962893 -0.000000000 0.000000000
48 0.000000000 -3.541619062 -0.535014689 -0.109275430 -0.000000000 0.000000000
49 0.000000000 -1.937024474 3.120672703 2.436307430 -0.000000000 0.000000000
50 2.628673077 0.049848754 -2.613191843 3.058845997 0.141678572 1.423443556
51 12.181146622 0.000000447 0.000001013 0.007673983 0.323615134 -0.100524455
52 16.169355392 0.000000432 -0.000002116 -1.100528240 -0.028622011 1.514621258
53 0.000000399 -3.993541241 0.000000432 -0.468303770 -0.009904339 0.026863512
54 4.961766720 0.036237754 -2.589795113 -3.102707386 -0.001624216 1.534082055
55 1.224202156 23.379367828 -1.143058300 2.900890589 -0.024919068 0.006115956
56 0.935024202 20.687267303 3.230806351 2.846519709 -0.045182776 0.003709403
57 -2.628673077 0.049848754 -2.613191843 0.082746595 2.999914169 -1.423443556
58 12.181147575 0.000000060 0.000000536 -0.007673959 0.323615104 0.100524470
59 16.169357300 0.000000324 -0.000002235 2.041064978 0.028621795 1.626971364
60 0.000001065 3.993541241 -0.000002608 -0.468304455 -0.009904413 0.026863214
61 4.961768150 -0.036237661 -2.589794874 0.038885087 0.001624298 1.607510448
62 -1.224198580 -23.379367828 1.143054962 2.900890589 -0.024919087 0.006115964
63 -0.935020924 -20.687267303 -3.230809212 2.846519709 -0.045182806 0.003709411
64 2.457207441 24.680942535 -2.581466198 -1.301296115 1.721878052 0.949639082
65 0.000000000 -2.499156713 0.065124370 1.570796490 1.570796132 0.000000000
66 5.695569515 0.000000298 0.000000060 -1.761950374 -0.000000658 0.000000568
67 5.695569992 -0.000000328 -0.000000656 0.191153109 -0.000000822 -0.000000102
68 0.107572533 -3.511920691 1.006515861 -0.261006892 -0.000000002 0.000000001
69 -0.000000001 0.000000477 5.249754429 0.162077531 0.000000002 -0.000000000
70 -0.000000012 0.000002027 8.363883018 0.074264571 0.000000000 -0.000000000
71 -0.000000011 0.000004932 0.685908437 0.881068766 0.000000000 -0.000000000
72 2.015471697 -6.399690151 -0.544794202 -1.544743538 0.000000004 3.141592503
73 -2.015471697 -6.399690151 -0.544794202 -1.544743538 -0.000000004 -3.141592503
74 -4.140473843 -6.212677479 2.446212530 -1.472083926 -0.002576770 2.746662855
75 0.000006445 0.000003070 1.942694545 -0.000000005 -0.000007084 -0.000000268
76 0.000029236 -0.000000060 1.942679167 0.000000054 -0.000000022 -0.000000034
77 0.000030112 0.000000179 1.942669988 0.000000056 0.000001222 -0.000000183
78 4.140473843 -6.212677479 2.446212530 -1.472083926 0.002576770 -2.746662855
79 -0.000006445 0.000003070 1.942694545 -0.000000005 0.000007084 0.000000268
80 -0.000029236 -0.000000060 1.942679167 0.000000054 0.000000022 0.000000034
81 -0.000030112 0.000000179 1.942669988 0.000000056 -0.000001222 0.000000183
82 4.691502094 -0.000000358 0.000001580 0.000014689 -1.393164515 -1.570812464
83 -0.476022512 -0.428182364 0.471465707 0.808999419 -0.899691880 2.504005671
84 0.202547073 -0.890875936 -0.305104226 0.629668057 -0.969458401 2.743292093
85 0.594023228 -1.215339541 -1.026863575 0.555873215 -0.945268035 2.895684958
86 1.274671793 -1.988788486 -2.575719595 0.420657307 -1.006509066 3.010905981
87 -2.566137791 -5.675147057 1.349706650 0.808996022 -0.899692357 2.504007339
88 -1.186924696 -1.021386147 2.349654913 0.272713572 -0.171223655 -1.461586356
89 1.904484987 8.546315193 -0.587080598 -1.570639491 -0.040154334 -0.000227958
90 4.691503525 0.000000961 -0.000000477 -0.000000464 -2.963958979 1.570799589
91 0.476003408 -0.428189456 0.471470416 0.809006929 0.899690330 -2.504020929
92 -0.202571452 -0.890875161 -0.305096924 0.629682481 0.969462097 -2.743299484
93 -0.594053030 -1.215334177 -1.026854992 0.555886328 0.945270479 -2.895696640
94 -1.274719238 -1.988780856 -2.575709581 0.420671910 1.006515503 -3.010913849
95 3.413403034 0.096739948 1.197661638 1.509161711 3.141592741 0.000000151
96 -3.413403034 0.096739948 1.197661638 1.509161711 3.141592741 0.000000151
end
