version 1
nodes
0 "root" -1
end
skeleton
time 0
0 0 0 0 0 0 0
end
triangles
board_white
0 -23.000000 -7.000000 -4.000000 -1.000000 0.000000 0.000000 -0.109375 -0.062500
0 -23.000000 -7.000000 4.000000 -1.000000 0.000000 0.000000 -0.109375 0.062500
0 -23.000000 7.000000 4.000000 -1.000000 0.000000 0.000000 0.109375 0.062500
board_white
0 -23.000000 -7.000000 -4.000000 -1.000000 0.000000 0.000000 -0.109375 -0.062500
0 -23.000000 7.000000 4.000000 -1.000000 0.000000 0.000000 0.109375 0.062500
0 -23.000000 7.000000 -4.000000 -1.000000 0.000000 0.000000 0.109375 -0.062500
board_white
0 0.000000 -7.000000 -4.000000 1.000000 0.000000 0.000000 -0.109375 -0.062500
0 0.000000 7.000000 -4.000000 1.000000 0.000000 0.000000 0.109375 -0.062500
0 0.000000 7.000000 4.000000 1.000000 0.000000 0.000000 0.109375 0.062500
board_white
0 0.000000 -7.000000 -4.000000 1.000000 0.000000 0.000000 -0.109375 -0.062500
0 0.000000 7.000000 4.000000 1.000000 0.000000 0.000000 0.109375 0.062500
0 0.000000 -7.000000 4.000000 1.000000 0.000000 0.000000 -0.109375 0.062500
board_white
0 -23.000000 -7.000000 -4.000000 0.000000 -1.000000 0.000000 -0.359375 -0.062500
0 0.000000 -7.000000 -4.000000 0.000000 -1.000000 0.000000 0.000000 -0.062500
0 0.000000 -7.000000 4.000000 0.000000 -1.000000 0.000000 0.000000 0.062500
board_white
0 -23.000000 -7.000000 -4.000000 0.000000 -1.000000 0.000000 -0.359375 -0.062500
0 0.000000 -7.000000 4.000000 0.000000 -1.000000 0.000000 0.000000 0.062500
0 -23.000000 -7.000000 4.000000 0.000000 -1.000000 0.000000 -0.359375 0.062500
board_white
0 -23.000000 7.000000 -4.000000 0.000000 1.000000 0.000000 -0.359375 -0.062500
0 -23.000000 7.000000 4.000000 0.000000 1.000000 0.000000 -0.359375 0.062500
0 0.000000 7.000000 4.000000 0.000000 1.000000 0.000000 0.000000 0.062500
board_white
0 -23.000000 7.000000 -4.000000 0.000000 1.000000 0.000000 -0.359375 -0.062500
0 0.000000 7.000000 4.000000 0.000000 1.000000 0.000000 0.000000 0.062500
0 0.000000 7.000000 -4.000000 0.000000 1.000000 0.000000 0.000000 -0.062500
board_white
0 -23.000000 -7.000000 -4.000000 0.000000 0.000000 -1.000000 -0.359375 -0.109375
0 -23.000000 7.000000 -4.000000 0.000000 0.000000 -1.000000 -0.359375 0.109375
0 0.000000 7.000000 -4.000000 0.000000 0.000000 -1.000000 0.000000 0.109375
board_white
0 -23.000000 -7.000000 -4.000000 0.000000 0.000000 -1.000000 -0.359375 -0.109375
0 0.000000 7.000000 -4.000000 0.000000 0.000000 -1.000000 0.000000 0.109375
0 0.000000 -7.000000 -4.000000 0.000000 0.000000 -1.000000 0.000000 -0.109375
board_white
0 -23.000000 -7.000000 4.000000 0.000000 0.000000 1.000000 -0.359375 -0.109375
0 0.000000 -7.000000 4.000000 0.000000 0.000000 1.000000 0.000000 -0.109375
0 0.000000 7.000000 4.000000 0.000000 0.000000 1.000000 0.000000 0.109375
board_white
0 -23.000000 -7.000000 4.000000 0.000000 0.000000 1.000000 -0.359375 -0.109375
0 0.000000 7.000000 4.000000 0.000000 0.000000 1.000000 0.000000 0.109375
0 -23.000000 7.000000 4.000000 0.000000 0.000000 1.000000 -0.359375 0.109375
board_white
0 -70.000000 -12.000000 -2.200000 -1.000000 0.000000 0.000000 -0.187500 -0.034375
0 -70.000000 -12.000000 2.200000 -1.000000 0.000000 0.000000 -0.187500 0.034375
0 -70.000000 12.000000 2.200000 -1.000000 0.000000 0.000000 0.187500 0.034375
board_white
0 -70.000000 -12.000000 -2.200000 -1.000000 0.000000 0.000000 -0.187500 -0.034375
0 -70.000000 12.000000 2.200000 -1.000000 0.000000 0.000000 0.187500 0.034375
0 -70.000000 12.000000 -2.200000 -1.000000 0.000000 0.000000 0.187500 -0.034375
board_white
0 -14.000000 -12.000000 -2.200000 1.000000 0.000000 0.000000 -0.187500 -0.034375
0 -14.000000 12.000000 -2.200000 1.000000 0.000000 0.000000 0.187500 -0.034375
0 -14.000000 12.000000 2.200000 1.000000 0.000000 0.000000 0.187500 0.034375
board_white
0 -14.000000 -12.000000 -2.200000 1.000000 0.000000 0.000000 -0.187500 -0.034375
0 -14.000000 12.000000 2.200000 1.000000 0.000000 0.000000 0.187500 0.034375
0 -14.000000 -12.000000 2.200000 1.000000 0.000000 0.000000 -0.187500 0.034375
board_white
0 -70.000000 -12.000000 -2.200000 0.000000 -1.000000 0.000000 -1.093750 -0.034375
0 -14.000000 -12.000000 -2.200000 0.000000 -1.000000 0.000000 -0.218750 -0.034375
0 -14.000000 -12.000000 2.200000 0.000000 -1.000000 0.000000 -0.218750 0.034375
board_white
0 -70.000000 -12.000000 -2.200000 0.000000 -1.000000 0.000000 -1.093750 -0.034375
0 -14.000000 -12.000000 2.200000 0.000000 -1.000000 0.000000 -0.218750 0.034375
0 -70.000000 -12.000000 2.200000 0.000000 -1.000000 0.000000 -1.093750 0.034375
board_white
0 -70.000000 12.000000 -2.200000 0.000000 1.000000 0.000000 -1.093750 -0.034375
0 -70.000000 12.000000 2.200000 0.000000 1.000000 0.000000 -1.093750 0.034375
0 -14.000000 12.000000 2.200000 0.000000 1.000000 0.000000 -0.218750 0.034375
board_white
0 -70.000000 12.000000 -2.200000 0.000000 1.000000 0.000000 -1.093750 -0.034375
0 -14.000000 12.000000 2.200000 0.000000 1.000000 0.000000 -0.218750 0.034375
0 -14.000000 12.000000 -2.200000 0.000000 1.000000 0.000000 -0.218750 -0.034375
board_white
0 -70.000000 -12.000000 -2.200000 0.000000 0.000000 -1.000000 -1.093750 -0.187500
0 -70.000000 12.000000 -2.200000 0.000000 0.000000 -1.000000 -1.093750 0.187500
0 -14.000000 12.000000 -2.200000 0.000000 0.000000 -1.000000 -0.218750 0.187500
board_white
0 -70.000000 -12.000000 -2.200000 0.000000 0.000000 -1.000000 -1.093750 -0.187500
0 -14.000000 12.000000 -2.200000 0.000000 0.000000 -1.000000 -0.218750 0.187500
0 -14.000000 -12.000000 -2.200000 0.000000 0.000000 -1.000000 -0.218750 -0.187500
board_white
0 -70.000000 -12.000000 2.200000 0.000000 0.000000 1.000000 -1.093750 -0.187500
0 -14.000000 -12.000000 2.200000 0.000000 0.000000 1.000000 -0.218750 -0.187500
0 -14.000000 12.000000 2.200000 0.000000 0.000000 1.000000 -0.218750 0.187500
board_white
0 -70.000000 -12.000000 2.200000 0.000000 0.000000 1.000000 -1.093750 -0.187500
0 -14.000000 12.000000 2.200000 0.000000 0.000000 1.000000 -0.218750 0.187500
0 -70.000000 12.000000 2.200000 0.000000 0.000000 1.000000 -1.093750 0.187500
board_grey
0 -64.000000 -7.000000 2.200000 -1.000000 0.000000 0.000000 -0.109375 0.034375
0 -64.000000 -7.000000 2.600000 -1.000000 0.000000 0.000000 -0.109375 0.040625
0 -64.000000 7.000000 2.600000 -1.000000 0.000000 0.000000 0.109375 0.040625
board_grey
0 -64.000000 -7.000000 2.200000 -1.000000 0.000000 0.000000 -0.109375 0.034375
0 -64.000000 7.000000 2.600000 -1.000000 0.000000 0.000000 0.109375 0.040625
0 -64.000000 7.000000 2.200000 -1.000000 0.000000 0.000000 0.109375 0.034375
board_grey
0 -58.000000 -7.000000 2.200000 1.000000 0.000000 0.000000 -0.109375 0.034375
0 -58.000000 7.000000 2.200000 1.000000 0.000000 0.000000 0.109375 0.034375
0 -58.000000 7.000000 2.600000 1.000000 0.000000 0.000000 0.109375 0.040625
board_grey
0 -58.000000 -7.000000 2.200000 1.000000 0.000000 0.000000 -0.109375 0.034375
0 -58.000000 7.000000 2.600000 1.000000 0.000000 0.000000 0.109375 0.040625
0 -58.000000 -7.000000 2.600000 1.000000 0.000000 0.000000 -0.109375 0.040625
board_grey
0 -64.000000 -7.000000 2.200000 0.000000 -1.000000 0.000000 -1.000000 0.034375
0 -58.000000 -7.000000 2.200000 0.000000 -1.000000 0.000000 -0.906250 0.034375
0 -58.000000 -7.000000 2.600000 0.000000 -1.000000 0.000000 -0.906250 0.040625
board_grey
0 -64.000000 -7.000000 2.200000 0.000000 -1.000000 0.000000 -1.000000 0.034375
0 -58.000000 -7.000000 2.600000 0.000000 -1.000000 0.000000 -0.906250 0.040625
0 -64.000000 -7.000000 2.600000 0.000000 -1.000000 0.000000 -1.000000 0.040625
board_grey
0 -64.000000 7.000000 2.200000 0.000000 1.000000 0.000000 -1.000000 0.034375
0 -64.000000 7.000000 2.600000 0.000000 1.000000 0.000000 -1.000000 0.040625
0 -58.000000 7.000000 2.600000 0.000000 1.000000 0.000000 -0.906250 0.040625
board_grey
0 -64.000000 7.000000 2.200000 0.000000 1.000000 0.000000 -1.000000 0.034375
0 -58.000000 7.000000 2.600000 0.000000 1.000000 0.000000 -0.906250 0.040625
0 -58.000000 7.000000 2.200000 0.000000 1.000000 0.000000 -0.906250 0.034375
board_grey
0 -64.000000 -7.000000 2.200000 0.000000 0.000000 -1.000000 -1.000000 -0.109375
0 -64.000000 7.000000 2.200000 0.000000 0.000000 -1.000000 -1.000000 0.109375
0 -58.000000 7.000000 2.200000 0.000000 0.000000 -1.000000 -0.906250 0.109375
board_grey
0 -64.000000 -7.000000 2.200000 0.000000 0.000000 -1.000000 -1.000000 -0.109375
0 -58.000000 7.000000 2.200000 0.000000 0.000000 -1.000000 -0.906250 0.109375
0 -58.000000 -7.000000 2.200000 0.000000 0.000000 -1.000000 -0.906250 -0.109375
board_grey
0 -64.000000 -7.000000 2.600000 0.000000 0.000000 1.000000 -1.000000 -0.109375
0 -58.000000 -7.000000 2.600000 0.000000 0.000000 1.000000 -0.906250 -0.109375
0 -58.000000 7.000000 2.600000 0.000000 0.000000 1.000000 -0.906250 0.109375
board_grey
0 -64.000000 -7.000000 2.600000 0.000000 0.000000 1.000000 -1.000000 -0.109375
0 -58.000000 7.000000 2.600000 0.000000 0.000000 1.000000 -0.906250 0.109375
0 -64.000000 7.000000 2.600000 0.000000 0.000000 1.000000 -1.000000 0.109375
board_grey
0 -52.000000 -7.000000 2.200000 -1.000000 0.000000 0.000000 -0.109375 0.034375
0 -52.000000 -7.000000 2.600000 -1.000000 0.000000 0.000000 -0.109375 0.040625
0 -52.000000 7.000000 2.600000 -1.000000 0.000000 0.000000 0.109375 0.040625
board_grey
0 -52.000000 -7.000000 2.200000 -1.000000 0.000000 0.000000 -0.109375 0.034375
0 -52.000000 7.000000 2.600000 -1.000000 0.000000 0.000000 0.109375 0.040625
0 -52.000000 7.000000 2.200000 -1.000000 0.000000 0.000000 0.109375 0.034375
board_grey
0 -46.000000 -7.000000 2.200000 1.000000 0.000000 0.000000 -0.109375 0.034375
0 -46.000000 7.000000 2.200000 1.000000 0.000000 0.000000 0.109375 0.034375
0 -46.000000 7.000000 2.600000 1.000000 0.000000 0.000000 0.109375 0.040625
board_grey
0 -46.000000 -7.000000 2.200000 1.000000 0.000000 0.000000 -0.109375 0.034375
0 -46.000000 7.000000 2.600000 1.000000 0.000000 0.000000 0.109375 0.040625
0 -46.000000 -7.000000 2.600000 1.000000 0.000000 0.000000 -0.109375 0.040625
board_grey
0 -52.000000 -7.000000 2.200000 0.000000 -1.000000 0.000000 -0.812500 0.034375
0 -46.000000 -7.000000 2.200000 0.000000 -1.000000 0.000000 -0.718750 0.034375
0 -46.000000 -7.000000 2.600000 0.000000 -1.000000 0.000000 -0.718750 0.040625
board_grey
0 -52.000000 -7.000000 2.200000 0.000000 -1.000000 0.000000 -0.812500 0.034375
0 -46.000000 -7.000000 2.600000 0.000000 -1.000000 0.000000 -0.718750 0.040625
0 -52.000000 -7.000000 2.600000 0.000000 -1.000000 0.000000 -0.812500 0.040625
board_grey
0 -52.000000 7.000000 2.200000 0.000000 1.000000 0.000000 -0.812500 0.034375
0 -52.000000 7.000000 2.600000 0.000000 1.000000 0.000000 -0.812500 0.040625
0 -46.000000 7.000000 2.600000 0.000000 1.000000 0.000000 -0.718750 0.040625
board_grey
0 -52.000000 7.000000 2.200000 0.000000 1.000000 0.000000 -0.812500 0.034375
0 -46.000000 7.000000 2.600000 0.000000 1.000000 0.000000 -0.718750 0.040625
0 -46.000000 7.000000 2.200000 0.000000 1.000000 0.000000 -0.718750 0.034375
board_grey
0 -52.000000 -7.000000 2.200000 0.000000 0.000000 -1.000000 -0.812500 -0.109375
0 -52.000000 7.000000 2.200000 0.000000 0.000000 -1.000000 -0.812500 0.109375
0 -46.000000 7.000000 2.200000 0.000000 0.000000 -1.000000 -0.718750 0.109375
board_grey
0 -52.000000 -7.000000 2.200000 0.000000 0.000000 -1.000000 -0.812500 -0.109375
0 -46.000000 7.000000 2.200000 0.000000 0.000000 -1.000000 -0.718750 0.109375
0 -46.000000 -7.000000 2.200000 0.000000 0.000000 -1.000000 -0.718750 -0.109375
board_grey
0 -52.000000 -7.000000 2.600000 0.000000 0.000000 1.000000 -0.812500 -0.109375
0 -46.000000 -7.000000 2.600000 0.000000 0.000000 1.000000 -0.718750 -0.109375
0 -46.000000 7.000000 2.600000 0.000000 0.000000 1.000000 -0.718750 0.109375
board_grey
0 -52.000000 -7.000000 2.600000 0.000000 0.000000 1.000000 -0.812500 -0.109375
0 -46.000000 7.000000 2.600000 0.000000 0.000000 1.000000 -0.718750 0.109375
0 -52.000000 7.000000 2.600000 0.000000 0.000000 1.000000 -0.812500 0.109375
board_grey
0 -40.000000 -7.000000 2.200000 -1.000000 0.000000 0.000000 -0.109375 0.034375
0 -40.000000 -7.000000 2.600000 -1.000000 0.000000 0.000000 -0.109375 0.040625
0 -40.000000 7.000000 2.600000 -1.000000 0.000000 0.000000 0.109375 0.040625
board_grey
0 -40.000000 -7.000000 2.200000 -1.000000 0.000000 0.000000 -0.109375 0.034375
0 -40.000000 7.000000 2.600000 -1.000000 0.000000 0.000000 0.109375 0.040625
0 -40.000000 7.000000 2.200000 -1.000000 0.000000 0.000000 0.109375 0.034375
board_grey
0 -34.000000 -7.000000 2.200000 1.000000 0.000000 0.000000 -0.109375 0.034375
0 -34.000000 7.000000 2.200000 1.000000 0.000000 0.000000 0.109375 0.034375
0 -34.000000 7.000000 2.600000 1.000000 0.000000 0.000000 0.109375 0.040625
board_grey
0 -34.000000 -7.000000 2.200000 1.000000 0.000000 0.000000 -0.109375 0.034375
0 -34.000000 7.000000 2.600000 1.000000 0.000000 0.000000 0.109375 0.040625
0 -34.000000 -7.000000 2.600000 1.000000 0.000000 0.000000 -0.109375 0.040625
board_grey
0 -40.000000 -7.000000 2.200000 0.000000 -1.000000 0.000000 -0.625000 0.034375
0 -34.000000 -7.000000 2.200000 0.000000 -1.000000 0.000000 -0.531250 0.034375
0 -34.000000 -7.000000 2.600000 0.000000 -1.000000 0.000000 -0.531250 0.040625
board_grey
0 -40.000000 -7.000000 2.200000 0.000000 -1.000000 0.000000 -0.625000 0.034375
0 -34.000000 -7.000000 2.600000 0.000000 -1.000000 0.000000 -0.531250 0.040625
0 -40.000000 -7.000000 2.600000 0.000000 -1.000000 0.000000 -0.625000 0.040625
board_grey
0 -40.000000 7.000000 2.200000 0.000000 1.000000 0.000000 -0.625000 0.034375
0 -40.000000 7.000000 2.600000 0.000000 1.000000 0.000000 -0.625000 0.040625
0 -34.000000 7.000000 2.600000 0.000000 1.000000 0.000000 -0.531250 0.040625
board_grey
0 -40.000000 7.000000 2.200000 0.000000 1.000000 0.000000 -0.625000 0.034375
0 -34.000000 7.000000 2.600000 0.000000 1.000000 0.000000 -0.531250 0.040625
0 -34.000000 7.000000 2.200000 0.000000 1.000000 0.000000 -0.531250 0.034375
board_grey
0 -40.000000 -7.000000 2.200000 0.000000 0.000000 -1.000000 -0.625000 -0.109375
0 -40.000000 7.000000 2.200000 0.000000 0.000000 -1.000000 -0.625000 0.109375
0 -34.000000 7.000000 2.200000 0.000000 0.000000 -1.000000 -0.531250 0.109375
board_grey
0 -40.000000 -7.000000 2.200000 0.000000 0.000000 -1.000000 -0.625000 -0.109375
0 -34.000000 7.000000 2.200000 0.000000 0.000000 -1.000000 -0.531250 0.109375
0 -34.000000 -7.000000 2.200000 0.000000 0.000000 -1.000000 -0.531250 -0.109375
board_grey
0 -40.000000 -7.000000 2.600000 0.000000 0.000000 1.000000 -0.625000 -0.109375
0 -34.000000 -7.000000 2.600000 0.000000 0.000000 1.000000 -0.531250 -0.109375
0 -34.000000 7.000000 2.600000 0.000000 0.000000 1.000000 -0.531250 0.109375
board_grey
0 -40.000000 -7.000000 2.600000 0.000000 0.000000 1.000000 -0.625000 -0.109375
0 -34.000000 7.000000 2.600000 0.000000 0.000000 1.000000 -0.531250 0.109375
0 -40.000000 7.000000 2.600000 0.000000 0.000000 1.000000 -0.625000 0.109375
board_grey
0 -28.000000 -7.000000 2.200000 -1.000000 0.000000 0.000000 -0.109375 0.034375
0 -28.000000 -7.000000 2.600000 -1.000000 0.000000 0.000000 -0.109375 0.040625
0 -28.000000 7.000000 2.600000 -1.000000 0.000000 0.000000 0.109375 0.040625
board_grey
0 -28.000000 -7.000000 2.200000 -1.000000 0.000000 0.000000 -0.109375 0.034375
0 -28.000000 7.000000 2.600000 -1.000000 0.000000 0.000000 0.109375 0.040625
0 -28.000000 7.000000 2.200000 -1.000000 0.000000 0.000000 0.109375 0.034375
board_grey
0 -22.000000 -7.000000 2.200000 1.000000 0.000000 0.000000 -0.109375 0.034375
0 -22.000000 7.000000 2.200000 1.000000 0.000000 0.000000 0.109375 0.034375
0 -22.000000 7.000000 2.600000 1.000000 0.000000 0.000000 0.109375 0.040625
board_grey
0 -22.000000 -7.000000 2.200000 1.000000 0.000000 0.000000 -0.109375 0.034375
0 -22.000000 7.000000 2.600000 1.000000 0.000000 0.000000 0.109375 0.040625
0 -22.000000 -7.000000 2.600000 1.000000 0.000000 0.000000 -0.109375 0.040625
board_grey
0 -28.000000 -7.000000 2.200000 0.000000 -1.000000 0.000000 -0.437500 0.034375
0 -22.000000 -7.000000 2.200000 0.000000 -1.000000 0.000000 -0.343750 0.034375
0 -22.000000 -7.000000 2.600000 0.000000 -1.000000 0.000000 -0.343750 0.040625
board_grey
0 -28.000000 -7.000000 2.200000 0.000000 -1.000000 0.000000 -0.437500 0.034375
0 -22.000000 -7.000000 2.600000 0.000000 -1.000000 0.000000 -0.343750 0.040625
0 -28.000000 -7.000000 2.600000 0.000000 -1.000000 0.000000 -0.437500 0.040625
board_grey
0 -28.000000 7.000000 2.200000 0.000000 1.000000 0.000000 -0.437500 0.034375
0 -28.000000 7.000000 2.600000 0.000000 1.000000 0.000000 -0.437500 0.040625
0 -22.000000 7.000000 2.600000 0.000000 1.000000 0.000000 -0.343750 0.040625
board_grey
0 -28.000000 7.000000 2.200000 0.000000 1.000000 0.000000 -0.437500 0.034375
0 -22.000000 7.000000 2.600000 0.000000 1.000000 0.000000 -0.343750 0.040625
0 -22.000000 7.000000 2.200000 0.000000 1.000000 0.000000 -0.343750 0.034375
board_grey
0 -28.000000 -7.000000 2.200000 0.000000 0.000000 -1.000000 -0.437500 -0.109375
0 -28.000000 7.000000 2.200000 0.000000 0.000000 -1.000000 -0.437500 0.109375
0 -22.000000 7.000000 2.200000 0.000000 0.000000 -1.000000 -0.343750 0.109375
board_grey
0 -28.000000 -7.000000 2.200000 0.000000 0.000000 -1.000000 -0.437500 -0.109375
0 -22.000000 7.000000 2.200000 0.000000 0.000000 -1.000000 -0.343750 0.109375
0 -22.000000 -7.000000 2.200000 0.000000 0.000000 -1.000000 -0.343750 -0.109375
board_grey
0 -28.000000 -7.000000 2.600000 0.000000 0.000000 1.000000 -0.437500 -0.109375
0 -22.000000 -7.000000 2.600000 0.000000 0.000000 1.000000 -0.343750 -0.109375
0 -22.000000 7.000000 2.600000 0.000000 0.000000 1.000000 -0.343750 0.109375
board_grey
0 -28.000000 -7.000000 2.600000 0.000000 0.000000 1.000000 -0.437500 -0.109375
0 -22.000000 7.000000 2.600000 0.000000 0.000000 1.000000 -0.343750 0.109375
0 -28.000000 7.000000 2.600000 0.000000 0.000000 1.000000 -0.437500 0.109375
dark
0 -68.000000 -10.500000 -2.800000 -1.000000 0.000000 0.000000 -0.164062 -0.043750
0 -68.000000 -10.500000 -2.200000 -1.000000 0.000000 0.000000 -0.164062 -0.034375
0 -68.000000 -9.500000 -2.200000 -1.000000 0.000000 0.000000 -0.148438 -0.034375
dark
0 -68.000000 -10.500000 -2.800000 -1.000000 0.000000 0.000000 -0.164062 -0.043750
0 -68.000000 -9.500000 -2.200000 -1.000000 0.000000 0.000000 -0.148438 -0.034375
0 -68.000000 -9.500000 -2.800000 -1.000000 0.000000 0.000000 -0.148438 -0.043750
dark
0 -16.000000 -10.500000 -2.800000 1.000000 0.000000 0.000000 -0.164062 -0.043750
0 -16.000000 -9.500000 -2.800000 1.000000 0.000000 0.000000 -0.148438 -0.043750
0 -16.000000 -9.500000 -2.200000 1.000000 0.000000 0.000000 -0.148438 -0.034375
dark
0 -16.000000 -10.500000 -2.800000 1.000000 0.000000 0.000000 -0.164062 -0.043750
0 -16.000000 -9.500000 -2.200000 1.000000 0.000000 0.000000 -0.148438 -0.034375
0 -16.000000 -10.500000 -2.200000 1.000000 0.000000 0.000000 -0.164062 -0.034375
dark
0 -68.000000 -10.500000 -2.800000 0.000000 -1.000000 0.000000 -1.062500 -0.043750
0 -16.000000 -10.500000 -2.800000 0.000000 -1.000000 0.000000 -0.250000 -0.043750
0 -16.000000 -10.500000 -2.200000 0.000000 -1.000000 0.000000 -0.250000 -0.034375
dark
0 -68.000000 -10.500000 -2.800000 0.000000 -1.000000 0.000000 -1.062500 -0.043750
0 -16.000000 -10.500000 -2.200000 0.000000 -1.000000 0.000000 -0.250000 -0.034375
0 -68.000000 -10.500000 -2.200000 0.000000 -1.000000 0.000000 -1.062500 -0.034375
dark
0 -68.000000 -9.500000 -2.800000 0.000000 1.000000 0.000000 -1.062500 -0.043750
0 -68.000000 -9.500000 -2.200000 0.000000 1.000000 0.000000 -1.062500 -0.034375
0 -16.000000 -9.500000 -2.200000 0.000000 1.000000 0.000000 -0.250000 -0.034375
dark
0 -68.000000 -9.500000 -2.800000 0.000000 1.000000 0.000000 -1.062500 -0.043750
0 -16.000000 -9.500000 -2.200000 0.000000 1.000000 0.000000 -0.250000 -0.034375
0 -16.000000 -9.500000 -2.800000 0.000000 1.000000 0.000000 -0.250000 -0.043750
dark
0 -68.000000 -10.500000 -2.800000 0.000000 0.000000 -1.000000 -1.062500 -0.164062
0 -68.000000 -9.500000 -2.800000 0.000000 0.000000 -1.000000 -1.062500 -0.148438
0 -16.000000 -9.500000 -2.800000 0.000000 0.000000 -1.000000 -0.250000 -0.148438
dark
0 -68.000000 -10.500000 -2.800000 0.000000 0.000000 -1.000000 -1.062500 -0.164062
0 -16.000000 -9.500000 -2.800000 0.000000 0.000000 -1.000000 -0.250000 -0.148438
0 -16.000000 -10.500000 -2.800000 0.000000 0.000000 -1.000000 -0.250000 -0.164062
dark
0 -68.000000 -10.500000 -2.200000 0.000000 0.000000 1.000000 -1.062500 -0.164062
0 -16.000000 -10.500000 -2.200000 0.000000 0.000000 1.000000 -0.250000 -0.164062
0 -16.000000 -9.500000 -2.200000 0.000000 0.000000 1.000000 -0.250000 -0.148438
dark
0 -68.000000 -10.500000 -2.200000 0.000000 0.000000 1.000000 -1.062500 -0.164062
0 -16.000000 -9.500000 -2.200000 0.000000 0.000000 1.000000 -0.250000 -0.148438
0 -68.000000 -9.500000 -2.200000 0.000000 0.000000 1.000000 -1.062500 -0.148438
dark
0 -68.000000 9.500000 -2.800000 -1.000000 0.000000 0.000000 0.148438 -0.043750
0 -68.000000 9.500000 -2.200000 -1.000000 0.000000 0.000000 0.148438 -0.034375
0 -68.000000 10.500000 -2.200000 -1.000000 0.000000 0.000000 0.164062 -0.034375
dark
0 -68.000000 9.500000 -2.800000 -1.000000 0.000000 0.000000 0.148438 -0.043750
0 -68.000000 10.500000 -2.200000 -1.000000 0.000000 0.000000 0.164062 -0.034375
0 -68.000000 10.500000 -2.800000 -1.000000 0.000000 0.000000 0.164062 -0.043750
dark
0 -16.000000 9.500000 -2.800000 1.000000 0.000000 0.000000 0.148438 -0.043750
0 -16.000000 10.500000 -2.800000 1.000000 0.000000 0.000000 0.164062 -0.043750
0 -16.000000 10.500000 -2.200000 1.000000 0.000000 0.000000 0.164062 -0.034375
dark
0 -16.000000 9.500000 -2.800000 1.000000 0.000000 0.000000 0.148438 -0.043750
0 -16.000000 10.500000 -2.200000 1.000000 0.000000 0.000000 0.164062 -0.034375
0 -16.000000 9.500000 -2.200000 1.000000 0.000000 0.000000 0.148438 -0.034375
dark
0 -68.000000 9.500000 -2.800000 0.000000 -1.000000 0.000000 -1.062500 -0.043750
0 -16.000000 9.500000 -2.800000 0.000000 -1.000000 0.000000 -0.250000 -0.043750
0 -16.000000 9.500000 -2.200000 0.000000 -1.000000 0.000000 -0.250000 -0.034375
dark
0 -68.000000 9.500000 -2.800000 0.000000 -1.000000 0.000000 -1.062500 -0.043750
0 -16.000000 9.500000 -2.200000 0.000000 -1.000000 0.000000 -0.250000 -0.034375
0 -68.000000 9.500000 -2.200000 0.000000 -1.000000 0.000000 -1.062500 -0.034375
dark
0 -68.000000 10.500000 -2.800000 0.000000 1.000000 0.000000 -1.062500 -0.043750
0 -68.000000 10.500000 -2.200000 0.000000 1.000000 0.000000 -1.062500 -0.034375
0 -16.000000 10.500000 -2.200000 0.000000 1.000000 0.000000 -0.250000 -0.034375
dark
0 -68.000000 10.500000 -2.800000 0.000000 1.000000 0.000000 -1.062500 -0.043750
0 -16.000000 10.500000 -2.200000 0.000000 1.000000 0.000000 -0.250000 -0.034375
0 -16.000000 10.500000 -2.800000 0.000000 1.000000 0.000000 -0.250000 -0.043750
dark
0 -68.000000 9.500000 -2.800000 0.000000 0.000000 -1.000000 -1.062500 0.148438
0 -68.000000 10.500000 -2.800000 0.000000 0.000000 -1.000000 -1.062500 0.164062
0 -16.000000 10.500000 -2.800000 0.000000 0.000000 -1.000000 -0.250000 0.164062
dark
0 -68.000000 9.500000 -2.800000 0.000000 0.000000 -1.000000 -1.062500 0.148438
0 -16.000000 10.500000 -2.800000 0.000000 0.000000 -1.000000 -0.250000 0.164062
0 -16.000000 9.500000 -2.800000 0.000000 0.000000 -1.000000 -0.250000 0.148438
dark
0 -68.000000 9.500000 -2.200000 0.000000 0.000000 1.000000 -1.062500 0.148438
0 -16.000000 9.500000 -2.200000 0.000000 0.000000 1.000000 -0.250000 0.148438
0 -16.000000 10.500000 -2.200000 0.000000 0.000000 1.000000 -0.250000 0.164062
dark
0 -68.000000 9.500000 -2.200000 0.000000 0.000000 1.000000 -1.062500 0.148438
0 -16.000000 10.500000 -2.200000 0.000000 0.000000 1.000000 -0.250000 0.164062
0 -68.000000 10.500000 -2.200000 0.000000 0.000000 1.000000 -1.062500 0.164062
board_grey
0 -80.000000 -6.000000 -7.000000 -1.000000 0.000000 0.000000 -0.093750 -0.109375
0 -80.000000 -6.000000 3.000000 -1.000000 0.000000 0.000000 -0.093750 0.046875
0 -80.000000 6.000000 3.000000 -1.000000 0.000000 0.000000 0.093750 0.046875
board_grey
0 -80.000000 -6.000000 -7.000000 -1.000000 0.000000 0.000000 -0.093750 -0.109375
0 -80.000000 6.000000 3.000000 -1.000000 0.000000 0.000000 0.093750 0.046875
0 -80.000000 6.000000 -7.000000 -1.000000 0.000000 0.000000 0.093750 -0.109375
board_grey
0 -70.000000 -6.000000 -7.000000 1.000000 0.000000 0.000000 -0.093750 -0.109375
0 -70.000000 6.000000 -7.000000 1.000000 0.000000 0.000000 0.093750 -0.109375
0 -70.000000 6.000000 3.000000 1.000000 0.000000 0.000000 0.093750 0.046875
board_grey
0 -70.000000 -6.000000 -7.000000 1.000000 0.000000 0.000000 -0.093750 -0.109375
0 -70.000000 6.000000 3.000000 1.000000 0.000000 0.000000 0.093750 0.046875
0 -70.000000 -6.000000 3.000000 1.000000 0.000000 0.000000 -0.093750 0.046875
board_grey
0 -80.000000 -6.000000 -7.000000 0.000000 -1.000000 0.000000 -1.250000 -0.109375
0 -70.000000 -6.000000 -7.000000 0.000000 -1.000000 0.000000 -1.093750 -0.109375
0 -70.000000 -6.000000 3.000000 0.000000 -1.000000 0.000000 -1.093750 0.046875
board_grey
0 -80.000000 -6.000000 -7.000000 0.000000 -1.000000 0.000000 -1.250000 -0.109375
0 -70.000000 -6.000000 3.000000 0.000000 -1.000000 0.000000 -1.093750 0.046875
0 -80.000000 -6.000000 3.000000 0.000000 -1.000000 0.000000 -1.250000 0.046875
board_grey
0 -80.000000 6.000000 -7.000000 0.000000 1.000000 0.000000 -1.250000 -0.109375
0 -80.000000 6.000000 3.000000 0.000000 1.000000 0.000000 -1.250000 0.046875
0 -70.000000 6.000000 3.000000 0.000000 1.000000 0.000000 -1.093750 0.046875
board_grey
0 -80.000000 6.000000 -7.000000 0.000000 1.000000 0.000000 -1.250000 -0.109375
0 -70.000000 6.000000 3.000000 0.000000 1.000000 0.000000 -1.093750 0.046875
0 -70.000000 6.000000 -7.000000 0.000000 1.000000 0.000000 -1.093750 -0.109375
board_grey
0 -80.000000 -6.000000 -7.000000 0.000000 0.000000 -1.000000 -1.250000 -0.093750
0 -80.000000 6.000000 -7.000000 0.000000 0.000000 -1.000000 -1.250000 0.093750
0 -70.000000 6.000000 -7.000000 0.000000 0.000000 -1.000000 -1.093750 0.093750
board_grey
0 -80.000000 -6.000000 -7.000000 0.000000 0.000000 -1.000000 -1.250000 -0.093750
0 -70.000000 6.000000 -7.000000 0.000000 0.000000 -1.000000 -1.093750 0.093750
0 -70.000000 -6.000000 -7.000000 0.000000 0.000000 -1.000000 -1.093750 -0.093750
board_grey
0 -80.000000 -6.000000 3.000000 0.000000 0.000000 1.000000 -1.250000 -0.093750
0 -70.000000 -6.000000 3.000000 0.000000 0.000000 1.000000 -1.093750 -0.093750
0 -70.000000 6.000000 3.000000 0.000000 0.000000 1.000000 -1.093750 0.093750
board_grey
0 -80.000000 -6.000000 3.000000 0.000000 0.000000 1.000000 -1.250000 -0.093750
0 -70.000000 6.000000 3.000000 0.000000 0.000000 1.000000 -1.093750 0.093750
0 -80.000000 6.000000 3.000000 0.000000 0.000000 1.000000 -1.250000 0.093750
dark
0 -86.000000 0.000000 -2.000000 -1.000000 0.000000 0.000000 0.000000 -0.031250
0 -86.000000 0.663307 -5.334670 -1.000000 0.000000 0.000000 0.010364 -0.083354
0 -86.000000 0.000000 -5.400000 -1.000000 0.000000 0.000000 0.000000 -0.084375
dark
0 -86.000000 0.000000 -2.000000 -1.000000 0.000000 0.000000 0.000000 -0.031250
0 -86.000000 1.301124 -5.141190 -1.000000 0.000000 0.000000 0.020330 -0.080331
0 -86.000000 0.663307 -5.334670 -1.000000 0.000000 0.000000 0.010364 -0.083354
dark
0 -86.000000 0.000000 -2.000000 -1.000000 0.000000 0.000000 0.000000 -0.031250
0 -86.000000 1.888939 -4.826997 -1.000000 0.000000 0.000000 0.029515 -0.075422
0 -86.000000 1.301124 -5.141190 -1.000000 0.000000 0.000000 0.020330 -0.080331
dark
0 -86.000000 0.000000 -2.000000 -1.000000 0.000000 0.000000 0.000000 -0.031250
0 -86.000000 2.404163 -4.404163 -1.000000 0.000000 0.000000 0.037565 -0.068815
0 -86.000000 1.888939 -4.826997 -1.000000 0.000000 0.000000 0.029515 -0.075422
dark
0 -86.000000 0.000000 -2.000000 -1.000000 0.000000 0.000000 0.000000 -0.031250
0 -86.000000 2.826997 -3.888939 -1.000000 0.000000 0.000000 0.044172 -0.060765
0 -86.000000 2.404163 -4.404163 -1.000000 0.000000 0.000000 0.037565 -0.068815
dark
0 -86.000000 0.000000 -2.000000 -1.000000 0.000000 0.000000 0.000000 -0.031250
0 -86.000000 3.141190 -3.301124 -1.000000 0.000000 0.000000 0.049081 -0.051580
0 -86.000000 2.826997 -3.888939 -1.000000 0.000000 0.000000 0.044172 -0.060765
dark
0 -86.000000 0.000000 -2.000000 -1.000000 0.000000 0.000000 0.000000 -0.031250
0 -86.000000 3.334670 -2.663307 -1.000000 0.000000 0.000000 0.052104 -0.041614
0 -86.000000 3.141190 -3.301124 -1.000000 0.000000 0.000000 0.049081 -0.051580
dark
0 -86.000000 0.000000 -2.000000 -1.000000 0.000000 0.000000 0.000000 -0.031250
0 -86.000000 3.400000 -2.000000 -1.000000 0.000000 0.000000 0.053125 -0.031250
0 -86.000000 3.334670 -2.663307 -1.000000 0.000000 0.000000 0.052104 -0.041614
dark
0 -86.000000 0.000000 -2.000000 -1.000000 0.000000 0.000000 0.000000 -0.031250
0 -86.000000 3.334670 -1.336693 -1.000000 0.000000 0.000000 0.052104 -0.020886
0 -86.000000 3.400000 -2.000000 -1.000000 0.000000 0.000000 0.053125 -0.031250
dark
0 -86.000000 0.000000 -2.000000 -1.000000 0.000000 0.000000 0.000000 -0.031250
0 -86.000000 3.141190 -0.698876 -1.000000 0.000000 0.000000 0.049081 -0.010920
0 -86.000000 3.334670 -1.336693 -1.000000 0.000000 0.000000 0.052104 -0.020886
dark
0 -86.000000 0.000000 -2.000000 -1.000000 0.000000 0.000000 0.000000 -0.031250
0 -86.000000 2.826997 -0.111061 -1.000000 0.000000 0.000000 0.044172 -0.001735
0 -86.000000 3.141190 -0.698876 -1.000000 0.000000 0.000000 0.049081 -0.010920
dark
0 -86.000000 0.000000 -2.000000 -1.000000 0.000000 0.000000 0.000000 -0.031250
0 -86.000000 2.404163 0.404163 -1.000000 0.000000 0.000000 0.037565 0.006315
0 -86.000000 2.826997 -0.111061 -1.000000 0.000000 0.000000 0.044172 -0.001735
dark
0 -86.000000 0.000000 -2.000000 -1.000000 0.000000 0.000000 0.000000 -0.031250
0 -86.000000 1.888939 0.826997 -1.000000 0.000000 0.000000 0.029515 0.012922
0 -86.000000 2.404163 0.404163 -1.000000 0.000000 0.000000 0.037565 0.006315
dark
0 -86.000000 0.000000 -2.000000 -1.000000 0.000000 0.000000 0.000000 -0.031250
0 -86.000000 1.301124 1.141190 -1.000000 0.000000 0.000000 0.020330 0.017831
0 -86.000000 1.888939 0.826997 -1.000000 0.000000 0.000000 0.029515 0.012922
dark
0 -86.000000 0.000000 -2.000000 -1.000000 0.000000 0.000000 0.000000 -0.031250
0 -86.000000 0.663307 1.334670 -1.000000 0.000000 0.000000 0.010364 0.020854
0 -86.000000 1.301124 1.141190 -1.000000 0.000000 0.000000 0.020330 0.017831
dark
0 -86.000000 0.000000 -2.000000 -1.000000 0.000000 0.000000 0.000000 -0.031250
0 -86.000000 0.000000 1.400000 -1.000000 0.000000 0.000000 0.000000 0.021875
0 -86.000000 0.663307 1.334670 -1.000000 0.000000 0.000000 0.010364 0.020854
dark
0 -86.000000 0.000000 -2.000000 -1.000000 0.000000 0.000000 0.000000 -0.031250
0 -86.000000 -0.663307 1.334670 -1.000000 0.000000 0.000000 -0.010364 0.020854
0 -86.000000 0.000000 1.400000 -1.000000 0.000000 0.000000 0.000000 0.021875
dark
0 -86.000000 0.000000 -2.000000 -1.000000 0.000000 0.000000 0.000000 -0.031250
0 -86.000000 -1.301124 1.141190 -1.000000 0.000000 0.000000 -0.020330 0.017831
0 -86.000000 -0.663307 1.334670 -1.000000 0.000000 0.000000 -0.010364 0.020854
dark
0 -86.000000 0.000000 -2.000000 -1.000000 0.000000 0.000000 0.000000 -0.031250
0 -86.000000 -1.888939 0.826997 -1.000000 0.000000 0.000000 -0.029515 0.012922
0 -86.000000 -1.301124 1.141190 -1.000000 0.000000 0.000000 -0.020330 0.017831
dark
0 -86.000000 0.000000 -2.000000 -1.000000 0.000000 0.000000 0.000000 -0.031250
0 -86.000000 -2.404163 0.404163 -1.000000 0.000000 0.000000 -0.037565 0.006315
0 -86.000000 -1.888939 0.826997 -1.000000 0.000000 0.000000 -0.029515 0.012922
dark
0 -86.000000 0.000000 -2.000000 -1.000000 0.000000 0.000000 0.000000 -0.031250
0 -86.000000 -2.826997 -0.111061 -1.000000 0.000000 0.000000 -0.044172 -0.001735
0 -86.000000 -2.404163 0.404163 -1.000000 0.000000 0.000000 -0.037565 0.006315
dark
0 -86.000000 0.000000 -2.000000 -1.000000 0.000000 0.000000 0.000000 -0.031250
0 -86.000000 -3.141190 -0.698876 -1.000000 0.000000 0.000000 -0.049081 -0.010920
0 -86.000000 -2.826997 -0.111061 -1.000000 0.000000 0.000000 -0.044172 -0.001735
dark
0 -86.000000 0.000000 -2.000000 -1.000000 0.000000 0.000000 0.000000 -0.031250
0 -86.000000 -3.334670 -1.336693 -1.000000 0.000000 0.000000 -0.052104 -0.020886
0 -86.000000 -3.141190 -0.698876 -1.000000 0.000000 0.000000 -0.049081 -0.010920
dark
0 -86.000000 0.000000 -2.000000 -1.000000 0.000000 0.000000 0.000000 -0.031250
0 -86.000000 -3.400000 -2.000000 -1.000000 0.000000 0.000000 -0.053125 -0.031250
0 -86.000000 -3.334670 -1.336693 -1.000000 0.000000 0.000000 -0.052104 -0.020886
dark
0 -86.000000 0.000000 -2.000000 -1.000000 -0.000000 0.000000 0.000000 -0.031250
0 -86.000000 -3.334670 -2.663307 -1.000000 -0.000000 0.000000 -0.052104 -0.041614
0 -86.000000 -3.400000 -2.000000 -1.000000 -0.000000 0.000000 -0.053125 -0.031250
dark
0 -86.000000 0.000000 -2.000000 -1.000000 0.000000 0.000000 0.000000 -0.031250
0 -86.000000 -3.141190 -3.301124 -1.000000 0.000000 0.000000 -0.049081 -0.051580
0 -86.000000 -3.334670 -2.663307 -1.000000 0.000000 0.000000 -0.052104 -0.041614
dark
0 -86.000000 0.000000 -2.000000 -1.000000 0.000000 0.000000 0.000000 -0.031250
0 -86.000000 -2.826997 -3.888939 -1.000000 0.000000 0.000000 -0.044172 -0.060765
0 -86.000000 -3.141190 -3.301124 -1.000000 0.000000 0.000000 -0.049081 -0.051580
dark
0 -86.000000 0.000000 -2.000000 -1.000000 0.000000 0.000000 0.000000 -0.031250
0 -86.000000 -2.404163 -4.404163 -1.000000 0.000000 0.000000 -0.037565 -0.068815
0 -86.000000 -2.826997 -3.888939 -1.000000 0.000000 0.000000 -0.044172 -0.060765
dark
0 -86.000000 0.000000 -2.000000 -1.000000 0.000000 0.000000 0.000000 -0.031250
0 -86.000000 -1.888939 -4.826997 -1.000000 0.000000 0.000000 -0.029515 -0.075422
0 -86.000000 -2.404163 -4.404163 -1.000000 0.000000 0.000000 -0.037565 -0.068815
dark
0 -86.000000 0.000000 -2.000000 -1.000000 0.000000 0.000000 0.000000 -0.031250
0 -86.000000 -1.301124 -5.141190 -1.000000 0.000000 0.000000 -0.020330 -0.080331
0 -86.000000 -1.888939 -4.826997 -1.000000 0.000000 0.000000 -0.029515 -0.075422
dark
0 -86.000000 0.000000 -2.000000 -1.000000 0.000000 0.000000 0.000000 -0.031250
0 -86.000000 -0.663307 -5.334670 -1.000000 0.000000 0.000000 -0.010364 -0.083354
0 -86.000000 -1.301124 -5.141190 -1.000000 0.000000 0.000000 -0.020330 -0.080331
dark
0 -86.000000 0.000000 -2.000000 -1.000000 0.000000 0.000000 0.000000 -0.031250
0 -86.000000 -0.000000 -5.400000 -1.000000 0.000000 0.000000 -0.000000 -0.084375
0 -86.000000 -0.663307 -5.334670 -1.000000 0.000000 0.000000 -0.010364 -0.083354
dark
0 -86.000000 0.000000 -5.400000 0.000000 0.098017 -0.995185 -1.343750 0.000000
0 -86.000000 0.663307 -5.334670 0.000000 0.098017 -0.995185 -1.343750 0.010364
0 -80.000000 0.663307 -5.334670 0.000000 0.098017 -0.995185 -1.250000 0.010364
dark
0 -86.000000 0.000000 -5.400000 0.000000 0.098017 -0.995185 -1.343750 0.000000
0 -80.000000 0.663307 -5.334670 0.000000 0.098017 -0.995185 -1.250000 0.010364
0 -80.000000 0.000000 -5.400000 0.000000 0.098017 -0.995185 -1.250000 0.000000
dark
0 -86.000000 0.663307 -5.334670 0.000000 0.290285 -0.956940 -1.343750 0.010364
0 -86.000000 1.301124 -5.141190 0.000000 0.290285 -0.956940 -1.343750 0.020330
0 -80.000000 1.301124 -5.141190 0.000000 0.290285 -0.956940 -1.250000 0.020330
dark
0 -86.000000 0.663307 -5.334670 0.000000 0.290285 -0.956940 -1.343750 0.010364
0 -80.000000 1.301124 -5.141190 0.000000 0.290285 -0.956940 -1.250000 0.020330
0 -80.000000 0.663307 -5.334670 0.000000 0.290285 -0.956940 -1.250000 0.010364
dark
0 -86.000000 1.301124 -5.141190 0.000000 0.471397 -0.881921 -1.343750 0.020330
0 -86.000000 1.888939 -4.826997 0.000000 0.471397 -0.881921 -1.343750 0.029515
0 -80.000000 1.888939 -4.826997 0.000000 0.471397 -0.881921 -1.250000 0.029515
dark
0 -86.000000 1.301124 -5.141190 0.000000 0.471397 -0.881921 -1.343750 0.020330
0 -80.000000 1.888939 -4.826997 0.000000 0.471397 -0.881921 -1.250000 0.029515
0 -80.000000 1.301124 -5.141190 0.000000 0.471397 -0.881921 -1.250000 0.020330
dark
0 -86.000000 1.888939 -4.826997 0.000000 0.634393 -0.773010 -1.343750 0.029515
0 -86.000000 2.404163 -4.404163 0.000000 0.634393 -0.773010 -1.343750 0.037565
0 -80.000000 2.404163 -4.404163 0.000000 0.634393 -0.773010 -1.250000 0.037565
dark
0 -86.000000 1.888939 -4.826997 0.000000 0.634393 -0.773010 -1.343750 0.029515
0 -80.000000 2.404163 -4.404163 0.000000 0.634393 -0.773010 -1.250000 0.037565
0 -80.000000 1.888939 -4.826997 0.000000 0.634393 -0.773010 -1.250000 0.029515
dark
0 -86.000000 2.404163 -4.404163 0.000000 0.773010 -0.634393 -1.343750 -0.068815
0 -86.000000 2.826997 -3.888939 0.000000 0.773010 -0.634393 -1.343750 -0.060765
0 -80.000000 2.826997 -3.888939 0.000000 0.773010 -0.634393 -1.250000 -0.060765
dark
0 -86.000000 2.404163 -4.404163 0.000000 0.773010 -0.634393 -1.343750 -0.068815
0 -80.000000 2.826997 -3.888939 0.000000 0.773010 -0.634393 -1.250000 -0.060765
0 -80.000000 2.404163 -4.404163 0.000000 0.773010 -0.634393 -1.250000 -0.068815
dark
0 -86.000000 2.826997 -3.888939 0.000000 0.881921 -0.471397 -1.343750 -0.060765
0 -86.000000 3.141190 -3.301124 0.000000 0.881921 -0.471397 -1.343750 -0.051580
0 -80.000000 3.141190 -3.301124 0.000000 0.881921 -0.471397 -1.250000 -0.051580
dark
0 -86.000000 2.826997 -3.888939 0.000000 0.881921 -0.471397 -1.343750 -0.060765
0 -80.000000 3.141190 -3.301124 0.000000 0.881921 -0.471397 -1.250000 -0.051580
0 -80.000000 2.826997 -3.888939 0.000000 0.881921 -0.471397 -1.250000 -0.060765
dark
0 -86.000000 3.141190 -3.301124 0.000000 0.956940 -0.290285 -1.343750 -0.051580
0 -86.000000 3.334670 -2.663307 0.000000 0.956940 -0.290285 -1.343750 -0.041614
0 -80.000000 3.334670 -2.663307 0.000000 0.956940 -0.290285 -1.250000 -0.041614
dark
0 -86.000000 3.141190 -3.301124 0.000000 0.956940 -0.290285 -1.343750 -0.051580
0 -80.000000 3.334670 -2.663307 0.000000 0.956940 -0.290285 -1.250000 -0.041614
0 -80.000000 3.141190 -3.301124 0.000000 0.956940 -0.290285 -1.250000 -0.051580
dark
0 -86.000000 3.334670 -2.663307 0.000000 0.995185 -0.098017 -1.343750 -0.041614
0 -86.000000 3.400000 -2.000000 0.000000 0.995185 -0.098017 -1.343750 -0.031250
0 -80.000000 3.400000 -2.000000 0.000000 0.995185 -0.098017 -1.250000 -0.031250
dark
0 -86.000000 3.334670 -2.663307 0.000000 0.995185 -0.098017 -1.343750 -0.041614
0 -80.000000 3.400000 -2.000000 0.000000 0.995185 -0.098017 -1.250000 -0.031250
0 -80.000000 3.334670 -2.663307 0.000000 0.995185 -0.098017 -1.250000 -0.041614
dark
0 -86.000000 3.400000 -2.000000 0.000000 0.995185 0.098017 -1.343750 -0.031250
0 -86.000000 3.334670 -1.336693 0.000000 0.995185 0.098017 -1.343750 -0.020886
0 -80.000000 3.334670 -1.336693 0.000000 0.995185 0.098017 -1.250000 -0.020886
dark
0 -86.000000 3.400000 -2.000000 -0.000000 0.995185 0.098017 -1.343750 -0.031250
0 -80.000000 3.334670 -1.336693 -0.000000 0.995185 0.098017 -1.250000 -0.020886
0 -80.000000 3.400000 -2.000000 -0.000000 0.995185 0.098017 -1.250000 -0.031250
dark
0 -86.000000 3.334670 -1.336693 0.000000 0.956940 0.290285 -1.343750 -0.020886
0 -86.000000 3.141190 -0.698876 0.000000 0.956940 0.290285 -1.343750 -0.010920
0 -80.000000 3.141190 -0.698876 0.000000 0.956940 0.290285 -1.250000 -0.010920
dark
0 -86.000000 3.334670 -1.336693 -0.000000 0.956940 0.290285 -1.343750 -0.020886
0 -80.000000 3.141190 -0.698876 -0.000000 0.956940 0.290285 -1.250000 -0.010920
0 -80.000000 3.334670 -1.336693 -0.000000 0.956940 0.290285 -1.250000 -0.020886
dark
0 -86.000000 3.141190 -0.698876 0.000000 0.881921 0.471397 -1.343750 -0.010920
0 -86.000000 2.826997 -0.111061 0.000000 0.881921 0.471397 -1.343750 -0.001735
0 -80.000000 2.826997 -0.111061 0.000000 0.881921 0.471397 -1.250000 -0.001735
dark
0 -86.000000 3.141190 -0.698876 -0.000000 0.881921 0.471397 -1.343750 -0.010920
0 -80.000000 2.826997 -0.111061 -0.000000 0.881921 0.471397 -1.250000 -0.001735
0 -80.000000 3.141190 -0.698876 -0.000000 0.881921 0.471397 -1.250000 -0.010920
dark
0 -86.000000 2.826997 -0.111061 0.000000 0.773010 0.634393 -1.343750 -0.001735
0 -86.000000 2.404163 0.404163 0.000000 0.773010 0.634393 -1.343750 0.006315
0 -80.000000 2.404163 0.404163 0.000000 0.773010 0.634393 -1.250000 0.006315
dark
0 -86.000000 2.826997 -0.111061 -0.000000 0.773010 0.634393 -1.343750 -0.001735
0 -80.000000 2.404163 0.404163 -0.000000 0.773010 0.634393 -1.250000 0.006315
0 -80.000000 2.826997 -0.111061 -0.000000 0.773010 0.634393 -1.250000 -0.001735
dark
0 -86.000000 2.404163 0.404163 0.000000 0.634393 0.773010 -1.343750 0.037565
0 -86.000000 1.888939 0.826997 0.000000 0.634393 0.773010 -1.343750 0.029515
0 -80.000000 1.888939 0.826997 0.000000 0.634393 0.773010 -1.250000 0.029515
dark
0 -86.000000 2.404163 0.404163 -0.000000 0.634393 0.773010 -1.343750 0.037565
0 -80.000000 1.888939 0.826997 -0.000000 0.634393 0.773010 -1.250000 0.029515
0 -80.000000 2.404163 0.404163 -0.000000 0.634393 0.773010 -1.250000 0.037565
dark
0 -86.000000 1.888939 0.826997 0.000000 0.471397 0.881921 -1.343750 0.029515
0 -86.000000 1.301124 1.141190 0.000000 0.471397 0.881921 -1.343750 0.020330
0 -80.000000 1.301124 1.141190 0.000000 0.471397 0.881921 -1.250000 0.020330
dark
0 -86.000000 1.888939 0.826997 -0.000000 0.471397 0.881921 -1.343750 0.029515
0 -80.000000 1.301124 1.141190 -0.000000 0.471397 0.881921 -1.250000 0.020330
0 -80.000000 1.888939 0.826997 -0.000000 0.471397 0.881921 -1.250000 0.029515
dark
0 -86.000000 1.301124 1.141190 0.000000 0.290285 0.956940 -1.343750 0.020330
0 -86.000000 0.663307 1.334670 0.000000 0.290285 0.956940 -1.343750 0.010364
0 -80.000000 0.663307 1.334670 0.000000 0.290285 0.956940 -1.250000 0.010364
dark
0 -86.000000 1.301124 1.141190 -0.000000 0.290285 0.956940 -1.343750 0.020330
0 -80.000000 0.663307 1.334670 -0.000000 0.290285 0.956940 -1.250000 0.010364
0 -80.000000 1.301124 1.141190 -0.000000 0.290285 0.956940 -1.250000 0.020330
dark
0 -86.000000 0.663307 1.334670 0.000000 0.098017 0.995185 -1.343750 0.010364
0 -86.000000 0.000000 1.400000 0.000000 0.098017 0.995185 -1.343750 0.000000
0 -80.000000 0.000000 1.400000 0.000000 0.098017 0.995185 -1.250000 0.000000
dark
0 -86.000000 0.663307 1.334670 -0.000000 0.098017 0.995185 -1.343750 0.010364
0 -80.000000 0.000000 1.400000 -0.000000 0.098017 0.995185 -1.250000 0.000000
0 -80.000000 0.663307 1.334670 -0.000000 0.098017 0.995185 -1.250000 0.010364
dark
0 -86.000000 0.000000 1.400000 0.000000 -0.098017 0.995185 -1.343750 0.000000
0 -86.000000 -0.663307 1.334670 0.000000 -0.098017 0.995185 -1.343750 -0.010364
0 -80.000000 -0.663307 1.334670 0.000000 -0.098017 0.995185 -1.250000 -0.010364
dark
0 -86.000000 0.000000 1.400000 0.000000 -0.098017 0.995185 -1.343750 0.000000
0 -80.000000 -0.663307 1.334670 0.000000 -0.098017 0.995185 -1.250000 -0.010364
0 -80.000000 0.000000 1.400000 0.000000 -0.098017 0.995185 -1.250000 0.000000
dark
0 -86.000000 -0.663307 1.334670 0.000000 -0.290285 0.956940 -1.343750 -0.010364
0 -86.000000 -1.301124 1.141190 0.000000 -0.290285 0.956940 -1.343750 -0.020330
0 -80.000000 -1.301124 1.141190 0.000000 -0.290285 0.956940 -1.250000 -0.020330
dark
0 -86.000000 -0.663307 1.334670 0.000000 -0.290285 0.956940 -1.343750 -0.010364
0 -80.000000 -1.301124 1.141190 0.000000 -0.290285 0.956940 -1.250000 -0.020330
0 -80.000000 -0.663307 1.334670 0.000000 -0.290285 0.956940 -1.250000 -0.010364
dark
0 -86.000000 -1.301124 1.141190 0.000000 -0.471397 0.881921 -1.343750 -0.020330
0 -86.000000 -1.888939 0.826997 0.000000 -0.471397 0.881921 -1.343750 -0.029515
0 -80.000000 -1.888939 0.826997 0.000000 -0.471397 0.881921 -1.250000 -0.029515
dark
0 -86.000000 -1.301124 1.141190 0.000000 -0.471397 0.881921 -1.343750 -0.020330
0 -80.000000 -1.888939 0.826997 0.000000 -0.471397 0.881921 -1.250000 -0.029515
0 -80.000000 -1.301124 1.141190 0.000000 -0.471397 0.881921 -1.250000 -0.020330
dark
0 -86.000000 -1.888939 0.826997 0.000000 -0.634393 0.773010 -1.343750 -0.029515
0 -86.000000 -2.404163 0.404163 0.000000 -0.634393 0.773010 -1.343750 -0.037565
0 -80.000000 -2.404163 0.404163 0.000000 -0.634393 0.773010 -1.250000 -0.037565
dark
0 -86.000000 -1.888939 0.826997 0.000000 -0.634393 0.773010 -1.343750 -0.029515
0 -80.000000 -2.404163 0.404163 0.000000 -0.634393 0.773010 -1.250000 -0.037565
0 -80.000000 -1.888939 0.826997 0.000000 -0.634393 0.773010 -1.250000 -0.029515
dark
0 -86.000000 -2.404163 0.404163 0.000000 -0.773010 0.634393 -1.343750 0.006315
0 -86.000000 -2.826997 -0.111061 0.000000 -0.773010 0.634393 -1.343750 -0.001735
0 -80.000000 -2.826997 -0.111061 0.000000 -0.773010 0.634393 -1.250000 -0.001735
dark
0 -86.000000 -2.404163 0.404163 0.000000 -0.773010 0.634393 -1.343750 0.006315
0 -80.000000 -2.826997 -0.111061 0.000000 -0.773010 0.634393 -1.250000 -0.001735
0 -80.000000 -2.404163 0.404163 0.000000 -0.773010 0.634393 -1.250000 0.006315
dark
0 -86.000000 -2.826997 -0.111061 0.000000 -0.881921 0.471397 -1.343750 -0.001735
0 -86.000000 -3.141190 -0.698876 0.000000 -0.881921 0.471397 -1.343750 -0.010920
0 -80.000000 -3.141190 -0.698876 0.000000 -0.881921 0.471397 -1.250000 -0.010920
dark
0 -86.000000 -2.826997 -0.111061 0.000000 -0.881921 0.471397 -1.343750 -0.001735
0 -80.000000 -3.141190 -0.698876 0.000000 -0.881921 0.471397 -1.250000 -0.010920
0 -80.000000 -2.826997 -0.111061 0.000000 -0.881921 0.471397 -1.250000 -0.001735
dark
0 -86.000000 -3.141190 -0.698876 0.000000 -0.956940 0.290285 -1.343750 -0.010920
0 -86.000000 -3.334670 -1.336693 0.000000 -0.956940 0.290285 -1.343750 -0.020886
0 -80.000000 -3.334670 -1.336693 0.000000 -0.956940 0.290285 -1.250000 -0.020886
dark
0 -86.000000 -3.141190 -0.698876 0.000000 -0.956940 0.290285 -1.343750 -0.010920
0 -80.000000 -3.334670 -1.336693 0.000000 -0.956940 0.290285 -1.250000 -0.020886
0 -80.000000 -3.141190 -0.698876 0.000000 -0.956940 0.290285 -1.250000 -0.010920
dark
0 -86.000000 -3.334670 -1.336693 0.000000 -0.995185 0.098017 -1.343750 -0.020886
0 -86.000000 -3.400000 -2.000000 0.000000 -0.995185 0.098017 -1.343750 -0.031250
0 -80.000000 -3.400000 -2.000000 0.000000 -0.995185 0.098017 -1.250000 -0.031250
dark
0 -86.000000 -3.334670 -1.336693 0.000000 -0.995185 0.098017 -1.343750 -0.020886
0 -80.000000 -3.400000 -2.000000 0.000000 -0.995185 0.098017 -1.250000 -0.031250
0 -80.000000 -3.334670 -1.336693 0.000000 -0.995185 0.098017 -1.250000 -0.020886
dark
0 -86.000000 -3.400000 -2.000000 0.000000 -0.995185 -0.098017 -1.343750 -0.031250
0 -86.000000 -3.334670 -2.663307 0.000000 -0.995185 -0.098017 -1.343750 -0.041614
0 -80.000000 -3.334670 -2.663307 0.000000 -0.995185 -0.098017 -1.250000 -0.041614
dark
0 -86.000000 -3.400000 -2.000000 0.000000 -0.995185 -0.098017 -1.343750 -0.031250
0 -80.000000 -3.334670 -2.663307 0.000000 -0.995185 -0.098017 -1.250000 -0.041614
0 -80.000000 -3.400000 -2.000000 0.000000 -0.995185 -0.098017 -1.250000 -0.031250
dark
0 -86.000000 -3.334670 -2.663307 0.000000 -0.956940 -0.290285 -1.343750 -0.041614
0 -86.000000 -3.141190 -3.301124 0.000000 -0.956940 -0.290285 -1.343750 -0.051580
0 -80.000000 -3.141190 -3.301124 0.000000 -0.956940 -0.290285 -1.250000 -0.051580
dark
0 -86.000000 -3.334670 -2.663307 0.000000 -0.956940 -0.290285 -1.343750 -0.041614
0 -80.000000 -3.141190 -3.301124 0.000000 -0.956940 -0.290285 -1.250000 -0.051580
0 -80.000000 -3.334670 -2.663307 0.000000 -0.956940 -0.290285 -1.250000 -0.041614
dark
0 -86.000000 -3.141190 -3.301124 0.000000 -0.881921 -0.471397 -1.343750 -0.051580
0 -86.000000 -2.826997 -3.888939 0.000000 -0.881921 -0.471397 -1.343750 -0.060765
0 -80.000000 -2.826997 -3.888939 0.000000 -0.881921 -0.471397 -1.250000 -0.060765
dark
0 -86.000000 -3.141190 -3.301124 0.000000 -0.881921 -0.471397 -1.343750 -0.051580
0 -80.000000 -2.826997 -3.888939 0.000000 -0.881921 -0.471397 -1.250000 -0.060765
0 -80.000000 -3.141190 -3.301124 0.000000 -0.881921 -0.471397 -1.250000 -0.051580
dark
0 -86.000000 -2.826997 -3.888939 0.000000 -0.773010 -0.634393 -1.343750 -0.060765
0 -86.000000 -2.404163 -4.404163 0.000000 -0.773010 -0.634393 -1.343750 -0.068815
0 -80.000000 -2.404163 -4.404163 0.000000 -0.773010 -0.634393 -1.250000 -0.068815
dark
0 -86.000000 -2.826997 -3.888939 0.000000 -0.773010 -0.634393 -1.343750 -0.060765
0 -80.000000 -2.404163 -4.404163 0.000000 -0.773010 -0.634393 -1.250000 -0.068815
0 -80.000000 -2.826997 -3.888939 0.000000 -0.773010 -0.634393 -1.250000 -0.060765
dark
0 -86.000000 -2.404163 -4.404163 0.000000 -0.634393 -0.773010 -1.343750 -0.037565
0 -86.000000 -1.888939 -4.826997 0.000000 -0.634393 -0.773010 -1.343750 -0.029515
0 -80.000000 -1.888939 -4.826997 0.000000 -0.634393 -0.773010 -1.250000 -0.029515
dark
0 -86.000000 -2.404163 -4.404163 0.000000 -0.634393 -0.773010 -1.343750 -0.037565
0 -80.000000 -1.888939 -4.826997 0.000000 -0.634393 -0.773010 -1.250000 -0.029515
0 -80.000000 -2.404163 -4.404163 0.000000 -0.634393 -0.773010 -1.250000 -0.037565
dark
0 -86.000000 -1.888939 -4.826997 0.000000 -0.471397 -0.881921 -1.343750 -0.029515
0 -86.000000 -1.301124 -5.141190 0.000000 -0.471397 -0.881921 -1.343750 -0.020330
0 -80.000000 -1.301124 -5.141190 0.000000 -0.471397 -0.881921 -1.250000 -0.020330
dark
0 -86.000000 -1.888939 -4.826997 0.000000 -0.471397 -0.881921 -1.343750 -0.029515
0 -80.000000 -1.301124 -5.141190 0.000000 -0.471397 -0.881921 -1.250000 -0.020330
0 -80.000000 -1.888939 -4.826997 0.000000 -0.471397 -0.881921 -1.250000 -0.029515
dark
0 -86.000000 -1.301124 -5.141190 0.000000 -0.290285 -0.956940 -1.343750 -0.020330
0 -86.000000 -0.663307 -5.334670 0.000000 -0.290285 -0.956940 -1.343750 -0.010364
0 -80.000000 -0.663307 -5.334670 0.000000 -0.290285 -0.956940 -1.250000 -0.010364
dark
0 -86.000000 -1.301124 -5.141190 0.000000 -0.290285 -0.956940 -1.343750 -0.020330
0 -80.000000 -0.663307 -5.334670 0.000000 -0.290285 -0.956940 -1.250000 -0.010364
0 -80.000000 -1.301124 -5.141190 0.000000 -0.290285 -0.956940 -1.250000 -0.020330
dark
0 -86.000000 -0.663307 -5.334670 0.000000 -0.098017 -0.995185 -1.343750 -0.010364
0 -86.000000 -0.000000 -5.400000 0.000000 -0.098017 -0.995185 -1.343750 -0.000000
0 -80.000000 -0.000000 -5.400000 0.000000 -0.098017 -0.995185 -1.250000 -0.000000
dark
0 -86.000000 -0.663307 -5.334670 0.000000 -0.098017 -0.995185 -1.343750 -0.010364
0 -80.000000 -0.000000 -5.400000 0.000000 -0.098017 -0.995185 -1.250000 -0.000000
0 -80.000000 -0.663307 -5.334670 0.000000 -0.098017 -0.995185 -1.250000 -0.010364
dark
0 -80.000000 0.000000 -5.400000 1.000000 0.000000 0.000000 0.000000 -0.084375
0 -80.000000 0.663307 -5.334670 1.000000 0.000000 0.000000 0.010364 -0.083354
0 -80.000000 0.000000 -2.000000 1.000000 0.000000 0.000000 0.000000 -0.031250
dark
0 -80.000000 0.663307 -5.334670 1.000000 0.000000 -0.000000 0.010364 -0.083354
0 -80.000000 1.301124 -5.141190 1.000000 0.000000 -0.000000 0.020330 -0.080331
0 -80.000000 0.000000 -2.000000 1.000000 0.000000 -0.000000 0.000000 -0.031250
dark
0 -80.000000 1.301124 -5.141190 1.000000 0.000000 -0.000000 0.020330 -0.080331
0 -80.000000 1.888939 -4.826997 1.000000 0.000000 -0.000000 0.029515 -0.075422
0 -80.000000 0.000000 -2.000000 1.000000 0.000000 -0.000000 0.000000 -0.031250
dark
0 -80.000000 1.888939 -4.826997 1.000000 0.000000 -0.000000 0.029515 -0.075422
0 -80.000000 2.404163 -4.404163 1.000000 0.000000 -0.000000 0.037565 -0.068815
0 -80.000000 0.000000 -2.000000 1.000000 0.000000 -0.000000 0.000000 -0.031250
dark
0 -80.000000 2.404163 -4.404163 1.000000 0.000000 -0.000000 0.037565 -0.068815
0 -80.000000 2.826997 -3.888939 1.000000 0.000000 -0.000000 0.044172 -0.060765
0 -80.000000 0.000000 -2.000000 1.000000 0.000000 -0.000000 0.000000 -0.031250
dark
0 -80.000000 2.826997 -3.888939 1.000000 0.000000 -0.000000 0.044172 -0.060765
0 -80.000000 3.141190 -3.301124 1.000000 0.000000 -0.000000 0.049081 -0.051580
0 -80.000000 0.000000 -2.000000 1.000000 0.000000 -0.000000 0.000000 -0.031250
dark
0 -80.000000 3.141190 -3.301124 1.000000 0.000000 -0.000000 0.049081 -0.051580
0 -80.000000 3.334670 -2.663307 1.000000 0.000000 -0.000000 0.052104 -0.041614
0 -80.000000 0.000000 -2.000000 1.000000 0.000000 -0.000000 0.000000 -0.031250
dark
0 -80.000000 3.334670 -2.663307 1.000000 0.000000 -0.000000 0.052104 -0.041614
0 -80.000000 3.400000 -2.000000 1.000000 0.000000 -0.000000 0.053125 -0.031250
0 -80.000000 0.000000 -2.000000 1.000000 0.000000 -0.000000 0.000000 -0.031250
dark
0 -80.000000 3.400000 -2.000000 1.000000 0.000000 0.000000 0.053125 -0.031250
0 -80.000000 3.334670 -1.336693 1.000000 0.000000 0.000000 0.052104 -0.020886
0 -80.000000 0.000000 -2.000000 1.000000 0.000000 0.000000 0.000000 -0.031250
dark
0 -80.000000 3.334670 -1.336693 1.000000 0.000000 0.000000 0.052104 -0.020886
0 -80.000000 3.141190 -0.698876 1.000000 0.000000 0.000000 0.049081 -0.010920
0 -80.000000 0.000000 -2.000000 1.000000 0.000000 0.000000 0.000000 -0.031250
dark
0 -80.000000 3.141190 -0.698876 1.000000 0.000000 0.000000 0.049081 -0.010920
0 -80.000000 2.826997 -0.111061 1.000000 0.000000 0.000000 0.044172 -0.001735
0 -80.000000 0.000000 -2.000000 1.000000 0.000000 0.000000 0.000000 -0.031250
dark
0 -80.000000 2.826997 -0.111061 1.000000 0.000000 0.000000 0.044172 -0.001735
0 -80.000000 2.404163 0.404163 1.000000 0.000000 0.000000 0.037565 0.006315
0 -80.000000 0.000000 -2.000000 1.000000 0.000000 0.000000 0.000000 -0.031250
dark
0 -80.000000 2.404163 0.404163 1.000000 0.000000 0.000000 0.037565 0.006315
0 -80.000000 1.888939 0.826997 1.000000 0.000000 0.000000 0.029515 0.012922
0 -80.000000 0.000000 -2.000000 1.000000 0.000000 0.000000 0.000000 -0.031250
dark
0 -80.000000 1.888939 0.826997 1.000000 0.000000 0.000000 0.029515 0.012922
0 -80.000000 1.301124 1.141190 1.000000 0.000000 0.000000 0.020330 0.017831
0 -80.000000 0.000000 -2.000000 1.000000 0.000000 0.000000 0.000000 -0.031250
dark
0 -80.000000 1.301124 1.141190 1.000000 0.000000 0.000000 0.020330 0.017831
0 -80.000000 0.663307 1.334670 1.000000 0.000000 0.000000 0.010364 0.020854
0 -80.000000 0.000000 -2.000000 1.000000 0.000000 0.000000 0.000000 -0.031250
dark
0 -80.000000 0.663307 1.334670 1.000000 0.000000 0.000000 0.010364 0.020854
0 -80.000000 0.000000 1.400000 1.000000 0.000000 0.000000 0.000000 0.021875
0 -80.000000 0.000000 -2.000000 1.000000 0.000000 0.000000 0.000000 -0.031250
dark
0 -80.000000 0.000000 1.400000 1.000000 0.000000 0.000000 0.000000 0.021875
0 -80.000000 -0.663307 1.334670 1.000000 0.000000 0.000000 -0.010364 0.020854
0 -80.000000 0.000000 -2.000000 1.000000 0.000000 0.000000 0.000000 -0.031250
dark
0 -80.000000 -0.663307 1.334670 1.000000 0.000000 0.000000 -0.010364 0.020854
0 -80.000000 -1.301124 1.141190 1.000000 0.000000 0.000000 -0.020330 0.017831
0 -80.000000 0.000000 -2.000000 1.000000 0.000000 0.000000 0.000000 -0.031250
dark
0 -80.000000 -1.301124 1.141190 1.000000 0.000000 0.000000 -0.020330 0.017831
0 -80.000000 -1.888939 0.826997 1.000000 0.000000 0.000000 -0.029515 0.012922
0 -80.000000 0.000000 -2.000000 1.000000 0.000000 0.000000 0.000000 -0.031250
dark
0 -80.000000 -1.888939 0.826997 1.000000 0.000000 0.000000 -0.029515 0.012922
0 -80.000000 -2.404163 0.404163 1.000000 0.000000 0.000000 -0.037565 0.006315
0 -80.000000 0.000000 -2.000000 1.000000 0.000000 0.000000 0.000000 -0.031250
dark
0 -80.000000 -2.404163 0.404163 1.000000 0.000000 0.000000 -0.037565 0.006315
0 -80.000000 -2.826997 -0.111061 1.000000 0.000000 0.000000 -0.044172 -0.001735
0 -80.000000 0.000000 -2.000000 1.000000 0.000000 0.000000 0.000000 -0.031250
dark
0 -80.000000 -2.826997 -0.111061 1.000000 0.000000 0.000000 -0.044172 -0.001735
0 -80.000000 -3.141190 -0.698876 1.000000 0.000000 0.000000 -0.049081 -0.010920
0 -80.000000 0.000000 -2.000000 1.000000 0.000000 0.000000 0.000000 -0.031250
dark
0 -80.000000 -3.141190 -0.698876 1.000000 0.000000 0.000000 -0.049081 -0.010920
0 -80.000000 -3.334670 -1.336693 1.000000 0.000000 0.000000 -0.052104 -0.020886
0 -80.000000 0.000000 -2.000000 1.000000 0.000000 0.000000 0.000000 -0.031250
dark
0 -80.000000 -3.334670 -1.336693 1.000000 0.000000 0.000000 -0.052104 -0.020886
0 -80.000000 -3.400000 -2.000000 1.000000 0.000000 0.000000 -0.053125 -0.031250
0 -80.000000 0.000000 -2.000000 1.000000 0.000000 0.000000 0.000000 -0.031250
dark
0 -80.000000 -3.400000 -2.000000 1.000000 0.000000 0.000000 -0.053125 -0.031250
0 -80.000000 -3.334670 -2.663307 1.000000 0.000000 0.000000 -0.052104 -0.041614
0 -80.000000 0.000000 -2.000000 1.000000 0.000000 0.000000 0.000000 -0.031250
dark
0 -80.000000 -3.334670 -2.663307 1.000000 -0.000000 0.000000 -0.052104 -0.041614
0 -80.000000 -3.141190 -3.301124 1.000000 -0.000000 0.000000 -0.049081 -0.051580
0 -80.000000 0.000000 -2.000000 1.000000 -0.000000 0.000000 0.000000 -0.031250
dark
0 -80.000000 -3.141190 -3.301124 1.000000 -0.000000 0.000000 -0.049081 -0.051580
0 -80.000000 -2.826997 -3.888939 1.000000 -0.000000 0.000000 -0.044172 -0.060765
0 -80.000000 0.000000 -2.000000 1.000000 -0.000000 0.000000 0.000000 -0.031250
dark
0 -80.000000 -2.826997 -3.888939 1.000000 -0.000000 0.000000 -0.044172 -0.060765
0 -80.000000 -2.404163 -4.404163 1.000000 -0.000000 0.000000 -0.037565 -0.068815
0 -80.000000 0.000000 -2.000000 1.000000 -0.000000 0.000000 0.000000 -0.031250
dark
0 -80.000000 -2.404163 -4.404163 1.000000 -0.000000 0.000000 -0.037565 -0.068815
0 -80.000000 -1.888939 -4.826997 1.000000 -0.000000 0.000000 -0.029515 -0.075422
0 -80.000000 0.000000 -2.000000 1.000000 -0.000000 0.000000 0.000000 -0.031250
dark
0 -80.000000 -1.888939 -4.826997 1.000000 -0.000000 0.000000 -0.029515 -0.075422
0 -80.000000 -1.301124 -5.141190 1.000000 -0.000000 0.000000 -0.020330 -0.080331
0 -80.000000 0.000000 -2.000000 1.000000 -0.000000 0.000000 0.000000 -0.031250
dark
0 -80.000000 -1.301124 -5.141190 1.000000 -0.000000 0.000000 -0.020330 -0.080331
0 -80.000000 -0.663307 -5.334670 1.000000 -0.000000 0.000000 -0.010364 -0.083354
0 -80.000000 0.000000 -2.000000 1.000000 -0.000000 0.000000 0.000000 -0.031250
dark
0 -80.000000 -0.663307 -5.334670 1.000000 -0.000000 0.000000 -0.010364 -0.083354
0 -80.000000 -0.000000 -5.400000 1.000000 -0.000000 0.000000 -0.000000 -0.084375
0 -80.000000 0.000000 -2.000000 1.000000 -0.000000 0.000000 0.000000 -0.031250
red
0 -79.900000 0.000000 -2.000000 -1.000000 0.000000 0.000000 0.000000 -0.031250
0 -79.900000 0.429199 -4.157728 -1.000000 0.000000 0.000000 0.006706 -0.064964
0 -79.900000 0.000000 -4.200000 -1.000000 0.000000 0.000000 0.000000 -0.065625
red
0 -79.900000 0.000000 -2.000000 -1.000000 0.000000 0.000000 0.000000 -0.031250
0 -79.900000 0.841904 -4.032535 -1.000000 0.000000 0.000000 0.013155 -0.063008
0 -79.900000 0.429199 -4.157728 -1.000000 0.000000 0.000000 0.006706 -0.064964
red
0 -79.900000 0.000000 -2.000000 -1.000000 0.000000 0.000000 0.000000 -0.031250
0 -79.900000 1.222255 -3.829233 -1.000000 0.000000 0.000000 0.019098 -0.059832
0 -79.900000 0.841904 -4.032535 -1.000000 0.000000 0.000000 0.013155 -0.063008
red
0 -79.900000 0.000000 -2.000000 -1.000000 0.000000 0.000000 0.000000 -0.031250
0 -79.900000 1.555635 -3.555635 -1.000000 0.000000 0.000000 0.024307 -0.055557
0 -79.900000 1.222255 -3.829233 -1.000000 0.000000 0.000000 0.019098 -0.059832
red
0 -79.900000 0.000000 -2.000000 -1.000000 0.000000 0.000000 0.000000 -0.031250
0 -79.900000 1.829233 -3.222255 -1.000000 0.000000 0.000000 0.028582 -0.050348
0 -79.900000 1.555635 -3.555635 -1.000000 0.000000 0.000000 0.024307 -0.055557
red
0 -79.900000 0.000000 -2.000000 -1.000000 0.000000 0.000000 0.000000 -0.031250
0 -79.900000 2.032535 -2.841904 -1.000000 0.000000 0.000000 0.031758 -0.044405
0 -79.900000 1.829233 -3.222255 -1.000000 0.000000 0.000000 0.028582 -0.050348
red
0 -79.900000 0.000000 -2.000000 -1.000000 0.000000 0.000000 0.000000 -0.031250
0 -79.900000 2.157728 -2.429199 -1.000000 0.000000 0.000000 0.033714 -0.037956
0 -79.900000 2.032535 -2.841904 -1.000000 0.000000 0.000000 0.031758 -0.044405
red
0 -79.900000 0.000000 -2.000000 -1.000000 0.000000 0.000000 0.000000 -0.031250
0 -79.900000 2.200000 -2.000000 -1.000000 0.000000 0.000000 0.034375 -0.031250
0 -79.900000 2.157728 -2.429199 -1.000000 0.000000 0.000000 0.033714 -0.037956
red
0 -79.900000 0.000000 -2.000000 -1.000000 0.000000 0.000000 0.000000 -0.031250
0 -79.900000 2.157728 -1.570801 -1.000000 0.000000 0.000000 0.033714 -0.024544
0 -79.900000 2.200000 -2.000000 -1.000000 0.000000 0.000000 0.034375 -0.031250
red
0 -79.900000 0.000000 -2.000000 -1.000000 0.000000 0.000000 0.000000 -0.031250
0 -79.900000 2.032535 -1.158096 -1.000000 0.000000 0.000000 0.031758 -0.018095
0 -79.900000 2.157728 -1.570801 -1.000000 0.000000 0.000000 0.033714 -0.024544
red
0 -79.900000 0.000000 -2.000000 -1.000000 0.000000 0.000000 0.000000 -0.031250
0 -79.900000 1.829233 -0.777745 -1.000000 0.000000 0.000000 0.028582 -0.012152
0 -79.900000 2.032535 -1.158096 -1.000000 0.000000 0.000000 0.031758 -0.018095
red
0 -79.900000 0.000000 -2.000000 -1.000000 0.000000 0.000000 0.000000 -0.031250
0 -79.900000 1.555635 -0.444365 -1.000000 0.000000 0.000000 0.024307 -0.006943
0 -79.900000 1.829233 -0.777745 -1.000000 0.000000 0.000000 0.028582 -0.012152
red
0 -79.900000 0.000000 -2.000000 -1.000000 0.000000 0.000000 0.000000 -0.031250
0 -79.900000 1.222255 -0.170767 -1.000000 0.000000 0.000000 0.019098 -0.002668
0 -79.900000 1.555635 -0.444365 -1.000000 0.000000 0.000000 0.024307 -0.006943
red
0 -79.900000 0.000000 -2.000000 -1.000000 0.000000 0.000000 0.000000 -0.031250
0 -79.900000 0.841904 0.032535 -1.000000 0.000000 0.000000 0.013155 0.000508
0 -79.900000 1.222255 -0.170767 -1.000000 0.000000 0.000000 0.019098 -0.002668
red
0 -79.900000 0.000000 -2.000000 -1.000000 0.000000 0.000000 0.000000 -0.031250
0 -79.900000 0.429199 0.157728 -1.000000 0.000000 0.000000 0.006706 0.002464
0 -79.900000 0.841904 0.032535 -1.000000 0.000000 0.000000 0.013155 0.000508
red
0 -79.900000 0.000000 -2.000000 -1.000000 0.000000 0.000000 0.000000 -0.031250
0 -79.900000 0.000000 0.200000 -1.000000 0.000000 0.000000 0.000000 0.003125
0 -79.900000 0.429199 0.157728 -1.000000 0.000000 0.000000 0.006706 0.002464
red
0 -79.900000 0.000000 -2.000000 -1.000000 0.000000 0.000000 0.000000 -0.031250
0 -79.900000 -0.429199 0.157728 -1.000000 0.000000 0.000000 -0.006706 0.002464
0 -79.900000 0.000000 0.200000 -1.000000 0.000000 0.000000 0.000000 0.003125
red
0 -79.900000 0.000000 -2.000000 -1.000000 0.000000 0.000000 0.000000 -0.031250
0 -79.900000 -0.841904 0.032535 -1.000000 0.000000 0.000000 -0.013155 0.000508
0 -79.900000 -0.429199 0.157728 -1.000000 0.000000 0.000000 -0.006706 0.002464
red
0 -79.900000 0.000000 -2.000000 -1.000000 0.000000 0.000000 0.000000 -0.031250
0 -79.900000 -1.222255 -0.170767 -1.000000 0.000000 0.000000 -0.019098 -0.002668
0 -79.900000 -0.841904 0.032535 -1.000000 0.000000 0.000000 -0.013155 0.000508
red
0 -79.900000 0.000000 -2.000000 -1.000000 0.000000 0.000000 0.000000 -0.031250
0 -79.900000 -1.555635 -0.444365 -1.000000 0.000000 0.000000 -0.024307 -0.006943
0 -79.900000 -1.222255 -0.170767 -1.000000 0.000000 0.000000 -0.019098 -0.002668
red
0 -79.900000 0.000000 -2.000000 -1.000000 0.000000 0.000000 0.000000 -0.031250
0 -79.900000 -1.829233 -0.777745 -1.000000 0.000000 0.000000 -0.028582 -0.012152
0 -79.900000 -1.555635 -0.444365 -1.000000 0.000000 0.000000 -0.024307 -0.006943
red
0 -79.900000 0.000000 -2.000000 -1.000000 0.000000 0.000000 0.000000 -0.031250
0 -79.900000 -2.032535 -1.158096 -1.000000 0.000000 0.000000 -0.031758 -0.018095
0 -79.900000 -1.829233 -0.777745 -1.000000 0.000000 0.000000 -0.028582 -0.012152
red
0 -79.900000 0.000000 -2.000000 -1.000000 0.000000 0.000000 0.000000 -0.031250
0 -79.900000 -2.157728 -1.570801 -1.000000 0.000000 0.000000 -0.033714 -0.024544
0 -79.900000 -2.032535 -1.158096 -1.000000 0.000000 0.000000 -0.031758 -0.018095
red
0 -79.900000 0.000000 -2.000000 -1.000000 0.000000 0.000000 0.000000 -0.031250
0 -79.900000 -2.200000 -2.000000 -1.000000 0.000000 0.000000 -0.034375 -0.031250
0 -79.900000 -2.157728 -1.570801 -1.000000 0.000000 0.000000 -0.033714 -0.024544
red
0 -79.900000 0.000000 -2.000000 -1.000000 -0.000000 0.000000 0.000000 -0.031250
0 -79.900000 -2.157728 -2.429199 -1.000000 -0.000000 0.000000 -0.033714 -0.037956
0 -79.900000 -2.200000 -2.000000 -1.000000 -0.000000 0.000000 -0.034375 -0.031250
red
0 -79.900000 0.000000 -2.000000 -1.000000 0.000000 0.000000 0.000000 -0.031250
0 -79.900000 -2.032535 -2.841904 -1.000000 0.000000 0.000000 -0.031758 -0.044405
0 -79.900000 -2.157728 -2.429199 -1.000000 0.000000 0.000000 -0.033714 -0.037956
red
0 -79.900000 0.000000 -2.000000 -1.000000 0.000000 0.000000 0.000000 -0.031250
0 -79.900000 -1.829233 -3.222255 -1.000000 0.000000 0.000000 -0.028582 -0.050348
0 -79.900000 -2.032535 -2.841904 -1.000000 0.000000 0.000000 -0.031758 -0.044405
red
0 -79.900000 0.000000 -2.000000 -1.000000 0.000000 0.000000 0.000000 -0.031250
0 -79.900000 -1.555635 -3.555635 -1.000000 0.000000 0.000000 -0.024307 -0.055557
0 -79.900000 -1.829233 -3.222255 -1.000000 0.000000 0.000000 -0.028582 -0.050348
red
0 -79.900000 0.000000 -2.000000 -1.000000 0.000000 0.000000 0.000000 -0.031250
0 -79.900000 -1.222255 -3.829233 -1.000000 0.000000 0.000000 -0.019098 -0.059832
0 -79.900000 -1.555635 -3.555635 -1.000000 0.000000 0.000000 -0.024307 -0.055557
red
0 -79.900000 0.000000 -2.000000 -1.000000 0.000000 0.000000 0.000000 -0.031250
0 -79.900000 -0.841904 -4.032535 -1.000000 0.000000 0.000000 -0.013155 -0.063008
0 -79.900000 -1.222255 -3.829233 -1.000000 0.000000 0.000000 -0.019098 -0.059832
red
0 -79.900000 0.000000 -2.000000 -1.000000 0.000000 0.000000 0.000000 -0.031250
0 -79.900000 -0.429199 -4.157728 -1.000000 0.000000 0.000000 -0.006706 -0.064964
0 -79.900000 -0.841904 -4.032535 -1.000000 0.000000 0.000000 -0.013155 -0.063008
red
0 -79.900000 0.000000 -2.000000 -1.000000 0.000000 0.000000 0.000000 -0.031250
0 -79.900000 -0.000000 -4.200000 -1.000000 0.000000 0.000000 -0.000000 -0.065625
0 -79.900000 -0.429199 -4.157728 -1.000000 0.000000 0.000000 -0.006706 -0.064964
red
0 -79.900000 0.000000 -4.200000 0.000000 0.098017 -0.995185 -1.248438 0.000000
0 -79.900000 0.429199 -4.157728 0.000000 0.098017 -0.995185 -1.248438 0.006706
0 -79.700000 0.429199 -4.157728 0.000000 0.098017 -0.995185 -1.245313 0.006706
red
0 -79.900000 0.000000 -4.200000 0.000000 0.098017 -0.995185 -1.248438 0.000000
0 -79.700000 0.429199 -4.157728 0.000000 0.098017 -0.995185 -1.245313 0.006706
0 -79.700000 0.000000 -4.200000 0.000000 0.098017 -0.995185 -1.245313 0.000000
red
0 -79.900000 0.429199 -4.157728 0.000000 0.290285 -0.956940 -1.248438 0.006706
0 -79.900000 0.841904 -4.032535 0.000000 0.290285 -0.956940 -1.248438 0.013155
0 -79.700000 0.841904 -4.032535 0.000000 0.290285 -0.956940 -1.245313 0.013155
red
0 -79.900000 0.429199 -4.157728 0.000000 0.290285 -0.956940 -1.248438 0.006706
0 -79.700000 0.841904 -4.032535 0.000000 0.290285 -0.956940 -1.245313 0.013155
0 -79.700000 0.429199 -4.157728 0.000000 0.290285 -0.956940 -1.245313 0.006706
red
0 -79.900000 0.841904 -4.032535 0.000000 0.471397 -0.881921 -1.248438 0.013155
0 -79.900000 1.222255 -3.829233 0.000000 0.471397 -0.881921 -1.248438 0.019098
0 -79.700000 1.222255 -3.829233 0.000000 0.471397 -0.881921 -1.245313 0.019098
red
0 -79.900000 0.841904 -4.032535 0.000000 0.471397 -0.881921 -1.248438 0.013155
0 -79.700000 1.222255 -3.829233 0.000000 0.471397 -0.881921 -1.245313 0.019098
0 -79.700000 0.841904 -4.032535 0.000000 0.471397 -0.881921 -1.245313 0.013155
red
0 -79.900000 1.222255 -3.829233 0.000000 0.634393 -0.773010 -1.248438 0.019098
0 -79.900000 1.555635 -3.555635 0.000000 0.634393 -0.773010 -1.248438 0.024307
0 -79.700000 1.555635 -3.555635 0.000000 0.634393 -0.773010 -1.245313 0.024307
red
0 -79.900000 1.222255 -3.829233 0.000000 0.634393 -0.773010 -1.248438 0.019098
0 -79.700000 1.555635 -3.555635 0.000000 0.634393 -0.773010 -1.245313 0.024307
0 -79.700000 1.222255 -3.829233 0.000000 0.634393 -0.773010 -1.245313 0.019098
red
0 -79.900000 1.555635 -3.555635 0.000000 0.773010 -0.634393 -1.248438 -0.055557
0 -79.900000 1.829233 -3.222255 0.000000 0.773010 -0.634393 -1.248438 -0.050348
0 -79.700000 1.829233 -3.222255 0.000000 0.773010 -0.634393 -1.245313 -0.050348
red
0 -79.900000 1.555635 -3.555635 0.000000 0.773010 -0.634393 -1.248438 -0.055557
0 -79.700000 1.829233 -3.222255 0.000000 0.773010 -0.634393 -1.245313 -0.050348
0 -79.700000 1.555635 -3.555635 0.000000 0.773010 -0.634393 -1.245313 -0.055557
red
0 -79.900000 1.829233 -3.222255 0.000000 0.881921 -0.471397 -1.248438 -0.050348
0 -79.900000 2.032535 -2.841904 0.000000 0.881921 -0.471397 -1.248438 -0.044405
0 -79.700000 2.032535 -2.841904 0.000000 0.881921 -0.471397 -1.245313 -0.044405
red
0 -79.900000 1.829233 -3.222255 0.000000 0.881921 -0.471397 -1.248438 -0.050348
0 -79.700000 2.032535 -2.841904 0.000000 0.881921 -0.471397 -1.245313 -0.044405
0 -79.700000 1.829233 -3.222255 0.000000 0.881921 -0.471397 -1.245313 -0.050348
red
0 -79.900000 2.032535 -2.841904 0.000000 0.956940 -0.290285 -1.248438 -0.044405
0 -79.900000 2.157728 -2.429199 0.000000 0.956940 -0.290285 -1.248438 -0.037956
0 -79.700000 2.157728 -2.429199 0.000000 0.956940 -0.290285 -1.245313 -0.037956
red
0 -79.900000 2.032535 -2.841904 0.000000 0.956940 -0.290285 -1.248438 -0.044405
0 -79.700000 2.157728 -2.429199 0.000000 0.956940 -0.290285 -1.245313 -0.037956
0 -79.700000 2.032535 -2.841904 0.000000 0.956940 -0.290285 -1.245313 -0.044405
red
0 -79.900000 2.157728 -2.429199 0.000000 0.995185 -0.098017 -1.248438 -0.037956
0 -79.900000 2.200000 -2.000000 0.000000 0.995185 -0.098017 -1.248438 -0.031250
0 -79.700000 2.200000 -2.000000 0.000000 0.995185 -0.098017 -1.245313 -0.031250
red
0 -79.900000 2.157728 -2.429199 0.000000 0.995185 -0.098017 -1.248438 -0.037956
0 -79.700000 2.200000 -2.000000 0.000000 0.995185 -0.098017 -1.245313 -0.031250
0 -79.700000 2.157728 -2.429199 0.000000 0.995185 -0.098017 -1.245313 -0.037956
red
0 -79.900000 2.200000 -2.000000 0.000000 0.995185 0.098017 -1.248438 -0.031250
0 -79.900000 2.157728 -1.570801 0.000000 0.995185 0.098017 -1.248438 -0.024544
0 -79.700000 2.157728 -1.570801 0.000000 0.995185 0.098017 -1.245313 -0.024544
red
0 -79.900000 2.200000 -2.000000 -0.000000 0.995185 0.098017 -1.248438 -0.031250
0 -79.700000 2.157728 -1.570801 -0.000000 0.995185 0.098017 -1.245313 -0.024544
0 -79.700000 2.200000 -2.000000 -0.000000 0.995185 0.098017 -1.245313 -0.031250
red
0 -79.900000 2.157728 -1.570801 0.000000 0.956940 0.290285 -1.248438 -0.024544
0 -79.900000 2.032535 -1.158096 0.000000 0.956940 0.290285 -1.248438 -0.018095
0 -79.700000 2.032535 -1.158096 0.000000 0.956940 0.290285 -1.245313 -0.018095
red
0 -79.900000 2.157728 -1.570801 -0.000000 0.956940 0.290285 -1.248438 -0.024544
0 -79.700000 2.032535 -1.158096 -0.000000 0.956940 0.290285 -1.245313 -0.018095
0 -79.700000 2.157728 -1.570801 -0.000000 0.956940 0.290285 -1.245313 -0.024544
red
0 -79.900000 2.032535 -1.158096 0.000000 0.881921 0.471397 -1.248438 -0.018095
0 -79.900000 1.829233 -0.777745 0.000000 0.881921 0.471397 -1.248438 -0.012152
0 -79.700000 1.829233 -0.777745 0.000000 0.881921 0.471397 -1.245313 -0.012152
red
0 -79.900000 2.032535 -1.158096 -0.000000 0.881921 0.471397 -1.248438 -0.018095
0 -79.700000 1.829233 -0.777745 -0.000000 0.881921 0.471397 -1.245313 -0.012152
0 -79.700000 2.032535 -1.158096 -0.000000 0.881921 0.471397 -1.245313 -0.018095
red
0 -79.900000 1.829233 -0.777745 0.000000 0.773010 0.634393 -1.248438 -0.012152
0 -79.900000 1.555635 -0.444365 0.000000 0.773010 0.634393 -1.248438 -0.006943
0 -79.700000 1.555635 -0.444365 0.000000 0.773010 0.634393 -1.245313 -0.006943
red
0 -79.900000 1.829233 -0.777745 -0.000000 0.773010 0.634393 -1.248438 -0.012152
0 -79.700000 1.555635 -0.444365 -0.000000 0.773010 0.634393 -1.245313 -0.006943
0 -79.700000 1.829233 -0.777745 -0.000000 0.773010 0.634393 -1.245313 -0.012152
red
0 -79.900000 1.555635 -0.444365 0.000000 0.634393 0.773010 -1.248438 0.024307
0 -79.900000 1.222255 -0.170767 0.000000 0.634393 0.773010 -1.248438 0.019098
0 -79.700000 1.222255 -0.170767 0.000000 0.634393 0.773010 -1.245313 0.019098
red
0 -79.900000 1.555635 -0.444365 -0.000000 0.634393 0.773010 -1.248438 0.024307
0 -79.700000 1.222255 -0.170767 -0.000000 0.634393 0.773010 -1.245313 0.019098
0 -79.700000 1.555635 -0.444365 -0.000000 0.634393 0.773010 -1.245313 0.024307
red
0 -79.900000 1.222255 -0.170767 0.000000 0.471397 0.881921 -1.248438 0.019098
0 -79.900000 0.841904 0.032535 0.000000 0.471397 0.881921 -1.248438 0.013155
0 -79.700000 0.841904 0.032535 0.000000 0.471397 0.881921 -1.245313 0.013155
red
0 -79.900000 1.222255 -0.170767 -0.000000 0.471397 0.881921 -1.248438 0.019098
0 -79.700000 0.841904 0.032535 -0.000000 0.471397 0.881921 -1.245313 0.013155
0 -79.700000 1.222255 -0.170767 -0.000000 0.471397 0.881921 -1.245313 0.019098
red
0 -79.900000 0.841904 0.032535 0.000000 0.290285 0.956940 -1.248438 0.013155
0 -79.900000 0.429199 0.157728 0.000000 0.290285 0.956940 -1.248438 0.006706
0 -79.700000 0.429199 0.157728 0.000000 0.290285 0.956940 -1.245313 0.006706
red
0 -79.900000 0.841904 0.032535 -0.000000 0.290285 0.956940 -1.248438 0.013155
0 -79.700000 0.429199 0.157728 -0.000000 0.290285 0.956940 -1.245313 0.006706
0 -79.700000 0.841904 0.032535 -0.000000 0.290285 0.956940 -1.245313 0.013155
red
0 -79.900000 0.429199 0.157728 0.000000 0.098017 0.995185 -1.248438 0.006706
0 -79.900000 0.000000 0.200000 0.000000 0.098017 0.995185 -1.248438 0.000000
0 -79.700000 0.000000 0.200000 0.000000 0.098017 0.995185 -1.245313 0.000000
red
0 -79.900000 0.429199 0.157728 -0.000000 0.098017 0.995185 -1.248438 0.006706
0 -79.700000 0.000000 0.200000 -0.000000 0.098017 0.995185 -1.245313 0.000000
0 -79.700000 0.429199 0.157728 -0.000000 0.098017 0.995185 -1.245313 0.006706
red
0 -79.900000 0.000000 0.200000 0.000000 -0.098017 0.995185 -1.248438 0.000000
0 -79.900000 -0.429199 0.157728 0.000000 -0.098017 0.995185 -1.248438 -0.006706
0 -79.700000 -0.429199 0.157728 0.000000 -0.098017 0.995185 -1.245313 -0.006706
red
0 -79.900000 0.000000 0.200000 0.000000 -0.098017 0.995185 -1.248438 0.000000
0 -79.700000 -0.429199 0.157728 0.000000 -0.098017 0.995185 -1.245313 -0.006706
0 -79.700000 0.000000 0.200000 0.000000 -0.098017 0.995185 -1.245313 0.000000
red
0 -79.900000 -0.429199 0.157728 0.000000 -0.290285 0.956940 -1.248438 -0.006706
0 -79.900000 -0.841904 0.032535 0.000000 -0.290285 0.956940 -1.248438 -0.013155
0 -79.700000 -0.841904 0.032535 0.000000 -0.290285 0.956940 -1.245313 -0.013155
red
0 -79.900000 -0.429199 0.157728 0.000000 -0.290285 0.956940 -1.248438 -0.006706
0 -79.700000 -0.841904 0.032535 0.000000 -0.290285 0.956940 -1.245313 -0.013155
0 -79.700000 -0.429199 0.157728 0.000000 -0.290285 0.956940 -1.245313 -0.006706
red
0 -79.900000 -0.841904 0.032535 0.000000 -0.471397 0.881921 -1.248438 -0.013155
0 -79.900000 -1.222255 -0.170767 0.000000 -0.471397 0.881921 -1.248438 -0.019098
0 -79.700000 -1.222255 -0.170767 0.000000 -0.471397 0.881921 -1.245313 -0.019098
red
0 -79.900000 -0.841904 0.032535 0.000000 -0.471397 0.881921 -1.248438 -0.013155
0 -79.700000 -1.222255 -0.170767 0.000000 -0.471397 0.881921 -1.245313 -0.019098
0 -79.700000 -0.841904 0.032535 0.000000 -0.471397 0.881921 -1.245313 -0.013155
red
0 -79.900000 -1.222255 -0.170767 0.000000 -0.634393 0.773010 -1.248438 -0.019098
0 -79.900000 -1.555635 -0.444365 0.000000 -0.634393 0.773010 -1.248438 -0.024307
0 -79.700000 -1.555635 -0.444365 0.000000 -0.634393 0.773010 -1.245313 -0.024307
red
0 -79.900000 -1.222255 -0.170767 0.000000 -0.634393 0.773010 -1.248438 -0.019098
0 -79.700000 -1.555635 -0.444365 0.000000 -0.634393 0.773010 -1.245313 -0.024307
0 -79.700000 -1.222255 -0.170767 0.000000 -0.634393 0.773010 -1.245313 -0.019098
red
0 -79.900000 -1.555635 -0.444365 0.000000 -0.773010 0.634393 -1.248438 -0.006943
0 -79.900000 -1.829233 -0.777745 0.000000 -0.773010 0.634393 -1.248438 -0.012152
0 -79.700000 -1.829233 -0.777745 0.000000 -0.773010 0.634393 -1.245313 -0.012152
red
0 -79.900000 -1.555635 -0.444365 0.000000 -0.773010 0.634393 -1.248438 -0.006943
0 -79.700000 -1.829233 -0.777745 0.000000 -0.773010 0.634393 -1.245313 -0.012152
0 -79.700000 -1.555635 -0.444365 0.000000 -0.773010 0.634393 -1.245313 -0.006943
red
0 -79.900000 -1.829233 -0.777745 0.000000 -0.881921 0.471397 -1.248438 -0.012152
0 -79.900000 -2.032535 -1.158096 0.000000 -0.881921 0.471397 -1.248438 -0.018095
0 -79.700000 -2.032535 -1.158096 0.000000 -0.881921 0.471397 -1.245313 -0.018095
red
0 -79.900000 -1.829233 -0.777745 0.000000 -0.881921 0.471397 -1.248438 -0.012152
0 -79.700000 -2.032535 -1.158096 0.000000 -0.881921 0.471397 -1.245313 -0.018095
0 -79.700000 -1.829233 -0.777745 0.000000 -0.881921 0.471397 -1.245313 -0.012152
red
0 -79.900000 -2.032535 -1.158096 0.000000 -0.956940 0.290285 -1.248438 -0.018095
0 -79.900000 -2.157728 -1.570801 0.000000 -0.956940 0.290285 -1.248438 -0.024544
0 -79.700000 -2.157728 -1.570801 0.000000 -0.956940 0.290285 -1.245313 -0.024544
red
0 -79.900000 -2.032535 -1.158096 0.000000 -0.956940 0.290285 -1.248438 -0.018095
0 -79.700000 -2.157728 -1.570801 0.000000 -0.956940 0.290285 -1.245313 -0.024544
0 -79.700000 -2.032535 -1.158096 0.000000 -0.956940 0.290285 -1.245313 -0.018095
red
0 -79.900000 -2.157728 -1.570801 0.000000 -0.995185 0.098017 -1.248438 -0.024544
0 -79.900000 -2.200000 -2.000000 0.000000 -0.995185 0.098017 -1.248438 -0.031250
0 -79.700000 -2.200000 -2.000000 0.000000 -0.995185 0.098017 -1.245313 -0.031250
red
0 -79.900000 -2.157728 -1.570801 0.000000 -0.995185 0.098017 -1.248438 -0.024544
0 -79.700000 -2.200000 -2.000000 0.000000 -0.995185 0.098017 -1.245313 -0.031250
0 -79.700000 -2.157728 -1.570801 0.000000 -0.995185 0.098017 -1.245313 -0.024544
red
0 -79.900000 -2.200000 -2.000000 0.000000 -0.995185 -0.098017 -1.248438 -0.031250
0 -79.900000 -2.157728 -2.429199 0.000000 -0.995185 -0.098017 -1.248438 -0.037956
0 -79.700000 -2.157728 -2.429199 0.000000 -0.995185 -0.098017 -1.245313 -0.037956
red
0 -79.900000 -2.200000 -2.000000 0.000000 -0.995185 -0.098017 -1.248438 -0.031250
0 -79.700000 -2.157728 -2.429199 0.000000 -0.995185 -0.098017 -1.245313 -0.037956
0 -79.700000 -2.200000 -2.000000 0.000000 -0.995185 -0.098017 -1.245313 -0.031250
red
0 -79.900000 -2.157728 -2.429199 0.000000 -0.956940 -0.290285 -1.248438 -0.037956
0 -79.900000 -2.032535 -2.841904 0.000000 -0.956940 -0.290285 -1.248438 -0.044405
0 -79.700000 -2.032535 -2.841904 0.000000 -0.956940 -0.290285 -1.245313 -0.044405
red
0 -79.900000 -2.157728 -2.429199 0.000000 -0.956940 -0.290285 -1.248438 -0.037956
0 -79.700000 -2.032535 -2.841904 0.000000 -0.956940 -0.290285 -1.245313 -0.044405
0 -79.700000 -2.157728 -2.429199 0.000000 -0.956940 -0.290285 -1.245313 -0.037956
red
0 -79.900000 -2.032535 -2.841904 0.000000 -0.881921 -0.471397 -1.248438 -0.044405
0 -79.900000 -1.829233 -3.222255 0.000000 -0.881921 -0.471397 -1.248438 -0.050348
0 -79.700000 -1.829233 -3.222255 0.000000 -0.881921 -0.471397 -1.245313 -0.050348
red
0 -79.900000 -2.032535 -2.841904 0.000000 -0.881921 -0.471397 -1.248438 -0.044405
0 -79.700000 -1.829233 -3.222255 0.000000 -0.881921 -0.471397 -1.245313 -0.050348
0 -79.700000 -2.032535 -2.841904 0.000000 -0.881921 -0.471397 -1.245313 -0.044405
red
0 -79.900000 -1.829233 -3.222255 0.000000 -0.773010 -0.634393 -1.248438 -0.050348
0 -79.900000 -1.555635 -3.555635 0.000000 -0.773010 -0.634393 -1.248438 -0.055557
0 -79.700000 -1.555635 -3.555635 0.000000 -0.773010 -0.634393 -1.245313 -0.055557
red
0 -79.900000 -1.829233 -3.222255 0.000000 -0.773010 -0.634393 -1.248438 -0.050348
0 -79.700000 -1.555635 -3.555635 0.000000 -0.773010 -0.634393 -1.245313 -0.055557
0 -79.700000 -1.829233 -3.222255 0.000000 -0.773010 -0.634393 -1.245313 -0.050348
red
0 -79.900000 -1.555635 -3.555635 0.000000 -0.634393 -0.773010 -1.248438 -0.024307
0 -79.900000 -1.222255 -3.829233 0.000000 -0.634393 -0.773010 -1.248438 -0.019098
0 -79.700000 -1.222255 -3.829233 0.000000 -0.634393 -0.773010 -1.245313 -0.019098
red
0 -79.900000 -1.555635 -3.555635 0.000000 -0.634393 -0.773010 -1.248438 -0.024307
0 -79.700000 -1.222255 -3.829233 0.000000 -0.634393 -0.773010 -1.245313 -0.019098
0 -79.700000 -1.555635 -3.555635 0.000000 -0.634393 -0.773010 -1.245313 -0.024307
red
0 -79.900000 -1.222255 -3.829233 0.000000 -0.471397 -0.881921 -1.248438 -0.019098
0 -79.900000 -0.841904 -4.032535 0.000000 -0.471397 -0.881921 -1.248438 -0.013155
0 -79.700000 -0.841904 -4.032535 0.000000 -0.471397 -0.881921 -1.245313 -0.013155
red
0 -79.900000 -1.222255 -3.829233 0.000000 -0.471397 -0.881921 -1.248438 -0.019098
0 -79.700000 -0.841904 -4.032535 0.000000 -0.471397 -0.881921 -1.245313 -0.013155
0 -79.700000 -1.222255 -3.829233 0.000000 -0.471397 -0.881921 -1.245313 -0.019098
red
0 -79.900000 -0.841904 -4.032535 0.000000 -0.290285 -0.956940 -1.248438 -0.013155
0 -79.900000 -0.429199 -4.157728 0.000000 -0.290285 -0.956940 -1.248438 -0.006706
0 -79.700000 -0.429199 -4.157728 0.000000 -0.290285 -0.956940 -1.245313 -0.006706
red
0 -79.900000 -0.841904 -4.032535 0.000000 -0.290285 -0.956940 -1.248438 -0.013155
0 -79.700000 -0.429199 -4.157728 0.000000 -0.290285 -0.956940 -1.245313 -0.006706
0 -79.700000 -0.841904 -4.032535 0.000000 -0.290285 -0.956940 -1.245313 -0.013155
red
0 -79.900000 -0.429199 -4.157728 0.000000 -0.098017 -0.995185 -1.248438 -0.006706
0 -79.900000 -0.000000 -4.200000 0.000000 -0.098017 -0.995185 -1.248438 -0.000000
0 -79.700000 -0.000000 -4.200000 0.000000 -0.098017 -0.995185 -1.245313 -0.000000
red
0 -79.900000 -0.429199 -4.157728 0.000000 -0.098017 -0.995185 -1.248438 -0.006706
0 -79.700000 -0.000000 -4.200000 0.000000 -0.098017 -0.995185 -1.245313 -0.000000
0 -79.700000 -0.429199 -4.157728 0.000000 -0.098017 -0.995185 -1.245313 -0.006706
red
0 -79.700000 0.000000 -4.200000 1.000000 0.000000 0.000000 0.000000 -0.065625
0 -79.700000 0.429199 -4.157728 1.000000 0.000000 0.000000 0.006706 -0.064964
0 -79.700000 0.000000 -2.000000 1.000000 0.000000 0.000000 0.000000 -0.031250
red
0 -79.700000 0.429199 -4.157728 1.000000 0.000000 -0.000000 0.006706 -0.064964
0 -79.700000 0.841904 -4.032535 1.000000 0.000000 -0.000000 0.013155 -0.063008
0 -79.700000 0.000000 -2.000000 1.000000 0.000000 -0.000000 0.000000 -0.031250
red
0 -79.700000 0.841904 -4.032535 1.000000 0.000000 -0.000000 0.013155 -0.063008
0 -79.700000 1.222255 -3.829233 1.000000 0.000000 -0.000000 0.019098 -0.059832
0 -79.700000 0.000000 -2.000000 1.000000 0.000000 -0.000000 0.000000 -0.031250
red
0 -79.700000 1.222255 -3.829233 1.000000 0.000000 -0.000000 0.019098 -0.059832
0 -79.700000 1.555635 -3.555635 1.000000 0.000000 -0.000000 0.024307 -0.055557
0 -79.700000 0.000000 -2.000000 1.000000 0.000000 -0.000000 0.000000 -0.031250
red
0 -79.700000 1.555635 -3.555635 1.000000 0.000000 -0.000000 0.024307 -0.055557
0 -79.700000 1.829233 -3.222255 1.000000 0.000000 -0.000000 0.028582 -0.050348
0 -79.700000 0.000000 -2.000000 1.000000 0.000000 -0.000000 0.000000 -0.031250
red
0 -79.700000 1.829233 -3.222255 1.000000 0.000000 -0.000000 0.028582 -0.050348
0 -79.700000 2.032535 -2.841904 1.000000 0.000000 -0.000000 0.031758 -0.044405
0 -79.700000 0.000000 -2.000000 1.000000 0.000000 -0.000000 0.000000 -0.031250
red
0 -79.700000 2.032535 -2.841904 1.000000 0.000000 -0.000000 0.031758 -0.044405
0 -79.700000 2.157728 -2.429199 1.000000 0.000000 -0.000000 0.033714 -0.037956
0 -79.700000 0.000000 -2.000000 1.000000 0.000000 -0.000000 0.000000 -0.031250
red
0 -79.700000 2.157728 -2.429199 1.000000 0.000000 -0.000000 0.033714 -0.037956
0 -79.700000 2.200000 -2.000000 1.000000 0.000000 -0.000000 0.034375 -0.031250
0 -79.700000 0.000000 -2.000000 1.000000 0.000000 -0.000000 0.000000 -0.031250
red
0 -79.700000 2.200000 -2.000000 1.000000 0.000000 0.000000 0.034375 -0.031250
0 -79.700000 2.157728 -1.570801 1.000000 0.000000 0.000000 0.033714 -0.024544
0 -79.700000 0.000000 -2.000000 1.000000 0.000000 0.000000 0.000000 -0.031250
red
0 -79.700000 2.157728 -1.570801 1.000000 0.000000 0.000000 0.033714 -0.024544
0 -79.700000 2.032535 -1.158096 1.000000 0.000000 0.000000 0.031758 -0.018095
0 -79.700000 0.000000 -2.000000 1.000000 0.000000 0.000000 0.000000 -0.031250
red
0 -79.700000 2.032535 -1.158096 1.000000 0.000000 0.000000 0.031758 -0.018095
0 -79.700000 1.829233 -0.777745 1.000000 0.000000 0.000000 0.028582 -0.012152
0 -79.700000 0.000000 -2.000000 1.000000 0.000000 0.000000 0.000000 -0.031250
red
0 -79.700000 1.829233 -0.777745 1.000000 0.000000 0.000000 0.028582 -0.012152
0 -79.700000 1.555635 -0.444365 1.000000 0.000000 0.000000 0.024307 -0.006943
0 -79.700000 0.000000 -2.000000 1.000000 0.000000 0.000000 0.000000 -0.031250
red
0 -79.700000 1.555635 -0.444365 1.000000 0.000000 0.000000 0.024307 -0.006943
0 -79.700000 1.222255 -0.170767 1.000000 0.000000 0.000000 0.019098 -0.002668
0 -79.700000 0.000000 -2.000000 1.000000 0.000000 0.000000 0.000000 -0.031250
red
0 -79.700000 1.222255 -0.170767 1.000000 0.000000 0.000000 0.019098 -0.002668
0 -79.700000 0.841904 0.032535 1.000000 0.000000 0.000000 0.013155 0.000508
0 -79.700000 0.000000 -2.000000 1.000000 0.000000 0.000000 0.000000 -0.031250
red
0 -79.700000 0.841904 0.032535 1.000000 0.000000 0.000000 0.013155 0.000508
0 -79.700000 0.429199 0.157728 1.000000 0.000000 0.000000 0.006706 0.002464
0 -79.700000 0.000000 -2.000000 1.000000 0.000000 0.000000 0.000000 -0.031250
red
0 -79.700000 0.429199 0.157728 1.000000 0.000000 0.000000 0.006706 0.002464
0 -79.700000 0.000000 0.200000 1.000000 0.000000 0.000000 0.000000 0.003125
0 -79.700000 0.000000 -2.000000 1.000000 0.000000 0.000000 0.000000 -0.031250
red
0 -79.700000 0.000000 0.200000 1.000000 0.000000 0.000000 0.000000 0.003125
0 -79.700000 -0.429199 0.157728 1.000000 0.000000 0.000000 -0.006706 0.002464
0 -79.700000 0.000000 -2.000000 1.000000 0.000000 0.000000 0.000000 -0.031250
red
0 -79.700000 -0.429199 0.157728 1.000000 0.000000 0.000000 -0.006706 0.002464
0 -79.700000 -0.841904 0.032535 1.000000 0.000000 0.000000 -0.013155 0.000508
0 -79.700000 0.000000 -2.000000 1.000000 0.000000 0.000000 0.000000 -0.031250
red
0 -79.700000 -0.841904 0.032535 1.000000 0.000000 0.000000 -0.013155 0.000508
0 -79.700000 -1.222255 -0.170767 1.000000 0.000000 0.000000 -0.019098 -0.002668
0 -79.700000 0.000000 -2.000000 1.000000 0.000000 0.000000 0.000000 -0.031250
red
0 -79.700000 -1.222255 -0.170767 1.000000 0.000000 0.000000 -0.019098 -0.002668
0 -79.700000 -1.555635 -0.444365 1.000000 0.000000 0.000000 -0.024307 -0.006943
0 -79.700000 0.000000 -2.000000 1.000000 0.000000 0.000000 0.000000 -0.031250
red
0 -79.700000 -1.555635 -0.444365 1.000000 0.000000 0.000000 -0.024307 -0.006943
0 -79.700000 -1.829233 -0.777745 1.000000 0.000000 0.000000 -0.028582 -0.012152
0 -79.700000 0.000000 -2.000000 1.000000 0.000000 0.000000 0.000000 -0.031250
red
0 -79.700000 -1.829233 -0.777745 1.000000 0.000000 0.000000 -0.028582 -0.012152
0 -79.700000 -2.032535 -1.158096 1.000000 0.000000 0.000000 -0.031758 -0.018095
0 -79.700000 0.000000 -2.000000 1.000000 0.000000 0.000000 0.000000 -0.031250
red
0 -79.700000 -2.032535 -1.158096 1.000000 0.000000 0.000000 -0.031758 -0.018095
0 -79.700000 -2.157728 -1.570801 1.000000 0.000000 0.000000 -0.033714 -0.024544
0 -79.700000 0.000000 -2.000000 1.000000 0.000000 0.000000 0.000000 -0.031250
red
0 -79.700000 -2.157728 -1.570801 1.000000 0.000000 0.000000 -0.033714 -0.024544
0 -79.700000 -2.200000 -2.000000 1.000000 0.000000 0.000000 -0.034375 -0.031250
0 -79.700000 0.000000 -2.000000 1.000000 0.000000 0.000000 0.000000 -0.031250
red
0 -79.700000 -2.200000 -2.000000 1.000000 0.000000 0.000000 -0.034375 -0.031250
0 -79.700000 -2.157728 -2.429199 1.000000 0.000000 0.000000 -0.033714 -0.037956
0 -79.700000 0.000000 -2.000000 1.000000 0.000000 0.000000 0.000000 -0.031250
red
0 -79.700000 -2.157728 -2.429199 1.000000 -0.000000 0.000000 -0.033714 -0.037956
0 -79.700000 -2.032535 -2.841904 1.000000 -0.000000 0.000000 -0.031758 -0.044405
0 -79.700000 0.000000 -2.000000 1.000000 -0.000000 0.000000 0.000000 -0.031250
red
0 -79.700000 -2.032535 -2.841904 1.000000 -0.000000 0.000000 -0.031758 -0.044405
0 -79.700000 -1.829233 -3.222255 1.000000 -0.000000 0.000000 -0.028582 -0.050348
0 -79.700000 0.000000 -2.000000 1.000000 -0.000000 0.000000 0.000000 -0.031250
red
0 -79.700000 -1.829233 -3.222255 1.000000 -0.000000 0.000000 -0.028582 -0.050348
0 -79.700000 -1.555635 -3.555635 1.000000 -0.000000 0.000000 -0.024307 -0.055557
0 -79.700000 0.000000 -2.000000 1.000000 -0.000000 0.000000 0.000000 -0.031250
red
0 -79.700000 -1.555635 -3.555635 1.000000 -0.000000 0.000000 -0.024307 -0.055557
0 -79.700000 -1.222255 -3.829233 1.000000 -0.000000 0.000000 -0.019098 -0.059832
0 -79.700000 0.000000 -2.000000 1.000000 -0.000000 0.000000 0.000000 -0.031250
red
0 -79.700000 -1.222255 -3.829233 1.000000 -0.000000 0.000000 -0.019098 -0.059832
0 -79.700000 -0.841904 -4.032535 1.000000 -0.000000 0.000000 -0.013155 -0.063008
0 -79.700000 0.000000 -2.000000 1.000000 -0.000000 0.000000 0.000000 -0.031250
red
0 -79.700000 -0.841904 -4.032535 1.000000 -0.000000 0.000000 -0.013155 -0.063008
0 -79.700000 -0.429199 -4.157728 1.000000 -0.000000 0.000000 -0.006706 -0.064964
0 -79.700000 0.000000 -2.000000 1.000000 -0.000000 0.000000 0.000000 -0.031250
red
0 -79.700000 -0.429199 -4.157728 1.000000 -0.000000 0.000000 -0.006706 -0.064964
0 -79.700000 -0.000000 -4.200000 1.000000 -0.000000 0.000000 -0.000000 -0.065625
0 -79.700000 0.000000 -2.000000 1.000000 -0.000000 0.000000 0.000000 -0.031250
end