version 1
nodes
0 "root" -1
end
skeleton
time 0
0 0 0 0 0 0 0
end
triangles
drop_s4
0 -12.50000 0.00000 0.00000 -0.96085 0.27176 0.05406 0.0000 0.0000
0 -11.88821 1.99846 0.82779 -0.96085 0.27176 0.05406 0.0156 0.0065
0 -11.88821 2.16312 0.00000 -0.96085 0.27176 0.05406 0.0169 0.0000
drop_s4
0 -12.50000 0.00000 0.00000 -0.96085 0.23038 0.15394 0.0000 0.0000
0 -11.88821 1.52956 1.52956 -0.96085 0.23038 0.15394 0.0119 0.0119
0 -11.88821 1.99846 0.82779 -0.96085 0.23038 0.15394 0.0156 0.0065
drop_s4
0 -12.50000 0.00000 0.00000 -0.96085 0.15394 0.23038 0.0000 0.0000
0 -11.88821 0.82779 1.99846 -0.96085 0.15394 0.23038 0.0065 0.0156
0 -11.88821 1.52956 1.52956 -0.96085 0.15394 0.23038 0.0119 0.0119
drop_s4
0 -12.50000 0.00000 0.00000 -0.96085 0.05406 0.27176 0.0000 0.0000
0 -11.88821 0.00000 2.16312 -0.96085 0.05406 0.27176 0.0000 0.0169
0 -11.88821 0.82779 1.99846 -0.96085 0.05406 0.27176 0.0065 0.0156
drop_s4
0 -12.50000 0.00000 0.00000 -0.96085 -0.05406 0.27176 0.0000 0.0000
0 -11.88821 -0.82779 1.99846 -0.96085 -0.05406 0.27176 0.9935 0.0156
0 -11.88821 0.00000 2.16312 -0.96085 -0.05406 0.27176 0.0000 0.0169
drop_s4
0 -12.50000 -0.00000 0.00000 -0.96085 -0.15394 0.23038 0.0000 0.0000
0 -11.88821 -1.52956 1.52956 -0.96085 -0.15394 0.23038 0.9881 0.0119
0 -11.88821 -0.82779 1.99846 -0.96085 -0.15394 0.23038 0.9935 0.0156
drop_s4
0 -12.50000 -0.00000 0.00000 -0.96085 -0.23038 0.15394 0.0000 0.0000
0 -11.88821 -1.99846 0.82779 -0.96085 -0.23038 0.15394 0.9844 0.0065
0 -11.88821 -1.52956 1.52956 -0.96085 -0.23038 0.15394 0.9881 0.0119
drop_s3
0 -12.50000 -0.00000 0.00000 -0.96085 -0.27176 0.05406 0.0000 0.0000
0 -11.88821 -2.16312 0.00000 -0.96085 -0.27176 0.05406 0.9831 0.0000
0 -11.88821 -1.99846 0.82779 -0.96085 -0.27176 0.05406 0.9844 0.0065
drop_s3
0 -12.50000 -0.00000 0.00000 -0.96085 -0.27176 -0.05406 0.0000 0.0000
0 -11.88821 -1.99846 -0.82779 -0.96085 -0.27176 -0.05406 0.9844 0.9935
0 -11.88821 -2.16312 0.00000 -0.96085 -0.27176 -0.05406 0.9831 0.0000
drop_s2
0 -12.50000 -0.00000 -0.00000 -0.96085 -0.23038 -0.15394 0.0000 0.0000
0 -11.88821 -1.52956 -1.52956 -0.96085 -0.23038 -0.15394 0.9881 0.9881
0 -11.88821 -1.99846 -0.82779 -0.96085 -0.23038 -0.15394 0.9844 0.9935
drop_s2
0 -12.50000 -0.00000 -0.00000 -0.96085 -0.15394 -0.23038 0.0000 0.0000
0 -11.88821 -0.82779 -1.99846 -0.96085 -0.15394 -0.23038 0.9935 0.9844
0 -11.88821 -1.52956 -1.52956 -0.96085 -0.15394 -0.23038 0.9881 0.9881
drop_s2
0 -12.50000 -0.00000 -0.00000 -0.96085 -0.05406 -0.27176 0.0000 0.0000
0 -11.88821 -0.00000 -2.16312 -0.96085 -0.05406 -0.27176 1.0000 0.9831
0 -11.88821 -0.82779 -1.99846 -0.96085 -0.05406 -0.27176 0.9935 0.9844
drop_s2
0 -12.50000 -0.00000 -0.00000 -0.96085 0.05406 -0.27176 0.0000 0.0000
0 -11.88821 0.82779 -1.99846 -0.96085 0.05406 -0.27176 0.0065 0.9844
0 -11.88821 -0.00000 -2.16312 -0.96085 0.05406 -0.27176 1.0000 0.9831
drop_s3
0 -12.50000 0.00000 -0.00000 -0.96085 0.15394 -0.23038 0.0000 0.0000
0 -11.88821 1.52956 -1.52956 -0.96085 0.15394 -0.23038 0.0119 0.9881
0 -11.88821 0.82779 -1.99846 -0.96085 0.15394 -0.23038 0.0065 0.9844
drop_s3
0 -12.50000 0.00000 -0.00000 -0.96085 0.23038 -0.15394 0.0000 0.0000
0 -11.88821 1.99846 -0.82779 -0.96085 0.23038 -0.15394 0.0156 0.9935
0 -11.88821 1.52956 -1.52956 -0.96085 0.23038 -0.15394 0.0119 0.9881
drop_s3
0 -12.50000 0.00000 -0.00000 -0.96085 0.27176 -0.05406 0.0000 0.0000
0 -11.88821 2.16312 -0.00000 -0.96085 0.27176 -0.05406 0.0169 1.0000
0 -11.88821 1.99846 -0.82779 -0.96085 0.27176 -0.05406 0.0156 0.9935
drop_s4
0 -11.88821 2.16312 0.00000 -0.73311 0.66704 0.13268 0.0169 0.0000
0 -11.88821 1.99846 0.82779 -0.73311 0.66704 0.13268 0.0156 0.0065
0 -10.11271 3.80130 1.57455 -0.73311 0.66704 0.13268 0.0297 0.0123
drop_s4
0 -11.88821 2.16312 0.00000 -0.73311 0.66704 0.13268 0.0169 0.0000
0 -10.11271 3.80130 1.57455 -0.73311 0.66704 0.13268 0.0297 0.0123
0 -10.11271 4.11450 0.00000 -0.73311 0.66704 0.13268 0.0321 0.0000
drop_s5
0 -11.88821 1.99846 0.82779 -0.73311 0.56549 0.37785 0.0156 0.0065
0 -11.88821 1.52956 1.52956 -0.73311 0.56549 0.37785 0.0119 0.0119
0 -10.11271 2.90939 2.90939 -0.73311 0.56549 0.37785 0.0227 0.0227
drop_s5
0 -11.88821 1.99846 0.82779 -0.73311 0.56549 0.37785 0.0156 0.0065
0 -10.11271 2.90939 2.90939 -0.73311 0.56549 0.37785 0.0227 0.0227
0 -10.11271 3.80130 1.57455 -0.73311 0.56549 0.37785 0.0297 0.0123
drop_s6
0 -11.88821 1.52956 1.52956 -0.73311 0.37785 0.56549 0.0119 0.0119
0 -11.88821 0.82779 1.99846 -0.73311 0.37785 0.56549 0.0065 0.0156
0 -10.11271 1.57455 3.80130 -0.73311 0.37785 0.56549 0.0123 0.0297
drop_s6
0 -11.88821 1.52956 1.52956 -0.73311 0.37785 0.56549 0.0119 0.0119
0 -10.11271 1.57455 3.80130 -0.73311 0.37785 0.56549 0.0123 0.0297
0 -10.11271 2.90939 2.90939 -0.73311 0.37785 0.56549 0.0227 0.0227
drop_s6
0 -11.88821 0.82779 1.99846 -0.73311 0.13268 0.66704 0.0065 0.0156
0 -11.88821 0.00000 2.16312 -0.73311 0.13268 0.66704 0.0000 0.0169
0 -10.11271 0.00000 4.11450 -0.73311 0.13268 0.66704 0.0000 0.0321
drop_s6
0 -11.88821 0.82779 1.99846 -0.73311 0.13268 0.66704 0.0065 0.0156
0 -10.11271 0.00000 4.11450 -0.73311 0.13268 0.66704 0.0000 0.0321
0 -10.11271 1.57455 3.80130 -0.73311 0.13268 0.66704 0.0123 0.0297
drop_s6
0 -11.88821 0.00000 2.16312 -0.73311 -0.13268 0.66704 0.0000 0.0169
0 -11.88821 -0.82779 1.99846 -0.73311 -0.13268 0.66704 0.9935 0.0156
0 -10.11271 -1.57455 3.80130 -0.73311 -0.13268 0.66704 0.9877 0.0297
drop_s6
0 -11.88821 0.00000 2.16312 -0.73311 -0.13268 0.66704 0.0000 0.0169
0 -10.11271 -1.57455 3.80130 -0.73311 -0.13268 0.66704 0.9877 0.0297
0 -10.11271 0.00000 4.11450 -0.73311 -0.13268 0.66704 0.0000 0.0321
drop_s5
0 -11.88821 -0.82779 1.99846 -0.73311 -0.37785 0.56549 0.9935 0.0156
0 -11.88821 -1.52956 1.52956 -0.73311 -0.37785 0.56549 0.9881 0.0119
0 -10.11271 -2.90939 2.90939 -0.73311 -0.37785 0.56549 0.9773 0.0227
drop_s5
0 -11.88821 -0.82779 1.99846 -0.73311 -0.37785 0.56549 0.9935 0.0156
0 -10.11271 -2.90939 2.90939 -0.73311 -0.37785 0.56549 0.9773 0.0227
0 -10.11271 -1.57455 3.80130 -0.73311 -0.37785 0.56549 0.9877 0.0297
drop_s4
0 -11.88821 -1.52956 1.52956 -0.73311 -0.56549 0.37785 0.9881 0.0119
0 -11.88821 -1.99846 0.82779 -0.73311 -0.56549 0.37785 0.9844 0.0065
0 -10.11271 -3.80130 1.57455 -0.73311 -0.56549 0.37785 0.9703 0.0123
drop_s4
0 -11.88821 -1.52956 1.52956 -0.73311 -0.56549 0.37785 0.9881 0.0119
0 -10.11271 -3.80130 1.57455 -0.73311 -0.56549 0.37785 0.9703 0.0123
0 -10.11271 -2.90939 2.90939 -0.73311 -0.56549 0.37785 0.9773 0.0227
drop_s3
0 -11.88821 -1.99846 0.82779 -0.73311 -0.66704 0.13268 0.9844 0.0065
0 -11.88821 -2.16312 0.00000 -0.73311 -0.66704 0.13268 0.9831 0.0000
0 -10.11271 -4.11450 0.00000 -0.73311 -0.66704 0.13268 0.9679 0.0000
drop_s3
0 -11.88821 -1.99846 0.82779 -0.73311 -0.66704 0.13268 0.9844 0.0065
0 -10.11271 -4.11450 0.00000 -0.73311 -0.66704 0.13268 0.9679 0.0000
0 -10.11271 -3.80130 1.57455 -0.73311 -0.66704 0.13268 0.9703 0.0123
drop_s1
0 -11.88821 -2.16312 0.00000 -0.73311 -0.66704 -0.13268 0.9831 0.0000
0 -11.88821 -1.99846 -0.82779 -0.73311 -0.66704 -0.13268 0.9844 0.9935
0 -10.11271 -3.80130 -1.57455 -0.73311 -0.66704 -0.13268 0.9703 0.9877
drop_s1
0 -11.88821 -2.16312 0.00000 -0.73311 -0.66704 -0.13268 0.9831 0.0000
0 -10.11271 -3.80130 -1.57455 -0.73311 -0.66704 -0.13268 0.9703 0.9877
0 -10.11271 -4.11450 0.00000 -0.73311 -0.66704 -0.13268 0.9679 0.0000
drop_s0
0 -11.88821 -1.99846 -0.82779 -0.73311 -0.56549 -0.37785 0.9844 0.9935
0 -11.88821 -1.52956 -1.52956 -0.73311 -0.56549 -0.37785 0.9881 0.9881
0 -10.11271 -2.90939 -2.90939 -0.73311 -0.56549 -0.37785 0.9773 0.9773
drop_s0
0 -11.88821 -1.99846 -0.82779 -0.73311 -0.56549 -0.37785 0.9844 0.9935
0 -10.11271 -2.90939 -2.90939 -0.73311 -0.56549 -0.37785 0.9773 0.9773
0 -10.11271 -3.80130 -1.57455 -0.73311 -0.56549 -0.37785 0.9703 0.9877
drop_s0
0 -11.88821 -1.52956 -1.52956 -0.73311 -0.37785 -0.56549 0.9881 0.9881
0 -11.88821 -0.82779 -1.99846 -0.73311 -0.37785 -0.56549 0.9935 0.9844
0 -10.11271 -1.57455 -3.80130 -0.73311 -0.37785 -0.56549 0.9877 0.9703
drop_s0
0 -11.88821 -1.52956 -1.52956 -0.73311 -0.37785 -0.56549 0.9881 0.9881
0 -10.11271 -1.57455 -3.80130 -0.73311 -0.37785 -0.56549 0.9877 0.9703
0 -10.11271 -2.90939 -2.90939 -0.73311 -0.37785 -0.56549 0.9773 0.9773
drop_s0
0 -11.88821 -0.82779 -1.99846 -0.73311 -0.13268 -0.66704 0.9935 0.9844
0 -11.88821 -0.00000 -2.16312 -0.73311 -0.13268 -0.66704 1.0000 0.9831
0 -10.11271 -0.00000 -4.11450 -0.73311 -0.13268 -0.66704 1.0000 0.9679
drop_s0
0 -11.88821 -0.82779 -1.99846 -0.73311 -0.13268 -0.66704 0.9935 0.9844
0 -10.11271 -0.00000 -4.11450 -0.73311 -0.13268 -0.66704 1.0000 0.9679
0 -10.11271 -1.57455 -3.80130 -0.73311 -0.13268 -0.66704 0.9877 0.9703
drop_s0
0 -11.88821 -0.00000 -2.16312 -0.73311 0.13268 -0.66704 1.0000 0.9831
0 -11.88821 0.82779 -1.99846 -0.73311 0.13268 -0.66704 0.0065 0.9844
0 -10.11271 1.57455 -3.80130 -0.73311 0.13268 -0.66704 0.0123 0.9703
drop_s0
0 -11.88821 -0.00000 -2.16312 -0.73311 0.13268 -0.66704 1.0000 0.9831
0 -10.11271 1.57455 -3.80130 -0.73311 0.13268 -0.66704 0.0123 0.9703
0 -10.11271 -0.00000 -4.11450 -0.73311 0.13268 -0.66704 1.0000 0.9679
drop_s0
0 -11.88821 0.82779 -1.99846 -0.73311 0.37785 -0.56549 0.0065 0.9844
0 -11.88821 1.52956 -1.52956 -0.73311 0.37785 -0.56549 0.0119 0.9881
0 -10.11271 2.90939 -2.90939 -0.73311 0.37785 -0.56549 0.0227 0.9773
drop_s0
0 -11.88821 0.82779 -1.99846 -0.73311 0.37785 -0.56549 0.0065 0.9844
0 -10.11271 2.90939 -2.90939 -0.73311 0.37785 -0.56549 0.0227 0.9773
0 -10.11271 1.57455 -3.80130 -0.73311 0.37785 -0.56549 0.0123 0.9703
drop_s2
0 -11.88821 1.52956 -1.52956 -0.73311 0.56549 -0.37785 0.0119 0.9881
0 -11.88821 1.99846 -0.82779 -0.73311 0.56549 -0.37785 0.0156 0.9935
0 -10.11271 3.80130 -1.57455 -0.73311 0.56549 -0.37785 0.0297 0.9877
drop_s2
0 -11.88821 1.52956 -1.52956 -0.73311 0.56549 -0.37785 0.0119 0.9881
0 -10.11271 3.80130 -1.57455 -0.73311 0.56549 -0.37785 0.0297 0.9877
0 -10.11271 2.90939 -2.90939 -0.73311 0.56549 -0.37785 0.0227 0.9773
drop_s3
0 -11.88821 1.99846 -0.82779 -0.73311 0.66704 -0.13268 0.0156 0.9935
0 -11.88821 2.16312 -0.00000 -0.73311 0.66704 -0.13268 0.0169 1.0000
0 -10.11271 4.11450 -0.00000 -0.73311 0.66704 -0.13268 0.0321 1.0000
drop_s3
0 -11.88821 1.99846 -0.82779 -0.73311 0.66704 -0.13268 0.0156 0.9935
0 -10.11271 4.11450 -0.00000 -0.73311 0.66704 -0.13268 0.0321 1.0000
0 -10.11271 3.80130 -1.57455 -0.73311 0.66704 -0.13268 0.0297 0.9877
drop_s5
0 -10.11271 4.11450 0.00000 -0.48141 0.85966 0.17100 0.0321 0.0000
0 -10.11271 3.80130 1.57455 -0.48141 0.85966 0.17100 0.0297 0.0123
0 -7.34732 5.23204 2.16718 -0.48141 0.85966 0.17100 0.0409 0.0169
drop_s5
0 -10.11271 4.11450 0.00000 -0.48141 0.85966 0.17100 0.0321 0.0000
0 -7.34732 5.23204 2.16718 -0.48141 0.85966 0.17100 0.0409 0.0169
0 -7.34732 5.66312 0.00000 -0.48141 0.85966 0.17100 0.0442 0.0000
drop_s6
0 -10.11271 3.80130 1.57455 -0.48141 0.72878 0.48696 0.0297 0.0123
0 -10.11271 2.90939 2.90939 -0.48141 0.72878 0.48696 0.0227 0.0227
0 -7.34732 4.00443 4.00443 -0.48141 0.72878 0.48696 0.0313 0.0313
drop_s6
0 -10.11271 3.80130 1.57455 -0.48141 0.72878 0.48696 0.0297 0.0123
0 -7.34732 4.00443 4.00443 -0.48141 0.72878 0.48696 0.0313 0.0313
0 -7.34732 5.23204 2.16718 -0.48141 0.72878 0.48696 0.0409 0.0169
drop_s6
0 -10.11271 2.90939 2.90939 -0.48141 0.48696 0.72878 0.0227 0.0227
0 -10.11271 1.57455 3.80130 -0.48141 0.48696 0.72878 0.0123 0.0297
0 -7.34732 2.16718 5.23204 -0.48141 0.48696 0.72878 0.0169 0.0409
drop_s6
0 -10.11271 2.90939 2.90939 -0.48141 0.48696 0.72878 0.0227 0.0227
0 -7.34732 2.16718 5.23204 -0.48141 0.48696 0.72878 0.0169 0.0409
0 -7.34732 4.00443 4.00443 -0.48141 0.48696 0.72878 0.0313 0.0313
drop_s7
0 -10.11271 1.57455 3.80130 -0.48141 0.17100 0.85966 0.0123 0.0297
0 -10.11271 0.00000 4.11450 -0.48141 0.17100 0.85966 0.0000 0.0321
0 -7.34732 0.00000 5.66312 -0.48141 0.17100 0.85966 0.0000 0.0442
drop_s7
0 -10.11271 1.57455 3.80130 -0.48141 0.17100 0.85966 0.0123 0.0297
0 -7.34732 0.00000 5.66312 -0.48141 0.17100 0.85966 0.0000 0.0442
0 -7.34732 2.16718 5.23204 -0.48141 0.17100 0.85966 0.0169 0.0409
drop_s6
0 -10.11271 0.00000 4.11450 -0.48141 -0.17100 0.85966 0.0000 0.0321
0 -10.11271 -1.57455 3.80130 -0.48141 -0.17100 0.85966 0.9877 0.0297
0 -7.34732 -2.16718 5.23204 -0.48141 -0.17100 0.85966 0.9831 0.0409
drop_s6
0 -10.11271 0.00000 4.11450 -0.48141 -0.17100 0.85966 0.0000 0.0321
0 -7.34732 -2.16718 5.23204 -0.48141 -0.17100 0.85966 0.9831 0.0409
0 -7.34732 0.00000 5.66312 -0.48141 -0.17100 0.85966 0.0000 0.0442
drop_s5
0 -10.11271 -1.57455 3.80130 -0.48141 -0.48696 0.72878 0.9877 0.0297
0 -10.11271 -2.90939 2.90939 -0.48141 -0.48696 0.72878 0.9773 0.0227
0 -7.34732 -4.00443 4.00443 -0.48141 -0.48696 0.72878 0.9687 0.0313
drop_s5
0 -10.11271 -1.57455 3.80130 -0.48141 -0.48696 0.72878 0.9877 0.0297
0 -7.34732 -4.00443 4.00443 -0.48141 -0.48696 0.72878 0.9687 0.0313
0 -7.34732 -2.16718 5.23204 -0.48141 -0.48696 0.72878 0.9831 0.0409
drop_s4
0 -10.11271 -2.90939 2.90939 -0.48141 -0.72878 0.48696 0.9773 0.0227
0 -10.11271 -3.80130 1.57455 -0.48141 -0.72878 0.48696 0.9703 0.0123
0 -7.34732 -5.23204 2.16718 -0.48141 -0.72878 0.48696 0.9591 0.0169
drop_s4
0 -10.11271 -2.90939 2.90939 -0.48141 -0.72878 0.48696 0.9773 0.0227
0 -7.34732 -5.23204 2.16718 -0.48141 -0.72878 0.48696 0.9591 0.0169
0 -7.34732 -4.00443 4.00443 -0.48141 -0.72878 0.48696 0.9687 0.0313
drop_s2
0 -10.11271 -3.80130 1.57455 -0.48141 -0.85966 0.17100 0.9703 0.0123
0 -10.11271 -4.11450 0.00000 -0.48141 -0.85966 0.17100 0.9679 0.0000
0 -7.34732 -5.66312 0.00000 -0.48141 -0.85966 0.17100 0.9558 0.0000
drop_s2
0 -10.11271 -3.80130 1.57455 -0.48141 -0.85966 0.17100 0.9703 0.0123
0 -7.34732 -5.66312 0.00000 -0.48141 -0.85966 0.17100 0.9558 0.0000
0 -7.34732 -5.23204 2.16718 -0.48141 -0.85966 0.17100 0.9591 0.0169
drop_s0
0 -10.11271 -4.11450 0.00000 -0.48141 -0.85966 -0.17100 0.9679 0.0000
0 -10.11271 -3.80130 -1.57455 -0.48141 -0.85966 -0.17100 0.9703 0.9877
0 -7.34732 -5.23204 -2.16718 -0.48141 -0.85966 -0.17100 0.9591 0.9831
drop_s0
0 -10.11271 -4.11450 0.00000 -0.48141 -0.85966 -0.17100 0.9679 0.0000
0 -7.34732 -5.23204 -2.16718 -0.48141 -0.85966 -0.17100 0.9591 0.9831
0 -7.34732 -5.66312 0.00000 -0.48141 -0.85966 -0.17100 0.9558 0.0000
drop_s0
0 -10.11271 -3.80130 -1.57455 -0.48141 -0.72878 -0.48696 0.9703 0.9877
0 -10.11271 -2.90939 -2.90939 -0.48141 -0.72878 -0.48696 0.9773 0.9773
0 -7.34732 -4.00443 -4.00443 -0.48141 -0.72878 -0.48696 0.9687 0.9687
drop_s0
0 -10.11271 -3.80130 -1.57455 -0.48141 -0.72878 -0.48696 0.9703 0.9877
0 -7.34732 -4.00443 -4.00443 -0.48141 -0.72878 -0.48696 0.9687 0.9687
0 -7.34732 -5.23204 -2.16718 -0.48141 -0.72878 -0.48696 0.9591 0.9831
drop_s0
0 -10.11271 -2.90939 -2.90939 -0.48141 -0.48696 -0.72878 0.9773 0.9773
0 -10.11271 -1.57455 -3.80130 -0.48141 -0.48696 -0.72878 0.9877 0.9703
0 -7.34732 -2.16718 -5.23204 -0.48141 -0.48696 -0.72878 0.9831 0.9591
drop_s0
0 -10.11271 -2.90939 -2.90939 -0.48141 -0.48696 -0.72878 0.9773 0.9773
0 -7.34732 -2.16718 -5.23204 -0.48141 -0.48696 -0.72878 0.9831 0.9591
0 -7.34732 -4.00443 -4.00443 -0.48141 -0.48696 -0.72878 0.9687 0.9687
drop_s0
0 -10.11271 -1.57455 -3.80130 -0.48141 -0.17100 -0.85966 0.9877 0.9703
0 -10.11271 -0.00000 -4.11450 -0.48141 -0.17100 -0.85966 1.0000 0.9679
0 -7.34732 -0.00000 -5.66312 -0.48141 -0.17100 -0.85966 1.0000 0.9558
drop_s0
0 -10.11271 -1.57455 -3.80130 -0.48141 -0.17100 -0.85966 0.9877 0.9703
0 -7.34732 -0.00000 -5.66312 -0.48141 -0.17100 -0.85966 1.0000 0.9558
0 -7.34732 -2.16718 -5.23204 -0.48141 -0.17100 -0.85966 0.9831 0.9591
drop_s0
0 -10.11271 -0.00000 -4.11450 -0.48141 0.17100 -0.85966 1.0000 0.9679
0 -10.11271 1.57455 -3.80130 -0.48141 0.17100 -0.85966 0.0123 0.9703
0 -7.34732 2.16718 -5.23204 -0.48141 0.17100 -0.85966 0.0169 0.9591
drop_s0
0 -10.11271 -0.00000 -4.11450 -0.48141 0.17100 -0.85966 1.0000 0.9679
0 -7.34732 2.16718 -5.23204 -0.48141 0.17100 -0.85966 0.0169 0.9591
0 -7.34732 -0.00000 -5.66312 -0.48141 0.17100 -0.85966 1.0000 0.9558
drop_s0
0 -10.11271 1.57455 -3.80130 -0.48141 0.48696 -0.72878 0.0123 0.9703
0 -10.11271 2.90939 -2.90939 -0.48141 0.48696 -0.72878 0.0227 0.9773
0 -7.34732 4.00443 -4.00443 -0.48141 0.48696 -0.72878 0.0313 0.9687
drop_s0
0 -10.11271 1.57455 -3.80130 -0.48141 0.48696 -0.72878 0.0123 0.9703
0 -7.34732 4.00443 -4.00443 -0.48141 0.48696 -0.72878 0.0313 0.9687
0 -7.34732 2.16718 -5.23204 -0.48141 0.48696 -0.72878 0.0169 0.9591
drop_s0
0 -10.11271 2.90939 -2.90939 -0.48141 0.72878 -0.48696 0.0227 0.9773
0 -10.11271 3.80130 -1.57455 -0.48141 0.72878 -0.48696 0.0297 0.9877
0 -7.34732 5.23204 -2.16718 -0.48141 0.72878 -0.48696 0.0409 0.9831
drop_s0
0 -10.11271 2.90939 -2.90939 -0.48141 0.72878 -0.48696 0.0227 0.9773
0 -7.34732 5.23204 -2.16718 -0.48141 0.72878 -0.48696 0.0409 0.9831
0 -7.34732 4.00443 -4.00443 -0.48141 0.72878 -0.48696 0.0313 0.9687
drop_s3
0 -10.11271 3.80130 -1.57455 -0.48141 0.85966 -0.17100 0.0297 0.9877
0 -10.11271 4.11450 -0.00000 -0.48141 0.85966 -0.17100 0.0321 1.0000
0 -7.34732 5.66312 -0.00000 -0.48141 0.85966 -0.17100 0.0442 1.0000
drop_s3
0 -10.11271 3.80130 -1.57455 -0.48141 0.85966 -0.17100 0.0297 0.9877
0 -7.34732 5.66312 -0.00000 -0.48141 0.85966 -0.17100 0.0442 1.0000
0 -7.34732 5.23204 -2.16718 -0.48141 0.85966 -0.17100 0.0409 0.9831
drop_s4
0 -7.34732 5.66312 0.00000 -0.26950 0.94450 0.18787 0.0442 0.0000
0 -7.34732 5.23204 2.16718 -0.26950 0.94450 0.18787 0.0409 0.0169
0 -3.86271 6.15063 2.54768 -0.26950 0.94450 0.18787 0.0481 0.0199
drop_s4
0 -7.34732 5.66312 0.00000 -0.26950 0.94450 0.18787 0.0442 0.0000
0 -3.86271 6.15063 2.54768 -0.26950 0.94450 0.18787 0.0481 0.0199
0 -3.86271 6.65740 0.00000 -0.26950 0.94450 0.18787 0.0520 0.0000
drop_s6
0 -7.34732 5.23204 2.16718 -0.26950 0.80071 0.53501 0.0409 0.0169
0 -7.34732 4.00443 4.00443 -0.26950 0.80071 0.53501 0.0313 0.0313
0 -3.86271 4.70749 4.70749 -0.26950 0.80071 0.53501 0.0368 0.0368
drop_s6
0 -7.34732 5.23204 2.16718 -0.26950 0.80071 0.53501 0.0409 0.0169
0 -3.86271 4.70749 4.70749 -0.26950 0.80071 0.53501 0.0368 0.0368
0 -3.86271 6.15063 2.54768 -0.26950 0.80071 0.53501 0.0481 0.0199
drop_s7
0 -7.34732 4.00443 4.00443 -0.26950 0.53501 0.80071 0.0313 0.0313
0 -7.34732 2.16718 5.23204 -0.26950 0.53501 0.80071 0.0169 0.0409
0 -3.86271 2.54768 6.15063 -0.26950 0.53501 0.80071 0.0199 0.0481
drop_s7
0 -7.34732 4.00443 4.00443 -0.26950 0.53501 0.80071 0.0313 0.0313
0 -3.86271 2.54768 6.15063 -0.26950 0.53501 0.80071 0.0199 0.0481
0 -3.86271 4.70749 4.70749 -0.26950 0.53501 0.80071 0.0368 0.0368
drop_s7
0 -7.34732 2.16718 5.23204 -0.26950 0.18787 0.94450 0.0169 0.0409
0 -7.34732 0.00000 5.66312 -0.26950 0.18787 0.94450 0.0000 0.0442
0 -3.86271 0.00000 6.65740 -0.26950 0.18787 0.94450 0.0000 0.0520
drop_s7
0 -7.34732 2.16718 5.23204 -0.26950 0.18787 0.94450 0.0169 0.0409
0 -3.86271 0.00000 6.65740 -0.26950 0.18787 0.94450 0.0000 0.0520
0 -3.86271 2.54768 6.15063 -0.26950 0.18787 0.94450 0.0199 0.0481
drop_s7
0 -7.34732 0.00000 5.66312 -0.26950 -0.18787 0.94450 0.0000 0.0442
0 -7.34732 -2.16718 5.23204 -0.26950 -0.18787 0.94450 0.9831 0.0409
0 -3.86271 -2.54768 6.15063 -0.26950 -0.18787 0.94450 0.9801 0.0481
drop_s7
0 -7.34732 0.00000 5.66312 -0.26950 -0.18787 0.94450 0.0000 0.0442
0 -3.86271 -2.54768 6.15063 -0.26950 -0.18787 0.94450 0.9801 0.0481
0 -3.86271 0.00000 6.65740 -0.26950 -0.18787 0.94450 0.0000 0.0520
drop_s5
0 -7.34732 -2.16718 5.23204 -0.26950 -0.53501 0.80071 0.9831 0.0409
0 -7.34732 -4.00443 4.00443 -0.26950 -0.53501 0.80071 0.9687 0.0313
0 -3.86271 -4.70749 4.70749 -0.26950 -0.53501 0.80071 0.9632 0.0368
drop_s5
0 -7.34732 -2.16718 5.23204 -0.26950 -0.53501 0.80071 0.9831 0.0409
0 -3.86271 -4.70749 4.70749 -0.26950 -0.53501 0.80071 0.9632 0.0368
0 -3.86271 -2.54768 6.15063 -0.26950 -0.53501 0.80071 0.9801 0.0481
drop_s4
0 -7.34732 -4.00443 4.00443 -0.26950 -0.80071 0.53501 0.9687 0.0313
0 -7.34732 -5.23204 2.16718 -0.26950 -0.80071 0.53501 0.9591 0.0169
0 -3.86271 -6.15063 2.54768 -0.26950 -0.80071 0.53501 0.9519 0.0199
drop_s4
0 -7.34732 -4.00443 4.00443 -0.26950 -0.80071 0.53501 0.9687 0.0313
0 -3.86271 -6.15063 2.54768 -0.26950 -0.80071 0.53501 0.9519 0.0199
0 -3.86271 -4.70749 4.70749 -0.26950 -0.80071 0.53501 0.9632 0.0368
drop_s1
0 -7.34732 -5.23204 2.16718 -0.26950 -0.94450 0.18787 0.9591 0.0169
0 -7.34732 -5.66312 0.00000 -0.26950 -0.94450 0.18787 0.9558 0.0000
0 -3.86271 -6.65740 0.00000 -0.26950 -0.94450 0.18787 0.9480 0.0000
drop_s1
0 -7.34732 -5.23204 2.16718 -0.26950 -0.94450 0.18787 0.9591 0.0169
0 -3.86271 -6.65740 0.00000 -0.26950 -0.94450 0.18787 0.9480 0.0000
0 -3.86271 -6.15063 2.54768 -0.26950 -0.94450 0.18787 0.9519 0.0199
drop_s0
0 -7.34732 -5.66312 0.00000 -0.26950 -0.94450 -0.18787 0.9558 0.0000
0 -7.34732 -5.23204 -2.16718 -0.26950 -0.94450 -0.18787 0.9591 0.9831
0 -3.86271 -6.15063 -2.54768 -0.26950 -0.94450 -0.18787 0.9519 0.9801
drop_s0
0 -7.34732 -5.66312 0.00000 -0.26950 -0.94450 -0.18787 0.9558 0.0000
0 -3.86271 -6.15063 -2.54768 -0.26950 -0.94450 -0.18787 0.9519 0.9801
0 -3.86271 -6.65740 0.00000 -0.26950 -0.94450 -0.18787 0.9480 0.0000
drop_s0
0 -7.34732 -5.23204 -2.16718 -0.26950 -0.80071 -0.53501 0.9591 0.9831
0 -7.34732 -4.00443 -4.00443 -0.26950 -0.80071 -0.53501 0.9687 0.9687
0 -3.86271 -4.70749 -4.70749 -0.26950 -0.80071 -0.53501 0.9632 0.9632
drop_s0
0 -7.34732 -5.23204 -2.16718 -0.26950 -0.80071 -0.53501 0.9591 0.9831
0 -3.86271 -4.70749 -4.70749 -0.26950 -0.80071 -0.53501 0.9632 0.9632
0 -3.86271 -6.15063 -2.54768 -0.26950 -0.80071 -0.53501 0.9519 0.9801
drop_s0
0 -7.34732 -4.00443 -4.00443 -0.26950 -0.53501 -0.80071 0.9687 0.9687
0 -7.34732 -2.16718 -5.23204 -0.26950 -0.53501 -0.80071 0.9831 0.9591
0 -3.86271 -2.54768 -6.15063 -0.26950 -0.53501 -0.80071 0.9801 0.9519
drop_s0
0 -7.34732 -4.00443 -4.00443 -0.26950 -0.53501 -0.80071 0.9687 0.9687
0 -3.86271 -2.54768 -6.15063 -0.26950 -0.53501 -0.80071 0.9801 0.9519
0 -3.86271 -4.70749 -4.70749 -0.26950 -0.53501 -0.80071 0.9632 0.9632
drop_s0
0 -7.34732 -2.16718 -5.23204 -0.26950 -0.18787 -0.94450 0.9831 0.9591
0 -7.34732 -0.00000 -5.66312 -0.26950 -0.18787 -0.94450 1.0000 0.9558
0 -3.86271 -0.00000 -6.65740 -0.26950 -0.18787 -0.94450 1.0000 0.9480
drop_s0
0 -7.34732 -2.16718 -5.23204 -0.26950 -0.18787 -0.94450 0.9831 0.9591
0 -3.86271 -0.00000 -6.65740 -0.26950 -0.18787 -0.94450 1.0000 0.9480
0 -3.86271 -2.54768 -6.15063 -0.26950 -0.18787 -0.94450 0.9801 0.9519
drop_s0
0 -7.34732 -0.00000 -5.66312 -0.26950 0.18787 -0.94450 1.0000 0.9558
0 -7.34732 2.16718 -5.23204 -0.26950 0.18787 -0.94450 0.0169 0.9591
0 -3.86271 2.54768 -6.15063 -0.26950 0.18787 -0.94450 0.0199 0.9519
drop_s0
0 -7.34732 -0.00000 -5.66312 -0.26950 0.18787 -0.94450 1.0000 0.9558
0 -3.86271 2.54768 -6.15063 -0.26950 0.18787 -0.94450 0.0199 0.9519
0 -3.86271 -0.00000 -6.65740 -0.26950 0.18787 -0.94450 1.0000 0.9480
drop_s0
0 -7.34732 2.16718 -5.23204 -0.26950 0.53501 -0.80071 0.0169 0.9591
0 -7.34732 4.00443 -4.00443 -0.26950 0.53501 -0.80071 0.0313 0.9687
0 -3.86271 4.70749 -4.70749 -0.26950 0.53501 -0.80071 0.0368 0.9632
drop_s0
0 -7.34732 2.16718 -5.23204 -0.26950 0.53501 -0.80071 0.0169 0.9591
0 -3.86271 4.70749 -4.70749 -0.26950 0.53501 -0.80071 0.0368 0.9632
0 -3.86271 2.54768 -6.15063 -0.26950 0.53501 -0.80071 0.0199 0.9519
drop_s0
0 -7.34732 4.00443 -4.00443 -0.26950 0.80071 -0.53501 0.0313 0.9687
0 -7.34732 5.23204 -2.16718 -0.26950 0.80071 -0.53501 0.0409 0.9831
0 -3.86271 6.15063 -2.54768 -0.26950 0.80071 -0.53501 0.0481 0.9801
drop_s0
0 -7.34732 4.00443 -4.00443 -0.26950 0.80071 -0.53501 0.0313 0.9687
0 -3.86271 6.15063 -2.54768 -0.26950 0.80071 -0.53501 0.0481 0.9801
0 -3.86271 4.70749 -4.70749 -0.26950 0.80071 -0.53501 0.0368 0.9632
drop_s2
0 -7.34732 5.23204 -2.16718 -0.26950 0.94450 -0.18787 0.0409 0.9831
0 -7.34732 5.66312 -0.00000 -0.26950 0.94450 -0.18787 0.0442 1.0000
0 -3.86271 6.65740 -0.00000 -0.26950 0.94450 -0.18787 0.0520 1.0000
drop_s2
0 -7.34732 5.23204 -2.16718 -0.26950 0.94450 -0.18787 0.0409 0.9831
0 -3.86271 6.65740 -0.00000 -0.26950 0.94450 -0.18787 0.0520 1.0000
0 -3.86271 6.15063 -2.54768 -0.26950 0.94450 -0.18787 0.0481 0.9801
drop_s4
0 -3.86271 6.65740 0.00000 -0.08666 0.97710 0.19436 0.0520 0.0000
0 -3.86271 6.15063 2.54768 -0.08666 0.97710 0.19436 0.0481 0.0199
0 -0.00000 6.46716 2.67878 -0.08666 0.97710 0.19436 0.0505 0.0209
drop_s4
0 -3.86271 6.65740 0.00000 -0.08666 0.97710 0.19436 0.0520 0.0000
0 -0.00000 6.46716 2.67878 -0.08666 0.97710 0.19436 0.0505 0.0209
0 -0.00000 7.00000 0.00000 -0.08666 0.97710 0.19436 0.0547 0.0000
drop_s6
0 -3.86271 6.15063 2.54768 -0.08666 0.82834 0.55348 0.0481 0.0199
0 -3.86271 4.70749 4.70749 -0.08666 0.82834 0.55348 0.0368 0.0368
0 -0.00000 4.94975 4.94975 -0.08666 0.82834 0.55348 0.0387 0.0387
drop_s6
0 -3.86271 6.15063 2.54768 -0.08666 0.82834 0.55348 0.0481 0.0199
0 -0.00000 4.94975 4.94975 -0.08666 0.82834 0.55348 0.0387 0.0387
0 -0.00000 6.46716 2.67878 -0.08666 0.82834 0.55348 0.0505 0.0209
drop_s7
0 -3.86271 4.70749 4.70749 -0.08666 0.55348 0.82834 0.0368 0.0368
0 -3.86271 2.54768 6.15063 -0.08666 0.55348 0.82834 0.0199 0.0481
0 -0.00000 2.67878 6.46716 -0.08666 0.55348 0.82834 0.0209 0.0505
drop_s7
0 -3.86271 4.70749 4.70749 -0.08666 0.55348 0.82834 0.0368 0.0368
0 -0.00000 2.67878 6.46716 -0.08666 0.55348 0.82834 0.0209 0.0505
0 -0.00000 4.94975 4.94975 -0.08666 0.55348 0.82834 0.0387 0.0387
drop_s7
0 -3.86271 2.54768 6.15063 -0.08666 0.19436 0.97710 0.0199 0.0481
0 -3.86271 0.00000 6.65740 -0.08666 0.19436 0.97710 0.0000 0.0520
0 -0.00000 0.00000 7.00000 -0.08666 0.19436 0.97710 0.0000 0.0547
drop_s7
0 -3.86271 2.54768 6.15063 -0.08666 0.19436 0.97710 0.0199 0.0481
0 -0.00000 0.00000 7.00000 -0.08666 0.19436 0.97710 0.0000 0.0547
0 -0.00000 2.67878 6.46716 -0.08666 0.19436 0.97710 0.0209 0.0505
drop_s6
0 -3.86271 0.00000 6.65740 -0.08666 -0.19436 0.97710 0.0000 0.0520
0 -3.86271 -2.54768 6.15063 -0.08666 -0.19436 0.97710 0.9801 0.0481
0 -0.00000 -2.67878 6.46716 -0.08666 -0.19436 0.97710 0.9791 0.0505
drop_s6
0 -3.86271 0.00000 6.65740 -0.08666 -0.19436 0.97710 0.0000 0.0520
0 -0.00000 -2.67878 6.46716 -0.08666 -0.19436 0.97710 0.9791 0.0505
0 -0.00000 0.00000 7.00000 -0.08666 -0.19436 0.97710 0.0000 0.0547
drop_s5
0 -3.86271 -2.54768 6.15063 -0.08666 -0.55348 0.82834 0.9801 0.0481
0 -3.86271 -4.70749 4.70749 -0.08666 -0.55348 0.82834 0.9632 0.0368
0 -0.00000 -4.94975 4.94975 -0.08666 -0.55348 0.82834 0.9613 0.0387
drop_s5
0 -3.86271 -2.54768 6.15063 -0.08666 -0.55348 0.82834 0.9801 0.0481
0 -0.00000 -4.94975 4.94975 -0.08666 -0.55348 0.82834 0.9613 0.0387
0 -0.00000 -2.67878 6.46716 -0.08666 -0.55348 0.82834 0.9791 0.0505
drop_s3
0 -3.86271 -4.70749 4.70749 -0.08666 -0.82834 0.55348 0.9632 0.0368
0 -3.86271 -6.15063 2.54768 -0.08666 -0.82834 0.55348 0.9519 0.0199
0 -0.00000 -6.46716 2.67878 -0.08666 -0.82834 0.55348 0.9495 0.0209
drop_s3
0 -3.86271 -4.70749 4.70749 -0.08666 -0.82834 0.55348 0.9632 0.0368
0 -0.00000 -6.46716 2.67878 -0.08666 -0.82834 0.55348 0.9495 0.0209
0 -0.00000 -4.94975 4.94975 -0.08666 -0.82834 0.55348 0.9613 0.0387
drop_s0
0 -3.86271 -6.15063 2.54768 -0.08666 -0.97710 0.19436 0.9519 0.0199
0 -3.86271 -6.65740 0.00000 -0.08666 -0.97710 0.19436 0.9480 0.0000
0 -0.00000 -7.00000 0.00000 -0.08666 -0.97710 0.19436 0.9453 0.0000
drop_s0
0 -3.86271 -6.15063 2.54768 -0.08666 -0.97710 0.19436 0.9519 0.0199
0 -0.00000 -7.00000 0.00000 -0.08666 -0.97710 0.19436 0.9453 0.0000
0 -0.00000 -6.46716 2.67878 -0.08666 -0.97710 0.19436 0.9495 0.0209
drop_s0
0 -3.86271 -6.65740 0.00000 -0.08666 -0.97710 -0.19436 0.9480 0.0000
0 -3.86271 -6.15063 -2.54768 -0.08666 -0.97710 -0.19436 0.9519 0.9801
0 -0.00000 -6.46716 -2.67878 -0.08666 -0.97710 -0.19436 0.9495 0.9791
drop_s0
0 -3.86271 -6.65740 0.00000 -0.08666 -0.97710 -0.19436 0.9480 0.0000
0 -0.00000 -6.46716 -2.67878 -0.08666 -0.97710 -0.19436 0.9495 0.9791
0 -0.00000 -7.00000 0.00000 -0.08666 -0.97710 -0.19436 0.9453 0.0000
drop_s0
0 -3.86271 -6.15063 -2.54768 -0.08666 -0.82834 -0.55348 0.9519 0.9801
0 -3.86271 -4.70749 -4.70749 -0.08666 -0.82834 -0.55348 0.9632 0.9632
0 -0.00000 -4.94975 -4.94975 -0.08666 -0.82834 -0.55348 0.9613 0.9613
drop_s0
0 -3.86271 -6.15063 -2.54768 -0.08666 -0.82834 -0.55348 0.9519 0.9801
0 -0.00000 -4.94975 -4.94975 -0.08666 -0.82834 -0.55348 0.9613 0.9613
0 -0.00000 -6.46716 -2.67878 -0.08666 -0.82834 -0.55348 0.9495 0.9791
drop_s0
0 -3.86271 -4.70749 -4.70749 -0.08666 -0.55348 -0.82834 0.9632 0.9632
0 -3.86271 -2.54768 -6.15063 -0.08666 -0.55348 -0.82834 0.9801 0.9519
0 -0.00000 -2.67878 -6.46716 -0.08666 -0.55348 -0.82834 0.9791 0.9495
drop_s0
0 -3.86271 -4.70749 -4.70749 -0.08666 -0.55348 -0.82834 0.9632 0.9632
0 -0.00000 -2.67878 -6.46716 -0.08666 -0.55348 -0.82834 0.9791 0.9495
0 -0.00000 -4.94975 -4.94975 -0.08666 -0.55348 -0.82834 0.9613 0.9613
drop_s0
0 -3.86271 -2.54768 -6.15063 -0.08666 -0.19436 -0.97710 0.9801 0.9519
0 -3.86271 -0.00000 -6.65740 -0.08666 -0.19436 -0.97710 1.0000 0.9480
0 -0.00000 -0.00000 -7.00000 -0.08666 -0.19436 -0.97710 1.0000 0.9453
drop_s0
0 -3.86271 -2.54768 -6.15063 -0.08666 -0.19436 -0.97710 0.9801 0.9519
0 -0.00000 -0.00000 -7.00000 -0.08666 -0.19436 -0.97710 1.0000 0.9453
0 -0.00000 -2.67878 -6.46716 -0.08666 -0.19436 -0.97710 0.9791 0.9495
drop_s0
0 -3.86271 -0.00000 -6.65740 -0.08666 0.19436 -0.97710 1.0000 0.9480
0 -3.86271 2.54768 -6.15063 -0.08666 0.19436 -0.97710 0.0199 0.9519
0 -0.00000 2.67878 -6.46716 -0.08666 0.19436 -0.97710 0.0209 0.9495
drop_s0
0 -3.86271 -0.00000 -6.65740 -0.08666 0.19436 -0.97710 1.0000 0.9480
0 -0.00000 2.67878 -6.46716 -0.08666 0.19436 -0.97710 0.0209 0.9495
0 -0.00000 -0.00000 -7.00000 -0.08666 0.19436 -0.97710 1.0000 0.9453
drop_s0
0 -3.86271 2.54768 -6.15063 -0.08666 0.55348 -0.82834 0.0199 0.9519
0 -3.86271 4.70749 -4.70749 -0.08666 0.55348 -0.82834 0.0368 0.9632
0 -0.00000 4.94975 -4.94975 -0.08666 0.55348 -0.82834 0.0387 0.9613
drop_s0
0 -3.86271 2.54768 -6.15063 -0.08666 0.55348 -0.82834 0.0199 0.9519
0 -0.00000 4.94975 -4.94975 -0.08666 0.55348 -0.82834 0.0387 0.9613
0 -0.00000 2.67878 -6.46716 -0.08666 0.55348 -0.82834 0.0209 0.9495
drop_s0
0 -3.86271 4.70749 -4.70749 -0.08666 0.82834 -0.55348 0.0368 0.9632
0 -3.86271 6.15063 -2.54768 -0.08666 0.82834 -0.55348 0.0481 0.9801
0 -0.00000 6.46716 -2.67878 -0.08666 0.82834 -0.55348 0.0505 0.9791
drop_s0
0 -3.86271 4.70749 -4.70749 -0.08666 0.82834 -0.55348 0.0368 0.9632
0 -0.00000 6.46716 -2.67878 -0.08666 0.82834 -0.55348 0.0505 0.9791
0 -0.00000 4.94975 -4.94975 -0.08666 0.82834 -0.55348 0.0387 0.9613
drop_s2
0 -3.86271 6.15063 -2.54768 -0.08666 0.97710 -0.19436 0.0481 0.9801
0 -3.86271 6.65740 -0.00000 -0.08666 0.97710 -0.19436 0.0520 1.0000
0 -0.00000 7.00000 -0.00000 -0.08666 0.97710 -0.19436 0.0547 1.0000
drop_s2
0 -3.86271 6.15063 -2.54768 -0.08666 0.97710 -0.19436 0.0481 0.9801
0 -0.00000 7.00000 -0.00000 -0.08666 0.97710 -0.19436 0.0547 1.0000
0 -0.00000 6.46716 -2.67878 -0.08666 0.97710 -0.19436 0.0505 0.9791
drop_s4
0 -0.00000 7.00000 0.00000 0.10810 0.97504 0.19395 0.0547 0.0000
0 -0.00000 6.46716 2.67878 0.10810 0.97504 0.19395 0.0505 0.0209
0 3.09017 6.15063 2.54768 0.10810 0.97504 0.19395 0.0481 0.0199
drop_s4
0 -0.00000 7.00000 0.00000 0.10810 0.97504 0.19395 0.0547 0.0000
0 3.09017 6.15063 2.54768 0.10810 0.97504 0.19395 0.0481 0.0199
0 3.09017 6.65740 0.00000 0.10810 0.97504 0.19395 0.0520 0.0000
drop_s5
0 -0.00000 6.46716 2.67878 0.10810 0.82660 0.55231 0.0505 0.0209
0 -0.00000 4.94975 4.94975 0.10810 0.82660 0.55231 0.0387 0.0387
0 3.09017 4.70749 4.70749 0.10810 0.82660 0.55231 0.0368 0.0368
drop_s5
0 -0.00000 6.46716 2.67878 0.10810 0.82660 0.55231 0.0505 0.0209
0 3.09017 4.70749 4.70749 0.10810 0.82660 0.55231 0.0368 0.0368
0 3.09017 6.15063 2.54768 0.10810 0.82660 0.55231 0.0481 0.0199
drop_s6
0 -0.00000 4.94975 4.94975 0.10810 0.55231 0.82660 0.0387 0.0387
0 -0.00000 2.67878 6.46716 0.10810 0.55231 0.82660 0.0209 0.0505
0 3.09017 2.54768 6.15063 0.10810 0.55231 0.82660 0.0199 0.0481
drop_s6
0 -0.00000 4.94975 4.94975 0.10810 0.55231 0.82660 0.0387 0.0387
0 3.09017 2.54768 6.15063 0.10810 0.55231 0.82660 0.0199 0.0481
0 3.09017 4.70749 4.70749 0.10810 0.55231 0.82660 0.0368 0.0368
drop_s6
0 -0.00000 2.67878 6.46716 0.10810 0.19395 0.97504 0.0209 0.0505
0 -0.00000 0.00000 7.00000 0.10810 0.19395 0.97504 0.0000 0.0547
0 3.09017 0.00000 6.65740 0.10810 0.19395 0.97504 0.0000 0.0520
drop_s6
0 -0.00000 2.67878 6.46716 0.10810 0.19395 0.97504 0.0209 0.0505
0 3.09017 0.00000 6.65740 0.10810 0.19395 0.97504 0.0000 0.0520
0 3.09017 2.54768 6.15063 0.10810 0.19395 0.97504 0.0199 0.0481
drop_s6
0 -0.00000 0.00000 7.00000 0.10810 -0.19395 0.97504 0.0000 0.0547
0 -0.00000 -2.67878 6.46716 0.10810 -0.19395 0.97504 0.9791 0.0505
0 3.09017 -2.54768 6.15063 0.10810 -0.19395 0.97504 0.9801 0.0481
drop_s6
0 -0.00000 0.00000 7.00000 0.10810 -0.19395 0.97504 0.0000 0.0547
0 3.09017 -2.54768 6.15063 0.10810 -0.19395 0.97504 0.9801 0.0481
0 3.09017 0.00000 6.65740 0.10810 -0.19395 0.97504 0.0000 0.0520
drop_s5
0 -0.00000 -2.67878 6.46716 0.10810 -0.55231 0.82660 0.9791 0.0505
0 -0.00000 -4.94975 4.94975 0.10810 -0.55231 0.82660 0.9613 0.0387
0 3.09017 -4.70749 4.70749 0.10810 -0.55231 0.82660 0.9632 0.0368
drop_s5
0 -0.00000 -2.67878 6.46716 0.10810 -0.55231 0.82660 0.9791 0.0505
0 3.09017 -4.70749 4.70749 0.10810 -0.55231 0.82660 0.9632 0.0368
0 3.09017 -2.54768 6.15063 0.10810 -0.55231 0.82660 0.9801 0.0481
drop_s3
0 -0.00000 -4.94975 4.94975 0.10810 -0.82660 0.55231 0.9613 0.0387
0 -0.00000 -6.46716 2.67878 0.10810 -0.82660 0.55231 0.9495 0.0209
0 3.09017 -6.15063 2.54768 0.10810 -0.82660 0.55231 0.9519 0.0199
drop_s3
0 -0.00000 -4.94975 4.94975 0.10810 -0.82660 0.55231 0.9613 0.0387
0 3.09017 -6.15063 2.54768 0.10810 -0.82660 0.55231 0.9519 0.0199
0 3.09017 -4.70749 4.70749 0.10810 -0.82660 0.55231 0.9632 0.0368
drop_s0
0 -0.00000 -6.46716 2.67878 0.10810 -0.97504 0.19395 0.9495 0.0209
0 -0.00000 -7.00000 0.00000 0.10810 -0.97504 0.19395 0.9453 0.0000
0 3.09017 -6.65740 0.00000 0.10810 -0.97504 0.19395 0.9480 0.0000
drop_s0
0 -0.00000 -6.46716 2.67878 0.10810 -0.97504 0.19395 0.9495 0.0209
0 3.09017 -6.65740 0.00000 0.10810 -0.97504 0.19395 0.9480 0.0000
0 3.09017 -6.15063 2.54768 0.10810 -0.97504 0.19395 0.9519 0.0199
drop_s0
0 -0.00000 -7.00000 0.00000 0.10810 -0.97504 -0.19395 0.9453 0.0000
0 -0.00000 -6.46716 -2.67878 0.10810 -0.97504 -0.19395 0.9495 0.9791
0 3.09017 -6.15063 -2.54768 0.10810 -0.97504 -0.19395 0.9519 0.9801
drop_s0
0 -0.00000 -7.00000 0.00000 0.10810 -0.97504 -0.19395 0.9453 0.0000
0 3.09017 -6.15063 -2.54768 0.10810 -0.97504 -0.19395 0.9519 0.9801
0 3.09017 -6.65740 0.00000 0.10810 -0.97504 -0.19395 0.9480 0.0000
drop_s0
0 -0.00000 -6.46716 -2.67878 0.10810 -0.82660 -0.55231 0.9495 0.9791
0 -0.00000 -4.94975 -4.94975 0.10810 -0.82660 -0.55231 0.9613 0.9613
0 3.09017 -4.70749 -4.70749 0.10810 -0.82660 -0.55231 0.9632 0.9632
drop_s0
0 -0.00000 -6.46716 -2.67878 0.10810 -0.82660 -0.55231 0.9495 0.9791
0 3.09017 -4.70749 -4.70749 0.10810 -0.82660 -0.55231 0.9632 0.9632
0 3.09017 -6.15063 -2.54768 0.10810 -0.82660 -0.55231 0.9519 0.9801
drop_s0
0 -0.00000 -4.94975 -4.94975 0.10810 -0.55231 -0.82660 0.9613 0.9613
0 -0.00000 -2.67878 -6.46716 0.10810 -0.55231 -0.82660 0.9791 0.9495
0 3.09017 -2.54768 -6.15063 0.10810 -0.55231 -0.82660 0.9801 0.9519
drop_s0
0 -0.00000 -4.94975 -4.94975 0.10810 -0.55231 -0.82660 0.9613 0.9613
0 3.09017 -2.54768 -6.15063 0.10810 -0.55231 -0.82660 0.9801 0.9519
0 3.09017 -4.70749 -4.70749 0.10810 -0.55231 -0.82660 0.9632 0.9632
drop_s0
0 -0.00000 -2.67878 -6.46716 0.10810 -0.19395 -0.97504 0.9791 0.9495
0 -0.00000 -0.00000 -7.00000 0.10810 -0.19395 -0.97504 1.0000 0.9453
0 3.09017 -0.00000 -6.65740 0.10810 -0.19395 -0.97504 1.0000 0.9480
drop_s0
0 -0.00000 -2.67878 -6.46716 0.10810 -0.19395 -0.97504 0.9791 0.9495
0 3.09017 -0.00000 -6.65740 0.10810 -0.19395 -0.97504 1.0000 0.9480
0 3.09017 -2.54768 -6.15063 0.10810 -0.19395 -0.97504 0.9801 0.9519
drop_s0
0 -0.00000 -0.00000 -7.00000 0.10810 0.19395 -0.97504 1.0000 0.9453
0 -0.00000 2.67878 -6.46716 0.10810 0.19395 -0.97504 0.0209 0.9495
0 3.09017 2.54768 -6.15063 0.10810 0.19395 -0.97504 0.0199 0.9519
drop_s0
0 -0.00000 -0.00000 -7.00000 0.10810 0.19395 -0.97504 1.0000 0.9453
0 3.09017 2.54768 -6.15063 0.10810 0.19395 -0.97504 0.0199 0.9519
0 3.09017 -0.00000 -6.65740 0.10810 0.19395 -0.97504 1.0000 0.9480
drop_s0
0 -0.00000 2.67878 -6.46716 0.10810 0.55231 -0.82660 0.0209 0.9495
0 -0.00000 4.94975 -4.94975 0.10810 0.55231 -0.82660 0.0387 0.9613
0 3.09017 4.70749 -4.70749 0.10810 0.55231 -0.82660 0.0368 0.9632
drop_s0
0 -0.00000 2.67878 -6.46716 0.10810 0.55231 -0.82660 0.0209 0.9495
0 3.09017 4.70749 -4.70749 0.10810 0.55231 -0.82660 0.0368 0.9632
0 3.09017 2.54768 -6.15063 0.10810 0.55231 -0.82660 0.0199 0.9519
drop_s0
0 -0.00000 4.94975 -4.94975 0.10810 0.82660 -0.55231 0.0387 0.9613
0 -0.00000 6.46716 -2.67878 0.10810 0.82660 -0.55231 0.0505 0.9791
0 3.09017 6.15063 -2.54768 0.10810 0.82660 -0.55231 0.0481 0.9801
drop_s0
0 -0.00000 4.94975 -4.94975 0.10810 0.82660 -0.55231 0.0387 0.9613
0 3.09017 6.15063 -2.54768 0.10810 0.82660 -0.55231 0.0481 0.9801
0 3.09017 4.70749 -4.70749 0.10810 0.82660 -0.55231 0.0368 0.9632
drop_s1
0 -0.00000 6.46716 -2.67878 0.10810 0.97504 -0.19395 0.0505 0.9791
0 -0.00000 7.00000 -0.00000 0.10810 0.97504 -0.19395 0.0547 1.0000
0 3.09017 6.65740 -0.00000 0.10810 0.97504 -0.19395 0.0520 1.0000
drop_s1
0 -0.00000 6.46716 -2.67878 0.10810 0.97504 -0.19395 0.0505 0.9791
0 3.09017 6.65740 -0.00000 0.10810 0.97504 -0.19395 0.0520 1.0000
0 3.09017 6.15063 -2.54768 0.10810 0.97504 -0.19395 0.0481 0.9801
drop_s3
0 3.09017 6.65740 0.00000 0.33019 0.92578 0.18415 0.0520 0.0000
0 3.09017 6.15063 2.54768 0.33019 0.92578 0.18415 0.0481 0.0199
0 5.87785 5.23204 2.16718 0.33019 0.92578 0.18415 0.0409 0.0169
drop_s3
0 3.09017 6.65740 0.00000 0.33019 0.92578 0.18415 0.0520 0.0000
0 5.87785 5.23204 2.16718 0.33019 0.92578 0.18415 0.0409 0.0169
0 5.87785 5.66312 0.00000 0.33019 0.92578 0.18415 0.0442 0.0000
drop_s5
0 3.09017 6.15063 2.54768 0.33019 0.78483 0.52441 0.0481 0.0199
0 3.09017 4.70749 4.70749 0.33019 0.78483 0.52441 0.0368 0.0368
0 5.87785 4.00443 4.00443 0.33019 0.78483 0.52441 0.0313 0.0313
drop_s5
0 3.09017 6.15063 2.54768 0.33019 0.78483 0.52441 0.0481 0.0199
0 5.87785 4.00443 4.00443 0.33019 0.78483 0.52441 0.0313 0.0313
0 5.87785 5.23204 2.16718 0.33019 0.78483 0.52441 0.0409 0.0169
drop_s6
0 3.09017 4.70749 4.70749 0.33019 0.52441 0.78483 0.0368 0.0368
0 3.09017 2.54768 6.15063 0.33019 0.52441 0.78483 0.0199 0.0481
0 5.87785 2.16718 5.23204 0.33019 0.52441 0.78483 0.0169 0.0409
drop_s6
0 3.09017 4.70749 4.70749 0.33019 0.52441 0.78483 0.0368 0.0368
0 5.87785 2.16718 5.23204 0.33019 0.52441 0.78483 0.0169 0.0409
0 5.87785 4.00443 4.00443 0.33019 0.52441 0.78483 0.0313 0.0313
drop_s6
0 3.09017 2.54768 6.15063 0.33019 0.18415 0.92578 0.0199 0.0481
0 3.09017 0.00000 6.65740 0.33019 0.18415 0.92578 0.0000 0.0520
0 5.87785 0.00000 5.66312 0.33019 0.18415 0.92578 0.0000 0.0442
drop_s6
0 3.09017 2.54768 6.15063 0.33019 0.18415 0.92578 0.0199 0.0481
0 5.87785 0.00000 5.66312 0.33019 0.18415 0.92578 0.0000 0.0442
0 5.87785 2.16718 5.23204 0.33019 0.18415 0.92578 0.0169 0.0409
drop_s5
0 3.09017 0.00000 6.65740 0.33019 -0.18415 0.92578 0.0000 0.0520
0 3.09017 -2.54768 6.15063 0.33019 -0.18415 0.92578 0.9801 0.0481
0 5.87785 -2.16718 5.23204 0.33019 -0.18415 0.92578 0.9831 0.0409
drop_s5
0 3.09017 0.00000 6.65740 0.33019 -0.18415 0.92578 0.0000 0.0520
0 5.87785 -2.16718 5.23204 0.33019 -0.18415 0.92578 0.9831 0.0409
0 5.87785 0.00000 5.66312 0.33019 -0.18415 0.92578 0.0000 0.0442
drop_s4
0 3.09017 -2.54768 6.15063 0.33019 -0.52441 0.78483 0.9801 0.0481
0 3.09017 -4.70749 4.70749 0.33019 -0.52441 0.78483 0.9632 0.0368
0 5.87785 -4.00443 4.00443 0.33019 -0.52441 0.78483 0.9687 0.0313
drop_s4
0 3.09017 -2.54768 6.15063 0.33019 -0.52441 0.78483 0.9801 0.0481
0 5.87785 -4.00443 4.00443 0.33019 -0.52441 0.78483 0.9687 0.0313
0 5.87785 -2.16718 5.23204 0.33019 -0.52441 0.78483 0.9831 0.0409
drop_s2
0 3.09017 -4.70749 4.70749 0.33019 -0.78483 0.52441 0.9632 0.0368
0 3.09017 -6.15063 2.54768 0.33019 -0.78483 0.52441 0.9519 0.0199
0 5.87785 -5.23204 2.16718 0.33019 -0.78483 0.52441 0.9591 0.0169
drop_s2
0 3.09017 -4.70749 4.70749 0.33019 -0.78483 0.52441 0.9632 0.0368
0 5.87785 -5.23204 2.16718 0.33019 -0.78483 0.52441 0.9591 0.0169
0 5.87785 -4.00443 4.00443 0.33019 -0.78483 0.52441 0.9687 0.0313
drop_s0
0 3.09017 -6.15063 2.54768 0.33019 -0.92578 0.18415 0.9519 0.0199
0 3.09017 -6.65740 0.00000 0.33019 -0.92578 0.18415 0.9480 0.0000
0 5.87785 -5.66312 0.00000 0.33019 -0.92578 0.18415 0.9558 0.0000
drop_s0
0 3.09017 -6.15063 2.54768 0.33019 -0.92578 0.18415 0.9519 0.0199
0 5.87785 -5.66312 0.00000 0.33019 -0.92578 0.18415 0.9558 0.0000
0 5.87785 -5.23204 2.16718 0.33019 -0.92578 0.18415 0.9591 0.0169
drop_s0
0 3.09017 -6.65740 0.00000 0.33019 -0.92578 -0.18415 0.9480 0.0000
0 3.09017 -6.15063 -2.54768 0.33019 -0.92578 -0.18415 0.9519 0.9801
0 5.87785 -5.23204 -2.16718 0.33019 -0.92578 -0.18415 0.9591 0.9831
drop_s0
0 3.09017 -6.65740 0.00000 0.33019 -0.92578 -0.18415 0.9480 0.0000
0 5.87785 -5.23204 -2.16718 0.33019 -0.92578 -0.18415 0.9591 0.9831
0 5.87785 -5.66312 0.00000 0.33019 -0.92578 -0.18415 0.9558 0.0000
drop_s0
0 3.09017 -6.15063 -2.54768 0.33019 -0.78483 -0.52441 0.9519 0.9801
0 3.09017 -4.70749 -4.70749 0.33019 -0.78483 -0.52441 0.9632 0.9632
0 5.87785 -4.00443 -4.00443 0.33019 -0.78483 -0.52441 0.9687 0.9687
drop_s0
0 3.09017 -6.15063 -2.54768 0.33019 -0.78483 -0.52441 0.9519 0.9801
0 5.87785 -4.00443 -4.00443 0.33019 -0.78483 -0.52441 0.9687 0.9687
0 5.87785 -5.23204 -2.16718 0.33019 -0.78483 -0.52441 0.9591 0.9831
drop_s0
0 3.09017 -4.70749 -4.70749 0.33019 -0.52441 -0.78483 0.9632 0.9632
0 3.09017 -2.54768 -6.15063 0.33019 -0.52441 -0.78483 0.9801 0.9519
0 5.87785 -2.16718 -5.23204 0.33019 -0.52441 -0.78483 0.9831 0.9591
drop_s0
0 3.09017 -4.70749 -4.70749 0.33019 -0.52441 -0.78483 0.9632 0.9632
0 5.87785 -2.16718 -5.23204 0.33019 -0.52441 -0.78483 0.9831 0.9591
0 5.87785 -4.00443 -4.00443 0.33019 -0.52441 -0.78483 0.9687 0.9687
drop_s0
0 3.09017 -2.54768 -6.15063 0.33019 -0.18415 -0.92578 0.9801 0.9519
0 3.09017 -0.00000 -6.65740 0.33019 -0.18415 -0.92578 1.0000 0.9480
0 5.87785 -0.00000 -5.66312 0.33019 -0.18415 -0.92578 1.0000 0.9558
drop_s0
0 3.09017 -2.54768 -6.15063 0.33019 -0.18415 -0.92578 0.9801 0.9519
0 5.87785 -0.00000 -5.66312 0.33019 -0.18415 -0.92578 1.0000 0.9558
0 5.87785 -2.16718 -5.23204 0.33019 -0.18415 -0.92578 0.9831 0.9591
drop_s0
0 3.09017 -0.00000 -6.65740 0.33019 0.18415 -0.92578 1.0000 0.9480
0 3.09017 2.54768 -6.15063 0.33019 0.18415 -0.92578 0.0199 0.9519
0 5.87785 2.16718 -5.23204 0.33019 0.18415 -0.92578 0.0169 0.9591
drop_s0
0 3.09017 -0.00000 -6.65740 0.33019 0.18415 -0.92578 1.0000 0.9480
0 5.87785 2.16718 -5.23204 0.33019 0.18415 -0.92578 0.0169 0.9591
0 5.87785 -0.00000 -5.66312 0.33019 0.18415 -0.92578 1.0000 0.9558
drop_s0
0 3.09017 2.54768 -6.15063 0.33019 0.52441 -0.78483 0.0199 0.9519
0 3.09017 4.70749 -4.70749 0.33019 0.52441 -0.78483 0.0368 0.9632
0 5.87785 4.00443 -4.00443 0.33019 0.52441 -0.78483 0.0313 0.9687
drop_s0
0 3.09017 2.54768 -6.15063 0.33019 0.52441 -0.78483 0.0199 0.9519
0 5.87785 4.00443 -4.00443 0.33019 0.52441 -0.78483 0.0313 0.9687
0 5.87785 2.16718 -5.23204 0.33019 0.52441 -0.78483 0.0169 0.9591
drop_s0
0 3.09017 4.70749 -4.70749 0.33019 0.78483 -0.52441 0.0368 0.9632
0 3.09017 6.15063 -2.54768 0.33019 0.78483 -0.52441 0.0481 0.9801
0 5.87785 5.23204 -2.16718 0.33019 0.78483 -0.52441 0.0409 0.9831
drop_s0
0 3.09017 4.70749 -4.70749 0.33019 0.78483 -0.52441 0.0368 0.9632
0 5.87785 5.23204 -2.16718 0.33019 0.78483 -0.52441 0.0409 0.9831
0 5.87785 4.00443 -4.00443 0.33019 0.78483 -0.52441 0.0313 0.9687
drop_s0
0 3.09017 6.15063 -2.54768 0.33019 0.92578 -0.18415 0.0481 0.9801
0 3.09017 6.65740 -0.00000 0.33019 0.92578 -0.18415 0.0520 1.0000
0 5.87785 5.66312 -0.00000 0.33019 0.92578 -0.18415 0.0442 1.0000
drop_s0
0 3.09017 6.15063 -2.54768 0.33019 0.92578 -0.18415 0.0481 0.9801
0 5.87785 5.66312 -0.00000 0.33019 0.92578 -0.18415 0.0442 1.0000
0 5.87785 5.23204 -2.16718 0.33019 0.92578 -0.18415 0.0409 0.9831
drop_s2
0 5.87785 5.66312 0.00000 0.56600 0.80857 0.16083 0.0442 0.0000
0 5.87785 5.23204 2.16718 0.56600 0.80857 0.16083 0.0409 0.0169
0 8.09017 3.80130 1.57455 0.56600 0.80857 0.16083 0.0297 0.0123
drop_s2
0 5.87785 5.66312 0.00000 0.56600 0.80857 0.16083 0.0442 0.0000
0 8.09017 3.80130 1.57455 0.56600 0.80857 0.16083 0.0297 0.0123
0 8.09017 4.11450 0.00000 0.56600 0.80857 0.16083 0.0321 0.0000
drop_s4
0 5.87785 5.23204 2.16718 0.56600 0.68547 0.45802 0.0409 0.0169
0 5.87785 4.00443 4.00443 0.56600 0.68547 0.45802 0.0313 0.0313
0 8.09017 2.90939 2.90939 0.56600 0.68547 0.45802 0.0227 0.0227
drop_s4
0 5.87785 5.23204 2.16718 0.56600 0.68547 0.45802 0.0409 0.0169
0 8.09017 2.90939 2.90939 0.56600 0.68547 0.45802 0.0227 0.0227
0 8.09017 3.80130 1.57455 0.56600 0.68547 0.45802 0.0297 0.0123
drop_s4
0 5.87785 4.00443 4.00443 0.56600 0.45802 0.68547 0.0313 0.0313
0 5.87785 2.16718 5.23204 0.56600 0.45802 0.68547 0.0169 0.0409
0 8.09017 1.57455 3.80130 0.56600 0.45802 0.68547 0.0123 0.0297
drop_s4
0 5.87785 4.00443 4.00443 0.56600 0.45802 0.68547 0.0313 0.0313
0 8.09017 1.57455 3.80130 0.56600 0.45802 0.68547 0.0123 0.0297
0 8.09017 2.90939 2.90939 0.56600 0.45802 0.68547 0.0227 0.0227
drop_s5
0 5.87785 2.16718 5.23204 0.56600 0.16083 0.80857 0.0169 0.0409
0 5.87785 0.00000 5.66312 0.56600 0.16083 0.80857 0.0000 0.0442
0 8.09017 0.00000 4.11450 0.56600 0.16083 0.80857 0.0000 0.0321
drop_s5
0 5.87785 2.16718 5.23204 0.56600 0.16083 0.80857 0.0169 0.0409
0 8.09017 0.00000 4.11450 0.56600 0.16083 0.80857 0.0000 0.0321
0 8.09017 1.57455 3.80130 0.56600 0.16083 0.80857 0.0123 0.0297
drop_s4
0 5.87785 0.00000 5.66312 0.56600 -0.16083 0.80857 0.0000 0.0442
0 5.87785 -2.16718 5.23204 0.56600 -0.16083 0.80857 0.9831 0.0409
0 8.09017 -1.57455 3.80130 0.56600 -0.16083 0.80857 0.9877 0.0297
drop_s4
0 5.87785 0.00000 5.66312 0.56600 -0.16083 0.80857 0.0000 0.0442
0 8.09017 -1.57455 3.80130 0.56600 -0.16083 0.80857 0.9877 0.0297
0 8.09017 0.00000 4.11450 0.56600 -0.16083 0.80857 0.0000 0.0321
drop_s3
0 5.87785 -2.16718 5.23204 0.56600 -0.45802 0.68547 0.9831 0.0409
0 5.87785 -4.00443 4.00443 0.56600 -0.45802 0.68547 0.9687 0.0313
0 8.09017 -2.90939 2.90939 0.56600 -0.45802 0.68547 0.9773 0.0227
drop_s3
0 5.87785 -2.16718 5.23204 0.56600 -0.45802 0.68547 0.9831 0.0409
0 8.09017 -2.90939 2.90939 0.56600 -0.45802 0.68547 0.9773 0.0227
0 8.09017 -1.57455 3.80130 0.56600 -0.45802 0.68547 0.9877 0.0297
drop_s1
0 5.87785 -4.00443 4.00443 0.56600 -0.68547 0.45802 0.9687 0.0313
0 5.87785 -5.23204 2.16718 0.56600 -0.68547 0.45802 0.9591 0.0169
0 8.09017 -3.80130 1.57455 0.56600 -0.68547 0.45802 0.9703 0.0123
drop_s1
0 5.87785 -4.00443 4.00443 0.56600 -0.68547 0.45802 0.9687 0.0313
0 8.09017 -3.80130 1.57455 0.56600 -0.68547 0.45802 0.9703 0.0123
0 8.09017 -2.90939 2.90939 0.56600 -0.68547 0.45802 0.9773 0.0227
drop_s0
0 5.87785 -5.23204 2.16718 0.56600 -0.80857 0.16083 0.9591 0.0169
0 5.87785 -5.66312 0.00000 0.56600 -0.80857 0.16083 0.9558 0.0000
0 8.09017 -4.11450 0.00000 0.56600 -0.80857 0.16083 0.9679 0.0000
drop_s0
0 5.87785 -5.23204 2.16718 0.56600 -0.80857 0.16083 0.9591 0.0169
0 8.09017 -4.11450 0.00000 0.56600 -0.80857 0.16083 0.9679 0.0000
0 8.09017 -3.80130 1.57455 0.56600 -0.80857 0.16083 0.9703 0.0123
drop_s0
0 5.87785 -5.66312 0.00000 0.56600 -0.80857 -0.16083 0.9558 0.0000
0 5.87785 -5.23204 -2.16718 0.56600 -0.80857 -0.16083 0.9591 0.9831
0 8.09017 -3.80130 -1.57455 0.56600 -0.80857 -0.16083 0.9703 0.9877
drop_s0
0 5.87785 -5.66312 0.00000 0.56600 -0.80857 -0.16083 0.9558 0.0000
0 8.09017 -3.80130 -1.57455 0.56600 -0.80857 -0.16083 0.9703 0.9877
0 8.09017 -4.11450 0.00000 0.56600 -0.80857 -0.16083 0.9679 0.0000
drop_s0
0 5.87785 -5.23204 -2.16718 0.56600 -0.68547 -0.45802 0.9591 0.9831
0 5.87785 -4.00443 -4.00443 0.56600 -0.68547 -0.45802 0.9687 0.9687
0 8.09017 -2.90939 -2.90939 0.56600 -0.68547 -0.45802 0.9773 0.9773
drop_s0
0 5.87785 -5.23204 -2.16718 0.56600 -0.68547 -0.45802 0.9591 0.9831
0 8.09017 -2.90939 -2.90939 0.56600 -0.68547 -0.45802 0.9773 0.9773
0 8.09017 -3.80130 -1.57455 0.56600 -0.68547 -0.45802 0.9703 0.9877
drop_s0
0 5.87785 -4.00443 -4.00443 0.56600 -0.45802 -0.68547 0.9687 0.9687
0 5.87785 -2.16718 -5.23204 0.56600 -0.45802 -0.68547 0.9831 0.9591
0 8.09017 -1.57455 -3.80130 0.56600 -0.45802 -0.68547 0.9877 0.9703
drop_s0
0 5.87785 -4.00443 -4.00443 0.56600 -0.45802 -0.68547 0.9687 0.9687
0 8.09017 -1.57455 -3.80130 0.56600 -0.45802 -0.68547 0.9877 0.9703
0 8.09017 -2.90939 -2.90939 0.56600 -0.45802 -0.68547 0.9773 0.9773
drop_s0
0 5.87785 -2.16718 -5.23204 0.56600 -0.16083 -0.80857 0.9831 0.9591
0 5.87785 -0.00000 -5.66312 0.56600 -0.16083 -0.80857 1.0000 0.9558
0 8.09017 -0.00000 -4.11450 0.56600 -0.16083 -0.80857 1.0000 0.9679
drop_s0
0 5.87785 -2.16718 -5.23204 0.56600 -0.16083 -0.80857 0.9831 0.9591
0 8.09017 -0.00000 -4.11450 0.56600 -0.16083 -0.80857 1.0000 0.9679
0 8.09017 -1.57455 -3.80130 0.56600 -0.16083 -0.80857 0.9877 0.9703
drop_s0
0 5.87785 -0.00000 -5.66312 0.56600 0.16083 -0.80857 1.0000 0.9558
0 5.87785 2.16718 -5.23204 0.56600 0.16083 -0.80857 0.0169 0.9591
0 8.09017 1.57455 -3.80130 0.56600 0.16083 -0.80857 0.0123 0.9703
drop_s0
0 5.87785 -0.00000 -5.66312 0.56600 0.16083 -0.80857 1.0000 0.9558
0 8.09017 1.57455 -3.80130 0.56600 0.16083 -0.80857 0.0123 0.9703
0 8.09017 -0.00000 -4.11450 0.56600 0.16083 -0.80857 1.0000 0.9679
drop_s0
0 5.87785 2.16718 -5.23204 0.56600 0.45802 -0.68547 0.0169 0.9591
0 5.87785 4.00443 -4.00443 0.56600 0.45802 -0.68547 0.0313 0.9687
0 8.09017 2.90939 -2.90939 0.56600 0.45802 -0.68547 0.0227 0.9773
drop_s0
0 5.87785 2.16718 -5.23204 0.56600 0.45802 -0.68547 0.0169 0.9591
0 8.09017 2.90939 -2.90939 0.56600 0.45802 -0.68547 0.0227 0.9773
0 8.09017 1.57455 -3.80130 0.56600 0.45802 -0.68547 0.0123 0.9703
drop_s0
0 5.87785 4.00443 -4.00443 0.56600 0.68547 -0.45802 0.0313 0.9687
0 5.87785 5.23204 -2.16718 0.56600 0.68547 -0.45802 0.0409 0.9831
0 8.09017 3.80130 -1.57455 0.56600 0.68547 -0.45802 0.0297 0.9877
drop_s0
0 5.87785 4.00443 -4.00443 0.56600 0.68547 -0.45802 0.0313 0.9687
0 8.09017 3.80130 -1.57455 0.56600 0.68547 -0.45802 0.0297 0.9877
0 8.09017 2.90939 -2.90939 0.56600 0.68547 -0.45802 0.0227 0.9773
drop_s0
0 5.87785 5.23204 -2.16718 0.56600 0.80857 -0.16083 0.0409 0.9831
0 5.87785 5.66312 -0.00000 0.56600 0.80857 -0.16083 0.0442 1.0000
0 8.09017 4.11450 -0.00000 0.56600 0.80857 -0.16083 0.0321 1.0000
drop_s0
0 5.87785 5.23204 -2.16718 0.56600 0.80857 -0.16083 0.0409 0.9831
0 8.09017 4.11450 -0.00000 0.56600 0.80857 -0.16083 0.0321 1.0000
0 8.09017 3.80130 -1.57455 0.56600 0.80857 -0.16083 0.0297 0.9877
drop_s0
0 8.09017 4.11450 0.00000 0.80301 0.58451 0.11627 0.0321 0.0000
0 8.09017 3.80130 1.57455 0.80301 0.58451 0.11627 0.0297 0.0123
0 9.51057 1.99846 0.82779 0.80301 0.58451 0.11627 0.0156 0.0065
drop_s0
0 8.09017 4.11450 0.00000 0.80301 0.58451 0.11627 0.0321 0.0000
0 9.51057 1.99846 0.82779 0.80301 0.58451 0.11627 0.0156 0.0065
0 9.51057 2.16312 0.00000 0.80301 0.58451 0.11627 0.0169 0.0000
drop_s2
0 8.09017 3.80130 1.57455 0.80301 0.49552 0.33110 0.0297 0.0123
0 8.09017 2.90939 2.90939 0.80301 0.49552 0.33110 0.0227 0.0227
0 9.51057 1.52956 1.52956 0.80301 0.49552 0.33110 0.0119 0.0119
drop_s2
0 8.09017 3.80130 1.57455 0.80301 0.49552 0.33110 0.0297 0.0123
0 9.51057 1.52956 1.52956 0.80301 0.49552 0.33110 0.0119 0.0119
0 9.51057 1.99846 0.82779 0.80301 0.49552 0.33110 0.0156 0.0065
drop_s3
0 8.09017 2.90939 2.90939 0.80301 0.33110 0.49552 0.0227 0.0227
0 8.09017 1.57455 3.80130 0.80301 0.33110 0.49552 0.0123 0.0297
0 9.51057 0.82779 1.99846 0.80301 0.33110 0.49552 0.0065 0.0156
drop_s3
0 8.09017 2.90939 2.90939 0.80301 0.33110 0.49552 0.0227 0.0227
0 9.51057 0.82779 1.99846 0.80301 0.33110 0.49552 0.0065 0.0156
0 9.51057 1.52956 1.52956 0.80301 0.33110 0.49552 0.0119 0.0119
drop_s3
0 8.09017 1.57455 3.80130 0.80301 0.11627 0.58451 0.0123 0.0297
0 8.09017 0.00000 4.11450 0.80301 0.11627 0.58451 0.0000 0.0321
0 9.51057 0.00000 2.16312 0.80301 0.11627 0.58451 0.0000 0.0169
drop_s3
0 8.09017 1.57455 3.80130 0.80301 0.11627 0.58451 0.0123 0.0297
0 9.51057 0.00000 2.16312 0.80301 0.11627 0.58451 0.0000 0.0169
0 9.51057 0.82779 1.99846 0.80301 0.11627 0.58451 0.0065 0.0156
drop_s2
0 8.09017 0.00000 4.11450 0.80301 -0.11627 0.58451 0.0000 0.0321
0 8.09017 -1.57455 3.80130 0.80301 -0.11627 0.58451 0.9877 0.0297
0 9.51057 -0.82779 1.99846 0.80301 -0.11627 0.58451 0.9935 0.0156
drop_s2
0 8.09017 0.00000 4.11450 0.80301 -0.11627 0.58451 0.0000 0.0321
0 9.51057 -0.82779 1.99846 0.80301 -0.11627 0.58451 0.9935 0.0156
0 9.51057 0.00000 2.16312 0.80301 -0.11627 0.58451 0.0000 0.0169
drop_s1
0 8.09017 -1.57455 3.80130 0.80301 -0.33110 0.49552 0.9877 0.0297
0 8.09017 -2.90939 2.90939 0.80301 -0.33110 0.49552 0.9773 0.0227
0 9.51057 -1.52956 1.52956 0.80301 -0.33110 0.49552 0.9881 0.0119
drop_s1
0 8.09017 -1.57455 3.80130 0.80301 -0.33110 0.49552 0.9877 0.0297
0 9.51057 -1.52956 1.52956 0.80301 -0.33110 0.49552 0.9881 0.0119
0 9.51057 -0.82779 1.99846 0.80301 -0.33110 0.49552 0.9935 0.0156
drop_s0
0 8.09017 -2.90939 2.90939 0.80301 -0.49552 0.33110 0.9773 0.0227
0 8.09017 -3.80130 1.57455 0.80301 -0.49552 0.33110 0.9703 0.0123
0 9.51057 -1.99846 0.82779 0.80301 -0.49552 0.33110 0.9844 0.0065
drop_s0
0 8.09017 -2.90939 2.90939 0.80301 -0.49552 0.33110 0.9773 0.0227
0 9.51057 -1.99846 0.82779 0.80301 -0.49552 0.33110 0.9844 0.0065
0 9.51057 -1.52956 1.52956 0.80301 -0.49552 0.33110 0.9881 0.0119
drop_s0
0 8.09017 -3.80130 1.57455 0.80301 -0.58451 0.11627 0.9703 0.0123
0 8.09017 -4.11450 0.00000 0.80301 -0.58451 0.11627 0.9679 0.0000
0 9.51057 -2.16312 0.00000 0.80301 -0.58451 0.11627 0.9831 0.0000
drop_s0
0 8.09017 -3.80130 1.57455 0.80301 -0.58451 0.11627 0.9703 0.0123
0 9.51057 -2.16312 0.00000 0.80301 -0.58451 0.11627 0.9831 0.0000
0 9.51057 -1.99846 0.82779 0.80301 -0.58451 0.11627 0.9844 0.0065
drop_s0
0 8.09017 -4.11450 0.00000 0.80301 -0.58451 -0.11627 0.9679 0.0000
0 8.09017 -3.80130 -1.57455 0.80301 -0.58451 -0.11627 0.9703 0.9877
0 9.51057 -1.99846 -0.82779 0.80301 -0.58451 -0.11627 0.9844 0.9935
drop_s0
0 8.09017 -4.11450 0.00000 0.80301 -0.58451 -0.11627 0.9679 0.0000
0 9.51057 -1.99846 -0.82779 0.80301 -0.58451 -0.11627 0.9844 0.9935
0 9.51057 -2.16312 0.00000 0.80301 -0.58451 -0.11627 0.9831 0.0000
drop_s0
0 8.09017 -3.80130 -1.57455 0.80301 -0.49552 -0.33110 0.9703 0.9877
0 8.09017 -2.90939 -2.90939 0.80301 -0.49552 -0.33110 0.9773 0.9773
0 9.51057 -1.52956 -1.52956 0.80301 -0.49552 -0.33110 0.9881 0.9881
drop_s0
0 8.09017 -3.80130 -1.57455 0.80301 -0.49552 -0.33110 0.9703 0.9877
0 9.51057 -1.52956 -1.52956 0.80301 -0.49552 -0.33110 0.9881 0.9881
0 9.51057 -1.99846 -0.82779 0.80301 -0.49552 -0.33110 0.9844 0.9935
drop_s0
0 8.09017 -2.90939 -2.90939 0.80301 -0.33110 -0.49552 0.9773 0.9773
0 8.09017 -1.57455 -3.80130 0.80301 -0.33110 -0.49552 0.9877 0.9703
0 9.51057 -0.82779 -1.99846 0.80301 -0.33110 -0.49552 0.9935 0.9844
drop_s0
0 8.09017 -2.90939 -2.90939 0.80301 -0.33110 -0.49552 0.9773 0.9773
0 9.51057 -0.82779 -1.99846 0.80301 -0.33110 -0.49552 0.9935 0.9844
0 9.51057 -1.52956 -1.52956 0.80301 -0.33110 -0.49552 0.9881 0.9881
drop_s0
0 8.09017 -1.57455 -3.80130 0.80301 -0.11627 -0.58451 0.9877 0.9703
0 8.09017 -0.00000 -4.11450 0.80301 -0.11627 -0.58451 1.0000 0.9679
0 9.51057 -0.00000 -2.16312 0.80301 -0.11627 -0.58451 1.0000 0.9831
drop_s0
0 8.09017 -1.57455 -3.80130 0.80301 -0.11627 -0.58451 0.9877 0.9703
0 9.51057 -0.00000 -2.16312 0.80301 -0.11627 -0.58451 1.0000 0.9831
0 9.51057 -0.82779 -1.99846 0.80301 -0.11627 -0.58451 0.9935 0.9844
drop_s0
0 8.09017 -0.00000 -4.11450 0.80301 0.11627 -0.58451 1.0000 0.9679
0 8.09017 1.57455 -3.80130 0.80301 0.11627 -0.58451 0.0123 0.9703
0 9.51057 0.82779 -1.99846 0.80301 0.11627 -0.58451 0.0065 0.9844
drop_s0
0 8.09017 -0.00000 -4.11450 0.80301 0.11627 -0.58451 1.0000 0.9679
0 9.51057 0.82779 -1.99846 0.80301 0.11627 -0.58451 0.0065 0.9844
0 9.51057 -0.00000 -2.16312 0.80301 0.11627 -0.58451 1.0000 0.9831
drop_s0
0 8.09017 1.57455 -3.80130 0.80301 0.33110 -0.49552 0.0123 0.9703
0 8.09017 2.90939 -2.90939 0.80301 0.33110 -0.49552 0.0227 0.9773
0 9.51057 1.52956 -1.52956 0.80301 0.33110 -0.49552 0.0119 0.9881
drop_s0
0 8.09017 1.57455 -3.80130 0.80301 0.33110 -0.49552 0.0123 0.9703
0 9.51057 1.52956 -1.52956 0.80301 0.33110 -0.49552 0.0119 0.9881
0 9.51057 0.82779 -1.99846 0.80301 0.33110 -0.49552 0.0065 0.9844
drop_s0
0 8.09017 2.90939 -2.90939 0.80301 0.49552 -0.33110 0.0227 0.9773
0 8.09017 3.80130 -1.57455 0.80301 0.49552 -0.33110 0.0297 0.9877
0 9.51057 1.99846 -0.82779 0.80301 0.49552 -0.33110 0.0156 0.9935
drop_s0
0 8.09017 2.90939 -2.90939 0.80301 0.49552 -0.33110 0.0227 0.9773
0 9.51057 1.99846 -0.82779 0.80301 0.49552 -0.33110 0.0156 0.9935
0 9.51057 1.52956 -1.52956 0.80301 0.49552 -0.33110 0.0119 0.9881
drop_s0
0 8.09017 3.80130 -1.57455 0.80301 0.58451 -0.11627 0.0297 0.9877
0 8.09017 4.11450 -0.00000 0.80301 0.58451 -0.11627 0.0321 1.0000
0 9.51057 2.16312 -0.00000 0.80301 0.58451 -0.11627 0.0169 1.0000
drop_s0
0 8.09017 3.80130 -1.57455 0.80301 0.58451 -0.11627 0.0297 0.9877
0 9.51057 2.16312 -0.00000 0.80301 0.58451 -0.11627 0.0169 1.0000
0 9.51057 1.99846 -0.82779 0.80301 0.58451 -0.11627 0.0156 0.9935
drop_s0
0 9.51057 2.16312 0.00000 0.97441 0.22047 0.04385 0.0169 0.0000
0 9.51057 1.99846 0.82779 0.97441 0.22047 0.04385 0.0156 0.0065
0 10.00000 0.00000 0.00000 0.97441 0.22047 0.04385 0.0000 0.0000
drop_s0
0 9.51057 1.99846 0.82779 0.97441 0.18691 0.12489 0.0156 0.0065
0 9.51057 1.52956 1.52956 0.97441 0.18691 0.12489 0.0119 0.0119
0 10.00000 0.00000 0.00000 0.97441 0.18691 0.12489 0.0000 0.0000
drop_s0
0 9.51057 1.52956 1.52956 0.97441 0.12489 0.18691 0.0119 0.0119
0 9.51057 0.82779 1.99846 0.97441 0.12489 0.18691 0.0065 0.0156
0 10.00000 0.00000 0.00000 0.97441 0.12489 0.18691 0.0000 0.0000
drop_s0
0 9.51057 0.82779 1.99846 0.97441 0.04385 0.22047 0.0065 0.0156
0 9.51057 0.00000 2.16312 0.97441 0.04385 0.22047 0.0000 0.0169
0 10.00000 0.00000 0.00000 0.97441 0.04385 0.22047 0.0000 0.0000
drop_s0
0 9.51057 0.00000 2.16312 0.97441 -0.04385 0.22047 0.0000 0.0169
0 9.51057 -0.82779 1.99846 0.97441 -0.04385 0.22047 0.9935 0.0156
0 10.00000 -0.00000 0.00000 0.97441 -0.04385 0.22047 1.0000 0.0000
drop_s0
0 9.51057 -0.82779 1.99846 0.97441 -0.12489 0.18691 0.9935 0.0156
0 9.51057 -1.52956 1.52956 0.97441 -0.12489 0.18691 0.9881 0.0119
0 10.00000 -0.00000 0.00000 0.97441 -0.12489 0.18691 1.0000 0.0000
drop_s0
0 9.51057 -1.52956 1.52956 0.97441 -0.18691 0.12489 0.9881 0.0119
0 9.51057 -1.99846 0.82779 0.97441 -0.18691 0.12489 0.9844 0.0065
0 10.00000 -0.00000 0.00000 0.97441 -0.18691 0.12489 1.0000 0.0000
drop_s0
0 9.51057 -1.99846 0.82779 0.97441 -0.22047 0.04385 0.9844 0.0065
0 9.51057 -2.16312 0.00000 0.97441 -0.22047 0.04385 0.9831 0.0000
0 10.00000 -0.00000 0.00000 0.97441 -0.22047 0.04385 1.0000 0.0000
drop_s0
0 9.51057 -2.16312 0.00000 0.97441 -0.22047 -0.04385 0.9831 0.0000
0 9.51057 -1.99846 -0.82779 0.97441 -0.22047 -0.04385 0.9844 0.9935
0 10.00000 -0.00000 -0.00000 0.97441 -0.22047 -0.04385 1.0000 1.0000
drop_s0
0 9.51057 -1.99846 -0.82779 0.97441 -0.18691 -0.12489 0.9844 0.9935
0 9.51057 -1.52956 -1.52956 0.97441 -0.18691 -0.12489 0.9881 0.9881
0 10.00000 -0.00000 -0.00000 0.97441 -0.18691 -0.12489 1.0000 1.0000
drop_s0
0 9.51057 -1.52956 -1.52956 0.97441 -0.12489 -0.18691 0.9881 0.9881
0 9.51057 -0.82779 -1.99846 0.97441 -0.12489 -0.18691 0.9935 0.9844
0 10.00000 -0.00000 -0.00000 0.97441 -0.12489 -0.18691 1.0000 1.0000
drop_s0
0 9.51057 -0.82779 -1.99846 0.97441 -0.04385 -0.22047 0.9935 0.9844
0 9.51057 -0.00000 -2.16312 0.97441 -0.04385 -0.22047 1.0000 0.9831
0 10.00000 -0.00000 -0.00000 0.97441 -0.04385 -0.22047 1.0000 1.0000
drop_s0
0 9.51057 -0.00000 -2.16312 0.97441 0.04385 -0.22047 1.0000 0.9831
0 9.51057 0.82779 -1.99846 0.97441 0.04385 -0.22047 0.0065 0.9844
0 10.00000 0.00000 -0.00000 0.97441 0.04385 -0.22047 0.0000 1.0000
drop_s0
0 9.51057 0.82779 -1.99846 0.97441 0.12489 -0.18691 0.0065 0.9844
0 9.51057 1.52956 -1.52956 0.97441 0.12489 -0.18691 0.0119 0.9881
0 10.00000 0.00000 -0.00000 0.97441 0.12489 -0.18691 0.0000 1.0000
drop_s0
0 9.51057 1.52956 -1.52956 0.97441 0.18691 -0.12489 0.0119 0.9881
0 9.51057 1.99846 -0.82779 0.97441 0.18691 -0.12489 0.0156 0.9935
0 10.00000 0.00000 -0.00000 0.97441 0.18691 -0.12489 0.0000 1.0000
drop_s0
0 9.51057 1.99846 -0.82779 0.97441 0.22047 -0.04385 0.0156 0.9935
0 9.51057 2.16312 -0.00000 0.97441 0.22047 -0.04385 0.0169 1.0000
0 10.00000 0.00000 -0.00000 0.97441 0.22047 -0.04385 0.0000 1.0000
end
