version 1
nodes
0 "root" -1
end
skeleton
time 0
0 0 0 0 0 0 0
end
triangles
robot_dark
0 -34.00000 -26.00000 0.00000 -1.00000 0.00000 0.00000 0.7969 0.0000
0 -34.00000 26.00000 0.00000 -1.00000 0.00000 0.00000 0.2031 0.0000
0 -34.00000 26.00000 -22.00000 -1.00000 0.00000 0.00000 0.2031 0.8281
robot_dark
0 -34.00000 -26.00000 0.00000 -1.00000 0.00000 0.00000 0.7969 0.0000
0 -34.00000 26.00000 -22.00000 -1.00000 0.00000 0.00000 0.2031 0.8281
0 -34.00000 -26.00000 -22.00000 -1.00000 0.00000 0.00000 0.7969 0.8281
robot_dark
0 34.00000 -26.00000 -22.00000 1.00000 0.00000 0.00000 0.7969 0.8281
0 34.00000 26.00000 -22.00000 1.00000 0.00000 0.00000 0.2031 0.8281
0 34.00000 26.00000 0.00000 1.00000 0.00000 0.00000 0.2031 0.0000
robot_dark
0 34.00000 -26.00000 -22.00000 1.00000 0.00000 0.00000 0.7969 0.8281
0 34.00000 26.00000 0.00000 1.00000 0.00000 0.00000 0.2031 0.0000
0 34.00000 -26.00000 0.00000 1.00000 0.00000 0.00000 0.7969 0.0000
robot_dark
0 -34.00000 -26.00000 -22.00000 0.00000 -1.00000 0.00000 0.7969 0.8281
0 34.00000 -26.00000 -22.00000 0.00000 -1.00000 0.00000 0.7969 0.8281
0 34.00000 -26.00000 0.00000 0.00000 -1.00000 0.00000 0.7969 0.0000
robot_dark
0 -34.00000 -26.00000 -22.00000 0.00000 -1.00000 0.00000 0.7969 0.8281
0 34.00000 -26.00000 0.00000 0.00000 -1.00000 0.00000 0.7969 0.0000
0 -34.00000 -26.00000 0.00000 0.00000 -1.00000 0.00000 0.7969 0.0000
robot_dark
0 -34.00000 26.00000 0.00000 0.00000 1.00000 0.00000 0.2031 0.0000
0 34.00000 26.00000 0.00000 0.00000 1.00000 0.00000 0.2031 0.0000
0 34.00000 26.00000 -22.00000 0.00000 1.00000 0.00000 0.2031 0.8281
robot_dark
0 -34.00000 26.00000 0.00000 0.00000 1.00000 0.00000 0.2031 0.0000
0 34.00000 26.00000 -22.00000 0.00000 1.00000 0.00000 0.2031 0.8281
0 -34.00000 26.00000 -22.00000 0.00000 1.00000 0.00000 0.2031 0.8281
robot_dark
0 -34.00000 26.00000 -22.00000 0.00000 0.00000 -1.00000 0.2031 0.8281
0 34.00000 26.00000 -22.00000 0.00000 0.00000 -1.00000 0.2031 0.8281
0 34.00000 -26.00000 -22.00000 0.00000 0.00000 -1.00000 0.7969 0.8281
robot_dark
0 -34.00000 26.00000 -22.00000 0.00000 0.00000 -1.00000 0.2031 0.8281
0 34.00000 -26.00000 -22.00000 0.00000 0.00000 -1.00000 0.7969 0.8281
0 -34.00000 -26.00000 -22.00000 0.00000 0.00000 -1.00000 0.7969 0.8281
robot_dark
0 -34.00000 -26.00000 0.00000 0.00000 0.00000 1.00000 0.7969 0.0000
0 34.00000 -26.00000 0.00000 0.00000 0.00000 1.00000 0.7969 0.0000
0 34.00000 26.00000 0.00000 0.00000 0.00000 1.00000 0.2031 0.0000
robot_dark
0 -34.00000 -26.00000 0.00000 0.00000 0.00000 1.00000 0.7969 0.0000
0 34.00000 26.00000 0.00000 0.00000 0.00000 1.00000 0.2031 0.0000
0 -34.00000 26.00000 0.00000 0.00000 0.00000 1.00000 0.2031 0.0000
robot_o3
0 -25.00000 -25.00000 -20.00000 0.00000 0.00000 1.00000 0.8047 0.8438
0 25.00000 -25.00000 -20.00000 0.00000 0.00000 1.00000 0.8047 0.8438
0 25.00000 25.00000 -20.00000 0.00000 0.00000 1.00000 0.1953 0.8438
robot_o3
0 -25.00000 -25.00000 -20.00000 0.00000 0.00000 1.00000 0.8047 0.8438
0 25.00000 25.00000 -20.00000 0.00000 0.00000 1.00000 0.1953 0.8438
0 -25.00000 25.00000 -20.00000 0.00000 0.00000 1.00000 0.1953 0.8438
robot_o0
0 -25.00000 25.00000 -64.00000 0.00000 0.00000 -1.00000 0.1953 0.5000
0 25.00000 25.00000 -64.00000 0.00000 0.00000 -1.00000 0.1953 0.5000
0 25.00000 -25.00000 -64.00000 0.00000 0.00000 -1.00000 0.8047 0.5000
robot_o0
0 -25.00000 25.00000 -64.00000 0.00000 0.00000 -1.00000 0.1953 0.5000
0 25.00000 -25.00000 -64.00000 0.00000 0.00000 -1.00000 0.8047 0.5000
0 -25.00000 -25.00000 -64.00000 0.00000 0.00000 -1.00000 0.8047 0.5000
robot_o2
0 -25.00000 25.00000 -20.00000 -1.00000 0.00000 -0.00000 0.1953 0.8438
0 -25.00000 25.00000 -64.00000 -1.00000 0.00000 -0.00000 0.1953 0.5000
0 -25.00000 -25.00000 -64.00000 -1.00000 0.00000 -0.00000 0.8047 0.5000
robot_o2
0 -25.00000 25.00000 -20.00000 -1.00000 0.00000 -0.00000 0.1953 0.8438
0 -25.00000 -25.00000 -64.00000 -1.00000 0.00000 -0.00000 0.8047 0.5000
0 -25.00000 -25.00000 -20.00000 -1.00000 0.00000 -0.00000 0.8047 0.8438
robot_o1
0 25.00000 -25.00000 -20.00000 1.00000 0.00000 0.00000 0.8047 0.8438
0 25.00000 -25.00000 -64.00000 1.00000 0.00000 0.00000 0.8047 0.5000
0 25.00000 25.00000 -64.00000 1.00000 0.00000 0.00000 0.1953 0.5000
robot_o1
0 25.00000 -25.00000 -20.00000 1.00000 0.00000 0.00000 0.8047 0.8438
0 25.00000 25.00000 -64.00000 1.00000 0.00000 0.00000 0.1953 0.5000
0 25.00000 25.00000 -20.00000 1.00000 0.00000 0.00000 0.1953 0.8438
robot_o2
0 -25.00000 -25.00000 -20.00000 0.00000 -1.00000 0.00000 0.8047 0.8438
0 -25.00000 -25.00000 -64.00000 0.00000 -1.00000 0.00000 0.8047 0.5000
0 25.00000 -25.00000 -64.00000 0.00000 -1.00000 0.00000 0.8047 0.5000
robot_o2
0 -25.00000 -25.00000 -20.00000 0.00000 -1.00000 0.00000 0.8047 0.8438
0 25.00000 -25.00000 -64.00000 0.00000 -1.00000 0.00000 0.8047 0.5000
0 25.00000 -25.00000 -20.00000 0.00000 -1.00000 0.00000 0.8047 0.8438
robot_o1
0 25.00000 25.00000 -20.00000 0.00000 1.00000 0.00000 0.1953 0.8438
0 25.00000 25.00000 -64.00000 0.00000 1.00000 0.00000 0.1953 0.5000
0 -25.00000 25.00000 -64.00000 0.00000 1.00000 0.00000 0.1953 0.5000
robot_o1
0 25.00000 25.00000 -20.00000 0.00000 1.00000 0.00000 0.1953 0.8438
0 -25.00000 25.00000 -64.00000 0.00000 1.00000 0.00000 0.1953 0.5000
0 -25.00000 25.00000 -20.00000 0.00000 1.00000 0.00000 0.1953 0.8438
robot_o3
0 -10.74000 -13.00000 -70.47150 -0.69810 0.00000 0.71600 0.8984 0.4494
0 10.74000 -13.00000 -49.52850 -0.69810 0.00000 0.71600 0.8984 0.6131
0 10.74000 13.00000 -49.52850 -0.69810 0.00000 0.71600 0.1016 0.6131
robot_o3
0 -10.74000 -13.00000 -70.47150 -0.69810 0.00000 0.71600 0.8984 0.4494
0 10.74000 13.00000 -49.52850 -0.69810 0.00000 0.71600 0.1016 0.6131
0 -10.74000 13.00000 -70.47150 -0.69810 0.00000 0.71600 0.1016 0.4494
robot_o0
0 67.26000 13.00000 -150.47150 0.69810 0.00000 -0.71600 0.1016 0.8244
0 88.74000 13.00000 -129.52850 0.69810 0.00000 -0.71600 0.1016 0.9881
0 88.74000 -13.00000 -129.52850 0.69810 0.00000 -0.71600 0.8984 0.9881
robot_o0
0 67.26000 13.00000 -150.47150 0.69810 0.00000 -0.71600 0.1016 0.8244
0 88.74000 -13.00000 -129.52850 0.69810 0.00000 -0.71600 0.8984 0.9881
0 67.26000 -13.00000 -150.47150 0.69810 0.00000 -0.71600 0.8984 0.8244
robot_o1
0 -10.74000 13.00000 -70.47150 -0.71600 0.00000 -0.69810 0.1016 0.4494
0 67.26000 13.00000 -150.47150 -0.71600 0.00000 -0.69810 0.1016 0.8244
0 67.26000 -13.00000 -150.47150 -0.71600 0.00000 -0.69810 0.8984 0.8244
robot_o1
0 -10.74000 13.00000 -70.47150 -0.71600 0.00000 -0.69810 0.1016 0.4494
0 67.26000 -13.00000 -150.47150 -0.71600 0.00000 -0.69810 0.8984 0.8244
0 -10.74000 -13.00000 -70.47150 -0.71600 0.00000 -0.69810 0.8984 0.4494
robot_o2
0 10.74000 -13.00000 -49.52850 0.71600 0.00000 0.69810 0.8984 0.6131
0 88.74000 -13.00000 -129.52850 0.71600 0.00000 0.69810 0.8984 0.9881
0 88.74000 13.00000 -129.52850 0.71600 0.00000 0.69810 0.1016 0.9881
robot_o2
0 10.74000 -13.00000 -49.52850 0.71600 0.00000 0.69810 0.8984 0.6131
0 88.74000 13.00000 -129.52850 0.71600 0.00000 0.69810 0.1016 0.9881
0 10.74000 13.00000 -49.52850 0.71600 0.00000 0.69810 0.1016 0.6131
robot_o2
0 -10.74000 -13.00000 -70.47150 0.00000 -1.00000 0.00000 0.8984 0.4494
0 67.26000 -13.00000 -150.47150 0.00000 -1.00000 0.00000 0.8984 0.8244
0 88.74000 -13.00000 -129.52850 0.00000 -1.00000 0.00000 0.8984 0.9881
robot_o2
0 -10.74000 -13.00000 -70.47150 0.00000 -1.00000 0.00000 0.8984 0.4494
0 88.74000 -13.00000 -129.52850 0.00000 -1.00000 0.00000 0.8984 0.9881
0 10.74000 -13.00000 -49.52850 0.00000 -1.00000 0.00000 0.8984 0.6131
robot_o1
0 10.74000 13.00000 -49.52850 0.00000 1.00000 0.00000 0.1016 0.6131
0 88.74000 13.00000 -129.52850 0.00000 1.00000 0.00000 0.1016 0.9881
0 67.26000 13.00000 -150.47150 0.00000 1.00000 0.00000 0.1016 0.8244
robot_o1
0 10.74000 13.00000 -49.52850 0.00000 1.00000 0.00000 0.1016 0.6131
0 67.26000 13.00000 -150.47150 0.00000 1.00000 0.00000 0.1016 0.8244
0 -10.74000 13.00000 -70.47150 0.00000 1.00000 0.00000 0.1016 0.4494
robot_dark
0 56.54663 -18.00000 -143.95855 -0.66436 0.00000 0.74741 0.8594 0.8753
0 83.45337 -18.00000 -120.04145 -0.66436 0.00000 0.74741 0.8594 0.0622
0 83.45337 18.00000 -120.04145 -0.66436 0.00000 0.74741 0.1406 0.0622
robot_dark
0 56.54663 -18.00000 -143.95855 -0.66436 0.00000 0.74741 0.8594 0.8753
0 83.45337 18.00000 -120.04145 -0.66436 0.00000 0.74741 0.1406 0.0622
0 56.54663 18.00000 -143.95855 -0.66436 0.00000 0.74741 0.1406 0.8753
robot_dark
0 72.54663 18.00000 -161.95855 0.66436 0.00000 -0.74741 0.1406 0.7347
0 99.45337 18.00000 -138.04145 0.66436 0.00000 -0.74741 0.1406 0.9216
0 99.45337 -18.00000 -138.04145 0.66436 0.00000 -0.74741 0.8594 0.9216
robot_dark
0 72.54663 18.00000 -161.95855 0.66436 0.00000 -0.74741 0.1406 0.7347
0 99.45337 -18.00000 -138.04145 0.66436 0.00000 -0.74741 0.8594 0.9216
0 72.54663 -18.00000 -161.95855 0.66436 0.00000 -0.74741 0.8594 0.7347
robot_dark
0 56.54663 18.00000 -143.95855 -0.74741 0.00000 -0.66436 0.1406 0.8753
0 72.54663 18.00000 -161.95855 -0.74741 0.00000 -0.66436 0.1406 0.7347
0 72.54663 -18.00000 -161.95855 -0.74741 0.00000 -0.66436 0.8594 0.7347
robot_dark
0 56.54663 18.00000 -143.95855 -0.74741 0.00000 -0.66436 0.1406 0.8753
0 72.54663 -18.00000 -161.95855 -0.74741 0.00000 -0.66436 0.8594 0.7347
0 56.54663 -18.00000 -143.95855 -0.74741 0.00000 -0.66436 0.8594 0.8753
robot_dark
0 83.45337 -18.00000 -120.04145 0.74741 0.00000 0.66436 0.8594 0.0622
0 99.45337 -18.00000 -138.04145 0.74741 0.00000 0.66436 0.8594 0.9216
0 99.45337 18.00000 -138.04145 0.74741 0.00000 0.66436 0.1406 0.9216
robot_dark
0 83.45337 -18.00000 -120.04145 0.74741 0.00000 0.66436 0.8594 0.0622
0 99.45337 18.00000 -138.04145 0.74741 0.00000 0.66436 0.1406 0.9216
0 83.45337 18.00000 -120.04145 0.74741 0.00000 0.66436 0.1406 0.0622
robot_dark
0 56.54663 -18.00000 -143.95855 0.00000 -1.00000 0.00000 0.8594 0.8753
0 72.54663 -18.00000 -161.95855 0.00000 -1.00000 0.00000 0.8594 0.7347
0 99.45337 -18.00000 -138.04145 0.00000 -1.00000 0.00000 0.8594 0.9216
robot_dark
0 56.54663 -18.00000 -143.95855 0.00000 -1.00000 0.00000 0.8594 0.8753
0 99.45337 -18.00000 -138.04145 0.00000 -1.00000 0.00000 0.8594 0.9216
0 83.45337 -18.00000 -120.04145 0.00000 -1.00000 0.00000 0.8594 0.0622
robot_dark
0 83.45337 18.00000 -120.04145 0.00000 1.00000 0.00000 0.1406 0.0622
0 99.45337 18.00000 -138.04145 0.00000 1.00000 0.00000 0.1406 0.9216
0 72.54663 18.00000 -161.95855 0.00000 1.00000 0.00000 0.1406 0.7347
robot_dark
0 83.45337 18.00000 -120.04145 0.00000 1.00000 0.00000 0.1406 0.0622
0 72.54663 18.00000 -161.95855 0.00000 1.00000 0.00000 0.1406 0.7347
0 56.54663 18.00000 -143.95855 0.00000 1.00000 0.00000 0.1406 0.8753
robot_o2
0 67.97795 -11.00000 -133.40011 0.54999 0.00000 0.83517 0.9141 0.9578
0 88.02205 -11.00000 -146.59989 0.54999 0.00000 0.83517 0.9141 0.8547
0 88.02205 11.00000 -146.59989 0.54999 0.00000 0.83517 0.0859 0.8547
robot_o2
0 67.97795 -11.00000 -133.40011 0.54999 0.00000 0.83517 0.9141 0.9578
0 88.02205 11.00000 -146.59989 0.54999 0.00000 0.83517 0.0859 0.8547
0 67.97795 11.00000 -133.40011 0.54999 0.00000 0.83517 0.0859 0.9578
robot_o1
0 13.97795 11.00000 -215.40011 -0.54999 0.00000 -0.83517 0.0859 0.3172
0 34.02205 11.00000 -228.59989 -0.54999 0.00000 -0.83517 0.0859 0.2141
0 34.02205 -11.00000 -228.59989 -0.54999 0.00000 -0.83517 0.9141 0.2141
robot_o1
0 13.97795 11.00000 -215.40011 -0.54999 0.00000 -0.83517 0.0859 0.3172
0 34.02205 -11.00000 -228.59989 -0.54999 0.00000 -0.83517 0.9141 0.2141
0 13.97795 -11.00000 -215.40011 -0.54999 0.00000 -0.83517 0.9141 0.3172
robot_o3
0 67.97795 11.00000 -133.40011 -0.83517 0.00000 0.54999 0.0859 0.9578
0 13.97795 11.00000 -215.40011 -0.83517 0.00000 0.54999 0.0859 0.3172
0 13.97795 -11.00000 -215.40011 -0.83517 0.00000 0.54999 0.9141 0.3172
robot_o3
0 67.97795 11.00000 -133.40011 -0.83517 0.00000 0.54999 0.0859 0.9578
0 13.97795 -11.00000 -215.40011 -0.83517 0.00000 0.54999 0.9141 0.3172
0 67.97795 -11.00000 -133.40011 -0.83517 0.00000 0.54999 0.9141 0.9578
robot_o0
0 88.02205 -11.00000 -146.59989 0.83517 0.00000 -0.54999 0.9141 0.8547
0 34.02205 -11.00000 -228.59989 0.83517 0.00000 -0.54999 0.9141 0.2141
0 34.02205 11.00000 -228.59989 0.83517 0.00000 -0.54999 0.0859 0.2141
robot_o0
0 88.02205 -11.00000 -146.59989 0.83517 0.00000 -0.54999 0.9141 0.8547
0 34.02205 11.00000 -228.59989 0.83517 0.00000 -0.54999 0.0859 0.2141
0 88.02205 11.00000 -146.59989 0.83517 0.00000 -0.54999 0.0859 0.8547
robot_o2
0 67.97795 -11.00000 -133.40011 0.00000 -1.00000 0.00000 0.9141 0.9578
0 13.97795 -11.00000 -215.40011 0.00000 -1.00000 0.00000 0.9141 0.3172
0 34.02205 -11.00000 -228.59989 0.00000 -1.00000 0.00000 0.9141 0.2141
robot_o2
0 67.97795 -11.00000 -133.40011 0.00000 -1.00000 0.00000 0.9141 0.9578
0 34.02205 -11.00000 -228.59989 0.00000 -1.00000 0.00000 0.9141 0.2141
0 88.02205 -11.00000 -146.59989 0.00000 -1.00000 0.00000 0.9141 0.8547
robot_o1
0 88.02205 11.00000 -146.59989 0.00000 1.00000 0.00000 0.0859 0.8547
0 34.02205 11.00000 -228.59989 0.00000 1.00000 0.00000 0.0859 0.2141
0 13.97795 11.00000 -215.40011 0.00000 1.00000 0.00000 0.0859 0.3172
robot_o1
0 88.02205 11.00000 -146.59989 0.00000 1.00000 0.00000 0.0859 0.8547
0 13.97795 11.00000 -215.40011 0.00000 1.00000 0.00000 0.0859 0.3172
0 67.97795 11.00000 -133.40011 0.00000 1.00000 0.00000 0.0859 0.9578
robot_grey
0 14.22198 -10.00000 -215.90471 0.20953 0.00000 0.97780 0.9219 0.3132
0 33.77802 -10.00000 -220.09529 0.20953 0.00000 0.97780 0.9219 0.2805
0 33.77802 10.00000 -220.09529 0.20953 0.00000 0.97780 0.0781 0.2805
robot_grey
0 14.22198 -10.00000 -215.90471 0.20953 0.00000 0.97780 0.9219 0.3132
0 33.77802 10.00000 -220.09529 0.20953 0.00000 0.97780 0.0781 0.2805
0 14.22198 10.00000 -215.90471 0.20953 0.00000 0.97780 0.0781 0.3132
robot_grey
0 8.22198 10.00000 -243.90471 -0.20953 0.00000 -0.97780 0.0781 0.0945
0 27.77802 10.00000 -248.09529 -0.20953 0.00000 -0.97780 0.0781 0.0618
0 27.77802 -10.00000 -248.09529 -0.20953 0.00000 -0.97780 0.9219 0.0618
robot_grey
0 8.22198 10.00000 -243.90471 -0.20953 0.00000 -0.97780 0.0781 0.0945
0 27.77802 -10.00000 -248.09529 -0.20953 0.00000 -0.97780 0.9219 0.0618
0 8.22198 -10.00000 -243.90471 -0.20953 0.00000 -0.97780 0.9219 0.0945
robot_grey
0 14.22198 10.00000 -215.90471 -0.97780 0.00000 0.20953 0.0781 0.3132
0 8.22198 10.00000 -243.90471 -0.97780 0.00000 0.20953 0.0781 0.0945
0 8.22198 -10.00000 -243.90471 -0.97780 0.00000 0.20953 0.9219 0.0945
robot_grey
0 14.22198 10.00000 -215.90471 -0.97780 0.00000 0.20953 0.0781 0.3132
0 8.22198 -10.00000 -243.90471 -0.97780 0.00000 0.20953 0.9219 0.0945
0 14.22198 -10.00000 -215.90471 -0.97780 0.00000 0.20953 0.9219 0.3132
robot_grey
0 33.77802 -10.00000 -220.09529 0.97780 0.00000 -0.20953 0.9219 0.2805
0 27.77802 -10.00000 -248.09529 0.97780 0.00000 -0.20953 0.9219 0.0618
0 27.77802 10.00000 -248.09529 0.97780 0.00000 -0.20953 0.0781 0.0618
robot_grey
0 33.77802 -10.00000 -220.09529 0.97780 0.00000 -0.20953 0.9219 0.2805
0 27.77802 10.00000 -248.09529 0.97780 0.00000 -0.20953 0.0781 0.0618
0 33.77802 10.00000 -220.09529 0.97780 0.00000 -0.20953 0.0781 0.2805
robot_grey
0 14.22198 -10.00000 -215.90471 0.00000 -1.00000 -0.00000 0.9219 0.3132
0 8.22198 -10.00000 -243.90471 0.00000 -1.00000 -0.00000 0.9219 0.0945
0 27.77802 -10.00000 -248.09529 0.00000 -1.00000 -0.00000 0.9219 0.0618
robot_grey
0 14.22198 -10.00000 -215.90471 0.00000 -1.00000 -0.00000 0.9219 0.3132
0 27.77802 -10.00000 -248.09529 0.00000 -1.00000 -0.00000 0.9219 0.0618
0 33.77802 -10.00000 -220.09529 0.00000 -1.00000 -0.00000 0.9219 0.2805
robot_grey
0 33.77802 10.00000 -220.09529 0.00000 1.00000 0.00000 0.0781 0.2805
0 27.77802 10.00000 -248.09529 0.00000 1.00000 0.00000 0.0781 0.0618
0 8.22198 10.00000 -243.90471 0.00000 1.00000 0.00000 0.0781 0.0945
robot_grey
0 33.77802 10.00000 -220.09529 0.00000 1.00000 0.00000 0.0781 0.2805
0 8.22198 10.00000 -243.90471 0.00000 1.00000 0.00000 0.0781 0.0945
0 14.22198 10.00000 -215.90471 0.00000 1.00000 0.00000 0.0781 0.3132
robot_grey
0 9.20107 -11.94868 -242.78704 0.22101 0.18418 0.95772 0.9067 0.1032
0 15.04742 -11.94868 -244.13620 0.22101 0.18418 0.95772 0.9067 0.0927
0 14.79893 -6.05132 -245.21296 0.22101 0.18418 0.95772 0.9527 0.0843
robot_grey
0 9.20107 -11.94868 -242.78704 0.22101 0.18418 0.95772 0.9067 0.1032
0 14.79893 -6.05132 -245.21296 0.22101 0.18418 0.95772 0.9527 0.0843
0 8.95258 -6.05132 -243.86380 0.22101 0.18418 0.95772 0.9527 0.0948
robot_grey
0 2.95258 -11.05132 -269.86380 -0.22101 -0.18418 -0.95772 0.9137 0.8917
0 8.79893 -11.05132 -271.21296 -0.22101 -0.18418 -0.95772 0.9137 0.8811
0 9.04742 -16.94868 -270.13620 -0.22101 -0.18418 -0.95772 0.8676 0.8896
robot_grey
0 2.95258 -11.05132 -269.86380 -0.22101 -0.18418 -0.95772 0.9137 0.8917
0 9.04742 -16.94868 -270.13620 -0.22101 -0.18418 -0.95772 0.8676 0.8896
0 3.20107 -16.94868 -268.78704 -0.22101 -0.18418 -0.95772 0.8676 0.9001
robot_grey
0 8.95258 -6.05132 -243.86380 -0.97439 -0.00000 0.22486 0.9527 0.0948
0 2.95258 -11.05132 -269.86380 -0.97439 -0.00000 0.22486 0.9137 0.8917
0 3.20107 -16.94868 -268.78704 -0.97439 -0.00000 0.22486 0.8676 0.9001
robot_grey
0 8.95258 -6.05132 -243.86380 -0.97439 -0.00000 0.22486 0.9527 0.0948
0 3.20107 -16.94868 -268.78704 -0.97439 -0.00000 0.22486 0.8676 0.9001
0 9.20107 -11.94868 -242.78704 -0.97439 -0.00000 0.22486 0.9067 0.1032
robot_grey
0 15.04742 -11.94868 -244.13620 0.97439 0.00000 -0.22486 0.9067 0.0927
0 9.04742 -16.94868 -270.13620 0.97439 0.00000 -0.22486 0.8676 0.8896
0 8.79893 -11.05132 -271.21296 0.97439 0.00000 -0.22486 0.9137 0.8811
robot_grey
0 15.04742 -11.94868 -244.13620 0.97439 0.00000 -0.22486 0.9067 0.0927
0 8.79893 -11.05132 -271.21296 0.97439 0.00000 -0.22486 0.9137 0.8811
0 14.79893 -6.05132 -245.21296 0.97439 0.00000 -0.22486 0.9527 0.0843
robot_grey
0 9.20107 -11.94868 -242.78704 0.04141 -0.98289 0.17946 0.9067 0.1032
0 3.20107 -16.94868 -268.78704 0.04141 -0.98289 0.17946 0.8676 0.9001
0 9.04742 -16.94868 -270.13620 0.04141 -0.98289 0.17946 0.8676 0.8896
robot_grey
0 9.20107 -11.94868 -242.78704 0.04141 -0.98289 0.17946 0.9067 0.1032
0 9.04742 -16.94868 -270.13620 0.04141 -0.98289 0.17946 0.8676 0.8896
0 15.04742 -11.94868 -244.13620 0.04141 -0.98289 0.17946 0.9067 0.0927
robot_grey
0 14.79893 -6.05132 -245.21296 -0.04141 0.98289 -0.17946 0.9527 0.0843
0 8.79893 -11.05132 -271.21296 -0.04141 0.98289 -0.17946 0.9137 0.8811
0 2.95258 -11.05132 -269.86380 -0.04141 0.98289 -0.17946 0.9137 0.8917
robot_grey
0 14.79893 -6.05132 -245.21296 -0.04141 0.98289 -0.17946 0.9527 0.0843
0 2.95258 -11.05132 -269.86380 -0.04141 0.98289 -0.17946 0.9137 0.8917
0 8.95258 -6.05132 -243.86380 -0.04141 0.98289 -0.17946 0.9527 0.0948
robot_grey
0 8.95258 6.05132 -243.86380 0.22101 -0.18418 0.95772 0.0473 0.0948
0 14.79893 6.05132 -245.21296 0.22101 -0.18418 0.95772 0.0473 0.0843
0 15.04742 11.94868 -244.13620 0.22101 -0.18418 0.95772 0.0933 0.0927
robot_grey
0 8.95258 6.05132 -243.86380 0.22101 -0.18418 0.95772 0.0473 0.0948
0 15.04742 11.94868 -244.13620 0.22101 -0.18418 0.95772 0.0933 0.0927
0 9.20107 11.94868 -242.78704 0.22101 -0.18418 0.95772 0.0933 0.1032
robot_grey
0 3.20107 16.94868 -268.78704 -0.22101 0.18418 -0.95772 0.1324 0.9001
0 9.04742 16.94868 -270.13620 -0.22101 0.18418 -0.95772 0.1324 0.8896
0 8.79893 11.05132 -271.21296 -0.22101 0.18418 -0.95772 0.0863 0.8811
robot_grey
0 3.20107 16.94868 -268.78704 -0.22101 0.18418 -0.95772 0.1324 0.9001
0 8.79893 11.05132 -271.21296 -0.22101 0.18418 -0.95772 0.0863 0.8811
0 2.95258 11.05132 -269.86380 -0.22101 0.18418 -0.95772 0.0863 0.8917
robot_grey
0 9.20107 11.94868 -242.78704 -0.97439 0.00000 0.22486 0.0933 0.1032
0 3.20107 16.94868 -268.78704 -0.97439 0.00000 0.22486 0.1324 0.9001
0 2.95258 11.05132 -269.86380 -0.97439 0.00000 0.22486 0.0863 0.8917
robot_grey
0 9.20107 11.94868 -242.78704 -0.97439 0.00000 0.22486 0.0933 0.1032
0 2.95258 11.05132 -269.86380 -0.97439 0.00000 0.22486 0.0863 0.8917
0 8.95258 6.05132 -243.86380 -0.97439 0.00000 0.22486 0.0473 0.0948
robot_grey
0 14.79893 6.05132 -245.21296 0.97439 -0.00000 -0.22486 0.0473 0.0843
0 8.79893 11.05132 -271.21296 0.97439 -0.00000 -0.22486 0.0863 0.8811
0 9.04742 16.94868 -270.13620 0.97439 -0.00000 -0.22486 0.1324 0.8896
robot_grey
0 14.79893 6.05132 -245.21296 0.97439 -0.00000 -0.22486 0.0473 0.0843
0 9.04742 16.94868 -270.13620 0.97439 -0.00000 -0.22486 0.1324 0.8896
0 15.04742 11.94868 -244.13620 0.97439 -0.00000 -0.22486 0.0933 0.0927
robot_grey
0 8.95258 6.05132 -243.86380 -0.04141 -0.98289 -0.17946 0.0473 0.0948
0 2.95258 11.05132 -269.86380 -0.04141 -0.98289 -0.17946 0.0863 0.8917
0 8.79893 11.05132 -271.21296 -0.04141 -0.98289 -0.17946 0.0863 0.8811
robot_grey
0 8.95258 6.05132 -243.86380 -0.04141 -0.98289 -0.17946 0.0473 0.0948
0 8.79893 11.05132 -271.21296 -0.04141 -0.98289 -0.17946 0.0863 0.8811
0 14.79893 6.05132 -245.21296 -0.04141 -0.98289 -0.17946 0.0473 0.0843
robot_grey
0 15.04742 11.94868 -244.13620 0.04141 0.98289 0.17946 0.0933 0.0927
0 9.04742 16.94868 -270.13620 0.04141 0.98289 0.17946 0.1324 0.8896
0 3.20107 16.94868 -268.78704 0.04141 0.98289 0.17946 0.1324 0.9001
robot_grey
0 15.04742 11.94868 -244.13620 0.04141 0.98289 0.17946 0.0933 0.0927
0 3.20107 16.94868 -268.78704 0.04141 0.98289 0.17946 0.1324 0.9001
0 9.20107 11.94868 -242.78704 0.04141 0.98289 0.17946 0.0933 0.1032
end
