version 1
nodes
0 "root" -1
end
skeleton
time 0
0 0 0 0 0 0 0
end
triangles
p9_entry_c3
0 -14.00000 66.69340 13.26614 -1.00000 -0.00000 0.00000 0.5210 0.1036
0 -14.00000 53.94319 10.72997 -1.00000 -0.00000 0.00000 0.4214 0.0838
0 -14.00000 45.73083 30.55636 -1.00000 -0.00000 0.00000 0.3573 0.2387
p9_entry_c3
0 -14.00000 66.69340 13.26614 -1.00000 -0.00000 0.00000 0.5210 0.1036
0 -14.00000 45.73083 30.55636 -1.00000 -0.00000 0.00000 0.3573 0.2387
0 -14.00000 56.53993 37.77878 -1.00000 -0.00000 0.00000 0.4417 0.2951
p9_entry_c3
0 -14.00000 53.94319 10.72997 -0.94681 -0.29729 -0.12314 0.4214 0.0838
0 -12.00000 48.05848 9.55943 -0.94681 -0.29729 -0.12314 0.3755 0.0747
0 -12.00000 40.74201 27.22294 -0.94681 -0.29729 -0.12314 0.3183 0.2127
p9_entry_c3
0 -14.00000 53.94319 10.72997 -0.94681 -0.29729 -0.12314 0.4214 0.0838
0 -12.00000 40.74201 27.22294 -0.94681 -0.29729 -0.12314 0.3183 0.2127
0 -14.00000 45.73083 30.55636 -0.94681 -0.29729 -0.12314 0.3573 0.2387
p9_entry_clip
0 -12.00000 48.05848 9.55943 -0.63284 -0.71534 -0.29631 0.3755 0.0747
0 -9.00000 45.60652 9.07170 -0.63284 -0.71534 -0.29631 0.3563 0.0709
0 -9.00000 38.66334 25.83402 -0.63284 -0.71534 -0.29631 0.3021 0.2018
p9_entry_clip
0 -12.00000 48.05848 9.55943 -0.63284 -0.71534 -0.29631 0.3755 0.0747
0 -9.00000 38.66334 25.83402 -0.63284 -0.71534 -0.29631 0.3021 0.2018
0 -12.00000 40.74201 27.22294 -0.63284 -0.71534 -0.29631 0.3183 0.2127
p9_entry_ch3
0 -9.00000 45.60652 9.07170 -0.31074 -0.87814 -0.36374 0.3563 0.0709
0 -6.00000 44.62573 8.87661 -0.31074 -0.87814 -0.36374 0.3486 0.0693
0 -6.00000 37.83187 25.27845 -0.31074 -0.87814 -0.36374 0.2956 0.1975
p9_entry_ch3
0 -9.00000 45.60652 9.07170 -0.31074 -0.87814 -0.36374 0.3563 0.0709
0 -6.00000 37.83187 25.27845 -0.31074 -0.87814 -0.36374 0.2956 0.1975
0 -9.00000 38.66334 25.83402 -0.31074 -0.87814 -0.36374 0.3021 0.2018
p9_entry_ch3
0 -6.00000 44.62573 8.87661 -0.44030 -0.82951 -0.34359 0.3486 0.0693
0 -3.00000 43.15455 8.58397 -0.44030 -0.82951 -0.34359 0.3371 0.0671
0 -3.00000 36.58466 24.44509 -0.44030 -0.82951 -0.34359 0.2858 0.1910
p9_entry_ch3
0 -6.00000 44.62573 8.87661 -0.44030 -0.82951 -0.34359 0.3486 0.0693
0 -3.00000 36.58466 24.44509 -0.44030 -0.82951 -0.34359 0.2858 0.1910
0 -6.00000 37.83187 25.27845 -0.44030 -0.82951 -0.34359 0.2956 0.1975
p9_entry_clip
0 -3.00000 43.15455 8.58397 0.00000 -0.92388 -0.38268 0.3371 0.0671
0 3.00000 43.15455 8.58397 0.00000 -0.92388 -0.38268 0.3371 0.0671
0 3.00000 36.58466 24.44509 0.00000 -0.92388 -0.38268 0.2858 0.1910
p9_entry_clip
0 -3.00000 43.15455 8.58397 0.00000 -0.92388 -0.38268 0.3371 0.0671
0 3.00000 36.58466 24.44509 0.00000 -0.92388 -0.38268 0.2858 0.1910
0 -3.00000 36.58466 24.44509 0.00000 -0.92388 -0.38268 0.2858 0.1910
p9_entry_ch3
0 3.00000 43.15455 8.58397 0.44030 -0.82951 -0.34359 0.3371 0.0671
0 6.00000 44.62573 8.87661 0.44030 -0.82951 -0.34359 0.3486 0.0693
0 6.00000 37.83187 25.27845 0.44030 -0.82951 -0.34359 0.2956 0.1975
p9_entry_ch3
0 3.00000 43.15455 8.58397 0.44030 -0.82951 -0.34359 0.3371 0.0671
0 6.00000 37.83187 25.27845 0.44030 -0.82951 -0.34359 0.2956 0.1975
0 3.00000 36.58466 24.44509 0.44030 -0.82951 -0.34359 0.2858 0.1910
p9_entry_ch3
0 6.00000 44.62573 8.87661 0.31074 -0.87814 -0.36374 0.3486 0.0693
0 9.00000 45.60652 9.07170 0.31074 -0.87814 -0.36374 0.3563 0.0709
0 9.00000 38.66334 25.83402 0.31074 -0.87814 -0.36374 0.3021 0.2018
p9_entry_ch3
0 6.00000 44.62573 8.87661 0.31074 -0.87814 -0.36374 0.3486 0.0693
0 9.00000 38.66334 25.83402 0.31074 -0.87814 -0.36374 0.3021 0.2018
0 6.00000 37.83187 25.27845 0.31074 -0.87814 -0.36374 0.2956 0.1975
p9_entry_clip
0 9.00000 45.60652 9.07170 0.63284 -0.71534 -0.29631 0.3563 0.0709
0 12.00000 48.05848 9.55943 0.63284 -0.71534 -0.29631 0.3755 0.0747
0 12.00000 40.74201 27.22294 0.63284 -0.71534 -0.29631 0.3183 0.2127
p9_entry_clip
0 9.00000 45.60652 9.07170 0.63284 -0.71534 -0.29631 0.3563 0.0709
0 12.00000 40.74201 27.22294 0.63284 -0.71534 -0.29631 0.3183 0.2127
0 9.00000 38.66334 25.83402 0.63284 -0.71534 -0.29631 0.3021 0.2018
p9_entry_c3
0 12.00000 48.05848 9.55943 0.94681 -0.29729 -0.12314 0.3755 0.0747
0 14.00000 53.94319 10.72997 0.94681 -0.29729 -0.12314 0.4214 0.0838
0 14.00000 45.73083 30.55636 0.94681 -0.29729 -0.12314 0.3573 0.2387
p9_entry_c3
0 12.00000 48.05848 9.55943 0.94681 -0.29729 -0.12314 0.3755 0.0747
0 14.00000 45.73083 30.55636 0.94681 -0.29729 -0.12314 0.3573 0.2387
0 12.00000 40.74201 27.22294 0.94681 -0.29729 -0.12314 0.3183 0.2127
p9_entry_c3
0 14.00000 53.94319 10.72997 1.00000 0.00000 0.00000 0.4214 0.0838
0 14.00000 66.69340 13.26614 1.00000 0.00000 0.00000 0.5210 0.1036
0 14.00000 56.53993 37.77878 1.00000 0.00000 0.00000 0.4417 0.2951
p9_entry_c3
0 14.00000 53.94319 10.72997 1.00000 0.00000 0.00000 0.4214 0.0838
0 14.00000 56.53993 37.77878 1.00000 0.00000 0.00000 0.4417 0.2951
0 14.00000 45.73083 30.55636 1.00000 0.00000 0.00000 0.3573 0.2387
p9_entry_c3
0 14.00000 66.69340 13.26614 0.00000 0.92388 0.38268 0.5210 0.1036
0 -14.00000 66.69340 13.26614 0.00000 0.92388 0.38268 0.5210 0.1036
0 -14.00000 56.53993 37.77878 0.00000 0.92388 0.38268 0.4417 0.2951
p9_entry_c3
0 14.00000 66.69340 13.26614 0.00000 0.92388 0.38268 0.5210 0.1036
0 -14.00000 56.53993 37.77878 0.00000 0.92388 0.38268 0.4417 0.2951
0 14.00000 56.53993 37.77878 0.00000 0.92388 0.38268 0.4417 0.2951
p9_entry_c3
0 -14.00000 56.53993 37.77878 -1.00000 -0.00000 0.00000 0.4417 0.2951
0 -14.00000 45.73083 30.55636 -1.00000 -0.00000 0.00000 0.3573 0.2387
0 -14.00000 30.55636 45.73083 -1.00000 -0.00000 0.00000 0.2387 0.3573
p9_entry_c3
0 -14.00000 56.53993 37.77878 -1.00000 -0.00000 0.00000 0.4417 0.2951
0 -14.00000 30.55636 45.73083 -1.00000 -0.00000 0.00000 0.2387 0.3573
0 -14.00000 37.77878 56.53993 -1.00000 -0.00000 0.00000 0.2951 0.4417
p9_entry_c3
0 -14.00000 45.73083 30.55636 -0.94681 -0.22754 -0.22754 0.3573 0.2387
0 -12.00000 40.74201 27.22294 -0.94681 -0.22754 -0.22754 0.3183 0.2127
0 -12.00000 27.22294 40.74201 -0.94681 -0.22754 -0.22754 0.2127 0.3183
p9_entry_c3
0 -14.00000 45.73083 30.55636 -0.94681 -0.22754 -0.22754 0.3573 0.2387
0 -12.00000 27.22294 40.74201 -0.94681 -0.22754 -0.22754 0.2127 0.3183
0 -14.00000 30.55636 45.73083 -0.94681 -0.22754 -0.22754 0.2387 0.3573
p9_entry_clip
0 -12.00000 40.74201 27.22294 -0.63284 -0.54750 -0.54750 0.3183 0.2127
0 -9.00000 38.66334 25.83402 -0.63284 -0.54750 -0.54750 0.3021 0.2018
0 -9.00000 25.83402 38.66334 -0.63284 -0.54750 -0.54750 0.2018 0.3021
p9_entry_clip
0 -12.00000 40.74201 27.22294 -0.63284 -0.54750 -0.54750 0.3183 0.2127
0 -9.00000 25.83402 38.66334 -0.63284 -0.54750 -0.54750 0.2018 0.3021
0 -12.00000 27.22294 40.74201 -0.63284 -0.54750 -0.54750 0.2127 0.3183
p9_entry_ch3
0 -9.00000 38.66334 25.83402 -0.31074 -0.67210 -0.67210 0.3021 0.2018
0 -6.00000 37.83187 25.27845 -0.31074 -0.67210 -0.67210 0.2956 0.1975
0 -6.00000 25.27845 37.83187 -0.31074 -0.67210 -0.67210 0.1975 0.2956
p9_entry_ch3
0 -9.00000 38.66334 25.83402 -0.31074 -0.67210 -0.67210 0.3021 0.2018
0 -6.00000 25.27845 37.83187 -0.31074 -0.67210 -0.67210 0.1975 0.2956
0 -9.00000 25.83402 38.66334 -0.31074 -0.67210 -0.67210 0.2018 0.3021
p9_entry_ch3
0 -6.00000 37.83187 25.27845 -0.44030 -0.63488 -0.63488 0.2956 0.1975
0 -3.00000 36.58466 24.44509 -0.44030 -0.63488 -0.63488 0.2858 0.1910
0 -3.00000 24.44509 36.58466 -0.44030 -0.63488 -0.63488 0.1910 0.2858
p9_entry_ch3
0 -6.00000 37.83187 25.27845 -0.44030 -0.63488 -0.63488 0.2956 0.1975
0 -3.00000 24.44509 36.58466 -0.44030 -0.63488 -0.63488 0.1910 0.2858
0 -6.00000 25.27845 37.83187 -0.44030 -0.63488 -0.63488 0.1975 0.2956
p9_entry_clip
0 -3.00000 36.58466 24.44509 0.00000 -0.70711 -0.70711 0.2858 0.1910
0 3.00000 36.58466 24.44509 0.00000 -0.70711 -0.70711 0.2858 0.1910
0 3.00000 24.44509 36.58466 0.00000 -0.70711 -0.70711 0.1910 0.2858
p9_entry_clip
0 -3.00000 36.58466 24.44509 0.00000 -0.70711 -0.70711 0.2858 0.1910
0 3.00000 24.44509 36.58466 0.00000 -0.70711 -0.70711 0.1910 0.2858
0 -3.00000 24.44509 36.58466 0.00000 -0.70711 -0.70711 0.1910 0.2858
p9_entry_ch3
0 3.00000 36.58466 24.44509 0.44030 -0.63488 -0.63488 0.2858 0.1910
0 6.00000 37.83187 25.27845 0.44030 -0.63488 -0.63488 0.2956 0.1975
0 6.00000 25.27845 37.83187 0.44030 -0.63488 -0.63488 0.1975 0.2956
p9_entry_ch3
0 3.00000 36.58466 24.44509 0.44030 -0.63488 -0.63488 0.2858 0.1910
0 6.00000 25.27845 37.83187 0.44030 -0.63488 -0.63488 0.1975 0.2956
0 3.00000 24.44509 36.58466 0.44030 -0.63488 -0.63488 0.1910 0.2858
p9_entry_ch3
0 6.00000 37.83187 25.27845 0.31074 -0.67210 -0.67210 0.2956 0.1975
0 9.00000 38.66334 25.83402 0.31074 -0.67210 -0.67210 0.3021 0.2018
0 9.00000 25.83402 38.66334 0.31074 -0.67210 -0.67210 0.2018 0.3021
p9_entry_ch3
0 6.00000 37.83187 25.27845 0.31074 -0.67210 -0.67210 0.2956 0.1975
0 9.00000 25.83402 38.66334 0.31074 -0.67210 -0.67210 0.2018 0.3021
0 6.00000 25.27845 37.83187 0.31074 -0.67210 -0.67210 0.1975 0.2956
p9_entry_clip
0 9.00000 38.66334 25.83402 0.63284 -0.54750 -0.54750 0.3021 0.2018
0 12.00000 40.74201 27.22294 0.63284 -0.54750 -0.54750 0.3183 0.2127
0 12.00000 27.22294 40.74201 0.63284 -0.54750 -0.54750 0.2127 0.3183
p9_entry_clip
0 9.00000 38.66334 25.83402 0.63284 -0.54750 -0.54750 0.3021 0.2018
0 12.00000 27.22294 40.74201 0.63284 -0.54750 -0.54750 0.2127 0.3183
0 9.00000 25.83402 38.66334 0.63284 -0.54750 -0.54750 0.2018 0.3021
p9_entry_c3
0 12.00000 40.74201 27.22294 0.94681 -0.22754 -0.22754 0.3183 0.2127
0 14.00000 45.73083 30.55636 0.94681 -0.22754 -0.22754 0.3573 0.2387
0 14.00000 30.55636 45.73083 0.94681 -0.22754 -0.22754 0.2387 0.3573
p9_entry_c3
0 12.00000 40.74201 27.22294 0.94681 -0.22754 -0.22754 0.3183 0.2127
0 14.00000 30.55636 45.73083 0.94681 -0.22754 -0.22754 0.2387 0.3573
0 12.00000 27.22294 40.74201 0.94681 -0.22754 -0.22754 0.2127 0.3183
p9_entry_c3
0 14.00000 45.73083 30.55636 1.00000 0.00000 -0.00000 0.3573 0.2387
0 14.00000 56.53993 37.77878 1.00000 0.00000 -0.00000 0.4417 0.2951
0 14.00000 37.77878 56.53993 1.00000 0.00000 -0.00000 0.2951 0.4417
p9_entry_c3
0 14.00000 45.73083 30.55636 1.00000 0.00000 -0.00000 0.3573 0.2387
0 14.00000 37.77878 56.53993 1.00000 0.00000 -0.00000 0.2951 0.4417
0 14.00000 30.55636 45.73083 1.00000 0.00000 -0.00000 0.2387 0.3573
p9_entry_c3
0 14.00000 56.53993 37.77878 0.00000 0.70711 0.70711 0.4417 0.2951
0 -14.00000 56.53993 37.77878 0.00000 0.70711 0.70711 0.4417 0.2951
0 -14.00000 37.77878 56.53993 0.00000 0.70711 0.70711 0.2951 0.4417
p9_entry_c3
0 14.00000 56.53993 37.77878 0.00000 0.70711 0.70711 0.4417 0.2951
0 -14.00000 37.77878 56.53993 0.00000 0.70711 0.70711 0.2951 0.4417
0 14.00000 37.77878 56.53993 0.00000 0.70711 0.70711 0.2951 0.4417
p9_entry_c3
0 -14.00000 37.77878 56.53993 -1.00000 0.00000 0.00000 0.2951 0.4417
0 -14.00000 30.55636 45.73083 -1.00000 0.00000 0.00000 0.2387 0.3573
0 -14.00000 10.72997 53.94319 -1.00000 0.00000 0.00000 0.0838 0.4214
p9_entry_c3
0 -14.00000 37.77878 56.53993 -1.00000 0.00000 0.00000 0.2951 0.4417
0 -14.00000 10.72997 53.94319 -1.00000 0.00000 0.00000 0.0838 0.4214
0 -14.00000 13.26614 66.69340 -1.00000 0.00000 0.00000 0.1036 0.5210
p9_entry_c3
0 -14.00000 30.55636 45.73083 -0.94681 -0.12314 -0.29729 0.2387 0.3573
0 -12.00000 27.22294 40.74201 -0.94681 -0.12314 -0.29729 0.2127 0.3183
0 -12.00000 9.55943 48.05848 -0.94681 -0.12314 -0.29729 0.0747 0.3755
p9_entry_c3
0 -14.00000 30.55636 45.73083 -0.94681 -0.12314 -0.29729 0.2387 0.3573
0 -12.00000 9.55943 48.05848 -0.94681 -0.12314 -0.29729 0.0747 0.3755
0 -14.00000 10.72997 53.94319 -0.94681 -0.12314 -0.29729 0.0838 0.4214
p9_entry_clip
0 -12.00000 27.22294 40.74201 -0.63284 -0.29631 -0.71534 0.2127 0.3183
0 -9.00000 25.83402 38.66334 -0.63284 -0.29631 -0.71534 0.2018 0.3021
0 -9.00000 9.07170 45.60652 -0.63284 -0.29631 -0.71534 0.0709 0.3563
p9_entry_clip
0 -12.00000 27.22294 40.74201 -0.63284 -0.29631 -0.71534 0.2127 0.3183
0 -9.00000 9.07170 45.60652 -0.63284 -0.29631 -0.71534 0.0709 0.3563
0 -12.00000 9.55943 48.05848 -0.63284 -0.29631 -0.71534 0.0747 0.3755
p9_entry_ch3
0 -9.00000 25.83402 38.66334 -0.31074 -0.36374 -0.87814 0.2018 0.3021
0 -6.00000 25.27845 37.83187 -0.31074 -0.36374 -0.87814 0.1975 0.2956
0 -6.00000 8.87661 44.62573 -0.31074 -0.36374 -0.87814 0.0693 0.3486
p9_entry_ch3
0 -9.00000 25.83402 38.66334 -0.31074 -0.36374 -0.87814 0.2018 0.3021
0 -6.00000 8.87661 44.62573 -0.31074 -0.36374 -0.87814 0.0693 0.3486
0 -9.00000 9.07170 45.60652 -0.31074 -0.36374 -0.87814 0.0709 0.3563
p9_entry_ch3
0 -6.00000 25.27845 37.83187 -0.44030 -0.34359 -0.82951 0.1975 0.2956
0 -3.00000 24.44509 36.58466 -0.44030 -0.34359 -0.82951 0.1910 0.2858
0 -3.00000 8.58397 43.15455 -0.44030 -0.34359 -0.82951 0.0671 0.3371
p9_entry_ch3
0 -6.00000 25.27845 37.83187 -0.44030 -0.34359 -0.82951 0.1975 0.2956
0 -3.00000 8.58397 43.15455 -0.44030 -0.34359 -0.82951 0.0671 0.3371
0 -6.00000 8.87661 44.62573 -0.44030 -0.34359 -0.82951 0.0693 0.3486
p9_entry_clip
0 -3.00000 24.44509 36.58466 0.00000 -0.38268 -0.92388 0.1910 0.2858
0 3.00000 24.44509 36.58466 0.00000 -0.38268 -0.92388 0.1910 0.2858
0 3.00000 8.58397 43.15455 0.00000 -0.38268 -0.92388 0.0671 0.3371
p9_entry_clip
0 -3.00000 24.44509 36.58466 0.00000 -0.38268 -0.92388 0.1910 0.2858
0 3.00000 8.58397 43.15455 0.00000 -0.38268 -0.92388 0.0671 0.3371
0 -3.00000 8.58397 43.15455 0.00000 -0.38268 -0.92388 0.0671 0.3371
p9_entry_ch3
0 3.00000 24.44509 36.58466 0.44030 -0.34359 -0.82951 0.1910 0.2858
0 6.00000 25.27845 37.83187 0.44030 -0.34359 -0.82951 0.1975 0.2956
0 6.00000 8.87661 44.62573 0.44030 -0.34359 -0.82951 0.0693 0.3486
p9_entry_ch3
0 3.00000 24.44509 36.58466 0.44030 -0.34359 -0.82951 0.1910 0.2858
0 6.00000 8.87661 44.62573 0.44030 -0.34359 -0.82951 0.0693 0.3486
0 3.00000 8.58397 43.15455 0.44030 -0.34359 -0.82951 0.0671 0.3371
p9_entry_ch3
0 6.00000 25.27845 37.83187 0.31074 -0.36374 -0.87814 0.1975 0.2956
0 9.00000 25.83402 38.66334 0.31074 -0.36374 -0.87814 0.2018 0.3021
0 9.00000 9.07170 45.60652 0.31074 -0.36374 -0.87814 0.0709 0.3563
p9_entry_ch3
0 6.00000 25.27845 37.83187 0.31074 -0.36374 -0.87814 0.1975 0.2956
0 9.00000 9.07170 45.60652 0.31074 -0.36374 -0.87814 0.0709 0.3563
0 6.00000 8.87661 44.62573 0.31074 -0.36374 -0.87814 0.0693 0.3486
p9_entry_clip
0 9.00000 25.83402 38.66334 0.63284 -0.29631 -0.71534 0.2018 0.3021
0 12.00000 27.22294 40.74201 0.63284 -0.29631 -0.71534 0.2127 0.3183
0 12.00000 9.55943 48.05848 0.63284 -0.29631 -0.71534 0.0747 0.3755
p9_entry_clip
0 9.00000 25.83402 38.66334 0.63284 -0.29631 -0.71534 0.2018 0.3021
0 12.00000 9.55943 48.05848 0.63284 -0.29631 -0.71534 0.0747 0.3755
0 9.00000 9.07170 45.60652 0.63284 -0.29631 -0.71534 0.0709 0.3563
p9_entry_c3
0 12.00000 27.22294 40.74201 0.94681 -0.12314 -0.29729 0.2127 0.3183
0 14.00000 30.55636 45.73083 0.94681 -0.12314 -0.29729 0.2387 0.3573
0 14.00000 10.72997 53.94319 0.94681 -0.12314 -0.29729 0.0838 0.4214
p9_entry_c3
0 12.00000 27.22294 40.74201 0.94681 -0.12314 -0.29729 0.2127 0.3183
0 14.00000 10.72997 53.94319 0.94681 -0.12314 -0.29729 0.0838 0.4214
0 12.00000 9.55943 48.05848 0.94681 -0.12314 -0.29729 0.0747 0.3755
p9_entry_c3
0 14.00000 30.55636 45.73083 1.00000 0.00000 -0.00000 0.2387 0.3573
0 14.00000 37.77878 56.53993 1.00000 0.00000 -0.00000 0.2951 0.4417
0 14.00000 13.26614 66.69340 1.00000 0.00000 -0.00000 0.1036 0.5210
p9_entry_c3
0 14.00000 30.55636 45.73083 1.00000 0.00000 -0.00000 0.2387 0.3573
0 14.00000 13.26614 66.69340 1.00000 0.00000 -0.00000 0.1036 0.5210
0 14.00000 10.72997 53.94319 1.00000 0.00000 -0.00000 0.0838 0.4214
p9_entry_c3
0 14.00000 37.77878 56.53993 0.00000 0.38268 0.92388 0.2951 0.4417
0 -14.00000 37.77878 56.53993 0.00000 0.38268 0.92388 0.2951 0.4417
0 -14.00000 13.26614 66.69340 0.00000 0.38268 0.92388 0.1036 0.5210
p9_entry_c3
0 14.00000 37.77878 56.53993 0.00000 0.38268 0.92388 0.2951 0.4417
0 -14.00000 13.26614 66.69340 0.00000 0.38268 0.92388 0.1036 0.5210
0 14.00000 13.26614 66.69340 0.00000 0.38268 0.92388 0.1036 0.5210
p9_entry_c3
0 -14.00000 13.26614 66.69340 -1.00000 0.00000 0.00000 0.1036 0.5210
0 -14.00000 10.72997 53.94319 -1.00000 0.00000 0.00000 0.0838 0.4214
0 -14.00000 -10.72997 53.94319 -1.00000 0.00000 0.00000 0.9162 0.4214
p9_entry_c3
0 -14.00000 13.26614 66.69340 -1.00000 0.00000 0.00000 0.1036 0.5210
0 -14.00000 -10.72997 53.94319 -1.00000 0.00000 0.00000 0.9162 0.4214
0 -14.00000 -13.26614 66.69340 -1.00000 0.00000 0.00000 0.8964 0.5210
p9_entry_c3
0 -14.00000 10.72997 53.94319 -0.94681 0.00000 -0.32179 0.0838 0.4214
0 -12.00000 9.55943 48.05848 -0.94681 0.00000 -0.32179 0.0747 0.3755
0 -12.00000 -9.55943 48.05848 -0.94681 0.00000 -0.32179 0.9253 0.3755
p9_entry_c3
0 -14.00000 10.72997 53.94319 -0.94681 0.00000 -0.32179 0.0838 0.4214
0 -12.00000 -9.55943 48.05848 -0.94681 0.00000 -0.32179 0.9253 0.3755
0 -14.00000 -10.72997 53.94319 -0.94681 0.00000 -0.32179 0.9162 0.4214
p9_entry_clip
0 -12.00000 9.55943 48.05848 -0.63284 0.00000 -0.77428 0.0747 0.3755
0 -9.00000 9.07170 45.60652 -0.63284 0.00000 -0.77428 0.0709 0.3563
0 -9.00000 -9.07170 45.60652 -0.63284 0.00000 -0.77428 0.9291 0.3563
p9_entry_clip
0 -12.00000 9.55943 48.05848 -0.63284 0.00000 -0.77428 0.0747 0.3755
0 -9.00000 -9.07170 45.60652 -0.63284 0.00000 -0.77428 0.9291 0.3563
0 -12.00000 -9.55943 48.05848 -0.63284 0.00000 -0.77428 0.9253 0.3755
p9_entry_ch3
0 -9.00000 9.07170 45.60652 -0.31074 0.00000 -0.95049 0.0709 0.3563
0 -6.00000 8.87661 44.62573 -0.31074 0.00000 -0.95049 0.0693 0.3486
0 -6.00000 -8.87661 44.62573 -0.31074 0.00000 -0.95049 0.9307 0.3486
p9_entry_ch3
0 -9.00000 9.07170 45.60652 -0.31074 0.00000 -0.95049 0.0709 0.3563
0 -6.00000 -8.87661 44.62573 -0.31074 0.00000 -0.95049 0.9307 0.3486
0 -9.00000 -9.07170 45.60652 -0.31074 0.00000 -0.95049 0.9291 0.3563
p9_entry_ch3
0 -6.00000 8.87661 44.62573 -0.44030 0.00000 -0.89785 0.0693 0.3486
0 -3.00000 8.58397 43.15455 -0.44030 0.00000 -0.89785 0.0671 0.3371
0 -3.00000 -8.58397 43.15455 -0.44030 0.00000 -0.89785 0.9329 0.3371
p9_entry_ch3
0 -6.00000 8.87661 44.62573 -0.44030 0.00000 -0.89785 0.0693 0.3486
0 -3.00000 -8.58397 43.15455 -0.44030 0.00000 -0.89785 0.9329 0.3371
0 -6.00000 -8.87661 44.62573 -0.44030 0.00000 -0.89785 0.9307 0.3486
p9_entry_clip
0 -3.00000 8.58397 43.15455 0.00000 0.00000 -1.00000 0.0671 0.3371
0 3.00000 8.58397 43.15455 0.00000 0.00000 -1.00000 0.0671 0.3371
0 3.00000 -8.58397 43.15455 0.00000 0.00000 -1.00000 0.9329 0.3371
p9_entry_clip
0 -3.00000 8.58397 43.15455 0.00000 0.00000 -1.00000 0.0671 0.3371
0 3.00000 -8.58397 43.15455 0.00000 0.00000 -1.00000 0.9329 0.3371
0 -3.00000 -8.58397 43.15455 0.00000 0.00000 -1.00000 0.9329 0.3371
p9_entry_ch3
0 3.00000 8.58397 43.15455 0.44030 0.00000 -0.89785 0.0671 0.3371
0 6.00000 8.87661 44.62573 0.44030 0.00000 -0.89785 0.0693 0.3486
0 6.00000 -8.87661 44.62573 0.44030 0.00000 -0.89785 0.9307 0.3486
p9_entry_ch3
0 3.00000 8.58397 43.15455 0.44030 0.00000 -0.89785 0.0671 0.3371
0 6.00000 -8.87661 44.62573 0.44030 0.00000 -0.89785 0.9307 0.3486
0 3.00000 -8.58397 43.15455 0.44030 0.00000 -0.89785 0.9329 0.3371
p9_entry_ch3
0 6.00000 8.87661 44.62573 0.31074 0.00000 -0.95049 0.0693 0.3486
0 9.00000 9.07170 45.60652 0.31074 0.00000 -0.95049 0.0709 0.3563
0 9.00000 -9.07170 45.60652 0.31074 0.00000 -0.95049 0.9291 0.3563
p9_entry_ch3
0 6.00000 8.87661 44.62573 0.31074 0.00000 -0.95049 0.0693 0.3486
0 9.00000 -9.07170 45.60652 0.31074 0.00000 -0.95049 0.9291 0.3563
0 6.00000 -8.87661 44.62573 0.31074 0.00000 -0.95049 0.9307 0.3486
p9_entry_clip
0 9.00000 9.07170 45.60652 0.63284 0.00000 -0.77428 0.0709 0.3563
0 12.00000 9.55943 48.05848 0.63284 0.00000 -0.77428 0.0747 0.3755
0 12.00000 -9.55943 48.05848 0.63284 0.00000 -0.77428 0.9253 0.3755
p9_entry_clip
0 9.00000 9.07170 45.60652 0.63284 0.00000 -0.77428 0.0709 0.3563
0 12.00000 -9.55943 48.05848 0.63284 0.00000 -0.77428 0.9253 0.3755
0 9.00000 -9.07170 45.60652 0.63284 0.00000 -0.77428 0.9291 0.3563
p9_entry_c3
0 12.00000 9.55943 48.05848 0.94681 0.00000 -0.32179 0.0747 0.3755
0 14.00000 10.72997 53.94319 0.94681 0.00000 -0.32179 0.0838 0.4214
0 14.00000 -10.72997 53.94319 0.94681 0.00000 -0.32179 0.9162 0.4214
p9_entry_c3
0 12.00000 9.55943 48.05848 0.94681 0.00000 -0.32179 0.0747 0.3755
0 14.00000 -10.72997 53.94319 0.94681 0.00000 -0.32179 0.9162 0.4214
0 12.00000 -9.55943 48.05848 0.94681 0.00000 -0.32179 0.9253 0.3755
p9_entry_c3
0 14.00000 10.72997 53.94319 1.00000 0.00000 -0.00000 0.0838 0.4214
0 14.00000 13.26614 66.69340 1.00000 0.00000 -0.00000 0.1036 0.5210
0 14.00000 -13.26614 66.69340 1.00000 0.00000 -0.00000 0.8964 0.5210
p9_entry_c3
0 14.00000 10.72997 53.94319 1.00000 0.00000 -0.00000 0.0838 0.4214
0 14.00000 -13.26614 66.69340 1.00000 0.00000 -0.00000 0.8964 0.5210
0 14.00000 -10.72997 53.94319 1.00000 0.00000 -0.00000 0.9162 0.4214
p9_entry_c3
0 14.00000 13.26614 66.69340 0.00000 0.00000 1.00000 0.1036 0.5210
0 -14.00000 13.26614 66.69340 0.00000 0.00000 1.00000 0.1036 0.5210
0 -14.00000 -13.26614 66.69340 0.00000 0.00000 1.00000 0.8964 0.5210
p9_entry_c3
0 14.00000 13.26614 66.69340 0.00000 0.00000 1.00000 0.1036 0.5210
0 -14.00000 -13.26614 66.69340 0.00000 0.00000 1.00000 0.8964 0.5210
0 14.00000 -13.26614 66.69340 0.00000 0.00000 1.00000 0.8964 0.5210
p9_entry_c2
0 -14.00000 -13.26614 66.69340 -1.00000 0.00000 -0.00000 0.8964 0.5210
0 -14.00000 -10.72997 53.94319 -1.00000 0.00000 -0.00000 0.9162 0.4214
0 -14.00000 -30.55636 45.73083 -1.00000 0.00000 -0.00000 0.7613 0.3573
p9_entry_c2
0 -14.00000 -13.26614 66.69340 -1.00000 0.00000 -0.00000 0.8964 0.5210
0 -14.00000 -30.55636 45.73083 -1.00000 0.00000 -0.00000 0.7613 0.3573
0 -14.00000 -37.77878 56.53993 -1.00000 0.00000 -0.00000 0.7049 0.4417
p9_entry_c2
0 -14.00000 -10.72997 53.94319 -0.94681 0.12314 -0.29729 0.9162 0.4214
0 -12.00000 -9.55943 48.05848 -0.94681 0.12314 -0.29729 0.9253 0.3755
0 -12.00000 -27.22294 40.74201 -0.94681 0.12314 -0.29729 0.7873 0.3183
p9_entry_c2
0 -14.00000 -10.72997 53.94319 -0.94681 0.12314 -0.29729 0.9162 0.4214
0 -12.00000 -27.22294 40.74201 -0.94681 0.12314 -0.29729 0.7873 0.3183
0 -14.00000 -30.55636 45.73083 -0.94681 0.12314 -0.29729 0.7613 0.3573
p9_entry_clip
0 -12.00000 -9.55943 48.05848 -0.63284 0.29631 -0.71534 0.9253 0.3755
0 -9.00000 -9.07170 45.60652 -0.63284 0.29631 -0.71534 0.9291 0.3563
0 -9.00000 -25.83402 38.66334 -0.63284 0.29631 -0.71534 0.7982 0.3021
p9_entry_clip
0 -12.00000 -9.55943 48.05848 -0.63284 0.29631 -0.71534 0.9253 0.3755
0 -9.00000 -25.83402 38.66334 -0.63284 0.29631 -0.71534 0.7982 0.3021
0 -12.00000 -27.22294 40.74201 -0.63284 0.29631 -0.71534 0.7873 0.3183
p9_entry_ch2
0 -9.00000 -9.07170 45.60652 -0.31074 0.36374 -0.87814 0.9291 0.3563
0 -6.00000 -8.87661 44.62573 -0.31074 0.36374 -0.87814 0.9307 0.3486
0 -6.00000 -25.27845 37.83187 -0.31074 0.36374 -0.87814 0.8025 0.2956
p9_entry_ch2
0 -9.00000 -9.07170 45.60652 -0.31074 0.36374 -0.87814 0.9291 0.3563
0 -6.00000 -25.27845 37.83187 -0.31074 0.36374 -0.87814 0.8025 0.2956
0 -9.00000 -25.83402 38.66334 -0.31074 0.36374 -0.87814 0.7982 0.3021
p9_entry_ch2
0 -6.00000 -8.87661 44.62573 -0.44030 0.34359 -0.82951 0.9307 0.3486
0 -3.00000 -8.58397 43.15455 -0.44030 0.34359 -0.82951 0.9329 0.3371
0 -3.00000 -24.44509 36.58466 -0.44030 0.34359 -0.82951 0.8090 0.2858
p9_entry_ch2
0 -6.00000 -8.87661 44.62573 -0.44030 0.34359 -0.82951 0.9307 0.3486
0 -3.00000 -24.44509 36.58466 -0.44030 0.34359 -0.82951 0.8090 0.2858
0 -6.00000 -25.27845 37.83187 -0.44030 0.34359 -0.82951 0.8025 0.2956
p9_entry_clip
0 -3.00000 -8.58397 43.15455 0.00000 0.38268 -0.92388 0.9329 0.3371
0 3.00000 -8.58397 43.15455 0.00000 0.38268 -0.92388 0.9329 0.3371
0 3.00000 -24.44509 36.58466 0.00000 0.38268 -0.92388 0.8090 0.2858
p9_entry_clip
0 -3.00000 -8.58397 43.15455 0.00000 0.38268 -0.92388 0.9329 0.3371
0 3.00000 -24.44509 36.58466 0.00000 0.38268 -0.92388 0.8090 0.2858
0 -3.00000 -24.44509 36.58466 0.00000 0.38268 -0.92388 0.8090 0.2858
p9_entry_ch2
0 3.00000 -8.58397 43.15455 0.44030 0.34359 -0.82951 0.9329 0.3371
0 6.00000 -8.87661 44.62573 0.44030 0.34359 -0.82951 0.9307 0.3486
0 6.00000 -25.27845 37.83187 0.44030 0.34359 -0.82951 0.8025 0.2956
p9_entry_ch2
0 3.00000 -8.58397 43.15455 0.44030 0.34359 -0.82951 0.9329 0.3371
0 6.00000 -25.27845 37.83187 0.44030 0.34359 -0.82951 0.8025 0.2956
0 3.00000 -24.44509 36.58466 0.44030 0.34359 -0.82951 0.8090 0.2858
p9_entry_ch2
0 6.00000 -8.87661 44.62573 0.31074 0.36374 -0.87814 0.9307 0.3486
0 9.00000 -9.07170 45.60652 0.31074 0.36374 -0.87814 0.9291 0.3563
0 9.00000 -25.83402 38.66334 0.31074 0.36374 -0.87814 0.7982 0.3021
p9_entry_ch2
0 6.00000 -8.87661 44.62573 0.31074 0.36374 -0.87814 0.9307 0.3486
0 9.00000 -25.83402 38.66334 0.31074 0.36374 -0.87814 0.7982 0.3021
0 6.00000 -25.27845 37.83187 0.31074 0.36374 -0.87814 0.8025 0.2956
p9_entry_clip
0 9.00000 -9.07170 45.60652 0.63284 0.29631 -0.71534 0.9291 0.3563
0 12.00000 -9.55943 48.05848 0.63284 0.29631 -0.71534 0.9253 0.3755
0 12.00000 -27.22294 40.74201 0.63284 0.29631 -0.71534 0.7873 0.3183
p9_entry_clip
0 9.00000 -9.07170 45.60652 0.63284 0.29631 -0.71534 0.9291 0.3563
0 12.00000 -27.22294 40.74201 0.63284 0.29631 -0.71534 0.7873 0.3183
0 9.00000 -25.83402 38.66334 0.63284 0.29631 -0.71534 0.7982 0.3021
p9_entry_c2
0 12.00000 -9.55943 48.05848 0.94681 0.12314 -0.29729 0.9253 0.3755
0 14.00000 -10.72997 53.94319 0.94681 0.12314 -0.29729 0.9162 0.4214
0 14.00000 -30.55636 45.73083 0.94681 0.12314 -0.29729 0.7613 0.3573
p9_entry_c2
0 12.00000 -9.55943 48.05848 0.94681 0.12314 -0.29729 0.9253 0.3755
0 14.00000 -30.55636 45.73083 0.94681 0.12314 -0.29729 0.7613 0.3573
0 12.00000 -27.22294 40.74201 0.94681 0.12314 -0.29729 0.7873 0.3183
p9_entry_c2
0 14.00000 -10.72997 53.94319 1.00000 0.00000 0.00000 0.9162 0.4214
0 14.00000 -13.26614 66.69340 1.00000 0.00000 0.00000 0.8964 0.5210
0 14.00000 -37.77878 56.53993 1.00000 0.00000 0.00000 0.7049 0.4417
p9_entry_c2
0 14.00000 -10.72997 53.94319 1.00000 0.00000 0.00000 0.9162 0.4214
0 14.00000 -37.77878 56.53993 1.00000 0.00000 0.00000 0.7049 0.4417
0 14.00000 -30.55636 45.73083 1.00000 0.00000 0.00000 0.7613 0.3573
p9_entry_c2
0 14.00000 -13.26614 66.69340 0.00000 -0.38268 0.92388 0.8964 0.5210
0 -14.00000 -13.26614 66.69340 0.00000 -0.38268 0.92388 0.8964 0.5210
0 -14.00000 -37.77878 56.53993 0.00000 -0.38268 0.92388 0.7049 0.4417
p9_entry_c2
0 14.00000 -13.26614 66.69340 0.00000 -0.38268 0.92388 0.8964 0.5210
0 -14.00000 -37.77878 56.53993 0.00000 -0.38268 0.92388 0.7049 0.4417
0 14.00000 -37.77878 56.53993 0.00000 -0.38268 0.92388 0.7049 0.4417
p9_entry_c1
0 -14.00000 -37.77878 56.53993 -1.00000 0.00000 -0.00000 0.7049 0.4417
0 -14.00000 -30.55636 45.73083 -1.00000 0.00000 -0.00000 0.7613 0.3573
0 -14.00000 -45.73083 30.55636 -1.00000 0.00000 -0.00000 0.6427 0.2387
p9_entry_c1
0 -14.00000 -37.77878 56.53993 -1.00000 0.00000 -0.00000 0.7049 0.4417
0 -14.00000 -45.73083 30.55636 -1.00000 0.00000 -0.00000 0.6427 0.2387
0 -14.00000 -56.53993 37.77878 -1.00000 0.00000 -0.00000 0.5583 0.2951
p9_entry_c1
0 -14.00000 -30.55636 45.73083 -0.94681 0.22754 -0.22754 0.7613 0.3573
0 -12.00000 -27.22294 40.74201 -0.94681 0.22754 -0.22754 0.7873 0.3183
0 -12.00000 -40.74201 27.22294 -0.94681 0.22754 -0.22754 0.6817 0.2127
p9_entry_c1
0 -14.00000 -30.55636 45.73083 -0.94681 0.22754 -0.22754 0.7613 0.3573
0 -12.00000 -40.74201 27.22294 -0.94681 0.22754 -0.22754 0.6817 0.2127
0 -14.00000 -45.73083 30.55636 -0.94681 0.22754 -0.22754 0.6427 0.2387
p9_entry_clip
0 -12.00000 -27.22294 40.74201 -0.63284 0.54750 -0.54750 0.7873 0.3183
0 -9.00000 -25.83402 38.66334 -0.63284 0.54750 -0.54750 0.7982 0.3021
0 -9.00000 -38.66334 25.83402 -0.63284 0.54750 -0.54750 0.6979 0.2018
p9_entry_clip
0 -12.00000 -27.22294 40.74201 -0.63284 0.54750 -0.54750 0.7873 0.3183
0 -9.00000 -38.66334 25.83402 -0.63284 0.54750 -0.54750 0.6979 0.2018
0 -12.00000 -40.74201 27.22294 -0.63284 0.54750 -0.54750 0.6817 0.2127
p9_entry_ch1
0 -9.00000 -25.83402 38.66334 -0.31074 0.67210 -0.67210 0.7982 0.3021
0 -6.00000 -25.27845 37.83187 -0.31074 0.67210 -0.67210 0.8025 0.2956
0 -6.00000 -37.83187 25.27845 -0.31074 0.67210 -0.67210 0.7044 0.1975
p9_entry_ch1
0 -9.00000 -25.83402 38.66334 -0.31074 0.67210 -0.67210 0.7982 0.3021
0 -6.00000 -37.83187 25.27845 -0.31074 0.67210 -0.67210 0.7044 0.1975
0 -9.00000 -38.66334 25.83402 -0.31074 0.67210 -0.67210 0.6979 0.2018
p9_entry_ch1
0 -6.00000 -25.27845 37.83187 -0.44030 0.63488 -0.63488 0.8025 0.2956
0 -3.00000 -24.44509 36.58466 -0.44030 0.63488 -0.63488 0.8090 0.2858
0 -3.00000 -36.58466 24.44509 -0.44030 0.63488 -0.63488 0.7142 0.1910
p9_entry_ch1
0 -6.00000 -25.27845 37.83187 -0.44030 0.63488 -0.63488 0.8025 0.2956
0 -3.00000 -36.58466 24.44509 -0.44030 0.63488 -0.63488 0.7142 0.1910
0 -6.00000 -37.83187 25.27845 -0.44030 0.63488 -0.63488 0.7044 0.1975
p9_entry_clip
0 -3.00000 -24.44509 36.58466 0.00000 0.70711 -0.70711 0.8090 0.2858
0 3.00000 -24.44509 36.58466 0.00000 0.70711 -0.70711 0.8090 0.2858
0 3.00000 -36.58466 24.44509 0.00000 0.70711 -0.70711 0.7142 0.1910
p9_entry_clip
0 -3.00000 -24.44509 36.58466 0.00000 0.70711 -0.70711 0.8090 0.2858
0 3.00000 -36.58466 24.44509 0.00000 0.70711 -0.70711 0.7142 0.1910
0 -3.00000 -36.58466 24.44509 0.00000 0.70711 -0.70711 0.7142 0.1910
p9_entry_ch1
0 3.00000 -24.44509 36.58466 0.44030 0.63488 -0.63488 0.8090 0.2858
0 6.00000 -25.27845 37.83187 0.44030 0.63488 -0.63488 0.8025 0.2956
0 6.00000 -37.83187 25.27845 0.44030 0.63488 -0.63488 0.7044 0.1975
p9_entry_ch1
0 3.00000 -24.44509 36.58466 0.44030 0.63488 -0.63488 0.8090 0.2858
0 6.00000 -37.83187 25.27845 0.44030 0.63488 -0.63488 0.7044 0.1975
0 3.00000 -36.58466 24.44509 0.44030 0.63488 -0.63488 0.7142 0.1910
p9_entry_ch1
0 6.00000 -25.27845 37.83187 0.31074 0.67210 -0.67210 0.8025 0.2956
0 9.00000 -25.83402 38.66334 0.31074 0.67210 -0.67210 0.7982 0.3021
0 9.00000 -38.66334 25.83402 0.31074 0.67210 -0.67210 0.6979 0.2018
p9_entry_ch1
0 6.00000 -25.27845 37.83187 0.31074 0.67210 -0.67210 0.8025 0.2956
0 9.00000 -38.66334 25.83402 0.31074 0.67210 -0.67210 0.6979 0.2018
0 6.00000 -37.83187 25.27845 0.31074 0.67210 -0.67210 0.7044 0.1975
p9_entry_clip
0 9.00000 -25.83402 38.66334 0.63284 0.54750 -0.54750 0.7982 0.3021
0 12.00000 -27.22294 40.74201 0.63284 0.54750 -0.54750 0.7873 0.3183
0 12.00000 -40.74201 27.22294 0.63284 0.54750 -0.54750 0.6817 0.2127
p9_entry_clip
0 9.00000 -25.83402 38.66334 0.63284 0.54750 -0.54750 0.7982 0.3021
0 12.00000 -40.74201 27.22294 0.63284 0.54750 -0.54750 0.6817 0.2127
0 9.00000 -38.66334 25.83402 0.63284 0.54750 -0.54750 0.6979 0.2018
p9_entry_c1
0 12.00000 -27.22294 40.74201 0.94681 0.22754 -0.22754 0.7873 0.3183
0 14.00000 -30.55636 45.73083 0.94681 0.22754 -0.22754 0.7613 0.3573
0 14.00000 -45.73083 30.55636 0.94681 0.22754 -0.22754 0.6427 0.2387
p9_entry_c1
0 12.00000 -27.22294 40.74201 0.94681 0.22754 -0.22754 0.7873 0.3183
0 14.00000 -45.73083 30.55636 0.94681 0.22754 -0.22754 0.6427 0.2387
0 12.00000 -40.74201 27.22294 0.94681 0.22754 -0.22754 0.6817 0.2127
p9_entry_c1
0 14.00000 -30.55636 45.73083 1.00000 0.00000 0.00000 0.7613 0.3573
0 14.00000 -37.77878 56.53993 1.00000 0.00000 0.00000 0.7049 0.4417
0 14.00000 -56.53993 37.77878 1.00000 0.00000 0.00000 0.5583 0.2951
p9_entry_c1
0 14.00000 -30.55636 45.73083 1.00000 0.00000 0.00000 0.7613 0.3573
0 14.00000 -56.53993 37.77878 1.00000 0.00000 0.00000 0.5583 0.2951
0 14.00000 -45.73083 30.55636 1.00000 0.00000 0.00000 0.6427 0.2387
p9_entry_c1
0 14.00000 -37.77878 56.53993 0.00000 -0.70711 0.70711 0.7049 0.4417
0 -14.00000 -37.77878 56.53993 0.00000 -0.70711 0.70711 0.7049 0.4417
0 -14.00000 -56.53993 37.77878 0.00000 -0.70711 0.70711 0.5583 0.2951
p9_entry_c1
0 14.00000 -37.77878 56.53993 0.00000 -0.70711 0.70711 0.7049 0.4417
0 -14.00000 -56.53993 37.77878 0.00000 -0.70711 0.70711 0.5583 0.2951
0 14.00000 -56.53993 37.77878 0.00000 -0.70711 0.70711 0.5583 0.2951
p9_entry_c1
0 -14.00000 -56.53993 37.77878 -1.00000 0.00000 0.00000 0.5583 0.2951
0 -14.00000 -45.73083 30.55636 -1.00000 0.00000 0.00000 0.6427 0.2387
0 -14.00000 -53.94319 10.72997 -1.00000 0.00000 0.00000 0.5786 0.0838
p9_entry_c1
0 -14.00000 -56.53993 37.77878 -1.00000 0.00000 0.00000 0.5583 0.2951
0 -14.00000 -53.94319 10.72997 -1.00000 0.00000 0.00000 0.5786 0.0838
0 -14.00000 -66.69340 13.26614 -1.00000 0.00000 0.00000 0.4790 0.1036
p9_entry_c1
0 -14.00000 -45.73083 30.55636 -0.94681 0.29729 -0.12314 0.6427 0.2387
0 -12.00000 -40.74201 27.22294 -0.94681 0.29729 -0.12314 0.6817 0.2127
0 -12.00000 -48.05848 9.55943 -0.94681 0.29729 -0.12314 0.6245 0.0747
p9_entry_c1
0 -14.00000 -45.73083 30.55636 -0.94681 0.29729 -0.12314 0.6427 0.2387
0 -12.00000 -48.05848 9.55943 -0.94681 0.29729 -0.12314 0.6245 0.0747
0 -14.00000 -53.94319 10.72997 -0.94681 0.29729 -0.12314 0.5786 0.0838
p9_entry_clip
0 -12.00000 -40.74201 27.22294 -0.63284 0.71534 -0.29631 0.6817 0.2127
0 -9.00000 -38.66334 25.83402 -0.63284 0.71534 -0.29631 0.6979 0.2018
0 -9.00000 -45.60652 9.07170 -0.63284 0.71534 -0.29631 0.6437 0.0709
p9_entry_clip
0 -12.00000 -40.74201 27.22294 -0.63284 0.71534 -0.29631 0.6817 0.2127
0 -9.00000 -45.60652 9.07170 -0.63284 0.71534 -0.29631 0.6437 0.0709
0 -12.00000 -48.05848 9.55943 -0.63284 0.71534 -0.29631 0.6245 0.0747
p9_entry_ch1
0 -9.00000 -38.66334 25.83402 -0.31074 0.87814 -0.36374 0.6979 0.2018
0 -6.00000 -37.83187 25.27845 -0.31074 0.87814 -0.36374 0.7044 0.1975
0 -6.00000 -44.62573 8.87661 -0.31074 0.87814 -0.36374 0.6514 0.0693
p9_entry_ch1
0 -9.00000 -38.66334 25.83402 -0.31074 0.87814 -0.36374 0.6979 0.2018
0 -6.00000 -44.62573 8.87661 -0.31074 0.87814 -0.36374 0.6514 0.0693
0 -9.00000 -45.60652 9.07170 -0.31074 0.87814 -0.36374 0.6437 0.0709
p9_entry_ch1
0 -6.00000 -37.83187 25.27845 -0.44030 0.82951 -0.34359 0.7044 0.1975
0 -3.00000 -36.58466 24.44509 -0.44030 0.82951 -0.34359 0.7142 0.1910
0 -3.00000 -43.15455 8.58397 -0.44030 0.82951 -0.34359 0.6629 0.0671
p9_entry_ch1
0 -6.00000 -37.83187 25.27845 -0.44030 0.82951 -0.34359 0.7044 0.1975
0 -3.00000 -43.15455 8.58397 -0.44030 0.82951 -0.34359 0.6629 0.0671
0 -6.00000 -44.62573 8.87661 -0.44030 0.82951 -0.34359 0.6514 0.0693
p9_entry_clip
0 -3.00000 -36.58466 24.44509 0.00000 0.92388 -0.38268 0.7142 0.1910
0 3.00000 -36.58466 24.44509 0.00000 0.92388 -0.38268 0.7142 0.1910
0 3.00000 -43.15455 8.58397 0.00000 0.92388 -0.38268 0.6629 0.0671
p9_entry_clip
0 -3.00000 -36.58466 24.44509 0.00000 0.92388 -0.38268 0.7142 0.1910
0 3.00000 -43.15455 8.58397 0.00000 0.92388 -0.38268 0.6629 0.0671
0 -3.00000 -43.15455 8.58397 0.00000 0.92388 -0.38268 0.6629 0.0671
p9_entry_ch1
0 3.00000 -36.58466 24.44509 0.44030 0.82951 -0.34359 0.7142 0.1910
0 6.00000 -37.83187 25.27845 0.44030 0.82951 -0.34359 0.7044 0.1975
0 6.00000 -44.62573 8.87661 0.44030 0.82951 -0.34359 0.6514 0.0693
p9_entry_ch1
0 3.00000 -36.58466 24.44509 0.44030 0.82951 -0.34359 0.7142 0.1910
0 6.00000 -44.62573 8.87661 0.44030 0.82951 -0.34359 0.6514 0.0693
0 3.00000 -43.15455 8.58397 0.44030 0.82951 -0.34359 0.6629 0.0671
p9_entry_ch1
0 6.00000 -37.83187 25.27845 0.31074 0.87814 -0.36374 0.7044 0.1975
0 9.00000 -38.66334 25.83402 0.31074 0.87814 -0.36374 0.6979 0.2018
0 9.00000 -45.60652 9.07170 0.31074 0.87814 -0.36374 0.6437 0.0709
p9_entry_ch1
0 6.00000 -37.83187 25.27845 0.31074 0.87814 -0.36374 0.7044 0.1975
0 9.00000 -45.60652 9.07170 0.31074 0.87814 -0.36374 0.6437 0.0709
0 6.00000 -44.62573 8.87661 0.31074 0.87814 -0.36374 0.6514 0.0693
p9_entry_clip
0 9.00000 -38.66334 25.83402 0.63284 0.71534 -0.29631 0.6979 0.2018
0 12.00000 -40.74201 27.22294 0.63284 0.71534 -0.29631 0.6817 0.2127
0 12.00000 -48.05848 9.55943 0.63284 0.71534 -0.29631 0.6245 0.0747
p9_entry_clip
0 9.00000 -38.66334 25.83402 0.63284 0.71534 -0.29631 0.6979 0.2018
0 12.00000 -48.05848 9.55943 0.63284 0.71534 -0.29631 0.6245 0.0747
0 9.00000 -45.60652 9.07170 0.63284 0.71534 -0.29631 0.6437 0.0709
p9_entry_c1
0 12.00000 -40.74201 27.22294 0.94681 0.29729 -0.12314 0.6817 0.2127
0 14.00000 -45.73083 30.55636 0.94681 0.29729 -0.12314 0.6427 0.2387
0 14.00000 -53.94319 10.72997 0.94681 0.29729 -0.12314 0.5786 0.0838
p9_entry_c1
0 12.00000 -40.74201 27.22294 0.94681 0.29729 -0.12314 0.6817 0.2127
0 14.00000 -53.94319 10.72997 0.94681 0.29729 -0.12314 0.5786 0.0838
0 12.00000 -48.05848 9.55943 0.94681 0.29729 -0.12314 0.6245 0.0747
p9_entry_c1
0 14.00000 -45.73083 30.55636 1.00000 0.00000 0.00000 0.6427 0.2387
0 14.00000 -56.53993 37.77878 1.00000 0.00000 0.00000 0.5583 0.2951
0 14.00000 -66.69340 13.26614 1.00000 0.00000 0.00000 0.4790 0.1036
p9_entry_c1
0 14.00000 -45.73083 30.55636 1.00000 0.00000 0.00000 0.6427 0.2387
0 14.00000 -66.69340 13.26614 1.00000 0.00000 0.00000 0.4790 0.1036
0 14.00000 -53.94319 10.72997 1.00000 0.00000 0.00000 0.5786 0.0838
p9_entry_c1
0 14.00000 -56.53993 37.77878 0.00000 -0.92388 0.38268 0.5583 0.2951
0 -14.00000 -56.53993 37.77878 0.00000 -0.92388 0.38268 0.5583 0.2951
0 -14.00000 -66.69340 13.26614 0.00000 -0.92388 0.38268 0.4790 0.1036
p9_entry_c1
0 14.00000 -56.53993 37.77878 0.00000 -0.92388 0.38268 0.5583 0.2951
0 -14.00000 -66.69340 13.26614 0.00000 -0.92388 0.38268 0.4790 0.1036
0 14.00000 -66.69340 13.26614 0.00000 -0.92388 0.38268 0.4790 0.1036
p9_entry_c0
0 -14.00000 -66.69340 13.26614 -1.00000 0.00000 0.00000 0.4790 0.1036
0 -14.00000 -53.94319 10.72997 -1.00000 0.00000 0.00000 0.5786 0.0838
0 -14.00000 -53.94319 -10.72997 -1.00000 0.00000 0.00000 0.5786 0.9162
p9_entry_c0
0 -14.00000 -66.69340 13.26614 -1.00000 0.00000 0.00000 0.4790 0.1036
0 -14.00000 -53.94319 -10.72997 -1.00000 0.00000 0.00000 0.5786 0.9162
0 -14.00000 -66.69340 -13.26614 -1.00000 0.00000 0.00000 0.4790 0.8964
p9_entry_c0
0 -14.00000 -53.94319 10.72997 -0.94681 0.32179 0.00000 0.5786 0.0838
0 -12.00000 -48.05848 9.55943 -0.94681 0.32179 0.00000 0.6245 0.0747
0 -12.00000 -48.05848 -9.55943 -0.94681 0.32179 0.00000 0.6245 0.9253
p9_entry_c0
0 -14.00000 -53.94319 10.72997 -0.94681 0.32179 0.00000 0.5786 0.0838
0 -12.00000 -48.05848 -9.55943 -0.94681 0.32179 0.00000 0.6245 0.9253
0 -14.00000 -53.94319 -10.72997 -0.94681 0.32179 0.00000 0.5786 0.9162
p9_entry_clip
0 -12.00000 -48.05848 9.55943 -0.63284 0.77428 0.00000 0.6245 0.0747
0 -9.00000 -45.60652 9.07170 -0.63284 0.77428 0.00000 0.6437 0.0709
0 -9.00000 -45.60652 -9.07170 -0.63284 0.77428 0.00000 0.6437 0.9291
p9_entry_clip
0 -12.00000 -48.05848 9.55943 -0.63284 0.77428 0.00000 0.6245 0.0747
0 -9.00000 -45.60652 -9.07170 -0.63284 0.77428 0.00000 0.6437 0.9291
0 -12.00000 -48.05848 -9.55943 -0.63284 0.77428 0.00000 0.6245 0.9253
p9_entry_ch0
0 -9.00000 -45.60652 9.07170 -0.31074 0.95049 0.00000 0.6437 0.0709
0 -6.00000 -44.62573 8.87661 -0.31074 0.95049 0.00000 0.6514 0.0693
0 -6.00000 -44.62573 -8.87661 -0.31074 0.95049 0.00000 0.6514 0.9307
p9_entry_ch0
0 -9.00000 -45.60652 9.07170 -0.31074 0.95049 0.00000 0.6437 0.0709
0 -6.00000 -44.62573 -8.87661 -0.31074 0.95049 0.00000 0.6514 0.9307
0 -9.00000 -45.60652 -9.07170 -0.31074 0.95049 0.00000 0.6437 0.9291
p9_entry_ch0
0 -6.00000 -44.62573 8.87661 -0.44030 0.89785 0.00000 0.6514 0.0693
0 -3.00000 -43.15455 8.58397 -0.44030 0.89785 0.00000 0.6629 0.0671
0 -3.00000 -43.15455 -8.58397 -0.44030 0.89785 0.00000 0.6629 0.9329
p9_entry_ch0
0 -6.00000 -44.62573 8.87661 -0.44030 0.89785 0.00000 0.6514 0.0693
0 -3.00000 -43.15455 -8.58397 -0.44030 0.89785 0.00000 0.6629 0.9329
0 -6.00000 -44.62573 -8.87661 -0.44030 0.89785 0.00000 0.6514 0.9307
p9_entry_clip
0 -3.00000 -43.15455 8.58397 -0.00000 1.00000 0.00000 0.6629 0.0671
0 3.00000 -43.15455 8.58397 -0.00000 1.00000 0.00000 0.6629 0.0671
0 3.00000 -43.15455 -8.58397 -0.00000 1.00000 0.00000 0.6629 0.9329
p9_entry_clip
0 -3.00000 -43.15455 8.58397 -0.00000 1.00000 0.00000 0.6629 0.0671
0 3.00000 -43.15455 -8.58397 -0.00000 1.00000 0.00000 0.6629 0.9329
0 -3.00000 -43.15455 -8.58397 -0.00000 1.00000 0.00000 0.6629 0.9329
p9_entry_ch0
0 3.00000 -43.15455 8.58397 0.44030 0.89785 0.00000 0.6629 0.0671
0 6.00000 -44.62573 8.87661 0.44030 0.89785 0.00000 0.6514 0.0693
0 6.00000 -44.62573 -8.87661 0.44030 0.89785 0.00000 0.6514 0.9307
p9_entry_ch0
0 3.00000 -43.15455 8.58397 0.44030 0.89785 0.00000 0.6629 0.0671
0 6.00000 -44.62573 -8.87661 0.44030 0.89785 0.00000 0.6514 0.9307
0 3.00000 -43.15455 -8.58397 0.44030 0.89785 0.00000 0.6629 0.9329
p9_entry_ch0
0 6.00000 -44.62573 8.87661 0.31074 0.95049 0.00000 0.6514 0.0693
0 9.00000 -45.60652 9.07170 0.31074 0.95049 0.00000 0.6437 0.0709
0 9.00000 -45.60652 -9.07170 0.31074 0.95049 0.00000 0.6437 0.9291
p9_entry_ch0
0 6.00000 -44.62573 8.87661 0.31074 0.95049 0.00000 0.6514 0.0693
0 9.00000 -45.60652 -9.07170 0.31074 0.95049 0.00000 0.6437 0.9291
0 6.00000 -44.62573 -8.87661 0.31074 0.95049 0.00000 0.6514 0.9307
p9_entry_clip
0 9.00000 -45.60652 9.07170 0.63284 0.77428 0.00000 0.6437 0.0709
0 12.00000 -48.05848 9.55943 0.63284 0.77428 0.00000 0.6245 0.0747
0 12.00000 -48.05848 -9.55943 0.63284 0.77428 0.00000 0.6245 0.9253
p9_entry_clip
0 9.00000 -45.60652 9.07170 0.63284 0.77428 0.00000 0.6437 0.0709
0 12.00000 -48.05848 -9.55943 0.63284 0.77428 0.00000 0.6245 0.9253
0 9.00000 -45.60652 -9.07170 0.63284 0.77428 0.00000 0.6437 0.9291
p9_entry_c0
0 12.00000 -48.05848 9.55943 0.94681 0.32179 0.00000 0.6245 0.0747
0 14.00000 -53.94319 10.72997 0.94681 0.32179 0.00000 0.5786 0.0838
0 14.00000 -53.94319 -10.72997 0.94681 0.32179 0.00000 0.5786 0.9162
p9_entry_c0
0 12.00000 -48.05848 9.55943 0.94681 0.32179 0.00000 0.6245 0.0747
0 14.00000 -53.94319 -10.72997 0.94681 0.32179 0.00000 0.5786 0.9162
0 12.00000 -48.05848 -9.55943 0.94681 0.32179 0.00000 0.6245 0.9253
p9_entry_c0
0 14.00000 -53.94319 10.72997 1.00000 0.00000 0.00000 0.5786 0.0838
0 14.00000 -66.69340 13.26614 1.00000 0.00000 0.00000 0.4790 0.1036
0 14.00000 -66.69340 -13.26614 1.00000 0.00000 0.00000 0.4790 0.8964
p9_entry_c0
0 14.00000 -53.94319 10.72997 1.00000 0.00000 0.00000 0.5786 0.0838
0 14.00000 -66.69340 -13.26614 1.00000 0.00000 0.00000 0.4790 0.8964
0 14.00000 -53.94319 -10.72997 1.00000 0.00000 0.00000 0.5786 0.9162
p9_entry_c0
0 14.00000 -66.69340 13.26614 -0.00000 -1.00000 0.00000 0.4790 0.1036
0 -14.00000 -66.69340 13.26614 -0.00000 -1.00000 0.00000 0.4790 0.1036
0 -14.00000 -66.69340 -13.26614 -0.00000 -1.00000 0.00000 0.4790 0.8964
p9_entry_c0
0 14.00000 -66.69340 13.26614 -0.00000 -1.00000 0.00000 0.4790 0.1036
0 -14.00000 -66.69340 -13.26614 -0.00000 -1.00000 0.00000 0.4790 0.8964
0 14.00000 -66.69340 -13.26614 -0.00000 -1.00000 0.00000 0.4790 0.8964
p9_entry_c0
0 -14.00000 -66.69340 -13.26614 -1.00000 0.00000 0.00000 0.4790 0.8964
0 -14.00000 -53.94319 -10.72997 -1.00000 0.00000 0.00000 0.5786 0.9162
0 -14.00000 -45.73083 -30.55636 -1.00000 0.00000 0.00000 0.6427 0.7613
p9_entry_c0
0 -14.00000 -66.69340 -13.26614 -1.00000 0.00000 0.00000 0.4790 0.8964
0 -14.00000 -45.73083 -30.55636 -1.00000 0.00000 0.00000 0.6427 0.7613
0 -14.00000 -56.53993 -37.77878 -1.00000 0.00000 0.00000 0.5583 0.7049
p9_entry_c0
0 -14.00000 -53.94319 -10.72997 -0.94681 0.29729 0.12314 0.5786 0.9162
0 -12.00000 -48.05848 -9.55943 -0.94681 0.29729 0.12314 0.6245 0.9253
0 -12.00000 -40.74201 -27.22294 -0.94681 0.29729 0.12314 0.6817 0.7873
p9_entry_c0
0 -14.00000 -53.94319 -10.72997 -0.94681 0.29729 0.12314 0.5786 0.9162
0 -12.00000 -40.74201 -27.22294 -0.94681 0.29729 0.12314 0.6817 0.7873
0 -14.00000 -45.73083 -30.55636 -0.94681 0.29729 0.12314 0.6427 0.7613
p9_entry_clip
0 -12.00000 -48.05848 -9.55943 -0.63284 0.71534 0.29631 0.6245 0.9253
0 -9.00000 -45.60652 -9.07170 -0.63284 0.71534 0.29631 0.6437 0.9291
0 -9.00000 -38.66334 -25.83402 -0.63284 0.71534 0.29631 0.6979 0.7982
p9_entry_clip
0 -12.00000 -48.05848 -9.55943 -0.63284 0.71534 0.29631 0.6245 0.9253
0 -9.00000 -38.66334 -25.83402 -0.63284 0.71534 0.29631 0.6979 0.7982
0 -12.00000 -40.74201 -27.22294 -0.63284 0.71534 0.29631 0.6817 0.7873
p9_entry_ch0
0 -9.00000 -45.60652 -9.07170 -0.31074 0.87814 0.36374 0.6437 0.9291
0 -6.00000 -44.62573 -8.87661 -0.31074 0.87814 0.36374 0.6514 0.9307
0 -6.00000 -37.83187 -25.27845 -0.31074 0.87814 0.36374 0.7044 0.8025
p9_entry_ch0
0 -9.00000 -45.60652 -9.07170 -0.31074 0.87814 0.36374 0.6437 0.9291
0 -6.00000 -37.83187 -25.27845 -0.31074 0.87814 0.36374 0.7044 0.8025
0 -9.00000 -38.66334 -25.83402 -0.31074 0.87814 0.36374 0.6979 0.7982
p9_entry_ch0
0 -6.00000 -44.62573 -8.87661 -0.44030 0.82951 0.34359 0.6514 0.9307
0 -3.00000 -43.15455 -8.58397 -0.44030 0.82951 0.34359 0.6629 0.9329
0 -3.00000 -36.58466 -24.44509 -0.44030 0.82951 0.34359 0.7142 0.8090
p9_entry_ch0
0 -6.00000 -44.62573 -8.87661 -0.44030 0.82951 0.34359 0.6514 0.9307
0 -3.00000 -36.58466 -24.44509 -0.44030 0.82951 0.34359 0.7142 0.8090
0 -6.00000 -37.83187 -25.27845 -0.44030 0.82951 0.34359 0.7044 0.8025
p9_entry_clip
0 -3.00000 -43.15455 -8.58397 -0.00000 0.92388 0.38268 0.6629 0.9329
0 3.00000 -43.15455 -8.58397 -0.00000 0.92388 0.38268 0.6629 0.9329
0 3.00000 -36.58466 -24.44509 -0.00000 0.92388 0.38268 0.7142 0.8090
p9_entry_clip
0 -3.00000 -43.15455 -8.58397 -0.00000 0.92388 0.38268 0.6629 0.9329
0 3.00000 -36.58466 -24.44509 -0.00000 0.92388 0.38268 0.7142 0.8090
0 -3.00000 -36.58466 -24.44509 -0.00000 0.92388 0.38268 0.7142 0.8090
p9_entry_ch0
0 3.00000 -43.15455 -8.58397 0.44030 0.82951 0.34359 0.6629 0.9329
0 6.00000 -44.62573 -8.87661 0.44030 0.82951 0.34359 0.6514 0.9307
0 6.00000 -37.83187 -25.27845 0.44030 0.82951 0.34359 0.7044 0.8025
p9_entry_ch0
0 3.00000 -43.15455 -8.58397 0.44030 0.82951 0.34359 0.6629 0.9329
0 6.00000 -37.83187 -25.27845 0.44030 0.82951 0.34359 0.7044 0.8025
0 3.00000 -36.58466 -24.44509 0.44030 0.82951 0.34359 0.7142 0.8090
p9_entry_ch0
0 6.00000 -44.62573 -8.87661 0.31074 0.87814 0.36374 0.6514 0.9307
0 9.00000 -45.60652 -9.07170 0.31074 0.87814 0.36374 0.6437 0.9291
0 9.00000 -38.66334 -25.83402 0.31074 0.87814 0.36374 0.6979 0.7982
p9_entry_ch0
0 6.00000 -44.62573 -8.87661 0.31074 0.87814 0.36374 0.6514 0.9307
0 9.00000 -38.66334 -25.83402 0.31074 0.87814 0.36374 0.6979 0.7982
0 6.00000 -37.83187 -25.27845 0.31074 0.87814 0.36374 0.7044 0.8025
p9_entry_clip
0 9.00000 -45.60652 -9.07170 0.63284 0.71534 0.29631 0.6437 0.9291
0 12.00000 -48.05848 -9.55943 0.63284 0.71534 0.29631 0.6245 0.9253
0 12.00000 -40.74201 -27.22294 0.63284 0.71534 0.29631 0.6817 0.7873
p9_entry_clip
0 9.00000 -45.60652 -9.07170 0.63284 0.71534 0.29631 0.6437 0.9291
0 12.00000 -40.74201 -27.22294 0.63284 0.71534 0.29631 0.6817 0.7873
0 9.00000 -38.66334 -25.83402 0.63284 0.71534 0.29631 0.6979 0.7982
p9_entry_c0
0 12.00000 -48.05848 -9.55943 0.94681 0.29729 0.12314 0.6245 0.9253
0 14.00000 -53.94319 -10.72997 0.94681 0.29729 0.12314 0.5786 0.9162
0 14.00000 -45.73083 -30.55636 0.94681 0.29729 0.12314 0.6427 0.7613
p9_entry_c0
0 12.00000 -48.05848 -9.55943 0.94681 0.29729 0.12314 0.6245 0.9253
0 14.00000 -45.73083 -30.55636 0.94681 0.29729 0.12314 0.6427 0.7613
0 12.00000 -40.74201 -27.22294 0.94681 0.29729 0.12314 0.6817 0.7873
p9_entry_c0
0 14.00000 -53.94319 -10.72997 1.00000 0.00000 0.00000 0.5786 0.9162
0 14.00000 -66.69340 -13.26614 1.00000 0.00000 0.00000 0.4790 0.8964
0 14.00000 -56.53993 -37.77878 1.00000 0.00000 0.00000 0.5583 0.7049
p9_entry_c0
0 14.00000 -53.94319 -10.72997 1.00000 0.00000 0.00000 0.5786 0.9162
0 14.00000 -56.53993 -37.77878 1.00000 0.00000 0.00000 0.5583 0.7049
0 14.00000 -45.73083 -30.55636 1.00000 0.00000 0.00000 0.6427 0.7613
p9_entry_c0
0 14.00000 -66.69340 -13.26614 -0.00000 -0.92388 -0.38268 0.4790 0.8964
0 -14.00000 -66.69340 -13.26614 -0.00000 -0.92388 -0.38268 0.4790 0.8964
0 -14.00000 -56.53993 -37.77878 -0.00000 -0.92388 -0.38268 0.5583 0.7049
p9_entry_c0
0 14.00000 -66.69340 -13.26614 -0.00000 -0.92388 -0.38268 0.4790 0.8964
0 -14.00000 -56.53993 -37.77878 -0.00000 -0.92388 -0.38268 0.5583 0.7049
0 14.00000 -56.53993 -37.77878 -0.00000 -0.92388 -0.38268 0.5583 0.7049
p9_entry_c0
0 -14.00000 -56.53993 -37.77878 -1.00000 0.00000 0.00000 0.5583 0.7049
0 -14.00000 -45.73083 -30.55636 -1.00000 0.00000 0.00000 0.6427 0.7613
0 -14.00000 -30.55636 -45.73083 -1.00000 0.00000 0.00000 0.7613 0.6427
p9_entry_c0
0 -14.00000 -56.53993 -37.77878 -1.00000 0.00000 0.00000 0.5583 0.7049
0 -14.00000 -30.55636 -45.73083 -1.00000 0.00000 0.00000 0.7613 0.6427
0 -14.00000 -37.77878 -56.53993 -1.00000 0.00000 0.00000 0.7049 0.5583
p9_entry_c0
0 -14.00000 -45.73083 -30.55636 -0.94681 0.22754 0.22754 0.6427 0.7613
0 -12.00000 -40.74201 -27.22294 -0.94681 0.22754 0.22754 0.6817 0.7873
0 -12.00000 -27.22294 -40.74201 -0.94681 0.22754 0.22754 0.7873 0.6817
p9_entry_c0
0 -14.00000 -45.73083 -30.55636 -0.94681 0.22754 0.22754 0.6427 0.7613
0 -12.00000 -27.22294 -40.74201 -0.94681 0.22754 0.22754 0.7873 0.6817
0 -14.00000 -30.55636 -45.73083 -0.94681 0.22754 0.22754 0.7613 0.6427
p9_entry_clip
0 -12.00000 -40.74201 -27.22294 -0.63284 0.54750 0.54750 0.6817 0.7873
0 -9.00000 -38.66334 -25.83402 -0.63284 0.54750 0.54750 0.6979 0.7982
0 -9.00000 -25.83402 -38.66334 -0.63284 0.54750 0.54750 0.7982 0.6979
p9_entry_clip
0 -12.00000 -40.74201 -27.22294 -0.63284 0.54750 0.54750 0.6817 0.7873
0 -9.00000 -25.83402 -38.66334 -0.63284 0.54750 0.54750 0.7982 0.6979
0 -12.00000 -27.22294 -40.74201 -0.63284 0.54750 0.54750 0.7873 0.6817
p9_entry_ch0
0 -9.00000 -38.66334 -25.83402 -0.31074 0.67210 0.67210 0.6979 0.7982
0 -6.00000 -37.83187 -25.27845 -0.31074 0.67210 0.67210 0.7044 0.8025
0 -6.00000 -25.27845 -37.83187 -0.31074 0.67210 0.67210 0.8025 0.7044
p9_entry_ch0
0 -9.00000 -38.66334 -25.83402 -0.31074 0.67210 0.67210 0.6979 0.7982
0 -6.00000 -25.27845 -37.83187 -0.31074 0.67210 0.67210 0.8025 0.7044
0 -9.00000 -25.83402 -38.66334 -0.31074 0.67210 0.67210 0.7982 0.6979
p9_entry_ch0
0 -6.00000 -37.83187 -25.27845 -0.44030 0.63488 0.63488 0.7044 0.8025
0 -3.00000 -36.58466 -24.44509 -0.44030 0.63488 0.63488 0.7142 0.8090
0 -3.00000 -24.44509 -36.58466 -0.44030 0.63488 0.63488 0.8090 0.7142
p9_entry_ch0
0 -6.00000 -37.83187 -25.27845 -0.44030 0.63488 0.63488 0.7044 0.8025
0 -3.00000 -24.44509 -36.58466 -0.44030 0.63488 0.63488 0.8090 0.7142
0 -6.00000 -25.27845 -37.83187 -0.44030 0.63488 0.63488 0.8025 0.7044
p9_entry_clip
0 -3.00000 -36.58466 -24.44509 -0.00000 0.70711 0.70711 0.7142 0.8090
0 3.00000 -36.58466 -24.44509 -0.00000 0.70711 0.70711 0.7142 0.8090
0 3.00000 -24.44509 -36.58466 -0.00000 0.70711 0.70711 0.8090 0.7142
p9_entry_clip
0 -3.00000 -36.58466 -24.44509 -0.00000 0.70711 0.70711 0.7142 0.8090
0 3.00000 -24.44509 -36.58466 -0.00000 0.70711 0.70711 0.8090 0.7142
0 -3.00000 -24.44509 -36.58466 -0.00000 0.70711 0.70711 0.8090 0.7142
p9_entry_ch0
0 3.00000 -36.58466 -24.44509 0.44030 0.63488 0.63488 0.7142 0.8090
0 6.00000 -37.83187 -25.27845 0.44030 0.63488 0.63488 0.7044 0.8025
0 6.00000 -25.27845 -37.83187 0.44030 0.63488 0.63488 0.8025 0.7044
p9_entry_ch0
0 3.00000 -36.58466 -24.44509 0.44030 0.63488 0.63488 0.7142 0.8090
0 6.00000 -25.27845 -37.83187 0.44030 0.63488 0.63488 0.8025 0.7044
0 3.00000 -24.44509 -36.58466 0.44030 0.63488 0.63488 0.8090 0.7142
p9_entry_ch0
0 6.00000 -37.83187 -25.27845 0.31074 0.67210 0.67210 0.7044 0.8025
0 9.00000 -38.66334 -25.83402 0.31074 0.67210 0.67210 0.6979 0.7982
0 9.00000 -25.83402 -38.66334 0.31074 0.67210 0.67210 0.7982 0.6979
p9_entry_ch0
0 6.00000 -37.83187 -25.27845 0.31074 0.67210 0.67210 0.7044 0.8025
0 9.00000 -25.83402 -38.66334 0.31074 0.67210 0.67210 0.7982 0.6979
0 6.00000 -25.27845 -37.83187 0.31074 0.67210 0.67210 0.8025 0.7044
p9_entry_clip
0 9.00000 -38.66334 -25.83402 0.63284 0.54750 0.54750 0.6979 0.7982
0 12.00000 -40.74201 -27.22294 0.63284 0.54750 0.54750 0.6817 0.7873
0 12.00000 -27.22294 -40.74201 0.63284 0.54750 0.54750 0.7873 0.6817
p9_entry_clip
0 9.00000 -38.66334 -25.83402 0.63284 0.54750 0.54750 0.6979 0.7982
0 12.00000 -27.22294 -40.74201 0.63284 0.54750 0.54750 0.7873 0.6817
0 9.00000 -25.83402 -38.66334 0.63284 0.54750 0.54750 0.7982 0.6979
p9_entry_c0
0 12.00000 -40.74201 -27.22294 0.94681 0.22754 0.22754 0.6817 0.7873
0 14.00000 -45.73083 -30.55636 0.94681 0.22754 0.22754 0.6427 0.7613
0 14.00000 -30.55636 -45.73083 0.94681 0.22754 0.22754 0.7613 0.6427
p9_entry_c0
0 12.00000 -40.74201 -27.22294 0.94681 0.22754 0.22754 0.6817 0.7873
0 14.00000 -30.55636 -45.73083 0.94681 0.22754 0.22754 0.7613 0.6427
0 12.00000 -27.22294 -40.74201 0.94681 0.22754 0.22754 0.7873 0.6817
p9_entry_c0
0 14.00000 -45.73083 -30.55636 1.00000 0.00000 0.00000 0.6427 0.7613
0 14.00000 -56.53993 -37.77878 1.00000 0.00000 0.00000 0.5583 0.7049
0 14.00000 -37.77878 -56.53993 1.00000 0.00000 0.00000 0.7049 0.5583
p9_entry_c0
0 14.00000 -45.73083 -30.55636 1.00000 0.00000 0.00000 0.6427 0.7613
0 14.00000 -37.77878 -56.53993 1.00000 0.00000 0.00000 0.7049 0.5583
0 14.00000 -30.55636 -45.73083 1.00000 0.00000 0.00000 0.7613 0.6427
p9_entry_c0
0 14.00000 -56.53993 -37.77878 -0.00000 -0.70711 -0.70711 0.5583 0.7049
0 -14.00000 -56.53993 -37.77878 -0.00000 -0.70711 -0.70711 0.5583 0.7049
0 -14.00000 -37.77878 -56.53993 -0.00000 -0.70711 -0.70711 0.7049 0.5583
p9_entry_c0
0 14.00000 -56.53993 -37.77878 -0.00000 -0.70711 -0.70711 0.5583 0.7049
0 -14.00000 -37.77878 -56.53993 -0.00000 -0.70711 -0.70711 0.7049 0.5583
0 14.00000 -37.77878 -56.53993 -0.00000 -0.70711 -0.70711 0.7049 0.5583
p9_entry_c0
0 -14.00000 -37.77878 -56.53993 -1.00000 0.00000 0.00000 0.7049 0.5583
0 -14.00000 -30.55636 -45.73083 -1.00000 0.00000 0.00000 0.7613 0.6427
0 -14.00000 -10.72997 -53.94319 -1.00000 0.00000 0.00000 0.9162 0.5786
p9_entry_c0
0 -14.00000 -37.77878 -56.53993 -1.00000 0.00000 0.00000 0.7049 0.5583
0 -14.00000 -10.72997 -53.94319 -1.00000 0.00000 0.00000 0.9162 0.5786
0 -14.00000 -13.26614 -66.69340 -1.00000 0.00000 0.00000 0.8964 0.4790
p9_entry_c0
0 -14.00000 -30.55636 -45.73083 -0.94681 0.12314 0.29729 0.7613 0.6427
0 -12.00000 -27.22294 -40.74201 -0.94681 0.12314 0.29729 0.7873 0.6817
0 -12.00000 -9.55943 -48.05848 -0.94681 0.12314 0.29729 0.9253 0.6245
p9_entry_c0
0 -14.00000 -30.55636 -45.73083 -0.94681 0.12314 0.29729 0.7613 0.6427
0 -12.00000 -9.55943 -48.05848 -0.94681 0.12314 0.29729 0.9253 0.6245
0 -14.00000 -10.72997 -53.94319 -0.94681 0.12314 0.29729 0.9162 0.5786
p9_entry_clip
0 -12.00000 -27.22294 -40.74201 -0.63284 0.29631 0.71534 0.7873 0.6817
0 -9.00000 -25.83402 -38.66334 -0.63284 0.29631 0.71534 0.7982 0.6979
0 -9.00000 -9.07170 -45.60652 -0.63284 0.29631 0.71534 0.9291 0.6437
p9_entry_clip
0 -12.00000 -27.22294 -40.74201 -0.63284 0.29631 0.71534 0.7873 0.6817
0 -9.00000 -9.07170 -45.60652 -0.63284 0.29631 0.71534 0.9291 0.6437
0 -12.00000 -9.55943 -48.05848 -0.63284 0.29631 0.71534 0.9253 0.6245
p9_entry_ch0
0 -9.00000 -25.83402 -38.66334 -0.31074 0.36374 0.87814 0.7982 0.6979
0 -6.00000 -25.27845 -37.83187 -0.31074 0.36374 0.87814 0.8025 0.7044
0 -6.00000 -8.87661 -44.62573 -0.31074 0.36374 0.87814 0.9307 0.6514
p9_entry_ch0
0 -9.00000 -25.83402 -38.66334 -0.31074 0.36374 0.87814 0.7982 0.6979
0 -6.00000 -8.87661 -44.62573 -0.31074 0.36374 0.87814 0.9307 0.6514
0 -9.00000 -9.07170 -45.60652 -0.31074 0.36374 0.87814 0.9291 0.6437
p9_entry_ch0
0 -6.00000 -25.27845 -37.83187 -0.44030 0.34359 0.82951 0.8025 0.7044
0 -3.00000 -24.44509 -36.58466 -0.44030 0.34359 0.82951 0.8090 0.7142
0 -3.00000 -8.58397 -43.15455 -0.44030 0.34359 0.82951 0.9329 0.6629
p9_entry_ch0
0 -6.00000 -25.27845 -37.83187 -0.44030 0.34359 0.82951 0.8025 0.7044
0 -3.00000 -8.58397 -43.15455 -0.44030 0.34359 0.82951 0.9329 0.6629
0 -6.00000 -8.87661 -44.62573 -0.44030 0.34359 0.82951 0.9307 0.6514
p9_entry_clip
0 -3.00000 -24.44509 -36.58466 -0.00000 0.38268 0.92388 0.8090 0.7142
0 3.00000 -24.44509 -36.58466 -0.00000 0.38268 0.92388 0.8090 0.7142
0 3.00000 -8.58397 -43.15455 -0.00000 0.38268 0.92388 0.9329 0.6629
p9_entry_clip
0 -3.00000 -24.44509 -36.58466 -0.00000 0.38268 0.92388 0.8090 0.7142
0 3.00000 -8.58397 -43.15455 -0.00000 0.38268 0.92388 0.9329 0.6629
0 -3.00000 -8.58397 -43.15455 -0.00000 0.38268 0.92388 0.9329 0.6629
p9_entry_ch0
0 3.00000 -24.44509 -36.58466 0.44030 0.34359 0.82951 0.8090 0.7142
0 6.00000 -25.27845 -37.83187 0.44030 0.34359 0.82951 0.8025 0.7044
0 6.00000 -8.87661 -44.62573 0.44030 0.34359 0.82951 0.9307 0.6514
p9_entry_ch0
0 3.00000 -24.44509 -36.58466 0.44030 0.34359 0.82951 0.8090 0.7142
0 6.00000 -8.87661 -44.62573 0.44030 0.34359 0.82951 0.9307 0.6514
0 3.00000 -8.58397 -43.15455 0.44030 0.34359 0.82951 0.9329 0.6629
p9_entry_ch0
0 6.00000 -25.27845 -37.83187 0.31074 0.36374 0.87814 0.8025 0.7044
0 9.00000 -25.83402 -38.66334 0.31074 0.36374 0.87814 0.7982 0.6979
0 9.00000 -9.07170 -45.60652 0.31074 0.36374 0.87814 0.9291 0.6437
p9_entry_ch0
0 6.00000 -25.27845 -37.83187 0.31074 0.36374 0.87814 0.8025 0.7044
0 9.00000 -9.07170 -45.60652 0.31074 0.36374 0.87814 0.9291 0.6437
0 6.00000 -8.87661 -44.62573 0.31074 0.36374 0.87814 0.9307 0.6514
p9_entry_clip
0 9.00000 -25.83402 -38.66334 0.63284 0.29631 0.71534 0.7982 0.6979
0 12.00000 -27.22294 -40.74201 0.63284 0.29631 0.71534 0.7873 0.6817
0 12.00000 -9.55943 -48.05848 0.63284 0.29631 0.71534 0.9253 0.6245
p9_entry_clip
0 9.00000 -25.83402 -38.66334 0.63284 0.29631 0.71534 0.7982 0.6979
0 12.00000 -9.55943 -48.05848 0.63284 0.29631 0.71534 0.9253 0.6245
0 9.00000 -9.07170 -45.60652 0.63284 0.29631 0.71534 0.9291 0.6437
p9_entry_c0
0 12.00000 -27.22294 -40.74201 0.94681 0.12314 0.29729 0.7873 0.6817
0 14.00000 -30.55636 -45.73083 0.94681 0.12314 0.29729 0.7613 0.6427
0 14.00000 -10.72997 -53.94319 0.94681 0.12314 0.29729 0.9162 0.5786
p9_entry_c0
0 12.00000 -27.22294 -40.74201 0.94681 0.12314 0.29729 0.7873 0.6817
0 14.00000 -10.72997 -53.94319 0.94681 0.12314 0.29729 0.9162 0.5786
0 12.00000 -9.55943 -48.05848 0.94681 0.12314 0.29729 0.9253 0.6245
p9_entry_c0
0 14.00000 -30.55636 -45.73083 1.00000 0.00000 0.00000 0.7613 0.6427
0 14.00000 -37.77878 -56.53993 1.00000 0.00000 0.00000 0.7049 0.5583
0 14.00000 -13.26614 -66.69340 1.00000 0.00000 0.00000 0.8964 0.4790
p9_entry_c0
0 14.00000 -30.55636 -45.73083 1.00000 0.00000 0.00000 0.7613 0.6427
0 14.00000 -13.26614 -66.69340 1.00000 0.00000 0.00000 0.8964 0.4790
0 14.00000 -10.72997 -53.94319 1.00000 0.00000 0.00000 0.9162 0.5786
p9_entry_c0
0 14.00000 -37.77878 -56.53993 -0.00000 -0.38268 -0.92388 0.7049 0.5583
0 -14.00000 -37.77878 -56.53993 -0.00000 -0.38268 -0.92388 0.7049 0.5583
0 -14.00000 -13.26614 -66.69340 -0.00000 -0.38268 -0.92388 0.8964 0.4790
p9_entry_c0
0 14.00000 -37.77878 -56.53993 -0.00000 -0.38268 -0.92388 0.7049 0.5583
0 -14.00000 -13.26614 -66.69340 -0.00000 -0.38268 -0.92388 0.8964 0.4790
0 14.00000 -13.26614 -66.69340 -0.00000 -0.38268 -0.92388 0.8964 0.4790
p9_entry_c0
0 -14.00000 -13.26614 -66.69340 -1.00000 0.00000 0.00000 0.8964 0.4790
0 -14.00000 -10.72997 -53.94319 -1.00000 0.00000 0.00000 0.9162 0.5786
0 -14.00000 10.72997 -53.94319 -1.00000 0.00000 0.00000 0.0838 0.5786
p9_entry_c0
0 -14.00000 -13.26614 -66.69340 -1.00000 0.00000 0.00000 0.8964 0.4790
0 -14.00000 10.72997 -53.94319 -1.00000 0.00000 0.00000 0.0838 0.5786
0 -14.00000 13.26614 -66.69340 -1.00000 0.00000 0.00000 0.1036 0.4790
p9_entry_c0
0 -14.00000 -10.72997 -53.94319 -0.94681 0.00000 0.32179 0.9162 0.5786
0 -12.00000 -9.55943 -48.05848 -0.94681 0.00000 0.32179 0.9253 0.6245
0 -12.00000 9.55943 -48.05848 -0.94681 0.00000 0.32179 0.0747 0.6245
p9_entry_c0
0 -14.00000 -10.72997 -53.94319 -0.94681 0.00000 0.32179 0.9162 0.5786
0 -12.00000 9.55943 -48.05848 -0.94681 0.00000 0.32179 0.0747 0.6245
0 -14.00000 10.72997 -53.94319 -0.94681 0.00000 0.32179 0.0838 0.5786
p9_entry_clip
0 -12.00000 -9.55943 -48.05848 -0.63284 0.00000 0.77428 0.9253 0.6245
0 -9.00000 -9.07170 -45.60652 -0.63284 0.00000 0.77428 0.9291 0.6437
0 -9.00000 9.07170 -45.60652 -0.63284 0.00000 0.77428 0.0709 0.6437
p9_entry_clip
0 -12.00000 -9.55943 -48.05848 -0.63284 0.00000 0.77428 0.9253 0.6245
0 -9.00000 9.07170 -45.60652 -0.63284 0.00000 0.77428 0.0709 0.6437
0 -12.00000 9.55943 -48.05848 -0.63284 0.00000 0.77428 0.0747 0.6245
p9_entry_ch0
0 -9.00000 -9.07170 -45.60652 -0.31074 0.00000 0.95049 0.9291 0.6437
0 -6.00000 -8.87661 -44.62573 -0.31074 0.00000 0.95049 0.9307 0.6514
0 -6.00000 8.87661 -44.62573 -0.31074 0.00000 0.95049 0.0693 0.6514
p9_entry_ch0
0 -9.00000 -9.07170 -45.60652 -0.31074 0.00000 0.95049 0.9291 0.6437
0 -6.00000 8.87661 -44.62573 -0.31074 0.00000 0.95049 0.0693 0.6514
0 -9.00000 9.07170 -45.60652 -0.31074 0.00000 0.95049 0.0709 0.6437
p9_entry_ch0
0 -6.00000 -8.87661 -44.62573 -0.44030 0.00000 0.89785 0.9307 0.6514
0 -3.00000 -8.58397 -43.15455 -0.44030 0.00000 0.89785 0.9329 0.6629
0 -3.00000 8.58397 -43.15455 -0.44030 0.00000 0.89785 0.0671 0.6629
p9_entry_ch0
0 -6.00000 -8.87661 -44.62573 -0.44030 0.00000 0.89785 0.9307 0.6514
0 -3.00000 8.58397 -43.15455 -0.44030 0.00000 0.89785 0.0671 0.6629
0 -6.00000 8.87661 -44.62573 -0.44030 0.00000 0.89785 0.0693 0.6514
p9_entry_clip
0 -3.00000 -8.58397 -43.15455 -0.00000 0.00000 1.00000 0.9329 0.6629
0 3.00000 -8.58397 -43.15455 -0.00000 0.00000 1.00000 0.9329 0.6629
0 3.00000 8.58397 -43.15455 -0.00000 0.00000 1.00000 0.0671 0.6629
p9_entry_clip
0 -3.00000 -8.58397 -43.15455 -0.00000 0.00000 1.00000 0.9329 0.6629
0 3.00000 8.58397 -43.15455 -0.00000 0.00000 1.00000 0.0671 0.6629
0 -3.00000 8.58397 -43.15455 -0.00000 0.00000 1.00000 0.0671 0.6629
p9_entry_ch0
0 3.00000 -8.58397 -43.15455 0.44030 0.00000 0.89785 0.9329 0.6629
0 6.00000 -8.87661 -44.62573 0.44030 0.00000 0.89785 0.9307 0.6514
0 6.00000 8.87661 -44.62573 0.44030 0.00000 0.89785 0.0693 0.6514
p9_entry_ch0
0 3.00000 -8.58397 -43.15455 0.44030 0.00000 0.89785 0.9329 0.6629
0 6.00000 8.87661 -44.62573 0.44030 0.00000 0.89785 0.0693 0.6514
0 3.00000 8.58397 -43.15455 0.44030 0.00000 0.89785 0.0671 0.6629
p9_entry_ch0
0 6.00000 -8.87661 -44.62573 0.31074 0.00000 0.95049 0.9307 0.6514
0 9.00000 -9.07170 -45.60652 0.31074 0.00000 0.95049 0.9291 0.6437
0 9.00000 9.07170 -45.60652 0.31074 0.00000 0.95049 0.0709 0.6437
p9_entry_ch0
0 6.00000 -8.87661 -44.62573 0.31074 0.00000 0.95049 0.9307 0.6514
0 9.00000 9.07170 -45.60652 0.31074 0.00000 0.95049 0.0709 0.6437
0 6.00000 8.87661 -44.62573 0.31074 0.00000 0.95049 0.0693 0.6514
p9_entry_clip
0 9.00000 -9.07170 -45.60652 0.63284 0.00000 0.77428 0.9291 0.6437
0 12.00000 -9.55943 -48.05848 0.63284 0.00000 0.77428 0.9253 0.6245
0 12.00000 9.55943 -48.05848 0.63284 0.00000 0.77428 0.0747 0.6245
p9_entry_clip
0 9.00000 -9.07170 -45.60652 0.63284 0.00000 0.77428 0.9291 0.6437
0 12.00000 9.55943 -48.05848 0.63284 0.00000 0.77428 0.0747 0.6245
0 9.00000 9.07170 -45.60652 0.63284 0.00000 0.77428 0.0709 0.6437
p9_entry_c0
0 12.00000 -9.55943 -48.05848 0.94681 0.00000 0.32179 0.9253 0.6245
0 14.00000 -10.72997 -53.94319 0.94681 0.00000 0.32179 0.9162 0.5786
0 14.00000 10.72997 -53.94319 0.94681 0.00000 0.32179 0.0838 0.5786
p9_entry_c0
0 12.00000 -9.55943 -48.05848 0.94681 0.00000 0.32179 0.9253 0.6245
0 14.00000 10.72997 -53.94319 0.94681 0.00000 0.32179 0.0838 0.5786
0 12.00000 9.55943 -48.05848 0.94681 0.00000 0.32179 0.0747 0.6245
p9_entry_c0
0 14.00000 -10.72997 -53.94319 1.00000 0.00000 0.00000 0.9162 0.5786
0 14.00000 -13.26614 -66.69340 1.00000 0.00000 0.00000 0.8964 0.4790
0 14.00000 13.26614 -66.69340 1.00000 0.00000 0.00000 0.1036 0.4790
p9_entry_c0
0 14.00000 -10.72997 -53.94319 1.00000 0.00000 0.00000 0.9162 0.5786
0 14.00000 13.26614 -66.69340 1.00000 0.00000 0.00000 0.1036 0.4790
0 14.00000 10.72997 -53.94319 1.00000 0.00000 0.00000 0.0838 0.5786
p9_entry_c0
0 14.00000 -13.26614 -66.69340 -0.00000 -0.00000 -1.00000 0.8964 0.4790
0 -14.00000 -13.26614 -66.69340 -0.00000 -0.00000 -1.00000 0.8964 0.4790
0 -14.00000 13.26614 -66.69340 -0.00000 -0.00000 -1.00000 0.1036 0.4790
p9_entry_c0
0 14.00000 -13.26614 -66.69340 -0.00000 -0.00000 -1.00000 0.8964 0.4790
0 -14.00000 13.26614 -66.69340 -0.00000 -0.00000 -1.00000 0.1036 0.4790
0 14.00000 13.26614 -66.69340 -0.00000 -0.00000 -1.00000 0.1036 0.4790
p9_entry_c0
0 -14.00000 13.26614 -66.69340 -1.00000 0.00000 0.00000 0.1036 0.4790
0 -14.00000 10.72997 -53.94319 -1.00000 0.00000 0.00000 0.0838 0.5786
0 -14.00000 30.55636 -45.73083 -1.00000 0.00000 0.00000 0.2387 0.6427
p9_entry_c0
0 -14.00000 13.26614 -66.69340 -1.00000 0.00000 0.00000 0.1036 0.4790
0 -14.00000 30.55636 -45.73083 -1.00000 0.00000 0.00000 0.2387 0.6427
0 -14.00000 37.77878 -56.53993 -1.00000 0.00000 0.00000 0.2951 0.5583
p9_entry_c0
0 -14.00000 10.72997 -53.94319 -0.94681 -0.12314 0.29729 0.0838 0.5786
0 -12.00000 9.55943 -48.05848 -0.94681 -0.12314 0.29729 0.0747 0.6245
0 -12.00000 27.22294 -40.74201 -0.94681 -0.12314 0.29729 0.2127 0.6817
p9_entry_c0
0 -14.00000 10.72997 -53.94319 -0.94681 -0.12314 0.29729 0.0838 0.5786
0 -12.00000 27.22294 -40.74201 -0.94681 -0.12314 0.29729 0.2127 0.6817
0 -14.00000 30.55636 -45.73083 -0.94681 -0.12314 0.29729 0.2387 0.6427
p9_entry_clip
0 -12.00000 9.55943 -48.05848 -0.63284 -0.29631 0.71534 0.0747 0.6245
0 -9.00000 9.07170 -45.60652 -0.63284 -0.29631 0.71534 0.0709 0.6437
0 -9.00000 25.83402 -38.66334 -0.63284 -0.29631 0.71534 0.2018 0.6979
p9_entry_clip
0 -12.00000 9.55943 -48.05848 -0.63284 -0.29631 0.71534 0.0747 0.6245
0 -9.00000 25.83402 -38.66334 -0.63284 -0.29631 0.71534 0.2018 0.6979
0 -12.00000 27.22294 -40.74201 -0.63284 -0.29631 0.71534 0.2127 0.6817
p9_entry_ch0
0 -9.00000 9.07170 -45.60652 -0.31074 -0.36374 0.87814 0.0709 0.6437
0 -6.00000 8.87661 -44.62573 -0.31074 -0.36374 0.87814 0.0693 0.6514
0 -6.00000 25.27845 -37.83187 -0.31074 -0.36374 0.87814 0.1975 0.7044
p9_entry_ch0
0 -9.00000 9.07170 -45.60652 -0.31074 -0.36374 0.87814 0.0709 0.6437
0 -6.00000 25.27845 -37.83187 -0.31074 -0.36374 0.87814 0.1975 0.7044
0 -9.00000 25.83402 -38.66334 -0.31074 -0.36374 0.87814 0.2018 0.6979
p9_entry_ch0
0 -6.00000 8.87661 -44.62573 -0.44030 -0.34359 0.82951 0.0693 0.6514
0 -3.00000 8.58397 -43.15455 -0.44030 -0.34359 0.82951 0.0671 0.6629
0 -3.00000 24.44509 -36.58466 -0.44030 -0.34359 0.82951 0.1910 0.7142
p9_entry_ch0
0 -6.00000 8.87661 -44.62573 -0.44030 -0.34359 0.82951 0.0693 0.6514
0 -3.00000 24.44509 -36.58466 -0.44030 -0.34359 0.82951 0.1910 0.7142
0 -6.00000 25.27845 -37.83187 -0.44030 -0.34359 0.82951 0.1975 0.7044
p9_entry_clip
0 -3.00000 8.58397 -43.15455 0.00000 -0.38268 0.92388 0.0671 0.6629
0 3.00000 8.58397 -43.15455 0.00000 -0.38268 0.92388 0.0671 0.6629
0 3.00000 24.44509 -36.58466 0.00000 -0.38268 0.92388 0.1910 0.7142
p9_entry_clip
0 -3.00000 8.58397 -43.15455 0.00000 -0.38268 0.92388 0.0671 0.6629
0 3.00000 24.44509 -36.58466 0.00000 -0.38268 0.92388 0.1910 0.7142
0 -3.00000 24.44509 -36.58466 0.00000 -0.38268 0.92388 0.1910 0.7142
p9_entry_ch0
0 3.00000 8.58397 -43.15455 0.44030 -0.34359 0.82951 0.0671 0.6629
0 6.00000 8.87661 -44.62573 0.44030 -0.34359 0.82951 0.0693 0.6514
0 6.00000 25.27845 -37.83187 0.44030 -0.34359 0.82951 0.1975 0.7044
p9_entry_ch0
0 3.00000 8.58397 -43.15455 0.44030 -0.34359 0.82951 0.0671 0.6629
0 6.00000 25.27845 -37.83187 0.44030 -0.34359 0.82951 0.1975 0.7044
0 3.00000 24.44509 -36.58466 0.44030 -0.34359 0.82951 0.1910 0.7142
p9_entry_ch0
0 6.00000 8.87661 -44.62573 0.31074 -0.36374 0.87814 0.0693 0.6514
0 9.00000 9.07170 -45.60652 0.31074 -0.36374 0.87814 0.0709 0.6437
0 9.00000 25.83402 -38.66334 0.31074 -0.36374 0.87814 0.2018 0.6979
p9_entry_ch0
0 6.00000 8.87661 -44.62573 0.31074 -0.36374 0.87814 0.0693 0.6514
0 9.00000 25.83402 -38.66334 0.31074 -0.36374 0.87814 0.2018 0.6979
0 6.00000 25.27845 -37.83187 0.31074 -0.36374 0.87814 0.1975 0.7044
p9_entry_clip
0 9.00000 9.07170 -45.60652 0.63284 -0.29631 0.71534 0.0709 0.6437
0 12.00000 9.55943 -48.05848 0.63284 -0.29631 0.71534 0.0747 0.6245
0 12.00000 27.22294 -40.74201 0.63284 -0.29631 0.71534 0.2127 0.6817
p9_entry_clip
0 9.00000 9.07170 -45.60652 0.63284 -0.29631 0.71534 0.0709 0.6437
0 12.00000 27.22294 -40.74201 0.63284 -0.29631 0.71534 0.2127 0.6817
0 9.00000 25.83402 -38.66334 0.63284 -0.29631 0.71534 0.2018 0.6979
p9_entry_c0
0 12.00000 9.55943 -48.05848 0.94681 -0.12314 0.29729 0.0747 0.6245
0 14.00000 10.72997 -53.94319 0.94681 -0.12314 0.29729 0.0838 0.5786
0 14.00000 30.55636 -45.73083 0.94681 -0.12314 0.29729 0.2387 0.6427
p9_entry_c0
0 12.00000 9.55943 -48.05848 0.94681 -0.12314 0.29729 0.0747 0.6245
0 14.00000 30.55636 -45.73083 0.94681 -0.12314 0.29729 0.2387 0.6427
0 12.00000 27.22294 -40.74201 0.94681 -0.12314 0.29729 0.2127 0.6817
p9_entry_c0
0 14.00000 10.72997 -53.94319 1.00000 0.00000 0.00000 0.0838 0.5786
0 14.00000 13.26614 -66.69340 1.00000 0.00000 0.00000 0.1036 0.4790
0 14.00000 37.77878 -56.53993 1.00000 0.00000 0.00000 0.2951 0.5583
p9_entry_c0
0 14.00000 10.72997 -53.94319 1.00000 0.00000 0.00000 0.0838 0.5786
0 14.00000 37.77878 -56.53993 1.00000 0.00000 0.00000 0.2951 0.5583
0 14.00000 30.55636 -45.73083 1.00000 0.00000 0.00000 0.2387 0.6427
p9_entry_c0
0 14.00000 13.26614 -66.69340 0.00000 0.38268 -0.92388 0.1036 0.4790
0 -14.00000 13.26614 -66.69340 0.00000 0.38268 -0.92388 0.1036 0.4790
0 -14.00000 37.77878 -56.53993 0.00000 0.38268 -0.92388 0.2951 0.5583
p9_entry_c0
0 14.00000 13.26614 -66.69340 0.00000 0.38268 -0.92388 0.1036 0.4790
0 -14.00000 37.77878 -56.53993 0.00000 0.38268 -0.92388 0.2951 0.5583
0 14.00000 37.77878 -56.53993 0.00000 0.38268 -0.92388 0.2951 0.5583
p9_entry_c1
0 -14.00000 37.77878 -56.53993 -1.00000 0.00000 0.00000 0.2951 0.5583
0 -14.00000 30.55636 -45.73083 -1.00000 0.00000 0.00000 0.2387 0.6427
0 -14.00000 45.73083 -30.55636 -1.00000 0.00000 0.00000 0.3573 0.7613
p9_entry_c1
0 -14.00000 37.77878 -56.53993 -1.00000 0.00000 0.00000 0.2951 0.5583
0 -14.00000 45.73083 -30.55636 -1.00000 0.00000 0.00000 0.3573 0.7613
0 -14.00000 56.53993 -37.77878 -1.00000 0.00000 0.00000 0.4417 0.7049
p9_entry_c1
0 -14.00000 30.55636 -45.73083 -0.94681 -0.22754 0.22754 0.2387 0.6427
0 -12.00000 27.22294 -40.74201 -0.94681 -0.22754 0.22754 0.2127 0.6817
0 -12.00000 40.74201 -27.22294 -0.94681 -0.22754 0.22754 0.3183 0.7873
p9_entry_c1
0 -14.00000 30.55636 -45.73083 -0.94681 -0.22754 0.22754 0.2387 0.6427
0 -12.00000 40.74201 -27.22294 -0.94681 -0.22754 0.22754 0.3183 0.7873
0 -14.00000 45.73083 -30.55636 -0.94681 -0.22754 0.22754 0.3573 0.7613
p9_entry_clip
0 -12.00000 27.22294 -40.74201 -0.63284 -0.54750 0.54750 0.2127 0.6817
0 -9.00000 25.83402 -38.66334 -0.63284 -0.54750 0.54750 0.2018 0.6979
0 -9.00000 38.66334 -25.83402 -0.63284 -0.54750 0.54750 0.3021 0.7982
p9_entry_clip
0 -12.00000 27.22294 -40.74201 -0.63284 -0.54750 0.54750 0.2127 0.6817
0 -9.00000 38.66334 -25.83402 -0.63284 -0.54750 0.54750 0.3021 0.7982
0 -12.00000 40.74201 -27.22294 -0.63284 -0.54750 0.54750 0.3183 0.7873
p9_entry_ch1
0 -9.00000 25.83402 -38.66334 -0.31074 -0.67210 0.67210 0.2018 0.6979
0 -6.00000 25.27845 -37.83187 -0.31074 -0.67210 0.67210 0.1975 0.7044
0 -6.00000 37.83187 -25.27845 -0.31074 -0.67210 0.67210 0.2956 0.8025
p9_entry_ch1
0 -9.00000 25.83402 -38.66334 -0.31074 -0.67210 0.67210 0.2018 0.6979
0 -6.00000 37.83187 -25.27845 -0.31074 -0.67210 0.67210 0.2956 0.8025
0 -9.00000 38.66334 -25.83402 -0.31074 -0.67210 0.67210 0.3021 0.7982
p9_entry_ch1
0 -6.00000 25.27845 -37.83187 -0.44030 -0.63488 0.63488 0.1975 0.7044
0 -3.00000 24.44509 -36.58466 -0.44030 -0.63488 0.63488 0.1910 0.7142
0 -3.00000 36.58466 -24.44509 -0.44030 -0.63488 0.63488 0.2858 0.8090
p9_entry_ch1
0 -6.00000 25.27845 -37.83187 -0.44030 -0.63488 0.63488 0.1975 0.7044
0 -3.00000 36.58466 -24.44509 -0.44030 -0.63488 0.63488 0.2858 0.8090
0 -6.00000 37.83187 -25.27845 -0.44030 -0.63488 0.63488 0.2956 0.8025
p9_entry_clip
0 -3.00000 24.44509 -36.58466 0.00000 -0.70711 0.70711 0.1910 0.7142
0 3.00000 24.44509 -36.58466 0.00000 -0.70711 0.70711 0.1910 0.7142
0 3.00000 36.58466 -24.44509 0.00000 -0.70711 0.70711 0.2858 0.8090
p9_entry_clip
0 -3.00000 24.44509 -36.58466 0.00000 -0.70711 0.70711 0.1910 0.7142
0 3.00000 36.58466 -24.44509 0.00000 -0.70711 0.70711 0.2858 0.8090
0 -3.00000 36.58466 -24.44509 0.00000 -0.70711 0.70711 0.2858 0.8090
p9_entry_ch1
0 3.00000 24.44509 -36.58466 0.44030 -0.63488 0.63488 0.1910 0.7142
0 6.00000 25.27845 -37.83187 0.44030 -0.63488 0.63488 0.1975 0.7044
0 6.00000 37.83187 -25.27845 0.44030 -0.63488 0.63488 0.2956 0.8025
p9_entry_ch1
0 3.00000 24.44509 -36.58466 0.44030 -0.63488 0.63488 0.1910 0.7142
0 6.00000 37.83187 -25.27845 0.44030 -0.63488 0.63488 0.2956 0.8025
0 3.00000 36.58466 -24.44509 0.44030 -0.63488 0.63488 0.2858 0.8090
p9_entry_ch1
0 6.00000 25.27845 -37.83187 0.31074 -0.67210 0.67210 0.1975 0.7044
0 9.00000 25.83402 -38.66334 0.31074 -0.67210 0.67210 0.2018 0.6979
0 9.00000 38.66334 -25.83402 0.31074 -0.67210 0.67210 0.3021 0.7982
p9_entry_ch1
0 6.00000 25.27845 -37.83187 0.31074 -0.67210 0.67210 0.1975 0.7044
0 9.00000 38.66334 -25.83402 0.31074 -0.67210 0.67210 0.3021 0.7982
0 6.00000 37.83187 -25.27845 0.31074 -0.67210 0.67210 0.2956 0.8025
p9_entry_clip
0 9.00000 25.83402 -38.66334 0.63284 -0.54750 0.54750 0.2018 0.6979
0 12.00000 27.22294 -40.74201 0.63284 -0.54750 0.54750 0.2127 0.6817
0 12.00000 40.74201 -27.22294 0.63284 -0.54750 0.54750 0.3183 0.7873
p9_entry_clip
0 9.00000 25.83402 -38.66334 0.63284 -0.54750 0.54750 0.2018 0.6979
0 12.00000 40.74201 -27.22294 0.63284 -0.54750 0.54750 0.3183 0.7873
0 9.00000 38.66334 -25.83402 0.63284 -0.54750 0.54750 0.3021 0.7982
p9_entry_c1
0 12.00000 27.22294 -40.74201 0.94681 -0.22754 0.22754 0.2127 0.6817
0 14.00000 30.55636 -45.73083 0.94681 -0.22754 0.22754 0.2387 0.6427
0 14.00000 45.73083 -30.55636 0.94681 -0.22754 0.22754 0.3573 0.7613
p9_entry_c1
0 12.00000 27.22294 -40.74201 0.94681 -0.22754 0.22754 0.2127 0.6817
0 14.00000 45.73083 -30.55636 0.94681 -0.22754 0.22754 0.3573 0.7613
0 12.00000 40.74201 -27.22294 0.94681 -0.22754 0.22754 0.3183 0.7873
p9_entry_c1
0 14.00000 30.55636 -45.73083 1.00000 -0.00000 0.00000 0.2387 0.6427
0 14.00000 37.77878 -56.53993 1.00000 -0.00000 0.00000 0.2951 0.5583
0 14.00000 56.53993 -37.77878 1.00000 -0.00000 0.00000 0.4417 0.7049
p9_entry_c1
0 14.00000 30.55636 -45.73083 1.00000 -0.00000 0.00000 0.2387 0.6427
0 14.00000 56.53993 -37.77878 1.00000 -0.00000 0.00000 0.4417 0.7049
0 14.00000 45.73083 -30.55636 1.00000 -0.00000 0.00000 0.3573 0.7613
p9_entry_c1
0 14.00000 37.77878 -56.53993 0.00000 0.70711 -0.70711 0.2951 0.5583
0 -14.00000 37.77878 -56.53993 0.00000 0.70711 -0.70711 0.2951 0.5583
0 -14.00000 56.53993 -37.77878 0.00000 0.70711 -0.70711 0.4417 0.7049
p9_entry_c1
0 14.00000 37.77878 -56.53993 0.00000 0.70711 -0.70711 0.2951 0.5583
0 -14.00000 56.53993 -37.77878 0.00000 0.70711 -0.70711 0.4417 0.7049
0 14.00000 56.53993 -37.77878 0.00000 0.70711 -0.70711 0.4417 0.7049
p9_entry_c1
0 -14.00000 56.53993 -37.77878 -1.00000 0.00000 0.00000 0.4417 0.7049
0 -14.00000 45.73083 -30.55636 -1.00000 0.00000 0.00000 0.3573 0.7613
0 -14.00000 53.94319 -10.72997 -1.00000 0.00000 0.00000 0.4214 0.9162
p9_entry_c1
0 -14.00000 56.53993 -37.77878 -1.00000 0.00000 0.00000 0.4417 0.7049
0 -14.00000 53.94319 -10.72997 -1.00000 0.00000 0.00000 0.4214 0.9162
0 -14.00000 66.69340 -13.26614 -1.00000 0.00000 0.00000 0.5210 0.8964
p9_entry_c1
0 -14.00000 45.73083 -30.55636 -0.94681 -0.29729 0.12314 0.3573 0.7613
0 -12.00000 40.74201 -27.22294 -0.94681 -0.29729 0.12314 0.3183 0.7873
0 -12.00000 48.05848 -9.55943 -0.94681 -0.29729 0.12314 0.3755 0.9253
p9_entry_c1
0 -14.00000 45.73083 -30.55636 -0.94681 -0.29729 0.12314 0.3573 0.7613
0 -12.00000 48.05848 -9.55943 -0.94681 -0.29729 0.12314 0.3755 0.9253
0 -14.00000 53.94319 -10.72997 -0.94681 -0.29729 0.12314 0.4214 0.9162
p9_entry_clip
0 -12.00000 40.74201 -27.22294 -0.63284 -0.71534 0.29631 0.3183 0.7873
0 -9.00000 38.66334 -25.83402 -0.63284 -0.71534 0.29631 0.3021 0.7982
0 -9.00000 45.60652 -9.07170 -0.63284 -0.71534 0.29631 0.3563 0.9291
p9_entry_clip
0 -12.00000 40.74201 -27.22294 -0.63284 -0.71534 0.29631 0.3183 0.7873
0 -9.00000 45.60652 -9.07170 -0.63284 -0.71534 0.29631 0.3563 0.9291
0 -12.00000 48.05848 -9.55943 -0.63284 -0.71534 0.29631 0.3755 0.9253
p9_entry_ch1
0 -9.00000 38.66334 -25.83402 -0.31074 -0.87814 0.36374 0.3021 0.7982
0 -6.00000 37.83187 -25.27845 -0.31074 -0.87814 0.36374 0.2956 0.8025
0 -6.00000 44.62573 -8.87661 -0.31074 -0.87814 0.36374 0.3486 0.9307
p9_entry_ch1
0 -9.00000 38.66334 -25.83402 -0.31074 -0.87814 0.36374 0.3021 0.7982
0 -6.00000 44.62573 -8.87661 -0.31074 -0.87814 0.36374 0.3486 0.9307
0 -9.00000 45.60652 -9.07170 -0.31074 -0.87814 0.36374 0.3563 0.9291
p9_entry_ch1
0 -6.00000 37.83187 -25.27845 -0.44030 -0.82951 0.34359 0.2956 0.8025
0 -3.00000 36.58466 -24.44509 -0.44030 -0.82951 0.34359 0.2858 0.8090
0 -3.00000 43.15455 -8.58397 -0.44030 -0.82951 0.34359 0.3371 0.9329
p9_entry_ch1
0 -6.00000 37.83187 -25.27845 -0.44030 -0.82951 0.34359 0.2956 0.8025
0 -3.00000 43.15455 -8.58397 -0.44030 -0.82951 0.34359 0.3371 0.9329
0 -6.00000 44.62573 -8.87661 -0.44030 -0.82951 0.34359 0.3486 0.9307
p9_entry_clip
0 -3.00000 36.58466 -24.44509 0.00000 -0.92388 0.38268 0.2858 0.8090
0 3.00000 36.58466 -24.44509 0.00000 -0.92388 0.38268 0.2858 0.8090
0 3.00000 43.15455 -8.58397 0.00000 -0.92388 0.38268 0.3371 0.9329
p9_entry_clip
0 -3.00000 36.58466 -24.44509 0.00000 -0.92388 0.38268 0.2858 0.8090
0 3.00000 43.15455 -8.58397 0.00000 -0.92388 0.38268 0.3371 0.9329
0 -3.00000 43.15455 -8.58397 0.00000 -0.92388 0.38268 0.3371 0.9329
p9_entry_ch1
0 3.00000 36.58466 -24.44509 0.44030 -0.82951 0.34359 0.2858 0.8090
0 6.00000 37.83187 -25.27845 0.44030 -0.82951 0.34359 0.2956 0.8025
0 6.00000 44.62573 -8.87661 0.44030 -0.82951 0.34359 0.3486 0.9307
p9_entry_ch1
0 3.00000 36.58466 -24.44509 0.44030 -0.82951 0.34359 0.2858 0.8090
0 6.00000 44.62573 -8.87661 0.44030 -0.82951 0.34359 0.3486 0.9307
0 3.00000 43.15455 -8.58397 0.44030 -0.82951 0.34359 0.3371 0.9329
p9_entry_ch1
0 6.00000 37.83187 -25.27845 0.31074 -0.87814 0.36374 0.2956 0.8025
0 9.00000 38.66334 -25.83402 0.31074 -0.87814 0.36374 0.3021 0.7982
0 9.00000 45.60652 -9.07170 0.31074 -0.87814 0.36374 0.3563 0.9291
p9_entry_ch1
0 6.00000 37.83187 -25.27845 0.31074 -0.87814 0.36374 0.2956 0.8025
0 9.00000 45.60652 -9.07170 0.31074 -0.87814 0.36374 0.3563 0.9291
0 6.00000 44.62573 -8.87661 0.31074 -0.87814 0.36374 0.3486 0.9307
p9_entry_clip
0 9.00000 38.66334 -25.83402 0.63284 -0.71534 0.29631 0.3021 0.7982
0 12.00000 40.74201 -27.22294 0.63284 -0.71534 0.29631 0.3183 0.7873
0 12.00000 48.05848 -9.55943 0.63284 -0.71534 0.29631 0.3755 0.9253
p9_entry_clip
0 9.00000 38.66334 -25.83402 0.63284 -0.71534 0.29631 0.3021 0.7982
0 12.00000 48.05848 -9.55943 0.63284 -0.71534 0.29631 0.3755 0.9253
0 9.00000 45.60652 -9.07170 0.63284 -0.71534 0.29631 0.3563 0.9291
p9_entry_c1
0 12.00000 40.74201 -27.22294 0.94681 -0.29729 0.12314 0.3183 0.7873
0 14.00000 45.73083 -30.55636 0.94681 -0.29729 0.12314 0.3573 0.7613
0 14.00000 53.94319 -10.72997 0.94681 -0.29729 0.12314 0.4214 0.9162
p9_entry_c1
0 12.00000 40.74201 -27.22294 0.94681 -0.29729 0.12314 0.3183 0.7873
0 14.00000 53.94319 -10.72997 0.94681 -0.29729 0.12314 0.4214 0.9162
0 12.00000 48.05848 -9.55943 0.94681 -0.29729 0.12314 0.3755 0.9253
p9_entry_c1
0 14.00000 45.73083 -30.55636 1.00000 -0.00000 0.00000 0.3573 0.7613
0 14.00000 56.53993 -37.77878 1.00000 -0.00000 0.00000 0.4417 0.7049
0 14.00000 66.69340 -13.26614 1.00000 -0.00000 0.00000 0.5210 0.8964
p9_entry_c1
0 14.00000 45.73083 -30.55636 1.00000 -0.00000 0.00000 0.3573 0.7613
0 14.00000 66.69340 -13.26614 1.00000 -0.00000 0.00000 0.5210 0.8964
0 14.00000 53.94319 -10.72997 1.00000 -0.00000 0.00000 0.4214 0.9162
p9_entry_c1
0 14.00000 56.53993 -37.77878 0.00000 0.92388 -0.38268 0.4417 0.7049
0 -14.00000 56.53993 -37.77878 0.00000 0.92388 -0.38268 0.4417 0.7049
0 -14.00000 66.69340 -13.26614 0.00000 0.92388 -0.38268 0.5210 0.8964
p9_entry_c1
0 14.00000 56.53993 -37.77878 0.00000 0.92388 -0.38268 0.4417 0.7049
0 -14.00000 66.69340 -13.26614 0.00000 0.92388 -0.38268 0.5210 0.8964
0 14.00000 66.69340 -13.26614 0.00000 0.92388 -0.38268 0.5210 0.8964
p9_entry_c2
0 -14.00000 66.69340 -13.26614 -1.00000 0.00000 0.00000 0.5210 0.8964
0 -14.00000 53.94319 -10.72997 -1.00000 0.00000 0.00000 0.4214 0.9162
0 -14.00000 53.94319 10.72997 -1.00000 0.00000 0.00000 0.4214 0.0838
p9_entry_c2
0 -14.00000 66.69340 -13.26614 -1.00000 0.00000 0.00000 0.5210 0.8964
0 -14.00000 53.94319 10.72997 -1.00000 0.00000 0.00000 0.4214 0.0838
0 -14.00000 66.69340 13.26614 -1.00000 0.00000 0.00000 0.5210 0.1036
p9_entry_c2
0 -14.00000 53.94319 -10.72997 -0.94681 -0.32179 0.00000 0.4214 0.9162
0 -12.00000 48.05848 -9.55943 -0.94681 -0.32179 0.00000 0.3755 0.9253
0 -12.00000 48.05848 9.55943 -0.94681 -0.32179 0.00000 0.3755 0.0747
p9_entry_c2
0 -14.00000 53.94319 -10.72997 -0.94681 -0.32179 0.00000 0.4214 0.9162
0 -12.00000 48.05848 9.55943 -0.94681 -0.32179 0.00000 0.3755 0.0747
0 -14.00000 53.94319 10.72997 -0.94681 -0.32179 0.00000 0.4214 0.0838
p9_entry_clip
0 -12.00000 48.05848 -9.55943 -0.63284 -0.77428 0.00000 0.3755 0.9253
0 -9.00000 45.60652 -9.07170 -0.63284 -0.77428 0.00000 0.3563 0.9291
0 -9.00000 45.60652 9.07170 -0.63284 -0.77428 0.00000 0.3563 0.0709
p9_entry_clip
0 -12.00000 48.05848 -9.55943 -0.63284 -0.77428 0.00000 0.3755 0.9253
0 -9.00000 45.60652 9.07170 -0.63284 -0.77428 0.00000 0.3563 0.0709
0 -12.00000 48.05848 9.55943 -0.63284 -0.77428 0.00000 0.3755 0.0747
p9_entry_ch2
0 -9.00000 45.60652 -9.07170 -0.31074 -0.95049 0.00000 0.3563 0.9291
0 -6.00000 44.62573 -8.87661 -0.31074 -0.95049 0.00000 0.3486 0.9307
0 -6.00000 44.62573 8.87661 -0.31074 -0.95049 0.00000 0.3486 0.0693
p9_entry_ch2
0 -9.00000 45.60652 -9.07170 -0.31074 -0.95049 0.00000 0.3563 0.9291
0 -6.00000 44.62573 8.87661 -0.31074 -0.95049 0.00000 0.3486 0.0693
0 -9.00000 45.60652 9.07170 -0.31074 -0.95049 0.00000 0.3563 0.0709
p9_entry_ch2
0 -6.00000 44.62573 -8.87661 -0.44030 -0.89785 0.00000 0.3486 0.9307
0 -3.00000 43.15455 -8.58397 -0.44030 -0.89785 0.00000 0.3371 0.9329
0 -3.00000 43.15455 8.58397 -0.44030 -0.89785 0.00000 0.3371 0.0671
p9_entry_ch2
0 -6.00000 44.62573 -8.87661 -0.44030 -0.89785 0.00000 0.3486 0.9307
0 -3.00000 43.15455 8.58397 -0.44030 -0.89785 0.00000 0.3371 0.0671
0 -6.00000 44.62573 8.87661 -0.44030 -0.89785 0.00000 0.3486 0.0693
p9_entry_clip
0 -3.00000 43.15455 -8.58397 0.00000 -1.00000 0.00000 0.3371 0.9329
0 3.00000 43.15455 -8.58397 0.00000 -1.00000 0.00000 0.3371 0.9329
0 3.00000 43.15455 8.58397 0.00000 -1.00000 0.00000 0.3371 0.0671
p9_entry_clip
0 -3.00000 43.15455 -8.58397 0.00000 -1.00000 0.00000 0.3371 0.9329
0 3.00000 43.15455 8.58397 0.00000 -1.00000 0.00000 0.3371 0.0671
0 -3.00000 43.15455 8.58397 0.00000 -1.00000 0.00000 0.3371 0.0671
p9_entry_ch2
0 3.00000 43.15455 -8.58397 0.44030 -0.89785 0.00000 0.3371 0.9329
0 6.00000 44.62573 -8.87661 0.44030 -0.89785 0.00000 0.3486 0.9307
0 6.00000 44.62573 8.87661 0.44030 -0.89785 0.00000 0.3486 0.0693
p9_entry_ch2
0 3.00000 43.15455 -8.58397 0.44030 -0.89785 0.00000 0.3371 0.9329
0 6.00000 44.62573 8.87661 0.44030 -0.89785 0.00000 0.3486 0.0693
0 3.00000 43.15455 8.58397 0.44030 -0.89785 0.00000 0.3371 0.0671
p9_entry_ch2
0 6.00000 44.62573 -8.87661 0.31074 -0.95049 0.00000 0.3486 0.9307
0 9.00000 45.60652 -9.07170 0.31074 -0.95049 0.00000 0.3563 0.9291
0 9.00000 45.60652 9.07170 0.31074 -0.95049 0.00000 0.3563 0.0709
p9_entry_ch2
0 6.00000 44.62573 -8.87661 0.31074 -0.95049 0.00000 0.3486 0.9307
0 9.00000 45.60652 9.07170 0.31074 -0.95049 0.00000 0.3563 0.0709
0 6.00000 44.62573 8.87661 0.31074 -0.95049 0.00000 0.3486 0.0693
p9_entry_clip
0 9.00000 45.60652 -9.07170 0.63284 -0.77428 0.00000 0.3563 0.9291
0 12.00000 48.05848 -9.55943 0.63284 -0.77428 0.00000 0.3755 0.9253
0 12.00000 48.05848 9.55943 0.63284 -0.77428 0.00000 0.3755 0.0747
p9_entry_clip
0 9.00000 45.60652 -9.07170 0.63284 -0.77428 0.00000 0.3563 0.9291
0 12.00000 48.05848 9.55943 0.63284 -0.77428 0.00000 0.3755 0.0747
0 9.00000 45.60652 9.07170 0.63284 -0.77428 0.00000 0.3563 0.0709
p9_entry_c2
0 12.00000 48.05848 -9.55943 0.94681 -0.32179 0.00000 0.3755 0.9253
0 14.00000 53.94319 -10.72997 0.94681 -0.32179 0.00000 0.4214 0.9162
0 14.00000 53.94319 10.72997 0.94681 -0.32179 0.00000 0.4214 0.0838
p9_entry_c2
0 12.00000 48.05848 -9.55943 0.94681 -0.32179 0.00000 0.3755 0.9253
0 14.00000 53.94319 10.72997 0.94681 -0.32179 0.00000 0.4214 0.0838
0 12.00000 48.05848 9.55943 0.94681 -0.32179 0.00000 0.3755 0.0747
p9_entry_c2
0 14.00000 53.94319 -10.72997 1.00000 -0.00000 0.00000 0.4214 0.9162
0 14.00000 66.69340 -13.26614 1.00000 -0.00000 0.00000 0.5210 0.8964
0 14.00000 66.69340 13.26614 1.00000 -0.00000 0.00000 0.5210 0.1036
p9_entry_c2
0 14.00000 53.94319 -10.72997 1.00000 -0.00000 0.00000 0.4214 0.9162
0 14.00000 66.69340 13.26614 1.00000 -0.00000 0.00000 0.5210 0.1036
0 14.00000 53.94319 10.72997 1.00000 -0.00000 0.00000 0.4214 0.0838
p9_entry_c2
0 14.00000 66.69340 -13.26614 0.00000 1.00000 -0.00000 0.5210 0.8964
0 -14.00000 66.69340 -13.26614 0.00000 1.00000 -0.00000 0.5210 0.8964
0 -14.00000 66.69340 13.26614 0.00000 1.00000 -0.00000 0.5210 0.1036
p9_entry_c2
0 14.00000 66.69340 -13.26614 0.00000 1.00000 -0.00000 0.5210 0.8964
0 -14.00000 66.69340 13.26614 0.00000 1.00000 -0.00000 0.5210 0.1036
0 14.00000 66.69340 13.26614 0.00000 1.00000 -0.00000 0.5210 0.1036
end
