version 1
nodes
0 "root" -1
end
skeleton
time 0
0 0 0 0 0 0 0
end
triangles
r10_tube_end
0 0.0000 0.0000 0.0000 1.0 0.0000 0.0000 0.5000 0.5000
0 0.0000 47.0000 0.0000 1.0 0.0000 0.0000 0.8672 0.5000
0 0.0000 46.0969 9.1692 1.0 0.0000 0.0000 0.8601 0.4284
r10_tube_end
0 0.0000 0.0000 0.0000 -1.0 0.0000 0.0000 0.5000 0.5000
0 0.0000 46.0969 9.1692 -1.0 0.0000 0.0000 0.8601 0.4284
0 0.0000 47.0000 0.0000 -1.0 0.0000 0.0000 0.8672 0.5000
r10_tube_end
0 0.0000 0.0000 0.0000 1.0 0.0000 0.0000 0.5000 0.5000
0 0.0000 46.0969 9.1692 1.0 0.0000 0.0000 0.8601 0.4284
0 0.0000 43.4223 17.9861 1.0 0.0000 0.0000 0.8392 0.3595
r10_tube_end
0 0.0000 0.0000 0.0000 -1.0 0.0000 0.0000 0.5000 0.5000
0 0.0000 43.4223 17.9861 -1.0 0.0000 0.0000 0.8392 0.3595
0 0.0000 46.0969 9.1692 -1.0 0.0000 0.0000 0.8601 0.4284
r10_tube_end
0 0.0000 0.0000 0.0000 1.0 0.0000 0.0000 0.5000 0.5000
0 0.0000 43.4223 17.9861 1.0 0.0000 0.0000 0.8392 0.3595
0 0.0000 39.0791 26.1118 1.0 0.0000 0.0000 0.8053 0.2960
r10_tube_end
0 0.0000 0.0000 0.0000 -1.0 0.0000 0.0000 0.5000 0.5000
0 0.0000 39.0791 26.1118 -1.0 0.0000 0.0000 0.8053 0.2960
0 0.0000 43.4223 17.9861 -1.0 0.0000 0.0000 0.8392 0.3595
r10_tube_end
0 0.0000 0.0000 0.0000 1.0 0.0000 0.0000 0.5000 0.5000
0 0.0000 39.0791 26.1118 1.0 0.0000 0.0000 0.8053 0.2960
0 0.0000 33.2340 33.2340 1.0 0.0000 0.0000 0.7596 0.2404
r10_tube_end
0 0.0000 0.0000 0.0000 -1.0 0.0000 0.0000 0.5000 0.5000
0 0.0000 33.2340 33.2340 -1.0 0.0000 0.0000 0.7596 0.2404
0 0.0000 39.0791 26.1118 -1.0 0.0000 0.0000 0.8053 0.2960
r10_tube_end
0 0.0000 0.0000 0.0000 1.0 0.0000 0.0000 0.5000 0.5000
0 0.0000 33.2340 33.2340 1.0 0.0000 0.0000 0.7596 0.2404
0 0.0000 26.1118 39.0791 1.0 0.0000 0.0000 0.7040 0.1947
r10_tube_end
0 0.0000 0.0000 0.0000 -1.0 0.0000 0.0000 0.5000 0.5000
0 0.0000 26.1118 39.0791 -1.0 0.0000 0.0000 0.7040 0.1947
0 0.0000 33.2340 33.2340 -1.0 0.0000 0.0000 0.7596 0.2404
r10_tube_end
0 0.0000 0.0000 0.0000 1.0 0.0000 0.0000 0.5000 0.5000
0 0.0000 26.1118 39.0791 1.0 0.0000 0.0000 0.7040 0.1947
0 0.0000 17.9861 43.4223 1.0 0.0000 0.0000 0.6405 0.1608
r10_tube_end
0 0.0000 0.0000 0.0000 -1.0 0.0000 0.0000 0.5000 0.5000
0 0.0000 17.9861 43.4223 -1.0 0.0000 0.0000 0.6405 0.1608
0 0.0000 26.1118 39.0791 -1.0 0.0000 0.0000 0.7040 0.1947
r10_tube_end
0 0.0000 0.0000 0.0000 1.0 0.0000 0.0000 0.5000 0.5000
0 0.0000 17.9861 43.4223 1.0 0.0000 0.0000 0.6405 0.1608
0 0.0000 9.1692 46.0969 1.0 0.0000 0.0000 0.5716 0.1399
r10_tube_end
0 0.0000 0.0000 0.0000 -1.0 0.0000 0.0000 0.5000 0.5000
0 0.0000 9.1692 46.0969 -1.0 0.0000 0.0000 0.5716 0.1399
0 0.0000 17.9861 43.4223 -1.0 0.0000 0.0000 0.6405 0.1608
r10_tube_end
0 0.0000 0.0000 0.0000 1.0 0.0000 0.0000 0.5000 0.5000
0 0.0000 9.1692 46.0969 1.0 0.0000 0.0000 0.5716 0.1399
0 0.0000 0.0000 47.0000 1.0 0.0000 0.0000 0.5000 0.1328
r10_tube_end
0 0.0000 0.0000 0.0000 -1.0 0.0000 0.0000 0.5000 0.5000
0 0.0000 0.0000 47.0000 -1.0 0.0000 0.0000 0.5000 0.1328
0 0.0000 9.1692 46.0969 -1.0 0.0000 0.0000 0.5716 0.1399
r10_tube_end
0 0.0000 0.0000 0.0000 1.0 0.0000 0.0000 0.5000 0.5000
0 0.0000 0.0000 47.0000 1.0 0.0000 0.0000 0.5000 0.1328
0 0.0000 -9.1692 46.0969 1.0 0.0000 0.0000 0.4284 0.1399
r10_tube_end
0 0.0000 0.0000 0.0000 -1.0 0.0000 0.0000 0.5000 0.5000
0 0.0000 -9.1692 46.0969 -1.0 0.0000 0.0000 0.4284 0.1399
0 0.0000 0.0000 47.0000 -1.0 0.0000 0.0000 0.5000 0.1328
r10_tube_end
0 0.0000 0.0000 0.0000 1.0 0.0000 0.0000 0.5000 0.5000
0 0.0000 -9.1692 46.0969 1.0 0.0000 0.0000 0.4284 0.1399
0 0.0000 -17.9861 43.4223 1.0 0.0000 0.0000 0.3595 0.1608
r10_tube_end
0 0.0000 0.0000 0.0000 -1.0 0.0000 0.0000 0.5000 0.5000
0 0.0000 -17.9861 43.4223 -1.0 0.0000 0.0000 0.3595 0.1608
0 0.0000 -9.1692 46.0969 -1.0 0.0000 0.0000 0.4284 0.1399
r10_tube_end
0 0.0000 0.0000 0.0000 1.0 0.0000 0.0000 0.5000 0.5000
0 0.0000 -17.9861 43.4223 1.0 0.0000 0.0000 0.3595 0.1608
0 0.0000 -26.1118 39.0791 1.0 0.0000 0.0000 0.2960 0.1947
r10_tube_end
0 0.0000 0.0000 0.0000 -1.0 0.0000 0.0000 0.5000 0.5000
0 0.0000 -26.1118 39.0791 -1.0 0.0000 0.0000 0.2960 0.1947
0 0.0000 -17.9861 43.4223 -1.0 0.0000 0.0000 0.3595 0.1608
r10_tube_end
0 0.0000 0.0000 0.0000 1.0 0.0000 0.0000 0.5000 0.5000
0 0.0000 -26.1118 39.0791 1.0 0.0000 0.0000 0.2960 0.1947
0 0.0000 -33.2340 33.2340 1.0 0.0000 0.0000 0.2404 0.2404
r10_tube_end
0 0.0000 0.0000 0.0000 -1.0 0.0000 0.0000 0.5000 0.5000
0 0.0000 -33.2340 33.2340 -1.0 0.0000 0.0000 0.2404 0.2404
0 0.0000 -26.1118 39.0791 -1.0 0.0000 0.0000 0.2960 0.1947
r10_tube_end
0 0.0000 0.0000 0.0000 1.0 0.0000 0.0000 0.5000 0.5000
0 0.0000 -33.2340 33.2340 1.0 0.0000 0.0000 0.2404 0.2404
0 0.0000 -39.0791 26.1118 1.0 0.0000 0.0000 0.1947 0.2960
r10_tube_end
0 0.0000 0.0000 0.0000 -1.0 0.0000 0.0000 0.5000 0.5000
0 0.0000 -39.0791 26.1118 -1.0 0.0000 0.0000 0.1947 0.2960
0 0.0000 -33.2340 33.2340 -1.0 0.0000 0.0000 0.2404 0.2404
r10_tube_end
0 0.0000 0.0000 0.0000 1.0 0.0000 0.0000 0.5000 0.5000
0 0.0000 -39.0791 26.1118 1.0 0.0000 0.0000 0.1947 0.2960
0 0.0000 -43.4223 17.9861 1.0 0.0000 0.0000 0.1608 0.3595
r10_tube_end
0 0.0000 0.0000 0.0000 -1.0 0.0000 0.0000 0.5000 0.5000
0 0.0000 -43.4223 17.9861 -1.0 0.0000 0.0000 0.1608 0.3595
0 0.0000 -39.0791 26.1118 -1.0 0.0000 0.0000 0.1947 0.2960
r10_tube_end
0 0.0000 0.0000 0.0000 1.0 0.0000 0.0000 0.5000 0.5000
0 0.0000 -43.4223 17.9861 1.0 0.0000 0.0000 0.1608 0.3595
0 0.0000 -46.0969 9.1692 1.0 0.0000 0.0000 0.1399 0.4284
r10_tube_end
0 0.0000 0.0000 0.0000 -1.0 0.0000 0.0000 0.5000 0.5000
0 0.0000 -46.0969 9.1692 -1.0 0.0000 0.0000 0.1399 0.4284
0 0.0000 -43.4223 17.9861 -1.0 0.0000 0.0000 0.1608 0.3595
r10_tube_end
0 0.0000 0.0000 0.0000 1.0 0.0000 0.0000 0.5000 0.5000
0 0.0000 -46.0969 9.1692 1.0 0.0000 0.0000 0.1399 0.4284
0 0.0000 -47.0000 0.0000 1.0 0.0000 0.0000 0.1328 0.5000
r10_tube_end
0 0.0000 0.0000 0.0000 -1.0 0.0000 0.0000 0.5000 0.5000
0 0.0000 -47.0000 0.0000 -1.0 0.0000 0.0000 0.1328 0.5000
0 0.0000 -46.0969 9.1692 -1.0 0.0000 0.0000 0.1399 0.4284
r10_tube_end
0 0.0000 0.0000 0.0000 1.0 0.0000 0.0000 0.5000 0.5000
0 0.0000 -47.0000 0.0000 1.0 0.0000 0.0000 0.1328 0.5000
0 0.0000 -46.0969 -9.1692 1.0 0.0000 0.0000 0.1399 0.5716
r10_tube_end
0 0.0000 0.0000 0.0000 -1.0 0.0000 0.0000 0.5000 0.5000
0 0.0000 -46.0969 -9.1692 -1.0 0.0000 0.0000 0.1399 0.5716
0 0.0000 -47.0000 0.0000 -1.0 0.0000 0.0000 0.1328 0.5000
r10_tube_end
0 0.0000 0.0000 0.0000 1.0 0.0000 0.0000 0.5000 0.5000
0 0.0000 -46.0969 -9.1692 1.0 0.0000 0.0000 0.1399 0.5716
0 0.0000 -43.4223 -17.9861 1.0 0.0000 0.0000 0.1608 0.6405
r10_tube_end
0 0.0000 0.0000 0.0000 -1.0 0.0000 0.0000 0.5000 0.5000
0 0.0000 -43.4223 -17.9861 -1.0 0.0000 0.0000 0.1608 0.6405
0 0.0000 -46.0969 -9.1692 -1.0 0.0000 0.0000 0.1399 0.5716
r10_tube_end
0 0.0000 0.0000 0.0000 1.0 0.0000 0.0000 0.5000 0.5000
0 0.0000 -43.4223 -17.9861 1.0 0.0000 0.0000 0.1608 0.6405
0 0.0000 -39.0791 -26.1118 1.0 0.0000 0.0000 0.1947 0.7040
r10_tube_end
0 0.0000 0.0000 0.0000 -1.0 0.0000 0.0000 0.5000 0.5000
0 0.0000 -39.0791 -26.1118 -1.0 0.0000 0.0000 0.1947 0.7040
0 0.0000 -43.4223 -17.9861 -1.0 0.0000 0.0000 0.1608 0.6405
r10_tube_end
0 0.0000 0.0000 0.0000 1.0 0.0000 0.0000 0.5000 0.5000
0 0.0000 -39.0791 -26.1118 1.0 0.0000 0.0000 0.1947 0.7040
0 0.0000 -33.2340 -33.2340 1.0 0.0000 0.0000 0.2404 0.7596
r10_tube_end
0 0.0000 0.0000 0.0000 -1.0 0.0000 0.0000 0.5000 0.5000
0 0.0000 -33.2340 -33.2340 -1.0 0.0000 0.0000 0.2404 0.7596
0 0.0000 -39.0791 -26.1118 -1.0 0.0000 0.0000 0.1947 0.7040
r10_tube_end
0 0.0000 0.0000 0.0000 1.0 0.0000 0.0000 0.5000 0.5000
0 0.0000 -33.2340 -33.2340 1.0 0.0000 0.0000 0.2404 0.7596
0 0.0000 -26.1118 -39.0791 1.0 0.0000 0.0000 0.2960 0.8053
r10_tube_end
0 0.0000 0.0000 0.0000 -1.0 0.0000 0.0000 0.5000 0.5000
0 0.0000 -26.1118 -39.0791 -1.0 0.0000 0.0000 0.2960 0.8053
0 0.0000 -33.2340 -33.2340 -1.0 0.0000 0.0000 0.2404 0.7596
r10_tube_end
0 0.0000 0.0000 0.0000 1.0 0.0000 0.0000 0.5000 0.5000
0 0.0000 -26.1118 -39.0791 1.0 0.0000 0.0000 0.2960 0.8053
0 0.0000 -17.9861 -43.4223 1.0 0.0000 0.0000 0.3595 0.8392
r10_tube_end
0 0.0000 0.0000 0.0000 -1.0 0.0000 0.0000 0.5000 0.5000
0 0.0000 -17.9861 -43.4223 -1.0 0.0000 0.0000 0.3595 0.8392
0 0.0000 -26.1118 -39.0791 -1.0 0.0000 0.0000 0.2960 0.8053
r10_tube_end
0 0.0000 0.0000 0.0000 1.0 0.0000 0.0000 0.5000 0.5000
0 0.0000 -17.9861 -43.4223 1.0 0.0000 0.0000 0.3595 0.8392
0 0.0000 -9.1692 -46.0969 1.0 0.0000 0.0000 0.4284 0.8601
r10_tube_end
0 0.0000 0.0000 0.0000 -1.0 0.0000 0.0000 0.5000 0.5000
0 0.0000 -9.1692 -46.0969 -1.0 0.0000 0.0000 0.4284 0.8601
0 0.0000 -17.9861 -43.4223 -1.0 0.0000 0.0000 0.3595 0.8392
r10_tube_end
0 0.0000 0.0000 0.0000 1.0 0.0000 0.0000 0.5000 0.5000
0 0.0000 -9.1692 -46.0969 1.0 0.0000 0.0000 0.4284 0.8601
0 0.0000 -0.0000 -47.0000 1.0 0.0000 0.0000 0.5000 0.8672
r10_tube_end
0 0.0000 0.0000 0.0000 -1.0 0.0000 0.0000 0.5000 0.5000
0 0.0000 -0.0000 -47.0000 -1.0 0.0000 0.0000 0.5000 0.8672
0 0.0000 -9.1692 -46.0969 -1.0 0.0000 0.0000 0.4284 0.8601
r10_tube_end
0 0.0000 0.0000 0.0000 1.0 0.0000 0.0000 0.5000 0.5000
0 0.0000 -0.0000 -47.0000 1.0 0.0000 0.0000 0.5000 0.8672
0 0.0000 9.1692 -46.0969 1.0 0.0000 0.0000 0.5716 0.8601
r10_tube_end
0 0.0000 0.0000 0.0000 -1.0 0.0000 0.0000 0.5000 0.5000
0 0.0000 9.1692 -46.0969 -1.0 0.0000 0.0000 0.5716 0.8601
0 0.0000 -0.0000 -47.0000 -1.0 0.0000 0.0000 0.5000 0.8672
r10_tube_end
0 0.0000 0.0000 0.0000 1.0 0.0000 0.0000 0.5000 0.5000
0 0.0000 9.1692 -46.0969 1.0 0.0000 0.0000 0.5716 0.8601
0 0.0000 17.9861 -43.4223 1.0 0.0000 0.0000 0.6405 0.8392
r10_tube_end
0 0.0000 0.0000 0.0000 -1.0 0.0000 0.0000 0.5000 0.5000
0 0.0000 17.9861 -43.4223 -1.0 0.0000 0.0000 0.6405 0.8392
0 0.0000 9.1692 -46.0969 -1.0 0.0000 0.0000 0.5716 0.8601
r10_tube_end
0 0.0000 0.0000 0.0000 1.0 0.0000 0.0000 0.5000 0.5000
0 0.0000 17.9861 -43.4223 1.0 0.0000 0.0000 0.6405 0.8392
0 0.0000 26.1118 -39.0791 1.0 0.0000 0.0000 0.7040 0.8053
r10_tube_end
0 0.0000 0.0000 0.0000 -1.0 0.0000 0.0000 0.5000 0.5000
0 0.0000 26.1118 -39.0791 -1.0 0.0000 0.0000 0.7040 0.8053
0 0.0000 17.9861 -43.4223 -1.0 0.0000 0.0000 0.6405 0.8392
r10_tube_end
0 0.0000 0.0000 0.0000 1.0 0.0000 0.0000 0.5000 0.5000
0 0.0000 26.1118 -39.0791 1.0 0.0000 0.0000 0.7040 0.8053
0 0.0000 33.2340 -33.2340 1.0 0.0000 0.0000 0.7596 0.7596
r10_tube_end
0 0.0000 0.0000 0.0000 -1.0 0.0000 0.0000 0.5000 0.5000
0 0.0000 33.2340 -33.2340 -1.0 0.0000 0.0000 0.7596 0.7596
0 0.0000 26.1118 -39.0791 -1.0 0.0000 0.0000 0.7040 0.8053
r10_tube_end
0 0.0000 0.0000 0.0000 1.0 0.0000 0.0000 0.5000 0.5000
0 0.0000 33.2340 -33.2340 1.0 0.0000 0.0000 0.7596 0.7596
0 0.0000 39.0791 -26.1118 1.0 0.0000 0.0000 0.8053 0.7040
r10_tube_end
0 0.0000 0.0000 0.0000 -1.0 0.0000 0.0000 0.5000 0.5000
0 0.0000 39.0791 -26.1118 -1.0 0.0000 0.0000 0.8053 0.7040
0 0.0000 33.2340 -33.2340 -1.0 0.0000 0.0000 0.7596 0.7596
r10_tube_end
0 0.0000 0.0000 0.0000 1.0 0.0000 0.0000 0.5000 0.5000
0 0.0000 39.0791 -26.1118 1.0 0.0000 0.0000 0.8053 0.7040
0 0.0000 43.4223 -17.9861 1.0 0.0000 0.0000 0.8392 0.6405
r10_tube_end
0 0.0000 0.0000 0.0000 -1.0 0.0000 0.0000 0.5000 0.5000
0 0.0000 43.4223 -17.9861 -1.0 0.0000 0.0000 0.8392 0.6405
0 0.0000 39.0791 -26.1118 -1.0 0.0000 0.0000 0.8053 0.7040
r10_tube_end
0 0.0000 0.0000 0.0000 1.0 0.0000 0.0000 0.5000 0.5000
0 0.0000 43.4223 -17.9861 1.0 0.0000 0.0000 0.8392 0.6405
0 0.0000 46.0969 -9.1692 1.0 0.0000 0.0000 0.8601 0.5716
r10_tube_end
0 0.0000 0.0000 0.0000 -1.0 0.0000 0.0000 0.5000 0.5000
0 0.0000 46.0969 -9.1692 -1.0 0.0000 0.0000 0.8601 0.5716
0 0.0000 43.4223 -17.9861 -1.0 0.0000 0.0000 0.8392 0.6405
r10_tube_end
0 0.0000 0.0000 0.0000 1.0 0.0000 0.0000 0.5000 0.5000
0 0.0000 46.0969 -9.1692 1.0 0.0000 0.0000 0.8601 0.5716
0 0.0000 47.0000 -0.0000 1.0 0.0000 0.0000 0.8672 0.5000
r10_tube_end
0 0.0000 0.0000 0.0000 -1.0 0.0000 0.0000 0.5000 0.5000
0 0.0000 47.0000 -0.0000 -1.0 0.0000 0.0000 0.8672 0.5000
0 0.0000 46.0969 -9.1692 -1.0 0.0000 0.0000 0.8601 0.5716
end
