version 1
nodes
0 "root" -1
end
skeleton
time 0
0 0 0 0 0 0 0
end
triangles
r10_rod
0 0.0000 5.0000 0.0000 0.0000 1.0000 0.0000 0.0000 0.0000
0 495.0000 3.5355 3.5355 0.0000 0.7071 0.7071 0.0000 0.0000
0 0.0000 3.5355 3.5355 0.0000 0.7071 0.7071 0.0000 0.0000
r10_rod
0 0.0000 5.0000 0.0000 0.0000 1.0000 0.0000 0.0000 0.0000
0 495.0000 5.0000 0.0000 0.0000 1.0000 0.0000 0.0000 0.0000
0 495.0000 3.5355 3.5355 0.0000 0.7071 0.7071 0.0000 0.0000
r10_rod
0 495.0000 0.0000 0.0000 1.0000 0.0000 0.0000 0.0000 0.0000
0 495.0000 3.5355 3.5355 1.0000 0.0000 0.0000 0.0000 0.0000
0 495.0000 5.0000 0.0000 1.0000 0.0000 0.0000 0.0000 0.0000
r10_rod
0 0.0000 0.0000 0.0000 -1.0000 0.0000 0.0000 0.0000 0.0000
0 0.0000 5.0000 0.0000 -1.0000 0.0000 0.0000 0.0000 0.0000
0 0.0000 3.5355 3.5355 -1.0000 0.0000 0.0000 0.0000 0.0000
r10_rod
0 0.0000 3.5355 3.5355 0.0000 0.7071 0.7071 0.0000 0.0000
0 495.0000 0.0000 5.0000 0.0000 0.0000 1.0000 0.0000 0.0000
0 0.0000 0.0000 5.0000 0.0000 0.0000 1.0000 0.0000 0.0000
r10_rod
0 0.0000 3.5355 3.5355 0.0000 0.7071 0.7071 0.0000 0.0000
0 495.0000 3.5355 3.5355 0.0000 0.7071 0.7071 0.0000 0.0000
0 495.0000 0.0000 5.0000 0.0000 0.0000 1.0000 0.0000 0.0000
r10_rod
0 495.0000 0.0000 0.0000 1.0000 0.0000 0.0000 0.0000 0.0000
0 495.0000 0.0000 5.0000 1.0000 0.0000 0.0000 0.0000 0.0000
0 495.0000 3.5355 3.5355 1.0000 0.0000 0.0000 0.0000 0.0000
r10_rod
0 0.0000 0.0000 0.0000 -1.0000 0.0000 0.0000 0.0000 0.0000
0 0.0000 3.5355 3.5355 -1.0000 0.0000 0.0000 0.0000 0.0000
0 0.0000 0.0000 5.0000 -1.0000 0.0000 0.0000 0.0000 0.0000
r10_rod
0 0.0000 0.0000 5.0000 0.0000 0.0000 1.0000 0.0000 0.0000
0 495.0000 -3.5355 3.5355 0.0000 -0.7071 0.7071 0.0000 0.0000
0 0.0000 -3.5355 3.5355 0.0000 -0.7071 0.7071 0.0000 0.0000
r10_rod
0 0.0000 0.0000 5.0000 0.0000 0.0000 1.0000 0.0000 0.0000
0 495.0000 0.0000 5.0000 0.0000 0.0000 1.0000 0.0000 0.0000
0 495.0000 -3.5355 3.5355 0.0000 -0.7071 0.7071 0.0000 0.0000
r10_rod
0 495.0000 0.0000 0.0000 1.0000 0.0000 0.0000 0.0000 0.0000
0 495.0000 -3.5355 3.5355 1.0000 0.0000 0.0000 0.0000 0.0000
0 495.0000 0.0000 5.0000 1.0000 0.0000 0.0000 0.0000 0.0000
r10_rod
0 0.0000 0.0000 0.0000 -1.0000 0.0000 0.0000 0.0000 0.0000
0 0.0000 0.0000 5.0000 -1.0000 0.0000 0.0000 0.0000 0.0000
0 0.0000 -3.5355 3.5355 -1.0000 0.0000 0.0000 0.0000 0.0000
r10_rod
0 0.0000 -3.5355 3.5355 0.0000 -0.7071 0.7071 0.0000 0.0000
0 495.0000 -5.0000 0.0000 0.0000 -1.0000 0.0000 0.0000 0.0000
0 0.0000 -5.0000 0.0000 0.0000 -1.0000 0.0000 0.0000 0.0000
r10_rod
0 0.0000 -3.5355 3.5355 0.0000 -0.7071 0.7071 0.0000 0.0000
0 495.0000 -3.5355 3.5355 0.0000 -0.7071 0.7071 0.0000 0.0000
0 495.0000 -5.0000 0.0000 0.0000 -1.0000 0.0000 0.0000 0.0000
r10_rod
0 495.0000 0.0000 0.0000 1.0000 0.0000 0.0000 0.0000 0.0000
0 495.0000 -5.0000 0.0000 1.0000 0.0000 0.0000 0.0000 0.0000
0 495.0000 -3.5355 3.5355 1.0000 0.0000 0.0000 0.0000 0.0000
r10_rod
0 0.0000 0.0000 0.0000 -1.0000 0.0000 0.0000 0.0000 0.0000
0 0.0000 -3.5355 3.5355 -1.0000 0.0000 0.0000 0.0000 0.0000
0 0.0000 -5.0000 0.0000 -1.0000 0.0000 0.0000 0.0000 0.0000
r10_rod
0 0.0000 -5.0000 0.0000 0.0000 -1.0000 0.0000 0.0000 0.0000
0 495.0000 -3.5355 -3.5355 0.0000 -0.7071 -0.7071 0.0000 0.0000
0 0.0000 -3.5355 -3.5355 0.0000 -0.7071 -0.7071 0.0000 0.0000
r10_rod
0 0.0000 -5.0000 0.0000 0.0000 -1.0000 0.0000 0.0000 0.0000
0 495.0000 -5.0000 0.0000 0.0000 -1.0000 0.0000 0.0000 0.0000
0 495.0000 -3.5355 -3.5355 0.0000 -0.7071 -0.7071 0.0000 0.0000
r10_rod
0 495.0000 0.0000 0.0000 1.0000 0.0000 0.0000 0.0000 0.0000
0 495.0000 -3.5355 -3.5355 1.0000 0.0000 0.0000 0.0000 0.0000
0 495.0000 -5.0000 0.0000 1.0000 0.0000 0.0000 0.0000 0.0000
r10_rod
0 0.0000 0.0000 0.0000 -1.0000 0.0000 0.0000 0.0000 0.0000
0 0.0000 -5.0000 0.0000 -1.0000 0.0000 0.0000 0.0000 0.0000
0 0.0000 -3.5355 -3.5355 -1.0000 0.0000 0.0000 0.0000 0.0000
r10_rod
0 0.0000 -3.5355 -3.5355 0.0000 -0.7071 -0.7071 0.0000 0.0000
0 495.0000 -0.0000 -5.0000 0.0000 -0.0000 -1.0000 0.0000 0.0000
0 0.0000 -0.0000 -5.0000 0.0000 -0.0000 -1.0000 0.0000 0.0000
r10_rod
0 0.0000 -3.5355 -3.5355 0.0000 -0.7071 -0.7071 0.0000 0.0000
0 495.0000 -3.5355 -3.5355 0.0000 -0.7071 -0.7071 0.0000 0.0000
0 495.0000 -0.0000 -5.0000 0.0000 -0.0000 -1.0000 0.0000 0.0000
r10_rod
0 495.0000 0.0000 0.0000 1.0000 0.0000 0.0000 0.0000 0.0000
0 495.0000 -0.0000 -5.0000 1.0000 0.0000 0.0000 0.0000 0.0000
0 495.0000 -3.5355 -3.5355 1.0000 0.0000 0.0000 0.0000 0.0000
r10_rod
0 0.0000 0.0000 0.0000 -1.0000 0.0000 0.0000 0.0000 0.0000
0 0.0000 -3.5355 -3.5355 -1.0000 0.0000 0.0000 0.0000 0.0000
0 0.0000 -0.0000 -5.0000 -1.0000 0.0000 0.0000 0.0000 0.0000
r10_rod
0 0.0000 -0.0000 -5.0000 0.0000 -0.0000 -1.0000 0.0000 0.0000
0 495.0000 3.5355 -3.5355 0.0000 0.7071 -0.7071 0.0000 0.0000
0 0.0000 3.5355 -3.5355 0.0000 0.7071 -0.7071 0.0000 0.0000
r10_rod
0 0.0000 -0.0000 -5.0000 0.0000 -0.0000 -1.0000 0.0000 0.0000
0 495.0000 -0.0000 -5.0000 0.0000 -0.0000 -1.0000 0.0000 0.0000
0 495.0000 3.5355 -3.5355 0.0000 0.7071 -0.7071 0.0000 0.0000
r10_rod
0 495.0000 0.0000 0.0000 1.0000 0.0000 0.0000 0.0000 0.0000
0 495.0000 3.5355 -3.5355 1.0000 0.0000 0.0000 0.0000 0.0000
0 495.0000 -0.0000 -5.0000 1.0000 0.0000 0.0000 0.0000 0.0000
r10_rod
0 0.0000 0.0000 0.0000 -1.0000 0.0000 0.0000 0.0000 0.0000
0 0.0000 -0.0000 -5.0000 -1.0000 0.0000 0.0000 0.0000 0.0000
0 0.0000 3.5355 -3.5355 -1.0000 0.0000 0.0000 0.0000 0.0000
r10_rod
0 0.0000 3.5355 -3.5355 0.0000 0.7071 -0.7071 0.0000 0.0000
0 495.0000 5.0000 -0.0000 0.0000 1.0000 -0.0000 0.0000 0.0000
0 0.0000 5.0000 -0.0000 0.0000 1.0000 -0.0000 0.0000 0.0000
r10_rod
0 0.0000 3.5355 -3.5355 0.0000 0.7071 -0.7071 0.0000 0.0000
0 495.0000 3.5355 -3.5355 0.0000 0.7071 -0.7071 0.0000 0.0000
0 495.0000 5.0000 -0.0000 0.0000 1.0000 -0.0000 0.0000 0.0000
r10_rod
0 495.0000 0.0000 0.0000 1.0000 0.0000 0.0000 0.0000 0.0000
0 495.0000 5.0000 -0.0000 1.0000 0.0000 0.0000 0.0000 0.0000
0 495.0000 3.5355 -3.5355 1.0000 0.0000 0.0000 0.0000 0.0000
r10_rod
0 0.0000 0.0000 0.0000 -1.0000 0.0000 0.0000 0.0000 0.0000
0 0.0000 3.5355 -3.5355 -1.0000 0.0000 0.0000 0.0000 0.0000
0 0.0000 5.0000 -0.0000 -1.0000 0.0000 0.0000 0.0000 0.0000
r10_rod_dark
0 495.0000 10.0000 0.0000 0.0000 1.0000 0.0000 0.0000 0.0000
0 509.0000 7.0711 7.0711 0.0000 0.7071 0.7071 0.0000 0.0000
0 495.0000 7.0711 7.0711 0.0000 0.7071 0.7071 0.0000 0.0000
r10_rod_dark
0 495.0000 10.0000 0.0000 0.0000 1.0000 0.0000 0.0000 0.0000
0 509.0000 10.0000 0.0000 0.0000 1.0000 0.0000 0.0000 0.0000
0 509.0000 7.0711 7.0711 0.0000 0.7071 0.7071 0.0000 0.0000
r10_rod_dark
0 509.0000 0.0000 0.0000 1.0000 0.0000 0.0000 0.0000 0.0000
0 509.0000 7.0711 7.0711 1.0000 0.0000 0.0000 0.0000 0.0000
0 509.0000 10.0000 0.0000 1.0000 0.0000 0.0000 0.0000 0.0000
r10_rod_dark
0 495.0000 0.0000 0.0000 -1.0000 0.0000 0.0000 0.0000 0.0000
0 495.0000 10.0000 0.0000 -1.0000 0.0000 0.0000 0.0000 0.0000
0 495.0000 7.0711 7.0711 -1.0000 0.0000 0.0000 0.0000 0.0000
r10_rod_dark
0 495.0000 7.0711 7.0711 0.0000 0.7071 0.7071 0.0000 0.0000
0 509.0000 0.0000 10.0000 0.0000 0.0000 1.0000 0.0000 0.0000
0 495.0000 0.0000 10.0000 0.0000 0.0000 1.0000 0.0000 0.0000
r10_rod_dark
0 495.0000 7.0711 7.0711 0.0000 0.7071 0.7071 0.0000 0.0000
0 509.0000 7.0711 7.0711 0.0000 0.7071 0.7071 0.0000 0.0000
0 509.0000 0.0000 10.0000 0.0000 0.0000 1.0000 0.0000 0.0000
r10_rod_dark
0 509.0000 0.0000 0.0000 1.0000 0.0000 0.0000 0.0000 0.0000
0 509.0000 0.0000 10.0000 1.0000 0.0000 0.0000 0.0000 0.0000
0 509.0000 7.0711 7.0711 1.0000 0.0000 0.0000 0.0000 0.0000
r10_rod_dark
0 495.0000 0.0000 0.0000 -1.0000 0.0000 0.0000 0.0000 0.0000
0 495.0000 7.0711 7.0711 -1.0000 0.0000 0.0000 0.0000 0.0000
0 495.0000 0.0000 10.0000 -1.0000 0.0000 0.0000 0.0000 0.0000
r10_rod_dark
0 495.0000 0.0000 10.0000 0.0000 0.0000 1.0000 0.0000 0.0000
0 509.0000 -7.0711 7.0711 0.0000 -0.7071 0.7071 0.0000 0.0000
0 495.0000 -7.0711 7.0711 0.0000 -0.7071 0.7071 0.0000 0.0000
r10_rod_dark
0 495.0000 0.0000 10.0000 0.0000 0.0000 1.0000 0.0000 0.0000
0 509.0000 0.0000 10.0000 0.0000 0.0000 1.0000 0.0000 0.0000
0 509.0000 -7.0711 7.0711 0.0000 -0.7071 0.7071 0.0000 0.0000
r10_rod_dark
0 509.0000 0.0000 0.0000 1.0000 0.0000 0.0000 0.0000 0.0000
0 509.0000 -7.0711 7.0711 1.0000 0.0000 0.0000 0.0000 0.0000
0 509.0000 0.0000 10.0000 1.0000 0.0000 0.0000 0.0000 0.0000
r10_rod_dark
0 495.0000 0.0000 0.0000 -1.0000 0.0000 0.0000 0.0000 0.0000
0 495.0000 0.0000 10.0000 -1.0000 0.0000 0.0000 0.0000 0.0000
0 495.0000 -7.0711 7.0711 -1.0000 0.0000 0.0000 0.0000 0.0000
r10_rod_dark
0 495.0000 -7.0711 7.0711 0.0000 -0.7071 0.7071 0.0000 0.0000
0 509.0000 -10.0000 0.0000 0.0000 -1.0000 0.0000 0.0000 0.0000
0 495.0000 -10.0000 0.0000 0.0000 -1.0000 0.0000 0.0000 0.0000
r10_rod_dark
0 495.0000 -7.0711 7.0711 0.0000 -0.7071 0.7071 0.0000 0.0000
0 509.0000 -7.0711 7.0711 0.0000 -0.7071 0.7071 0.0000 0.0000
0 509.0000 -10.0000 0.0000 0.0000 -1.0000 0.0000 0.0000 0.0000
r10_rod_dark
0 509.0000 0.0000 0.0000 1.0000 0.0000 0.0000 0.0000 0.0000
0 509.0000 -10.0000 0.0000 1.0000 0.0000 0.0000 0.0000 0.0000
0 509.0000 -7.0711 7.0711 1.0000 0.0000 0.0000 0.0000 0.0000
r10_rod_dark
0 495.0000 0.0000 0.0000 -1.0000 0.0000 0.0000 0.0000 0.0000
0 495.0000 -7.0711 7.0711 -1.0000 0.0000 0.0000 0.0000 0.0000
0 495.0000 -10.0000 0.0000 -1.0000 0.0000 0.0000 0.0000 0.0000
r10_rod_dark
0 495.0000 -10.0000 0.0000 0.0000 -1.0000 0.0000 0.0000 0.0000
0 509.0000 -7.0711 -7.0711 0.0000 -0.7071 -0.7071 0.0000 0.0000
0 495.0000 -7.0711 -7.0711 0.0000 -0.7071 -0.7071 0.0000 0.0000
r10_rod_dark
0 495.0000 -10.0000 0.0000 0.0000 -1.0000 0.0000 0.0000 0.0000
0 509.0000 -10.0000 0.0000 0.0000 -1.0000 0.0000 0.0000 0.0000
0 509.0000 -7.0711 -7.0711 0.0000 -0.7071 -0.7071 0.0000 0.0000
r10_rod_dark
0 509.0000 0.0000 0.0000 1.0000 0.0000 0.0000 0.0000 0.0000
0 509.0000 -7.0711 -7.0711 1.0000 0.0000 0.0000 0.0000 0.0000
0 509.0000 -10.0000 0.0000 1.0000 0.0000 0.0000 0.0000 0.0000
r10_rod_dark
0 495.0000 0.0000 0.0000 -1.0000 0.0000 0.0000 0.0000 0.0000
0 495.0000 -10.0000 0.0000 -1.0000 0.0000 0.0000 0.0000 0.0000
0 495.0000 -7.0711 -7.0711 -1.0000 0.0000 0.0000 0.0000 0.0000
r10_rod_dark
0 495.0000 -7.0711 -7.0711 0.0000 -0.7071 -0.7071 0.0000 0.0000
0 509.0000 -0.0000 -10.0000 0.0000 -0.0000 -1.0000 0.0000 0.0000
0 495.0000 -0.0000 -10.0000 0.0000 -0.0000 -1.0000 0.0000 0.0000
r10_rod_dark
0 495.0000 -7.0711 -7.0711 0.0000 -0.7071 -0.7071 0.0000 0.0000
0 509.0000 -7.0711 -7.0711 0.0000 -0.7071 -0.7071 0.0000 0.0000
0 509.0000 -0.0000 -10.0000 0.0000 -0.0000 -1.0000 0.0000 0.0000
r10_rod_dark
0 509.0000 0.0000 0.0000 1.0000 0.0000 0.0000 0.0000 0.0000
0 509.0000 -0.0000 -10.0000 1.0000 0.0000 0.0000 0.0000 0.0000
0 509.0000 -7.0711 -7.0711 1.0000 0.0000 0.0000 0.0000 0.0000
r10_rod_dark
0 495.0000 0.0000 0.0000 -1.0000 0.0000 0.0000 0.0000 0.0000
0 495.0000 -7.0711 -7.0711 -1.0000 0.0000 0.0000 0.0000 0.0000
0 495.0000 -0.0000 -10.0000 -1.0000 0.0000 0.0000 0.0000 0.0000
r10_rod_dark
0 495.0000 -0.0000 -10.0000 0.0000 -0.0000 -1.0000 0.0000 0.0000
0 509.0000 7.0711 -7.0711 0.0000 0.7071 -0.7071 0.0000 0.0000
0 495.0000 7.0711 -7.0711 0.0000 0.7071 -0.7071 0.0000 0.0000
r10_rod_dark
0 495.0000 -0.0000 -10.0000 0.0000 -0.0000 -1.0000 0.0000 0.0000
0 509.0000 -0.0000 -10.0000 0.0000 -0.0000 -1.0000 0.0000 0.0000
0 509.0000 7.0711 -7.0711 0.0000 0.7071 -0.7071 0.0000 0.0000
r10_rod_dark
0 509.0000 0.0000 0.0000 1.0000 0.0000 0.0000 0.0000 0.0000
0 509.0000 7.0711 -7.0711 1.0000 0.0000 0.0000 0.0000 0.0000
0 509.0000 -0.0000 -10.0000 1.0000 0.0000 0.0000 0.0000 0.0000
r10_rod_dark
0 495.0000 0.0000 0.0000 -1.0000 0.0000 0.0000 0.0000 0.0000
0 495.0000 -0.0000 -10.0000 -1.0000 0.0000 0.0000 0.0000 0.0000
0 495.0000 7.0711 -7.0711 -1.0000 0.0000 0.0000 0.0000 0.0000
r10_rod_dark
0 495.0000 7.0711 -7.0711 0.0000 0.7071 -0.7071 0.0000 0.0000
0 509.0000 10.0000 -0.0000 0.0000 1.0000 -0.0000 0.0000 0.0000
0 495.0000 10.0000 -0.0000 0.0000 1.0000 -0.0000 0.0000 0.0000
r10_rod_dark
0 495.0000 7.0711 -7.0711 0.0000 0.7071 -0.7071 0.0000 0.0000
0 509.0000 7.0711 -7.0711 0.0000 0.7071 -0.7071 0.0000 0.0000
0 509.0000 10.0000 -0.0000 0.0000 1.0000 -0.0000 0.0000 0.0000
r10_rod_dark
0 509.0000 0.0000 0.0000 1.0000 0.0000 0.0000 0.0000 0.0000
0 509.0000 10.0000 -0.0000 1.0000 0.0000 0.0000 0.0000 0.0000
0 509.0000 7.0711 -7.0711 1.0000 0.0000 0.0000 0.0000 0.0000
r10_rod_dark
0 495.0000 0.0000 0.0000 -1.0000 0.0000 0.0000 0.0000 0.0000
0 495.0000 7.0711 -7.0711 -1.0000 0.0000 0.0000 0.0000 0.0000
0 495.0000 10.0000 -0.0000 -1.0000 0.0000 0.0000 0.0000 0.0000
r10_rod_dark
0 533.9026 2.5000 22.9954 0.8192 0.0000 0.5736 0.0000 0.0000
0 531.6083 2.5000 26.2720 0.8192 0.0000 0.5736 0.0000 0.0000
0 531.6083 -2.5000 26.2720 0.8192 0.0000 0.5736 0.0000 0.0000
r10_rod_dark
0 533.9026 2.5000 22.9954 0.8192 0.0000 0.5736 0.0000 0.0000
0 531.6083 -2.5000 26.2720 0.8192 0.0000 0.5736 0.0000 0.0000
0 533.9026 -2.5000 22.9954 0.8192 0.0000 0.5736 0.0000 0.0000
r10_rod_dark
0 509.3280 2.5000 5.7881 -0.8192 -0.0000 -0.5736 0.0000 0.0000
0 509.3280 -2.5000 5.7881 -0.8192 -0.0000 -0.5736 0.0000 0.0000
0 507.0337 -2.5000 9.0647 -0.8192 -0.0000 -0.5736 0.0000 0.0000
r10_rod_dark
0 509.3280 2.5000 5.7881 -0.8192 -0.0000 -0.5736 0.0000 0.0000
0 507.0337 -2.5000 9.0647 -0.8192 -0.0000 -0.5736 0.0000 0.0000
0 507.0337 2.5000 9.0647 -0.8192 -0.0000 -0.5736 0.0000 0.0000
r10_rod_dark
0 507.0337 2.5000 9.0647 -0.5736 0.0000 0.8192 0.0000 0.0000
0 507.0337 -2.5000 9.0647 -0.5736 0.0000 0.8192 0.0000 0.0000
0 531.6083 -2.5000 26.2720 -0.5736 0.0000 0.8192 0.0000 0.0000
r10_rod_dark
0 507.0337 2.5000 9.0647 -0.5736 0.0000 0.8192 0.0000 0.0000
0 531.6083 -2.5000 26.2720 -0.5736 0.0000 0.8192 0.0000 0.0000
0 531.6083 2.5000 26.2720 -0.5736 0.0000 0.8192 0.0000 0.0000
r10_rod_dark
0 509.3280 2.5000 5.7881 0.5736 -0.0000 -0.8192 0.0000 0.0000
0 533.9026 2.5000 22.9954 0.5736 -0.0000 -0.8192 0.0000 0.0000
0 533.9026 -2.5000 22.9954 0.5736 -0.0000 -0.8192 0.0000 0.0000
r10_rod_dark
0 509.3280 2.5000 5.7881 0.5736 -0.0000 -0.8192 0.0000 0.0000
0 533.9026 -2.5000 22.9954 0.5736 -0.0000 -0.8192 0.0000 0.0000
0 509.3280 -2.5000 5.7881 0.5736 -0.0000 -0.8192 0.0000 0.0000
r10_rod_dark
0 509.3280 -2.5000 5.7881 0.0000 -1.0000 0.0000 0.0000 0.0000
0 533.9026 -2.5000 22.9954 0.0000 -1.0000 0.0000 0.0000 0.0000
0 531.6083 -2.5000 26.2720 0.0000 -1.0000 0.0000 0.0000 0.0000
r10_rod_dark
0 509.3280 -2.5000 5.7881 0.0000 -1.0000 0.0000 0.0000 0.0000
0 531.6083 -2.5000 26.2720 0.0000 -1.0000 0.0000 0.0000 0.0000
0 507.0337 -2.5000 9.0647 0.0000 -1.0000 0.0000 0.0000 0.0000
r10_rod_dark
0 509.3280 2.5000 5.7881 0.0000 1.0000 -0.0000 0.0000 0.0000
0 507.0337 2.5000 9.0647 0.0000 1.0000 -0.0000 0.0000 0.0000
0 531.6083 2.5000 26.2720 0.0000 1.0000 -0.0000 0.0000 0.0000
r10_rod_dark
0 509.3280 2.5000 5.7881 0.0000 1.0000 -0.0000 0.0000 0.0000
0 531.6083 2.5000 26.2720 0.0000 1.0000 -0.0000 0.0000 0.0000
0 533.9026 2.5000 22.9954 0.0000 1.0000 -0.0000 0.0000 0.0000
r10_rod_dark
0 533.9026 -21.1646 -9.3326 0.8192 -0.4967 -0.2868 0.0000 0.0000
0 531.6083 -24.0022 -10.9709 0.8192 -0.4967 -0.2868 0.0000 0.0000
0 531.6083 -21.5022 -15.3011 0.8192 -0.4967 -0.2868 0.0000 0.0000
r10_rod_dark
0 533.9026 -21.1646 -9.3326 0.8192 -0.4967 -0.2868 0.0000 0.0000
0 531.6083 -21.5022 -15.3011 0.8192 -0.4967 -0.2868 0.0000 0.0000
0 533.9026 -18.6646 -13.6628 0.8192 -0.4967 -0.2868 0.0000 0.0000
r10_rod_dark
0 509.3280 -6.2627 -0.7290 -0.8192 0.4967 0.2868 0.0000 0.0000
0 509.3280 -3.7627 -5.0591 -0.8192 0.4967 0.2868 0.0000 0.0000
0 507.0337 -6.6003 -6.6974 -0.8192 0.4967 0.2868 0.0000 0.0000
r10_rod_dark
0 509.3280 -6.2627 -0.7290 -0.8192 0.4967 0.2868 0.0000 0.0000
0 507.0337 -6.6003 -6.6974 -0.8192 0.4967 0.2868 0.0000 0.0000
0 507.0337 -9.1003 -2.3673 -0.8192 0.4967 0.2868 0.0000 0.0000
r10_rod_dark
0 507.0337 -9.1003 -2.3673 -0.5736 -0.7094 -0.4096 0.0000 0.0000
0 507.0337 -6.6003 -6.6974 -0.5736 -0.7094 -0.4096 0.0000 0.0000
0 531.6083 -21.5022 -15.3011 -0.5736 -0.7094 -0.4096 0.0000 0.0000
r10_rod_dark
0 507.0337 -9.1003 -2.3673 -0.5736 -0.7094 -0.4096 0.0000 0.0000
0 531.6083 -21.5022 -15.3011 -0.5736 -0.7094 -0.4096 0.0000 0.0000
0 531.6083 -24.0022 -10.9709 -0.5736 -0.7094 -0.4096 0.0000 0.0000
r10_rod_dark
0 509.3280 -6.2627 -0.7290 0.5736 0.7094 0.4096 0.0000 0.0000
0 533.9026 -21.1646 -9.3326 0.5736 0.7094 0.4096 0.0000 0.0000
0 533.9026 -18.6646 -13.6628 0.5736 0.7094 0.4096 0.0000 0.0000
r10_rod_dark
0 509.3280 -6.2627 -0.7290 0.5736 0.7094 0.4096 0.0000 0.0000
0 533.9026 -18.6646 -13.6628 0.5736 0.7094 0.4096 0.0000 0.0000
0 509.3280 -3.7627 -5.0591 0.5736 0.7094 0.4096 0.0000 0.0000
r10_rod_dark
0 509.3280 -3.7627 -5.0591 0.0000 0.5000 -0.8660 0.0000 0.0000
0 533.9026 -18.6646 -13.6628 0.0000 0.5000 -0.8660 0.0000 0.0000
0 531.6083 -21.5022 -15.3011 0.0000 0.5000 -0.8660 0.0000 0.0000
r10_rod_dark
0 509.3280 -3.7627 -5.0591 0.0000 0.5000 -0.8660 0.0000 0.0000
0 531.6083 -21.5022 -15.3011 0.0000 0.5000 -0.8660 0.0000 0.0000
0 507.0337 -6.6003 -6.6974 0.0000 0.5000 -0.8660 0.0000 0.0000
r10_rod_dark
0 509.3280 -6.2627 -0.7290 0.0000 -0.5000 0.8660 0.0000 0.0000
0 507.0337 -9.1003 -2.3673 0.0000 -0.5000 0.8660 0.0000 0.0000
0 531.6083 -24.0022 -10.9709 0.0000 -0.5000 0.8660 0.0000 0.0000
r10_rod_dark
0 509.3280 -6.2627 -0.7290 0.0000 -0.5000 0.8660 0.0000 0.0000
0 531.6083 -24.0022 -10.9709 0.0000 -0.5000 0.8660 0.0000 0.0000
0 533.9026 -21.1646 -9.3326 0.0000 -0.5000 0.8660 0.0000 0.0000
r10_rod_dark
0 533.9026 18.6646 -13.6628 0.8192 0.4967 -0.2868 0.0000 0.0000
0 531.6083 21.5022 -15.3011 0.8192 0.4967 -0.2868 0.0000 0.0000
0 531.6083 24.0022 -10.9709 0.8192 0.4967 -0.2868 0.0000 0.0000
r10_rod_dark
0 533.9026 18.6646 -13.6628 0.8192 0.4967 -0.2868 0.0000 0.0000
0 531.6083 24.0022 -10.9709 0.8192 0.4967 -0.2868 0.0000 0.0000
0 533.9026 21.1646 -9.3326 0.8192 0.4967 -0.2868 0.0000 0.0000
r10_rod_dark
0 509.3280 3.7627 -5.0591 -0.8192 -0.4967 0.2868 0.0000 0.0000
0 509.3280 6.2627 -0.7290 -0.8192 -0.4967 0.2868 0.0000 0.0000
0 507.0337 9.1003 -2.3673 -0.8192 -0.4967 0.2868 0.0000 0.0000
r10_rod_dark
0 509.3280 3.7627 -5.0591 -0.8192 -0.4967 0.2868 0.0000 0.0000
0 507.0337 9.1003 -2.3673 -0.8192 -0.4967 0.2868 0.0000 0.0000
0 507.0337 6.6003 -6.6974 -0.8192 -0.4967 0.2868 0.0000 0.0000
r10_rod_dark
0 507.0337 6.6003 -6.6974 -0.5736 0.7094 -0.4096 0.0000 0.0000
0 507.0337 9.1003 -2.3673 -0.5736 0.7094 -0.4096 0.0000 0.0000
0 531.6083 24.0022 -10.9709 -0.5736 0.7094 -0.4096 0.0000 0.0000
r10_rod_dark
0 507.0337 6.6003 -6.6974 -0.5736 0.7094 -0.4096 0.0000 0.0000
0 531.6083 24.0022 -10.9709 -0.5736 0.7094 -0.4096 0.0000 0.0000
0 531.6083 21.5022 -15.3011 -0.5736 0.7094 -0.4096 0.0000 0.0000
r10_rod_dark
0 509.3280 3.7627 -5.0591 0.5736 -0.7094 0.4096 0.0000 0.0000
0 533.9026 18.6646 -13.6628 0.5736 -0.7094 0.4096 0.0000 0.0000
0 533.9026 21.1646 -9.3326 0.5736 -0.7094 0.4096 0.0000 0.0000
r10_rod_dark
0 509.3280 3.7627 -5.0591 0.5736 -0.7094 0.4096 0.0000 0.0000
0 533.9026 21.1646 -9.3326 0.5736 -0.7094 0.4096 0.0000 0.0000
0 509.3280 6.2627 -0.7290 0.5736 -0.7094 0.4096 0.0000 0.0000
r10_rod_dark
0 509.3280 6.2627 -0.7290 0.0000 0.5000 0.8660 0.0000 0.0000
0 533.9026 21.1646 -9.3326 0.0000 0.5000 0.8660 0.0000 0.0000
0 531.6083 24.0022 -10.9709 0.0000 0.5000 0.8660 0.0000 0.0000
r10_rod_dark
0 509.3280 6.2627 -0.7290 0.0000 0.5000 0.8660 0.0000 0.0000
0 531.6083 24.0022 -10.9709 0.0000 0.5000 0.8660 0.0000 0.0000
0 507.0337 9.1003 -2.3673 0.0000 0.5000 0.8660 0.0000 0.0000
r10_rod_dark
0 509.3280 3.7627 -5.0591 0.0000 -0.5000 -0.8660 0.0000 0.0000
0 507.0337 6.6003 -6.6974 0.0000 -0.5000 -0.8660 0.0000 0.0000
0 531.6083 21.5022 -15.3011 0.0000 -0.5000 -0.8660 0.0000 0.0000
r10_rod_dark
0 509.3280 3.7627 -5.0591 0.0000 -0.5000 -0.8660 0.0000 0.0000
0 531.6083 21.5022 -15.3011 0.0000 -0.5000 -0.8660 0.0000 0.0000
0 533.9026 18.6646 -13.6628 0.0000 -0.5000 -0.8660 0.0000 0.0000
end
