version 1
nodes
0 "root" -1
end
skeleton
time 0
0 0 0 0 0 0 0
end
triangles
r10_post_grey
0 0.000 13.000 0.000 0.000 1.000 0.000 0.000 0.000
0 250.000 12.010 4.975 0.000 0.924 0.383 1.000 1.000
0 250.000 13.000 0.000 0.000 1.000 0.000 1.000 0.000
r10_post_grey
0 0.000 13.000 0.000 0.000 1.000 0.000 0.000 0.000
0 0.000 12.010 4.975 0.000 0.924 0.383 0.000 1.000
0 250.000 12.010 4.975 0.000 0.924 0.383 1.000 1.000
r10_post_grey
0 250.000 0.000 0.000 1.000 0.000 0.000 0.500 0.500
0 250.000 13.000 0.000 1.000 0.000 0.000 0.000 0.000
0 250.000 12.010 4.975 1.000 0.000 0.000 1.000 0.000
r10_post_grey
0 0.000 0.000 0.000 -1.000 0.000 0.000 0.500 0.500
0 0.000 12.010 4.975 -1.000 0.000 0.000 1.000 0.000
0 0.000 13.000 0.000 -1.000 0.000 0.000 0.000 0.000
r10_post_grey
0 0.000 12.010 4.975 0.000 0.924 0.383 0.000 0.000
0 250.000 9.192 9.192 0.000 0.707 0.707 1.000 1.000
0 250.000 12.010 4.975 0.000 0.924 0.383 1.000 0.000
r10_post_grey
0 0.000 12.010 4.975 0.000 0.924 0.383 0.000 0.000
0 0.000 9.192 9.192 0.000 0.707 0.707 0.000 1.000
0 250.000 9.192 9.192 0.000 0.707 0.707 1.000 1.000
r10_post_grey
0 250.000 0.000 0.000 1.000 0.000 0.000 0.500 0.500
0 250.000 12.010 4.975 1.000 0.000 0.000 0.000 0.000
0 250.000 9.192 9.192 1.000 0.000 0.000 1.000 0.000
r10_post_grey
0 0.000 0.000 0.000 -1.000 0.000 0.000 0.500 0.500
0 0.000 9.192 9.192 -1.000 0.000 0.000 1.000 0.000
0 0.000 12.010 4.975 -1.000 0.000 0.000 0.000 0.000
r10_post_grey
0 0.000 9.192 9.192 0.000 0.707 0.707 0.000 0.000
0 250.000 4.975 12.010 0.000 0.383 0.924 1.000 1.000
0 250.000 9.192 9.192 0.000 0.707 0.707 1.000 0.000
r10_post_grey
0 0.000 9.192 9.192 0.000 0.707 0.707 0.000 0.000
0 0.000 4.975 12.010 0.000 0.383 0.924 0.000 1.000
0 250.000 4.975 12.010 0.000 0.383 0.924 1.000 1.000
r10_post_grey
0 250.000 0.000 0.000 1.000 0.000 0.000 0.500 0.500
0 250.000 9.192 9.192 1.000 0.000 0.000 0.000 0.000
0 250.000 4.975 12.010 1.000 0.000 0.000 1.000 0.000
r10_post_grey
0 0.000 0.000 0.000 -1.000 0.000 0.000 0.500 0.500
0 0.000 4.975 12.010 -1.000 0.000 0.000 1.000 0.000
0 0.000 9.192 9.192 -1.000 0.000 0.000 0.000 0.000
r10_post_grey
0 0.000 4.975 12.010 0.000 0.383 0.924 0.000 0.000
0 250.000 0.000 13.000 0.000 0.000 1.000 1.000 1.000
0 250.000 4.975 12.010 0.000 0.383 0.924 1.000 0.000
r10_post_grey
0 0.000 4.975 12.010 0.000 0.383 0.924 0.000 0.000
0 0.000 0.000 13.000 0.000 0.000 1.000 0.000 1.000
0 250.000 0.000 13.000 0.000 0.000 1.000 1.000 1.000
r10_post_grey
0 250.000 0.000 0.000 1.000 0.000 0.000 0.500 0.500
0 250.000 4.975 12.010 1.000 0.000 0.000 0.000 0.000
0 250.000 0.000 13.000 1.000 0.000 0.000 1.000 0.000
r10_post_grey
0 0.000 0.000 0.000 -1.000 0.000 0.000 0.500 0.500
0 0.000 0.000 13.000 -1.000 0.000 0.000 1.000 0.000
0 0.000 4.975 12.010 -1.000 0.000 0.000 0.000 0.000
r10_post_grey
0 0.000 0.000 13.000 0.000 0.000 1.000 0.000 0.000
0 250.000 -4.975 12.010 0.000 -0.383 0.924 1.000 1.000
0 250.000 0.000 13.000 0.000 0.000 1.000 1.000 0.000
r10_post_grey
0 0.000 0.000 13.000 0.000 0.000 1.000 0.000 0.000
0 0.000 -4.975 12.010 0.000 -0.383 0.924 0.000 1.000
0 250.000 -4.975 12.010 0.000 -0.383 0.924 1.000 1.000
r10_post_grey
0 250.000 0.000 0.000 1.000 0.000 0.000 0.500 0.500
0 250.000 0.000 13.000 1.000 0.000 0.000 0.000 0.000
0 250.000 -4.975 12.010 1.000 0.000 0.000 1.000 0.000
r10_post_grey
0 0.000 0.000 0.000 -1.000 0.000 0.000 0.500 0.500
0 0.000 -4.975 12.010 -1.000 0.000 0.000 1.000 0.000
0 0.000 0.000 13.000 -1.000 0.000 0.000 0.000 0.000
r10_post_grey
0 0.000 -4.975 12.010 0.000 -0.383 0.924 0.000 0.000
0 250.000 -9.192 9.192 0.000 -0.707 0.707 1.000 1.000
0 250.000 -4.975 12.010 0.000 -0.383 0.924 1.000 0.000
r10_post_grey
0 0.000 -4.975 12.010 0.000 -0.383 0.924 0.000 0.000
0 0.000 -9.192 9.192 0.000 -0.707 0.707 0.000 1.000
0 250.000 -9.192 9.192 0.000 -0.707 0.707 1.000 1.000
r10_post_grey
0 250.000 0.000 0.000 1.000 0.000 0.000 0.500 0.500
0 250.000 -4.975 12.010 1.000 0.000 0.000 0.000 0.000
0 250.000 -9.192 9.192 1.000 0.000 0.000 1.000 0.000
r10_post_grey
0 0.000 0.000 0.000 -1.000 0.000 0.000 0.500 0.500
0 0.000 -9.192 9.192 -1.000 0.000 0.000 1.000 0.000
0 0.000 -4.975 12.010 -1.000 0.000 0.000 0.000 0.000
r10_post_grey
0 0.000 -9.192 9.192 0.000 -0.707 0.707 0.000 0.000
0 250.000 -12.010 4.975 0.000 -0.924 0.383 1.000 1.000
0 250.000 -9.192 9.192 0.000 -0.707 0.707 1.000 0.000
r10_post_grey
0 0.000 -9.192 9.192 0.000 -0.707 0.707 0.000 0.000
0 0.000 -12.010 4.975 0.000 -0.924 0.383 0.000 1.000
0 250.000 -12.010 4.975 0.000 -0.924 0.383 1.000 1.000
r10_post_grey
0 250.000 0.000 0.000 1.000 0.000 0.000 0.500 0.500
0 250.000 -9.192 9.192 1.000 0.000 0.000 0.000 0.000
0 250.000 -12.010 4.975 1.000 0.000 0.000 1.000 0.000
r10_post_grey
0 0.000 0.000 0.000 -1.000 0.000 0.000 0.500 0.500
0 0.000 -12.010 4.975 -1.000 0.000 0.000 1.000 0.000
0 0.000 -9.192 9.192 -1.000 0.000 0.000 0.000 0.000
r10_post_grey
0 0.000 -12.010 4.975 0.000 -0.924 0.383 0.000 0.000
0 250.000 -13.000 0.000 0.000 -1.000 0.000 1.000 1.000
0 250.000 -12.010 4.975 0.000 -0.924 0.383 1.000 0.000
r10_post_grey
0 0.000 -12.010 4.975 0.000 -0.924 0.383 0.000 0.000
0 0.000 -13.000 0.000 0.000 -1.000 0.000 0.000 1.000
0 250.000 -13.000 0.000 0.000 -1.000 0.000 1.000 1.000
r10_post_grey
0 250.000 0.000 0.000 1.000 0.000 0.000 0.500 0.500
0 250.000 -12.010 4.975 1.000 0.000 0.000 0.000 0.000
0 250.000 -13.000 0.000 1.000 0.000 0.000 1.000 0.000
r10_post_grey
0 0.000 0.000 0.000 -1.000 0.000 0.000 0.500 0.500
0 0.000 -13.000 0.000 -1.000 0.000 0.000 1.000 0.000
0 0.000 -12.010 4.975 -1.000 0.000 0.000 0.000 0.000
r10_post_grey
0 0.000 -13.000 0.000 0.000 -1.000 0.000 0.000 0.000
0 250.000 -12.010 -4.975 0.000 -0.924 -0.383 1.000 1.000
0 250.000 -13.000 0.000 0.000 -1.000 0.000 1.000 0.000
r10_post_grey
0 0.000 -13.000 0.000 0.000 -1.000 0.000 0.000 0.000
0 0.000 -12.010 -4.975 0.000 -0.924 -0.383 0.000 1.000
0 250.000 -12.010 -4.975 0.000 -0.924 -0.383 1.000 1.000
r10_post_grey
0 250.000 0.000 0.000 1.000 0.000 0.000 0.500 0.500
0 250.000 -13.000 0.000 1.000 0.000 0.000 0.000 0.000
0 250.000 -12.010 -4.975 1.000 0.000 0.000 1.000 0.000
r10_post_grey
0 0.000 0.000 0.000 -1.000 0.000 0.000 0.500 0.500
0 0.000 -12.010 -4.975 -1.000 0.000 0.000 1.000 0.000
0 0.000 -13.000 0.000 -1.000 0.000 0.000 0.000 0.000
r10_post_grey
0 0.000 -12.010 -4.975 0.000 -0.924 -0.383 0.000 0.000
0 250.000 -9.192 -9.192 0.000 -0.707 -0.707 1.000 1.000
0 250.000 -12.010 -4.975 0.000 -0.924 -0.383 1.000 0.000
r10_post_grey
0 0.000 -12.010 -4.975 0.000 -0.924 -0.383 0.000 0.000
0 0.000 -9.192 -9.192 0.000 -0.707 -0.707 0.000 1.000
0 250.000 -9.192 -9.192 0.000 -0.707 -0.707 1.000 1.000
r10_post_grey
0 250.000 0.000 0.000 1.000 0.000 0.000 0.500 0.500
0 250.000 -12.010 -4.975 1.000 0.000 0.000 0.000 0.000
0 250.000 -9.192 -9.192 1.000 0.000 0.000 1.000 0.000
r10_post_grey
0 0.000 0.000 0.000 -1.000 0.000 0.000 0.500 0.500
0 0.000 -9.192 -9.192 -1.000 0.000 0.000 1.000 0.000
0 0.000 -12.010 -4.975 -1.000 0.000 0.000 0.000 0.000
r10_post_grey
0 0.000 -9.192 -9.192 0.000 -0.707 -0.707 0.000 0.000
0 250.000 -4.975 -12.010 0.000 -0.383 -0.924 1.000 1.000
0 250.000 -9.192 -9.192 0.000 -0.707 -0.707 1.000 0.000
r10_post_grey
0 0.000 -9.192 -9.192 0.000 -0.707 -0.707 0.000 0.000
0 0.000 -4.975 -12.010 0.000 -0.383 -0.924 0.000 1.000
0 250.000 -4.975 -12.010 0.000 -0.383 -0.924 1.000 1.000
r10_post_grey
0 250.000 0.000 0.000 1.000 0.000 0.000 0.500 0.500
0 250.000 -9.192 -9.192 1.000 0.000 0.000 0.000 0.000
0 250.000 -4.975 -12.010 1.000 0.000 0.000 1.000 0.000
r10_post_grey
0 0.000 0.000 0.000 -1.000 0.000 0.000 0.500 0.500
0 0.000 -4.975 -12.010 -1.000 0.000 0.000 1.000 0.000
0 0.000 -9.192 -9.192 -1.000 0.000 0.000 0.000 0.000
r10_post_grey
0 0.000 -4.975 -12.010 0.000 -0.383 -0.924 0.000 0.000
0 250.000 -0.000 -13.000 0.000 -0.000 -1.000 1.000 1.000
0 250.000 -4.975 -12.010 0.000 -0.383 -0.924 1.000 0.000
r10_post_grey
0 0.000 -4.975 -12.010 0.000 -0.383 -0.924 0.000 0.000
0 0.000 -0.000 -13.000 0.000 -0.000 -1.000 0.000 1.000
0 250.000 -0.000 -13.000 0.000 -0.000 -1.000 1.000 1.000
r10_post_grey
0 250.000 0.000 0.000 1.000 0.000 0.000 0.500 0.500
0 250.000 -4.975 -12.010 1.000 0.000 0.000 0.000 0.000
0 250.000 -0.000 -13.000 1.000 0.000 0.000 1.000 0.000
r10_post_grey
0 0.000 0.000 0.000 -1.000 0.000 0.000 0.500 0.500
0 0.000 -0.000 -13.000 -1.000 0.000 0.000 1.000 0.000
0 0.000 -4.975 -12.010 -1.000 0.000 0.000 0.000 0.000
r10_post_grey
0 0.000 -0.000 -13.000 0.000 -0.000 -1.000 0.000 0.000
0 250.000 4.975 -12.010 0.000 0.383 -0.924 1.000 1.000
0 250.000 -0.000 -13.000 0.000 -0.000 -1.000 1.000 0.000
r10_post_grey
0 0.000 -0.000 -13.000 0.000 -0.000 -1.000 0.000 0.000
0 0.000 4.975 -12.010 0.000 0.383 -0.924 0.000 1.000
0 250.000 4.975 -12.010 0.000 0.383 -0.924 1.000 1.000
r10_post_grey
0 250.000 0.000 0.000 1.000 0.000 0.000 0.500 0.500
0 250.000 -0.000 -13.000 1.000 0.000 0.000 0.000 0.000
0 250.000 4.975 -12.010 1.000 0.000 0.000 1.000 0.000
r10_post_grey
0 0.000 0.000 0.000 -1.000 0.000 0.000 0.500 0.500
0 0.000 4.975 -12.010 -1.000 0.000 0.000 1.000 0.000
0 0.000 -0.000 -13.000 -1.000 0.000 0.000 0.000 0.000
r10_post_grey
0 0.000 4.975 -12.010 0.000 0.383 -0.924 0.000 0.000
0 250.000 9.192 -9.192 0.000 0.707 -0.707 1.000 1.000
0 250.000 4.975 -12.010 0.000 0.383 -0.924 1.000 0.000
r10_post_grey
0 0.000 4.975 -12.010 0.000 0.383 -0.924 0.000 0.000
0 0.000 9.192 -9.192 0.000 0.707 -0.707 0.000 1.000
0 250.000 9.192 -9.192 0.000 0.707 -0.707 1.000 1.000
r10_post_grey
0 250.000 0.000 0.000 1.000 0.000 0.000 0.500 0.500
0 250.000 4.975 -12.010 1.000 0.000 0.000 0.000 0.000
0 250.000 9.192 -9.192 1.000 0.000 0.000 1.000 0.000
r10_post_grey
0 0.000 0.000 0.000 -1.000 0.000 0.000 0.500 0.500
0 0.000 9.192 -9.192 -1.000 0.000 0.000 1.000 0.000
0 0.000 4.975 -12.010 -1.000 0.000 0.000 0.000 0.000
r10_post_grey
0 0.000 9.192 -9.192 0.000 0.707 -0.707 0.000 0.000
0 250.000 12.010 -4.975 0.000 0.924 -0.383 1.000 1.000
0 250.000 9.192 -9.192 0.000 0.707 -0.707 1.000 0.000
r10_post_grey
0 0.000 9.192 -9.192 0.000 0.707 -0.707 0.000 0.000
0 0.000 12.010 -4.975 0.000 0.924 -0.383 0.000 1.000
0 250.000 12.010 -4.975 0.000 0.924 -0.383 1.000 1.000
r10_post_grey
0 250.000 0.000 0.000 1.000 0.000 0.000 0.500 0.500
0 250.000 9.192 -9.192 1.000 0.000 0.000 0.000 0.000
0 250.000 12.010 -4.975 1.000 0.000 0.000 1.000 0.000
r10_post_grey
0 0.000 0.000 0.000 -1.000 0.000 0.000 0.500 0.500
0 0.000 12.010 -4.975 -1.000 0.000 0.000 1.000 0.000
0 0.000 9.192 -9.192 -1.000 0.000 0.000 0.000 0.000
r10_post_grey
0 0.000 12.010 -4.975 0.000 0.924 -0.383 0.000 0.000
0 250.000 13.000 -0.000 0.000 1.000 -0.000 1.000 1.000
0 250.000 12.010 -4.975 0.000 0.924 -0.383 1.000 0.000
r10_post_grey
0 0.000 12.010 -4.975 0.000 0.924 -0.383 0.000 0.000
0 0.000 13.000 -0.000 0.000 1.000 -0.000 0.000 1.000
0 250.000 13.000 -0.000 0.000 1.000 -0.000 1.000 1.000
r10_post_grey
0 250.000 0.000 0.000 1.000 0.000 0.000 0.500 0.500
0 250.000 12.010 -4.975 1.000 0.000 0.000 0.000 0.000
0 250.000 13.000 -0.000 1.000 0.000 0.000 1.000 0.000
r10_post_grey
0 0.000 0.000 0.000 -1.000 0.000 0.000 0.500 0.500
0 0.000 13.000 -0.000 -1.000 0.000 0.000 1.000 0.000
0 0.000 12.010 -4.975 -1.000 0.000 0.000 0.000 0.000
r10_post_dark
0 236.000 22.000 0.000 0.000 1.000 0.000 0.000 0.000
0 250.000 20.325 8.419 0.000 0.924 0.383 1.000 1.000
0 250.000 22.000 0.000 0.000 1.000 0.000 1.000 0.000
r10_post_dark
0 236.000 22.000 0.000 0.000 1.000 0.000 0.000 0.000
0 236.000 20.325 8.419 0.000 0.924 0.383 0.000 1.000
0 250.000 20.325 8.419 0.000 0.924 0.383 1.000 1.000
r10_post_dark
0 250.000 0.000 0.000 1.000 0.000 0.000 0.500 0.500
0 250.000 22.000 0.000 1.000 0.000 0.000 0.000 0.000
0 250.000 20.325 8.419 1.000 0.000 0.000 1.000 0.000
r10_post_dark
0 236.000 0.000 0.000 -1.000 0.000 0.000 0.500 0.500
0 236.000 20.325 8.419 -1.000 0.000 0.000 1.000 0.000
0 236.000 22.000 0.000 -1.000 0.000 0.000 0.000 0.000
r10_post_dark
0 236.000 20.325 8.419 0.000 0.924 0.383 0.000 0.000
0 250.000 15.556 15.556 0.000 0.707 0.707 1.000 1.000
0 250.000 20.325 8.419 0.000 0.924 0.383 1.000 0.000
r10_post_dark
0 236.000 20.325 8.419 0.000 0.924 0.383 0.000 0.000
0 236.000 15.556 15.556 0.000 0.707 0.707 0.000 1.000
0 250.000 15.556 15.556 0.000 0.707 0.707 1.000 1.000
r10_post_dark
0 250.000 0.000 0.000 1.000 0.000 0.000 0.500 0.500
0 250.000 20.325 8.419 1.000 0.000 0.000 0.000 0.000
0 250.000 15.556 15.556 1.000 0.000 0.000 1.000 0.000
r10_post_dark
0 236.000 0.000 0.000 -1.000 0.000 0.000 0.500 0.500
0 236.000 15.556 15.556 -1.000 0.000 0.000 1.000 0.000
0 236.000 20.325 8.419 -1.000 0.000 0.000 0.000 0.000
r10_post_dark
0 236.000 15.556 15.556 0.000 0.707 0.707 0.000 0.000
0 250.000 8.419 20.325 0.000 0.383 0.924 1.000 1.000
0 250.000 15.556 15.556 0.000 0.707 0.707 1.000 0.000
r10_post_dark
0 236.000 15.556 15.556 0.000 0.707 0.707 0.000 0.000
0 236.000 8.419 20.325 0.000 0.383 0.924 0.000 1.000
0 250.000 8.419 20.325 0.000 0.383 0.924 1.000 1.000
r10_post_dark
0 250.000 0.000 0.000 1.000 0.000 0.000 0.500 0.500
0 250.000 15.556 15.556 1.000 0.000 0.000 0.000 0.000
0 250.000 8.419 20.325 1.000 0.000 0.000 1.000 0.000
r10_post_dark
0 236.000 0.000 0.000 -1.000 0.000 0.000 0.500 0.500
0 236.000 8.419 20.325 -1.000 0.000 0.000 1.000 0.000
0 236.000 15.556 15.556 -1.000 0.000 0.000 0.000 0.000
r10_post_dark
0 236.000 8.419 20.325 0.000 0.383 0.924 0.000 0.000
0 250.000 0.000 22.000 0.000 0.000 1.000 1.000 1.000
0 250.000 8.419 20.325 0.000 0.383 0.924 1.000 0.000
r10_post_dark
0 236.000 8.419 20.325 0.000 0.383 0.924 0.000 0.000
0 236.000 0.000 22.000 0.000 0.000 1.000 0.000 1.000
0 250.000 0.000 22.000 0.000 0.000 1.000 1.000 1.000
r10_post_dark
0 250.000 0.000 0.000 1.000 0.000 0.000 0.500 0.500
0 250.000 8.419 20.325 1.000 0.000 0.000 0.000 0.000
0 250.000 0.000 22.000 1.000 0.000 0.000 1.000 0.000
r10_post_dark
0 236.000 0.000 0.000 -1.000 0.000 0.000 0.500 0.500
0 236.000 0.000 22.000 -1.000 0.000 0.000 1.000 0.000
0 236.000 8.419 20.325 -1.000 0.000 0.000 0.000 0.000
r10_post_dark
0 236.000 0.000 22.000 0.000 0.000 1.000 0.000 0.000
0 250.000 -8.419 20.325 0.000 -0.383 0.924 1.000 1.000
0 250.000 0.000 22.000 0.000 0.000 1.000 1.000 0.000
r10_post_dark
0 236.000 0.000 22.000 0.000 0.000 1.000 0.000 0.000
0 236.000 -8.419 20.325 0.000 -0.383 0.924 0.000 1.000
0 250.000 -8.419 20.325 0.000 -0.383 0.924 1.000 1.000
r10_post_dark
0 250.000 0.000 0.000 1.000 0.000 0.000 0.500 0.500
0 250.000 0.000 22.000 1.000 0.000 0.000 0.000 0.000
0 250.000 -8.419 20.325 1.000 0.000 0.000 1.000 0.000
r10_post_dark
0 236.000 0.000 0.000 -1.000 0.000 0.000 0.500 0.500
0 236.000 -8.419 20.325 -1.000 0.000 0.000 1.000 0.000
0 236.000 0.000 22.000 -1.000 0.000 0.000 0.000 0.000
r10_post_dark
0 236.000 -8.419 20.325 0.000 -0.383 0.924 0.000 0.000
0 250.000 -15.556 15.556 0.000 -0.707 0.707 1.000 1.000
0 250.000 -8.419 20.325 0.000 -0.383 0.924 1.000 0.000
r10_post_dark
0 236.000 -8.419 20.325 0.000 -0.383 0.924 0.000 0.000
0 236.000 -15.556 15.556 0.000 -0.707 0.707 0.000 1.000
0 250.000 -15.556 15.556 0.000 -0.707 0.707 1.000 1.000
r10_post_dark
0 250.000 0.000 0.000 1.000 0.000 0.000 0.500 0.500
0 250.000 -8.419 20.325 1.000 0.000 0.000 0.000 0.000
0 250.000 -15.556 15.556 1.000 0.000 0.000 1.000 0.000
r10_post_dark
0 236.000 0.000 0.000 -1.000 0.000 0.000 0.500 0.500
0 236.000 -15.556 15.556 -1.000 0.000 0.000 1.000 0.000
0 236.000 -8.419 20.325 -1.000 0.000 0.000 0.000 0.000
r10_post_dark
0 236.000 -15.556 15.556 0.000 -0.707 0.707 0.000 0.000
0 250.000 -20.325 8.419 0.000 -0.924 0.383 1.000 1.000
0 250.000 -15.556 15.556 0.000 -0.707 0.707 1.000 0.000
r10_post_dark
0 236.000 -15.556 15.556 0.000 -0.707 0.707 0.000 0.000
0 236.000 -20.325 8.419 0.000 -0.924 0.383 0.000 1.000
0 250.000 -20.325 8.419 0.000 -0.924 0.383 1.000 1.000
r10_post_dark
0 250.000 0.000 0.000 1.000 0.000 0.000 0.500 0.500
0 250.000 -15.556 15.556 1.000 0.000 0.000 0.000 0.000
0 250.000 -20.325 8.419 1.000 0.000 0.000 1.000 0.000
r10_post_dark
0 236.000 0.000 0.000 -1.000 0.000 0.000 0.500 0.500
0 236.000 -20.325 8.419 -1.000 0.000 0.000 1.000 0.000
0 236.000 -15.556 15.556 -1.000 0.000 0.000 0.000 0.000
r10_post_dark
0 236.000 -20.325 8.419 0.000 -0.924 0.383 0.000 0.000
0 250.000 -22.000 0.000 0.000 -1.000 0.000 1.000 1.000
0 250.000 -20.325 8.419 0.000 -0.924 0.383 1.000 0.000
r10_post_dark
0 236.000 -20.325 8.419 0.000 -0.924 0.383 0.000 0.000
0 236.000 -22.000 0.000 0.000 -1.000 0.000 0.000 1.000
0 250.000 -22.000 0.000 0.000 -1.000 0.000 1.000 1.000
r10_post_dark
0 250.000 0.000 0.000 1.000 0.000 0.000 0.500 0.500
0 250.000 -20.325 8.419 1.000 0.000 0.000 0.000 0.000
0 250.000 -22.000 0.000 1.000 0.000 0.000 1.000 0.000
r10_post_dark
0 236.000 0.000 0.000 -1.000 0.000 0.000 0.500 0.500
0 236.000 -22.000 0.000 -1.000 0.000 0.000 1.000 0.000
0 236.000 -20.325 8.419 -1.000 0.000 0.000 0.000 0.000
r10_post_dark
0 236.000 -22.000 0.000 0.000 -1.000 0.000 0.000 0.000
0 250.000 -20.325 -8.419 0.000 -0.924 -0.383 1.000 1.000
0 250.000 -22.000 0.000 0.000 -1.000 0.000 1.000 0.000
r10_post_dark
0 236.000 -22.000 0.000 0.000 -1.000 0.000 0.000 0.000
0 236.000 -20.325 -8.419 0.000 -0.924 -0.383 0.000 1.000
0 250.000 -20.325 -8.419 0.000 -0.924 -0.383 1.000 1.000
r10_post_dark
0 250.000 0.000 0.000 1.000 0.000 0.000 0.500 0.500
0 250.000 -22.000 0.000 1.000 0.000 0.000 0.000 0.000
0 250.000 -20.325 -8.419 1.000 0.000 0.000 1.000 0.000
r10_post_dark
0 236.000 0.000 0.000 -1.000 0.000 0.000 0.500 0.500
0 236.000 -20.325 -8.419 -1.000 0.000 0.000 1.000 0.000
0 236.000 -22.000 0.000 -1.000 0.000 0.000 0.000 0.000
r10_post_dark
0 236.000 -20.325 -8.419 0.000 -0.924 -0.383 0.000 0.000
0 250.000 -15.556 -15.556 0.000 -0.707 -0.707 1.000 1.000
0 250.000 -20.325 -8.419 0.000 -0.924 -0.383 1.000 0.000
r10_post_dark
0 236.000 -20.325 -8.419 0.000 -0.924 -0.383 0.000 0.000
0 236.000 -15.556 -15.556 0.000 -0.707 -0.707 0.000 1.000
0 250.000 -15.556 -15.556 0.000 -0.707 -0.707 1.000 1.000
r10_post_dark
0 250.000 0.000 0.000 1.000 0.000 0.000 0.500 0.500
0 250.000 -20.325 -8.419 1.000 0.000 0.000 0.000 0.000
0 250.000 -15.556 -15.556 1.000 0.000 0.000 1.000 0.000
r10_post_dark
0 236.000 0.000 0.000 -1.000 0.000 0.000 0.500 0.500
0 236.000 -15.556 -15.556 -1.000 0.000 0.000 1.000 0.000
0 236.000 -20.325 -8.419 -1.000 0.000 0.000 0.000 0.000
r10_post_dark
0 236.000 -15.556 -15.556 0.000 -0.707 -0.707 0.000 0.000
0 250.000 -8.419 -20.325 0.000 -0.383 -0.924 1.000 1.000
0 250.000 -15.556 -15.556 0.000 -0.707 -0.707 1.000 0.000
r10_post_dark
0 236.000 -15.556 -15.556 0.000 -0.707 -0.707 0.000 0.000
0 236.000 -8.419 -20.325 0.000 -0.383 -0.924 0.000 1.000
0 250.000 -8.419 -20.325 0.000 -0.383 -0.924 1.000 1.000
r10_post_dark
0 250.000 0.000 0.000 1.000 0.000 0.000 0.500 0.500
0 250.000 -15.556 -15.556 1.000 0.000 0.000 0.000 0.000
0 250.000 -8.419 -20.325 1.000 0.000 0.000 1.000 0.000
r10_post_dark
0 236.000 0.000 0.000 -1.000 0.000 0.000 0.500 0.500
0 236.000 -8.419 -20.325 -1.000 0.000 0.000 1.000 0.000
0 236.000 -15.556 -15.556 -1.000 0.000 0.000 0.000 0.000
r10_post_dark
0 236.000 -8.419 -20.325 0.000 -0.383 -0.924 0.000 0.000
0 250.000 -0.000 -22.000 0.000 -0.000 -1.000 1.000 1.000
0 250.000 -8.419 -20.325 0.000 -0.383 -0.924 1.000 0.000
r10_post_dark
0 236.000 -8.419 -20.325 0.000 -0.383 -0.924 0.000 0.000
0 236.000 -0.000 -22.000 0.000 -0.000 -1.000 0.000 1.000
0 250.000 -0.000 -22.000 0.000 -0.000 -1.000 1.000 1.000
r10_post_dark
0 250.000 0.000 0.000 1.000 0.000 0.000 0.500 0.500
0 250.000 -8.419 -20.325 1.000 0.000 0.000 0.000 0.000
0 250.000 -0.000 -22.000 1.000 0.000 0.000 1.000 0.000
r10_post_dark
0 236.000 0.000 0.000 -1.000 0.000 0.000 0.500 0.500
0 236.000 -0.000 -22.000 -1.000 0.000 0.000 1.000 0.000
0 236.000 -8.419 -20.325 -1.000 0.000 0.000 0.000 0.000
r10_post_dark
0 236.000 -0.000 -22.000 0.000 -0.000 -1.000 0.000 0.000
0 250.000 8.419 -20.325 0.000 0.383 -0.924 1.000 1.000
0 250.000 -0.000 -22.000 0.000 -0.000 -1.000 1.000 0.000
r10_post_dark
0 236.000 -0.000 -22.000 0.000 -0.000 -1.000 0.000 0.000
0 236.000 8.419 -20.325 0.000 0.383 -0.924 0.000 1.000
0 250.000 8.419 -20.325 0.000 0.383 -0.924 1.000 1.000
r10_post_dark
0 250.000 0.000 0.000 1.000 0.000 0.000 0.500 0.500
0 250.000 -0.000 -22.000 1.000 0.000 0.000 0.000 0.000
0 250.000 8.419 -20.325 1.000 0.000 0.000 1.000 0.000
r10_post_dark
0 236.000 0.000 0.000 -1.000 0.000 0.000 0.500 0.500
0 236.000 8.419 -20.325 -1.000 0.000 0.000 1.000 0.000
0 236.000 -0.000 -22.000 -1.000 0.000 0.000 0.000 0.000
r10_post_dark
0 236.000 8.419 -20.325 0.000 0.383 -0.924 0.000 0.000
0 250.000 15.556 -15.556 0.000 0.707 -0.707 1.000 1.000
0 250.000 8.419 -20.325 0.000 0.383 -0.924 1.000 0.000
r10_post_dark
0 236.000 8.419 -20.325 0.000 0.383 -0.924 0.000 0.000
0 236.000 15.556 -15.556 0.000 0.707 -0.707 0.000 1.000
0 250.000 15.556 -15.556 0.000 0.707 -0.707 1.000 1.000
r10_post_dark
0 250.000 0.000 0.000 1.000 0.000 0.000 0.500 0.500
0 250.000 8.419 -20.325 1.000 0.000 0.000 0.000 0.000
0 250.000 15.556 -15.556 1.000 0.000 0.000 1.000 0.000
r10_post_dark
0 236.000 0.000 0.000 -1.000 0.000 0.000 0.500 0.500
0 236.000 15.556 -15.556 -1.000 0.000 0.000 1.000 0.000
0 236.000 8.419 -20.325 -1.000 0.000 0.000 0.000 0.000
r10_post_dark
0 236.000 15.556 -15.556 0.000 0.707 -0.707 0.000 0.000
0 250.000 20.325 -8.419 0.000 0.924 -0.383 1.000 1.000
0 250.000 15.556 -15.556 0.000 0.707 -0.707 1.000 0.000
r10_post_dark
0 236.000 15.556 -15.556 0.000 0.707 -0.707 0.000 0.000
0 236.000 20.325 -8.419 0.000 0.924 -0.383 0.000 1.000
0 250.000 20.325 -8.419 0.000 0.924 -0.383 1.000 1.000
r10_post_dark
0 250.000 0.000 0.000 1.000 0.000 0.000 0.500 0.500
0 250.000 15.556 -15.556 1.000 0.000 0.000 0.000 0.000
0 250.000 20.325 -8.419 1.000 0.000 0.000 1.000 0.000
r10_post_dark
0 236.000 0.000 0.000 -1.000 0.000 0.000 0.500 0.500
0 236.000 20.325 -8.419 -1.000 0.000 0.000 1.000 0.000
0 236.000 15.556 -15.556 -1.000 0.000 0.000 0.000 0.000
r10_post_dark
0 236.000 20.325 -8.419 0.000 0.924 -0.383 0.000 0.000
0 250.000 22.000 -0.000 0.000 1.000 -0.000 1.000 1.000
0 250.000 20.325 -8.419 0.000 0.924 -0.383 1.000 0.000
r10_post_dark
0 236.000 20.325 -8.419 0.000 0.924 -0.383 0.000 0.000
0 236.000 22.000 -0.000 0.000 1.000 -0.000 0.000 1.000
0 250.000 22.000 -0.000 0.000 1.000 -0.000 1.000 1.000
r10_post_dark
0 250.000 0.000 0.000 1.000 0.000 0.000 0.500 0.500
0 250.000 20.325 -8.419 1.000 0.000 0.000 0.000 0.000
0 250.000 22.000 -0.000 1.000 0.000 0.000 1.000 0.000
r10_post_dark
0 236.000 0.000 0.000 -1.000 0.000 0.000 0.500 0.500
0 236.000 22.000 -0.000 -1.000 0.000 0.000 1.000 0.000
0 236.000 20.325 -8.419 -1.000 0.000 0.000 0.000 0.000
r10_post_dark
0 118.000 16.000 0.000 0.000 1.000 0.000 0.000 0.000
0 140.000 14.782 6.123 0.000 0.924 0.383 1.000 1.000
0 140.000 16.000 0.000 0.000 1.000 0.000 1.000 0.000
r10_post_dark
0 118.000 16.000 0.000 0.000 1.000 0.000 0.000 0.000
0 118.000 14.782 6.123 0.000 0.924 0.383 0.000 1.000
0 140.000 14.782 6.123 0.000 0.924 0.383 1.000 1.000
r10_post_dark
0 140.000 0.000 0.000 1.000 0.000 0.000 0.500 0.500
0 140.000 16.000 0.000 1.000 0.000 0.000 0.000 0.000
0 140.000 14.782 6.123 1.000 0.000 0.000 1.000 0.000
r10_post_dark
0 118.000 0.000 0.000 -1.000 0.000 0.000 0.500 0.500
0 118.000 14.782 6.123 -1.000 0.000 0.000 1.000 0.000
0 118.000 16.000 0.000 -1.000 0.000 0.000 0.000 0.000
r10_post_dark
0 118.000 14.782 6.123 0.000 0.924 0.383 0.000 0.000
0 140.000 11.314 11.314 0.000 0.707 0.707 1.000 1.000
0 140.000 14.782 6.123 0.000 0.924 0.383 1.000 0.000
r10_post_dark
0 118.000 14.782 6.123 0.000 0.924 0.383 0.000 0.000
0 118.000 11.314 11.314 0.000 0.707 0.707 0.000 1.000
0 140.000 11.314 11.314 0.000 0.707 0.707 1.000 1.000
r10_post_dark
0 140.000 0.000 0.000 1.000 0.000 0.000 0.500 0.500
0 140.000 14.782 6.123 1.000 0.000 0.000 0.000 0.000
0 140.000 11.314 11.314 1.000 0.000 0.000 1.000 0.000
r10_post_dark
0 118.000 0.000 0.000 -1.000 0.000 0.000 0.500 0.500
0 118.000 11.314 11.314 -1.000 0.000 0.000 1.000 0.000
0 118.000 14.782 6.123 -1.000 0.000 0.000 0.000 0.000
r10_post_dark
0 118.000 11.314 11.314 0.000 0.707 0.707 0.000 0.000
0 140.000 6.123 14.782 0.000 0.383 0.924 1.000 1.000
0 140.000 11.314 11.314 0.000 0.707 0.707 1.000 0.000
r10_post_dark
0 118.000 11.314 11.314 0.000 0.707 0.707 0.000 0.000
0 118.000 6.123 14.782 0.000 0.383 0.924 0.000 1.000
0 140.000 6.123 14.782 0.000 0.383 0.924 1.000 1.000
r10_post_dark
0 140.000 0.000 0.000 1.000 0.000 0.000 0.500 0.500
0 140.000 11.314 11.314 1.000 0.000 0.000 0.000 0.000
0 140.000 6.123 14.782 1.000 0.000 0.000 1.000 0.000
r10_post_dark
0 118.000 0.000 0.000 -1.000 0.000 0.000 0.500 0.500
0 118.000 6.123 14.782 -1.000 0.000 0.000 1.000 0.000
0 118.000 11.314 11.314 -1.000 0.000 0.000 0.000 0.000
r10_post_dark
0 118.000 6.123 14.782 0.000 0.383 0.924 0.000 0.000
0 140.000 0.000 16.000 0.000 0.000 1.000 1.000 1.000
0 140.000 6.123 14.782 0.000 0.383 0.924 1.000 0.000
r10_post_dark
0 118.000 6.123 14.782 0.000 0.383 0.924 0.000 0.000
0 118.000 0.000 16.000 0.000 0.000 1.000 0.000 1.000
0 140.000 0.000 16.000 0.000 0.000 1.000 1.000 1.000
r10_post_dark
0 140.000 0.000 0.000 1.000 0.000 0.000 0.500 0.500
0 140.000 6.123 14.782 1.000 0.000 0.000 0.000 0.000
0 140.000 0.000 16.000 1.000 0.000 0.000 1.000 0.000
r10_post_dark
0 118.000 0.000 0.000 -1.000 0.000 0.000 0.500 0.500
0 118.000 0.000 16.000 -1.000 0.000 0.000 1.000 0.000
0 118.000 6.123 14.782 -1.000 0.000 0.000 0.000 0.000
r10_post_dark
0 118.000 0.000 16.000 0.000 0.000 1.000 0.000 0.000
0 140.000 -6.123 14.782 0.000 -0.383 0.924 1.000 1.000
0 140.000 0.000 16.000 0.000 0.000 1.000 1.000 0.000
r10_post_dark
0 118.000 0.000 16.000 0.000 0.000 1.000 0.000 0.000
0 118.000 -6.123 14.782 0.000 -0.383 0.924 0.000 1.000
0 140.000 -6.123 14.782 0.000 -0.383 0.924 1.000 1.000
r10_post_dark
0 140.000 0.000 0.000 1.000 0.000 0.000 0.500 0.500
0 140.000 0.000 16.000 1.000 0.000 0.000 0.000 0.000
0 140.000 -6.123 14.782 1.000 0.000 0.000 1.000 0.000
r10_post_dark
0 118.000 0.000 0.000 -1.000 0.000 0.000 0.500 0.500
0 118.000 -6.123 14.782 -1.000 0.000 0.000 1.000 0.000
0 118.000 0.000 16.000 -1.000 0.000 0.000 0.000 0.000
r10_post_dark
0 118.000 -6.123 14.782 0.000 -0.383 0.924 0.000 0.000
0 140.000 -11.314 11.314 0.000 -0.707 0.707 1.000 1.000
0 140.000 -6.123 14.782 0.000 -0.383 0.924 1.000 0.000
r10_post_dark
0 118.000 -6.123 14.782 0.000 -0.383 0.924 0.000 0.000
0 118.000 -11.314 11.314 0.000 -0.707 0.707 0.000 1.000
0 140.000 -11.314 11.314 0.000 -0.707 0.707 1.000 1.000
r10_post_dark
0 140.000 0.000 0.000 1.000 0.000 0.000 0.500 0.500
0 140.000 -6.123 14.782 1.000 0.000 0.000 0.000 0.000
0 140.000 -11.314 11.314 1.000 0.000 0.000 1.000 0.000
r10_post_dark
0 118.000 0.000 0.000 -1.000 0.000 0.000 0.500 0.500
0 118.000 -11.314 11.314 -1.000 0.000 0.000 1.000 0.000
0 118.000 -6.123 14.782 -1.000 0.000 0.000 0.000 0.000
r10_post_dark
0 118.000 -11.314 11.314 0.000 -0.707 0.707 0.000 0.000
0 140.000 -14.782 6.123 0.000 -0.924 0.383 1.000 1.000
0 140.000 -11.314 11.314 0.000 -0.707 0.707 1.000 0.000
r10_post_dark
0 118.000 -11.314 11.314 0.000 -0.707 0.707 0.000 0.000
0 118.000 -14.782 6.123 0.000 -0.924 0.383 0.000 1.000
0 140.000 -14.782 6.123 0.000 -0.924 0.383 1.000 1.000
r10_post_dark
0 140.000 0.000 0.000 1.000 0.000 0.000 0.500 0.500
0 140.000 -11.314 11.314 1.000 0.000 0.000 0.000 0.000
0 140.000 -14.782 6.123 1.000 0.000 0.000 1.000 0.000
r10_post_dark
0 118.000 0.000 0.000 -1.000 0.000 0.000 0.500 0.500
0 118.000 -14.782 6.123 -1.000 0.000 0.000 1.000 0.000
0 118.000 -11.314 11.314 -1.000 0.000 0.000 0.000 0.000
r10_post_dark
0 118.000 -14.782 6.123 0.000 -0.924 0.383 0.000 0.000
0 140.000 -16.000 0.000 0.000 -1.000 0.000 1.000 1.000
0 140.000 -14.782 6.123 0.000 -0.924 0.383 1.000 0.000
r10_post_dark
0 118.000 -14.782 6.123 0.000 -0.924 0.383 0.000 0.000
0 118.000 -16.000 0.000 0.000 -1.000 0.000 0.000 1.000
0 140.000 -16.000 0.000 0.000 -1.000 0.000 1.000 1.000
r10_post_dark
0 140.000 0.000 0.000 1.000 0.000 0.000 0.500 0.500
0 140.000 -14.782 6.123 1.000 0.000 0.000 0.000 0.000
0 140.000 -16.000 0.000 1.000 0.000 0.000 1.000 0.000
r10_post_dark
0 118.000 0.000 0.000 -1.000 0.000 0.000 0.500 0.500
0 118.000 -16.000 0.000 -1.000 0.000 0.000 1.000 0.000
0 118.000 -14.782 6.123 -1.000 0.000 0.000 0.000 0.000
r10_post_dark
0 118.000 -16.000 0.000 0.000 -1.000 0.000 0.000 0.000
0 140.000 -14.782 -6.123 0.000 -0.924 -0.383 1.000 1.000
0 140.000 -16.000 0.000 0.000 -1.000 0.000 1.000 0.000
r10_post_dark
0 118.000 -16.000 0.000 0.000 -1.000 0.000 0.000 0.000
0 118.000 -14.782 -6.123 0.000 -0.924 -0.383 0.000 1.000
0 140.000 -14.782 -6.123 0.000 -0.924 -0.383 1.000 1.000
r10_post_dark
0 140.000 0.000 0.000 1.000 0.000 0.000 0.500 0.500
0 140.000 -16.000 0.000 1.000 0.000 0.000 0.000 0.000
0 140.000 -14.782 -6.123 1.000 0.000 0.000 1.000 0.000
r10_post_dark
0 118.000 0.000 0.000 -1.000 0.000 0.000 0.500 0.500
0 118.000 -14.782 -6.123 -1.000 0.000 0.000 1.000 0.000
0 118.000 -16.000 0.000 -1.000 0.000 0.000 0.000 0.000
r10_post_dark
0 118.000 -14.782 -6.123 0.000 -0.924 -0.383 0.000 0.000
0 140.000 -11.314 -11.314 0.000 -0.707 -0.707 1.000 1.000
0 140.000 -14.782 -6.123 0.000 -0.924 -0.383 1.000 0.000
r10_post_dark
0 118.000 -14.782 -6.123 0.000 -0.924 -0.383 0.000 0.000
0 118.000 -11.314 -11.314 0.000 -0.707 -0.707 0.000 1.000
0 140.000 -11.314 -11.314 0.000 -0.707 -0.707 1.000 1.000
r10_post_dark
0 140.000 0.000 0.000 1.000 0.000 0.000 0.500 0.500
0 140.000 -14.782 -6.123 1.000 0.000 0.000 0.000 0.000
0 140.000 -11.314 -11.314 1.000 0.000 0.000 1.000 0.000
r10_post_dark
0 118.000 0.000 0.000 -1.000 0.000 0.000 0.500 0.500
0 118.000 -11.314 -11.314 -1.000 0.000 0.000 1.000 0.000
0 118.000 -14.782 -6.123 -1.000 0.000 0.000 0.000 0.000
r10_post_dark
0 118.000 -11.314 -11.314 0.000 -0.707 -0.707 0.000 0.000
0 140.000 -6.123 -14.782 0.000 -0.383 -0.924 1.000 1.000
0 140.000 -11.314 -11.314 0.000 -0.707 -0.707 1.000 0.000
r10_post_dark
0 118.000 -11.314 -11.314 0.000 -0.707 -0.707 0.000 0.000
0 118.000 -6.123 -14.782 0.000 -0.383 -0.924 0.000 1.000
0 140.000 -6.123 -14.782 0.000 -0.383 -0.924 1.000 1.000
r10_post_dark
0 140.000 0.000 0.000 1.000 0.000 0.000 0.500 0.500
0 140.000 -11.314 -11.314 1.000 0.000 0.000 0.000 0.000
0 140.000 -6.123 -14.782 1.000 0.000 0.000 1.000 0.000
r10_post_dark
0 118.000 0.000 0.000 -1.000 0.000 0.000 0.500 0.500
0 118.000 -6.123 -14.782 -1.000 0.000 0.000 1.000 0.000
0 118.000 -11.314 -11.314 -1.000 0.000 0.000 0.000 0.000
r10_post_dark
0 118.000 -6.123 -14.782 0.000 -0.383 -0.924 0.000 0.000
0 140.000 -0.000 -16.000 0.000 -0.000 -1.000 1.000 1.000
0 140.000 -6.123 -14.782 0.000 -0.383 -0.924 1.000 0.000
r10_post_dark
0 118.000 -6.123 -14.782 0.000 -0.383 -0.924 0.000 0.000
0 118.000 -0.000 -16.000 0.000 -0.000 -1.000 0.000 1.000
0 140.000 -0.000 -16.000 0.000 -0.000 -1.000 1.000 1.000
r10_post_dark
0 140.000 0.000 0.000 1.000 0.000 0.000 0.500 0.500
0 140.000 -6.123 -14.782 1.000 0.000 0.000 0.000 0.000
0 140.000 -0.000 -16.000 1.000 0.000 0.000 1.000 0.000
r10_post_dark
0 118.000 0.000 0.000 -1.000 0.000 0.000 0.500 0.500
0 118.000 -0.000 -16.000 -1.000 0.000 0.000 1.000 0.000
0 118.000 -6.123 -14.782 -1.000 0.000 0.000 0.000 0.000
r10_post_dark
0 118.000 -0.000 -16.000 0.000 -0.000 -1.000 0.000 0.000
0 140.000 6.123 -14.782 0.000 0.383 -0.924 1.000 1.000
0 140.000 -0.000 -16.000 0.000 -0.000 -1.000 1.000 0.000
r10_post_dark
0 118.000 -0.000 -16.000 0.000 -0.000 -1.000 0.000 0.000
0 118.000 6.123 -14.782 0.000 0.383 -0.924 0.000 1.000
0 140.000 6.123 -14.782 0.000 0.383 -0.924 1.000 1.000
r10_post_dark
0 140.000 0.000 0.000 1.000 0.000 0.000 0.500 0.500
0 140.000 -0.000 -16.000 1.000 0.000 0.000 0.000 0.000
0 140.000 6.123 -14.782 1.000 0.000 0.000 1.000 0.000
r10_post_dark
0 118.000 0.000 0.000 -1.000 0.000 0.000 0.500 0.500
0 118.000 6.123 -14.782 -1.000 0.000 0.000 1.000 0.000
0 118.000 -0.000 -16.000 -1.000 0.000 0.000 0.000 0.000
r10_post_dark
0 118.000 6.123 -14.782 0.000 0.383 -0.924 0.000 0.000
0 140.000 11.314 -11.314 0.000 0.707 -0.707 1.000 1.000
0 140.000 6.123 -14.782 0.000 0.383 -0.924 1.000 0.000
r10_post_dark
0 118.000 6.123 -14.782 0.000 0.383 -0.924 0.000 0.000
0 118.000 11.314 -11.314 0.000 0.707 -0.707 0.000 1.000
0 140.000 11.314 -11.314 0.000 0.707 -0.707 1.000 1.000
r10_post_dark
0 140.000 0.000 0.000 1.000 0.000 0.000 0.500 0.500
0 140.000 6.123 -14.782 1.000 0.000 0.000 0.000 0.000
0 140.000 11.314 -11.314 1.000 0.000 0.000 1.000 0.000
r10_post_dark
0 118.000 0.000 0.000 -1.000 0.000 0.000 0.500 0.500
0 118.000 11.314 -11.314 -1.000 0.000 0.000 1.000 0.000
0 118.000 6.123 -14.782 -1.000 0.000 0.000 0.000 0.000
r10_post_dark
0 118.000 11.314 -11.314 0.000 0.707 -0.707 0.000 0.000
0 140.000 14.782 -6.123 0.000 0.924 -0.383 1.000 1.000
0 140.000 11.314 -11.314 0.000 0.707 -0.707 1.000 0.000
r10_post_dark
0 118.000 11.314 -11.314 0.000 0.707 -0.707 0.000 0.000
0 118.000 14.782 -6.123 0.000 0.924 -0.383 0.000 1.000
0 140.000 14.782 -6.123 0.000 0.924 -0.383 1.000 1.000
r10_post_dark
0 140.000 0.000 0.000 1.000 0.000 0.000 0.500 0.500
0 140.000 11.314 -11.314 1.000 0.000 0.000 0.000 0.000
0 140.000 14.782 -6.123 1.000 0.000 0.000 1.000 0.000
r10_post_dark
0 118.000 0.000 0.000 -1.000 0.000 0.000 0.500 0.500
0 118.000 14.782 -6.123 -1.000 0.000 0.000 1.000 0.000
0 118.000 11.314 -11.314 -1.000 0.000 0.000 0.000 0.000
r10_post_dark
0 118.000 14.782 -6.123 0.000 0.924 -0.383 0.000 0.000
0 140.000 16.000 -0.000 0.000 1.000 -0.000 1.000 1.000
0 140.000 14.782 -6.123 0.000 0.924 -0.383 1.000 0.000
r10_post_dark
0 118.000 14.782 -6.123 0.000 0.924 -0.383 0.000 0.000
0 118.000 16.000 -0.000 0.000 1.000 -0.000 0.000 1.000
0 140.000 16.000 -0.000 0.000 1.000 -0.000 1.000 1.000
r10_post_dark
0 140.000 0.000 0.000 1.000 0.000 0.000 0.500 0.500
0 140.000 14.782 -6.123 1.000 0.000 0.000 0.000 0.000
0 140.000 16.000 -0.000 1.000 0.000 0.000 1.000 0.000
r10_post_dark
0 118.000 0.000 0.000 -1.000 0.000 0.000 0.500 0.500
0 118.000 16.000 -0.000 -1.000 0.000 0.000 1.000 0.000
0 118.000 14.782 -6.123 -1.000 0.000 0.000 0.000 0.000
r10_post_dark
0 0.000 20.000 0.000 0.000 1.000 0.000 0.000 0.000
0 10.000 18.478 7.654 0.000 0.924 0.383 1.000 1.000
0 10.000 20.000 0.000 0.000 1.000 0.000 1.000 0.000
r10_post_dark
0 0.000 20.000 0.000 0.000 1.000 0.000 0.000 0.000
0 0.000 18.478 7.654 0.000 0.924 0.383 0.000 1.000
0 10.000 18.478 7.654 0.000 0.924 0.383 1.000 1.000
r10_post_dark
0 10.000 0.000 0.000 1.000 0.000 0.000 0.500 0.500
0 10.000 20.000 0.000 1.000 0.000 0.000 0.000 0.000
0 10.000 18.478 7.654 1.000 0.000 0.000 1.000 0.000
r10_post_dark
0 0.000 0.000 0.000 -1.000 0.000 0.000 0.500 0.500
0 0.000 18.478 7.654 -1.000 0.000 0.000 1.000 0.000
0 0.000 20.000 0.000 -1.000 0.000 0.000 0.000 0.000
r10_post_dark
0 0.000 18.478 7.654 0.000 0.924 0.383 0.000 0.000
0 10.000 14.142 14.142 0.000 0.707 0.707 1.000 1.000
0 10.000 18.478 7.654 0.000 0.924 0.383 1.000 0.000
r10_post_dark
0 0.000 18.478 7.654 0.000 0.924 0.383 0.000 0.000
0 0.000 14.142 14.142 0.000 0.707 0.707 0.000 1.000
0 10.000 14.142 14.142 0.000 0.707 0.707 1.000 1.000
r10_post_dark
0 10.000 0.000 0.000 1.000 0.000 0.000 0.500 0.500
0 10.000 18.478 7.654 1.000 0.000 0.000 0.000 0.000
0 10.000 14.142 14.142 1.000 0.000 0.000 1.000 0.000
r10_post_dark
0 0.000 0.000 0.000 -1.000 0.000 0.000 0.500 0.500
0 0.000 14.142 14.142 -1.000 0.000 0.000 1.000 0.000
0 0.000 18.478 7.654 -1.000 0.000 0.000 0.000 0.000
r10_post_dark
0 0.000 14.142 14.142 0.000 0.707 0.707 0.000 0.000
0 10.000 7.654 18.478 0.000 0.383 0.924 1.000 1.000
0 10.000 14.142 14.142 0.000 0.707 0.707 1.000 0.000
r10_post_dark
0 0.000 14.142 14.142 0.000 0.707 0.707 0.000 0.000
0 0.000 7.654 18.478 0.000 0.383 0.924 0.000 1.000
0 10.000 7.654 18.478 0.000 0.383 0.924 1.000 1.000
r10_post_dark
0 10.000 0.000 0.000 1.000 0.000 0.000 0.500 0.500
0 10.000 14.142 14.142 1.000 0.000 0.000 0.000 0.000
0 10.000 7.654 18.478 1.000 0.000 0.000 1.000 0.000
r10_post_dark
0 0.000 0.000 0.000 -1.000 0.000 0.000 0.500 0.500
0 0.000 7.654 18.478 -1.000 0.000 0.000 1.000 0.000
0 0.000 14.142 14.142 -1.000 0.000 0.000 0.000 0.000
r10_post_dark
0 0.000 7.654 18.478 0.000 0.383 0.924 0.000 0.000
0 10.000 0.000 20.000 0.000 0.000 1.000 1.000 1.000
0 10.000 7.654 18.478 0.000 0.383 0.924 1.000 0.000
r10_post_dark
0 0.000 7.654 18.478 0.000 0.383 0.924 0.000 0.000
0 0.000 0.000 20.000 0.000 0.000 1.000 0.000 1.000
0 10.000 0.000 20.000 0.000 0.000 1.000 1.000 1.000
r10_post_dark
0 10.000 0.000 0.000 1.000 0.000 0.000 0.500 0.500
0 10.000 7.654 18.478 1.000 0.000 0.000 0.000 0.000
0 10.000 0.000 20.000 1.000 0.000 0.000 1.000 0.000
r10_post_dark
0 0.000 0.000 0.000 -1.000 0.000 0.000 0.500 0.500
0 0.000 0.000 20.000 -1.000 0.000 0.000 1.000 0.000
0 0.000 7.654 18.478 -1.000 0.000 0.000 0.000 0.000
r10_post_dark
0 0.000 0.000 20.000 0.000 0.000 1.000 0.000 0.000
0 10.000 -7.654 18.478 0.000 -0.383 0.924 1.000 1.000
0 10.000 0.000 20.000 0.000 0.000 1.000 1.000 0.000
r10_post_dark
0 0.000 0.000 20.000 0.000 0.000 1.000 0.000 0.000
0 0.000 -7.654 18.478 0.000 -0.383 0.924 0.000 1.000
0 10.000 -7.654 18.478 0.000 -0.383 0.924 1.000 1.000
r10_post_dark
0 10.000 0.000 0.000 1.000 0.000 0.000 0.500 0.500
0 10.000 0.000 20.000 1.000 0.000 0.000 0.000 0.000
0 10.000 -7.654 18.478 1.000 0.000 0.000 1.000 0.000
r10_post_dark
0 0.000 0.000 0.000 -1.000 0.000 0.000 0.500 0.500
0 0.000 -7.654 18.478 -1.000 0.000 0.000 1.000 0.000
0 0.000 0.000 20.000 -1.000 0.000 0.000 0.000 0.000
r10_post_dark
0 0.000 -7.654 18.478 0.000 -0.383 0.924 0.000 0.000
0 10.000 -14.142 14.142 0.000 -0.707 0.707 1.000 1.000
0 10.000 -7.654 18.478 0.000 -0.383 0.924 1.000 0.000
r10_post_dark
0 0.000 -7.654 18.478 0.000 -0.383 0.924 0.000 0.000
0 0.000 -14.142 14.142 0.000 -0.707 0.707 0.000 1.000
0 10.000 -14.142 14.142 0.000 -0.707 0.707 1.000 1.000
r10_post_dark
0 10.000 0.000 0.000 1.000 0.000 0.000 0.500 0.500
0 10.000 -7.654 18.478 1.000 0.000 0.000 0.000 0.000
0 10.000 -14.142 14.142 1.000 0.000 0.000 1.000 0.000
r10_post_dark
0 0.000 0.000 0.000 -1.000 0.000 0.000 0.500 0.500
0 0.000 -14.142 14.142 -1.000 0.000 0.000 1.000 0.000
0 0.000 -7.654 18.478 -1.000 0.000 0.000 0.000 0.000
r10_post_dark
0 0.000 -14.142 14.142 0.000 -0.707 0.707 0.000 0.000
0 10.000 -18.478 7.654 0.000 -0.924 0.383 1.000 1.000
0 10.000 -14.142 14.142 0.000 -0.707 0.707 1.000 0.000
r10_post_dark
0 0.000 -14.142 14.142 0.000 -0.707 0.707 0.000 0.000
0 0.000 -18.478 7.654 0.000 -0.924 0.383 0.000 1.000
0 10.000 -18.478 7.654 0.000 -0.924 0.383 1.000 1.000
r10_post_dark
0 10.000 0.000 0.000 1.000 0.000 0.000 0.500 0.500
0 10.000 -14.142 14.142 1.000 0.000 0.000 0.000 0.000
0 10.000 -18.478 7.654 1.000 0.000 0.000 1.000 0.000
r10_post_dark
0 0.000 0.000 0.000 -1.000 0.000 0.000 0.500 0.500
0 0.000 -18.478 7.654 -1.000 0.000 0.000 1.000 0.000
0 0.000 -14.142 14.142 -1.000 0.000 0.000 0.000 0.000
r10_post_dark
0 0.000 -18.478 7.654 0.000 -0.924 0.383 0.000 0.000
0 10.000 -20.000 0.000 0.000 -1.000 0.000 1.000 1.000
0 10.000 -18.478 7.654 0.000 -0.924 0.383 1.000 0.000
r10_post_dark
0 0.000 -18.478 7.654 0.000 -0.924 0.383 0.000 0.000
0 0.000 -20.000 0.000 0.000 -1.000 0.000 0.000 1.000
0 10.000 -20.000 0.000 0.000 -1.000 0.000 1.000 1.000
r10_post_dark
0 10.000 0.000 0.000 1.000 0.000 0.000 0.500 0.500
0 10.000 -18.478 7.654 1.000 0.000 0.000 0.000 0.000
0 10.000 -20.000 0.000 1.000 0.000 0.000 1.000 0.000
r10_post_dark
0 0.000 0.000 0.000 -1.000 0.000 0.000 0.500 0.500
0 0.000 -20.000 0.000 -1.000 0.000 0.000 1.000 0.000
0 0.000 -18.478 7.654 -1.000 0.000 0.000 0.000 0.000
r10_post_dark
0 0.000 -20.000 0.000 0.000 -1.000 0.000 0.000 0.000
0 10.000 -18.478 -7.654 0.000 -0.924 -0.383 1.000 1.000
0 10.000 -20.000 0.000 0.000 -1.000 0.000 1.000 0.000
r10_post_dark
0 0.000 -20.000 0.000 0.000 -1.000 0.000 0.000 0.000
0 0.000 -18.478 -7.654 0.000 -0.924 -0.383 0.000 1.000
0 10.000 -18.478 -7.654 0.000 -0.924 -0.383 1.000 1.000
r10_post_dark
0 10.000 0.000 0.000 1.000 0.000 0.000 0.500 0.500
0 10.000 -20.000 0.000 1.000 0.000 0.000 0.000 0.000
0 10.000 -18.478 -7.654 1.000 0.000 0.000 1.000 0.000
r10_post_dark
0 0.000 0.000 0.000 -1.000 0.000 0.000 0.500 0.500
0 0.000 -18.478 -7.654 -1.000 0.000 0.000 1.000 0.000
0 0.000 -20.000 0.000 -1.000 0.000 0.000 0.000 0.000
r10_post_dark
0 0.000 -18.478 -7.654 0.000 -0.924 -0.383 0.000 0.000
0 10.000 -14.142 -14.142 0.000 -0.707 -0.707 1.000 1.000
0 10.000 -18.478 -7.654 0.000 -0.924 -0.383 1.000 0.000
r10_post_dark
0 0.000 -18.478 -7.654 0.000 -0.924 -0.383 0.000 0.000
0 0.000 -14.142 -14.142 0.000 -0.707 -0.707 0.000 1.000
0 10.000 -14.142 -14.142 0.000 -0.707 -0.707 1.000 1.000
r10_post_dark
0 10.000 0.000 0.000 1.000 0.000 0.000 0.500 0.500
0 10.000 -18.478 -7.654 1.000 0.000 0.000 0.000 0.000
0 10.000 -14.142 -14.142 1.000 0.000 0.000 1.000 0.000
r10_post_dark
0 0.000 0.000 0.000 -1.000 0.000 0.000 0.500 0.500
0 0.000 -14.142 -14.142 -1.000 0.000 0.000 1.000 0.000
0 0.000 -18.478 -7.654 -1.000 0.000 0.000 0.000 0.000
r10_post_dark
0 0.000 -14.142 -14.142 0.000 -0.707 -0.707 0.000 0.000
0 10.000 -7.654 -18.478 0.000 -0.383 -0.924 1.000 1.000
0 10.000 -14.142 -14.142 0.000 -0.707 -0.707 1.000 0.000
r10_post_dark
0 0.000 -14.142 -14.142 0.000 -0.707 -0.707 0.000 0.000
0 0.000 -7.654 -18.478 0.000 -0.383 -0.924 0.000 1.000
0 10.000 -7.654 -18.478 0.000 -0.383 -0.924 1.000 1.000
r10_post_dark
0 10.000 0.000 0.000 1.000 0.000 0.000 0.500 0.500
0 10.000 -14.142 -14.142 1.000 0.000 0.000 0.000 0.000
0 10.000 -7.654 -18.478 1.000 0.000 0.000 1.000 0.000
r10_post_dark
0 0.000 0.000 0.000 -1.000 0.000 0.000 0.500 0.500
0 0.000 -7.654 -18.478 -1.000 0.000 0.000 1.000 0.000
0 0.000 -14.142 -14.142 -1.000 0.000 0.000 0.000 0.000
r10_post_dark
0 0.000 -7.654 -18.478 0.000 -0.383 -0.924 0.000 0.000
0 10.000 -0.000 -20.000 0.000 -0.000 -1.000 1.000 1.000
0 10.000 -7.654 -18.478 0.000 -0.383 -0.924 1.000 0.000
r10_post_dark
0 0.000 -7.654 -18.478 0.000 -0.383 -0.924 0.000 0.000
0 0.000 -0.000 -20.000 0.000 -0.000 -1.000 0.000 1.000
0 10.000 -0.000 -20.000 0.000 -0.000 -1.000 1.000 1.000
r10_post_dark
0 10.000 0.000 0.000 1.000 0.000 0.000 0.500 0.500
0 10.000 -7.654 -18.478 1.000 0.000 0.000 0.000 0.000
0 10.000 -0.000 -20.000 1.000 0.000 0.000 1.000 0.000
r10_post_dark
0 0.000 0.000 0.000 -1.000 0.000 0.000 0.500 0.500
0 0.000 -0.000 -20.000 -1.000 0.000 0.000 1.000 0.000
0 0.000 -7.654 -18.478 -1.000 0.000 0.000 0.000 0.000
r10_post_dark
0 0.000 -0.000 -20.000 0.000 -0.000 -1.000 0.000 0.000
0 10.000 7.654 -18.478 0.000 0.383 -0.924 1.000 1.000
0 10.000 -0.000 -20.000 0.000 -0.000 -1.000 1.000 0.000
r10_post_dark
0 0.000 -0.000 -20.000 0.000 -0.000 -1.000 0.000 0.000
0 0.000 7.654 -18.478 0.000 0.383 -0.924 0.000 1.000
0 10.000 7.654 -18.478 0.000 0.383 -0.924 1.000 1.000
r10_post_dark
0 10.000 0.000 0.000 1.000 0.000 0.000 0.500 0.500
0 10.000 -0.000 -20.000 1.000 0.000 0.000 0.000 0.000
0 10.000 7.654 -18.478 1.000 0.000 0.000 1.000 0.000
r10_post_dark
0 0.000 0.000 0.000 -1.000 0.000 0.000 0.500 0.500
0 0.000 7.654 -18.478 -1.000 0.000 0.000 1.000 0.000
0 0.000 -0.000 -20.000 -1.000 0.000 0.000 0.000 0.000
r10_post_dark
0 0.000 7.654 -18.478 0.000 0.383 -0.924 0.000 0.000
0 10.000 14.142 -14.142 0.000 0.707 -0.707 1.000 1.000
0 10.000 7.654 -18.478 0.000 0.383 -0.924 1.000 0.000
r10_post_dark
0 0.000 7.654 -18.478 0.000 0.383 -0.924 0.000 0.000
0 0.000 14.142 -14.142 0.000 0.707 -0.707 0.000 1.000
0 10.000 14.142 -14.142 0.000 0.707 -0.707 1.000 1.000
r10_post_dark
0 10.000 0.000 0.000 1.000 0.000 0.000 0.500 0.500
0 10.000 7.654 -18.478 1.000 0.000 0.000 0.000 0.000
0 10.000 14.142 -14.142 1.000 0.000 0.000 1.000 0.000
r10_post_dark
0 0.000 0.000 0.000 -1.000 0.000 0.000 0.500 0.500
0 0.000 14.142 -14.142 -1.000 0.000 0.000 1.000 0.000
0 0.000 7.654 -18.478 -1.000 0.000 0.000 0.000 0.000
r10_post_dark
0 0.000 14.142 -14.142 0.000 0.707 -0.707 0.000 0.000
0 10.000 18.478 -7.654 0.000 0.924 -0.383 1.000 1.000
0 10.000 14.142 -14.142 0.000 0.707 -0.707 1.000 0.000
r10_post_dark
0 0.000 14.142 -14.142 0.000 0.707 -0.707 0.000 0.000
0 0.000 18.478 -7.654 0.000 0.924 -0.383 0.000 1.000
0 10.000 18.478 -7.654 0.000 0.924 -0.383 1.000 1.000
r10_post_dark
0 10.000 0.000 0.000 1.000 0.000 0.000 0.500 0.500
0 10.000 14.142 -14.142 1.000 0.000 0.000 0.000 0.000
0 10.000 18.478 -7.654 1.000 0.000 0.000 1.000 0.000
r10_post_dark
0 0.000 0.000 0.000 -1.000 0.000 0.000 0.500 0.500
0 0.000 18.478 -7.654 -1.000 0.000 0.000 1.000 0.000
0 0.000 14.142 -14.142 -1.000 0.000 0.000 0.000 0.000
r10_post_dark
0 0.000 18.478 -7.654 0.000 0.924 -0.383 0.000 0.000
0 10.000 20.000 -0.000 0.000 1.000 -0.000 1.000 1.000
0 10.000 18.478 -7.654 0.000 0.924 -0.383 1.000 0.000
r10_post_dark
0 0.000 18.478 -7.654 0.000 0.924 -0.383 0.000 0.000
0 0.000 20.000 -0.000 0.000 1.000 -0.000 0.000 1.000
0 10.000 20.000 -0.000 0.000 1.000 -0.000 1.000 1.000
r10_post_dark
0 10.000 0.000 0.000 1.000 0.000 0.000 0.500 0.500
0 10.000 18.478 -7.654 1.000 0.000 0.000 0.000 0.000
0 10.000 20.000 -0.000 1.000 0.000 0.000 1.000 0.000
r10_post_dark
0 0.000 0.000 0.000 -1.000 0.000 0.000 0.500 0.500
0 0.000 20.000 -0.000 -1.000 0.000 0.000 1.000 0.000
0 0.000 18.478 -7.654 -1.000 0.000 0.000 0.000 0.000
end
