version 1
nodes
0 "root" -1
end
skeleton
time 0
0 0 0 0 0 0 0
end
triangles
r10_hole_black
0 0.000 0.000 0.000 -1.00 0.00 0.00 0.000 0.000
0 0.000 -34.029 0.000 -1.00 0.00 0.00 0.000 0.000
0 0.000 -19.512 5.249 -1.00 0.00 0.00 0.000 0.000
r10_hole_black
0 0.000 0.000 0.000 -1.00 0.00 0.00 0.000 0.000
0 0.000 -19.512 5.249 -1.00 0.00 0.00 0.000 0.000
0 0.000 -28.373 17.597 -1.00 0.00 0.00 0.000 0.000
r10_hole_black
0 0.000 0.000 0.000 -1.00 0.00 0.00 0.000 0.000
0 0.000 -28.373 17.597 -1.00 0.00 0.00 0.000 0.000
0 0.000 -10.067 12.887 -1.00 0.00 0.00 0.000 0.000
r10_hole_black
0 0.000 0.000 0.000 -1.00 0.00 0.00 0.000 0.000
0 0.000 -10.067 12.887 -1.00 0.00 0.00 0.000 0.000
0 0.000 -6.248 26.190 -1.00 0.00 0.00 0.000 0.000
r10_hole_black
0 0.000 0.000 0.000 -1.00 0.00 0.00 0.000 0.000
0 0.000 -6.248 26.190 -1.00 0.00 0.00 0.000 0.000
0 0.000 3.906 16.373 -1.00 0.00 0.00 0.000 0.000
r10_hole_black
0 0.000 0.000 0.000 -1.00 0.00 0.00 0.000 0.000
0 0.000 3.906 16.373 -1.00 0.00 0.00 0.000 0.000
0 0.000 15.792 20.217 -1.00 0.00 0.00 0.000 0.000
r10_hole_black
0 0.000 0.000 0.000 -1.00 0.00 0.00 0.000 0.000
0 0.000 15.792 20.217 -1.00 0.00 0.00 0.000 0.000
0 0.000 18.105 11.229 -1.00 0.00 0.00 0.000 0.000
r10_hole_black
0 0.000 0.000 0.000 -1.00 0.00 0.00 0.000 0.000
0 0.000 18.105 11.229 -1.00 0.00 0.00 0.000 0.000
0 0.000 29.502 7.937 -1.00 0.00 0.00 0.000 0.000
r10_hole_black
0 0.000 0.000 0.000 -1.00 0.00 0.00 0.000 0.000
0 0.000 29.502 7.937 -1.00 0.00 0.00 0.000 0.000
0 0.000 23.041 0.000 -1.00 0.00 0.00 0.000 0.000
r10_hole_black
0 0.000 0.000 0.000 -1.00 0.00 0.00 0.000 0.000
0 0.000 23.041 0.000 -1.00 0.00 0.00 0.000 0.000
0 0.000 29.781 -8.012 -1.00 0.00 0.00 0.000 0.000
r10_hole_black
0 0.000 0.000 0.000 -1.00 0.00 0.00 0.000 0.000
0 0.000 29.781 -8.012 -1.00 0.00 0.00 0.000 0.000
0 0.000 15.536 -9.635 -1.00 0.00 0.00 0.000 0.000
r10_hole_black
0 0.000 0.000 0.000 -1.00 0.00 0.00 0.000 0.000
0 0.000 15.536 -9.635 -1.00 0.00 0.00 0.000 0.000
0 0.000 17.478 -22.375 -1.00 0.00 0.00 0.000 0.000
r10_hole_black
0 0.000 0.000 0.000 -1.00 0.00 0.00 0.000 0.000
0 0.000 17.478 -22.375 -1.00 0.00 0.00 0.000 0.000
0 0.000 4.551 -19.075 -1.00 0.00 0.00 0.000 0.000
r10_hole_black
0 0.000 0.000 0.000 -1.00 0.00 0.00 0.000 0.000
0 0.000 4.551 -19.075 -1.00 0.00 0.00 0.000 0.000
0 0.000 -5.590 -23.430 -1.00 0.00 0.00 0.000 0.000
r10_hole_black
0 0.000 0.000 0.000 -1.00 0.00 0.00 0.000 0.000
0 0.000 -5.590 -23.430 -1.00 0.00 0.00 0.000 0.000
0 0.000 -10.674 -13.664 -1.00 0.00 0.00 0.000 0.000
r10_hole_black
0 0.000 0.000 0.000 -1.00 0.00 0.00 0.000 0.000
0 0.000 -10.674 -13.664 -1.00 0.00 0.00 0.000 0.000
0 0.000 -28.208 -17.494 -1.00 0.00 0.00 0.000 0.000
r10_hole_black
0 0.000 0.000 0.000 -1.00 0.00 0.00 0.000 0.000
0 0.000 -28.208 -17.494 -1.00 0.00 0.00 0.000 0.000
0 0.000 -25.540 -6.871 -1.00 0.00 0.00 0.000 0.000
r10_hole_black
0 0.000 0.000 0.000 -1.00 0.00 0.00 0.000 0.000
0 0.000 -25.540 -6.871 -1.00 0.00 0.00 0.000 0.000
0 0.000 -34.029 0.000 -1.00 0.00 0.00 0.000 0.000
r10_hole_box
0 -13.000 -15.000 -11.000 -1.00 0.00 0.00 0.000 0.000
0 -13.000 -15.000 1.000 -1.00 0.00 0.00 0.000 0.000
0 -13.000 3.000 1.000 -1.00 0.00 0.00 0.000 0.000
r10_hole_box
0 -13.000 -15.000 -11.000 -1.00 0.00 0.00 0.000 0.000
0 -13.000 3.000 1.000 -1.00 0.00 0.00 0.000 0.000
0 -13.000 3.000 -11.000 -1.00 0.00 0.00 0.000 0.000
r10_hole_box
0 1.000 -15.000 -11.000 1.00 0.00 0.00 0.000 0.000
0 1.000 3.000 -11.000 1.00 0.00 0.00 0.000 0.000
0 1.000 3.000 1.000 1.00 0.00 0.00 0.000 0.000
r10_hole_box
0 1.000 -15.000 -11.000 1.00 0.00 0.00 0.000 0.000
0 1.000 3.000 1.000 1.00 0.00 0.00 0.000 0.000
0 1.000 -15.000 1.000 1.00 0.00 0.00 0.000 0.000
r10_hole_box
0 -13.000 -15.000 -11.000 0.00 -1.00 0.00 0.000 0.000
0 1.000 -15.000 -11.000 0.00 -1.00 0.00 0.000 0.000
0 1.000 -15.000 1.000 0.00 -1.00 0.00 0.000 0.000
r10_hole_box
0 -13.000 -15.000 -11.000 0.00 -1.00 0.00 0.000 0.000
0 1.000 -15.000 1.000 0.00 -1.00 0.00 0.000 0.000
0 -13.000 -15.000 1.000 0.00 -1.00 0.00 0.000 0.000
r10_hole_box
0 -13.000 3.000 -11.000 0.00 1.00 0.00 0.000 0.000
0 -13.000 3.000 1.000 0.00 1.00 0.00 0.000 0.000
0 1.000 3.000 1.000 0.00 1.00 0.00 0.000 0.000
r10_hole_box
0 -13.000 3.000 -11.000 0.00 1.00 0.00 0.000 0.000
0 1.000 3.000 1.000 0.00 1.00 0.00 0.000 0.000
0 1.000 3.000 -11.000 0.00 1.00 0.00 0.000 0.000
r10_hole_box
0 -13.000 -15.000 -11.000 0.00 0.00 -1.00 0.000 0.000
0 -13.000 3.000 -11.000 0.00 0.00 -1.00 0.000 0.000
0 1.000 3.000 -11.000 0.00 0.00 -1.00 0.000 0.000
r10_hole_box
0 -13.000 -15.000 -11.000 0.00 0.00 -1.00 0.000 0.000
0 1.000 3.000 -11.000 0.00 0.00 -1.00 0.000 0.000
0 1.000 -15.000 -11.000 0.00 0.00 -1.00 0.000 0.000
r10_hole_box
0 -13.000 -15.000 1.000 0.00 0.00 1.00 0.000 0.000
0 1.000 -15.000 1.000 0.00 0.00 1.00 0.000 0.000
0 1.000 3.000 1.000 0.00 0.00 1.00 0.000 0.000
r10_hole_box
0 -13.000 -15.000 1.000 0.00 0.00 1.00 0.000 0.000
0 1.000 3.000 1.000 0.00 0.00 1.00 0.000 0.000
0 -13.000 3.000 1.000 0.00 0.00 1.00 0.000 0.000
r10_hole_box
0 -11.000 3.000 -2.000 -1.00 0.00 0.00 0.000 0.000
0 -11.000 3.000 8.000 -1.00 0.00 0.00 0.000 0.000
0 -11.000 17.000 8.000 -1.00 0.00 0.00 0.000 0.000
r10_hole_box
0 -11.000 3.000 -2.000 -1.00 0.00 0.00 0.000 0.000
0 -11.000 17.000 8.000 -1.00 0.00 0.00 0.000 0.000
0 -11.000 17.000 -2.000 -1.00 0.00 0.00 0.000 0.000
r10_hole_box
0 1.000 3.000 -2.000 1.00 0.00 0.00 0.000 0.000
0 1.000 17.000 -2.000 1.00 0.00 0.00 0.000 0.000
0 1.000 17.000 8.000 1.00 0.00 0.00 0.000 0.000
r10_hole_box
0 1.000 3.000 -2.000 1.00 0.00 0.00 0.000 0.000
0 1.000 17.000 8.000 1.00 0.00 0.00 0.000 0.000
0 1.000 3.000 8.000 1.00 0.00 0.00 0.000 0.000
r10_hole_box
0 -11.000 3.000 -2.000 0.00 -1.00 0.00 0.000 0.000
0 1.000 3.000 -2.000 0.00 -1.00 0.00 0.000 0.000
0 1.000 3.000 8.000 0.00 -1.00 0.00 0.000 0.000
r10_hole_box
0 -11.000 3.000 -2.000 0.00 -1.00 0.00 0.000 0.000
0 1.000 3.000 8.000 0.00 -1.00 0.00 0.000 0.000
0 -11.000 3.000 8.000 0.00 -1.00 0.00 0.000 0.000
r10_hole_box
0 -11.000 17.000 -2.000 0.00 1.00 0.00 0.000 0.000
0 -11.000 17.000 8.000 0.00 1.00 0.00 0.000 0.000
0 1.000 17.000 8.000 0.00 1.00 0.00 0.000 0.000
r10_hole_box
0 -11.000 17.000 -2.000 0.00 1.00 0.00 0.000 0.000
0 1.000 17.000 8.000 0.00 1.00 0.00 0.000 0.000
0 1.000 17.000 -2.000 0.00 1.00 0.00 0.000 0.000
r10_hole_box
0 -11.000 3.000 -2.000 0.00 0.00 -1.00 0.000 0.000
0 -11.000 17.000 -2.000 0.00 0.00 -1.00 0.000 0.000
0 1.000 17.000 -2.000 0.00 0.00 -1.00 0.000 0.000
r10_hole_box
0 -11.000 3.000 -2.000 0.00 0.00 -1.00 0.000 0.000
0 1.000 17.000 -2.000 0.00 0.00 -1.00 0.000 0.000
0 1.000 3.000 -2.000 0.00 0.00 -1.00 0.000 0.000
r10_hole_box
0 -11.000 3.000 8.000 0.00 0.00 1.00 0.000 0.000
0 1.000 3.000 8.000 0.00 0.00 1.00 0.000 0.000
0 1.000 17.000 8.000 0.00 0.00 1.00 0.000 0.000
r10_hole_box
0 -11.000 3.000 8.000 0.00 0.00 1.00 0.000 0.000
0 1.000 17.000 8.000 0.00 0.00 1.00 0.000 0.000
0 -11.000 17.000 8.000 0.00 0.00 1.00 0.000 0.000
r10_debris
0 -7.000 -11.000 -15.000 -1.00 0.00 0.00 0.000 0.000
0 -7.000 -11.000 -9.000 -1.00 0.00 0.00 0.000 0.000
0 -7.000 13.000 -9.000 -1.00 0.00 0.00 0.000 0.000
r10_debris
0 -7.000 -11.000 -15.000 -1.00 0.00 0.00 0.000 0.000
0 -7.000 13.000 -9.000 -1.00 0.00 0.00 0.000 0.000
0 -7.000 13.000 -15.000 -1.00 0.00 0.00 0.000 0.000
r10_debris
0 1.000 -11.000 -15.000 1.00 0.00 0.00 0.000 0.000
0 1.000 13.000 -15.000 1.00 0.00 0.00 0.000 0.000
0 1.000 13.000 -9.000 1.00 0.00 0.00 0.000 0.000
r10_debris
0 1.000 -11.000 -15.000 1.00 0.00 0.00 0.000 0.000
0 1.000 13.000 -9.000 1.00 0.00 0.00 0.000 0.000
0 1.000 -11.000 -9.000 1.00 0.00 0.00 0.000 0.000
r10_debris
0 -7.000 -11.000 -15.000 0.00 -1.00 0.00 0.000 0.000
0 1.000 -11.000 -15.000 0.00 -1.00 0.00 0.000 0.000
0 1.000 -11.000 -9.000 0.00 -1.00 0.00 0.000 0.000
r10_debris
0 -7.000 -11.000 -15.000 0.00 -1.00 0.00 0.000 0.000
0 1.000 -11.000 -9.000 0.00 -1.00 0.00 0.000 0.000
0 -7.000 -11.000 -9.000 0.00 -1.00 0.00 0.000 0.000
r10_debris
0 -7.000 13.000 -15.000 0.00 1.00 0.00 0.000 0.000
0 -7.000 13.000 -9.000 0.00 1.00 0.00 0.000 0.000
0 1.000 13.000 -9.000 0.00 1.00 0.00 0.000 0.000
r10_debris
0 -7.000 13.000 -15.000 0.00 1.00 0.00 0.000 0.000
0 1.000 13.000 -9.000 0.00 1.00 0.00 0.000 0.000
0 1.000 13.000 -15.000 0.00 1.00 0.00 0.000 0.000
r10_debris
0 -7.000 -11.000 -15.000 0.00 0.00 -1.00 0.000 0.000
0 -7.000 13.000 -15.000 0.00 0.00 -1.00 0.000 0.000
0 1.000 13.000 -15.000 0.00 0.00 -1.00 0.000 0.000
r10_debris
0 -7.000 -11.000 -15.000 0.00 0.00 -1.00 0.000 0.000
0 1.000 13.000 -15.000 0.00 0.00 -1.00 0.000 0.000
0 1.000 -11.000 -15.000 0.00 0.00 -1.00 0.000 0.000
r10_debris
0 -7.000 -11.000 -9.000 0.00 0.00 1.00 0.000 0.000
0 1.000 -11.000 -9.000 0.00 0.00 1.00 0.000 0.000
0 1.000 13.000 -9.000 0.00 0.00 1.00 0.000 0.000
r10_debris
0 -7.000 -11.000 -9.000 0.00 0.00 1.00 0.000 0.000
0 1.000 13.000 -9.000 0.00 0.00 1.00 0.000 0.000
0 -7.000 13.000 -9.000 0.00 0.00 1.00 0.000 0.000
end
