version 1
nodes
0 "root" -1
end
skeleton
time 0
0 0 0 0 0 0 0
end
triangles
r10_lid_rust
0 58.0000 0.0000 0.0000 0.0 0.0 1.0 0.4531 0.0000
0 160.0000 0.0000 0.0000 0.0 0.0 1.0 1.2500 0.0000
0 158.6312 20.8842 0.0000 0.0 0.0 1.0 1.2393 0.1632
r10_lid_rust
0 58.0000 0.0000 0.0000 0.0 0.0 1.0 0.4531 0.0000
0 158.6312 20.8842 0.0000 0.0 0.0 1.0 1.2393 0.1632
0 57.5038 7.5705 0.0000 0.0 0.0 1.0 0.4492 0.0591
r10_lid_dark
0 58.0000 0.0000 -2.0000 0.0 0.0 -1.0 0.4531 0.0000
0 158.6312 20.8842 -2.0000 0.0 0.0 -1.0 1.2393 0.1632
0 160.0000 0.0000 -2.0000 0.0 0.0 -1.0 1.2500 0.0000
r10_lid_dark
0 58.0000 0.0000 -2.0000 0.0 0.0 -1.0 0.4531 0.0000
0 57.5038 7.5705 -2.0000 0.0 0.0 -1.0 0.4492 0.0591
0 158.6312 20.8842 -2.0000 0.0 0.0 -1.0 1.2393 0.1632
r10_lid_dark
0 58.0000 0.0000 0.0000 -1.0 -0.1 0.0 0.4531 0.0000
0 57.5038 7.5705 0.0000 -1.0 -0.1 0.0 0.4492 0.0591
0 57.5038 7.5705 -2.0000 -1.0 -0.1 0.0 0.4492 0.0591
r10_lid_dark
0 58.0000 0.0000 0.0000 -1.0 -0.1 0.0 0.4531 0.0000
0 57.5038 7.5705 -2.0000 -1.0 -0.1 0.0 0.4492 0.0591
0 58.0000 0.0000 -2.0000 -1.0 -0.1 0.0 0.4531 0.0000
r10_lid_rust
0 57.5038 7.5705 0.0000 0.0 0.0 1.0 0.4492 0.0591
0 158.6312 20.8842 0.0000 0.0 0.0 1.0 1.2393 0.1632
0 154.5481 41.4110 0.0000 0.0 0.0 1.0 1.2074 0.3235
r10_lid_rust
0 57.5038 7.5705 0.0000 0.0 0.0 1.0 0.4492 0.0591
0 154.5481 41.4110 0.0000 0.0 0.0 1.0 1.2074 0.3235
0 56.0237 15.0115 0.0000 0.0 0.0 1.0 0.4377 0.1173
r10_lid_dark
0 57.5038 7.5705 -2.0000 0.0 0.0 -1.0 0.4492 0.0591
0 154.5481 41.4110 -2.0000 0.0 0.0 -1.0 1.2074 0.3235
0 158.6312 20.8842 -2.0000 0.0 0.0 -1.0 1.2393 0.1632
r10_lid_dark
0 57.5038 7.5705 -2.0000 0.0 0.0 -1.0 0.4492 0.0591
0 56.0237 15.0115 -2.0000 0.0 0.0 -1.0 0.4377 0.1173
0 154.5481 41.4110 -2.0000 0.0 0.0 -1.0 1.2074 0.3235
r10_lid_dark
0 57.5038 7.5705 0.0000 -1.0 -0.2 0.0 0.4492 0.0591
0 56.0237 15.0115 0.0000 -1.0 -0.2 0.0 0.4377 0.1173
0 56.0237 15.0115 -2.0000 -1.0 -0.2 0.0 0.4377 0.1173
r10_lid_dark
0 57.5038 7.5705 0.0000 -1.0 -0.2 0.0 0.4492 0.0591
0 56.0237 15.0115 -2.0000 -1.0 -0.2 0.0 0.4377 0.1173
0 57.5038 7.5705 -2.0000 -1.0 -0.2 0.0 0.4492 0.0591
r10_lid_rust
0 56.0237 15.0115 0.0000 0.0 0.0 1.0 0.4377 0.1173
0 154.5481 41.4110 0.0000 0.0 0.0 1.0 1.2074 0.3235
0 147.8207 61.2293 0.0000 0.0 0.0 1.0 1.1548 0.4784
r10_lid_rust
0 56.0237 15.0115 0.0000 0.0 0.0 1.0 0.4377 0.1173
0 147.8207 61.2293 0.0000 0.0 0.0 1.0 1.1548 0.4784
0 53.5850 22.1956 0.0000 0.0 0.0 1.0 0.4186 0.1734
r10_lid_dark
0 56.0237 15.0115 -2.0000 0.0 0.0 -1.0 0.4377 0.1173
0 147.8207 61.2293 -2.0000 0.0 0.0 -1.0 1.1548 0.4784
0 154.5481 41.4110 -2.0000 0.0 0.0 -1.0 1.2074 0.3235
r10_lid_dark
0 56.0237 15.0115 -2.0000 0.0 0.0 -1.0 0.4377 0.1173
0 53.5850 22.1956 -2.0000 0.0 0.0 -1.0 0.4186 0.1734
0 147.8207 61.2293 -2.0000 0.0 0.0 -1.0 1.1548 0.4784
r10_lid_dark
0 56.0237 15.0115 0.0000 -0.9 -0.3 0.0 0.4377 0.1173
0 53.5850 22.1956 0.0000 -0.9 -0.3 0.0 0.4186 0.1734
0 53.5850 22.1956 -2.0000 -0.9 -0.3 0.0 0.4186 0.1734
r10_lid_dark
0 56.0237 15.0115 0.0000 -0.9 -0.3 0.0 0.4377 0.1173
0 53.5850 22.1956 -2.0000 -0.9 -0.3 0.0 0.4186 0.1734
0 56.0237 15.0115 -2.0000 -0.9 -0.3 0.0 0.4377 0.1173
r10_lid_rust
0 53.5850 22.1956 0.0000 0.0 0.0 1.0 0.4186 0.1734
0 147.8207 61.2293 0.0000 0.0 0.0 1.0 1.1548 0.4784
0 138.5641 80.0000 0.0000 0.0 0.0 1.0 1.0825 0.6250
r10_lid_rust
0 53.5850 22.1956 0.0000 0.0 0.0 1.0 0.4186 0.1734
0 138.5641 80.0000 0.0000 0.0 0.0 1.0 1.0825 0.6250
0 50.2295 29.0000 0.0000 0.0 0.0 1.0 0.3924 0.2266
r10_lid_dark
0 53.5850 22.1956 -2.0000 0.0 0.0 -1.0 0.4186 0.1734
0 138.5641 80.0000 -2.0000 0.0 0.0 -1.0 1.0825 0.6250
0 147.8207 61.2293 -2.0000 0.0 0.0 -1.0 1.1548 0.4784
r10_lid_dark
0 53.5850 22.1956 -2.0000 0.0 0.0 -1.0 0.4186 0.1734
0 50.2295 29.0000 -2.0000 0.0 0.0 -1.0 0.3924 0.2266
0 138.5641 80.0000 -2.0000 0.0 0.0 -1.0 1.0825 0.6250
r10_lid_dark
0 53.5850 22.1956 0.0000 -0.9 -0.4 0.0 0.4186 0.1734
0 50.2295 29.0000 0.0000 -0.9 -0.4 0.0 0.3924 0.2266
0 50.2295 29.0000 -2.0000 -0.9 -0.4 0.0 0.3924 0.2266
r10_lid_dark
0 53.5850 22.1956 0.0000 -0.9 -0.4 0.0 0.4186 0.1734
0 50.2295 29.0000 -2.0000 -0.9 -0.4 0.0 0.3924 0.2266
0 53.5850 22.1956 -2.0000 -0.9 -0.4 0.0 0.4186 0.1734
r10_lid_rust
0 50.2295 29.0000 0.0000 0.0 0.0 1.0 0.3924 0.2266
0 138.5641 80.0000 0.0000 0.0 0.0 1.0 1.0825 0.6250
0 126.9365 97.4018 0.0000 0.0 0.0 1.0 0.9917 0.7610
r10_lid_rust
0 50.2295 29.0000 0.0000 0.0 0.0 1.0 0.3924 0.2266
0 126.9365 97.4018 0.0000 0.0 0.0 1.0 0.9917 0.7610
0 46.0145 35.3082 0.0000 0.0 0.0 1.0 0.3595 0.2758
r10_lid_dark
0 50.2295 29.0000 -2.0000 0.0 0.0 -1.0 0.3924 0.2266
0 126.9365 97.4018 -2.0000 0.0 0.0 -1.0 0.9917 0.7610
0 138.5641 80.0000 -2.0000 0.0 0.0 -1.0 1.0825 0.6250
r10_lid_dark
0 50.2295 29.0000 -2.0000 0.0 0.0 -1.0 0.3924 0.2266
0 46.0145 35.3082 -2.0000 0.0 0.0 -1.0 0.3595 0.2758
0 126.9365 97.4018 -2.0000 0.0 0.0 -1.0 0.9917 0.7610
r10_lid_dark
0 50.2295 29.0000 0.0000 -0.8 -0.6 0.0 0.3924 0.2266
0 46.0145 35.3082 0.0000 -0.8 -0.6 0.0 0.3595 0.2758
0 46.0145 35.3082 -2.0000 -0.8 -0.6 0.0 0.3595 0.2758
r10_lid_dark
0 50.2295 29.0000 0.0000 -0.8 -0.6 0.0 0.3924 0.2266
0 46.0145 35.3082 -2.0000 -0.8 -0.6 0.0 0.3595 0.2758
0 50.2295 29.0000 -2.0000 -0.8 -0.6 0.0 0.3924 0.2266
r10_lid_rust
0 46.0145 35.3082 0.0000 0.0 0.0 1.0 0.3595 0.2758
0 126.9365 97.4018 0.0000 0.0 0.0 1.0 0.9917 0.7610
0 113.1371 113.1371 0.0000 0.0 0.0 1.0 0.8839 0.8839
r10_lid_rust
0 46.0145 35.3082 0.0000 0.0 0.0 1.0 0.3595 0.2758
0 113.1371 113.1371 0.0000 0.0 0.0 1.0 0.8839 0.8839
0 41.0122 41.0122 0.0000 0.0 0.0 1.0 0.3204 0.3204
r10_lid_dark
0 46.0145 35.3082 -2.0000 0.0 0.0 -1.0 0.3595 0.2758
0 113.1371 113.1371 -2.0000 0.0 0.0 -1.0 0.8839 0.8839
0 126.9365 97.4018 -2.0000 0.0 0.0 -1.0 0.9917 0.7610
r10_lid_dark
0 46.0145 35.3082 -2.0000 0.0 0.0 -1.0 0.3595 0.2758
0 41.0122 41.0122 -2.0000 0.0 0.0 -1.0 0.3204 0.3204
0 113.1371 113.1371 -2.0000 0.0 0.0 -1.0 0.8839 0.8839
r10_lid_dark
0 46.0145 35.3082 0.0000 -0.8 -0.7 0.0 0.3595 0.2758
0 41.0122 41.0122 0.0000 -0.8 -0.7 0.0 0.3204 0.3204
0 41.0122 41.0122 -2.0000 -0.8 -0.7 0.0 0.3204 0.3204
r10_lid_dark
0 46.0145 35.3082 0.0000 -0.8 -0.7 0.0 0.3595 0.2758
0 41.0122 41.0122 -2.0000 -0.8 -0.7 0.0 0.3204 0.3204
0 46.0145 35.3082 -2.0000 -0.8 -0.7 0.0 0.3595 0.2758
r10_lid_rust
0 41.0122 41.0122 0.0000 0.0 0.0 1.0 0.3204 0.3204
0 113.1371 113.1371 0.0000 0.0 0.0 1.0 0.8839 0.8839
0 97.4018 126.9365 0.0000 0.0 0.0 1.0 0.7610 0.9917
r10_lid_rust
0 41.0122 41.0122 0.0000 0.0 0.0 1.0 0.3204 0.3204
0 97.4018 126.9365 0.0000 0.0 0.0 1.0 0.7610 0.9917
0 35.3082 46.0145 0.0000 0.0 0.0 1.0 0.2758 0.3595
r10_lid_dark
0 41.0122 41.0122 -2.0000 0.0 0.0 -1.0 0.3204 0.3204
0 97.4018 126.9365 -2.0000 0.0 0.0 -1.0 0.7610 0.9917
0 113.1371 113.1371 -2.0000 0.0 0.0 -1.0 0.8839 0.8839
r10_lid_dark
0 41.0122 41.0122 -2.0000 0.0 0.0 -1.0 0.3204 0.3204
0 35.3082 46.0145 -2.0000 0.0 0.0 -1.0 0.2758 0.3595
0 97.4018 126.9365 -2.0000 0.0 0.0 -1.0 0.7610 0.9917
r10_lid_dark
0 41.0122 41.0122 0.0000 -0.7 -0.8 0.0 0.3204 0.3204
0 35.3082 46.0145 0.0000 -0.7 -0.8 0.0 0.2758 0.3595
0 35.3082 46.0145 -2.0000 -0.7 -0.8 0.0 0.2758 0.3595
r10_lid_dark
0 41.0122 41.0122 0.0000 -0.7 -0.8 0.0 0.3204 0.3204
0 35.3082 46.0145 -2.0000 -0.7 -0.8 0.0 0.2758 0.3595
0 41.0122 41.0122 -2.0000 -0.7 -0.8 0.0 0.3204 0.3204
r10_lid_rust
0 35.3082 46.0145 0.0000 0.0 0.0 1.0 0.2758 0.3595
0 97.4018 126.9365 0.0000 0.0 0.0 1.0 0.7610 0.9917
0 80.0000 138.5641 0.0000 0.0 0.0 1.0 0.6250 1.0825
r10_lid_rust
0 35.3082 46.0145 0.0000 0.0 0.0 1.0 0.2758 0.3595
0 80.0000 138.5641 0.0000 0.0 0.0 1.0 0.6250 1.0825
0 29.0000 50.2295 0.0000 0.0 0.0 1.0 0.2266 0.3924
r10_lid_dark
0 35.3082 46.0145 -2.0000 0.0 0.0 -1.0 0.2758 0.3595
0 80.0000 138.5641 -2.0000 0.0 0.0 -1.0 0.6250 1.0825
0 97.4018 126.9365 -2.0000 0.0 0.0 -1.0 0.7610 0.9917
r10_lid_dark
0 35.3082 46.0145 -2.0000 0.0 0.0 -1.0 0.2758 0.3595
0 29.0000 50.2295 -2.0000 0.0 0.0 -1.0 0.2266 0.3924
0 80.0000 138.5641 -2.0000 0.0 0.0 -1.0 0.6250 1.0825
r10_lid_dark
0 35.3082 46.0145 0.0000 -0.6 -0.8 0.0 0.2758 0.3595
0 29.0000 50.2295 0.0000 -0.6 -0.8 0.0 0.2266 0.3924
0 29.0000 50.2295 -2.0000 -0.6 -0.8 0.0 0.2266 0.3924
r10_lid_dark
0 35.3082 46.0145 0.0000 -0.6 -0.8 0.0 0.2758 0.3595
0 29.0000 50.2295 -2.0000 -0.6 -0.8 0.0 0.2266 0.3924
0 35.3082 46.0145 -2.0000 -0.6 -0.8 0.0 0.2758 0.3595
r10_lid_rust
0 29.0000 50.2295 0.0000 0.0 0.0 1.0 0.2266 0.3924
0 80.0000 138.5641 0.0000 0.0 0.0 1.0 0.6250 1.0825
0 61.2293 147.8207 0.0000 0.0 0.0 1.0 0.4784 1.1548
r10_lid_rust
0 29.0000 50.2295 0.0000 0.0 0.0 1.0 0.2266 0.3924
0 61.2293 147.8207 0.0000 0.0 0.0 1.0 0.4784 1.1548
0 22.1956 53.5850 0.0000 0.0 0.0 1.0 0.1734 0.4186
r10_lid_dark
0 29.0000 50.2295 -2.0000 0.0 0.0 -1.0 0.2266 0.3924
0 61.2293 147.8207 -2.0000 0.0 0.0 -1.0 0.4784 1.1548
0 80.0000 138.5641 -2.0000 0.0 0.0 -1.0 0.6250 1.0825
r10_lid_dark
0 29.0000 50.2295 -2.0000 0.0 0.0 -1.0 0.2266 0.3924
0 22.1956 53.5850 -2.0000 0.0 0.0 -1.0 0.1734 0.4186
0 61.2293 147.8207 -2.0000 0.0 0.0 -1.0 0.4784 1.1548
r10_lid_dark
0 29.0000 50.2295 0.0000 -0.4 -0.9 0.0 0.2266 0.3924
0 22.1956 53.5850 0.0000 -0.4 -0.9 0.0 0.1734 0.4186
0 22.1956 53.5850 -2.0000 -0.4 -0.9 0.0 0.1734 0.4186
r10_lid_dark
0 29.0000 50.2295 0.0000 -0.4 -0.9 0.0 0.2266 0.3924
0 22.1956 53.5850 -2.0000 -0.4 -0.9 0.0 0.1734 0.4186
0 29.0000 50.2295 -2.0000 -0.4 -0.9 0.0 0.2266 0.3924
r10_lid_rust
0 22.1956 53.5850 0.0000 0.0 0.0 1.0 0.1734 0.4186
0 61.2293 147.8207 0.0000 0.0 0.0 1.0 0.4784 1.1548
0 41.4110 154.5481 0.0000 0.0 0.0 1.0 0.3235 1.2074
r10_lid_rust
0 22.1956 53.5850 0.0000 0.0 0.0 1.0 0.1734 0.4186
0 41.4110 154.5481 0.0000 0.0 0.0 1.0 0.3235 1.2074
0 15.0115 56.0237 0.0000 0.0 0.0 1.0 0.1173 0.4377
r10_lid_dark
0 22.1956 53.5850 -2.0000 0.0 0.0 -1.0 0.1734 0.4186
0 41.4110 154.5481 -2.0000 0.0 0.0 -1.0 0.3235 1.2074
0 61.2293 147.8207 -2.0000 0.0 0.0 -1.0 0.4784 1.1548
r10_lid_dark
0 22.1956 53.5850 -2.0000 0.0 0.0 -1.0 0.1734 0.4186
0 15.0115 56.0237 -2.0000 0.0 0.0 -1.0 0.1173 0.4377
0 41.4110 154.5481 -2.0000 0.0 0.0 -1.0 0.3235 1.2074
r10_lid_dark
0 22.1956 53.5850 0.0000 -0.3 -0.9 0.0 0.1734 0.4186
0 15.0115 56.0237 0.0000 -0.3 -0.9 0.0 0.1173 0.4377
0 15.0115 56.0237 -2.0000 -0.3 -0.9 0.0 0.1173 0.4377
r10_lid_dark
0 22.1956 53.5850 0.0000 -0.3 -0.9 0.0 0.1734 0.4186
0 15.0115 56.0237 -2.0000 -0.3 -0.9 0.0 0.1173 0.4377
0 22.1956 53.5850 -2.0000 -0.3 -0.9 0.0 0.1734 0.4186
r10_lid_rust
0 15.0115 56.0237 0.0000 0.0 0.0 1.0 0.1173 0.4377
0 41.4110 154.5481 0.0000 0.0 0.0 1.0 0.3235 1.2074
0 20.8842 158.6312 0.0000 0.0 0.0 1.0 0.1632 1.2393
r10_lid_rust
0 15.0115 56.0237 0.0000 0.0 0.0 1.0 0.1173 0.4377
0 20.8842 158.6312 0.0000 0.0 0.0 1.0 0.1632 1.2393
0 7.5705 57.5038 0.0000 0.0 0.0 1.0 0.0591 0.4492
r10_lid_dark
0 15.0115 56.0237 -2.0000 0.0 0.0 -1.0 0.1173 0.4377
0 20.8842 158.6312 -2.0000 0.0 0.0 -1.0 0.1632 1.2393
0 41.4110 154.5481 -2.0000 0.0 0.0 -1.0 0.3235 1.2074
r10_lid_dark
0 15.0115 56.0237 -2.0000 0.0 0.0 -1.0 0.1173 0.4377
0 7.5705 57.5038 -2.0000 0.0 0.0 -1.0 0.0591 0.4492
0 20.8842 158.6312 -2.0000 0.0 0.0 -1.0 0.1632 1.2393
r10_lid_dark
0 15.0115 56.0237 0.0000 -0.2 -1.0 0.0 0.1173 0.4377
0 7.5705 57.5038 0.0000 -0.2 -1.0 0.0 0.0591 0.4492
0 7.5705 57.5038 -2.0000 -0.2 -1.0 0.0 0.0591 0.4492
r10_lid_dark
0 15.0115 56.0237 0.0000 -0.2 -1.0 0.0 0.1173 0.4377
0 7.5705 57.5038 -2.0000 -0.2 -1.0 0.0 0.0591 0.4492
0 15.0115 56.0237 -2.0000 -0.2 -1.0 0.0 0.1173 0.4377
r10_lid_rust
0 7.5705 57.5038 0.0000 0.0 0.0 1.0 0.0591 0.4492
0 20.8842 158.6312 0.0000 0.0 0.0 1.0 0.1632 1.2393
0 0.0000 160.0000 0.0000 0.0 0.0 1.0 0.0000 1.2500
r10_lid_rust
0 7.5705 57.5038 0.0000 0.0 0.0 1.0 0.0591 0.4492
0 0.0000 160.0000 0.0000 0.0 0.0 1.0 0.0000 1.2500
0 0.0000 58.0000 0.0000 0.0 0.0 1.0 0.0000 0.4531
r10_lid_dark
0 7.5705 57.5038 -2.0000 0.0 0.0 -1.0 0.0591 0.4492
0 0.0000 160.0000 -2.0000 0.0 0.0 -1.0 0.0000 1.2500
0 20.8842 158.6312 -2.0000 0.0 0.0 -1.0 0.1632 1.2393
r10_lid_dark
0 7.5705 57.5038 -2.0000 0.0 0.0 -1.0 0.0591 0.4492
0 0.0000 58.0000 -2.0000 0.0 0.0 -1.0 0.0000 0.4531
0 0.0000 160.0000 -2.0000 0.0 0.0 -1.0 0.0000 1.2500
r10_lid_dark
0 7.5705 57.5038 0.0000 -0.1 -1.0 0.0 0.0591 0.4492
0 0.0000 58.0000 0.0000 -0.1 -1.0 0.0 0.0000 0.4531
0 0.0000 58.0000 -2.0000 -0.1 -1.0 0.0 0.0000 0.4531
r10_lid_dark
0 7.5705 57.5038 0.0000 -0.1 -1.0 0.0 0.0591 0.4492
0 0.0000 58.0000 -2.0000 -0.1 -1.0 0.0 0.0000 0.4531
0 7.5705 57.5038 -2.0000 -0.1 -1.0 0.0 0.0591 0.4492
r10_lid_rust
0 0.0000 58.0000 0.0000 0.0 0.0 1.0 0.0000 0.4531
0 0.0000 160.0000 0.0000 0.0 0.0 1.0 0.0000 1.2500
0 -20.8842 158.6312 0.0000 0.0 0.0 1.0 -0.1632 1.2393
r10_lid_rust
0 0.0000 58.0000 0.0000 0.0 0.0 1.0 0.0000 0.4531
0 -20.8842 158.6312 0.0000 0.0 0.0 1.0 -0.1632 1.2393
0 -7.5705 57.5038 0.0000 0.0 0.0 1.0 -0.0591 0.4492
r10_lid_dark
0 0.0000 58.0000 -2.0000 0.0 0.0 -1.0 0.0000 0.4531
0 -20.8842 158.6312 -2.0000 0.0 0.0 -1.0 -0.1632 1.2393
0 0.0000 160.0000 -2.0000 0.0 0.0 -1.0 0.0000 1.2500
r10_lid_dark
0 0.0000 58.0000 -2.0000 0.0 0.0 -1.0 0.0000 0.4531
0 -7.5705 57.5038 -2.0000 0.0 0.0 -1.0 -0.0591 0.4492
0 -20.8842 158.6312 -2.0000 0.0 0.0 -1.0 -0.1632 1.2393
r10_lid_dark
0 0.0000 58.0000 0.0000 0.1 -1.0 0.0 0.0000 0.4531
0 -7.5705 57.5038 0.0000 0.1 -1.0 0.0 -0.0591 0.4492
0 -7.5705 57.5038 -2.0000 0.1 -1.0 0.0 -0.0591 0.4492
r10_lid_dark
0 0.0000 58.0000 0.0000 0.1 -1.0 0.0 0.0000 0.4531
0 -7.5705 57.5038 -2.0000 0.1 -1.0 0.0 -0.0591 0.4492
0 0.0000 58.0000 -2.0000 0.1 -1.0 0.0 0.0000 0.4531
r10_lid_rust
0 -7.5705 57.5038 0.0000 0.0 0.0 1.0 -0.0591 0.4492
0 -20.8842 158.6312 0.0000 0.0 0.0 1.0 -0.1632 1.2393
0 -41.4110 154.5481 0.0000 0.0 0.0 1.0 -0.3235 1.2074
r10_lid_rust
0 -7.5705 57.5038 0.0000 0.0 0.0 1.0 -0.0591 0.4492
0 -41.4110 154.5481 0.0000 0.0 0.0 1.0 -0.3235 1.2074
0 -15.0115 56.0237 0.0000 0.0 0.0 1.0 -0.1173 0.4377
r10_lid_dark
0 -7.5705 57.5038 -2.0000 0.0 0.0 -1.0 -0.0591 0.4492
0 -41.4110 154.5481 -2.0000 0.0 0.0 -1.0 -0.3235 1.2074
0 -20.8842 158.6312 -2.0000 0.0 0.0 -1.0 -0.1632 1.2393
r10_lid_dark
0 -7.5705 57.5038 -2.0000 0.0 0.0 -1.0 -0.0591 0.4492
0 -15.0115 56.0237 -2.0000 0.0 0.0 -1.0 -0.1173 0.4377
0 -41.4110 154.5481 -2.0000 0.0 0.0 -1.0 -0.3235 1.2074
r10_lid_dark
0 -7.5705 57.5038 0.0000 0.2 -1.0 0.0 -0.0591 0.4492
0 -15.0115 56.0237 0.0000 0.2 -1.0 0.0 -0.1173 0.4377
0 -15.0115 56.0237 -2.0000 0.2 -1.0 0.0 -0.1173 0.4377
r10_lid_dark
0 -7.5705 57.5038 0.0000 0.2 -1.0 0.0 -0.0591 0.4492
0 -15.0115 56.0237 -2.0000 0.2 -1.0 0.0 -0.1173 0.4377
0 -7.5705 57.5038 -2.0000 0.2 -1.0 0.0 -0.0591 0.4492
r10_lid_rust
0 -15.0115 56.0237 0.0000 0.0 0.0 1.0 -0.1173 0.4377
0 -41.4110 154.5481 0.0000 0.0 0.0 1.0 -0.3235 1.2074
0 -61.2293 147.8207 0.0000 0.0 0.0 1.0 -0.4784 1.1548
r10_lid_rust
0 -15.0115 56.0237 0.0000 0.0 0.0 1.0 -0.1173 0.4377
0 -61.2293 147.8207 0.0000 0.0 0.0 1.0 -0.4784 1.1548
0 -22.1956 53.5850 0.0000 0.0 0.0 1.0 -0.1734 0.4186
r10_lid_dark
0 -15.0115 56.0237 -2.0000 0.0 0.0 -1.0 -0.1173 0.4377
0 -61.2293 147.8207 -2.0000 0.0 0.0 -1.0 -0.4784 1.1548
0 -41.4110 154.5481 -2.0000 0.0 0.0 -1.0 -0.3235 1.2074
r10_lid_dark
0 -15.0115 56.0237 -2.0000 0.0 0.0 -1.0 -0.1173 0.4377
0 -22.1956 53.5850 -2.0000 0.0 0.0 -1.0 -0.1734 0.4186
0 -61.2293 147.8207 -2.0000 0.0 0.0 -1.0 -0.4784 1.1548
r10_lid_dark
0 -15.0115 56.0237 0.0000 0.3 -0.9 0.0 -0.1173 0.4377
0 -22.1956 53.5850 0.0000 0.3 -0.9 0.0 -0.1734 0.4186
0 -22.1956 53.5850 -2.0000 0.3 -0.9 0.0 -0.1734 0.4186
r10_lid_dark
0 -15.0115 56.0237 0.0000 0.3 -0.9 0.0 -0.1173 0.4377
0 -22.1956 53.5850 -2.0000 0.3 -0.9 0.0 -0.1734 0.4186
0 -15.0115 56.0237 -2.0000 0.3 -0.9 0.0 -0.1173 0.4377
r10_lid_rust
0 -22.1956 53.5850 0.0000 0.0 0.0 1.0 -0.1734 0.4186
0 -61.2293 147.8207 0.0000 0.0 0.0 1.0 -0.4784 1.1548
0 -80.0000 138.5641 0.0000 0.0 0.0 1.0 -0.6250 1.0825
r10_lid_rust
0 -22.1956 53.5850 0.0000 0.0 0.0 1.0 -0.1734 0.4186
0 -80.0000 138.5641 0.0000 0.0 0.0 1.0 -0.6250 1.0825
0 -29.0000 50.2295 0.0000 0.0 0.0 1.0 -0.2266 0.3924
r10_lid_dark
0 -22.1956 53.5850 -2.0000 0.0 0.0 -1.0 -0.1734 0.4186
0 -80.0000 138.5641 -2.0000 0.0 0.0 -1.0 -0.6250 1.0825
0 -61.2293 147.8207 -2.0000 0.0 0.0 -1.0 -0.4784 1.1548
r10_lid_dark
0 -22.1956 53.5850 -2.0000 0.0 0.0 -1.0 -0.1734 0.4186
0 -29.0000 50.2295 -2.0000 0.0 0.0 -1.0 -0.2266 0.3924
0 -80.0000 138.5641 -2.0000 0.0 0.0 -1.0 -0.6250 1.0825
r10_lid_dark
0 -22.1956 53.5850 0.0000 0.4 -0.9 0.0 -0.1734 0.4186
0 -29.0000 50.2295 0.0000 0.4 -0.9 0.0 -0.2266 0.3924
0 -29.0000 50.2295 -2.0000 0.4 -0.9 0.0 -0.2266 0.3924
r10_lid_dark
0 -22.1956 53.5850 0.0000 0.4 -0.9 0.0 -0.1734 0.4186
0 -29.0000 50.2295 -2.0000 0.4 -0.9 0.0 -0.2266 0.3924
0 -22.1956 53.5850 -2.0000 0.4 -0.9 0.0 -0.1734 0.4186
r10_lid_rust
0 -29.0000 50.2295 0.0000 0.0 0.0 1.0 -0.2266 0.3924
0 -80.0000 138.5641 0.0000 0.0 0.0 1.0 -0.6250 1.0825
0 -97.4018 126.9365 0.0000 0.0 0.0 1.0 -0.7610 0.9917
r10_lid_rust
0 -29.0000 50.2295 0.0000 0.0 0.0 1.0 -0.2266 0.3924
0 -97.4018 126.9365 0.0000 0.0 0.0 1.0 -0.7610 0.9917
0 -35.3082 46.0145 0.0000 0.0 0.0 1.0 -0.2758 0.3595
r10_lid_dark
0 -29.0000 50.2295 -2.0000 0.0 0.0 -1.0 -0.2266 0.3924
0 -97.4018 126.9365 -2.0000 0.0 0.0 -1.0 -0.7610 0.9917
0 -80.0000 138.5641 -2.0000 0.0 0.0 -1.0 -0.6250 1.0825
r10_lid_dark
0 -29.0000 50.2295 -2.0000 0.0 0.0 -1.0 -0.2266 0.3924
0 -35.3082 46.0145 -2.0000 0.0 0.0 -1.0 -0.2758 0.3595
0 -97.4018 126.9365 -2.0000 0.0 0.0 -1.0 -0.7610 0.9917
r10_lid_dark
0 -29.0000 50.2295 0.0000 0.6 -0.8 0.0 -0.2266 0.3924
0 -35.3082 46.0145 0.0000 0.6 -0.8 0.0 -0.2758 0.3595
0 -35.3082 46.0145 -2.0000 0.6 -0.8 0.0 -0.2758 0.3595
r10_lid_dark
0 -29.0000 50.2295 0.0000 0.6 -0.8 0.0 -0.2266 0.3924
0 -35.3082 46.0145 -2.0000 0.6 -0.8 0.0 -0.2758 0.3595
0 -29.0000 50.2295 -2.0000 0.6 -0.8 0.0 -0.2266 0.3924
r10_lid_rust
0 -35.3082 46.0145 0.0000 0.0 0.0 1.0 -0.2758 0.3595
0 -97.4018 126.9365 0.0000 0.0 0.0 1.0 -0.7610 0.9917
0 -113.1371 113.1371 0.0000 0.0 0.0 1.0 -0.8839 0.8839
r10_lid_rust
0 -35.3082 46.0145 0.0000 0.0 0.0 1.0 -0.2758 0.3595
0 -113.1371 113.1371 0.0000 0.0 0.0 1.0 -0.8839 0.8839
0 -41.0122 41.0122 0.0000 0.0 0.0 1.0 -0.3204 0.3204
r10_lid_dark
0 -35.3082 46.0145 -2.0000 0.0 0.0 -1.0 -0.2758 0.3595
0 -113.1371 113.1371 -2.0000 0.0 0.0 -1.0 -0.8839 0.8839
0 -97.4018 126.9365 -2.0000 0.0 0.0 -1.0 -0.7610 0.9917
r10_lid_dark
0 -35.3082 46.0145 -2.0000 0.0 0.0 -1.0 -0.2758 0.3595
0 -41.0122 41.0122 -2.0000 0.0 0.0 -1.0 -0.3204 0.3204
0 -113.1371 113.1371 -2.0000 0.0 0.0 -1.0 -0.8839 0.8839
r10_lid_dark
0 -35.3082 46.0145 0.0000 0.7 -0.8 0.0 -0.2758 0.3595
0 -41.0122 41.0122 0.0000 0.7 -0.8 0.0 -0.3204 0.3204
0 -41.0122 41.0122 -2.0000 0.7 -0.8 0.0 -0.3204 0.3204
r10_lid_dark
0 -35.3082 46.0145 0.0000 0.7 -0.8 0.0 -0.2758 0.3595
0 -41.0122 41.0122 -2.0000 0.7 -0.8 0.0 -0.3204 0.3204
0 -35.3082 46.0145 -2.0000 0.7 -0.8 0.0 -0.2758 0.3595
r10_lid_rust
0 -41.0122 41.0122 0.0000 0.0 0.0 1.0 -0.3204 0.3204
0 -113.1371 113.1371 0.0000 0.0 0.0 1.0 -0.8839 0.8839
0 -126.9365 97.4018 0.0000 0.0 0.0 1.0 -0.9917 0.7610
r10_lid_rust
0 -41.0122 41.0122 0.0000 0.0 0.0 1.0 -0.3204 0.3204
0 -126.9365 97.4018 0.0000 0.0 0.0 1.0 -0.9917 0.7610
0 -46.0145 35.3082 0.0000 0.0 0.0 1.0 -0.3595 0.2758
r10_lid_dark
0 -41.0122 41.0122 -2.0000 0.0 0.0 -1.0 -0.3204 0.3204
0 -126.9365 97.4018 -2.0000 0.0 0.0 -1.0 -0.9917 0.7610
0 -113.1371 113.1371 -2.0000 0.0 0.0 -1.0 -0.8839 0.8839
r10_lid_dark
0 -41.0122 41.0122 -2.0000 0.0 0.0 -1.0 -0.3204 0.3204
0 -46.0145 35.3082 -2.0000 0.0 0.0 -1.0 -0.3595 0.2758
0 -126.9365 97.4018 -2.0000 0.0 0.0 -1.0 -0.9917 0.7610
r10_lid_dark
0 -41.0122 41.0122 0.0000 0.8 -0.7 0.0 -0.3204 0.3204
0 -46.0145 35.3082 0.0000 0.8 -0.7 0.0 -0.3595 0.2758
0 -46.0145 35.3082 -2.0000 0.8 -0.7 0.0 -0.3595 0.2758
r10_lid_dark
0 -41.0122 41.0122 0.0000 0.8 -0.7 0.0 -0.3204 0.3204
0 -46.0145 35.3082 -2.0000 0.8 -0.7 0.0 -0.3595 0.2758
0 -41.0122 41.0122 -2.0000 0.8 -0.7 0.0 -0.3204 0.3204
r10_lid_rust
0 -46.0145 35.3082 0.0000 0.0 0.0 1.0 -0.3595 0.2758
0 -126.9365 97.4018 0.0000 0.0 0.0 1.0 -0.9917 0.7610
0 -138.5641 80.0000 0.0000 0.0 0.0 1.0 -1.0825 0.6250
r10_lid_rust
0 -46.0145 35.3082 0.0000 0.0 0.0 1.0 -0.3595 0.2758
0 -138.5641 80.0000 0.0000 0.0 0.0 1.0 -1.0825 0.6250
0 -50.2295 29.0000 0.0000 0.0 0.0 1.0 -0.3924 0.2266
r10_lid_dark
0 -46.0145 35.3082 -2.0000 0.0 0.0 -1.0 -0.3595 0.2758
0 -138.5641 80.0000 -2.0000 0.0 0.0 -1.0 -1.0825 0.6250
0 -126.9365 97.4018 -2.0000 0.0 0.0 -1.0 -0.9917 0.7610
r10_lid_dark
0 -46.0145 35.3082 -2.0000 0.0 0.0 -1.0 -0.3595 0.2758
0 -50.2295 29.0000 -2.0000 0.0 0.0 -1.0 -0.3924 0.2266
0 -138.5641 80.0000 -2.0000 0.0 0.0 -1.0 -1.0825 0.6250
r10_lid_dark
0 -46.0145 35.3082 0.0000 0.8 -0.6 0.0 -0.3595 0.2758
0 -50.2295 29.0000 0.0000 0.8 -0.6 0.0 -0.3924 0.2266
0 -50.2295 29.0000 -2.0000 0.8 -0.6 0.0 -0.3924 0.2266
r10_lid_dark
0 -46.0145 35.3082 0.0000 0.8 -0.6 0.0 -0.3595 0.2758
0 -50.2295 29.0000 -2.0000 0.8 -0.6 0.0 -0.3924 0.2266
0 -46.0145 35.3082 -2.0000 0.8 -0.6 0.0 -0.3595 0.2758
r10_lid_rust
0 -50.2295 29.0000 0.0000 0.0 0.0 1.0 -0.3924 0.2266
0 -138.5641 80.0000 0.0000 0.0 0.0 1.0 -1.0825 0.6250
0 -147.8207 61.2293 0.0000 0.0 0.0 1.0 -1.1548 0.4784
r10_lid_rust
0 -50.2295 29.0000 0.0000 0.0 0.0 1.0 -0.3924 0.2266
0 -147.8207 61.2293 0.0000 0.0 0.0 1.0 -1.1548 0.4784
0 -53.5850 22.1956 0.0000 0.0 0.0 1.0 -0.4186 0.1734
r10_lid_dark
0 -50.2295 29.0000 -2.0000 0.0 0.0 -1.0 -0.3924 0.2266
0 -147.8207 61.2293 -2.0000 0.0 0.0 -1.0 -1.1548 0.4784
0 -138.5641 80.0000 -2.0000 0.0 0.0 -1.0 -1.0825 0.6250
r10_lid_dark
0 -50.2295 29.0000 -2.0000 0.0 0.0 -1.0 -0.3924 0.2266
0 -53.5850 22.1956 -2.0000 0.0 0.0 -1.0 -0.4186 0.1734
0 -147.8207 61.2293 -2.0000 0.0 0.0 -1.0 -1.1548 0.4784
r10_lid_dark
0 -50.2295 29.0000 0.0000 0.9 -0.4 0.0 -0.3924 0.2266
0 -53.5850 22.1956 0.0000 0.9 -0.4 0.0 -0.4186 0.1734
0 -53.5850 22.1956 -2.0000 0.9 -0.4 0.0 -0.4186 0.1734
r10_lid_dark
0 -50.2295 29.0000 0.0000 0.9 -0.4 0.0 -0.3924 0.2266
0 -53.5850 22.1956 -2.0000 0.9 -0.4 0.0 -0.4186 0.1734
0 -50.2295 29.0000 -2.0000 0.9 -0.4 0.0 -0.3924 0.2266
r10_lid_rust
0 -53.5850 22.1956 0.0000 0.0 0.0 1.0 -0.4186 0.1734
0 -147.8207 61.2293 0.0000 0.0 0.0 1.0 -1.1548 0.4784
0 -154.5481 41.4110 0.0000 0.0 0.0 1.0 -1.2074 0.3235
r10_lid_rust
0 -53.5850 22.1956 0.0000 0.0 0.0 1.0 -0.4186 0.1734
0 -154.5481 41.4110 0.0000 0.0 0.0 1.0 -1.2074 0.3235
0 -56.0237 15.0115 0.0000 0.0 0.0 1.0 -0.4377 0.1173
r10_lid_dark
0 -53.5850 22.1956 -2.0000 0.0 0.0 -1.0 -0.4186 0.1734
0 -154.5481 41.4110 -2.0000 0.0 0.0 -1.0 -1.2074 0.3235
0 -147.8207 61.2293 -2.0000 0.0 0.0 -1.0 -1.1548 0.4784
r10_lid_dark
0 -53.5850 22.1956 -2.0000 0.0 0.0 -1.0 -0.4186 0.1734
0 -56.0237 15.0115 -2.0000 0.0 0.0 -1.0 -0.4377 0.1173
0 -154.5481 41.4110 -2.0000 0.0 0.0 -1.0 -1.2074 0.3235
r10_lid_dark
0 -53.5850 22.1956 0.0000 0.9 -0.3 0.0 -0.4186 0.1734
0 -56.0237 15.0115 0.0000 0.9 -0.3 0.0 -0.4377 0.1173
0 -56.0237 15.0115 -2.0000 0.9 -0.3 0.0 -0.4377 0.1173
r10_lid_dark
0 -53.5850 22.1956 0.0000 0.9 -0.3 0.0 -0.4186 0.1734
0 -56.0237 15.0115 -2.0000 0.9 -0.3 0.0 -0.4377 0.1173
0 -53.5850 22.1956 -2.0000 0.9 -0.3 0.0 -0.4186 0.1734
r10_lid_rust
0 -56.0237 15.0115 0.0000 0.0 0.0 1.0 -0.4377 0.1173
0 -154.5481 41.4110 0.0000 0.0 0.0 1.0 -1.2074 0.3235
0 -158.6312 20.8842 0.0000 0.0 0.0 1.0 -1.2393 0.1632
r10_lid_rust
0 -56.0237 15.0115 0.0000 0.0 0.0 1.0 -0.4377 0.1173
0 -158.6312 20.8842 0.0000 0.0 0.0 1.0 -1.2393 0.1632
0 -57.5038 7.5705 0.0000 0.0 0.0 1.0 -0.4492 0.0591
r10_lid_dark
0 -56.0237 15.0115 -2.0000 0.0 0.0 -1.0 -0.4377 0.1173
0 -158.6312 20.8842 -2.0000 0.0 0.0 -1.0 -1.2393 0.1632
0 -154.5481 41.4110 -2.0000 0.0 0.0 -1.0 -1.2074 0.3235
r10_lid_dark
0 -56.0237 15.0115 -2.0000 0.0 0.0 -1.0 -0.4377 0.1173
0 -57.5038 7.5705 -2.0000 0.0 0.0 -1.0 -0.4492 0.0591
0 -158.6312 20.8842 -2.0000 0.0 0.0 -1.0 -1.2393 0.1632
r10_lid_dark
0 -56.0237 15.0115 0.0000 1.0 -0.2 0.0 -0.4377 0.1173
0 -57.5038 7.5705 0.0000 1.0 -0.2 0.0 -0.4492 0.0591
0 -57.5038 7.5705 -2.0000 1.0 -0.2 0.0 -0.4492 0.0591
r10_lid_dark
0 -56.0237 15.0115 0.0000 1.0 -0.2 0.0 -0.4377 0.1173
0 -57.5038 7.5705 -2.0000 1.0 -0.2 0.0 -0.4492 0.0591
0 -56.0237 15.0115 -2.0000 1.0 -0.2 0.0 -0.4377 0.1173
r10_lid_rust
0 -57.5038 7.5705 0.0000 0.0 0.0 1.0 -0.4492 0.0591
0 -158.6312 20.8842 0.0000 0.0 0.0 1.0 -1.2393 0.1632
0 -160.0000 0.0000 0.0000 0.0 0.0 1.0 -1.2500 0.0000
r10_lid_rust
0 -57.5038 7.5705 0.0000 0.0 0.0 1.0 -0.4492 0.0591
0 -160.0000 0.0000 0.0000 0.0 0.0 1.0 -1.2500 0.0000
0 -58.0000 0.0000 0.0000 0.0 0.0 1.0 -0.4531 0.0000
r10_lid_dark
0 -57.5038 7.5705 -2.0000 0.0 0.0 -1.0 -0.4492 0.0591
0 -160.0000 0.0000 -2.0000 0.0 0.0 -1.0 -1.2500 0.0000
0 -158.6312 20.8842 -2.0000 0.0 0.0 -1.0 -1.2393 0.1632
r10_lid_dark
0 -57.5038 7.5705 -2.0000 0.0 0.0 -1.0 -0.4492 0.0591
0 -58.0000 0.0000 -2.0000 0.0 0.0 -1.0 -0.4531 0.0000
0 -160.0000 0.0000 -2.0000 0.0 0.0 -1.0 -1.2500 0.0000
r10_lid_dark
0 -57.5038 7.5705 0.0000 1.0 -0.1 0.0 -0.4492 0.0591
0 -58.0000 0.0000 0.0000 1.0 -0.1 0.0 -0.4531 0.0000
0 -58.0000 0.0000 -2.0000 1.0 -0.1 0.0 -0.4531 0.0000
r10_lid_dark
0 -57.5038 7.5705 0.0000 1.0 -0.1 0.0 -0.4492 0.0591
0 -58.0000 0.0000 -2.0000 1.0 -0.1 0.0 -0.4531 0.0000
0 -57.5038 7.5705 -2.0000 1.0 -0.1 0.0 -0.4492 0.0591
r10_lid_rust
0 -58.0000 0.0000 0.0000 0.0 0.0 1.0 -0.4531 0.0000
0 -160.0000 0.0000 0.0000 0.0 0.0 1.0 -1.2500 0.0000
0 -158.6312 -20.8842 0.0000 0.0 0.0 1.0 -1.2393 -0.1632
r10_lid_rust
0 -58.0000 0.0000 0.0000 0.0 0.0 1.0 -0.4531 0.0000
0 -158.6312 -20.8842 0.0000 0.0 0.0 1.0 -1.2393 -0.1632
0 -57.5038 -7.5705 0.0000 0.0 0.0 1.0 -0.4492 -0.0591
r10_lid_dark
0 -58.0000 0.0000 -2.0000 0.0 0.0 -1.0 -0.4531 0.0000
0 -158.6312 -20.8842 -2.0000 0.0 0.0 -1.0 -1.2393 -0.1632
0 -160.0000 0.0000 -2.0000 0.0 0.0 -1.0 -1.2500 0.0000
r10_lid_dark
0 -58.0000 0.0000 -2.0000 0.0 0.0 -1.0 -0.4531 0.0000
0 -57.5038 -7.5705 -2.0000 0.0 0.0 -1.0 -0.4492 -0.0591
0 -158.6312 -20.8842 -2.0000 0.0 0.0 -1.0 -1.2393 -0.1632
r10_lid_dark
0 -58.0000 0.0000 0.0000 1.0 0.1 0.0 -0.4531 0.0000
0 -57.5038 -7.5705 0.0000 1.0 0.1 0.0 -0.4492 -0.0591
0 -57.5038 -7.5705 -2.0000 1.0 0.1 0.0 -0.4492 -0.0591
r10_lid_dark
0 -58.0000 0.0000 0.0000 1.0 0.1 0.0 -0.4531 0.0000
0 -57.5038 -7.5705 -2.0000 1.0 0.1 0.0 -0.4492 -0.0591
0 -58.0000 0.0000 -2.0000 1.0 0.1 0.0 -0.4531 0.0000
r10_lid_rust
0 -57.5038 -7.5705 0.0000 0.0 0.0 1.0 -0.4492 -0.0591
0 -158.6312 -20.8842 0.0000 0.0 0.0 1.0 -1.2393 -0.1632
0 -154.5481 -41.4110 0.0000 0.0 0.0 1.0 -1.2074 -0.3235
r10_lid_rust
0 -57.5038 -7.5705 0.0000 0.0 0.0 1.0 -0.4492 -0.0591
0 -154.5481 -41.4110 0.0000 0.0 0.0 1.0 -1.2074 -0.3235
0 -56.0237 -15.0115 0.0000 0.0 0.0 1.0 -0.4377 -0.1173
r10_lid_dark
0 -57.5038 -7.5705 -2.0000 0.0 0.0 -1.0 -0.4492 -0.0591
0 -154.5481 -41.4110 -2.0000 0.0 0.0 -1.0 -1.2074 -0.3235
0 -158.6312 -20.8842 -2.0000 0.0 0.0 -1.0 -1.2393 -0.1632
r10_lid_dark
0 -57.5038 -7.5705 -2.0000 0.0 0.0 -1.0 -0.4492 -0.0591
0 -56.0237 -15.0115 -2.0000 0.0 0.0 -1.0 -0.4377 -0.1173
0 -154.5481 -41.4110 -2.0000 0.0 0.0 -1.0 -1.2074 -0.3235
r10_lid_dark
0 -57.5038 -7.5705 0.0000 1.0 0.2 0.0 -0.4492 -0.0591
0 -56.0237 -15.0115 0.0000 1.0 0.2 0.0 -0.4377 -0.1173
0 -56.0237 -15.0115 -2.0000 1.0 0.2 0.0 -0.4377 -0.1173
r10_lid_dark
0 -57.5038 -7.5705 0.0000 1.0 0.2 0.0 -0.4492 -0.0591
0 -56.0237 -15.0115 -2.0000 1.0 0.2 0.0 -0.4377 -0.1173
0 -57.5038 -7.5705 -2.0000 1.0 0.2 0.0 -0.4492 -0.0591
r10_lid_rust
0 -56.0237 -15.0115 0.0000 0.0 0.0 1.0 -0.4377 -0.1173
0 -154.5481 -41.4110 0.0000 0.0 0.0 1.0 -1.2074 -0.3235
0 -147.8207 -61.2293 0.0000 0.0 0.0 1.0 -1.1548 -0.4784
r10_lid_rust
0 -56.0237 -15.0115 0.0000 0.0 0.0 1.0 -0.4377 -0.1173
0 -147.8207 -61.2293 0.0000 0.0 0.0 1.0 -1.1548 -0.4784
0 -53.5850 -22.1956 0.0000 0.0 0.0 1.0 -0.4186 -0.1734
r10_lid_dark
0 -56.0237 -15.0115 -2.0000 0.0 0.0 -1.0 -0.4377 -0.1173
0 -147.8207 -61.2293 -2.0000 0.0 0.0 -1.0 -1.1548 -0.4784
0 -154.5481 -41.4110 -2.0000 0.0 0.0 -1.0 -1.2074 -0.3235
r10_lid_dark
0 -56.0237 -15.0115 -2.0000 0.0 0.0 -1.0 -0.4377 -0.1173
0 -53.5850 -22.1956 -2.0000 0.0 0.0 -1.0 -0.4186 -0.1734
0 -147.8207 -61.2293 -2.0000 0.0 0.0 -1.0 -1.1548 -0.4784
r10_lid_dark
0 -56.0237 -15.0115 0.0000 0.9 0.3 0.0 -0.4377 -0.1173
0 -53.5850 -22.1956 0.0000 0.9 0.3 0.0 -0.4186 -0.1734
0 -53.5850 -22.1956 -2.0000 0.9 0.3 0.0 -0.4186 -0.1734
r10_lid_dark
0 -56.0237 -15.0115 0.0000 0.9 0.3 0.0 -0.4377 -0.1173
0 -53.5850 -22.1956 -2.0000 0.9 0.3 0.0 -0.4186 -0.1734
0 -56.0237 -15.0115 -2.0000 0.9 0.3 0.0 -0.4377 -0.1173
r10_lid_rust
0 -53.5850 -22.1956 0.0000 0.0 0.0 1.0 -0.4186 -0.1734
0 -147.8207 -61.2293 0.0000 0.0 0.0 1.0 -1.1548 -0.4784
0 -138.5641 -80.0000 0.0000 0.0 0.0 1.0 -1.0825 -0.6250
r10_lid_rust
0 -53.5850 -22.1956 0.0000 0.0 0.0 1.0 -0.4186 -0.1734
0 -138.5641 -80.0000 0.0000 0.0 0.0 1.0 -1.0825 -0.6250
0 -50.2295 -29.0000 0.0000 0.0 0.0 1.0 -0.3924 -0.2266
r10_lid_dark
0 -53.5850 -22.1956 -2.0000 0.0 0.0 -1.0 -0.4186 -0.1734
0 -138.5641 -80.0000 -2.0000 0.0 0.0 -1.0 -1.0825 -0.6250
0 -147.8207 -61.2293 -2.0000 0.0 0.0 -1.0 -1.1548 -0.4784
r10_lid_dark
0 -53.5850 -22.1956 -2.0000 0.0 0.0 -1.0 -0.4186 -0.1734
0 -50.2295 -29.0000 -2.0000 0.0 0.0 -1.0 -0.3924 -0.2266
0 -138.5641 -80.0000 -2.0000 0.0 0.0 -1.0 -1.0825 -0.6250
r10_lid_dark
0 -53.5850 -22.1956 0.0000 0.9 0.4 0.0 -0.4186 -0.1734
0 -50.2295 -29.0000 0.0000 0.9 0.4 0.0 -0.3924 -0.2266
0 -50.2295 -29.0000 -2.0000 0.9 0.4 0.0 -0.3924 -0.2266
r10_lid_dark
0 -53.5850 -22.1956 0.0000 0.9 0.4 0.0 -0.4186 -0.1734
0 -50.2295 -29.0000 -2.0000 0.9 0.4 0.0 -0.3924 -0.2266
0 -53.5850 -22.1956 -2.0000 0.9 0.4 0.0 -0.4186 -0.1734
r10_lid_rust
0 -50.2295 -29.0000 0.0000 0.0 0.0 1.0 -0.3924 -0.2266
0 -138.5641 -80.0000 0.0000 0.0 0.0 1.0 -1.0825 -0.6250
0 -126.9365 -97.4018 0.0000 0.0 0.0 1.0 -0.9917 -0.7610
r10_lid_rust
0 -50.2295 -29.0000 0.0000 0.0 0.0 1.0 -0.3924 -0.2266
0 -126.9365 -97.4018 0.0000 0.0 0.0 1.0 -0.9917 -0.7610
0 -46.0145 -35.3082 0.0000 0.0 0.0 1.0 -0.3595 -0.2758
r10_lid_dark
0 -50.2295 -29.0000 -2.0000 0.0 0.0 -1.0 -0.3924 -0.2266
0 -126.9365 -97.4018 -2.0000 0.0 0.0 -1.0 -0.9917 -0.7610
0 -138.5641 -80.0000 -2.0000 0.0 0.0 -1.0 -1.0825 -0.6250
r10_lid_dark
0 -50.2295 -29.0000 -2.0000 0.0 0.0 -1.0 -0.3924 -0.2266
0 -46.0145 -35.3082 -2.0000 0.0 0.0 -1.0 -0.3595 -0.2758
0 -126.9365 -97.4018 -2.0000 0.0 0.0 -1.0 -0.9917 -0.7610
r10_lid_dark
0 -50.2295 -29.0000 0.0000 0.8 0.6 0.0 -0.3924 -0.2266
0 -46.0145 -35.3082 0.0000 0.8 0.6 0.0 -0.3595 -0.2758
0 -46.0145 -35.3082 -2.0000 0.8 0.6 0.0 -0.3595 -0.2758
r10_lid_dark
0 -50.2295 -29.0000 0.0000 0.8 0.6 0.0 -0.3924 -0.2266
0 -46.0145 -35.3082 -2.0000 0.8 0.6 0.0 -0.3595 -0.2758
0 -50.2295 -29.0000 -2.0000 0.8 0.6 0.0 -0.3924 -0.2266
r10_lid_rust
0 -46.0145 -35.3082 0.0000 0.0 0.0 1.0 -0.3595 -0.2758
0 -126.9365 -97.4018 0.0000 0.0 0.0 1.0 -0.9917 -0.7610
0 -113.1371 -113.1371 0.0000 0.0 0.0 1.0 -0.8839 -0.8839
r10_lid_rust
0 -46.0145 -35.3082 0.0000 0.0 0.0 1.0 -0.3595 -0.2758
0 -113.1371 -113.1371 0.0000 0.0 0.0 1.0 -0.8839 -0.8839
0 -41.0122 -41.0122 0.0000 0.0 0.0 1.0 -0.3204 -0.3204
r10_lid_dark
0 -46.0145 -35.3082 -2.0000 0.0 0.0 -1.0 -0.3595 -0.2758
0 -113.1371 -113.1371 -2.0000 0.0 0.0 -1.0 -0.8839 -0.8839
0 -126.9365 -97.4018 -2.0000 0.0 0.0 -1.0 -0.9917 -0.7610
r10_lid_dark
0 -46.0145 -35.3082 -2.0000 0.0 0.0 -1.0 -0.3595 -0.2758
0 -41.0122 -41.0122 -2.0000 0.0 0.0 -1.0 -0.3204 -0.3204
0 -113.1371 -113.1371 -2.0000 0.0 0.0 -1.0 -0.8839 -0.8839
r10_lid_dark
0 -46.0145 -35.3082 0.0000 0.8 0.7 0.0 -0.3595 -0.2758
0 -41.0122 -41.0122 0.0000 0.8 0.7 0.0 -0.3204 -0.3204
0 -41.0122 -41.0122 -2.0000 0.8 0.7 0.0 -0.3204 -0.3204
r10_lid_dark
0 -46.0145 -35.3082 0.0000 0.8 0.7 0.0 -0.3595 -0.2758
0 -41.0122 -41.0122 -2.0000 0.8 0.7 0.0 -0.3204 -0.3204
0 -46.0145 -35.3082 -2.0000 0.8 0.7 0.0 -0.3595 -0.2758
r10_lid_rust
0 -41.0122 -41.0122 0.0000 0.0 0.0 1.0 -0.3204 -0.3204
0 -113.1371 -113.1371 0.0000 0.0 0.0 1.0 -0.8839 -0.8839
0 -97.4018 -126.9365 0.0000 0.0 0.0 1.0 -0.7610 -0.9917
r10_lid_rust
0 -41.0122 -41.0122 0.0000 0.0 0.0 1.0 -0.3204 -0.3204
0 -97.4018 -126.9365 0.0000 0.0 0.0 1.0 -0.7610 -0.9917
0 -35.3082 -46.0145 0.0000 0.0 0.0 1.0 -0.2758 -0.3595
r10_lid_dark
0 -41.0122 -41.0122 -2.0000 0.0 0.0 -1.0 -0.3204 -0.3204
0 -97.4018 -126.9365 -2.0000 0.0 0.0 -1.0 -0.7610 -0.9917
0 -113.1371 -113.1371 -2.0000 0.0 0.0 -1.0 -0.8839 -0.8839
r10_lid_dark
0 -41.0122 -41.0122 -2.0000 0.0 0.0 -1.0 -0.3204 -0.3204
0 -35.3082 -46.0145 -2.0000 0.0 0.0 -1.0 -0.2758 -0.3595
0 -97.4018 -126.9365 -2.0000 0.0 0.0 -1.0 -0.7610 -0.9917
r10_lid_dark
0 -41.0122 -41.0122 0.0000 0.7 0.8 0.0 -0.3204 -0.3204
0 -35.3082 -46.0145 0.0000 0.7 0.8 0.0 -0.2758 -0.3595
0 -35.3082 -46.0145 -2.0000 0.7 0.8 0.0 -0.2758 -0.3595
r10_lid_dark
0 -41.0122 -41.0122 0.0000 0.7 0.8 0.0 -0.3204 -0.3204
0 -35.3082 -46.0145 -2.0000 0.7 0.8 0.0 -0.2758 -0.3595
0 -41.0122 -41.0122 -2.0000 0.7 0.8 0.0 -0.3204 -0.3204
r10_lid_rust
0 -35.3082 -46.0145 0.0000 0.0 0.0 1.0 -0.2758 -0.3595
0 -97.4018 -126.9365 0.0000 0.0 0.0 1.0 -0.7610 -0.9917
0 -80.0000 -138.5641 0.0000 0.0 0.0 1.0 -0.6250 -1.0825
r10_lid_rust
0 -35.3082 -46.0145 0.0000 0.0 0.0 1.0 -0.2758 -0.3595
0 -80.0000 -138.5641 0.0000 0.0 0.0 1.0 -0.6250 -1.0825
0 -29.0000 -50.2295 0.0000 0.0 0.0 1.0 -0.2266 -0.3924
r10_lid_dark
0 -35.3082 -46.0145 -2.0000 0.0 0.0 -1.0 -0.2758 -0.3595
0 -80.0000 -138.5641 -2.0000 0.0 0.0 -1.0 -0.6250 -1.0825
0 -97.4018 -126.9365 -2.0000 0.0 0.0 -1.0 -0.7610 -0.9917
r10_lid_dark
0 -35.3082 -46.0145 -2.0000 0.0 0.0 -1.0 -0.2758 -0.3595
0 -29.0000 -50.2295 -2.0000 0.0 0.0 -1.0 -0.2266 -0.3924
0 -80.0000 -138.5641 -2.0000 0.0 0.0 -1.0 -0.6250 -1.0825
r10_lid_dark
0 -35.3082 -46.0145 0.0000 0.6 0.8 0.0 -0.2758 -0.3595
0 -29.0000 -50.2295 0.0000 0.6 0.8 0.0 -0.2266 -0.3924
0 -29.0000 -50.2295 -2.0000 0.6 0.8 0.0 -0.2266 -0.3924
r10_lid_dark
0 -35.3082 -46.0145 0.0000 0.6 0.8 0.0 -0.2758 -0.3595
0 -29.0000 -50.2295 -2.0000 0.6 0.8 0.0 -0.2266 -0.3924
0 -35.3082 -46.0145 -2.0000 0.6 0.8 0.0 -0.2758 -0.3595
r10_lid_rust
0 -29.0000 -50.2295 0.0000 0.0 0.0 1.0 -0.2266 -0.3924
0 -80.0000 -138.5641 0.0000 0.0 0.0 1.0 -0.6250 -1.0825
0 -61.2293 -147.8207 0.0000 0.0 0.0 1.0 -0.4784 -1.1548
r10_lid_rust
0 -29.0000 -50.2295 0.0000 0.0 0.0 1.0 -0.2266 -0.3924
0 -61.2293 -147.8207 0.0000 0.0 0.0 1.0 -0.4784 -1.1548
0 -22.1956 -53.5850 0.0000 0.0 0.0 1.0 -0.1734 -0.4186
r10_lid_dark
0 -29.0000 -50.2295 -2.0000 0.0 0.0 -1.0 -0.2266 -0.3924
0 -61.2293 -147.8207 -2.0000 0.0 0.0 -1.0 -0.4784 -1.1548
0 -80.0000 -138.5641 -2.0000 0.0 0.0 -1.0 -0.6250 -1.0825
r10_lid_dark
0 -29.0000 -50.2295 -2.0000 0.0 0.0 -1.0 -0.2266 -0.3924
0 -22.1956 -53.5850 -2.0000 0.0 0.0 -1.0 -0.1734 -0.4186
0 -61.2293 -147.8207 -2.0000 0.0 0.0 -1.0 -0.4784 -1.1548
r10_lid_dark
0 -29.0000 -50.2295 0.0000 0.4 0.9 0.0 -0.2266 -0.3924
0 -22.1956 -53.5850 0.0000 0.4 0.9 0.0 -0.1734 -0.4186
0 -22.1956 -53.5850 -2.0000 0.4 0.9 0.0 -0.1734 -0.4186
r10_lid_dark
0 -29.0000 -50.2295 0.0000 0.4 0.9 0.0 -0.2266 -0.3924
0 -22.1956 -53.5850 -2.0000 0.4 0.9 0.0 -0.1734 -0.4186
0 -29.0000 -50.2295 -2.0000 0.4 0.9 0.0 -0.2266 -0.3924
r10_lid_rust
0 -22.1956 -53.5850 0.0000 0.0 0.0 1.0 -0.1734 -0.4186
0 -61.2293 -147.8207 0.0000 0.0 0.0 1.0 -0.4784 -1.1548
0 -41.4110 -154.5481 0.0000 0.0 0.0 1.0 -0.3235 -1.2074
r10_lid_rust
0 -22.1956 -53.5850 0.0000 0.0 0.0 1.0 -0.1734 -0.4186
0 -41.4110 -154.5481 0.0000 0.0 0.0 1.0 -0.3235 -1.2074
0 -15.0115 -56.0237 0.0000 0.0 0.0 1.0 -0.1173 -0.4377
r10_lid_dark
0 -22.1956 -53.5850 -2.0000 0.0 0.0 -1.0 -0.1734 -0.4186
0 -41.4110 -154.5481 -2.0000 0.0 0.0 -1.0 -0.3235 -1.2074
0 -61.2293 -147.8207 -2.0000 0.0 0.0 -1.0 -0.4784 -1.1548
r10_lid_dark
0 -22.1956 -53.5850 -2.0000 0.0 0.0 -1.0 -0.1734 -0.4186
0 -15.0115 -56.0237 -2.0000 0.0 0.0 -1.0 -0.1173 -0.4377
0 -41.4110 -154.5481 -2.0000 0.0 0.0 -1.0 -0.3235 -1.2074
r10_lid_dark
0 -22.1956 -53.5850 0.0000 0.3 0.9 0.0 -0.1734 -0.4186
0 -15.0115 -56.0237 0.0000 0.3 0.9 0.0 -0.1173 -0.4377
0 -15.0115 -56.0237 -2.0000 0.3 0.9 0.0 -0.1173 -0.4377
r10_lid_dark
0 -22.1956 -53.5850 0.0000 0.3 0.9 0.0 -0.1734 -0.4186
0 -15.0115 -56.0237 -2.0000 0.3 0.9 0.0 -0.1173 -0.4377
0 -22.1956 -53.5850 -2.0000 0.3 0.9 0.0 -0.1734 -0.4186
r10_lid_rust
0 -15.0115 -56.0237 0.0000 0.0 0.0 1.0 -0.1173 -0.4377
0 -41.4110 -154.5481 0.0000 0.0 0.0 1.0 -0.3235 -1.2074
0 -20.8842 -158.6312 0.0000 0.0 0.0 1.0 -0.1632 -1.2393
r10_lid_rust
0 -15.0115 -56.0237 0.0000 0.0 0.0 1.0 -0.1173 -0.4377
0 -20.8842 -158.6312 0.0000 0.0 0.0 1.0 -0.1632 -1.2393
0 -7.5705 -57.5038 0.0000 0.0 0.0 1.0 -0.0591 -0.4492
r10_lid_dark
0 -15.0115 -56.0237 -2.0000 0.0 0.0 -1.0 -0.1173 -0.4377
0 -20.8842 -158.6312 -2.0000 0.0 0.0 -1.0 -0.1632 -1.2393
0 -41.4110 -154.5481 -2.0000 0.0 0.0 -1.0 -0.3235 -1.2074
r10_lid_dark
0 -15.0115 -56.0237 -2.0000 0.0 0.0 -1.0 -0.1173 -0.4377
0 -7.5705 -57.5038 -2.0000 0.0 0.0 -1.0 -0.0591 -0.4492
0 -20.8842 -158.6312 -2.0000 0.0 0.0 -1.0 -0.1632 -1.2393
r10_lid_dark
0 -15.0115 -56.0237 0.0000 0.2 1.0 0.0 -0.1173 -0.4377
0 -7.5705 -57.5038 0.0000 0.2 1.0 0.0 -0.0591 -0.4492
0 -7.5705 -57.5038 -2.0000 0.2 1.0 0.0 -0.0591 -0.4492
r10_lid_dark
0 -15.0115 -56.0237 0.0000 0.2 1.0 0.0 -0.1173 -0.4377
0 -7.5705 -57.5038 -2.0000 0.2 1.0 0.0 -0.0591 -0.4492
0 -15.0115 -56.0237 -2.0000 0.2 1.0 0.0 -0.1173 -0.4377
r10_lid_rust
0 -7.5705 -57.5038 0.0000 0.0 0.0 1.0 -0.0591 -0.4492
0 -20.8842 -158.6312 0.0000 0.0 0.0 1.0 -0.1632 -1.2393
0 -0.0000 -160.0000 0.0000 0.0 0.0 1.0 -0.0000 -1.2500
r10_lid_rust
0 -7.5705 -57.5038 0.0000 0.0 0.0 1.0 -0.0591 -0.4492
0 -0.0000 -160.0000 0.0000 0.0 0.0 1.0 -0.0000 -1.2500
0 -0.0000 -58.0000 0.0000 0.0 0.0 1.0 -0.0000 -0.4531
r10_lid_dark
0 -7.5705 -57.5038 -2.0000 0.0 0.0 -1.0 -0.0591 -0.4492
0 -0.0000 -160.0000 -2.0000 0.0 0.0 -1.0 -0.0000 -1.2500
0 -20.8842 -158.6312 -2.0000 0.0 0.0 -1.0 -0.1632 -1.2393
r10_lid_dark
0 -7.5705 -57.5038 -2.0000 0.0 0.0 -1.0 -0.0591 -0.4492
0 -0.0000 -58.0000 -2.0000 0.0 0.0 -1.0 -0.0000 -0.4531
0 -0.0000 -160.0000 -2.0000 0.0 0.0 -1.0 -0.0000 -1.2500
r10_lid_dark
0 -7.5705 -57.5038 0.0000 0.1 1.0 0.0 -0.0591 -0.4492
0 -0.0000 -58.0000 0.0000 0.1 1.0 0.0 -0.0000 -0.4531
0 -0.0000 -58.0000 -2.0000 0.1 1.0 0.0 -0.0000 -0.4531
r10_lid_dark
0 -7.5705 -57.5038 0.0000 0.1 1.0 0.0 -0.0591 -0.4492
0 -0.0000 -58.0000 -2.0000 0.1 1.0 0.0 -0.0000 -0.4531
0 -7.5705 -57.5038 -2.0000 0.1 1.0 0.0 -0.0591 -0.4492
r10_lid_rust
0 -0.0000 -58.0000 0.0000 0.0 0.0 1.0 -0.0000 -0.4531
0 -0.0000 -160.0000 0.0000 0.0 0.0 1.0 -0.0000 -1.2500
0 20.8842 -158.6312 0.0000 0.0 0.0 1.0 0.1632 -1.2393
r10_lid_rust
0 -0.0000 -58.0000 0.0000 0.0 0.0 1.0 -0.0000 -0.4531
0 20.8842 -158.6312 0.0000 0.0 0.0 1.0 0.1632 -1.2393
0 7.5705 -57.5038 0.0000 0.0 0.0 1.0 0.0591 -0.4492
r10_lid_dark
0 -0.0000 -58.0000 -2.0000 0.0 0.0 -1.0 -0.0000 -0.4531
0 20.8842 -158.6312 -2.0000 0.0 0.0 -1.0 0.1632 -1.2393
0 -0.0000 -160.0000 -2.0000 0.0 0.0 -1.0 -0.0000 -1.2500
r10_lid_dark
0 -0.0000 -58.0000 -2.0000 0.0 0.0 -1.0 -0.0000 -0.4531
0 7.5705 -57.5038 -2.0000 0.0 0.0 -1.0 0.0591 -0.4492
0 20.8842 -158.6312 -2.0000 0.0 0.0 -1.0 0.1632 -1.2393
r10_lid_dark
0 -0.0000 -58.0000 0.0000 -0.1 1.0 0.0 -0.0000 -0.4531
0 7.5705 -57.5038 0.0000 -0.1 1.0 0.0 0.0591 -0.4492
0 7.5705 -57.5038 -2.0000 -0.1 1.0 0.0 0.0591 -0.4492
r10_lid_dark
0 -0.0000 -58.0000 0.0000 -0.1 1.0 0.0 -0.0000 -0.4531
0 7.5705 -57.5038 -2.0000 -0.1 1.0 0.0 0.0591 -0.4492
0 -0.0000 -58.0000 -2.0000 -0.1 1.0 0.0 -0.0000 -0.4531
r10_lid_rust
0 7.5705 -57.5038 0.0000 0.0 0.0 1.0 0.0591 -0.4492
0 20.8842 -158.6312 0.0000 0.0 0.0 1.0 0.1632 -1.2393
0 41.4110 -154.5481 0.0000 0.0 0.0 1.0 0.3235 -1.2074
r10_lid_rust
0 7.5705 -57.5038 0.0000 0.0 0.0 1.0 0.0591 -0.4492
0 41.4110 -154.5481 0.0000 0.0 0.0 1.0 0.3235 -1.2074
0 15.0115 -56.0237 0.0000 0.0 0.0 1.0 0.1173 -0.4377
r10_lid_dark
0 7.5705 -57.5038 -2.0000 0.0 0.0 -1.0 0.0591 -0.4492
0 41.4110 -154.5481 -2.0000 0.0 0.0 -1.0 0.3235 -1.2074
0 20.8842 -158.6312 -2.0000 0.0 0.0 -1.0 0.1632 -1.2393
r10_lid_dark
0 7.5705 -57.5038 -2.0000 0.0 0.0 -1.0 0.0591 -0.4492
0 15.0115 -56.0237 -2.0000 0.0 0.0 -1.0 0.1173 -0.4377
0 41.4110 -154.5481 -2.0000 0.0 0.0 -1.0 0.3235 -1.2074
r10_lid_dark
0 7.5705 -57.5038 0.0000 -0.2 1.0 0.0 0.0591 -0.4492
0 15.0115 -56.0237 0.0000 -0.2 1.0 0.0 0.1173 -0.4377
0 15.0115 -56.0237 -2.0000 -0.2 1.0 0.0 0.1173 -0.4377
r10_lid_dark
0 7.5705 -57.5038 0.0000 -0.2 1.0 0.0 0.0591 -0.4492
0 15.0115 -56.0237 -2.0000 -0.2 1.0 0.0 0.1173 -0.4377
0 7.5705 -57.5038 -2.0000 -0.2 1.0 0.0 0.0591 -0.4492
r10_lid_rust
0 15.0115 -56.0237 0.0000 0.0 0.0 1.0 0.1173 -0.4377
0 41.4110 -154.5481 0.0000 0.0 0.0 1.0 0.3235 -1.2074
0 61.2293 -147.8207 0.0000 0.0 0.0 1.0 0.4784 -1.1548
r10_lid_rust
0 15.0115 -56.0237 0.0000 0.0 0.0 1.0 0.1173 -0.4377
0 61.2293 -147.8207 0.0000 0.0 0.0 1.0 0.4784 -1.1548
0 22.1956 -53.5850 0.0000 0.0 0.0 1.0 0.1734 -0.4186
r10_lid_dark
0 15.0115 -56.0237 -2.0000 0.0 0.0 -1.0 0.1173 -0.4377
0 61.2293 -147.8207 -2.0000 0.0 0.0 -1.0 0.4784 -1.1548
0 41.4110 -154.5481 -2.0000 0.0 0.0 -1.0 0.3235 -1.2074
r10_lid_dark
0 15.0115 -56.0237 -2.0000 0.0 0.0 -1.0 0.1173 -0.4377
0 22.1956 -53.5850 -2.0000 0.0 0.0 -1.0 0.1734 -0.4186
0 61.2293 -147.8207 -2.0000 0.0 0.0 -1.0 0.4784 -1.1548
r10_lid_dark
0 15.0115 -56.0237 0.0000 -0.3 0.9 0.0 0.1173 -0.4377
0 22.1956 -53.5850 0.0000 -0.3 0.9 0.0 0.1734 -0.4186
0 22.1956 -53.5850 -2.0000 -0.3 0.9 0.0 0.1734 -0.4186
r10_lid_dark
0 15.0115 -56.0237 0.0000 -0.3 0.9 0.0 0.1173 -0.4377
0 22.1956 -53.5850 -2.0000 -0.3 0.9 0.0 0.1734 -0.4186
0 15.0115 -56.0237 -2.0000 -0.3 0.9 0.0 0.1173 -0.4377
r10_lid_rust
0 22.1956 -53.5850 0.0000 0.0 0.0 1.0 0.1734 -0.4186
0 61.2293 -147.8207 0.0000 0.0 0.0 1.0 0.4784 -1.1548
0 80.0000 -138.5641 0.0000 0.0 0.0 1.0 0.6250 -1.0825
r10_lid_rust
0 22.1956 -53.5850 0.0000 0.0 0.0 1.0 0.1734 -0.4186
0 80.0000 -138.5641 0.0000 0.0 0.0 1.0 0.6250 -1.0825
0 29.0000 -50.2295 0.0000 0.0 0.0 1.0 0.2266 -0.3924
r10_lid_dark
0 22.1956 -53.5850 -2.0000 0.0 0.0 -1.0 0.1734 -0.4186
0 80.0000 -138.5641 -2.0000 0.0 0.0 -1.0 0.6250 -1.0825
0 61.2293 -147.8207 -2.0000 0.0 0.0 -1.0 0.4784 -1.1548
r10_lid_dark
0 22.1956 -53.5850 -2.0000 0.0 0.0 -1.0 0.1734 -0.4186
0 29.0000 -50.2295 -2.0000 0.0 0.0 -1.0 0.2266 -0.3924
0 80.0000 -138.5641 -2.0000 0.0 0.0 -1.0 0.6250 -1.0825
r10_lid_dark
0 22.1956 -53.5850 0.0000 -0.4 0.9 0.0 0.1734 -0.4186
0 29.0000 -50.2295 0.0000 -0.4 0.9 0.0 0.2266 -0.3924
0 29.0000 -50.2295 -2.0000 -0.4 0.9 0.0 0.2266 -0.3924
r10_lid_dark
0 22.1956 -53.5850 0.0000 -0.4 0.9 0.0 0.1734 -0.4186
0 29.0000 -50.2295 -2.0000 -0.4 0.9 0.0 0.2266 -0.3924
0 22.1956 -53.5850 -2.0000 -0.4 0.9 0.0 0.1734 -0.4186
r10_lid_rust
0 29.0000 -50.2295 0.0000 0.0 0.0 1.0 0.2266 -0.3924
0 80.0000 -138.5641 0.0000 0.0 0.0 1.0 0.6250 -1.0825
0 97.4018 -126.9365 0.0000 0.0 0.0 1.0 0.7610 -0.9917
r10_lid_rust
0 29.0000 -50.2295 0.0000 0.0 0.0 1.0 0.2266 -0.3924
0 97.4018 -126.9365 0.0000 0.0 0.0 1.0 0.7610 -0.9917
0 35.3082 -46.0145 0.0000 0.0 0.0 1.0 0.2758 -0.3595
r10_lid_dark
0 29.0000 -50.2295 -2.0000 0.0 0.0 -1.0 0.2266 -0.3924
0 97.4018 -126.9365 -2.0000 0.0 0.0 -1.0 0.7610 -0.9917
0 80.0000 -138.5641 -2.0000 0.0 0.0 -1.0 0.6250 -1.0825
r10_lid_dark
0 29.0000 -50.2295 -2.0000 0.0 0.0 -1.0 0.2266 -0.3924
0 35.3082 -46.0145 -2.0000 0.0 0.0 -1.0 0.2758 -0.3595
0 97.4018 -126.9365 -2.0000 0.0 0.0 -1.0 0.7610 -0.9917
r10_lid_dark
0 29.0000 -50.2295 0.0000 -0.6 0.8 0.0 0.2266 -0.3924
0 35.3082 -46.0145 0.0000 -0.6 0.8 0.0 0.2758 -0.3595
0 35.3082 -46.0145 -2.0000 -0.6 0.8 0.0 0.2758 -0.3595
r10_lid_dark
0 29.0000 -50.2295 0.0000 -0.6 0.8 0.0 0.2266 -0.3924
0 35.3082 -46.0145 -2.0000 -0.6 0.8 0.0 0.2758 -0.3595
0 29.0000 -50.2295 -2.0000 -0.6 0.8 0.0 0.2266 -0.3924
r10_lid_rust
0 35.3082 -46.0145 0.0000 0.0 0.0 1.0 0.2758 -0.3595
0 97.4018 -126.9365 0.0000 0.0 0.0 1.0 0.7610 -0.9917
0 113.1371 -113.1371 0.0000 0.0 0.0 1.0 0.8839 -0.8839
r10_lid_rust
0 35.3082 -46.0145 0.0000 0.0 0.0 1.0 0.2758 -0.3595
0 113.1371 -113.1371 0.0000 0.0 0.0 1.0 0.8839 -0.8839
0 41.0122 -41.0122 0.0000 0.0 0.0 1.0 0.3204 -0.3204
r10_lid_dark
0 35.3082 -46.0145 -2.0000 0.0 0.0 -1.0 0.2758 -0.3595
0 113.1371 -113.1371 -2.0000 0.0 0.0 -1.0 0.8839 -0.8839
0 97.4018 -126.9365 -2.0000 0.0 0.0 -1.0 0.7610 -0.9917
r10_lid_dark
0 35.3082 -46.0145 -2.0000 0.0 0.0 -1.0 0.2758 -0.3595
0 41.0122 -41.0122 -2.0000 0.0 0.0 -1.0 0.3204 -0.3204
0 113.1371 -113.1371 -2.0000 0.0 0.0 -1.0 0.8839 -0.8839
r10_lid_dark
0 35.3082 -46.0145 0.0000 -0.7 0.8 0.0 0.2758 -0.3595
0 41.0122 -41.0122 0.0000 -0.7 0.8 0.0 0.3204 -0.3204
0 41.0122 -41.0122 -2.0000 -0.7 0.8 0.0 0.3204 -0.3204
r10_lid_dark
0 35.3082 -46.0145 0.0000 -0.7 0.8 0.0 0.2758 -0.3595
0 41.0122 -41.0122 -2.0000 -0.7 0.8 0.0 0.3204 -0.3204
0 35.3082 -46.0145 -2.0000 -0.7 0.8 0.0 0.2758 -0.3595
r10_lid_rust
0 41.0122 -41.0122 0.0000 0.0 0.0 1.0 0.3204 -0.3204
0 113.1371 -113.1371 0.0000 0.0 0.0 1.0 0.8839 -0.8839
0 126.9365 -97.4018 0.0000 0.0 0.0 1.0 0.9917 -0.7610
r10_lid_rust
0 41.0122 -41.0122 0.0000 0.0 0.0 1.0 0.3204 -0.3204
0 126.9365 -97.4018 0.0000 0.0 0.0 1.0 0.9917 -0.7610
0 46.0145 -35.3082 0.0000 0.0 0.0 1.0 0.3595 -0.2758
r10_lid_dark
0 41.0122 -41.0122 -2.0000 0.0 0.0 -1.0 0.3204 -0.3204
0 126.9365 -97.4018 -2.0000 0.0 0.0 -1.0 0.9917 -0.7610
0 113.1371 -113.1371 -2.0000 0.0 0.0 -1.0 0.8839 -0.8839
r10_lid_dark
0 41.0122 -41.0122 -2.0000 0.0 0.0 -1.0 0.3204 -0.3204
0 46.0145 -35.3082 -2.0000 0.0 0.0 -1.0 0.3595 -0.2758
0 126.9365 -97.4018 -2.0000 0.0 0.0 -1.0 0.9917 -0.7610
r10_lid_dark
0 41.0122 -41.0122 0.0000 -0.8 0.7 0.0 0.3204 -0.3204
0 46.0145 -35.3082 0.0000 -0.8 0.7 0.0 0.3595 -0.2758
0 46.0145 -35.3082 -2.0000 -0.8 0.7 0.0 0.3595 -0.2758
r10_lid_dark
0 41.0122 -41.0122 0.0000 -0.8 0.7 0.0 0.3204 -0.3204
0 46.0145 -35.3082 -2.0000 -0.8 0.7 0.0 0.3595 -0.2758
0 41.0122 -41.0122 -2.0000 -0.8 0.7 0.0 0.3204 -0.3204
r10_lid_rust
0 46.0145 -35.3082 0.0000 0.0 0.0 1.0 0.3595 -0.2758
0 126.9365 -97.4018 0.0000 0.0 0.0 1.0 0.9917 -0.7610
0 138.5641 -80.0000 0.0000 0.0 0.0 1.0 1.0825 -0.6250
r10_lid_rust
0 46.0145 -35.3082 0.0000 0.0 0.0 1.0 0.3595 -0.2758
0 138.5641 -80.0000 0.0000 0.0 0.0 1.0 1.0825 -0.6250
0 50.2295 -29.0000 0.0000 0.0 0.0 1.0 0.3924 -0.2266
r10_lid_dark
0 46.0145 -35.3082 -2.0000 0.0 0.0 -1.0 0.3595 -0.2758
0 138.5641 -80.0000 -2.0000 0.0 0.0 -1.0 1.0825 -0.6250
0 126.9365 -97.4018 -2.0000 0.0 0.0 -1.0 0.9917 -0.7610
r10_lid_dark
0 46.0145 -35.3082 -2.0000 0.0 0.0 -1.0 0.3595 -0.2758
0 50.2295 -29.0000 -2.0000 0.0 0.0 -1.0 0.3924 -0.2266
0 138.5641 -80.0000 -2.0000 0.0 0.0 -1.0 1.0825 -0.6250
r10_lid_dark
0 46.0145 -35.3082 0.0000 -0.8 0.6 0.0 0.3595 -0.2758
0 50.2295 -29.0000 0.0000 -0.8 0.6 0.0 0.3924 -0.2266
0 50.2295 -29.0000 -2.0000 -0.8 0.6 0.0 0.3924 -0.2266
r10_lid_dark
0 46.0145 -35.3082 0.0000 -0.8 0.6 0.0 0.3595 -0.2758
0 50.2295 -29.0000 -2.0000 -0.8 0.6 0.0 0.3924 -0.2266
0 46.0145 -35.3082 -2.0000 -0.8 0.6 0.0 0.3595 -0.2758
r10_lid_rust
0 50.2295 -29.0000 0.0000 0.0 0.0 1.0 0.3924 -0.2266
0 138.5641 -80.0000 0.0000 0.0 0.0 1.0 1.0825 -0.6250
0 147.8207 -61.2293 0.0000 0.0 0.0 1.0 1.1548 -0.4784
r10_lid_rust
0 50.2295 -29.0000 0.0000 0.0 0.0 1.0 0.3924 -0.2266
0 147.8207 -61.2293 0.0000 0.0 0.0 1.0 1.1548 -0.4784
0 53.5850 -22.1956 0.0000 0.0 0.0 1.0 0.4186 -0.1734
r10_lid_dark
0 50.2295 -29.0000 -2.0000 0.0 0.0 -1.0 0.3924 -0.2266
0 147.8207 -61.2293 -2.0000 0.0 0.0 -1.0 1.1548 -0.4784
0 138.5641 -80.0000 -2.0000 0.0 0.0 -1.0 1.0825 -0.6250
r10_lid_dark
0 50.2295 -29.0000 -2.0000 0.0 0.0 -1.0 0.3924 -0.2266
0 53.5850 -22.1956 -2.0000 0.0 0.0 -1.0 0.4186 -0.1734
0 147.8207 -61.2293 -2.0000 0.0 0.0 -1.0 1.1548 -0.4784
r10_lid_dark
0 50.2295 -29.0000 0.0000 -0.9 0.4 0.0 0.3924 -0.2266
0 53.5850 -22.1956 0.0000 -0.9 0.4 0.0 0.4186 -0.1734
0 53.5850 -22.1956 -2.0000 -0.9 0.4 0.0 0.4186 -0.1734
r10_lid_dark
0 50.2295 -29.0000 0.0000 -0.9 0.4 0.0 0.3924 -0.2266
0 53.5850 -22.1956 -2.0000 -0.9 0.4 0.0 0.4186 -0.1734
0 50.2295 -29.0000 -2.0000 -0.9 0.4 0.0 0.3924 -0.2266
r10_lid_rust
0 53.5850 -22.1956 0.0000 0.0 0.0 1.0 0.4186 -0.1734
0 147.8207 -61.2293 0.0000 0.0 0.0 1.0 1.1548 -0.4784
0 154.5481 -41.4110 0.0000 0.0 0.0 1.0 1.2074 -0.3235
r10_lid_rust
0 53.5850 -22.1956 0.0000 0.0 0.0 1.0 0.4186 -0.1734
0 154.5481 -41.4110 0.0000 0.0 0.0 1.0 1.2074 -0.3235
0 56.0237 -15.0115 0.0000 0.0 0.0 1.0 0.4377 -0.1173
r10_lid_dark
0 53.5850 -22.1956 -2.0000 0.0 0.0 -1.0 0.4186 -0.1734
0 154.5481 -41.4110 -2.0000 0.0 0.0 -1.0 1.2074 -0.3235
0 147.8207 -61.2293 -2.0000 0.0 0.0 -1.0 1.1548 -0.4784
r10_lid_dark
0 53.5850 -22.1956 -2.0000 0.0 0.0 -1.0 0.4186 -0.1734
0 56.0237 -15.0115 -2.0000 0.0 0.0 -1.0 0.4377 -0.1173
0 154.5481 -41.4110 -2.0000 0.0 0.0 -1.0 1.2074 -0.3235
r10_lid_dark
0 53.5850 -22.1956 0.0000 -0.9 0.3 0.0 0.4186 -0.1734
0 56.0237 -15.0115 0.0000 -0.9 0.3 0.0 0.4377 -0.1173
0 56.0237 -15.0115 -2.0000 -0.9 0.3 0.0 0.4377 -0.1173
r10_lid_dark
0 53.5850 -22.1956 0.0000 -0.9 0.3 0.0 0.4186 -0.1734
0 56.0237 -15.0115 -2.0000 -0.9 0.3 0.0 0.4377 -0.1173
0 53.5850 -22.1956 -2.0000 -0.9 0.3 0.0 0.4186 -0.1734
r10_lid_rust
0 56.0237 -15.0115 0.0000 0.0 0.0 1.0 0.4377 -0.1173
0 154.5481 -41.4110 0.0000 0.0 0.0 1.0 1.2074 -0.3235
0 158.6312 -20.8842 0.0000 0.0 0.0 1.0 1.2393 -0.1632
r10_lid_rust
0 56.0237 -15.0115 0.0000 0.0 0.0 1.0 0.4377 -0.1173
0 158.6312 -20.8842 0.0000 0.0 0.0 1.0 1.2393 -0.1632
0 57.5038 -7.5705 0.0000 0.0 0.0 1.0 0.4492 -0.0591
r10_lid_dark
0 56.0237 -15.0115 -2.0000 0.0 0.0 -1.0 0.4377 -0.1173
0 158.6312 -20.8842 -2.0000 0.0 0.0 -1.0 1.2393 -0.1632
0 154.5481 -41.4110 -2.0000 0.0 0.0 -1.0 1.2074 -0.3235
r10_lid_dark
0 56.0237 -15.0115 -2.0000 0.0 0.0 -1.0 0.4377 -0.1173
0 57.5038 -7.5705 -2.0000 0.0 0.0 -1.0 0.4492 -0.0591
0 158.6312 -20.8842 -2.0000 0.0 0.0 -1.0 1.2393 -0.1632
r10_lid_dark
0 56.0237 -15.0115 0.0000 -1.0 0.2 0.0 0.4377 -0.1173
0 57.5038 -7.5705 0.0000 -1.0 0.2 0.0 0.4492 -0.0591
0 57.5038 -7.5705 -2.0000 -1.0 0.2 0.0 0.4492 -0.0591
r10_lid_dark
0 56.0237 -15.0115 0.0000 -1.0 0.2 0.0 0.4377 -0.1173
0 57.5038 -7.5705 -2.0000 -1.0 0.2 0.0 0.4492 -0.0591
0 56.0237 -15.0115 -2.0000 -1.0 0.2 0.0 0.4377 -0.1173
r10_lid_rust
0 57.5038 -7.5705 0.0000 0.0 0.0 1.0 0.4492 -0.0591
0 158.6312 -20.8842 0.0000 0.0 0.0 1.0 1.2393 -0.1632
0 160.0000 -0.0000 0.0000 0.0 0.0 1.0 1.2500 -0.0000
r10_lid_rust
0 57.5038 -7.5705 0.0000 0.0 0.0 1.0 0.4492 -0.0591
0 160.0000 -0.0000 0.0000 0.0 0.0 1.0 1.2500 -0.0000
0 58.0000 -0.0000 0.0000 0.0 0.0 1.0 0.4531 -0.0000
r10_lid_dark
0 57.5038 -7.5705 -2.0000 0.0 0.0 -1.0 0.4492 -0.0591
0 160.0000 -0.0000 -2.0000 0.0 0.0 -1.0 1.2500 -0.0000
0 158.6312 -20.8842 -2.0000 0.0 0.0 -1.0 1.2393 -0.1632
r10_lid_dark
0 57.5038 -7.5705 -2.0000 0.0 0.0 -1.0 0.4492 -0.0591
0 58.0000 -0.0000 -2.0000 0.0 0.0 -1.0 0.4531 -0.0000
0 160.0000 -0.0000 -2.0000 0.0 0.0 -1.0 1.2500 -0.0000
r10_lid_dark
0 57.5038 -7.5705 0.0000 -1.0 0.1 0.0 0.4492 -0.0591
0 58.0000 -0.0000 0.0000 -1.0 0.1 0.0 0.4531 -0.0000
0 58.0000 -0.0000 -2.0000 -1.0 0.1 0.0 0.4531 -0.0000
r10_lid_dark
0 57.5038 -7.5705 0.0000 -1.0 0.1 0.0 0.4492 -0.0591
0 58.0000 -0.0000 -2.0000 -1.0 0.1 0.0 0.4531 -0.0000
0 57.5038 -7.5705 -2.0000 -1.0 0.1 0.0 0.4492 -0.0591
end
