version 1
nodes
0 "root" -1
end
skeleton
time 0
0 0 0 0 0 0 0
end
triangles
r10_ball
0 0.0000 0.0000 18.0000 0.0000 0.0000 1.0000 0.0625 0.0000
0 4.6587 0.0000 17.3867 0.2588 0.0000 0.9659 0.0000 0.0833
0 4.3041 1.7828 17.3867 0.2391 0.0990 0.9659 0.0625 0.0833
r10_ball
0 0.0000 0.0000 18.0000 0.0000 0.0000 1.0000 0.1250 0.0000
0 4.3041 1.7828 17.3867 0.2391 0.0990 0.9659 0.0625 0.0833
0 3.2942 3.2942 17.3867 0.1830 0.1830 0.9659 0.1250 0.0833
r10_ball
0 0.0000 0.0000 18.0000 0.0000 0.0000 1.0000 0.1875 0.0000
0 3.2942 3.2942 17.3867 0.1830 0.1830 0.9659 0.1250 0.0833
0 1.7828 4.3041 17.3867 0.0990 0.2391 0.9659 0.1875 0.0833
r10_ball
0 0.0000 0.0000 18.0000 0.0000 0.0000 1.0000 0.2500 0.0000
0 1.7828 4.3041 17.3867 0.0990 0.2391 0.9659 0.1875 0.0833
0 0.0000 4.6587 17.3867 0.0000 0.2588 0.9659 0.2500 0.0833
r10_ball
0 -0.0000 0.0000 18.0000 -0.0000 0.0000 1.0000 0.3125 0.0000
0 0.0000 4.6587 17.3867 0.0000 0.2588 0.9659 0.2500 0.0833
0 -1.7828 4.3041 17.3867 -0.0990 0.2391 0.9659 0.3125 0.0833
r10_ball
0 -0.0000 0.0000 18.0000 -0.0000 0.0000 1.0000 0.3750 0.0000
0 -1.7828 4.3041 17.3867 -0.0990 0.2391 0.9659 0.3125 0.0833
0 -3.2942 3.2942 17.3867 -0.1830 0.1830 0.9659 0.3750 0.0833
r10_ball
0 -0.0000 0.0000 18.0000 -0.0000 0.0000 1.0000 0.4375 0.0000
0 -3.2942 3.2942 17.3867 -0.1830 0.1830 0.9659 0.3750 0.0833
0 -4.3041 1.7828 17.3867 -0.2391 0.0990 0.9659 0.4375 0.0833
r10_ball
0 -0.0000 0.0000 18.0000 -0.0000 0.0000 1.0000 0.5000 0.0000
0 -4.3041 1.7828 17.3867 -0.2391 0.0990 0.9659 0.4375 0.0833
0 -4.6587 0.0000 17.3867 -0.2588 0.0000 0.9659 0.5000 0.0833
r10_ball
0 -0.0000 -0.0000 18.0000 -0.0000 -0.0000 1.0000 0.5625 0.0000
0 -4.6587 0.0000 17.3867 -0.2588 0.0000 0.9659 0.5000 0.0833
0 -4.3041 -1.7828 17.3867 -0.2391 -0.0990 0.9659 0.5625 0.0833
r10_ball
0 -0.0000 -0.0000 18.0000 -0.0000 -0.0000 1.0000 0.6250 0.0000
0 -4.3041 -1.7828 17.3867 -0.2391 -0.0990 0.9659 0.5625 0.0833
0 -3.2942 -3.2942 17.3867 -0.1830 -0.1830 0.9659 0.6250 0.0833
r10_ball
0 -0.0000 -0.0000 18.0000 -0.0000 -0.0000 1.0000 0.6875 0.0000
0 -3.2942 -3.2942 17.3867 -0.1830 -0.1830 0.9659 0.6250 0.0833
0 -1.7828 -4.3041 17.3867 -0.0990 -0.2391 0.9659 0.6875 0.0833
r10_ball
0 -0.0000 -0.0000 18.0000 -0.0000 -0.0000 1.0000 0.7500 0.0000
0 -1.7828 -4.3041 17.3867 -0.0990 -0.2391 0.9659 0.6875 0.0833
0 -0.0000 -4.6587 17.3867 -0.0000 -0.2588 0.9659 0.7500 0.0833
r10_ball
0 0.0000 -0.0000 18.0000 0.0000 -0.0000 1.0000 0.8125 0.0000
0 -0.0000 -4.6587 17.3867 -0.0000 -0.2588 0.9659 0.7500 0.0833
0 1.7828 -4.3041 17.3867 0.0990 -0.2391 0.9659 0.8125 0.0833
r10_ball
0 0.0000 -0.0000 18.0000 0.0000 -0.0000 1.0000 0.8750 0.0000
0 1.7828 -4.3041 17.3867 0.0990 -0.2391 0.9659 0.8125 0.0833
0 3.2942 -3.2942 17.3867 0.1830 -0.1830 0.9659 0.8750 0.0833
r10_ball
0 0.0000 -0.0000 18.0000 0.0000 -0.0000 1.0000 0.9375 0.0000
0 3.2942 -3.2942 17.3867 0.1830 -0.1830 0.9659 0.8750 0.0833
0 4.3041 -1.7828 17.3867 0.2391 -0.0990 0.9659 0.9375 0.0833
r10_ball
0 0.0000 -0.0000 18.0000 0.0000 -0.0000 1.0000 1.0000 0.0000
0 4.3041 -1.7828 17.3867 0.2391 -0.0990 0.9659 0.9375 0.0833
0 4.6587 -0.0000 17.3867 0.2588 -0.0000 0.9659 1.0000 0.0833
r10_ball
0 4.6587 0.0000 17.3867 0.2588 0.0000 0.9659 0.0000 0.0833
0 9.0000 0.0000 15.5885 0.5000 0.0000 0.8660 0.0000 0.1667
0 4.3041 1.7828 17.3867 0.2391 0.0990 0.9659 0.0625 0.0833
r10_ball
0 4.3041 1.7828 17.3867 0.2391 0.0990 0.9659 0.0625 0.0833
0 9.0000 0.0000 15.5885 0.5000 0.0000 0.8660 0.0000 0.1667
0 8.3149 3.4442 15.5885 0.4619 0.1913 0.8660 0.0625 0.1667
r10_ball
0 4.3041 1.7828 17.3867 0.2391 0.0990 0.9659 0.0625 0.0833
0 8.3149 3.4442 15.5885 0.4619 0.1913 0.8660 0.0625 0.1667
0 3.2942 3.2942 17.3867 0.1830 0.1830 0.9659 0.1250 0.0833
r10_ball
0 3.2942 3.2942 17.3867 0.1830 0.1830 0.9659 0.1250 0.0833
0 8.3149 3.4442 15.5885 0.4619 0.1913 0.8660 0.0625 0.1667
0 6.3640 6.3640 15.5885 0.3536 0.3536 0.8660 0.1250 0.1667
r10_ball
0 3.2942 3.2942 17.3867 0.1830 0.1830 0.9659 0.1250 0.0833
0 6.3640 6.3640 15.5885 0.3536 0.3536 0.8660 0.1250 0.1667
0 1.7828 4.3041 17.3867 0.0990 0.2391 0.9659 0.1875 0.0833
r10_ball
0 1.7828 4.3041 17.3867 0.0990 0.2391 0.9659 0.1875 0.0833
0 6.3640 6.3640 15.5885 0.3536 0.3536 0.8660 0.1250 0.1667
0 3.4442 8.3149 15.5885 0.1913 0.4619 0.8660 0.1875 0.1667
r10_ball
0 1.7828 4.3041 17.3867 0.0990 0.2391 0.9659 0.1875 0.0833
0 3.4442 8.3149 15.5885 0.1913 0.4619 0.8660 0.1875 0.1667
0 0.0000 4.6587 17.3867 0.0000 0.2588 0.9659 0.2500 0.0833
r10_ball
0 0.0000 4.6587 17.3867 0.0000 0.2588 0.9659 0.2500 0.0833
0 3.4442 8.3149 15.5885 0.1913 0.4619 0.8660 0.1875 0.1667
0 0.0000 9.0000 15.5885 0.0000 0.5000 0.8660 0.2500 0.1667
r10_ball
0 0.0000 4.6587 17.3867 0.0000 0.2588 0.9659 0.2500 0.0833
0 0.0000 9.0000 15.5885 0.0000 0.5000 0.8660 0.2500 0.1667
0 -1.7828 4.3041 17.3867 -0.0990 0.2391 0.9659 0.3125 0.0833
r10_ball
0 -1.7828 4.3041 17.3867 -0.0990 0.2391 0.9659 0.3125 0.0833
0 0.0000 9.0000 15.5885 0.0000 0.5000 0.8660 0.2500 0.1667
0 -3.4442 8.3149 15.5885 -0.1913 0.4619 0.8660 0.3125 0.1667
r10_ball
0 -1.7828 4.3041 17.3867 -0.0990 0.2391 0.9659 0.3125 0.0833
0 -3.4442 8.3149 15.5885 -0.1913 0.4619 0.8660 0.3125 0.1667
0 -3.2942 3.2942 17.3867 -0.1830 0.1830 0.9659 0.3750 0.0833
r10_ball
0 -3.2942 3.2942 17.3867 -0.1830 0.1830 0.9659 0.3750 0.0833
0 -3.4442 8.3149 15.5885 -0.1913 0.4619 0.8660 0.3125 0.1667
0 -6.3640 6.3640 15.5885 -0.3536 0.3536 0.8660 0.3750 0.1667
r10_ball
0 -3.2942 3.2942 17.3867 -0.1830 0.1830 0.9659 0.3750 0.0833
0 -6.3640 6.3640 15.5885 -0.3536 0.3536 0.8660 0.3750 0.1667
0 -4.3041 1.7828 17.3867 -0.2391 0.0990 0.9659 0.4375 0.0833
r10_ball
0 -4.3041 1.7828 17.3867 -0.2391 0.0990 0.9659 0.4375 0.0833
0 -6.3640 6.3640 15.5885 -0.3536 0.3536 0.8660 0.3750 0.1667
0 -8.3149 3.4442 15.5885 -0.4619 0.1913 0.8660 0.4375 0.1667
r10_ball
0 -4.3041 1.7828 17.3867 -0.2391 0.0990 0.9659 0.4375 0.0833
0 -8.3149 3.4442 15.5885 -0.4619 0.1913 0.8660 0.4375 0.1667
0 -4.6587 0.0000 17.3867 -0.2588 0.0000 0.9659 0.5000 0.0833
r10_ball
0 -4.6587 0.0000 17.3867 -0.2588 0.0000 0.9659 0.5000 0.0833
0 -8.3149 3.4442 15.5885 -0.4619 0.1913 0.8660 0.4375 0.1667
0 -9.0000 0.0000 15.5885 -0.5000 0.0000 0.8660 0.5000 0.1667
r10_ball
0 -4.6587 0.0000 17.3867 -0.2588 0.0000 0.9659 0.5000 0.0833
0 -9.0000 0.0000 15.5885 -0.5000 0.0000 0.8660 0.5000 0.1667
0 -4.3041 -1.7828 17.3867 -0.2391 -0.0990 0.9659 0.5625 0.0833
r10_ball
0 -4.3041 -1.7828 17.3867 -0.2391 -0.0990 0.9659 0.5625 0.0833
0 -9.0000 0.0000 15.5885 -0.5000 0.0000 0.8660 0.5000 0.1667
0 -8.3149 -3.4442 15.5885 -0.4619 -0.1913 0.8660 0.5625 0.1667
r10_ball
0 -4.3041 -1.7828 17.3867 -0.2391 -0.0990 0.9659 0.5625 0.0833
0 -8.3149 -3.4442 15.5885 -0.4619 -0.1913 0.8660 0.5625 0.1667
0 -3.2942 -3.2942 17.3867 -0.1830 -0.1830 0.9659 0.6250 0.0833
r10_ball
0 -3.2942 -3.2942 17.3867 -0.1830 -0.1830 0.9659 0.6250 0.0833
0 -8.3149 -3.4442 15.5885 -0.4619 -0.1913 0.8660 0.5625 0.1667
0 -6.3640 -6.3640 15.5885 -0.3536 -0.3536 0.8660 0.6250 0.1667
r10_ball
0 -3.2942 -3.2942 17.3867 -0.1830 -0.1830 0.9659 0.6250 0.0833
0 -6.3640 -6.3640 15.5885 -0.3536 -0.3536 0.8660 0.6250 0.1667
0 -1.7828 -4.3041 17.3867 -0.0990 -0.2391 0.9659 0.6875 0.0833
r10_ball
0 -1.7828 -4.3041 17.3867 -0.0990 -0.2391 0.9659 0.6875 0.0833
0 -6.3640 -6.3640 15.5885 -0.3536 -0.3536 0.8660 0.6250 0.1667
0 -3.4442 -8.3149 15.5885 -0.1913 -0.4619 0.8660 0.6875 0.1667
r10_ball
0 -1.7828 -4.3041 17.3867 -0.0990 -0.2391 0.9659 0.6875 0.0833
0 -3.4442 -8.3149 15.5885 -0.1913 -0.4619 0.8660 0.6875 0.1667
0 -0.0000 -4.6587 17.3867 -0.0000 -0.2588 0.9659 0.7500 0.0833
r10_ball
0 -0.0000 -4.6587 17.3867 -0.0000 -0.2588 0.9659 0.7500 0.0833
0 -3.4442 -8.3149 15.5885 -0.1913 -0.4619 0.8660 0.6875 0.1667
0 -0.0000 -9.0000 15.5885 -0.0000 -0.5000 0.8660 0.7500 0.1667
r10_ball
0 -0.0000 -4.6587 17.3867 -0.0000 -0.2588 0.9659 0.7500 0.0833
0 -0.0000 -9.0000 15.5885 -0.0000 -0.5000 0.8660 0.7500 0.1667
0 1.7828 -4.3041 17.3867 0.0990 -0.2391 0.9659 0.8125 0.0833
r10_ball
0 1.7828 -4.3041 17.3867 0.0990 -0.2391 0.9659 0.8125 0.0833
0 -0.0000 -9.0000 15.5885 -0.0000 -0.5000 0.8660 0.7500 0.1667
0 3.4442 -8.3149 15.5885 0.1913 -0.4619 0.8660 0.8125 0.1667
r10_ball
0 1.7828 -4.3041 17.3867 0.0990 -0.2391 0.9659 0.8125 0.0833
0 3.4442 -8.3149 15.5885 0.1913 -0.4619 0.8660 0.8125 0.1667
0 3.2942 -3.2942 17.3867 0.1830 -0.1830 0.9659 0.8750 0.0833
r10_ball
0 3.2942 -3.2942 17.3867 0.1830 -0.1830 0.9659 0.8750 0.0833
0 3.4442 -8.3149 15.5885 0.1913 -0.4619 0.8660 0.8125 0.1667
0 6.3640 -6.3640 15.5885 0.3536 -0.3536 0.8660 0.8750 0.1667
r10_ball
0 3.2942 -3.2942 17.3867 0.1830 -0.1830 0.9659 0.8750 0.0833
0 6.3640 -6.3640 15.5885 0.3536 -0.3536 0.8660 0.8750 0.1667
0 4.3041 -1.7828 17.3867 0.2391 -0.0990 0.9659 0.9375 0.0833
r10_ball
0 4.3041 -1.7828 17.3867 0.2391 -0.0990 0.9659 0.9375 0.0833
0 6.3640 -6.3640 15.5885 0.3536 -0.3536 0.8660 0.8750 0.1667
0 8.3149 -3.4442 15.5885 0.4619 -0.1913 0.8660 0.9375 0.1667
r10_ball
0 4.3041 -1.7828 17.3867 0.2391 -0.0990 0.9659 0.9375 0.0833
0 8.3149 -3.4442 15.5885 0.4619 -0.1913 0.8660 0.9375 0.1667
0 4.6587 -0.0000 17.3867 0.2588 -0.0000 0.9659 1.0000 0.0833
r10_ball
0 4.6587 -0.0000 17.3867 0.2588 -0.0000 0.9659 1.0000 0.0833
0 8.3149 -3.4442 15.5885 0.4619 -0.1913 0.8660 0.9375 0.1667
0 9.0000 -0.0000 15.5885 0.5000 -0.0000 0.8660 1.0000 0.1667
r10_ball
0 9.0000 0.0000 15.5885 0.5000 0.0000 0.8660 0.0000 0.1667
0 12.7279 0.0000 12.7279 0.7071 0.0000 0.7071 0.0000 0.2500
0 8.3149 3.4442 15.5885 0.4619 0.1913 0.8660 0.0625 0.1667
r10_ball
0 8.3149 3.4442 15.5885 0.4619 0.1913 0.8660 0.0625 0.1667
0 12.7279 0.0000 12.7279 0.7071 0.0000 0.7071 0.0000 0.2500
0 11.7591 4.8708 12.7279 0.6533 0.2706 0.7071 0.0625 0.2500
r10_ball
0 8.3149 3.4442 15.5885 0.4619 0.1913 0.8660 0.0625 0.1667
0 11.7591 4.8708 12.7279 0.6533 0.2706 0.7071 0.0625 0.2500
0 6.3640 6.3640 15.5885 0.3536 0.3536 0.8660 0.1250 0.1667
r10_ball
0 6.3640 6.3640 15.5885 0.3536 0.3536 0.8660 0.1250 0.1667
0 11.7591 4.8708 12.7279 0.6533 0.2706 0.7071 0.0625 0.2500
0 9.0000 9.0000 12.7279 0.5000 0.5000 0.7071 0.1250 0.2500
r10_ball
0 6.3640 6.3640 15.5885 0.3536 0.3536 0.8660 0.1250 0.1667
0 9.0000 9.0000 12.7279 0.5000 0.5000 0.7071 0.1250 0.2500
0 3.4442 8.3149 15.5885 0.1913 0.4619 0.8660 0.1875 0.1667
r10_ball
0 3.4442 8.3149 15.5885 0.1913 0.4619 0.8660 0.1875 0.1667
0 9.0000 9.0000 12.7279 0.5000 0.5000 0.7071 0.1250 0.2500
0 4.8708 11.7591 12.7279 0.2706 0.6533 0.7071 0.1875 0.2500
r10_ball
0 3.4442 8.3149 15.5885 0.1913 0.4619 0.8660 0.1875 0.1667
0 4.8708 11.7591 12.7279 0.2706 0.6533 0.7071 0.1875 0.2500
0 0.0000 9.0000 15.5885 0.0000 0.5000 0.8660 0.2500 0.1667
r10_ball
0 0.0000 9.0000 15.5885 0.0000 0.5000 0.8660 0.2500 0.1667
0 4.8708 11.7591 12.7279 0.2706 0.6533 0.7071 0.1875 0.2500
0 0.0000 12.7279 12.7279 0.0000 0.7071 0.7071 0.2500 0.2500
r10_ball
0 0.0000 9.0000 15.5885 0.0000 0.5000 0.8660 0.2500 0.1667
0 0.0000 12.7279 12.7279 0.0000 0.7071 0.7071 0.2500 0.2500
0 -3.4442 8.3149 15.5885 -0.1913 0.4619 0.8660 0.3125 0.1667
r10_ball
0 -3.4442 8.3149 15.5885 -0.1913 0.4619 0.8660 0.3125 0.1667
0 0.0000 12.7279 12.7279 0.0000 0.7071 0.7071 0.2500 0.2500
0 -4.8708 11.7591 12.7279 -0.2706 0.6533 0.7071 0.3125 0.2500
r10_ball
0 -3.4442 8.3149 15.5885 -0.1913 0.4619 0.8660 0.3125 0.1667
0 -4.8708 11.7591 12.7279 -0.2706 0.6533 0.7071 0.3125 0.2500
0 -6.3640 6.3640 15.5885 -0.3536 0.3536 0.8660 0.3750 0.1667
r10_ball
0 -6.3640 6.3640 15.5885 -0.3536 0.3536 0.8660 0.3750 0.1667
0 -4.8708 11.7591 12.7279 -0.2706 0.6533 0.7071 0.3125 0.2500
0 -9.0000 9.0000 12.7279 -0.5000 0.5000 0.7071 0.3750 0.2500
r10_ball
0 -6.3640 6.3640 15.5885 -0.3536 0.3536 0.8660 0.3750 0.1667
0 -9.0000 9.0000 12.7279 -0.5000 0.5000 0.7071 0.3750 0.2500
0 -8.3149 3.4442 15.5885 -0.4619 0.1913 0.8660 0.4375 0.1667
r10_ball
0 -8.3149 3.4442 15.5885 -0.4619 0.1913 0.8660 0.4375 0.1667
0 -9.0000 9.0000 12.7279 -0.5000 0.5000 0.7071 0.3750 0.2500
0 -11.7591 4.8708 12.7279 -0.6533 0.2706 0.7071 0.4375 0.2500
r10_ball
0 -8.3149 3.4442 15.5885 -0.4619 0.1913 0.8660 0.4375 0.1667
0 -11.7591 4.8708 12.7279 -0.6533 0.2706 0.7071 0.4375 0.2500
0 -9.0000 0.0000 15.5885 -0.5000 0.0000 0.8660 0.5000 0.1667
r10_ball
0 -9.0000 0.0000 15.5885 -0.5000 0.0000 0.8660 0.5000 0.1667
0 -11.7591 4.8708 12.7279 -0.6533 0.2706 0.7071 0.4375 0.2500
0 -12.7279 0.0000 12.7279 -0.7071 0.0000 0.7071 0.5000 0.2500
r10_ball
0 -9.0000 0.0000 15.5885 -0.5000 0.0000 0.8660 0.5000 0.1667
0 -12.7279 0.0000 12.7279 -0.7071 0.0000 0.7071 0.5000 0.2500
0 -8.3149 -3.4442 15.5885 -0.4619 -0.1913 0.8660 0.5625 0.1667
r10_ball
0 -8.3149 -3.4442 15.5885 -0.4619 -0.1913 0.8660 0.5625 0.1667
0 -12.7279 0.0000 12.7279 -0.7071 0.0000 0.7071 0.5000 0.2500
0 -11.7591 -4.8708 12.7279 -0.6533 -0.2706 0.7071 0.5625 0.2500
r10_ball
0 -8.3149 -3.4442 15.5885 -0.4619 -0.1913 0.8660 0.5625 0.1667
0 -11.7591 -4.8708 12.7279 -0.6533 -0.2706 0.7071 0.5625 0.2500
0 -6.3640 -6.3640 15.5885 -0.3536 -0.3536 0.8660 0.6250 0.1667
r10_ball
0 -6.3640 -6.3640 15.5885 -0.3536 -0.3536 0.8660 0.6250 0.1667
0 -11.7591 -4.8708 12.7279 -0.6533 -0.2706 0.7071 0.5625 0.2500
0 -9.0000 -9.0000 12.7279 -0.5000 -0.5000 0.7071 0.6250 0.2500
r10_ball
0 -6.3640 -6.3640 15.5885 -0.3536 -0.3536 0.8660 0.6250 0.1667
0 -9.0000 -9.0000 12.7279 -0.5000 -0.5000 0.7071 0.6250 0.2500
0 -3.4442 -8.3149 15.5885 -0.1913 -0.4619 0.8660 0.6875 0.1667
r10_ball
0 -3.4442 -8.3149 15.5885 -0.1913 -0.4619 0.8660 0.6875 0.1667
0 -9.0000 -9.0000 12.7279 -0.5000 -0.5000 0.7071 0.6250 0.2500
0 -4.8708 -11.7591 12.7279 -0.2706 -0.6533 0.7071 0.6875 0.2500
r10_ball
0 -3.4442 -8.3149 15.5885 -0.1913 -0.4619 0.8660 0.6875 0.1667
0 -4.8708 -11.7591 12.7279 -0.2706 -0.6533 0.7071 0.6875 0.2500
0 -0.0000 -9.0000 15.5885 -0.0000 -0.5000 0.8660 0.7500 0.1667
r10_ball
0 -0.0000 -9.0000 15.5885 -0.0000 -0.5000 0.8660 0.7500 0.1667
0 -4.8708 -11.7591 12.7279 -0.2706 -0.6533 0.7071 0.6875 0.2500
0 -0.0000 -12.7279 12.7279 -0.0000 -0.7071 0.7071 0.7500 0.2500
r10_ball
0 -0.0000 -9.0000 15.5885 -0.0000 -0.5000 0.8660 0.7500 0.1667
0 -0.0000 -12.7279 12.7279 -0.0000 -0.7071 0.7071 0.7500 0.2500
0 3.4442 -8.3149 15.5885 0.1913 -0.4619 0.8660 0.8125 0.1667
r10_ball
0 3.4442 -8.3149 15.5885 0.1913 -0.4619 0.8660 0.8125 0.1667
0 -0.0000 -12.7279 12.7279 -0.0000 -0.7071 0.7071 0.7500 0.2500
0 4.8708 -11.7591 12.7279 0.2706 -0.6533 0.7071 0.8125 0.2500
r10_ball
0 3.4442 -8.3149 15.5885 0.1913 -0.4619 0.8660 0.8125 0.1667
0 4.8708 -11.7591 12.7279 0.2706 -0.6533 0.7071 0.8125 0.2500
0 6.3640 -6.3640 15.5885 0.3536 -0.3536 0.8660 0.8750 0.1667
r10_ball
0 6.3640 -6.3640 15.5885 0.3536 -0.3536 0.8660 0.8750 0.1667
0 4.8708 -11.7591 12.7279 0.2706 -0.6533 0.7071 0.8125 0.2500
0 9.0000 -9.0000 12.7279 0.5000 -0.5000 0.7071 0.8750 0.2500
r10_ball
0 6.3640 -6.3640 15.5885 0.3536 -0.3536 0.8660 0.8750 0.1667
0 9.0000 -9.0000 12.7279 0.5000 -0.5000 0.7071 0.8750 0.2500
0 8.3149 -3.4442 15.5885 0.4619 -0.1913 0.8660 0.9375 0.1667
r10_ball
0 8.3149 -3.4442 15.5885 0.4619 -0.1913 0.8660 0.9375 0.1667
0 9.0000 -9.0000 12.7279 0.5000 -0.5000 0.7071 0.8750 0.2500
0 11.7591 -4.8708 12.7279 0.6533 -0.2706 0.7071 0.9375 0.2500
r10_ball
0 8.3149 -3.4442 15.5885 0.4619 -0.1913 0.8660 0.9375 0.1667
0 11.7591 -4.8708 12.7279 0.6533 -0.2706 0.7071 0.9375 0.2500
0 9.0000 -0.0000 15.5885 0.5000 -0.0000 0.8660 1.0000 0.1667
r10_ball
0 9.0000 -0.0000 15.5885 0.5000 -0.0000 0.8660 1.0000 0.1667
0 11.7591 -4.8708 12.7279 0.6533 -0.2706 0.7071 0.9375 0.2500
0 12.7279 -0.0000 12.7279 0.7071 -0.0000 0.7071 1.0000 0.2500
r10_ball
0 12.7279 0.0000 12.7279 0.7071 0.0000 0.7071 0.0000 0.2500
0 15.5885 0.0000 9.0000 0.8660 0.0000 0.5000 0.0000 0.3333
0 11.7591 4.8708 12.7279 0.6533 0.2706 0.7071 0.0625 0.2500
r10_ball
0 11.7591 4.8708 12.7279 0.6533 0.2706 0.7071 0.0625 0.2500
0 15.5885 0.0000 9.0000 0.8660 0.0000 0.5000 0.0000 0.3333
0 14.4019 5.9654 9.0000 0.8001 0.3314 0.5000 0.0625 0.3333
r10_ball
0 11.7591 4.8708 12.7279 0.6533 0.2706 0.7071 0.0625 0.2500
0 14.4019 5.9654 9.0000 0.8001 0.3314 0.5000 0.0625 0.3333
0 9.0000 9.0000 12.7279 0.5000 0.5000 0.7071 0.1250 0.2500
r10_ball
0 9.0000 9.0000 12.7279 0.5000 0.5000 0.7071 0.1250 0.2500
0 14.4019 5.9654 9.0000 0.8001 0.3314 0.5000 0.0625 0.3333
0 11.0227 11.0227 9.0000 0.6124 0.6124 0.5000 0.1250 0.3333
r10_ball
0 9.0000 9.0000 12.7279 0.5000 0.5000 0.7071 0.1250 0.2500
0 11.0227 11.0227 9.0000 0.6124 0.6124 0.5000 0.1250 0.3333
0 4.8708 11.7591 12.7279 0.2706 0.6533 0.7071 0.1875 0.2500
r10_ball
0 4.8708 11.7591 12.7279 0.2706 0.6533 0.7071 0.1875 0.2500
0 11.0227 11.0227 9.0000 0.6124 0.6124 0.5000 0.1250 0.3333
0 5.9654 14.4019 9.0000 0.3314 0.8001 0.5000 0.1875 0.3333
r10_ball
0 4.8708 11.7591 12.7279 0.2706 0.6533 0.7071 0.1875 0.2500
0 5.9654 14.4019 9.0000 0.3314 0.8001 0.5000 0.1875 0.3333
0 0.0000 12.7279 12.7279 0.0000 0.7071 0.7071 0.2500 0.2500
r10_ball
0 0.0000 12.7279 12.7279 0.0000 0.7071 0.7071 0.2500 0.2500
0 5.9654 14.4019 9.0000 0.3314 0.8001 0.5000 0.1875 0.3333
0 0.0000 15.5885 9.0000 0.0000 0.8660 0.5000 0.2500 0.3333
r10_ball
0 0.0000 12.7279 12.7279 0.0000 0.7071 0.7071 0.2500 0.2500
0 0.0000 15.5885 9.0000 0.0000 0.8660 0.5000 0.2500 0.3333
0 -4.8708 11.7591 12.7279 -0.2706 0.6533 0.7071 0.3125 0.2500
r10_ball
0 -4.8708 11.7591 12.7279 -0.2706 0.6533 0.7071 0.3125 0.2500
0 0.0000 15.5885 9.0000 0.0000 0.8660 0.5000 0.2500 0.3333
0 -5.9654 14.4019 9.0000 -0.3314 0.8001 0.5000 0.3125 0.3333
r10_ball
0 -4.8708 11.7591 12.7279 -0.2706 0.6533 0.7071 0.3125 0.2500
0 -5.9654 14.4019 9.0000 -0.3314 0.8001 0.5000 0.3125 0.3333
0 -9.0000 9.0000 12.7279 -0.5000 0.5000 0.7071 0.3750 0.2500
r10_ball
0 -9.0000 9.0000 12.7279 -0.5000 0.5000 0.7071 0.3750 0.2500
0 -5.9654 14.4019 9.0000 -0.3314 0.8001 0.5000 0.3125 0.3333
0 -11.0227 11.0227 9.0000 -0.6124 0.6124 0.5000 0.3750 0.3333
r10_ball
0 -9.0000 9.0000 12.7279 -0.5000 0.5000 0.7071 0.3750 0.2500
0 -11.0227 11.0227 9.0000 -0.6124 0.6124 0.5000 0.3750 0.3333
0 -11.7591 4.8708 12.7279 -0.6533 0.2706 0.7071 0.4375 0.2500
r10_ball
0 -11.7591 4.8708 12.7279 -0.6533 0.2706 0.7071 0.4375 0.2500
0 -11.0227 11.0227 9.0000 -0.6124 0.6124 0.5000 0.3750 0.3333
0 -14.4019 5.9654 9.0000 -0.8001 0.3314 0.5000 0.4375 0.3333
r10_ball
0 -11.7591 4.8708 12.7279 -0.6533 0.2706 0.7071 0.4375 0.2500
0 -14.4019 5.9654 9.0000 -0.8001 0.3314 0.5000 0.4375 0.3333
0 -12.7279 0.0000 12.7279 -0.7071 0.0000 0.7071 0.5000 0.2500
r10_ball
0 -12.7279 0.0000 12.7279 -0.7071 0.0000 0.7071 0.5000 0.2500
0 -14.4019 5.9654 9.0000 -0.8001 0.3314 0.5000 0.4375 0.3333
0 -15.5885 0.0000 9.0000 -0.8660 0.0000 0.5000 0.5000 0.3333
r10_ball
0 -12.7279 0.0000 12.7279 -0.7071 0.0000 0.7071 0.5000 0.2500
0 -15.5885 0.0000 9.0000 -0.8660 0.0000 0.5000 0.5000 0.3333
0 -11.7591 -4.8708 12.7279 -0.6533 -0.2706 0.7071 0.5625 0.2500
r10_ball
0 -11.7591 -4.8708 12.7279 -0.6533 -0.2706 0.7071 0.5625 0.2500
0 -15.5885 0.0000 9.0000 -0.8660 0.0000 0.5000 0.5000 0.3333
0 -14.4019 -5.9654 9.0000 -0.8001 -0.3314 0.5000 0.5625 0.3333
r10_ball
0 -11.7591 -4.8708 12.7279 -0.6533 -0.2706 0.7071 0.5625 0.2500
0 -14.4019 -5.9654 9.0000 -0.8001 -0.3314 0.5000 0.5625 0.3333
0 -9.0000 -9.0000 12.7279 -0.5000 -0.5000 0.7071 0.6250 0.2500
r10_ball
0 -9.0000 -9.0000 12.7279 -0.5000 -0.5000 0.7071 0.6250 0.2500
0 -14.4019 -5.9654 9.0000 -0.8001 -0.3314 0.5000 0.5625 0.3333
0 -11.0227 -11.0227 9.0000 -0.6124 -0.6124 0.5000 0.6250 0.3333
r10_ball
0 -9.0000 -9.0000 12.7279 -0.5000 -0.5000 0.7071 0.6250 0.2500
0 -11.0227 -11.0227 9.0000 -0.6124 -0.6124 0.5000 0.6250 0.3333
0 -4.8708 -11.7591 12.7279 -0.2706 -0.6533 0.7071 0.6875 0.2500
r10_ball
0 -4.8708 -11.7591 12.7279 -0.2706 -0.6533 0.7071 0.6875 0.2500
0 -11.0227 -11.0227 9.0000 -0.6124 -0.6124 0.5000 0.6250 0.3333
0 -5.9654 -14.4019 9.0000 -0.3314 -0.8001 0.5000 0.6875 0.3333
r10_ball
0 -4.8708 -11.7591 12.7279 -0.2706 -0.6533 0.7071 0.6875 0.2500
0 -5.9654 -14.4019 9.0000 -0.3314 -0.8001 0.5000 0.6875 0.3333
0 -0.0000 -12.7279 12.7279 -0.0000 -0.7071 0.7071 0.7500 0.2500
r10_ball
0 -0.0000 -12.7279 12.7279 -0.0000 -0.7071 0.7071 0.7500 0.2500
0 -5.9654 -14.4019 9.0000 -0.3314 -0.8001 0.5000 0.6875 0.3333
0 -0.0000 -15.5885 9.0000 -0.0000 -0.8660 0.5000 0.7500 0.3333
r10_ball
0 -0.0000 -12.7279 12.7279 -0.0000 -0.7071 0.7071 0.7500 0.2500
0 -0.0000 -15.5885 9.0000 -0.0000 -0.8660 0.5000 0.7500 0.3333
0 4.8708 -11.7591 12.7279 0.2706 -0.6533 0.7071 0.8125 0.2500
r10_ball
0 4.8708 -11.7591 12.7279 0.2706 -0.6533 0.7071 0.8125 0.2500
0 -0.0000 -15.5885 9.0000 -0.0000 -0.8660 0.5000 0.7500 0.3333
0 5.9654 -14.4019 9.0000 0.3314 -0.8001 0.5000 0.8125 0.3333
r10_ball
0 4.8708 -11.7591 12.7279 0.2706 -0.6533 0.7071 0.8125 0.2500
0 5.9654 -14.4019 9.0000 0.3314 -0.8001 0.5000 0.8125 0.3333
0 9.0000 -9.0000 12.7279 0.5000 -0.5000 0.7071 0.8750 0.2500
r10_ball
0 9.0000 -9.0000 12.7279 0.5000 -0.5000 0.7071 0.8750 0.2500
0 5.9654 -14.4019 9.0000 0.3314 -0.8001 0.5000 0.8125 0.3333
0 11.0227 -11.0227 9.0000 0.6124 -0.6124 0.5000 0.8750 0.3333
r10_ball
0 9.0000 -9.0000 12.7279 0.5000 -0.5000 0.7071 0.8750 0.2500
0 11.0227 -11.0227 9.0000 0.6124 -0.6124 0.5000 0.8750 0.3333
0 11.7591 -4.8708 12.7279 0.6533 -0.2706 0.7071 0.9375 0.2500
r10_ball
0 11.7591 -4.8708 12.7279 0.6533 -0.2706 0.7071 0.9375 0.2500
0 11.0227 -11.0227 9.0000 0.6124 -0.6124 0.5000 0.8750 0.3333
0 14.4019 -5.9654 9.0000 0.8001 -0.3314 0.5000 0.9375 0.3333
r10_ball
0 11.7591 -4.8708 12.7279 0.6533 -0.2706 0.7071 0.9375 0.2500
0 14.4019 -5.9654 9.0000 0.8001 -0.3314 0.5000 0.9375 0.3333
0 12.7279 -0.0000 12.7279 0.7071 -0.0000 0.7071 1.0000 0.2500
r10_ball
0 12.7279 -0.0000 12.7279 0.7071 -0.0000 0.7071 1.0000 0.2500
0 14.4019 -5.9654 9.0000 0.8001 -0.3314 0.5000 0.9375 0.3333
0 15.5885 -0.0000 9.0000 0.8660 -0.0000 0.5000 1.0000 0.3333
r10_ball
0 15.5885 0.0000 9.0000 0.8660 0.0000 0.5000 0.0000 0.3333
0 17.3867 0.0000 4.6587 0.9659 0.0000 0.2588 0.0000 0.4167
0 14.4019 5.9654 9.0000 0.8001 0.3314 0.5000 0.0625 0.3333
r10_ball
0 14.4019 5.9654 9.0000 0.8001 0.3314 0.5000 0.0625 0.3333
0 17.3867 0.0000 4.6587 0.9659 0.0000 0.2588 0.0000 0.4167
0 16.0632 6.6536 4.6587 0.8924 0.3696 0.2588 0.0625 0.4167
r10_ball
0 14.4019 5.9654 9.0000 0.8001 0.3314 0.5000 0.0625 0.3333
0 16.0632 6.6536 4.6587 0.8924 0.3696 0.2588 0.0625 0.4167
0 11.0227 11.0227 9.0000 0.6124 0.6124 0.5000 0.1250 0.3333
r10_ball
0 11.0227 11.0227 9.0000 0.6124 0.6124 0.5000 0.1250 0.3333
0 16.0632 6.6536 4.6587 0.8924 0.3696 0.2588 0.0625 0.4167
0 12.2942 12.2942 4.6587 0.6830 0.6830 0.2588 0.1250 0.4167
r10_ball
0 11.0227 11.0227 9.0000 0.6124 0.6124 0.5000 0.1250 0.3333
0 12.2942 12.2942 4.6587 0.6830 0.6830 0.2588 0.1250 0.4167
0 5.9654 14.4019 9.0000 0.3314 0.8001 0.5000 0.1875 0.3333
r10_ball
0 5.9654 14.4019 9.0000 0.3314 0.8001 0.5000 0.1875 0.3333
0 12.2942 12.2942 4.6587 0.6830 0.6830 0.2588 0.1250 0.4167
0 6.6536 16.0632 4.6587 0.3696 0.8924 0.2588 0.1875 0.4167
r10_ball
0 5.9654 14.4019 9.0000 0.3314 0.8001 0.5000 0.1875 0.3333
0 6.6536 16.0632 4.6587 0.3696 0.8924 0.2588 0.1875 0.4167
0 0.0000 15.5885 9.0000 0.0000 0.8660 0.5000 0.2500 0.3333
r10_ball
0 0.0000 15.5885 9.0000 0.0000 0.8660 0.5000 0.2500 0.3333
0 6.6536 16.0632 4.6587 0.3696 0.8924 0.2588 0.1875 0.4167
0 0.0000 17.3867 4.6587 0.0000 0.9659 0.2588 0.2500 0.4167
r10_ball
0 0.0000 15.5885 9.0000 0.0000 0.8660 0.5000 0.2500 0.3333
0 0.0000 17.3867 4.6587 0.0000 0.9659 0.2588 0.2500 0.4167
0 -5.9654 14.4019 9.0000 -0.3314 0.8001 0.5000 0.3125 0.3333
r10_ball
0 -5.9654 14.4019 9.0000 -0.3314 0.8001 0.5000 0.3125 0.3333
0 0.0000 17.3867 4.6587 0.0000 0.9659 0.2588 0.2500 0.4167
0 -6.6536 16.0632 4.6587 -0.3696 0.8924 0.2588 0.3125 0.4167
r10_ball
0 -5.9654 14.4019 9.0000 -0.3314 0.8001 0.5000 0.3125 0.3333
0 -6.6536 16.0632 4.6587 -0.3696 0.8924 0.2588 0.3125 0.4167
0 -11.0227 11.0227 9.0000 -0.6124 0.6124 0.5000 0.3750 0.3333
r10_ball
0 -11.0227 11.0227 9.0000 -0.6124 0.6124 0.5000 0.3750 0.3333
0 -6.6536 16.0632 4.6587 -0.3696 0.8924 0.2588 0.3125 0.4167
0 -12.2942 12.2942 4.6587 -0.6830 0.6830 0.2588 0.3750 0.4167
r10_ball
0 -11.0227 11.0227 9.0000 -0.6124 0.6124 0.5000 0.3750 0.3333
0 -12.2942 12.2942 4.6587 -0.6830 0.6830 0.2588 0.3750 0.4167
0 -14.4019 5.9654 9.0000 -0.8001 0.3314 0.5000 0.4375 0.3333
r10_ball
0 -14.4019 5.9654 9.0000 -0.8001 0.3314 0.5000 0.4375 0.3333
0 -12.2942 12.2942 4.6587 -0.6830 0.6830 0.2588 0.3750 0.4167
0 -16.0632 6.6536 4.6587 -0.8924 0.3696 0.2588 0.4375 0.4167
r10_ball
0 -14.4019 5.9654 9.0000 -0.8001 0.3314 0.5000 0.4375 0.3333
0 -16.0632 6.6536 4.6587 -0.8924 0.3696 0.2588 0.4375 0.4167
0 -15.5885 0.0000 9.0000 -0.8660 0.0000 0.5000 0.5000 0.3333
r10_ball
0 -15.5885 0.0000 9.0000 -0.8660 0.0000 0.5000 0.5000 0.3333
0 -16.0632 6.6536 4.6587 -0.8924 0.3696 0.2588 0.4375 0.4167
0 -17.3867 0.0000 4.6587 -0.9659 0.0000 0.2588 0.5000 0.4167
r10_ball
0 -15.5885 0.0000 9.0000 -0.8660 0.0000 0.5000 0.5000 0.3333
0 -17.3867 0.0000 4.6587 -0.9659 0.0000 0.2588 0.5000 0.4167
0 -14.4019 -5.9654 9.0000 -0.8001 -0.3314 0.5000 0.5625 0.3333
r10_ball
0 -14.4019 -5.9654 9.0000 -0.8001 -0.3314 0.5000 0.5625 0.3333
0 -17.3867 0.0000 4.6587 -0.9659 0.0000 0.2588 0.5000 0.4167
0 -16.0632 -6.6536 4.6587 -0.8924 -0.3696 0.2588 0.5625 0.4167
r10_ball
0 -14.4019 -5.9654 9.0000 -0.8001 -0.3314 0.5000 0.5625 0.3333
0 -16.0632 -6.6536 4.6587 -0.8924 -0.3696 0.2588 0.5625 0.4167
0 -11.0227 -11.0227 9.0000 -0.6124 -0.6124 0.5000 0.6250 0.3333
r10_ball
0 -11.0227 -11.0227 9.0000 -0.6124 -0.6124 0.5000 0.6250 0.3333
0 -16.0632 -6.6536 4.6587 -0.8924 -0.3696 0.2588 0.5625 0.4167
0 -12.2942 -12.2942 4.6587 -0.6830 -0.6830 0.2588 0.6250 0.4167
r10_ball
0 -11.0227 -11.0227 9.0000 -0.6124 -0.6124 0.5000 0.6250 0.3333
0 -12.2942 -12.2942 4.6587 -0.6830 -0.6830 0.2588 0.6250 0.4167
0 -5.9654 -14.4019 9.0000 -0.3314 -0.8001 0.5000 0.6875 0.3333
r10_ball
0 -5.9654 -14.4019 9.0000 -0.3314 -0.8001 0.5000 0.6875 0.3333
0 -12.2942 -12.2942 4.6587 -0.6830 -0.6830 0.2588 0.6250 0.4167
0 -6.6536 -16.0632 4.6587 -0.3696 -0.8924 0.2588 0.6875 0.4167
r10_ball
0 -5.9654 -14.4019 9.0000 -0.3314 -0.8001 0.5000 0.6875 0.3333
0 -6.6536 -16.0632 4.6587 -0.3696 -0.8924 0.2588 0.6875 0.4167
0 -0.0000 -15.5885 9.0000 -0.0000 -0.8660 0.5000 0.7500 0.3333
r10_ball
0 -0.0000 -15.5885 9.0000 -0.0000 -0.8660 0.5000 0.7500 0.3333
0 -6.6536 -16.0632 4.6587 -0.3696 -0.8924 0.2588 0.6875 0.4167
0 -0.0000 -17.3867 4.6587 -0.0000 -0.9659 0.2588 0.7500 0.4167
r10_ball
0 -0.0000 -15.5885 9.0000 -0.0000 -0.8660 0.5000 0.7500 0.3333
0 -0.0000 -17.3867 4.6587 -0.0000 -0.9659 0.2588 0.7500 0.4167
0 5.9654 -14.4019 9.0000 0.3314 -0.8001 0.5000 0.8125 0.3333
r10_ball
0 5.9654 -14.4019 9.0000 0.3314 -0.8001 0.5000 0.8125 0.3333
0 -0.0000 -17.3867 4.6587 -0.0000 -0.9659 0.2588 0.7500 0.4167
0 6.6536 -16.0632 4.6587 0.3696 -0.8924 0.2588 0.8125 0.4167
r10_ball
0 5.9654 -14.4019 9.0000 0.3314 -0.8001 0.5000 0.8125 0.3333
0 6.6536 -16.0632 4.6587 0.3696 -0.8924 0.2588 0.8125 0.4167
0 11.0227 -11.0227 9.0000 0.6124 -0.6124 0.5000 0.8750 0.3333
r10_ball
0 11.0227 -11.0227 9.0000 0.6124 -0.6124 0.5000 0.8750 0.3333
0 6.6536 -16.0632 4.6587 0.3696 -0.8924 0.2588 0.8125 0.4167
0 12.2942 -12.2942 4.6587 0.6830 -0.6830 0.2588 0.8750 0.4167
r10_ball
0 11.0227 -11.0227 9.0000 0.6124 -0.6124 0.5000 0.8750 0.3333
0 12.2942 -12.2942 4.6587 0.6830 -0.6830 0.2588 0.8750 0.4167
0 14.4019 -5.9654 9.0000 0.8001 -0.3314 0.5000 0.9375 0.3333
r10_ball
0 14.4019 -5.9654 9.0000 0.8001 -0.3314 0.5000 0.9375 0.3333
0 12.2942 -12.2942 4.6587 0.6830 -0.6830 0.2588 0.8750 0.4167
0 16.0632 -6.6536 4.6587 0.8924 -0.3696 0.2588 0.9375 0.4167
r10_ball
0 14.4019 -5.9654 9.0000 0.8001 -0.3314 0.5000 0.9375 0.3333
0 16.0632 -6.6536 4.6587 0.8924 -0.3696 0.2588 0.9375 0.4167
0 15.5885 -0.0000 9.0000 0.8660 -0.0000 0.5000 1.0000 0.3333
r10_ball
0 15.5885 -0.0000 9.0000 0.8660 -0.0000 0.5000 1.0000 0.3333
0 16.0632 -6.6536 4.6587 0.8924 -0.3696 0.2588 0.9375 0.4167
0 17.3867 -0.0000 4.6587 0.9659 -0.0000 0.2588 1.0000 0.4167
r10_ball
0 17.3867 0.0000 4.6587 0.9659 0.0000 0.2588 0.0000 0.4167
0 18.0000 0.0000 0.0000 1.0000 0.0000 0.0000 0.0000 0.5000
0 16.0632 6.6536 4.6587 0.8924 0.3696 0.2588 0.0625 0.4167
r10_ball
0 16.0632 6.6536 4.6587 0.8924 0.3696 0.2588 0.0625 0.4167
0 18.0000 0.0000 0.0000 1.0000 0.0000 0.0000 0.0000 0.5000
0 16.6298 6.8883 0.0000 0.9239 0.3827 0.0000 0.0625 0.5000
r10_ball
0 16.0632 6.6536 4.6587 0.8924 0.3696 0.2588 0.0625 0.4167
0 16.6298 6.8883 0.0000 0.9239 0.3827 0.0000 0.0625 0.5000
0 12.2942 12.2942 4.6587 0.6830 0.6830 0.2588 0.1250 0.4167
r10_ball
0 12.2942 12.2942 4.6587 0.6830 0.6830 0.2588 0.1250 0.4167
0 16.6298 6.8883 0.0000 0.9239 0.3827 0.0000 0.0625 0.5000
0 12.7279 12.7279 0.0000 0.7071 0.7071 0.0000 0.1250 0.5000
r10_ball
0 12.2942 12.2942 4.6587 0.6830 0.6830 0.2588 0.1250 0.4167
0 12.7279 12.7279 0.0000 0.7071 0.7071 0.0000 0.1250 0.5000
0 6.6536 16.0632 4.6587 0.3696 0.8924 0.2588 0.1875 0.4167
r10_ball
0 6.6536 16.0632 4.6587 0.3696 0.8924 0.2588 0.1875 0.4167
0 12.7279 12.7279 0.0000 0.7071 0.7071 0.0000 0.1250 0.5000
0 6.8883 16.6298 0.0000 0.3827 0.9239 0.0000 0.1875 0.5000
r10_ball
0 6.6536 16.0632 4.6587 0.3696 0.8924 0.2588 0.1875 0.4167
0 6.8883 16.6298 0.0000 0.3827 0.9239 0.0000 0.1875 0.5000
0 0.0000 17.3867 4.6587 0.0000 0.9659 0.2588 0.2500 0.4167
r10_ball
0 0.0000 17.3867 4.6587 0.0000 0.9659 0.2588 0.2500 0.4167
0 6.8883 16.6298 0.0000 0.3827 0.9239 0.0000 0.1875 0.5000
0 0.0000 18.0000 0.0000 0.0000 1.0000 0.0000 0.2500 0.5000
r10_ball
0 0.0000 17.3867 4.6587 0.0000 0.9659 0.2588 0.2500 0.4167
0 0.0000 18.0000 0.0000 0.0000 1.0000 0.0000 0.2500 0.5000
0 -6.6536 16.0632 4.6587 -0.3696 0.8924 0.2588 0.3125 0.4167
r10_ball
0 -6.6536 16.0632 4.6587 -0.3696 0.8924 0.2588 0.3125 0.4167
0 0.0000 18.0000 0.0000 0.0000 1.0000 0.0000 0.2500 0.5000
0 -6.8883 16.6298 0.0000 -0.3827 0.9239 0.0000 0.3125 0.5000
r10_ball
0 -6.6536 16.0632 4.6587 -0.3696 0.8924 0.2588 0.3125 0.4167
0 -6.8883 16.6298 0.0000 -0.3827 0.9239 0.0000 0.3125 0.5000
0 -12.2942 12.2942 4.6587 -0.6830 0.6830 0.2588 0.3750 0.4167
r10_ball
0 -12.2942 12.2942 4.6587 -0.6830 0.6830 0.2588 0.3750 0.4167
0 -6.8883 16.6298 0.0000 -0.3827 0.9239 0.0000 0.3125 0.5000
0 -12.7279 12.7279 0.0000 -0.7071 0.7071 0.0000 0.3750 0.5000
r10_ball
0 -12.2942 12.2942 4.6587 -0.6830 0.6830 0.2588 0.3750 0.4167
0 -12.7279 12.7279 0.0000 -0.7071 0.7071 0.0000 0.3750 0.5000
0 -16.0632 6.6536 4.6587 -0.8924 0.3696 0.2588 0.4375 0.4167
r10_ball
0 -16.0632 6.6536 4.6587 -0.8924 0.3696 0.2588 0.4375 0.4167
0 -12.7279 12.7279 0.0000 -0.7071 0.7071 0.0000 0.3750 0.5000
0 -16.6298 6.8883 0.0000 -0.9239 0.3827 0.0000 0.4375 0.5000
r10_ball
0 -16.0632 6.6536 4.6587 -0.8924 0.3696 0.2588 0.4375 0.4167
0 -16.6298 6.8883 0.0000 -0.9239 0.3827 0.0000 0.4375 0.5000
0 -17.3867 0.0000 4.6587 -0.9659 0.0000 0.2588 0.5000 0.4167
r10_ball
0 -17.3867 0.0000 4.6587 -0.9659 0.0000 0.2588 0.5000 0.4167
0 -16.6298 6.8883 0.0000 -0.9239 0.3827 0.0000 0.4375 0.5000
0 -18.0000 0.0000 0.0000 -1.0000 0.0000 0.0000 0.5000 0.5000
r10_ball
0 -17.3867 0.0000 4.6587 -0.9659 0.0000 0.2588 0.5000 0.4167
0 -18.0000 0.0000 0.0000 -1.0000 0.0000 0.0000 0.5000 0.5000
0 -16.0632 -6.6536 4.6587 -0.8924 -0.3696 0.2588 0.5625 0.4167
r10_ball
0 -16.0632 -6.6536 4.6587 -0.8924 -0.3696 0.2588 0.5625 0.4167
0 -18.0000 0.0000 0.0000 -1.0000 0.0000 0.0000 0.5000 0.5000
0 -16.6298 -6.8883 0.0000 -0.9239 -0.3827 0.0000 0.5625 0.5000
r10_ball
0 -16.0632 -6.6536 4.6587 -0.8924 -0.3696 0.2588 0.5625 0.4167
0 -16.6298 -6.8883 0.0000 -0.9239 -0.3827 0.0000 0.5625 0.5000
0 -12.2942 -12.2942 4.6587 -0.6830 -0.6830 0.2588 0.6250 0.4167
r10_ball
0 -12.2942 -12.2942 4.6587 -0.6830 -0.6830 0.2588 0.6250 0.4167
0 -16.6298 -6.8883 0.0000 -0.9239 -0.3827 0.0000 0.5625 0.5000
0 -12.7279 -12.7279 0.0000 -0.7071 -0.7071 0.0000 0.6250 0.5000
r10_ball
0 -12.2942 -12.2942 4.6587 -0.6830 -0.6830 0.2588 0.6250 0.4167
0 -12.7279 -12.7279 0.0000 -0.7071 -0.7071 0.0000 0.6250 0.5000
0 -6.6536 -16.0632 4.6587 -0.3696 -0.8924 0.2588 0.6875 0.4167
r10_ball
0 -6.6536 -16.0632 4.6587 -0.3696 -0.8924 0.2588 0.6875 0.4167
0 -12.7279 -12.7279 0.0000 -0.7071 -0.7071 0.0000 0.6250 0.5000
0 -6.8883 -16.6298 0.0000 -0.3827 -0.9239 0.0000 0.6875 0.5000
r10_ball
0 -6.6536 -16.0632 4.6587 -0.3696 -0.8924 0.2588 0.6875 0.4167
0 -6.8883 -16.6298 0.0000 -0.3827 -0.9239 0.0000 0.6875 0.5000
0 -0.0000 -17.3867 4.6587 -0.0000 -0.9659 0.2588 0.7500 0.4167
r10_ball
0 -0.0000 -17.3867 4.6587 -0.0000 -0.9659 0.2588 0.7500 0.4167
0 -6.8883 -16.6298 0.0000 -0.3827 -0.9239 0.0000 0.6875 0.5000
0 -0.0000 -18.0000 0.0000 -0.0000 -1.0000 0.0000 0.7500 0.5000
r10_ball
0 -0.0000 -17.3867 4.6587 -0.0000 -0.9659 0.2588 0.7500 0.4167
0 -0.0000 -18.0000 0.0000 -0.0000 -1.0000 0.0000 0.7500 0.5000
0 6.6536 -16.0632 4.6587 0.3696 -0.8924 0.2588 0.8125 0.4167
r10_ball
0 6.6536 -16.0632 4.6587 0.3696 -0.8924 0.2588 0.8125 0.4167
0 -0.0000 -18.0000 0.0000 -0.0000 -1.0000 0.0000 0.7500 0.5000
0 6.8883 -16.6298 0.0000 0.3827 -0.9239 0.0000 0.8125 0.5000
r10_ball
0 6.6536 -16.0632 4.6587 0.3696 -0.8924 0.2588 0.8125 0.4167
0 6.8883 -16.6298 0.0000 0.3827 -0.9239 0.0000 0.8125 0.5000
0 12.2942 -12.2942 4.6587 0.6830 -0.6830 0.2588 0.8750 0.4167
r10_ball
0 12.2942 -12.2942 4.6587 0.6830 -0.6830 0.2588 0.8750 0.4167
0 6.8883 -16.6298 0.0000 0.3827 -0.9239 0.0000 0.8125 0.5000
0 12.7279 -12.7279 0.0000 0.7071 -0.7071 0.0000 0.8750 0.5000
r10_ball
0 12.2942 -12.2942 4.6587 0.6830 -0.6830 0.2588 0.8750 0.4167
0 12.7279 -12.7279 0.0000 0.7071 -0.7071 0.0000 0.8750 0.5000
0 16.0632 -6.6536 4.6587 0.8924 -0.3696 0.2588 0.9375 0.4167
r10_ball
0 16.0632 -6.6536 4.6587 0.8924 -0.3696 0.2588 0.9375 0.4167
0 12.7279 -12.7279 0.0000 0.7071 -0.7071 0.0000 0.8750 0.5000
0 16.6298 -6.8883 0.0000 0.9239 -0.3827 0.0000 0.9375 0.5000
r10_ball
0 16.0632 -6.6536 4.6587 0.8924 -0.3696 0.2588 0.9375 0.4167
0 16.6298 -6.8883 0.0000 0.9239 -0.3827 0.0000 0.9375 0.5000
0 17.3867 -0.0000 4.6587 0.9659 -0.0000 0.2588 1.0000 0.4167
r10_ball
0 17.3867 -0.0000 4.6587 0.9659 -0.0000 0.2588 1.0000 0.4167
0 16.6298 -6.8883 0.0000 0.9239 -0.3827 0.0000 0.9375 0.5000
0 18.0000 -0.0000 0.0000 1.0000 -0.0000 0.0000 1.0000 0.5000
r10_ball
0 18.0000 0.0000 0.0000 1.0000 0.0000 0.0000 0.0000 0.5000
0 17.3867 0.0000 -4.6587 0.9659 0.0000 -0.2588 0.0000 0.5833
0 16.6298 6.8883 0.0000 0.9239 0.3827 0.0000 0.0625 0.5000
r10_ball
0 16.6298 6.8883 0.0000 0.9239 0.3827 0.0000 0.0625 0.5000
0 17.3867 0.0000 -4.6587 0.9659 0.0000 -0.2588 0.0000 0.5833
0 16.0632 6.6536 -4.6587 0.8924 0.3696 -0.2588 0.0625 0.5833
r10_ball
0 16.6298 6.8883 0.0000 0.9239 0.3827 0.0000 0.0625 0.5000
0 16.0632 6.6536 -4.6587 0.8924 0.3696 -0.2588 0.0625 0.5833
0 12.7279 12.7279 0.0000 0.7071 0.7071 0.0000 0.1250 0.5000
r10_ball
0 12.7279 12.7279 0.0000 0.7071 0.7071 0.0000 0.1250 0.5000
0 16.0632 6.6536 -4.6587 0.8924 0.3696 -0.2588 0.0625 0.5833
0 12.2942 12.2942 -4.6587 0.6830 0.6830 -0.2588 0.1250 0.5833
r10_ball
0 12.7279 12.7279 0.0000 0.7071 0.7071 0.0000 0.1250 0.5000
0 12.2942 12.2942 -4.6587 0.6830 0.6830 -0.2588 0.1250 0.5833
0 6.8883 16.6298 0.0000 0.3827 0.9239 0.0000 0.1875 0.5000
r10_ball
0 6.8883 16.6298 0.0000 0.3827 0.9239 0.0000 0.1875 0.5000
0 12.2942 12.2942 -4.6587 0.6830 0.6830 -0.2588 0.1250 0.5833
0 6.6536 16.0632 -4.6587 0.3696 0.8924 -0.2588 0.1875 0.5833
r10_ball
0 6.8883 16.6298 0.0000 0.3827 0.9239 0.0000 0.1875 0.5000
0 6.6536 16.0632 -4.6587 0.3696 0.8924 -0.2588 0.1875 0.5833
0 0.0000 18.0000 0.0000 0.0000 1.0000 0.0000 0.2500 0.5000
r10_ball
0 0.0000 18.0000 0.0000 0.0000 1.0000 0.0000 0.2500 0.5000
0 6.6536 16.0632 -4.6587 0.3696 0.8924 -0.2588 0.1875 0.5833
0 0.0000 17.3867 -4.6587 0.0000 0.9659 -0.2588 0.2500 0.5833
r10_ball
0 0.0000 18.0000 0.0000 0.0000 1.0000 0.0000 0.2500 0.5000
0 0.0000 17.3867 -4.6587 0.0000 0.9659 -0.2588 0.2500 0.5833
0 -6.8883 16.6298 0.0000 -0.3827 0.9239 0.0000 0.3125 0.5000
r10_ball
0 -6.8883 16.6298 0.0000 -0.3827 0.9239 0.0000 0.3125 0.5000
0 0.0000 17.3867 -4.6587 0.0000 0.9659 -0.2588 0.2500 0.5833
0 -6.6536 16.0632 -4.6587 -0.3696 0.8924 -0.2588 0.3125 0.5833
r10_ball
0 -6.8883 16.6298 0.0000 -0.3827 0.9239 0.0000 0.3125 0.5000
0 -6.6536 16.0632 -4.6587 -0.3696 0.8924 -0.2588 0.3125 0.5833
0 -12.7279 12.7279 0.0000 -0.7071 0.7071 0.0000 0.3750 0.5000
r10_ball
0 -12.7279 12.7279 0.0000 -0.7071 0.7071 0.0000 0.3750 0.5000
0 -6.6536 16.0632 -4.6587 -0.3696 0.8924 -0.2588 0.3125 0.5833
0 -12.2942 12.2942 -4.6587 -0.6830 0.6830 -0.2588 0.3750 0.5833
r10_ball
0 -12.7279 12.7279 0.0000 -0.7071 0.7071 0.0000 0.3750 0.5000
0 -12.2942 12.2942 -4.6587 -0.6830 0.6830 -0.2588 0.3750 0.5833
0 -16.6298 6.8883 0.0000 -0.9239 0.3827 0.0000 0.4375 0.5000
r10_ball
0 -16.6298 6.8883 0.0000 -0.9239 0.3827 0.0000 0.4375 0.5000
0 -12.2942 12.2942 -4.6587 -0.6830 0.6830 -0.2588 0.3750 0.5833
0 -16.0632 6.6536 -4.6587 -0.8924 0.3696 -0.2588 0.4375 0.5833
r10_ball
0 -16.6298 6.8883 0.0000 -0.9239 0.3827 0.0000 0.4375 0.5000
0 -16.0632 6.6536 -4.6587 -0.8924 0.3696 -0.2588 0.4375 0.5833
0 -18.0000 0.0000 0.0000 -1.0000 0.0000 0.0000 0.5000 0.5000
r10_ball
0 -18.0000 0.0000 0.0000 -1.0000 0.0000 0.0000 0.5000 0.5000
0 -16.0632 6.6536 -4.6587 -0.8924 0.3696 -0.2588 0.4375 0.5833
0 -17.3867 0.0000 -4.6587 -0.9659 0.0000 -0.2588 0.5000 0.5833
r10_ball
0 -18.0000 0.0000 0.0000 -1.0000 0.0000 0.0000 0.5000 0.5000
0 -17.3867 0.0000 -4.6587 -0.9659 0.0000 -0.2588 0.5000 0.5833
0 -16.6298 -6.8883 0.0000 -0.9239 -0.3827 0.0000 0.5625 0.5000
r10_ball
0 -16.6298 -6.8883 0.0000 -0.9239 -0.3827 0.0000 0.5625 0.5000
0 -17.3867 0.0000 -4.6587 -0.9659 0.0000 -0.2588 0.5000 0.5833
0 -16.0632 -6.6536 -4.6587 -0.8924 -0.3696 -0.2588 0.5625 0.5833
r10_ball
0 -16.6298 -6.8883 0.0000 -0.9239 -0.3827 0.0000 0.5625 0.5000
0 -16.0632 -6.6536 -4.6587 -0.8924 -0.3696 -0.2588 0.5625 0.5833
0 -12.7279 -12.7279 0.0000 -0.7071 -0.7071 0.0000 0.6250 0.5000
r10_ball
0 -12.7279 -12.7279 0.0000 -0.7071 -0.7071 0.0000 0.6250 0.5000
0 -16.0632 -6.6536 -4.6587 -0.8924 -0.3696 -0.2588 0.5625 0.5833
0 -12.2942 -12.2942 -4.6587 -0.6830 -0.6830 -0.2588 0.6250 0.5833
r10_ball
0 -12.7279 -12.7279 0.0000 -0.7071 -0.7071 0.0000 0.6250 0.5000
0 -12.2942 -12.2942 -4.6587 -0.6830 -0.6830 -0.2588 0.6250 0.5833
0 -6.8883 -16.6298 0.0000 -0.3827 -0.9239 0.0000 0.6875 0.5000
r10_ball
0 -6.8883 -16.6298 0.0000 -0.3827 -0.9239 0.0000 0.6875 0.5000
0 -12.2942 -12.2942 -4.6587 -0.6830 -0.6830 -0.2588 0.6250 0.5833
0 -6.6536 -16.0632 -4.6587 -0.3696 -0.8924 -0.2588 0.6875 0.5833
r10_ball
0 -6.8883 -16.6298 0.0000 -0.3827 -0.9239 0.0000 0.6875 0.5000
0 -6.6536 -16.0632 -4.6587 -0.3696 -0.8924 -0.2588 0.6875 0.5833
0 -0.0000 -18.0000 0.0000 -0.0000 -1.0000 0.0000 0.7500 0.5000
r10_ball
0 -0.0000 -18.0000 0.0000 -0.0000 -1.0000 0.0000 0.7500 0.5000
0 -6.6536 -16.0632 -4.6587 -0.3696 -0.8924 -0.2588 0.6875 0.5833
0 -0.0000 -17.3867 -4.6587 -0.0000 -0.9659 -0.2588 0.7500 0.5833
r10_ball
0 -0.0000 -18.0000 0.0000 -0.0000 -1.0000 0.0000 0.7500 0.5000
0 -0.0000 -17.3867 -4.6587 -0.0000 -0.9659 -0.2588 0.7500 0.5833
0 6.8883 -16.6298 0.0000 0.3827 -0.9239 0.0000 0.8125 0.5000
r10_ball
0 6.8883 -16.6298 0.0000 0.3827 -0.9239 0.0000 0.8125 0.5000
0 -0.0000 -17.3867 -4.6587 -0.0000 -0.9659 -0.2588 0.7500 0.5833
0 6.6536 -16.0632 -4.6587 0.3696 -0.8924 -0.2588 0.8125 0.5833
r10_ball
0 6.8883 -16.6298 0.0000 0.3827 -0.9239 0.0000 0.8125 0.5000
0 6.6536 -16.0632 -4.6587 0.3696 -0.8924 -0.2588 0.8125 0.5833
0 12.7279 -12.7279 0.0000 0.7071 -0.7071 0.0000 0.8750 0.5000
r10_ball
0 12.7279 -12.7279 0.0000 0.7071 -0.7071 0.0000 0.8750 0.5000
0 6.6536 -16.0632 -4.6587 0.3696 -0.8924 -0.2588 0.8125 0.5833
0 12.2942 -12.2942 -4.6587 0.6830 -0.6830 -0.2588 0.8750 0.5833
r10_ball
0 12.7279 -12.7279 0.0000 0.7071 -0.7071 0.0000 0.8750 0.5000
0 12.2942 -12.2942 -4.6587 0.6830 -0.6830 -0.2588 0.8750 0.5833
0 16.6298 -6.8883 0.0000 0.9239 -0.3827 0.0000 0.9375 0.5000
r10_ball
0 16.6298 -6.8883 0.0000 0.9239 -0.3827 0.0000 0.9375 0.5000
0 12.2942 -12.2942 -4.6587 0.6830 -0.6830 -0.2588 0.8750 0.5833
0 16.0632 -6.6536 -4.6587 0.8924 -0.3696 -0.2588 0.9375 0.5833
r10_ball
0 16.6298 -6.8883 0.0000 0.9239 -0.3827 0.0000 0.9375 0.5000
0 16.0632 -6.6536 -4.6587 0.8924 -0.3696 -0.2588 0.9375 0.5833
0 18.0000 -0.0000 0.0000 1.0000 -0.0000 0.0000 1.0000 0.5000
r10_ball
0 18.0000 -0.0000 0.0000 1.0000 -0.0000 0.0000 1.0000 0.5000
0 16.0632 -6.6536 -4.6587 0.8924 -0.3696 -0.2588 0.9375 0.5833
0 17.3867 -0.0000 -4.6587 0.9659 -0.0000 -0.2588 1.0000 0.5833
r10_ball
0 17.3867 0.0000 -4.6587 0.9659 0.0000 -0.2588 0.0000 0.5833
0 15.5885 0.0000 -9.0000 0.8660 0.0000 -0.5000 0.0000 0.6667
0 16.0632 6.6536 -4.6587 0.8924 0.3696 -0.2588 0.0625 0.5833
r10_ball
0 16.0632 6.6536 -4.6587 0.8924 0.3696 -0.2588 0.0625 0.5833
0 15.5885 0.0000 -9.0000 0.8660 0.0000 -0.5000 0.0000 0.6667
0 14.4019 5.9654 -9.0000 0.8001 0.3314 -0.5000 0.0625 0.6667
r10_ball
0 16.0632 6.6536 -4.6587 0.8924 0.3696 -0.2588 0.0625 0.5833
0 14.4019 5.9654 -9.0000 0.8001 0.3314 -0.5000 0.0625 0.6667
0 12.2942 12.2942 -4.6587 0.6830 0.6830 -0.2588 0.1250 0.5833
r10_ball
0 12.2942 12.2942 -4.6587 0.6830 0.6830 -0.2588 0.1250 0.5833
0 14.4019 5.9654 -9.0000 0.8001 0.3314 -0.5000 0.0625 0.6667
0 11.0227 11.0227 -9.0000 0.6124 0.6124 -0.5000 0.1250 0.6667
r10_ball
0 12.2942 12.2942 -4.6587 0.6830 0.6830 -0.2588 0.1250 0.5833
0 11.0227 11.0227 -9.0000 0.6124 0.6124 -0.5000 0.1250 0.6667
0 6.6536 16.0632 -4.6587 0.3696 0.8924 -0.2588 0.1875 0.5833
r10_ball
0 6.6536 16.0632 -4.6587 0.3696 0.8924 -0.2588 0.1875 0.5833
0 11.0227 11.0227 -9.0000 0.6124 0.6124 -0.5000 0.1250 0.6667
0 5.9654 14.4019 -9.0000 0.3314 0.8001 -0.5000 0.1875 0.6667
r10_ball
0 6.6536 16.0632 -4.6587 0.3696 0.8924 -0.2588 0.1875 0.5833
0 5.9654 14.4019 -9.0000 0.3314 0.8001 -0.5000 0.1875 0.6667
0 0.0000 17.3867 -4.6587 0.0000 0.9659 -0.2588 0.2500 0.5833
r10_ball
0 0.0000 17.3867 -4.6587 0.0000 0.9659 -0.2588 0.2500 0.5833
0 5.9654 14.4019 -9.0000 0.3314 0.8001 -0.5000 0.1875 0.6667
0 0.0000 15.5885 -9.0000 0.0000 0.8660 -0.5000 0.2500 0.6667
r10_ball
0 0.0000 17.3867 -4.6587 0.0000 0.9659 -0.2588 0.2500 0.5833
0 0.0000 15.5885 -9.0000 0.0000 0.8660 -0.5000 0.2500 0.6667
0 -6.6536 16.0632 -4.6587 -0.3696 0.8924 -0.2588 0.3125 0.5833
r10_ball
0 -6.6536 16.0632 -4.6587 -0.3696 0.8924 -0.2588 0.3125 0.5833
0 0.0000 15.5885 -9.0000 0.0000 0.8660 -0.5000 0.2500 0.6667
0 -5.9654 14.4019 -9.0000 -0.3314 0.8001 -0.5000 0.3125 0.6667
r10_ball
0 -6.6536 16.0632 -4.6587 -0.3696 0.8924 -0.2588 0.3125 0.5833
0 -5.9654 14.4019 -9.0000 -0.3314 0.8001 -0.5000 0.3125 0.6667
0 -12.2942 12.2942 -4.6587 -0.6830 0.6830 -0.2588 0.3750 0.5833
r10_ball
0 -12.2942 12.2942 -4.6587 -0.6830 0.6830 -0.2588 0.3750 0.5833
0 -5.9654 14.4019 -9.0000 -0.3314 0.8001 -0.5000 0.3125 0.6667
0 -11.0227 11.0227 -9.0000 -0.6124 0.6124 -0.5000 0.3750 0.6667
r10_ball
0 -12.2942 12.2942 -4.6587 -0.6830 0.6830 -0.2588 0.3750 0.5833
0 -11.0227 11.0227 -9.0000 -0.6124 0.6124 -0.5000 0.3750 0.6667
0 -16.0632 6.6536 -4.6587 -0.8924 0.3696 -0.2588 0.4375 0.5833
r10_ball
0 -16.0632 6.6536 -4.6587 -0.8924 0.3696 -0.2588 0.4375 0.5833
0 -11.0227 11.0227 -9.0000 -0.6124 0.6124 -0.5000 0.3750 0.6667
0 -14.4019 5.9654 -9.0000 -0.8001 0.3314 -0.5000 0.4375 0.6667
r10_ball
0 -16.0632 6.6536 -4.6587 -0.8924 0.3696 -0.2588 0.4375 0.5833
0 -14.4019 5.9654 -9.0000 -0.8001 0.3314 -0.5000 0.4375 0.6667
0 -17.3867 0.0000 -4.6587 -0.9659 0.0000 -0.2588 0.5000 0.5833
r10_ball
0 -17.3867 0.0000 -4.6587 -0.9659 0.0000 -0.2588 0.5000 0.5833
0 -14.4019 5.9654 -9.0000 -0.8001 0.3314 -0.5000 0.4375 0.6667
0 -15.5885 0.0000 -9.0000 -0.8660 0.0000 -0.5000 0.5000 0.6667
r10_ball
0 -17.3867 0.0000 -4.6587 -0.9659 0.0000 -0.2588 0.5000 0.5833
0 -15.5885 0.0000 -9.0000 -0.8660 0.0000 -0.5000 0.5000 0.6667
0 -16.0632 -6.6536 -4.6587 -0.8924 -0.3696 -0.2588 0.5625 0.5833
r10_ball
0 -16.0632 -6.6536 -4.6587 -0.8924 -0.3696 -0.2588 0.5625 0.5833
0 -15.5885 0.0000 -9.0000 -0.8660 0.0000 -0.5000 0.5000 0.6667
0 -14.4019 -5.9654 -9.0000 -0.8001 -0.3314 -0.5000 0.5625 0.6667
r10_ball
0 -16.0632 -6.6536 -4.6587 -0.8924 -0.3696 -0.2588 0.5625 0.5833
0 -14.4019 -5.9654 -9.0000 -0.8001 -0.3314 -0.5000 0.5625 0.6667
0 -12.2942 -12.2942 -4.6587 -0.6830 -0.6830 -0.2588 0.6250 0.5833
r10_ball
0 -12.2942 -12.2942 -4.6587 -0.6830 -0.6830 -0.2588 0.6250 0.5833
0 -14.4019 -5.9654 -9.0000 -0.8001 -0.3314 -0.5000 0.5625 0.6667
0 -11.0227 -11.0227 -9.0000 -0.6124 -0.6124 -0.5000 0.6250 0.6667
r10_ball
0 -12.2942 -12.2942 -4.6587 -0.6830 -0.6830 -0.2588 0.6250 0.5833
0 -11.0227 -11.0227 -9.0000 -0.6124 -0.6124 -0.5000 0.6250 0.6667
0 -6.6536 -16.0632 -4.6587 -0.3696 -0.8924 -0.2588 0.6875 0.5833
r10_ball
0 -6.6536 -16.0632 -4.6587 -0.3696 -0.8924 -0.2588 0.6875 0.5833
0 -11.0227 -11.0227 -9.0000 -0.6124 -0.6124 -0.5000 0.6250 0.6667
0 -5.9654 -14.4019 -9.0000 -0.3314 -0.8001 -0.5000 0.6875 0.6667
r10_ball
0 -6.6536 -16.0632 -4.6587 -0.3696 -0.8924 -0.2588 0.6875 0.5833
0 -5.9654 -14.4019 -9.0000 -0.3314 -0.8001 -0.5000 0.6875 0.6667
0 -0.0000 -17.3867 -4.6587 -0.0000 -0.9659 -0.2588 0.7500 0.5833
r10_ball
0 -0.0000 -17.3867 -4.6587 -0.0000 -0.9659 -0.2588 0.7500 0.5833
0 -5.9654 -14.4019 -9.0000 -0.3314 -0.8001 -0.5000 0.6875 0.6667
0 -0.0000 -15.5885 -9.0000 -0.0000 -0.8660 -0.5000 0.7500 0.6667
r10_ball
0 -0.0000 -17.3867 -4.6587 -0.0000 -0.9659 -0.2588 0.7500 0.5833
0 -0.0000 -15.5885 -9.0000 -0.0000 -0.8660 -0.5000 0.7500 0.6667
0 6.6536 -16.0632 -4.6587 0.3696 -0.8924 -0.2588 0.8125 0.5833
r10_ball
0 6.6536 -16.0632 -4.6587 0.3696 -0.8924 -0.2588 0.8125 0.5833
0 -0.0000 -15.5885 -9.0000 -0.0000 -0.8660 -0.5000 0.7500 0.6667
0 5.9654 -14.4019 -9.0000 0.3314 -0.8001 -0.5000 0.8125 0.6667
r10_ball
0 6.6536 -16.0632 -4.6587 0.3696 -0.8924 -0.2588 0.8125 0.5833
0 5.9654 -14.4019 -9.0000 0.3314 -0.8001 -0.5000 0.8125 0.6667
0 12.2942 -12.2942 -4.6587 0.6830 -0.6830 -0.2588 0.8750 0.5833
r10_ball
0 12.2942 -12.2942 -4.6587 0.6830 -0.6830 -0.2588 0.8750 0.5833
0 5.9654 -14.4019 -9.0000 0.3314 -0.8001 -0.5000 0.8125 0.6667
0 11.0227 -11.0227 -9.0000 0.6124 -0.6124 -0.5000 0.8750 0.6667
r10_ball
0 12.2942 -12.2942 -4.6587 0.6830 -0.6830 -0.2588 0.8750 0.5833
0 11.0227 -11.0227 -9.0000 0.6124 -0.6124 -0.5000 0.8750 0.6667
0 16.0632 -6.6536 -4.6587 0.8924 -0.3696 -0.2588 0.9375 0.5833
r10_ball
0 16.0632 -6.6536 -4.6587 0.8924 -0.3696 -0.2588 0.9375 0.5833
0 11.0227 -11.0227 -9.0000 0.6124 -0.6124 -0.5000 0.8750 0.6667
0 14.4019 -5.9654 -9.0000 0.8001 -0.3314 -0.5000 0.9375 0.6667
r10_ball
0 16.0632 -6.6536 -4.6587 0.8924 -0.3696 -0.2588 0.9375 0.5833
0 14.4019 -5.9654 -9.0000 0.8001 -0.3314 -0.5000 0.9375 0.6667
0 17.3867 -0.0000 -4.6587 0.9659 -0.0000 -0.2588 1.0000 0.5833
r10_ball
0 17.3867 -0.0000 -4.6587 0.9659 -0.0000 -0.2588 1.0000 0.5833
0 14.4019 -5.9654 -9.0000 0.8001 -0.3314 -0.5000 0.9375 0.6667
0 15.5885 -0.0000 -9.0000 0.8660 -0.0000 -0.5000 1.0000 0.6667
r10_ball
0 15.5885 0.0000 -9.0000 0.8660 0.0000 -0.5000 0.0000 0.6667
0 12.7279 0.0000 -12.7279 0.7071 0.0000 -0.7071 0.0000 0.7500
0 14.4019 5.9654 -9.0000 0.8001 0.3314 -0.5000 0.0625 0.6667
r10_ball
0 14.4019 5.9654 -9.0000 0.8001 0.3314 -0.5000 0.0625 0.6667
0 12.7279 0.0000 -12.7279 0.7071 0.0000 -0.7071 0.0000 0.7500
0 11.7591 4.8708 -12.7279 0.6533 0.2706 -0.7071 0.0625 0.7500
r10_ball
0 14.4019 5.9654 -9.0000 0.8001 0.3314 -0.5000 0.0625 0.6667
0 11.7591 4.8708 -12.7279 0.6533 0.2706 -0.7071 0.0625 0.7500
0 11.0227 11.0227 -9.0000 0.6124 0.6124 -0.5000 0.1250 0.6667
r10_ball
0 11.0227 11.0227 -9.0000 0.6124 0.6124 -0.5000 0.1250 0.6667
0 11.7591 4.8708 -12.7279 0.6533 0.2706 -0.7071 0.0625 0.7500
0 9.0000 9.0000 -12.7279 0.5000 0.5000 -0.7071 0.1250 0.7500
r10_ball
0 11.0227 11.0227 -9.0000 0.6124 0.6124 -0.5000 0.1250 0.6667
0 9.0000 9.0000 -12.7279 0.5000 0.5000 -0.7071 0.1250 0.7500
0 5.9654 14.4019 -9.0000 0.3314 0.8001 -0.5000 0.1875 0.6667
r10_ball
0 5.9654 14.4019 -9.0000 0.3314 0.8001 -0.5000 0.1875 0.6667
0 9.0000 9.0000 -12.7279 0.5000 0.5000 -0.7071 0.1250 0.7500
0 4.8708 11.7591 -12.7279 0.2706 0.6533 -0.7071 0.1875 0.7500
r10_ball
0 5.9654 14.4019 -9.0000 0.3314 0.8001 -0.5000 0.1875 0.6667
0 4.8708 11.7591 -12.7279 0.2706 0.6533 -0.7071 0.1875 0.7500
0 0.0000 15.5885 -9.0000 0.0000 0.8660 -0.5000 0.2500 0.6667
r10_ball
0 0.0000 15.5885 -9.0000 0.0000 0.8660 -0.5000 0.2500 0.6667
0 4.8708 11.7591 -12.7279 0.2706 0.6533 -0.7071 0.1875 0.7500
0 0.0000 12.7279 -12.7279 0.0000 0.7071 -0.7071 0.2500 0.7500
r10_ball
0 0.0000 15.5885 -9.0000 0.0000 0.8660 -0.5000 0.2500 0.6667
0 0.0000 12.7279 -12.7279 0.0000 0.7071 -0.7071 0.2500 0.7500
0 -5.9654 14.4019 -9.0000 -0.3314 0.8001 -0.5000 0.3125 0.6667
r10_ball
0 -5.9654 14.4019 -9.0000 -0.3314 0.8001 -0.5000 0.3125 0.6667
0 0.0000 12.7279 -12.7279 0.0000 0.7071 -0.7071 0.2500 0.7500
0 -4.8708 11.7591 -12.7279 -0.2706 0.6533 -0.7071 0.3125 0.7500
r10_ball
0 -5.9654 14.4019 -9.0000 -0.3314 0.8001 -0.5000 0.3125 0.6667
0 -4.8708 11.7591 -12.7279 -0.2706 0.6533 -0.7071 0.3125 0.7500
0 -11.0227 11.0227 -9.0000 -0.6124 0.6124 -0.5000 0.3750 0.6667
r10_ball
0 -11.0227 11.0227 -9.0000 -0.6124 0.6124 -0.5000 0.3750 0.6667
0 -4.8708 11.7591 -12.7279 -0.2706 0.6533 -0.7071 0.3125 0.7500
0 -9.0000 9.0000 -12.7279 -0.5000 0.5000 -0.7071 0.3750 0.7500
r10_ball
0 -11.0227 11.0227 -9.0000 -0.6124 0.6124 -0.5000 0.3750 0.6667
0 -9.0000 9.0000 -12.7279 -0.5000 0.5000 -0.7071 0.3750 0.7500
0 -14.4019 5.9654 -9.0000 -0.8001 0.3314 -0.5000 0.4375 0.6667
r10_ball
0 -14.4019 5.9654 -9.0000 -0.8001 0.3314 -0.5000 0.4375 0.6667
0 -9.0000 9.0000 -12.7279 -0.5000 0.5000 -0.7071 0.3750 0.7500
0 -11.7591 4.8708 -12.7279 -0.6533 0.2706 -0.7071 0.4375 0.7500
r10_ball
0 -14.4019 5.9654 -9.0000 -0.8001 0.3314 -0.5000 0.4375 0.6667
0 -11.7591 4.8708 -12.7279 -0.6533 0.2706 -0.7071 0.4375 0.7500
0 -15.5885 0.0000 -9.0000 -0.8660 0.0000 -0.5000 0.5000 0.6667
r10_ball
0 -15.5885 0.0000 -9.0000 -0.8660 0.0000 -0.5000 0.5000 0.6667
0 -11.7591 4.8708 -12.7279 -0.6533 0.2706 -0.7071 0.4375 0.7500
0 -12.7279 0.0000 -12.7279 -0.7071 0.0000 -0.7071 0.5000 0.7500
r10_ball
0 -15.5885 0.0000 -9.0000 -0.8660 0.0000 -0.5000 0.5000 0.6667
0 -12.7279 0.0000 -12.7279 -0.7071 0.0000 -0.7071 0.5000 0.7500
0 -14.4019 -5.9654 -9.0000 -0.8001 -0.3314 -0.5000 0.5625 0.6667
r10_ball
0 -14.4019 -5.9654 -9.0000 -0.8001 -0.3314 -0.5000 0.5625 0.6667
0 -12.7279 0.0000 -12.7279 -0.7071 0.0000 -0.7071 0.5000 0.7500
0 -11.7591 -4.8708 -12.7279 -0.6533 -0.2706 -0.7071 0.5625 0.7500
r10_ball
0 -14.4019 -5.9654 -9.0000 -0.8001 -0.3314 -0.5000 0.5625 0.6667
0 -11.7591 -4.8708 -12.7279 -0.6533 -0.2706 -0.7071 0.5625 0.7500
0 -11.0227 -11.0227 -9.0000 -0.6124 -0.6124 -0.5000 0.6250 0.6667
r10_ball
0 -11.0227 -11.0227 -9.0000 -0.6124 -0.6124 -0.5000 0.6250 0.6667
0 -11.7591 -4.8708 -12.7279 -0.6533 -0.2706 -0.7071 0.5625 0.7500
0 -9.0000 -9.0000 -12.7279 -0.5000 -0.5000 -0.7071 0.6250 0.7500
r10_ball
0 -11.0227 -11.0227 -9.0000 -0.6124 -0.6124 -0.5000 0.6250 0.6667
0 -9.0000 -9.0000 -12.7279 -0.5000 -0.5000 -0.7071 0.6250 0.7500
0 -5.9654 -14.4019 -9.0000 -0.3314 -0.8001 -0.5000 0.6875 0.6667
r10_ball
0 -5.9654 -14.4019 -9.0000 -0.3314 -0.8001 -0.5000 0.6875 0.6667
0 -9.0000 -9.0000 -12.7279 -0.5000 -0.5000 -0.7071 0.6250 0.7500
0 -4.8708 -11.7591 -12.7279 -0.2706 -0.6533 -0.7071 0.6875 0.7500
r10_ball
0 -5.9654 -14.4019 -9.0000 -0.3314 -0.8001 -0.5000 0.6875 0.6667
0 -4.8708 -11.7591 -12.7279 -0.2706 -0.6533 -0.7071 0.6875 0.7500
0 -0.0000 -15.5885 -9.0000 -0.0000 -0.8660 -0.5000 0.7500 0.6667
r10_ball
0 -0.0000 -15.5885 -9.0000 -0.0000 -0.8660 -0.5000 0.7500 0.6667
0 -4.8708 -11.7591 -12.7279 -0.2706 -0.6533 -0.7071 0.6875 0.7500
0 -0.0000 -12.7279 -12.7279 -0.0000 -0.7071 -0.7071 0.7500 0.7500
r10_ball
0 -0.0000 -15.5885 -9.0000 -0.0000 -0.8660 -0.5000 0.7500 0.6667
0 -0.0000 -12.7279 -12.7279 -0.0000 -0.7071 -0.7071 0.7500 0.7500
0 5.9654 -14.4019 -9.0000 0.3314 -0.8001 -0.5000 0.8125 0.6667
r10_ball
0 5.9654 -14.4019 -9.0000 0.3314 -0.8001 -0.5000 0.8125 0.6667
0 -0.0000 -12.7279 -12.7279 -0.0000 -0.7071 -0.7071 0.7500 0.7500
0 4.8708 -11.7591 -12.7279 0.2706 -0.6533 -0.7071 0.8125 0.7500
r10_ball
0 5.9654 -14.4019 -9.0000 0.3314 -0.8001 -0.5000 0.8125 0.6667
0 4.8708 -11.7591 -12.7279 0.2706 -0.6533 -0.7071 0.8125 0.7500
0 11.0227 -11.0227 -9.0000 0.6124 -0.6124 -0.5000 0.8750 0.6667
r10_ball
0 11.0227 -11.0227 -9.0000 0.6124 -0.6124 -0.5000 0.8750 0.6667
0 4.8708 -11.7591 -12.7279 0.2706 -0.6533 -0.7071 0.8125 0.7500
0 9.0000 -9.0000 -12.7279 0.5000 -0.5000 -0.7071 0.8750 0.7500
r10_ball
0 11.0227 -11.0227 -9.0000 0.6124 -0.6124 -0.5000 0.8750 0.6667
0 9.0000 -9.0000 -12.7279 0.5000 -0.5000 -0.7071 0.8750 0.7500
0 14.4019 -5.9654 -9.0000 0.8001 -0.3314 -0.5000 0.9375 0.6667
r10_ball
0 14.4019 -5.9654 -9.0000 0.8001 -0.3314 -0.5000 0.9375 0.6667
0 9.0000 -9.0000 -12.7279 0.5000 -0.5000 -0.7071 0.8750 0.7500
0 11.7591 -4.8708 -12.7279 0.6533 -0.2706 -0.7071 0.9375 0.7500
r10_ball
0 14.4019 -5.9654 -9.0000 0.8001 -0.3314 -0.5000 0.9375 0.6667
0 11.7591 -4.8708 -12.7279 0.6533 -0.2706 -0.7071 0.9375 0.7500
0 15.5885 -0.0000 -9.0000 0.8660 -0.0000 -0.5000 1.0000 0.6667
r10_ball
0 15.5885 -0.0000 -9.0000 0.8660 -0.0000 -0.5000 1.0000 0.6667
0 11.7591 -4.8708 -12.7279 0.6533 -0.2706 -0.7071 0.9375 0.7500
0 12.7279 -0.0000 -12.7279 0.7071 -0.0000 -0.7071 1.0000 0.7500
r10_ball
0 12.7279 0.0000 -12.7279 0.7071 0.0000 -0.7071 0.0000 0.7500
0 9.0000 0.0000 -15.5885 0.5000 0.0000 -0.8660 0.0000 0.8333
0 11.7591 4.8708 -12.7279 0.6533 0.2706 -0.7071 0.0625 0.7500
r10_ball
0 11.7591 4.8708 -12.7279 0.6533 0.2706 -0.7071 0.0625 0.7500
0 9.0000 0.0000 -15.5885 0.5000 0.0000 -0.8660 0.0000 0.8333
0 8.3149 3.4442 -15.5885 0.4619 0.1913 -0.8660 0.0625 0.8333
r10_ball
0 11.7591 4.8708 -12.7279 0.6533 0.2706 -0.7071 0.0625 0.7500
0 8.3149 3.4442 -15.5885 0.4619 0.1913 -0.8660 0.0625 0.8333
0 9.0000 9.0000 -12.7279 0.5000 0.5000 -0.7071 0.1250 0.7500
r10_ball
0 9.0000 9.0000 -12.7279 0.5000 0.5000 -0.7071 0.1250 0.7500
0 8.3149 3.4442 -15.5885 0.4619 0.1913 -0.8660 0.0625 0.8333
0 6.3640 6.3640 -15.5885 0.3536 0.3536 -0.8660 0.1250 0.8333
r10_ball
0 9.0000 9.0000 -12.7279 0.5000 0.5000 -0.7071 0.1250 0.7500
0 6.3640 6.3640 -15.5885 0.3536 0.3536 -0.8660 0.1250 0.8333
0 4.8708 11.7591 -12.7279 0.2706 0.6533 -0.7071 0.1875 0.7500
r10_ball
0 4.8708 11.7591 -12.7279 0.2706 0.6533 -0.7071 0.1875 0.7500
0 6.3640 6.3640 -15.5885 0.3536 0.3536 -0.8660 0.1250 0.8333
0 3.4442 8.3149 -15.5885 0.1913 0.4619 -0.8660 0.1875 0.8333
r10_ball
0 4.8708 11.7591 -12.7279 0.2706 0.6533 -0.7071 0.1875 0.7500
0 3.4442 8.3149 -15.5885 0.1913 0.4619 -0.8660 0.1875 0.8333
0 0.0000 12.7279 -12.7279 0.0000 0.7071 -0.7071 0.2500 0.7500
r10_ball
0 0.0000 12.7279 -12.7279 0.0000 0.7071 -0.7071 0.2500 0.7500
0 3.4442 8.3149 -15.5885 0.1913 0.4619 -0.8660 0.1875 0.8333
0 0.0000 9.0000 -15.5885 0.0000 0.5000 -0.8660 0.2500 0.8333
r10_ball
0 0.0000 12.7279 -12.7279 0.0000 0.7071 -0.7071 0.2500 0.7500
0 0.0000 9.0000 -15.5885 0.0000 0.5000 -0.8660 0.2500 0.8333
0 -4.8708 11.7591 -12.7279 -0.2706 0.6533 -0.7071 0.3125 0.7500
r10_ball
0 -4.8708 11.7591 -12.7279 -0.2706 0.6533 -0.7071 0.3125 0.7500
0 0.0000 9.0000 -15.5885 0.0000 0.5000 -0.8660 0.2500 0.8333
0 -3.4442 8.3149 -15.5885 -0.1913 0.4619 -0.8660 0.3125 0.8333
r10_ball
0 -4.8708 11.7591 -12.7279 -0.2706 0.6533 -0.7071 0.3125 0.7500
0 -3.4442 8.3149 -15.5885 -0.1913 0.4619 -0.8660 0.3125 0.8333
0 -9.0000 9.0000 -12.7279 -0.5000 0.5000 -0.7071 0.3750 0.7500
r10_ball
0 -9.0000 9.0000 -12.7279 -0.5000 0.5000 -0.7071 0.3750 0.7500
0 -3.4442 8.3149 -15.5885 -0.1913 0.4619 -0.8660 0.3125 0.8333
0 -6.3640 6.3640 -15.5885 -0.3536 0.3536 -0.8660 0.3750 0.8333
r10_ball
0 -9.0000 9.0000 -12.7279 -0.5000 0.5000 -0.7071 0.3750 0.7500
0 -6.3640 6.3640 -15.5885 -0.3536 0.3536 -0.8660 0.3750 0.8333
0 -11.7591 4.8708 -12.7279 -0.6533 0.2706 -0.7071 0.4375 0.7500
r10_ball
0 -11.7591 4.8708 -12.7279 -0.6533 0.2706 -0.7071 0.4375 0.7500
0 -6.3640 6.3640 -15.5885 -0.3536 0.3536 -0.8660 0.3750 0.8333
0 -8.3149 3.4442 -15.5885 -0.4619 0.1913 -0.8660 0.4375 0.8333
r10_ball
0 -11.7591 4.8708 -12.7279 -0.6533 0.2706 -0.7071 0.4375 0.7500
0 -8.3149 3.4442 -15.5885 -0.4619 0.1913 -0.8660 0.4375 0.8333
0 -12.7279 0.0000 -12.7279 -0.7071 0.0000 -0.7071 0.5000 0.7500
r10_ball
0 -12.7279 0.0000 -12.7279 -0.7071 0.0000 -0.7071 0.5000 0.7500
0 -8.3149 3.4442 -15.5885 -0.4619 0.1913 -0.8660 0.4375 0.8333
0 -9.0000 0.0000 -15.5885 -0.5000 0.0000 -0.8660 0.5000 0.8333
r10_ball
0 -12.7279 0.0000 -12.7279 -0.7071 0.0000 -0.7071 0.5000 0.7500
0 -9.0000 0.0000 -15.5885 -0.5000 0.0000 -0.8660 0.5000 0.8333
0 -11.7591 -4.8708 -12.7279 -0.6533 -0.2706 -0.7071 0.5625 0.7500
r10_ball
0 -11.7591 -4.8708 -12.7279 -0.6533 -0.2706 -0.7071 0.5625 0.7500
0 -9.0000 0.0000 -15.5885 -0.5000 0.0000 -0.8660 0.5000 0.8333
0 -8.3149 -3.4442 -15.5885 -0.4619 -0.1913 -0.8660 0.5625 0.8333
r10_ball
0 -11.7591 -4.8708 -12.7279 -0.6533 -0.2706 -0.7071 0.5625 0.7500
0 -8.3149 -3.4442 -15.5885 -0.4619 -0.1913 -0.8660 0.5625 0.8333
0 -9.0000 -9.0000 -12.7279 -0.5000 -0.5000 -0.7071 0.6250 0.7500
r10_ball
0 -9.0000 -9.0000 -12.7279 -0.5000 -0.5000 -0.7071 0.6250 0.7500
0 -8.3149 -3.4442 -15.5885 -0.4619 -0.1913 -0.8660 0.5625 0.8333
0 -6.3640 -6.3640 -15.5885 -0.3536 -0.3536 -0.8660 0.6250 0.8333
r10_ball
0 -9.0000 -9.0000 -12.7279 -0.5000 -0.5000 -0.7071 0.6250 0.7500
0 -6.3640 -6.3640 -15.5885 -0.3536 -0.3536 -0.8660 0.6250 0.8333
0 -4.8708 -11.7591 -12.7279 -0.2706 -0.6533 -0.7071 0.6875 0.7500
r10_ball
0 -4.8708 -11.7591 -12.7279 -0.2706 -0.6533 -0.7071 0.6875 0.7500
0 -6.3640 -6.3640 -15.5885 -0.3536 -0.3536 -0.8660 0.6250 0.8333
0 -3.4442 -8.3149 -15.5885 -0.1913 -0.4619 -0.8660 0.6875 0.8333
r10_ball
0 -4.8708 -11.7591 -12.7279 -0.2706 -0.6533 -0.7071 0.6875 0.7500
0 -3.4442 -8.3149 -15.5885 -0.1913 -0.4619 -0.8660 0.6875 0.8333
0 -0.0000 -12.7279 -12.7279 -0.0000 -0.7071 -0.7071 0.7500 0.7500
r10_ball
0 -0.0000 -12.7279 -12.7279 -0.0000 -0.7071 -0.7071 0.7500 0.7500
0 -3.4442 -8.3149 -15.5885 -0.1913 -0.4619 -0.8660 0.6875 0.8333
0 -0.0000 -9.0000 -15.5885 -0.0000 -0.5000 -0.8660 0.7500 0.8333
r10_ball
0 -0.0000 -12.7279 -12.7279 -0.0000 -0.7071 -0.7071 0.7500 0.7500
0 -0.0000 -9.0000 -15.5885 -0.0000 -0.5000 -0.8660 0.7500 0.8333
0 4.8708 -11.7591 -12.7279 0.2706 -0.6533 -0.7071 0.8125 0.7500
r10_ball
0 4.8708 -11.7591 -12.7279 0.2706 -0.6533 -0.7071 0.8125 0.7500
0 -0.0000 -9.0000 -15.5885 -0.0000 -0.5000 -0.8660 0.7500 0.8333
0 3.4442 -8.3149 -15.5885 0.1913 -0.4619 -0.8660 0.8125 0.8333
r10_ball
0 4.8708 -11.7591 -12.7279 0.2706 -0.6533 -0.7071 0.8125 0.7500
0 3.4442 -8.3149 -15.5885 0.1913 -0.4619 -0.8660 0.8125 0.8333
0 9.0000 -9.0000 -12.7279 0.5000 -0.5000 -0.7071 0.8750 0.7500
r10_ball
0 9.0000 -9.0000 -12.7279 0.5000 -0.5000 -0.7071 0.8750 0.7500
0 3.4442 -8.3149 -15.5885 0.1913 -0.4619 -0.8660 0.8125 0.8333
0 6.3640 -6.3640 -15.5885 0.3536 -0.3536 -0.8660 0.8750 0.8333
r10_ball
0 9.0000 -9.0000 -12.7279 0.5000 -0.5000 -0.7071 0.8750 0.7500
0 6.3640 -6.3640 -15.5885 0.3536 -0.3536 -0.8660 0.8750 0.8333
0 11.7591 -4.8708 -12.7279 0.6533 -0.2706 -0.7071 0.9375 0.7500
r10_ball
0 11.7591 -4.8708 -12.7279 0.6533 -0.2706 -0.7071 0.9375 0.7500
0 6.3640 -6.3640 -15.5885 0.3536 -0.3536 -0.8660 0.8750 0.8333
0 8.3149 -3.4442 -15.5885 0.4619 -0.1913 -0.8660 0.9375 0.8333
r10_ball
0 11.7591 -4.8708 -12.7279 0.6533 -0.2706 -0.7071 0.9375 0.7500
0 8.3149 -3.4442 -15.5885 0.4619 -0.1913 -0.8660 0.9375 0.8333
0 12.7279 -0.0000 -12.7279 0.7071 -0.0000 -0.7071 1.0000 0.7500
r10_ball
0 12.7279 -0.0000 -12.7279 0.7071 -0.0000 -0.7071 1.0000 0.7500
0 8.3149 -3.4442 -15.5885 0.4619 -0.1913 -0.8660 0.9375 0.8333
0 9.0000 -0.0000 -15.5885 0.5000 -0.0000 -0.8660 1.0000 0.8333
r10_ball
0 9.0000 0.0000 -15.5885 0.5000 0.0000 -0.8660 0.0000 0.8333
0 4.6587 0.0000 -17.3867 0.2588 0.0000 -0.9659 0.0000 0.9167
0 8.3149 3.4442 -15.5885 0.4619 0.1913 -0.8660 0.0625 0.8333
r10_ball
0 8.3149 3.4442 -15.5885 0.4619 0.1913 -0.8660 0.0625 0.8333
0 4.6587 0.0000 -17.3867 0.2588 0.0000 -0.9659 0.0000 0.9167
0 4.3041 1.7828 -17.3867 0.2391 0.0990 -0.9659 0.0625 0.9167
r10_ball
0 8.3149 3.4442 -15.5885 0.4619 0.1913 -0.8660 0.0625 0.8333
0 4.3041 1.7828 -17.3867 0.2391 0.0990 -0.9659 0.0625 0.9167
0 6.3640 6.3640 -15.5885 0.3536 0.3536 -0.8660 0.1250 0.8333
r10_ball
0 6.3640 6.3640 -15.5885 0.3536 0.3536 -0.8660 0.1250 0.8333
0 4.3041 1.7828 -17.3867 0.2391 0.0990 -0.9659 0.0625 0.9167
0 3.2942 3.2942 -17.3867 0.1830 0.1830 -0.9659 0.1250 0.9167
r10_ball
0 6.3640 6.3640 -15.5885 0.3536 0.3536 -0.8660 0.1250 0.8333
0 3.2942 3.2942 -17.3867 0.1830 0.1830 -0.9659 0.1250 0.9167
0 3.4442 8.3149 -15.5885 0.1913 0.4619 -0.8660 0.1875 0.8333
r10_ball
0 3.4442 8.3149 -15.5885 0.1913 0.4619 -0.8660 0.1875 0.8333
0 3.2942 3.2942 -17.3867 0.1830 0.1830 -0.9659 0.1250 0.9167
0 1.7828 4.3041 -17.3867 0.0990 0.2391 -0.9659 0.1875 0.9167
r10_ball
0 3.4442 8.3149 -15.5885 0.1913 0.4619 -0.8660 0.1875 0.8333
0 1.7828 4.3041 -17.3867 0.0990 0.2391 -0.9659 0.1875 0.9167
0 0.0000 9.0000 -15.5885 0.0000 0.5000 -0.8660 0.2500 0.8333
r10_ball
0 0.0000 9.0000 -15.5885 0.0000 0.5000 -0.8660 0.2500 0.8333
0 1.7828 4.3041 -17.3867 0.0990 0.2391 -0.9659 0.1875 0.9167
0 0.0000 4.6587 -17.3867 0.0000 0.2588 -0.9659 0.2500 0.9167
r10_ball
0 0.0000 9.0000 -15.5885 0.0000 0.5000 -0.8660 0.2500 0.8333
0 0.0000 4.6587 -17.3867 0.0000 0.2588 -0.9659 0.2500 0.9167
0 -3.4442 8.3149 -15.5885 -0.1913 0.4619 -0.8660 0.3125 0.8333
r10_ball
0 -3.4442 8.3149 -15.5885 -0.1913 0.4619 -0.8660 0.3125 0.8333
0 0.0000 4.6587 -17.3867 0.0000 0.2588 -0.9659 0.2500 0.9167
0 -1.7828 4.3041 -17.3867 -0.0990 0.2391 -0.9659 0.3125 0.9167
r10_ball
0 -3.4442 8.3149 -15.5885 -0.1913 0.4619 -0.8660 0.3125 0.8333
0 -1.7828 4.3041 -17.3867 -0.0990 0.2391 -0.9659 0.3125 0.9167
0 -6.3640 6.3640 -15.5885 -0.3536 0.3536 -0.8660 0.3750 0.8333
r10_ball
0 -6.3640 6.3640 -15.5885 -0.3536 0.3536 -0.8660 0.3750 0.8333
0 -1.7828 4.3041 -17.3867 -0.0990 0.2391 -0.9659 0.3125 0.9167
0 -3.2942 3.2942 -17.3867 -0.1830 0.1830 -0.9659 0.3750 0.9167
r10_ball
0 -6.3640 6.3640 -15.5885 -0.3536 0.3536 -0.8660 0.3750 0.8333
0 -3.2942 3.2942 -17.3867 -0.1830 0.1830 -0.9659 0.3750 0.9167
0 -8.3149 3.4442 -15.5885 -0.4619 0.1913 -0.8660 0.4375 0.8333
r10_ball
0 -8.3149 3.4442 -15.5885 -0.4619 0.1913 -0.8660 0.4375 0.8333
0 -3.2942 3.2942 -17.3867 -0.1830 0.1830 -0.9659 0.3750 0.9167
0 -4.3041 1.7828 -17.3867 -0.2391 0.0990 -0.9659 0.4375 0.9167
r10_ball
0 -8.3149 3.4442 -15.5885 -0.4619 0.1913 -0.8660 0.4375 0.8333
0 -4.3041 1.7828 -17.3867 -0.2391 0.0990 -0.9659 0.4375 0.9167
0 -9.0000 0.0000 -15.5885 -0.5000 0.0000 -0.8660 0.5000 0.8333
r10_ball
0 -9.0000 0.0000 -15.5885 -0.5000 0.0000 -0.8660 0.5000 0.8333
0 -4.3041 1.7828 -17.3867 -0.2391 0.0990 -0.9659 0.4375 0.9167
0 -4.6587 0.0000 -17.3867 -0.2588 0.0000 -0.9659 0.5000 0.9167
r10_ball
0 -9.0000 0.0000 -15.5885 -0.5000 0.0000 -0.8660 0.5000 0.8333
0 -4.6587 0.0000 -17.3867 -0.2588 0.0000 -0.9659 0.5000 0.9167
0 -8.3149 -3.4442 -15.5885 -0.4619 -0.1913 -0.8660 0.5625 0.8333
r10_ball
0 -8.3149 -3.4442 -15.5885 -0.4619 -0.1913 -0.8660 0.5625 0.8333
0 -4.6587 0.0000 -17.3867 -0.2588 0.0000 -0.9659 0.5000 0.9167
0 -4.3041 -1.7828 -17.3867 -0.2391 -0.0990 -0.9659 0.5625 0.9167
r10_ball
0 -8.3149 -3.4442 -15.5885 -0.4619 -0.1913 -0.8660 0.5625 0.8333
0 -4.3041 -1.7828 -17.3867 -0.2391 -0.0990 -0.9659 0.5625 0.9167
0 -6.3640 -6.3640 -15.5885 -0.3536 -0.3536 -0.8660 0.6250 0.8333
r10_ball
0 -6.3640 -6.3640 -15.5885 -0.3536 -0.3536 -0.8660 0.6250 0.8333
0 -4.3041 -1.7828 -17.3867 -0.2391 -0.0990 -0.9659 0.5625 0.9167
0 -3.2942 -3.2942 -17.3867 -0.1830 -0.1830 -0.9659 0.6250 0.9167
r10_ball
0 -6.3640 -6.3640 -15.5885 -0.3536 -0.3536 -0.8660 0.6250 0.8333
0 -3.2942 -3.2942 -17.3867 -0.1830 -0.1830 -0.9659 0.6250 0.9167
0 -3.4442 -8.3149 -15.5885 -0.1913 -0.4619 -0.8660 0.6875 0.8333
r10_ball
0 -3.4442 -8.3149 -15.5885 -0.1913 -0.4619 -0.8660 0.6875 0.8333
0 -3.2942 -3.2942 -17.3867 -0.1830 -0.1830 -0.9659 0.6250 0.9167
0 -1.7828 -4.3041 -17.3867 -0.0990 -0.2391 -0.9659 0.6875 0.9167
r10_ball
0 -3.4442 -8.3149 -15.5885 -0.1913 -0.4619 -0.8660 0.6875 0.8333
0 -1.7828 -4.3041 -17.3867 -0.0990 -0.2391 -0.9659 0.6875 0.9167
0 -0.0000 -9.0000 -15.5885 -0.0000 -0.5000 -0.8660 0.7500 0.8333
r10_ball
0 -0.0000 -9.0000 -15.5885 -0.0000 -0.5000 -0.8660 0.7500 0.8333
0 -1.7828 -4.3041 -17.3867 -0.0990 -0.2391 -0.9659 0.6875 0.9167
0 -0.0000 -4.6587 -17.3867 -0.0000 -0.2588 -0.9659 0.7500 0.9167
r10_ball
0 -0.0000 -9.0000 -15.5885 -0.0000 -0.5000 -0.8660 0.7500 0.8333
0 -0.0000 -4.6587 -17.3867 -0.0000 -0.2588 -0.9659 0.7500 0.9167
0 3.4442 -8.3149 -15.5885 0.1913 -0.4619 -0.8660 0.8125 0.8333
r10_ball
0 3.4442 -8.3149 -15.5885 0.1913 -0.4619 -0.8660 0.8125 0.8333
0 -0.0000 -4.6587 -17.3867 -0.0000 -0.2588 -0.9659 0.7500 0.9167
0 1.7828 -4.3041 -17.3867 0.0990 -0.2391 -0.9659 0.8125 0.9167
r10_ball
0 3.4442 -8.3149 -15.5885 0.1913 -0.4619 -0.8660 0.8125 0.8333
0 1.7828 -4.3041 -17.3867 0.0990 -0.2391 -0.9659 0.8125 0.9167
0 6.3640 -6.3640 -15.5885 0.3536 -0.3536 -0.8660 0.8750 0.8333
r10_ball
0 6.3640 -6.3640 -15.5885 0.3536 -0.3536 -0.8660 0.8750 0.8333
0 1.7828 -4.3041 -17.3867 0.0990 -0.2391 -0.9659 0.8125 0.9167
0 3.2942 -3.2942 -17.3867 0.1830 -0.1830 -0.9659 0.8750 0.9167
r10_ball
0 6.3640 -6.3640 -15.5885 0.3536 -0.3536 -0.8660 0.8750 0.8333
0 3.2942 -3.2942 -17.3867 0.1830 -0.1830 -0.9659 0.8750 0.9167
0 8.3149 -3.4442 -15.5885 0.4619 -0.1913 -0.8660 0.9375 0.8333
r10_ball
0 8.3149 -3.4442 -15.5885 0.4619 -0.1913 -0.8660 0.9375 0.8333
0 3.2942 -3.2942 -17.3867 0.1830 -0.1830 -0.9659 0.8750 0.9167
0 4.3041 -1.7828 -17.3867 0.2391 -0.0990 -0.9659 0.9375 0.9167
r10_ball
0 8.3149 -3.4442 -15.5885 0.4619 -0.1913 -0.8660 0.9375 0.8333
0 4.3041 -1.7828 -17.3867 0.2391 -0.0990 -0.9659 0.9375 0.9167
0 9.0000 -0.0000 -15.5885 0.5000 -0.0000 -0.8660 1.0000 0.8333
r10_ball
0 9.0000 -0.0000 -15.5885 0.5000 -0.0000 -0.8660 1.0000 0.8333
0 4.3041 -1.7828 -17.3867 0.2391 -0.0990 -0.9659 0.9375 0.9167
0 4.6587 -0.0000 -17.3867 0.2588 -0.0000 -0.9659 1.0000 0.9167
r10_ball
0 4.6587 0.0000 -17.3867 0.2588 0.0000 -0.9659 0.0000 0.9167
0 0.0000 0.0000 -18.0000 0.0000 0.0000 -1.0000 0.0000 1.0000
0 4.3041 1.7828 -17.3867 0.2391 0.0990 -0.9659 0.0625 0.9167
r10_ball
0 4.3041 1.7828 -17.3867 0.2391 0.0990 -0.9659 0.0625 0.9167
0 0.0000 0.0000 -18.0000 0.0000 0.0000 -1.0000 0.0625 1.0000
0 3.2942 3.2942 -17.3867 0.1830 0.1830 -0.9659 0.1250 0.9167
r10_ball
0 3.2942 3.2942 -17.3867 0.1830 0.1830 -0.9659 0.1250 0.9167
0 0.0000 0.0000 -18.0000 0.0000 0.0000 -1.0000 0.1250 1.0000
0 1.7828 4.3041 -17.3867 0.0990 0.2391 -0.9659 0.1875 0.9167
r10_ball
0 1.7828 4.3041 -17.3867 0.0990 0.2391 -0.9659 0.1875 0.9167
0 0.0000 0.0000 -18.0000 0.0000 0.0000 -1.0000 0.1875 1.0000
0 0.0000 4.6587 -17.3867 0.0000 0.2588 -0.9659 0.2500 0.9167
r10_ball
0 0.0000 4.6587 -17.3867 0.0000 0.2588 -0.9659 0.2500 0.9167
0 0.0000 0.0000 -18.0000 0.0000 0.0000 -1.0000 0.2500 1.0000
0 -1.7828 4.3041 -17.3867 -0.0990 0.2391 -0.9659 0.3125 0.9167
r10_ball
0 -1.7828 4.3041 -17.3867 -0.0990 0.2391 -0.9659 0.3125 0.9167
0 -0.0000 0.0000 -18.0000 -0.0000 0.0000 -1.0000 0.3125 1.0000
0 -3.2942 3.2942 -17.3867 -0.1830 0.1830 -0.9659 0.3750 0.9167
r10_ball
0 -3.2942 3.2942 -17.3867 -0.1830 0.1830 -0.9659 0.3750 0.9167
0 -0.0000 0.0000 -18.0000 -0.0000 0.0000 -1.0000 0.3750 1.0000
0 -4.3041 1.7828 -17.3867 -0.2391 0.0990 -0.9659 0.4375 0.9167
r10_ball
0 -4.3041 1.7828 -17.3867 -0.2391 0.0990 -0.9659 0.4375 0.9167
0 -0.0000 0.0000 -18.0000 -0.0000 0.0000 -1.0000 0.4375 1.0000
0 -4.6587 0.0000 -17.3867 -0.2588 0.0000 -0.9659 0.5000 0.9167
r10_ball
0 -4.6587 0.0000 -17.3867 -0.2588 0.0000 -0.9659 0.5000 0.9167
0 -0.0000 0.0000 -18.0000 -0.0000 0.0000 -1.0000 0.5000 1.0000
0 -4.3041 -1.7828 -17.3867 -0.2391 -0.0990 -0.9659 0.5625 0.9167
r10_ball
0 -4.3041 -1.7828 -17.3867 -0.2391 -0.0990 -0.9659 0.5625 0.9167
0 -0.0000 -0.0000 -18.0000 -0.0000 -0.0000 -1.0000 0.5625 1.0000
0 -3.2942 -3.2942 -17.3867 -0.1830 -0.1830 -0.9659 0.6250 0.9167
r10_ball
0 -3.2942 -3.2942 -17.3867 -0.1830 -0.1830 -0.9659 0.6250 0.9167
0 -0.0000 -0.0000 -18.0000 -0.0000 -0.0000 -1.0000 0.6250 1.0000
0 -1.7828 -4.3041 -17.3867 -0.0990 -0.2391 -0.9659 0.6875 0.9167
r10_ball
0 -1.7828 -4.3041 -17.3867 -0.0990 -0.2391 -0.9659 0.6875 0.9167
0 -0.0000 -0.0000 -18.0000 -0.0000 -0.0000 -1.0000 0.6875 1.0000
0 -0.0000 -4.6587 -17.3867 -0.0000 -0.2588 -0.9659 0.7500 0.9167
r10_ball
0 -0.0000 -4.6587 -17.3867 -0.0000 -0.2588 -0.9659 0.7500 0.9167
0 -0.0000 -0.0000 -18.0000 -0.0000 -0.0000 -1.0000 0.7500 1.0000
0 1.7828 -4.3041 -17.3867 0.0990 -0.2391 -0.9659 0.8125 0.9167
r10_ball
0 1.7828 -4.3041 -17.3867 0.0990 -0.2391 -0.9659 0.8125 0.9167
0 0.0000 -0.0000 -18.0000 0.0000 -0.0000 -1.0000 0.8125 1.0000
0 3.2942 -3.2942 -17.3867 0.1830 -0.1830 -0.9659 0.8750 0.9167
r10_ball
0 3.2942 -3.2942 -17.3867 0.1830 -0.1830 -0.9659 0.8750 0.9167
0 0.0000 -0.0000 -18.0000 0.0000 -0.0000 -1.0000 0.8750 1.0000
0 4.3041 -1.7828 -17.3867 0.2391 -0.0990 -0.9659 0.9375 0.9167
r10_ball
0 4.3041 -1.7828 -17.3867 0.2391 -0.0990 -0.9659 0.9375 0.9167
0 0.0000 -0.0000 -18.0000 0.0000 -0.0000 -1.0000 0.9375 1.0000
0 4.6587 -0.0000 -17.3867 0.2588 -0.0000 -0.9659 1.0000 0.9167
end
