version 1
nodes
0 "root" -1
end
skeleton
time 0
0 0 0 0 0 0 0
end
triangles
r10_broken
0 -75.0000 48.2963 12.9410 0.0000 -0.9659 -0.2588 0.0417 0.0000
0 -75.0000 43.3013 25.0000 0.0000 -0.8660 -0.5000 0.0833 0.0000
0 -50.0000 43.3013 25.0000 0.0000 -0.8660 -0.5000 0.0833 0.1667
r10_broken
0 -75.0000 48.2963 12.9410 0.0000 -0.9659 -0.2588 0.0417 0.0000
0 -50.0000 43.3013 25.0000 0.0000 -0.8660 -0.5000 0.0833 0.1667
0 -50.0000 48.2963 12.9410 0.0000 -0.9659 -0.2588 0.0417 0.1667
r10_broken
0 -75.0000 43.3013 25.0000 0.0000 -0.8660 -0.5000 0.0833 0.0000
0 -75.0000 35.3553 35.3553 0.0000 -0.7071 -0.7071 0.1250 0.0000
0 -50.0000 35.3553 35.3553 0.0000 -0.7071 -0.7071 0.1250 0.1667
r10_broken
0 -75.0000 43.3013 25.0000 0.0000 -0.8660 -0.5000 0.0833 0.0000
0 -50.0000 35.3553 35.3553 0.0000 -0.7071 -0.7071 0.1250 0.1667
0 -50.0000 43.3013 25.0000 0.0000 -0.8660 -0.5000 0.0833 0.1667
r10_broken
0 -75.0000 35.3553 35.3553 0.0000 -0.7071 -0.7071 0.1250 0.0000
0 -75.0000 25.0000 43.3013 0.0000 -0.5000 -0.8660 0.1667 0.0000
0 -50.0000 25.0000 43.3013 0.0000 -0.5000 -0.8660 0.1667 0.1667
r10_broken
0 -75.0000 35.3553 35.3553 0.0000 -0.7071 -0.7071 0.1250 0.0000
0 -50.0000 25.0000 43.3013 0.0000 -0.5000 -0.8660 0.1667 0.1667
0 -50.0000 35.3553 35.3553 0.0000 -0.7071 -0.7071 0.1250 0.1667
r10_broken
0 -75.0000 25.0000 43.3013 0.0000 -0.5000 -0.8660 0.1667 0.0000
0 -75.0000 12.9410 48.2963 0.0000 -0.2588 -0.9659 0.2083 0.0000
0 -50.0000 12.9410 48.2963 0.0000 -0.2588 -0.9659 0.2083 0.1667
r10_broken
0 -75.0000 25.0000 43.3013 0.0000 -0.5000 -0.8660 0.1667 0.0000
0 -50.0000 12.9410 48.2963 0.0000 -0.2588 -0.9659 0.2083 0.1667
0 -50.0000 25.0000 43.3013 0.0000 -0.5000 -0.8660 0.1667 0.1667
r10_broken
0 -75.0000 12.9410 48.2963 0.0000 -0.2588 -0.9659 0.2083 0.0000
0 -75.0000 0.0000 50.0000 0.0000 -0.0000 -1.0000 0.2500 0.0000
0 -50.0000 0.0000 50.0000 0.0000 -0.0000 -1.0000 0.2500 0.1667
r10_broken
0 -75.0000 12.9410 48.2963 0.0000 -0.2588 -0.9659 0.2083 0.0000
0 -50.0000 0.0000 50.0000 0.0000 -0.0000 -1.0000 0.2500 0.1667
0 -50.0000 12.9410 48.2963 0.0000 -0.2588 -0.9659 0.2083 0.1667
r10_broken
0 -75.0000 0.0000 50.0000 0.0000 -0.0000 -1.0000 0.2500 0.0000
0 -75.0000 -12.9410 48.2963 0.0000 0.2588 -0.9659 0.2917 0.0000
0 -50.0000 -12.9410 48.2963 0.0000 0.2588 -0.9659 0.2917 0.1667
r10_broken
0 -75.0000 0.0000 50.0000 0.0000 -0.0000 -1.0000 0.2500 0.0000
0 -50.0000 -12.9410 48.2963 0.0000 0.2588 -0.9659 0.2917 0.1667
0 -50.0000 0.0000 50.0000 0.0000 -0.0000 -1.0000 0.2500 0.1667
r10_broken
0 -75.0000 -12.9410 48.2963 0.0000 0.2588 -0.9659 0.2917 0.0000
0 -75.0000 -25.0000 43.3013 0.0000 0.5000 -0.8660 0.3333 0.0000
0 -50.0000 -25.0000 43.3013 0.0000 0.5000 -0.8660 0.3333 0.1667
r10_broken
0 -75.0000 -12.9410 48.2963 0.0000 0.2588 -0.9659 0.2917 0.0000
0 -50.0000 -25.0000 43.3013 0.0000 0.5000 -0.8660 0.3333 0.1667
0 -50.0000 -12.9410 48.2963 0.0000 0.2588 -0.9659 0.2917 0.1667
r10_broken
0 -75.0000 -25.0000 43.3013 0.0000 0.5000 -0.8660 0.3333 0.0000
0 -75.0000 -35.3553 35.3553 0.0000 0.7071 -0.7071 0.3750 0.0000
0 -50.0000 -35.3553 35.3553 0.0000 0.7071 -0.7071 0.3750 0.1667
r10_broken
0 -75.0000 -25.0000 43.3013 0.0000 0.5000 -0.8660 0.3333 0.0000
0 -50.0000 -35.3553 35.3553 0.0000 0.7071 -0.7071 0.3750 0.1667
0 -50.0000 -25.0000 43.3013 0.0000 0.5000 -0.8660 0.3333 0.1667
r10_broken
0 -75.0000 -35.3553 35.3553 0.0000 0.7071 -0.7071 0.3750 0.0000
0 -75.0000 -43.3013 25.0000 0.0000 0.8660 -0.5000 0.4167 0.0000
0 -50.0000 -43.3013 25.0000 0.0000 0.8660 -0.5000 0.4167 0.1667
r10_broken
0 -75.0000 -35.3553 35.3553 0.0000 0.7071 -0.7071 0.3750 0.0000
0 -50.0000 -43.3013 25.0000 0.0000 0.8660 -0.5000 0.4167 0.1667
0 -50.0000 -35.3553 35.3553 0.0000 0.7071 -0.7071 0.3750 0.1667
r10_broken
0 -75.0000 -43.3013 25.0000 0.0000 0.8660 -0.5000 0.4167 0.0000
0 -75.0000 -48.2963 12.9410 0.0000 0.9659 -0.2588 0.4583 0.0000
0 -50.0000 -48.2963 12.9410 0.0000 0.9659 -0.2588 0.4583 0.1667
r10_broken
0 -75.0000 -43.3013 25.0000 0.0000 0.8660 -0.5000 0.4167 0.0000
0 -50.0000 -48.2963 12.9410 0.0000 0.9659 -0.2588 0.4583 0.1667
0 -50.0000 -43.3013 25.0000 0.0000 0.8660 -0.5000 0.4167 0.1667
r10_broken
0 -75.0000 -48.2963 12.9410 0.0000 0.9659 -0.2588 0.4583 0.0000
0 -75.0000 -50.0000 0.0000 0.0000 1.0000 -0.0000 0.5000 0.0000
0 -50.0000 -50.0000 0.0000 0.0000 1.0000 -0.0000 0.5000 0.1667
r10_broken
0 -75.0000 -48.2963 12.9410 0.0000 0.9659 -0.2588 0.4583 0.0000
0 -50.0000 -50.0000 0.0000 0.0000 1.0000 -0.0000 0.5000 0.1667
0 -50.0000 -48.2963 12.9410 0.0000 0.9659 -0.2588 0.4583 0.1667
r10_broken
0 -75.0000 -50.0000 0.0000 0.0000 1.0000 -0.0000 0.5000 0.0000
0 -75.0000 -48.2963 -12.9410 0.0000 0.9659 0.2588 0.5417 0.0000
0 -50.0000 -48.2963 -12.9410 0.0000 0.9659 0.2588 0.5417 0.1667
r10_broken
0 -75.0000 -50.0000 0.0000 0.0000 1.0000 -0.0000 0.5000 0.0000
0 -50.0000 -48.2963 -12.9410 0.0000 0.9659 0.2588 0.5417 0.1667
0 -50.0000 -50.0000 0.0000 0.0000 1.0000 -0.0000 0.5000 0.1667
r10_broken
0 -75.0000 -48.2963 -12.9410 0.0000 0.9659 0.2588 0.5417 0.0000
0 -75.0000 -43.3013 -25.0000 0.0000 0.8660 0.5000 0.5833 0.0000
0 -50.0000 -43.3013 -25.0000 0.0000 0.8660 0.5000 0.5833 0.1667
r10_broken
0 -75.0000 -48.2963 -12.9410 0.0000 0.9659 0.2588 0.5417 0.0000
0 -50.0000 -43.3013 -25.0000 0.0000 0.8660 0.5000 0.5833 0.1667
0 -50.0000 -48.2963 -12.9410 0.0000 0.9659 0.2588 0.5417 0.1667
r10_broken
0 -75.0000 -43.3013 -25.0000 0.0000 0.8660 0.5000 0.5833 0.0000
0 -75.0000 -35.3553 -35.3553 0.0000 0.7071 0.7071 0.6250 0.0000
0 -50.0000 -35.3553 -35.3553 0.0000 0.7071 0.7071 0.6250 0.1667
r10_broken
0 -75.0000 -43.3013 -25.0000 0.0000 0.8660 0.5000 0.5833 0.0000
0 -50.0000 -35.3553 -35.3553 0.0000 0.7071 0.7071 0.6250 0.1667
0 -50.0000 -43.3013 -25.0000 0.0000 0.8660 0.5000 0.5833 0.1667
r10_broken
0 -75.0000 -35.3553 -35.3553 0.0000 0.7071 0.7071 0.6250 0.0000
0 -75.0000 -25.0000 -43.3013 0.0000 0.5000 0.8660 0.6667 0.0000
0 -50.0000 -25.0000 -43.3013 0.0000 0.5000 0.8660 0.6667 0.1667
r10_broken
0 -75.0000 -35.3553 -35.3553 0.0000 0.7071 0.7071 0.6250 0.0000
0 -50.0000 -25.0000 -43.3013 0.0000 0.5000 0.8660 0.6667 0.1667
0 -50.0000 -35.3553 -35.3553 0.0000 0.7071 0.7071 0.6250 0.1667
r10_broken
0 -75.0000 -25.0000 -43.3013 0.0000 0.5000 0.8660 0.6667 0.0000
0 -75.0000 -12.9410 -48.2963 0.0000 0.2588 0.9659 0.7083 0.0000
0 -50.0000 -12.9410 -48.2963 0.0000 0.2588 0.9659 0.7083 0.1667
r10_broken
0 -75.0000 -25.0000 -43.3013 0.0000 0.5000 0.8660 0.6667 0.0000
0 -50.0000 -12.9410 -48.2963 0.0000 0.2588 0.9659 0.7083 0.1667
0 -50.0000 -25.0000 -43.3013 0.0000 0.5000 0.8660 0.6667 0.1667
r10_broken
0 -75.0000 -12.9410 -48.2963 0.0000 0.2588 0.9659 0.7083 0.0000
0 -75.0000 -0.0000 -50.0000 0.0000 0.0000 1.0000 0.7500 0.0000
0 -50.0000 -0.0000 -50.0000 0.0000 0.0000 1.0000 0.7500 0.1667
r10_broken
0 -75.0000 -12.9410 -48.2963 0.0000 0.2588 0.9659 0.7083 0.0000
0 -50.0000 -0.0000 -50.0000 0.0000 0.0000 1.0000 0.7500 0.1667
0 -50.0000 -12.9410 -48.2963 0.0000 0.2588 0.9659 0.7083 0.1667
r10_broken
0 -75.0000 -0.0000 -50.0000 0.0000 0.0000 1.0000 0.7500 0.0000
0 -75.0000 12.9410 -48.2963 0.0000 -0.2588 0.9659 0.7917 0.0000
0 -50.0000 12.9410 -48.2963 0.0000 -0.2588 0.9659 0.7917 0.1667
r10_broken
0 -75.0000 -0.0000 -50.0000 0.0000 0.0000 1.0000 0.7500 0.0000
0 -50.0000 12.9410 -48.2963 0.0000 -0.2588 0.9659 0.7917 0.1667
0 -50.0000 -0.0000 -50.0000 0.0000 0.0000 1.0000 0.7500 0.1667
r10_broken
0 -75.0000 12.9410 -48.2963 0.0000 -0.2588 0.9659 0.7917 0.0000
0 -75.0000 25.0000 -43.3013 0.0000 -0.5000 0.8660 0.8333 0.0000
0 -50.0000 25.0000 -43.3013 0.0000 -0.5000 0.8660 0.8333 0.1667
r10_broken
0 -75.0000 12.9410 -48.2963 0.0000 -0.2588 0.9659 0.7917 0.0000
0 -50.0000 25.0000 -43.3013 0.0000 -0.5000 0.8660 0.8333 0.1667
0 -50.0000 12.9410 -48.2963 0.0000 -0.2588 0.9659 0.7917 0.1667
r10_broken
0 -75.0000 25.0000 -43.3013 0.0000 -0.5000 0.8660 0.8333 0.0000
0 -75.0000 35.3553 -35.3553 0.0000 -0.7071 0.7071 0.8750 0.0000
0 -50.0000 35.3553 -35.3553 0.0000 -0.7071 0.7071 0.8750 0.1667
r10_broken
0 -75.0000 25.0000 -43.3013 0.0000 -0.5000 0.8660 0.8333 0.0000
0 -50.0000 35.3553 -35.3553 0.0000 -0.7071 0.7071 0.8750 0.1667
0 -50.0000 25.0000 -43.3013 0.0000 -0.5000 0.8660 0.8333 0.1667
r10_broken
0 -75.0000 35.3553 -35.3553 0.0000 -0.7071 0.7071 0.8750 0.0000
0 -75.0000 43.3013 -25.0000 0.0000 -0.8660 0.5000 0.9167 0.0000
0 -50.0000 43.3013 -25.0000 0.0000 -0.8660 0.5000 0.9167 0.1667
r10_broken
0 -75.0000 35.3553 -35.3553 0.0000 -0.7071 0.7071 0.8750 0.0000
0 -50.0000 43.3013 -25.0000 0.0000 -0.8660 0.5000 0.9167 0.1667
0 -50.0000 35.3553 -35.3553 0.0000 -0.7071 0.7071 0.8750 0.1667
r10_broken
0 -75.0000 43.3013 -25.0000 0.0000 -0.8660 0.5000 0.9167 0.0000
0 -75.0000 48.2963 -12.9410 0.0000 -0.9659 0.2588 0.9583 0.0000
0 -50.0000 48.2963 -12.9410 0.0000 -0.9659 0.2588 0.9583 0.1667
r10_broken
0 -75.0000 43.3013 -25.0000 0.0000 -0.8660 0.5000 0.9167 0.0000
0 -50.0000 48.2963 -12.9410 0.0000 -0.9659 0.2588 0.9583 0.1667
0 -50.0000 43.3013 -25.0000 0.0000 -0.8660 0.5000 0.9167 0.1667
r10_broken
0 -50.0000 43.3013 25.0000 0.0000 -0.8660 -0.5000 0.0833 0.1667
0 -50.0000 35.3553 35.3553 0.0000 -0.7071 -0.7071 0.1250 0.1667
0 -25.0000 35.3553 35.3553 0.0000 -0.7071 -0.7071 0.1250 0.3333
r10_broken
0 -50.0000 43.3013 25.0000 0.0000 -0.8660 -0.5000 0.0833 0.1667
0 -25.0000 35.3553 35.3553 0.0000 -0.7071 -0.7071 0.1250 0.3333
0 -25.0000 43.3013 25.0000 0.0000 -0.8660 -0.5000 0.0833 0.3333
r10_broken
0 -50.0000 35.3553 35.3553 0.0000 -0.7071 -0.7071 0.1250 0.1667
0 -50.0000 25.0000 43.3013 0.0000 -0.5000 -0.8660 0.1667 0.1667
0 -25.0000 25.0000 43.3013 0.0000 -0.5000 -0.8660 0.1667 0.3333
r10_broken
0 -50.0000 35.3553 35.3553 0.0000 -0.7071 -0.7071 0.1250 0.1667
0 -25.0000 25.0000 43.3013 0.0000 -0.5000 -0.8660 0.1667 0.3333
0 -25.0000 35.3553 35.3553 0.0000 -0.7071 -0.7071 0.1250 0.3333
r10_broken
0 -50.0000 25.0000 43.3013 0.0000 -0.5000 -0.8660 0.1667 0.1667
0 -50.0000 12.9410 48.2963 0.0000 -0.2588 -0.9659 0.2083 0.1667
0 -25.0000 12.9410 48.2963 0.0000 -0.2588 -0.9659 0.2083 0.3333
r10_broken
0 -50.0000 25.0000 43.3013 0.0000 -0.5000 -0.8660 0.1667 0.1667
0 -25.0000 12.9410 48.2963 0.0000 -0.2588 -0.9659 0.2083 0.3333
0 -25.0000 25.0000 43.3013 0.0000 -0.5000 -0.8660 0.1667 0.3333
r10_broken
0 -50.0000 12.9410 48.2963 0.0000 -0.2588 -0.9659 0.2083 0.1667
0 -50.0000 0.0000 50.0000 0.0000 -0.0000 -1.0000 0.2500 0.1667
0 -25.0000 0.0000 50.0000 0.0000 -0.0000 -1.0000 0.2500 0.3333
r10_broken
0 -50.0000 12.9410 48.2963 0.0000 -0.2588 -0.9659 0.2083 0.1667
0 -25.0000 0.0000 50.0000 0.0000 -0.0000 -1.0000 0.2500 0.3333
0 -25.0000 12.9410 48.2963 0.0000 -0.2588 -0.9659 0.2083 0.3333
r10_broken
0 -50.0000 0.0000 50.0000 0.0000 -0.0000 -1.0000 0.2500 0.1667
0 -50.0000 -12.9410 48.2963 0.0000 0.2588 -0.9659 0.2917 0.1667
0 -25.0000 -12.9410 48.2963 0.0000 0.2588 -0.9659 0.2917 0.3333
r10_broken
0 -50.0000 0.0000 50.0000 0.0000 -0.0000 -1.0000 0.2500 0.1667
0 -25.0000 -12.9410 48.2963 0.0000 0.2588 -0.9659 0.2917 0.3333
0 -25.0000 0.0000 50.0000 0.0000 -0.0000 -1.0000 0.2500 0.3333
r10_broken
0 -50.0000 -12.9410 48.2963 0.0000 0.2588 -0.9659 0.2917 0.1667
0 -50.0000 -25.0000 43.3013 0.0000 0.5000 -0.8660 0.3333 0.1667
0 -25.0000 -25.0000 43.3013 0.0000 0.5000 -0.8660 0.3333 0.3333
r10_broken
0 -50.0000 -12.9410 48.2963 0.0000 0.2588 -0.9659 0.2917 0.1667
0 -25.0000 -25.0000 43.3013 0.0000 0.5000 -0.8660 0.3333 0.3333
0 -25.0000 -12.9410 48.2963 0.0000 0.2588 -0.9659 0.2917 0.3333
r10_broken
0 -50.0000 -25.0000 43.3013 0.0000 0.5000 -0.8660 0.3333 0.1667
0 -50.0000 -35.3553 35.3553 0.0000 0.7071 -0.7071 0.3750 0.1667
0 -25.0000 -35.3553 35.3553 0.0000 0.7071 -0.7071 0.3750 0.3333
r10_broken
0 -50.0000 -25.0000 43.3013 0.0000 0.5000 -0.8660 0.3333 0.1667
0 -25.0000 -35.3553 35.3553 0.0000 0.7071 -0.7071 0.3750 0.3333
0 -25.0000 -25.0000 43.3013 0.0000 0.5000 -0.8660 0.3333 0.3333
r10_broken
0 -50.0000 -35.3553 35.3553 0.0000 0.7071 -0.7071 0.3750 0.1667
0 -50.0000 -43.3013 25.0000 0.0000 0.8660 -0.5000 0.4167 0.1667
0 -25.0000 -43.3013 25.0000 0.0000 0.8660 -0.5000 0.4167 0.3333
r10_broken
0 -50.0000 -35.3553 35.3553 0.0000 0.7071 -0.7071 0.3750 0.1667
0 -25.0000 -43.3013 25.0000 0.0000 0.8660 -0.5000 0.4167 0.3333
0 -25.0000 -35.3553 35.3553 0.0000 0.7071 -0.7071 0.3750 0.3333
r10_broken
0 -50.0000 -43.3013 25.0000 0.0000 0.8660 -0.5000 0.4167 0.1667
0 -50.0000 -48.2963 12.9410 0.0000 0.9659 -0.2588 0.4583 0.1667
0 -25.0000 -48.2963 12.9410 0.0000 0.9659 -0.2588 0.4583 0.3333
r10_broken
0 -50.0000 -43.3013 25.0000 0.0000 0.8660 -0.5000 0.4167 0.1667
0 -25.0000 -48.2963 12.9410 0.0000 0.9659 -0.2588 0.4583 0.3333
0 -25.0000 -43.3013 25.0000 0.0000 0.8660 -0.5000 0.4167 0.3333
r10_broken
0 -50.0000 -48.2963 12.9410 0.0000 0.9659 -0.2588 0.4583 0.1667
0 -50.0000 -50.0000 0.0000 0.0000 1.0000 -0.0000 0.5000 0.1667
0 -25.0000 -50.0000 0.0000 0.0000 1.0000 -0.0000 0.5000 0.3333
r10_broken
0 -50.0000 -48.2963 12.9410 0.0000 0.9659 -0.2588 0.4583 0.1667
0 -25.0000 -50.0000 0.0000 0.0000 1.0000 -0.0000 0.5000 0.3333
0 -25.0000 -48.2963 12.9410 0.0000 0.9659 -0.2588 0.4583 0.3333
r10_broken
0 -50.0000 -50.0000 0.0000 0.0000 1.0000 -0.0000 0.5000 0.1667
0 -50.0000 -48.2963 -12.9410 0.0000 0.9659 0.2588 0.5417 0.1667
0 -25.0000 -48.2963 -12.9410 0.0000 0.9659 0.2588 0.5417 0.3333
r10_broken
0 -50.0000 -50.0000 0.0000 0.0000 1.0000 -0.0000 0.5000 0.1667
0 -25.0000 -48.2963 -12.9410 0.0000 0.9659 0.2588 0.5417 0.3333
0 -25.0000 -50.0000 0.0000 0.0000 1.0000 -0.0000 0.5000 0.3333
r10_broken
0 -50.0000 -48.2963 -12.9410 0.0000 0.9659 0.2588 0.5417 0.1667
0 -50.0000 -43.3013 -25.0000 0.0000 0.8660 0.5000 0.5833 0.1667
0 -25.0000 -43.3013 -25.0000 0.0000 0.8660 0.5000 0.5833 0.3333
r10_broken
0 -50.0000 -48.2963 -12.9410 0.0000 0.9659 0.2588 0.5417 0.1667
0 -25.0000 -43.3013 -25.0000 0.0000 0.8660 0.5000 0.5833 0.3333
0 -25.0000 -48.2963 -12.9410 0.0000 0.9659 0.2588 0.5417 0.3333
r10_broken
0 -50.0000 -43.3013 -25.0000 0.0000 0.8660 0.5000 0.5833 0.1667
0 -50.0000 -35.3553 -35.3553 0.0000 0.7071 0.7071 0.6250 0.1667
0 -25.0000 -35.3553 -35.3553 0.0000 0.7071 0.7071 0.6250 0.3333
r10_broken
0 -50.0000 -43.3013 -25.0000 0.0000 0.8660 0.5000 0.5833 0.1667
0 -25.0000 -35.3553 -35.3553 0.0000 0.7071 0.7071 0.6250 0.3333
0 -25.0000 -43.3013 -25.0000 0.0000 0.8660 0.5000 0.5833 0.3333
r10_broken
0 -50.0000 -35.3553 -35.3553 0.0000 0.7071 0.7071 0.6250 0.1667
0 -50.0000 -25.0000 -43.3013 0.0000 0.5000 0.8660 0.6667 0.1667
0 -25.0000 -25.0000 -43.3013 0.0000 0.5000 0.8660 0.6667 0.3333
r10_broken
0 -50.0000 -35.3553 -35.3553 0.0000 0.7071 0.7071 0.6250 0.1667
0 -25.0000 -25.0000 -43.3013 0.0000 0.5000 0.8660 0.6667 0.3333
0 -25.0000 -35.3553 -35.3553 0.0000 0.7071 0.7071 0.6250 0.3333
r10_broken
0 -50.0000 -25.0000 -43.3013 0.0000 0.5000 0.8660 0.6667 0.1667
0 -50.0000 -12.9410 -48.2963 0.0000 0.2588 0.9659 0.7083 0.1667
0 -25.0000 -12.9410 -48.2963 0.0000 0.2588 0.9659 0.7083 0.3333
r10_broken
0 -50.0000 -25.0000 -43.3013 0.0000 0.5000 0.8660 0.6667 0.1667
0 -25.0000 -12.9410 -48.2963 0.0000 0.2588 0.9659 0.7083 0.3333
0 -25.0000 -25.0000 -43.3013 0.0000 0.5000 0.8660 0.6667 0.3333
r10_broken
0 -50.0000 -12.9410 -48.2963 0.0000 0.2588 0.9659 0.7083 0.1667
0 -50.0000 -0.0000 -50.0000 0.0000 0.0000 1.0000 0.7500 0.1667
0 -25.0000 -0.0000 -50.0000 0.0000 0.0000 1.0000 0.7500 0.3333
r10_broken
0 -50.0000 -12.9410 -48.2963 0.0000 0.2588 0.9659 0.7083 0.1667
0 -25.0000 -0.0000 -50.0000 0.0000 0.0000 1.0000 0.7500 0.3333
0 -25.0000 -12.9410 -48.2963 0.0000 0.2588 0.9659 0.7083 0.3333
r10_broken
0 -50.0000 -0.0000 -50.0000 0.0000 0.0000 1.0000 0.7500 0.1667
0 -50.0000 12.9410 -48.2963 0.0000 -0.2588 0.9659 0.7917 0.1667
0 -25.0000 12.9410 -48.2963 0.0000 -0.2588 0.9659 0.7917 0.3333
r10_broken
0 -50.0000 -0.0000 -50.0000 0.0000 0.0000 1.0000 0.7500 0.1667
0 -25.0000 12.9410 -48.2963 0.0000 -0.2588 0.9659 0.7917 0.3333
0 -25.0000 -0.0000 -50.0000 0.0000 0.0000 1.0000 0.7500 0.3333
r10_broken
0 -50.0000 12.9410 -48.2963 0.0000 -0.2588 0.9659 0.7917 0.1667
0 -50.0000 25.0000 -43.3013 0.0000 -0.5000 0.8660 0.8333 0.1667
0 -25.0000 25.0000 -43.3013 0.0000 -0.5000 0.8660 0.8333 0.3333
r10_broken
0 -50.0000 12.9410 -48.2963 0.0000 -0.2588 0.9659 0.7917 0.1667
0 -25.0000 25.0000 -43.3013 0.0000 -0.5000 0.8660 0.8333 0.3333
0 -25.0000 12.9410 -48.2963 0.0000 -0.2588 0.9659 0.7917 0.3333
r10_broken
0 -50.0000 25.0000 -43.3013 0.0000 -0.5000 0.8660 0.8333 0.1667
0 -50.0000 35.3553 -35.3553 0.0000 -0.7071 0.7071 0.8750 0.1667
0 -25.0000 35.3553 -35.3553 0.0000 -0.7071 0.7071 0.8750 0.3333
r10_broken
0 -50.0000 25.0000 -43.3013 0.0000 -0.5000 0.8660 0.8333 0.1667
0 -25.0000 35.3553 -35.3553 0.0000 -0.7071 0.7071 0.8750 0.3333
0 -25.0000 25.0000 -43.3013 0.0000 -0.5000 0.8660 0.8333 0.3333
r10_broken
0 -50.0000 35.3553 -35.3553 0.0000 -0.7071 0.7071 0.8750 0.1667
0 -50.0000 43.3013 -25.0000 0.0000 -0.8660 0.5000 0.9167 0.1667
0 -25.0000 43.3013 -25.0000 0.0000 -0.8660 0.5000 0.9167 0.3333
r10_broken
0 -50.0000 35.3553 -35.3553 0.0000 -0.7071 0.7071 0.8750 0.1667
0 -25.0000 43.3013 -25.0000 0.0000 -0.8660 0.5000 0.9167 0.3333
0 -25.0000 35.3553 -35.3553 0.0000 -0.7071 0.7071 0.8750 0.3333
r10_broken
0 -25.0000 35.3553 35.3553 0.0000 -0.7071 -0.7071 0.1250 0.3333
0 -25.0000 25.0000 43.3013 0.0000 -0.5000 -0.8660 0.1667 0.3333
0 0.0000 25.0000 43.3013 0.0000 -0.5000 -0.8660 0.1667 0.5000
r10_broken
0 -25.0000 35.3553 35.3553 0.0000 -0.7071 -0.7071 0.1250 0.3333
0 0.0000 25.0000 43.3013 0.0000 -0.5000 -0.8660 0.1667 0.5000
0 0.0000 35.3553 35.3553 0.0000 -0.7071 -0.7071 0.1250 0.5000
r10_broken
0 -25.0000 25.0000 43.3013 0.0000 -0.5000 -0.8660 0.1667 0.3333
0 -25.0000 12.9410 48.2963 0.0000 -0.2588 -0.9659 0.2083 0.3333
0 0.0000 12.9410 48.2963 0.0000 -0.2588 -0.9659 0.2083 0.5000
r10_broken
0 -25.0000 25.0000 43.3013 0.0000 -0.5000 -0.8660 0.1667 0.3333
0 0.0000 12.9410 48.2963 0.0000 -0.2588 -0.9659 0.2083 0.5000
0 0.0000 25.0000 43.3013 0.0000 -0.5000 -0.8660 0.1667 0.5000
r10_broken
0 -25.0000 12.9410 48.2963 0.0000 -0.2588 -0.9659 0.2083 0.3333
0 -25.0000 0.0000 50.0000 0.0000 -0.0000 -1.0000 0.2500 0.3333
0 0.0000 0.0000 50.0000 0.0000 -0.0000 -1.0000 0.2500 0.5000
r10_broken
0 -25.0000 12.9410 48.2963 0.0000 -0.2588 -0.9659 0.2083 0.3333
0 0.0000 0.0000 50.0000 0.0000 -0.0000 -1.0000 0.2500 0.5000
0 0.0000 12.9410 48.2963 0.0000 -0.2588 -0.9659 0.2083 0.5000
r10_broken
0 -25.0000 0.0000 50.0000 0.0000 -0.0000 -1.0000 0.2500 0.3333
0 -25.0000 -12.9410 48.2963 0.0000 0.2588 -0.9659 0.2917 0.3333
0 0.0000 -12.9410 48.2963 0.0000 0.2588 -0.9659 0.2917 0.5000
r10_broken
0 -25.0000 0.0000 50.0000 0.0000 -0.0000 -1.0000 0.2500 0.3333
0 0.0000 -12.9410 48.2963 0.0000 0.2588 -0.9659 0.2917 0.5000
0 0.0000 0.0000 50.0000 0.0000 -0.0000 -1.0000 0.2500 0.5000
r10_broken
0 -25.0000 -12.9410 48.2963 0.0000 0.2588 -0.9659 0.2917 0.3333
0 -25.0000 -25.0000 43.3013 0.0000 0.5000 -0.8660 0.3333 0.3333
0 0.0000 -25.0000 43.3013 0.0000 0.5000 -0.8660 0.3333 0.5000
r10_broken
0 -25.0000 -12.9410 48.2963 0.0000 0.2588 -0.9659 0.2917 0.3333
0 0.0000 -25.0000 43.3013 0.0000 0.5000 -0.8660 0.3333 0.5000
0 0.0000 -12.9410 48.2963 0.0000 0.2588 -0.9659 0.2917 0.5000
r10_broken
0 -25.0000 -25.0000 43.3013 0.0000 0.5000 -0.8660 0.3333 0.3333
0 -25.0000 -35.3553 35.3553 0.0000 0.7071 -0.7071 0.3750 0.3333
0 0.0000 -35.3553 35.3553 0.0000 0.7071 -0.7071 0.3750 0.5000
r10_broken
0 -25.0000 -25.0000 43.3013 0.0000 0.5000 -0.8660 0.3333 0.3333
0 0.0000 -35.3553 35.3553 0.0000 0.7071 -0.7071 0.3750 0.5000
0 0.0000 -25.0000 43.3013 0.0000 0.5000 -0.8660 0.3333 0.5000
r10_broken
0 -25.0000 -35.3553 35.3553 0.0000 0.7071 -0.7071 0.3750 0.3333
0 -25.0000 -43.3013 25.0000 0.0000 0.8660 -0.5000 0.4167 0.3333
0 0.0000 -43.3013 25.0000 0.0000 0.8660 -0.5000 0.4167 0.5000
r10_broken
0 -25.0000 -35.3553 35.3553 0.0000 0.7071 -0.7071 0.3750 0.3333
0 0.0000 -43.3013 25.0000 0.0000 0.8660 -0.5000 0.4167 0.5000
0 0.0000 -35.3553 35.3553 0.0000 0.7071 -0.7071 0.3750 0.5000
r10_broken
0 -25.0000 -43.3013 25.0000 0.0000 0.8660 -0.5000 0.4167 0.3333
0 -25.0000 -48.2963 12.9410 0.0000 0.9659 -0.2588 0.4583 0.3333
0 0.0000 -48.2963 12.9410 0.0000 0.9659 -0.2588 0.4583 0.5000
r10_broken
0 -25.0000 -43.3013 25.0000 0.0000 0.8660 -0.5000 0.4167 0.3333
0 0.0000 -48.2963 12.9410 0.0000 0.9659 -0.2588 0.4583 0.5000
0 0.0000 -43.3013 25.0000 0.0000 0.8660 -0.5000 0.4167 0.5000
r10_broken
0 -25.0000 -48.2963 12.9410 0.0000 0.9659 -0.2588 0.4583 0.3333
0 -25.0000 -50.0000 0.0000 0.0000 1.0000 -0.0000 0.5000 0.3333
0 0.0000 -50.0000 0.0000 0.0000 1.0000 -0.0000 0.5000 0.5000
r10_broken
0 -25.0000 -48.2963 12.9410 0.0000 0.9659 -0.2588 0.4583 0.3333
0 0.0000 -50.0000 0.0000 0.0000 1.0000 -0.0000 0.5000 0.5000
0 0.0000 -48.2963 12.9410 0.0000 0.9659 -0.2588 0.4583 0.5000
r10_broken
0 -25.0000 -50.0000 0.0000 0.0000 1.0000 -0.0000 0.5000 0.3333
0 -25.0000 -48.2963 -12.9410 0.0000 0.9659 0.2588 0.5417 0.3333
0 0.0000 -48.2963 -12.9410 0.0000 0.9659 0.2588 0.5417 0.5000
r10_broken
0 -25.0000 -50.0000 0.0000 0.0000 1.0000 -0.0000 0.5000 0.3333
0 0.0000 -48.2963 -12.9410 0.0000 0.9659 0.2588 0.5417 0.5000
0 0.0000 -50.0000 0.0000 0.0000 1.0000 -0.0000 0.5000 0.5000
r10_broken
0 -25.0000 -48.2963 -12.9410 0.0000 0.9659 0.2588 0.5417 0.3333
0 -25.0000 -43.3013 -25.0000 0.0000 0.8660 0.5000 0.5833 0.3333
0 0.0000 -43.3013 -25.0000 0.0000 0.8660 0.5000 0.5833 0.5000
r10_broken
0 -25.0000 -48.2963 -12.9410 0.0000 0.9659 0.2588 0.5417 0.3333
0 0.0000 -43.3013 -25.0000 0.0000 0.8660 0.5000 0.5833 0.5000
0 0.0000 -48.2963 -12.9410 0.0000 0.9659 0.2588 0.5417 0.5000
r10_broken
0 -25.0000 -43.3013 -25.0000 0.0000 0.8660 0.5000 0.5833 0.3333
0 -25.0000 -35.3553 -35.3553 0.0000 0.7071 0.7071 0.6250 0.3333
0 0.0000 -35.3553 -35.3553 0.0000 0.7071 0.7071 0.6250 0.5000
r10_broken
0 -25.0000 -43.3013 -25.0000 0.0000 0.8660 0.5000 0.5833 0.3333
0 0.0000 -35.3553 -35.3553 0.0000 0.7071 0.7071 0.6250 0.5000
0 0.0000 -43.3013 -25.0000 0.0000 0.8660 0.5000 0.5833 0.5000
r10_broken
0 -25.0000 -35.3553 -35.3553 0.0000 0.7071 0.7071 0.6250 0.3333
0 -25.0000 -25.0000 -43.3013 0.0000 0.5000 0.8660 0.6667 0.3333
0 0.0000 -25.0000 -43.3013 0.0000 0.5000 0.8660 0.6667 0.5000
r10_broken
0 -25.0000 -35.3553 -35.3553 0.0000 0.7071 0.7071 0.6250 0.3333
0 0.0000 -25.0000 -43.3013 0.0000 0.5000 0.8660 0.6667 0.5000
0 0.0000 -35.3553 -35.3553 0.0000 0.7071 0.7071 0.6250 0.5000
r10_broken
0 -25.0000 -25.0000 -43.3013 0.0000 0.5000 0.8660 0.6667 0.3333
0 -25.0000 -12.9410 -48.2963 0.0000 0.2588 0.9659 0.7083 0.3333
0 0.0000 -12.9410 -48.2963 0.0000 0.2588 0.9659 0.7083 0.5000
r10_broken
0 -25.0000 -25.0000 -43.3013 0.0000 0.5000 0.8660 0.6667 0.3333
0 0.0000 -12.9410 -48.2963 0.0000 0.2588 0.9659 0.7083 0.5000
0 0.0000 -25.0000 -43.3013 0.0000 0.5000 0.8660 0.6667 0.5000
r10_broken
0 -25.0000 -12.9410 -48.2963 0.0000 0.2588 0.9659 0.7083 0.3333
0 -25.0000 -0.0000 -50.0000 0.0000 0.0000 1.0000 0.7500 0.3333
0 0.0000 -0.0000 -50.0000 0.0000 0.0000 1.0000 0.7500 0.5000
r10_broken
0 -25.0000 -12.9410 -48.2963 0.0000 0.2588 0.9659 0.7083 0.3333
0 0.0000 -0.0000 -50.0000 0.0000 0.0000 1.0000 0.7500 0.5000
0 0.0000 -12.9410 -48.2963 0.0000 0.2588 0.9659 0.7083 0.5000
r10_broken
0 -25.0000 -0.0000 -50.0000 0.0000 0.0000 1.0000 0.7500 0.3333
0 -25.0000 12.9410 -48.2963 0.0000 -0.2588 0.9659 0.7917 0.3333
0 0.0000 12.9410 -48.2963 0.0000 -0.2588 0.9659 0.7917 0.5000
r10_broken
0 -25.0000 -0.0000 -50.0000 0.0000 0.0000 1.0000 0.7500 0.3333
0 0.0000 12.9410 -48.2963 0.0000 -0.2588 0.9659 0.7917 0.5000
0 0.0000 -0.0000 -50.0000 0.0000 0.0000 1.0000 0.7500 0.5000
r10_broken
0 -25.0000 12.9410 -48.2963 0.0000 -0.2588 0.9659 0.7917 0.3333
0 -25.0000 25.0000 -43.3013 0.0000 -0.5000 0.8660 0.8333 0.3333
0 0.0000 25.0000 -43.3013 0.0000 -0.5000 0.8660 0.8333 0.5000
r10_broken
0 -25.0000 12.9410 -48.2963 0.0000 -0.2588 0.9659 0.7917 0.3333
0 0.0000 25.0000 -43.3013 0.0000 -0.5000 0.8660 0.8333 0.5000
0 0.0000 12.9410 -48.2963 0.0000 -0.2588 0.9659 0.7917 0.5000
r10_broken
0 0.0000 35.3553 35.3553 0.0000 -0.7071 -0.7071 0.1250 0.5000
0 0.0000 25.0000 43.3013 0.0000 -0.5000 -0.8660 0.1667 0.5000
0 25.0000 25.0000 43.3013 0.0000 -0.5000 -0.8660 0.1667 0.6667
r10_broken
0 0.0000 35.3553 35.3553 0.0000 -0.7071 -0.7071 0.1250 0.5000
0 25.0000 25.0000 43.3013 0.0000 -0.5000 -0.8660 0.1667 0.6667
0 25.0000 35.3553 35.3553 0.0000 -0.7071 -0.7071 0.1250 0.6667
r10_broken
0 0.0000 25.0000 43.3013 0.0000 -0.5000 -0.8660 0.1667 0.5000
0 0.0000 12.9410 48.2963 0.0000 -0.2588 -0.9659 0.2083 0.5000
0 25.0000 12.9410 48.2963 0.0000 -0.2588 -0.9659 0.2083 0.6667
r10_broken
0 0.0000 25.0000 43.3013 0.0000 -0.5000 -0.8660 0.1667 0.5000
0 25.0000 12.9410 48.2963 0.0000 -0.2588 -0.9659 0.2083 0.6667
0 25.0000 25.0000 43.3013 0.0000 -0.5000 -0.8660 0.1667 0.6667
r10_broken
0 0.0000 12.9410 48.2963 0.0000 -0.2588 -0.9659 0.2083 0.5000
0 0.0000 0.0000 50.0000 0.0000 -0.0000 -1.0000 0.2500 0.5000
0 25.0000 0.0000 50.0000 0.0000 -0.0000 -1.0000 0.2500 0.6667
r10_broken
0 0.0000 12.9410 48.2963 0.0000 -0.2588 -0.9659 0.2083 0.5000
0 25.0000 0.0000 50.0000 0.0000 -0.0000 -1.0000 0.2500 0.6667
0 25.0000 12.9410 48.2963 0.0000 -0.2588 -0.9659 0.2083 0.6667
r10_broken
0 0.0000 0.0000 50.0000 0.0000 -0.0000 -1.0000 0.2500 0.5000
0 0.0000 -12.9410 48.2963 0.0000 0.2588 -0.9659 0.2917 0.5000
0 25.0000 -12.9410 48.2963 0.0000 0.2588 -0.9659 0.2917 0.6667
r10_broken
0 0.0000 0.0000 50.0000 0.0000 -0.0000 -1.0000 0.2500 0.5000
0 25.0000 -12.9410 48.2963 0.0000 0.2588 -0.9659 0.2917 0.6667
0 25.0000 0.0000 50.0000 0.0000 -0.0000 -1.0000 0.2500 0.6667
r10_broken
0 0.0000 -12.9410 48.2963 0.0000 0.2588 -0.9659 0.2917 0.5000
0 0.0000 -25.0000 43.3013 0.0000 0.5000 -0.8660 0.3333 0.5000
0 25.0000 -25.0000 43.3013 0.0000 0.5000 -0.8660 0.3333 0.6667
r10_broken
0 0.0000 -12.9410 48.2963 0.0000 0.2588 -0.9659 0.2917 0.5000
0 25.0000 -25.0000 43.3013 0.0000 0.5000 -0.8660 0.3333 0.6667
0 25.0000 -12.9410 48.2963 0.0000 0.2588 -0.9659 0.2917 0.6667
r10_broken
0 0.0000 -25.0000 43.3013 0.0000 0.5000 -0.8660 0.3333 0.5000
0 0.0000 -35.3553 35.3553 0.0000 0.7071 -0.7071 0.3750 0.5000
0 25.0000 -35.3553 35.3553 0.0000 0.7071 -0.7071 0.3750 0.6667
r10_broken
0 0.0000 -25.0000 43.3013 0.0000 0.5000 -0.8660 0.3333 0.5000
0 25.0000 -35.3553 35.3553 0.0000 0.7071 -0.7071 0.3750 0.6667
0 25.0000 -25.0000 43.3013 0.0000 0.5000 -0.8660 0.3333 0.6667
r10_broken
0 0.0000 -35.3553 35.3553 0.0000 0.7071 -0.7071 0.3750 0.5000
0 0.0000 -43.3013 25.0000 0.0000 0.8660 -0.5000 0.4167 0.5000
0 25.0000 -43.3013 25.0000 0.0000 0.8660 -0.5000 0.4167 0.6667
r10_broken
0 0.0000 -35.3553 35.3553 0.0000 0.7071 -0.7071 0.3750 0.5000
0 25.0000 -43.3013 25.0000 0.0000 0.8660 -0.5000 0.4167 0.6667
0 25.0000 -35.3553 35.3553 0.0000 0.7071 -0.7071 0.3750 0.6667
r10_broken
0 0.0000 -43.3013 25.0000 0.0000 0.8660 -0.5000 0.4167 0.5000
0 0.0000 -48.2963 12.9410 0.0000 0.9659 -0.2588 0.4583 0.5000
0 25.0000 -48.2963 12.9410 0.0000 0.9659 -0.2588 0.4583 0.6667
r10_broken
0 0.0000 -43.3013 25.0000 0.0000 0.8660 -0.5000 0.4167 0.5000
0 25.0000 -48.2963 12.9410 0.0000 0.9659 -0.2588 0.4583 0.6667
0 25.0000 -43.3013 25.0000 0.0000 0.8660 -0.5000 0.4167 0.6667
r10_broken
0 0.0000 -48.2963 12.9410 0.0000 0.9659 -0.2588 0.4583 0.5000
0 0.0000 -50.0000 0.0000 0.0000 1.0000 -0.0000 0.5000 0.5000
0 25.0000 -50.0000 0.0000 0.0000 1.0000 -0.0000 0.5000 0.6667
r10_broken
0 0.0000 -48.2963 12.9410 0.0000 0.9659 -0.2588 0.4583 0.5000
0 25.0000 -50.0000 0.0000 0.0000 1.0000 -0.0000 0.5000 0.6667
0 25.0000 -48.2963 12.9410 0.0000 0.9659 -0.2588 0.4583 0.6667
r10_broken
0 0.0000 -50.0000 0.0000 0.0000 1.0000 -0.0000 0.5000 0.5000
0 0.0000 -48.2963 -12.9410 0.0000 0.9659 0.2588 0.5417 0.5000
0 25.0000 -48.2963 -12.9410 0.0000 0.9659 0.2588 0.5417 0.6667
r10_broken
0 0.0000 -50.0000 0.0000 0.0000 1.0000 -0.0000 0.5000 0.5000
0 25.0000 -48.2963 -12.9410 0.0000 0.9659 0.2588 0.5417 0.6667
0 25.0000 -50.0000 0.0000 0.0000 1.0000 -0.0000 0.5000 0.6667
r10_broken
0 0.0000 -48.2963 -12.9410 0.0000 0.9659 0.2588 0.5417 0.5000
0 0.0000 -43.3013 -25.0000 0.0000 0.8660 0.5000 0.5833 0.5000
0 25.0000 -43.3013 -25.0000 0.0000 0.8660 0.5000 0.5833 0.6667
r10_broken
0 0.0000 -48.2963 -12.9410 0.0000 0.9659 0.2588 0.5417 0.5000
0 25.0000 -43.3013 -25.0000 0.0000 0.8660 0.5000 0.5833 0.6667
0 25.0000 -48.2963 -12.9410 0.0000 0.9659 0.2588 0.5417 0.6667
r10_broken
0 0.0000 -43.3013 -25.0000 0.0000 0.8660 0.5000 0.5833 0.5000
0 0.0000 -35.3553 -35.3553 0.0000 0.7071 0.7071 0.6250 0.5000
0 25.0000 -35.3553 -35.3553 0.0000 0.7071 0.7071 0.6250 0.6667
r10_broken
0 0.0000 -43.3013 -25.0000 0.0000 0.8660 0.5000 0.5833 0.5000
0 25.0000 -35.3553 -35.3553 0.0000 0.7071 0.7071 0.6250 0.6667
0 25.0000 -43.3013 -25.0000 0.0000 0.8660 0.5000 0.5833 0.6667
r10_broken
0 0.0000 -35.3553 -35.3553 0.0000 0.7071 0.7071 0.6250 0.5000
0 0.0000 -25.0000 -43.3013 0.0000 0.5000 0.8660 0.6667 0.5000
0 25.0000 -25.0000 -43.3013 0.0000 0.5000 0.8660 0.6667 0.6667
r10_broken
0 0.0000 -35.3553 -35.3553 0.0000 0.7071 0.7071 0.6250 0.5000
0 25.0000 -25.0000 -43.3013 0.0000 0.5000 0.8660 0.6667 0.6667
0 25.0000 -35.3553 -35.3553 0.0000 0.7071 0.7071 0.6250 0.6667
r10_broken
0 0.0000 -25.0000 -43.3013 0.0000 0.5000 0.8660 0.6667 0.5000
0 0.0000 -12.9410 -48.2963 0.0000 0.2588 0.9659 0.7083 0.5000
0 25.0000 -12.9410 -48.2963 0.0000 0.2588 0.9659 0.7083 0.6667
r10_broken
0 0.0000 -25.0000 -43.3013 0.0000 0.5000 0.8660 0.6667 0.5000
0 25.0000 -12.9410 -48.2963 0.0000 0.2588 0.9659 0.7083 0.6667
0 25.0000 -25.0000 -43.3013 0.0000 0.5000 0.8660 0.6667 0.6667
r10_broken
0 0.0000 -12.9410 -48.2963 0.0000 0.2588 0.9659 0.7083 0.5000
0 0.0000 -0.0000 -50.0000 0.0000 0.0000 1.0000 0.7500 0.5000
0 25.0000 -0.0000 -50.0000 0.0000 0.0000 1.0000 0.7500 0.6667
r10_broken
0 0.0000 -12.9410 -48.2963 0.0000 0.2588 0.9659 0.7083 0.5000
0 25.0000 -0.0000 -50.0000 0.0000 0.0000 1.0000 0.7500 0.6667
0 25.0000 -12.9410 -48.2963 0.0000 0.2588 0.9659 0.7083 0.6667
r10_broken
0 0.0000 -0.0000 -50.0000 0.0000 0.0000 1.0000 0.7500 0.5000
0 0.0000 12.9410 -48.2963 0.0000 -0.2588 0.9659 0.7917 0.5000
0 25.0000 12.9410 -48.2963 0.0000 -0.2588 0.9659 0.7917 0.6667
r10_broken
0 0.0000 -0.0000 -50.0000 0.0000 0.0000 1.0000 0.7500 0.5000
0 25.0000 12.9410 -48.2963 0.0000 -0.2588 0.9659 0.7917 0.6667
0 25.0000 -0.0000 -50.0000 0.0000 0.0000 1.0000 0.7500 0.6667
r10_broken
0 0.0000 12.9410 -48.2963 0.0000 -0.2588 0.9659 0.7917 0.5000
0 0.0000 25.0000 -43.3013 0.0000 -0.5000 0.8660 0.8333 0.5000
0 25.0000 25.0000 -43.3013 0.0000 -0.5000 0.8660 0.8333 0.6667
r10_broken
0 0.0000 12.9410 -48.2963 0.0000 -0.2588 0.9659 0.7917 0.5000
0 25.0000 25.0000 -43.3013 0.0000 -0.5000 0.8660 0.8333 0.6667
0 25.0000 12.9410 -48.2963 0.0000 -0.2588 0.9659 0.7917 0.6667
r10_broken
0 0.0000 25.0000 -43.3013 0.0000 -0.5000 0.8660 0.8333 0.5000
0 0.0000 35.3553 -35.3553 0.0000 -0.7071 0.7071 0.8750 0.5000
0 25.0000 35.3553 -35.3553 0.0000 -0.7071 0.7071 0.8750 0.6667
r10_broken
0 0.0000 25.0000 -43.3013 0.0000 -0.5000 0.8660 0.8333 0.5000
0 25.0000 35.3553 -35.3553 0.0000 -0.7071 0.7071 0.8750 0.6667
0 25.0000 25.0000 -43.3013 0.0000 -0.5000 0.8660 0.8333 0.6667
r10_broken
0 25.0000 48.2963 12.9410 0.0000 -0.9659 -0.2588 0.0417 0.6667
0 25.0000 43.3013 25.0000 0.0000 -0.8660 -0.5000 0.0833 0.6667
0 50.0000 43.3013 25.0000 0.0000 -0.8660 -0.5000 0.0833 0.8333
r10_broken
0 25.0000 48.2963 12.9410 0.0000 -0.9659 -0.2588 0.0417 0.6667
0 50.0000 43.3013 25.0000 0.0000 -0.8660 -0.5000 0.0833 0.8333
0 50.0000 48.2963 12.9410 0.0000 -0.9659 -0.2588 0.0417 0.8333
r10_broken
0 25.0000 43.3013 25.0000 0.0000 -0.8660 -0.5000 0.0833 0.6667
0 25.0000 35.3553 35.3553 0.0000 -0.7071 -0.7071 0.1250 0.6667
0 50.0000 35.3553 35.3553 0.0000 -0.7071 -0.7071 0.1250 0.8333
r10_broken
0 25.0000 43.3013 25.0000 0.0000 -0.8660 -0.5000 0.0833 0.6667
0 50.0000 35.3553 35.3553 0.0000 -0.7071 -0.7071 0.1250 0.8333
0 50.0000 43.3013 25.0000 0.0000 -0.8660 -0.5000 0.0833 0.8333
r10_broken
0 25.0000 35.3553 35.3553 0.0000 -0.7071 -0.7071 0.1250 0.6667
0 25.0000 25.0000 43.3013 0.0000 -0.5000 -0.8660 0.1667 0.6667
0 50.0000 25.0000 43.3013 0.0000 -0.5000 -0.8660 0.1667 0.8333
r10_broken
0 25.0000 35.3553 35.3553 0.0000 -0.7071 -0.7071 0.1250 0.6667
0 50.0000 25.0000 43.3013 0.0000 -0.5000 -0.8660 0.1667 0.8333
0 50.0000 35.3553 35.3553 0.0000 -0.7071 -0.7071 0.1250 0.8333
r10_broken
0 25.0000 25.0000 43.3013 0.0000 -0.5000 -0.8660 0.1667 0.6667
0 25.0000 12.9410 48.2963 0.0000 -0.2588 -0.9659 0.2083 0.6667
0 50.0000 12.9410 48.2963 0.0000 -0.2588 -0.9659 0.2083 0.8333
r10_broken
0 25.0000 25.0000 43.3013 0.0000 -0.5000 -0.8660 0.1667 0.6667
0 50.0000 12.9410 48.2963 0.0000 -0.2588 -0.9659 0.2083 0.8333
0 50.0000 25.0000 43.3013 0.0000 -0.5000 -0.8660 0.1667 0.8333
r10_broken
0 25.0000 12.9410 48.2963 0.0000 -0.2588 -0.9659 0.2083 0.6667
0 25.0000 0.0000 50.0000 0.0000 -0.0000 -1.0000 0.2500 0.6667
0 50.0000 0.0000 50.0000 0.0000 -0.0000 -1.0000 0.2500 0.8333
r10_broken
0 25.0000 12.9410 48.2963 0.0000 -0.2588 -0.9659 0.2083 0.6667
0 50.0000 0.0000 50.0000 0.0000 -0.0000 -1.0000 0.2500 0.8333
0 50.0000 12.9410 48.2963 0.0000 -0.2588 -0.9659 0.2083 0.8333
r10_broken
0 25.0000 0.0000 50.0000 0.0000 -0.0000 -1.0000 0.2500 0.6667
0 25.0000 -12.9410 48.2963 0.0000 0.2588 -0.9659 0.2917 0.6667
0 50.0000 -12.9410 48.2963 0.0000 0.2588 -0.9659 0.2917 0.8333
r10_broken
0 25.0000 0.0000 50.0000 0.0000 -0.0000 -1.0000 0.2500 0.6667
0 50.0000 -12.9410 48.2963 0.0000 0.2588 -0.9659 0.2917 0.8333
0 50.0000 0.0000 50.0000 0.0000 -0.0000 -1.0000 0.2500 0.8333
r10_broken
0 25.0000 -12.9410 48.2963 0.0000 0.2588 -0.9659 0.2917 0.6667
0 25.0000 -25.0000 43.3013 0.0000 0.5000 -0.8660 0.3333 0.6667
0 50.0000 -25.0000 43.3013 0.0000 0.5000 -0.8660 0.3333 0.8333
r10_broken
0 25.0000 -12.9410 48.2963 0.0000 0.2588 -0.9659 0.2917 0.6667
0 50.0000 -25.0000 43.3013 0.0000 0.5000 -0.8660 0.3333 0.8333
0 50.0000 -12.9410 48.2963 0.0000 0.2588 -0.9659 0.2917 0.8333
r10_broken
0 25.0000 -25.0000 43.3013 0.0000 0.5000 -0.8660 0.3333 0.6667
0 25.0000 -35.3553 35.3553 0.0000 0.7071 -0.7071 0.3750 0.6667
0 50.0000 -35.3553 35.3553 0.0000 0.7071 -0.7071 0.3750 0.8333
r10_broken
0 25.0000 -25.0000 43.3013 0.0000 0.5000 -0.8660 0.3333 0.6667
0 50.0000 -35.3553 35.3553 0.0000 0.7071 -0.7071 0.3750 0.8333
0 50.0000 -25.0000 43.3013 0.0000 0.5000 -0.8660 0.3333 0.8333
r10_broken
0 25.0000 -35.3553 35.3553 0.0000 0.7071 -0.7071 0.3750 0.6667
0 25.0000 -43.3013 25.0000 0.0000 0.8660 -0.5000 0.4167 0.6667
0 50.0000 -43.3013 25.0000 0.0000 0.8660 -0.5000 0.4167 0.8333
r10_broken
0 25.0000 -35.3553 35.3553 0.0000 0.7071 -0.7071 0.3750 0.6667
0 50.0000 -43.3013 25.0000 0.0000 0.8660 -0.5000 0.4167 0.8333
0 50.0000 -35.3553 35.3553 0.0000 0.7071 -0.7071 0.3750 0.8333
r10_broken
0 25.0000 -43.3013 25.0000 0.0000 0.8660 -0.5000 0.4167 0.6667
0 25.0000 -48.2963 12.9410 0.0000 0.9659 -0.2588 0.4583 0.6667
0 50.0000 -48.2963 12.9410 0.0000 0.9659 -0.2588 0.4583 0.8333
r10_broken
0 25.0000 -43.3013 25.0000 0.0000 0.8660 -0.5000 0.4167 0.6667
0 50.0000 -48.2963 12.9410 0.0000 0.9659 -0.2588 0.4583 0.8333
0 50.0000 -43.3013 25.0000 0.0000 0.8660 -0.5000 0.4167 0.8333
r10_broken
0 25.0000 -48.2963 12.9410 0.0000 0.9659 -0.2588 0.4583 0.6667
0 25.0000 -50.0000 0.0000 0.0000 1.0000 -0.0000 0.5000 0.6667
0 50.0000 -50.0000 0.0000 0.0000 1.0000 -0.0000 0.5000 0.8333
r10_broken
0 25.0000 -48.2963 12.9410 0.0000 0.9659 -0.2588 0.4583 0.6667
0 50.0000 -50.0000 0.0000 0.0000 1.0000 -0.0000 0.5000 0.8333
0 50.0000 -48.2963 12.9410 0.0000 0.9659 -0.2588 0.4583 0.8333
r10_broken
0 25.0000 -50.0000 0.0000 0.0000 1.0000 -0.0000 0.5000 0.6667
0 25.0000 -48.2963 -12.9410 0.0000 0.9659 0.2588 0.5417 0.6667
0 50.0000 -48.2963 -12.9410 0.0000 0.9659 0.2588 0.5417 0.8333
r10_broken
0 25.0000 -50.0000 0.0000 0.0000 1.0000 -0.0000 0.5000 0.6667
0 50.0000 -48.2963 -12.9410 0.0000 0.9659 0.2588 0.5417 0.8333
0 50.0000 -50.0000 0.0000 0.0000 1.0000 -0.0000 0.5000 0.8333
r10_broken
0 25.0000 -48.2963 -12.9410 0.0000 0.9659 0.2588 0.5417 0.6667
0 25.0000 -43.3013 -25.0000 0.0000 0.8660 0.5000 0.5833 0.6667
0 50.0000 -43.3013 -25.0000 0.0000 0.8660 0.5000 0.5833 0.8333
r10_broken
0 25.0000 -48.2963 -12.9410 0.0000 0.9659 0.2588 0.5417 0.6667
0 50.0000 -43.3013 -25.0000 0.0000 0.8660 0.5000 0.5833 0.8333
0 50.0000 -48.2963 -12.9410 0.0000 0.9659 0.2588 0.5417 0.8333
r10_broken
0 25.0000 -43.3013 -25.0000 0.0000 0.8660 0.5000 0.5833 0.6667
0 25.0000 -35.3553 -35.3553 0.0000 0.7071 0.7071 0.6250 0.6667
0 50.0000 -35.3553 -35.3553 0.0000 0.7071 0.7071 0.6250 0.8333
r10_broken
0 25.0000 -43.3013 -25.0000 0.0000 0.8660 0.5000 0.5833 0.6667
0 50.0000 -35.3553 -35.3553 0.0000 0.7071 0.7071 0.6250 0.8333
0 50.0000 -43.3013 -25.0000 0.0000 0.8660 0.5000 0.5833 0.8333
r10_broken
0 25.0000 -35.3553 -35.3553 0.0000 0.7071 0.7071 0.6250 0.6667
0 25.0000 -25.0000 -43.3013 0.0000 0.5000 0.8660 0.6667 0.6667
0 50.0000 -25.0000 -43.3013 0.0000 0.5000 0.8660 0.6667 0.8333
r10_broken
0 25.0000 -35.3553 -35.3553 0.0000 0.7071 0.7071 0.6250 0.6667
0 50.0000 -25.0000 -43.3013 0.0000 0.5000 0.8660 0.6667 0.8333
0 50.0000 -35.3553 -35.3553 0.0000 0.7071 0.7071 0.6250 0.8333
r10_broken
0 25.0000 -25.0000 -43.3013 0.0000 0.5000 0.8660 0.6667 0.6667
0 25.0000 -12.9410 -48.2963 0.0000 0.2588 0.9659 0.7083 0.6667
0 50.0000 -12.9410 -48.2963 0.0000 0.2588 0.9659 0.7083 0.8333
r10_broken
0 25.0000 -25.0000 -43.3013 0.0000 0.5000 0.8660 0.6667 0.6667
0 50.0000 -12.9410 -48.2963 0.0000 0.2588 0.9659 0.7083 0.8333
0 50.0000 -25.0000 -43.3013 0.0000 0.5000 0.8660 0.6667 0.8333
r10_broken
0 25.0000 -12.9410 -48.2963 0.0000 0.2588 0.9659 0.7083 0.6667
0 25.0000 -0.0000 -50.0000 0.0000 0.0000 1.0000 0.7500 0.6667
0 50.0000 -0.0000 -50.0000 0.0000 0.0000 1.0000 0.7500 0.8333
r10_broken
0 25.0000 -12.9410 -48.2963 0.0000 0.2588 0.9659 0.7083 0.6667
0 50.0000 -0.0000 -50.0000 0.0000 0.0000 1.0000 0.7500 0.8333
0 50.0000 -12.9410 -48.2963 0.0000 0.2588 0.9659 0.7083 0.8333
r10_broken
0 25.0000 -0.0000 -50.0000 0.0000 0.0000 1.0000 0.7500 0.6667
0 25.0000 12.9410 -48.2963 0.0000 -0.2588 0.9659 0.7917 0.6667
0 50.0000 12.9410 -48.2963 0.0000 -0.2588 0.9659 0.7917 0.8333
r10_broken
0 25.0000 -0.0000 -50.0000 0.0000 0.0000 1.0000 0.7500 0.6667
0 50.0000 12.9410 -48.2963 0.0000 -0.2588 0.9659 0.7917 0.8333
0 50.0000 -0.0000 -50.0000 0.0000 0.0000 1.0000 0.7500 0.8333
r10_broken
0 25.0000 12.9410 -48.2963 0.0000 -0.2588 0.9659 0.7917 0.6667
0 25.0000 25.0000 -43.3013 0.0000 -0.5000 0.8660 0.8333 0.6667
0 50.0000 25.0000 -43.3013 0.0000 -0.5000 0.8660 0.8333 0.8333
r10_broken
0 25.0000 12.9410 -48.2963 0.0000 -0.2588 0.9659 0.7917 0.6667
0 50.0000 25.0000 -43.3013 0.0000 -0.5000 0.8660 0.8333 0.8333
0 50.0000 12.9410 -48.2963 0.0000 -0.2588 0.9659 0.7917 0.8333
r10_broken
0 25.0000 25.0000 -43.3013 0.0000 -0.5000 0.8660 0.8333 0.6667
0 25.0000 35.3553 -35.3553 0.0000 -0.7071 0.7071 0.8750 0.6667
0 50.0000 35.3553 -35.3553 0.0000 -0.7071 0.7071 0.8750 0.8333
r10_broken
0 25.0000 25.0000 -43.3013 0.0000 -0.5000 0.8660 0.8333 0.6667
0 50.0000 35.3553 -35.3553 0.0000 -0.7071 0.7071 0.8750 0.8333
0 50.0000 25.0000 -43.3013 0.0000 -0.5000 0.8660 0.8333 0.8333
r10_broken
0 25.0000 35.3553 -35.3553 0.0000 -0.7071 0.7071 0.8750 0.6667
0 25.0000 43.3013 -25.0000 0.0000 -0.8660 0.5000 0.9167 0.6667
0 50.0000 43.3013 -25.0000 0.0000 -0.8660 0.5000 0.9167 0.8333
r10_broken
0 25.0000 35.3553 -35.3553 0.0000 -0.7071 0.7071 0.8750 0.6667
0 50.0000 43.3013 -25.0000 0.0000 -0.8660 0.5000 0.9167 0.8333
0 50.0000 35.3553 -35.3553 0.0000 -0.7071 0.7071 0.8750 0.8333
r10_broken
0 50.0000 48.2963 12.9410 0.0000 -0.9659 -0.2588 0.0417 0.8333
0 50.0000 43.3013 25.0000 0.0000 -0.8660 -0.5000 0.0833 0.8333
0 75.0000 43.3013 25.0000 0.0000 -0.8660 -0.5000 0.0833 1.0000
r10_broken
0 50.0000 48.2963 12.9410 0.0000 -0.9659 -0.2588 0.0417 0.8333
0 75.0000 43.3013 25.0000 0.0000 -0.8660 -0.5000 0.0833 1.0000
0 75.0000 48.2963 12.9410 0.0000 -0.9659 -0.2588 0.0417 1.0000
r10_broken
0 50.0000 43.3013 25.0000 0.0000 -0.8660 -0.5000 0.0833 0.8333
0 50.0000 35.3553 35.3553 0.0000 -0.7071 -0.7071 0.1250 0.8333
0 75.0000 35.3553 35.3553 0.0000 -0.7071 -0.7071 0.1250 1.0000
r10_broken
0 50.0000 43.3013 25.0000 0.0000 -0.8660 -0.5000 0.0833 0.8333
0 75.0000 35.3553 35.3553 0.0000 -0.7071 -0.7071 0.1250 1.0000
0 75.0000 43.3013 25.0000 0.0000 -0.8660 -0.5000 0.0833 1.0000
r10_broken
0 50.0000 35.3553 35.3553 0.0000 -0.7071 -0.7071 0.1250 0.8333
0 50.0000 25.0000 43.3013 0.0000 -0.5000 -0.8660 0.1667 0.8333
0 75.0000 25.0000 43.3013 0.0000 -0.5000 -0.8660 0.1667 1.0000
r10_broken
0 50.0000 35.3553 35.3553 0.0000 -0.7071 -0.7071 0.1250 0.8333
0 75.0000 25.0000 43.3013 0.0000 -0.5000 -0.8660 0.1667 1.0000
0 75.0000 35.3553 35.3553 0.0000 -0.7071 -0.7071 0.1250 1.0000
r10_broken
0 50.0000 25.0000 43.3013 0.0000 -0.5000 -0.8660 0.1667 0.8333
0 50.0000 12.9410 48.2963 0.0000 -0.2588 -0.9659 0.2083 0.8333
0 75.0000 12.9410 48.2963 0.0000 -0.2588 -0.9659 0.2083 1.0000
r10_broken
0 50.0000 25.0000 43.3013 0.0000 -0.5000 -0.8660 0.1667 0.8333
0 75.0000 12.9410 48.2963 0.0000 -0.2588 -0.9659 0.2083 1.0000
0 75.0000 25.0000 43.3013 0.0000 -0.5000 -0.8660 0.1667 1.0000
r10_broken
0 50.0000 12.9410 48.2963 0.0000 -0.2588 -0.9659 0.2083 0.8333
0 50.0000 0.0000 50.0000 0.0000 -0.0000 -1.0000 0.2500 0.8333
0 75.0000 0.0000 50.0000 0.0000 -0.0000 -1.0000 0.2500 1.0000
r10_broken
0 50.0000 12.9410 48.2963 0.0000 -0.2588 -0.9659 0.2083 0.8333
0 75.0000 0.0000 50.0000 0.0000 -0.0000 -1.0000 0.2500 1.0000
0 75.0000 12.9410 48.2963 0.0000 -0.2588 -0.9659 0.2083 1.0000
r10_broken
0 50.0000 0.0000 50.0000 0.0000 -0.0000 -1.0000 0.2500 0.8333
0 50.0000 -12.9410 48.2963 0.0000 0.2588 -0.9659 0.2917 0.8333
0 75.0000 -12.9410 48.2963 0.0000 0.2588 -0.9659 0.2917 1.0000
r10_broken
0 50.0000 0.0000 50.0000 0.0000 -0.0000 -1.0000 0.2500 0.8333
0 75.0000 -12.9410 48.2963 0.0000 0.2588 -0.9659 0.2917 1.0000
0 75.0000 0.0000 50.0000 0.0000 -0.0000 -1.0000 0.2500 1.0000
r10_broken
0 50.0000 -12.9410 48.2963 0.0000 0.2588 -0.9659 0.2917 0.8333
0 50.0000 -25.0000 43.3013 0.0000 0.5000 -0.8660 0.3333 0.8333
0 75.0000 -25.0000 43.3013 0.0000 0.5000 -0.8660 0.3333 1.0000
r10_broken
0 50.0000 -12.9410 48.2963 0.0000 0.2588 -0.9659 0.2917 0.8333
0 75.0000 -25.0000 43.3013 0.0000 0.5000 -0.8660 0.3333 1.0000
0 75.0000 -12.9410 48.2963 0.0000 0.2588 -0.9659 0.2917 1.0000
r10_broken
0 50.0000 -25.0000 43.3013 0.0000 0.5000 -0.8660 0.3333 0.8333
0 50.0000 -35.3553 35.3553 0.0000 0.7071 -0.7071 0.3750 0.8333
0 75.0000 -35.3553 35.3553 0.0000 0.7071 -0.7071 0.3750 1.0000
r10_broken
0 50.0000 -25.0000 43.3013 0.0000 0.5000 -0.8660 0.3333 0.8333
0 75.0000 -35.3553 35.3553 0.0000 0.7071 -0.7071 0.3750 1.0000
0 75.0000 -25.0000 43.3013 0.0000 0.5000 -0.8660 0.3333 1.0000
r10_broken
0 50.0000 -35.3553 35.3553 0.0000 0.7071 -0.7071 0.3750 0.8333
0 50.0000 -43.3013 25.0000 0.0000 0.8660 -0.5000 0.4167 0.8333
0 75.0000 -43.3013 25.0000 0.0000 0.8660 -0.5000 0.4167 1.0000
r10_broken
0 50.0000 -35.3553 35.3553 0.0000 0.7071 -0.7071 0.3750 0.8333
0 75.0000 -43.3013 25.0000 0.0000 0.8660 -0.5000 0.4167 1.0000
0 75.0000 -35.3553 35.3553 0.0000 0.7071 -0.7071 0.3750 1.0000
r10_broken
0 50.0000 -43.3013 25.0000 0.0000 0.8660 -0.5000 0.4167 0.8333
0 50.0000 -48.2963 12.9410 0.0000 0.9659 -0.2588 0.4583 0.8333
0 75.0000 -48.2963 12.9410 0.0000 0.9659 -0.2588 0.4583 1.0000
r10_broken
0 50.0000 -43.3013 25.0000 0.0000 0.8660 -0.5000 0.4167 0.8333
0 75.0000 -48.2963 12.9410 0.0000 0.9659 -0.2588 0.4583 1.0000
0 75.0000 -43.3013 25.0000 0.0000 0.8660 -0.5000 0.4167 1.0000
r10_broken
0 50.0000 -48.2963 12.9410 0.0000 0.9659 -0.2588 0.4583 0.8333
0 50.0000 -50.0000 0.0000 0.0000 1.0000 -0.0000 0.5000 0.8333
0 75.0000 -50.0000 0.0000 0.0000 1.0000 -0.0000 0.5000 1.0000
r10_broken
0 50.0000 -48.2963 12.9410 0.0000 0.9659 -0.2588 0.4583 0.8333
0 75.0000 -50.0000 0.0000 0.0000 1.0000 -0.0000 0.5000 1.0000
0 75.0000 -48.2963 12.9410 0.0000 0.9659 -0.2588 0.4583 1.0000
r10_broken
0 50.0000 -50.0000 0.0000 0.0000 1.0000 -0.0000 0.5000 0.8333
0 50.0000 -48.2963 -12.9410 0.0000 0.9659 0.2588 0.5417 0.8333
0 75.0000 -48.2963 -12.9410 0.0000 0.9659 0.2588 0.5417 1.0000
r10_broken
0 50.0000 -50.0000 0.0000 0.0000 1.0000 -0.0000 0.5000 0.8333
0 75.0000 -48.2963 -12.9410 0.0000 0.9659 0.2588 0.5417 1.0000
0 75.0000 -50.0000 0.0000 0.0000 1.0000 -0.0000 0.5000 1.0000
r10_broken
0 50.0000 -48.2963 -12.9410 0.0000 0.9659 0.2588 0.5417 0.8333
0 50.0000 -43.3013 -25.0000 0.0000 0.8660 0.5000 0.5833 0.8333
0 75.0000 -43.3013 -25.0000 0.0000 0.8660 0.5000 0.5833 1.0000
r10_broken
0 50.0000 -48.2963 -12.9410 0.0000 0.9659 0.2588 0.5417 0.8333
0 75.0000 -43.3013 -25.0000 0.0000 0.8660 0.5000 0.5833 1.0000
0 75.0000 -48.2963 -12.9410 0.0000 0.9659 0.2588 0.5417 1.0000
r10_broken
0 50.0000 -43.3013 -25.0000 0.0000 0.8660 0.5000 0.5833 0.8333
0 50.0000 -35.3553 -35.3553 0.0000 0.7071 0.7071 0.6250 0.8333
0 75.0000 -35.3553 -35.3553 0.0000 0.7071 0.7071 0.6250 1.0000
r10_broken
0 50.0000 -43.3013 -25.0000 0.0000 0.8660 0.5000 0.5833 0.8333
0 75.0000 -35.3553 -35.3553 0.0000 0.7071 0.7071 0.6250 1.0000
0 75.0000 -43.3013 -25.0000 0.0000 0.8660 0.5000 0.5833 1.0000
r10_broken
0 50.0000 -35.3553 -35.3553 0.0000 0.7071 0.7071 0.6250 0.8333
0 50.0000 -25.0000 -43.3013 0.0000 0.5000 0.8660 0.6667 0.8333
0 75.0000 -25.0000 -43.3013 0.0000 0.5000 0.8660 0.6667 1.0000
r10_broken
0 50.0000 -35.3553 -35.3553 0.0000 0.7071 0.7071 0.6250 0.8333
0 75.0000 -25.0000 -43.3013 0.0000 0.5000 0.8660 0.6667 1.0000
0 75.0000 -35.3553 -35.3553 0.0000 0.7071 0.7071 0.6250 1.0000
r10_broken
0 50.0000 -25.0000 -43.3013 0.0000 0.5000 0.8660 0.6667 0.8333
0 50.0000 -12.9410 -48.2963 0.0000 0.2588 0.9659 0.7083 0.8333
0 75.0000 -12.9410 -48.2963 0.0000 0.2588 0.9659 0.7083 1.0000
r10_broken
0 50.0000 -25.0000 -43.3013 0.0000 0.5000 0.8660 0.6667 0.8333
0 75.0000 -12.9410 -48.2963 0.0000 0.2588 0.9659 0.7083 1.0000
0 75.0000 -25.0000 -43.3013 0.0000 0.5000 0.8660 0.6667 1.0000
r10_broken
0 50.0000 -12.9410 -48.2963 0.0000 0.2588 0.9659 0.7083 0.8333
0 50.0000 -0.0000 -50.0000 0.0000 0.0000 1.0000 0.7500 0.8333
0 75.0000 -0.0000 -50.0000 0.0000 0.0000 1.0000 0.7500 1.0000
r10_broken
0 50.0000 -12.9410 -48.2963 0.0000 0.2588 0.9659 0.7083 0.8333
0 75.0000 -0.0000 -50.0000 0.0000 0.0000 1.0000 0.7500 1.0000
0 75.0000 -12.9410 -48.2963 0.0000 0.2588 0.9659 0.7083 1.0000
r10_broken
0 50.0000 -0.0000 -50.0000 0.0000 0.0000 1.0000 0.7500 0.8333
0 50.0000 12.9410 -48.2963 0.0000 -0.2588 0.9659 0.7917 0.8333
0 75.0000 12.9410 -48.2963 0.0000 -0.2588 0.9659 0.7917 1.0000
r10_broken
0 50.0000 -0.0000 -50.0000 0.0000 0.0000 1.0000 0.7500 0.8333
0 75.0000 12.9410 -48.2963 0.0000 -0.2588 0.9659 0.7917 1.0000
0 75.0000 -0.0000 -50.0000 0.0000 0.0000 1.0000 0.7500 1.0000
r10_broken
0 50.0000 12.9410 -48.2963 0.0000 -0.2588 0.9659 0.7917 0.8333
0 50.0000 25.0000 -43.3013 0.0000 -0.5000 0.8660 0.8333 0.8333
0 75.0000 25.0000 -43.3013 0.0000 -0.5000 0.8660 0.8333 1.0000
r10_broken
0 50.0000 12.9410 -48.2963 0.0000 -0.2588 0.9659 0.7917 0.8333
0 75.0000 25.0000 -43.3013 0.0000 -0.5000 0.8660 0.8333 1.0000
0 75.0000 12.9410 -48.2963 0.0000 -0.2588 0.9659 0.7917 1.0000
r10_broken
0 50.0000 25.0000 -43.3013 0.0000 -0.5000 0.8660 0.8333 0.8333
0 50.0000 35.3553 -35.3553 0.0000 -0.7071 0.7071 0.8750 0.8333
0 75.0000 35.3553 -35.3553 0.0000 -0.7071 0.7071 0.8750 1.0000
r10_broken
0 50.0000 25.0000 -43.3013 0.0000 -0.5000 0.8660 0.8333 0.8333
0 75.0000 35.3553 -35.3553 0.0000 -0.7071 0.7071 0.8750 1.0000
0 75.0000 25.0000 -43.3013 0.0000 -0.5000 0.8660 0.8333 1.0000
r10_broken
0 50.0000 35.3553 -35.3553 0.0000 -0.7071 0.7071 0.8750 0.8333
0 50.0000 43.3013 -25.0000 0.0000 -0.8660 0.5000 0.9167 0.8333
0 75.0000 43.3013 -25.0000 0.0000 -0.8660 0.5000 0.9167 1.0000
r10_broken
0 50.0000 35.3553 -35.3553 0.0000 -0.7071 0.7071 0.8750 0.8333
0 75.0000 43.3013 -25.0000 0.0000 -0.8660 0.5000 0.9167 1.0000
0 75.0000 35.3553 -35.3553 0.0000 -0.7071 0.7071 0.8750 1.0000
r10_broken
0 50.0000 43.3013 -25.0000 0.0000 -0.8660 0.5000 0.9167 0.8333
0 50.0000 48.2963 -12.9410 0.0000 -0.9659 0.2588 0.9583 0.8333
0 75.0000 48.2963 -12.9410 0.0000 -0.9659 0.2588 0.9583 1.0000
r10_broken
0 50.0000 43.3013 -25.0000 0.0000 -0.8660 0.5000 0.9167 0.8333
0 75.0000 48.2963 -12.9410 0.0000 -0.9659 0.2588 0.9583 1.0000
0 75.0000 43.3013 -25.0000 0.0000 -0.8660 0.5000 0.9167 1.0000
r10_debris
0 -12.0000 29.0000 -27.0000 1.0000 0.0000 0.0000 0.0000 0.0000
0 -12.0000 35.0000 -27.0000 1.0000 0.0000 0.0000 0.0000 0.0000
0 -12.0000 35.0000 -17.0000 1.0000 0.0000 0.0000 0.0000 0.0000
r10_debris
0 -12.0000 29.0000 -27.0000 1.0000 0.0000 0.0000 0.0000 0.0000
0 -12.0000 35.0000 -17.0000 1.0000 0.0000 0.0000 0.0000 0.0000
0 -12.0000 29.0000 -17.0000 1.0000 0.0000 0.0000 0.0000 0.0000
r10_debris
0 -28.0000 29.0000 -27.0000 -1.0000 0.0000 0.0000 0.0000 0.0000
0 -28.0000 29.0000 -17.0000 -1.0000 0.0000 0.0000 0.0000 0.0000
0 -28.0000 35.0000 -17.0000 -1.0000 0.0000 0.0000 0.0000 0.0000
r10_debris
0 -28.0000 29.0000 -27.0000 -1.0000 0.0000 0.0000 0.0000 0.0000
0 -28.0000 35.0000 -17.0000 -1.0000 0.0000 0.0000 0.0000 0.0000
0 -28.0000 35.0000 -27.0000 -1.0000 0.0000 0.0000 0.0000 0.0000
r10_debris
0 -28.0000 35.0000 -27.0000 0.0000 1.0000 0.0000 0.0000 0.0000
0 -28.0000 35.0000 -17.0000 0.0000 1.0000 0.0000 0.0000 0.0000
0 -12.0000 35.0000 -17.0000 0.0000 1.0000 0.0000 0.0000 0.0000
r10_debris
0 -28.0000 35.0000 -27.0000 0.0000 1.0000 0.0000 0.0000 0.0000
0 -12.0000 35.0000 -17.0000 0.0000 1.0000 0.0000 0.0000 0.0000
0 -12.0000 35.0000 -27.0000 0.0000 1.0000 0.0000 0.0000 0.0000
r10_debris
0 -28.0000 29.0000 -27.0000 0.0000 -1.0000 0.0000 0.0000 0.0000
0 -12.0000 29.0000 -27.0000 0.0000 -1.0000 0.0000 0.0000 0.0000
0 -12.0000 29.0000 -17.0000 0.0000 -1.0000 0.0000 0.0000 0.0000
r10_debris
0 -28.0000 29.0000 -27.0000 0.0000 -1.0000 0.0000 0.0000 0.0000
0 -12.0000 29.0000 -17.0000 0.0000 -1.0000 0.0000 0.0000 0.0000
0 -28.0000 29.0000 -17.0000 0.0000 -1.0000 0.0000 0.0000 0.0000
r10_debris
0 -28.0000 29.0000 -17.0000 0.0000 0.0000 1.0000 0.0000 0.0000
0 -12.0000 29.0000 -17.0000 0.0000 0.0000 1.0000 0.0000 0.0000
0 -12.0000 35.0000 -17.0000 0.0000 0.0000 1.0000 0.0000 0.0000
r10_debris
0 -28.0000 29.0000 -17.0000 0.0000 0.0000 1.0000 0.0000 0.0000
0 -12.0000 35.0000 -17.0000 0.0000 0.0000 1.0000 0.0000 0.0000
0 -28.0000 35.0000 -17.0000 0.0000 0.0000 1.0000 0.0000 0.0000
r10_debris
0 -28.0000 29.0000 -27.0000 0.0000 0.0000 -1.0000 0.0000 0.0000
0 -28.0000 35.0000 -27.0000 0.0000 0.0000 -1.0000 0.0000 0.0000
0 -12.0000 35.0000 -27.0000 0.0000 0.0000 -1.0000 0.0000 0.0000
r10_debris
0 -28.0000 29.0000 -27.0000 0.0000 0.0000 -1.0000 0.0000 0.0000
0 -12.0000 35.0000 -27.0000 0.0000 0.0000 -1.0000 0.0000 0.0000
0 -12.0000 29.0000 -27.0000 0.0000 0.0000 -1.0000 0.0000 0.0000
r10_debris
0 17.0000 25.0000 12.0000 1.0000 0.0000 0.0000 0.0000 0.0000
0 17.0000 35.0000 12.0000 1.0000 0.0000 0.0000 0.0000 0.0000
0 17.0000 35.0000 16.0000 1.0000 0.0000 0.0000 0.0000 0.0000
r10_debris
0 17.0000 25.0000 12.0000 1.0000 0.0000 0.0000 0.0000 0.0000
0 17.0000 35.0000 16.0000 1.0000 0.0000 0.0000 0.0000 0.0000
0 17.0000 25.0000 16.0000 1.0000 0.0000 0.0000 0.0000 0.0000
r10_debris
0 7.0000 25.0000 12.0000 -1.0000 0.0000 0.0000 0.0000 0.0000
0 7.0000 25.0000 16.0000 -1.0000 0.0000 0.0000 0.0000 0.0000
0 7.0000 35.0000 16.0000 -1.0000 0.0000 0.0000 0.0000 0.0000
r10_debris
0 7.0000 25.0000 12.0000 -1.0000 0.0000 0.0000 0.0000 0.0000
0 7.0000 35.0000 16.0000 -1.0000 0.0000 0.0000 0.0000 0.0000
0 7.0000 35.0000 12.0000 -1.0000 0.0000 0.0000 0.0000 0.0000
r10_debris
0 7.0000 35.0000 12.0000 0.0000 1.0000 0.0000 0.0000 0.0000
0 7.0000 35.0000 16.0000 0.0000 1.0000 0.0000 0.0000 0.0000
0 17.0000 35.0000 16.0000 0.0000 1.0000 0.0000 0.0000 0.0000
r10_debris
0 7.0000 35.0000 12.0000 0.0000 1.0000 0.0000 0.0000 0.0000
0 17.0000 35.0000 16.0000 0.0000 1.0000 0.0000 0.0000 0.0000
0 17.0000 35.0000 12.0000 0.0000 1.0000 0.0000 0.0000 0.0000
r10_debris
0 7.0000 25.0000 12.0000 0.0000 -1.0000 0.0000 0.0000 0.0000
0 17.0000 25.0000 12.0000 0.0000 -1.0000 0.0000 0.0000 0.0000
0 17.0000 25.0000 16.0000 0.0000 -1.0000 0.0000 0.0000 0.0000
r10_debris
0 7.0000 25.0000 12.0000 0.0000 -1.0000 0.0000 0.0000 0.0000
0 17.0000 25.0000 16.0000 0.0000 -1.0000 0.0000 0.0000 0.0000
0 7.0000 25.0000 16.0000 0.0000 -1.0000 0.0000 0.0000 0.0000
r10_debris
0 7.0000 25.0000 16.0000 0.0000 0.0000 1.0000 0.0000 0.0000
0 17.0000 25.0000 16.0000 0.0000 0.0000 1.0000 0.0000 0.0000
0 17.0000 35.0000 16.0000 0.0000 0.0000 1.0000 0.0000 0.0000
r10_debris
0 7.0000 25.0000 16.0000 0.0000 0.0000 1.0000 0.0000 0.0000
0 17.0000 35.0000 16.0000 0.0000 0.0000 1.0000 0.0000 0.0000
0 7.0000 35.0000 16.0000 0.0000 0.0000 1.0000 0.0000 0.0000
r10_debris
0 7.0000 25.0000 12.0000 0.0000 0.0000 -1.0000 0.0000 0.0000
0 7.0000 35.0000 12.0000 0.0000 0.0000 -1.0000 0.0000 0.0000
0 17.0000 35.0000 12.0000 0.0000 0.0000 -1.0000 0.0000 0.0000
r10_debris
0 7.0000 25.0000 12.0000 0.0000 0.0000 -1.0000 0.0000 0.0000
0 17.0000 35.0000 12.0000 0.0000 0.0000 -1.0000 0.0000 0.0000
0 17.0000 25.0000 12.0000 0.0000 0.0000 -1.0000 0.0000 0.0000
r10_debris_pale
0 38.0000 34.0000 -15.0000 1.0000 0.0000 0.0000 0.0000 0.0000
0 38.0000 38.0000 -15.0000 1.0000 0.0000 0.0000 0.0000 0.0000
0 38.0000 38.0000 -1.0000 1.0000 0.0000 0.0000 0.0000 0.0000
r10_debris_pale
0 38.0000 34.0000 -15.0000 1.0000 0.0000 0.0000 0.0000 0.0000
0 38.0000 38.0000 -1.0000 1.0000 0.0000 0.0000 0.0000 0.0000
0 38.0000 34.0000 -1.0000 1.0000 0.0000 0.0000 0.0000 0.0000
r10_debris_pale
0 30.0000 34.0000 -15.0000 -1.0000 0.0000 0.0000 0.0000 0.0000
0 30.0000 34.0000 -1.0000 -1.0000 0.0000 0.0000 0.0000 0.0000
0 30.0000 38.0000 -1.0000 -1.0000 0.0000 0.0000 0.0000 0.0000
r10_debris_pale
0 30.0000 34.0000 -15.0000 -1.0000 0.0000 0.0000 0.0000 0.0000
0 30.0000 38.0000 -1.0000 -1.0000 0.0000 0.0000 0.0000 0.0000
0 30.0000 38.0000 -15.0000 -1.0000 0.0000 0.0000 0.0000 0.0000
r10_debris_pale
0 30.0000 38.0000 -15.0000 0.0000 1.0000 0.0000 0.0000 0.0000
0 30.0000 38.0000 -1.0000 0.0000 1.0000 0.0000 0.0000 0.0000
0 38.0000 38.0000 -1.0000 0.0000 1.0000 0.0000 0.0000 0.0000
r10_debris_pale
0 30.0000 38.0000 -15.0000 0.0000 1.0000 0.0000 0.0000 0.0000
0 38.0000 38.0000 -1.0000 0.0000 1.0000 0.0000 0.0000 0.0000
0 38.0000 38.0000 -15.0000 0.0000 1.0000 0.0000 0.0000 0.0000
r10_debris_pale
0 30.0000 34.0000 -15.0000 0.0000 -1.0000 0.0000 0.0000 0.0000
0 38.0000 34.0000 -15.0000 0.0000 -1.0000 0.0000 0.0000 0.0000
0 38.0000 34.0000 -1.0000 0.0000 -1.0000 0.0000 0.0000 0.0000
r10_debris_pale
0 30.0000 34.0000 -15.0000 0.0000 -1.0000 0.0000 0.0000 0.0000
0 38.0000 34.0000 -1.0000 0.0000 -1.0000 0.0000 0.0000 0.0000
0 30.0000 34.0000 -1.0000 0.0000 -1.0000 0.0000 0.0000 0.0000
r10_debris_pale
0 30.0000 34.0000 -1.0000 0.0000 0.0000 1.0000 0.0000 0.0000
0 38.0000 34.0000 -1.0000 0.0000 0.0000 1.0000 0.0000 0.0000
0 38.0000 38.0000 -1.0000 0.0000 0.0000 1.0000 0.0000 0.0000
r10_debris_pale
0 30.0000 34.0000 -1.0000 0.0000 0.0000 1.0000 0.0000 0.0000
0 38.0000 38.0000 -1.0000 0.0000 0.0000 1.0000 0.0000 0.0000
0 30.0000 38.0000 -1.0000 0.0000 0.0000 1.0000 0.0000 0.0000
r10_debris_pale
0 30.0000 34.0000 -15.0000 0.0000 0.0000 -1.0000 0.0000 0.0000
0 30.0000 38.0000 -15.0000 0.0000 0.0000 -1.0000 0.0000 0.0000
0 38.0000 38.0000 -15.0000 0.0000 0.0000 -1.0000 0.0000 0.0000
r10_debris_pale
0 30.0000 34.0000 -15.0000 0.0000 0.0000 -1.0000 0.0000 0.0000
0 38.0000 38.0000 -15.0000 0.0000 0.0000 -1.0000 0.0000 0.0000
0 38.0000 34.0000 -15.0000 0.0000 0.0000 -1.0000 0.0000 0.0000
r10_debris
0 -34.0000 -40.0000 -33.0000 1.0000 0.0000 0.0000 0.0000 0.0000
0 -34.0000 -32.0000 -33.0000 1.0000 0.0000 0.0000 0.0000 0.0000
0 -34.0000 -32.0000 -27.0000 1.0000 0.0000 0.0000 0.0000 0.0000
r10_debris
0 -34.0000 -40.0000 -33.0000 1.0000 0.0000 0.0000 0.0000 0.0000
0 -34.0000 -32.0000 -27.0000 1.0000 0.0000 0.0000 0.0000 0.0000
0 -34.0000 -40.0000 -27.0000 1.0000 0.0000 0.0000 0.0000 0.0000
r10_debris
0 -46.0000 -40.0000 -33.0000 -1.0000 0.0000 0.0000 0.0000 0.0000
0 -46.0000 -40.0000 -27.0000 -1.0000 0.0000 0.0000 0.0000 0.0000
0 -46.0000 -32.0000 -27.0000 -1.0000 0.0000 0.0000 0.0000 0.0000
r10_debris
0 -46.0000 -40.0000 -33.0000 -1.0000 0.0000 0.0000 0.0000 0.0000
0 -46.0000 -32.0000 -27.0000 -1.0000 0.0000 0.0000 0.0000 0.0000
0 -46.0000 -32.0000 -33.0000 -1.0000 0.0000 0.0000 0.0000 0.0000
r10_debris
0 -46.0000 -32.0000 -33.0000 0.0000 1.0000 0.0000 0.0000 0.0000
0 -46.0000 -32.0000 -27.0000 0.0000 1.0000 0.0000 0.0000 0.0000
0 -34.0000 -32.0000 -27.0000 0.0000 1.0000 0.0000 0.0000 0.0000
r10_debris
0 -46.0000 -32.0000 -33.0000 0.0000 1.0000 0.0000 0.0000 0.0000
0 -34.0000 -32.0000 -27.0000 0.0000 1.0000 0.0000 0.0000 0.0000
0 -34.0000 -32.0000 -33.0000 0.0000 1.0000 0.0000 0.0000 0.0000
r10_debris
0 -46.0000 -40.0000 -33.0000 0.0000 -1.0000 0.0000 0.0000 0.0000
0 -34.0000 -40.0000 -33.0000 0.0000 -1.0000 0.0000 0.0000 0.0000
0 -34.0000 -40.0000 -27.0000 0.0000 -1.0000 0.0000 0.0000 0.0000
r10_debris
0 -46.0000 -40.0000 -33.0000 0.0000 -1.0000 0.0000 0.0000 0.0000
0 -34.0000 -40.0000 -27.0000 0.0000 -1.0000 0.0000 0.0000 0.0000
0 -46.0000 -40.0000 -27.0000 0.0000 -1.0000 0.0000 0.0000 0.0000
r10_debris
0 -46.0000 -40.0000 -27.0000 0.0000 0.0000 1.0000 0.0000 0.0000
0 -34.0000 -40.0000 -27.0000 0.0000 0.0000 1.0000 0.0000 0.0000
0 -34.0000 -32.0000 -27.0000 0.0000 0.0000 1.0000 0.0000 0.0000
r10_debris
0 -46.0000 -40.0000 -27.0000 0.0000 0.0000 1.0000 0.0000 0.0000
0 -34.0000 -32.0000 -27.0000 0.0000 0.0000 1.0000 0.0000 0.0000
0 -46.0000 -32.0000 -27.0000 0.0000 0.0000 1.0000 0.0000 0.0000
r10_debris
0 -46.0000 -40.0000 -33.0000 0.0000 0.0000 -1.0000 0.0000 0.0000
0 -46.0000 -32.0000 -33.0000 0.0000 0.0000 -1.0000 0.0000 0.0000
0 -34.0000 -32.0000 -33.0000 0.0000 0.0000 -1.0000 0.0000 0.0000
r10_debris
0 -46.0000 -40.0000 -33.0000 0.0000 0.0000 -1.0000 0.0000 0.0000
0 -34.0000 -32.0000 -33.0000 0.0000 0.0000 -1.0000 0.0000 0.0000
0 -34.0000 -40.0000 -33.0000 0.0000 0.0000 -1.0000 0.0000 0.0000
end
