version 1
nodes
0 "root" -1
end
skeleton
time 0
0 0 0 0 0 0 0
end
triangles
r10_column
0 50.0000 0.0000 0.0000 1.0000 0.0000 0.0000 0.0000 2.0000
0 48.2963 12.9410 0.0000 0.9659 0.2588 0.0000 0.0417 2.0000
0 48.2963 12.9410 620.0000 0.9659 0.2588 0.0000 0.0417 0.0000
r10_column
0 50.0000 0.0000 0.0000 1.0000 0.0000 0.0000 0.0000 2.0000
0 48.2963 12.9410 620.0000 0.9659 0.2588 0.0000 0.0417 0.0000
0 50.0000 0.0000 620.0000 1.0000 0.0000 0.0000 0.0000 0.0000
r10_flange
0 0.0000 0.0000 0.0000 0.0000 0.0000 1.0000 0.5000 0.5000
0 72.0000 0.0000 0.0000 0.0000 0.0000 1.0000 0.0000 0.0000
0 69.5467 18.6350 0.0000 0.0000 0.0000 1.0000 1.0000 0.0000
r10_flange
0 0.0000 0.0000 -10.0000 0.0000 0.0000 -1.0000 0.5000 0.5000
0 69.5467 18.6350 -10.0000 0.0000 0.0000 -1.0000 1.0000 0.0000
0 72.0000 0.0000 -10.0000 0.0000 0.0000 -1.0000 0.0000 0.0000
r10_flange
0 72.0000 0.0000 -10.0000 1.0000 0.0000 0.0000 0.0000 1.0000
0 69.5467 18.6350 -10.0000 0.9659 0.2588 0.0000 1.0000 1.0000
0 69.5467 18.6350 0.0000 0.9659 0.2588 0.0000 1.0000 0.0000
r10_flange
0 72.0000 0.0000 -10.0000 1.0000 0.0000 0.0000 0.0000 1.0000
0 69.5467 18.6350 0.0000 0.9659 0.2588 0.0000 1.0000 0.0000
0 72.0000 0.0000 0.0000 1.0000 0.0000 0.0000 0.0000 0.0000
r10_column
0 48.2963 12.9410 0.0000 0.9659 0.2588 0.0000 0.0417 2.0000
0 43.3013 25.0000 0.0000 0.8660 0.5000 0.0000 0.0833 2.0000
0 43.3013 25.0000 620.0000 0.8660 0.5000 0.0000 0.0833 0.0000
r10_column
0 48.2963 12.9410 0.0000 0.9659 0.2588 0.0000 0.0417 2.0000
0 43.3013 25.0000 620.0000 0.8660 0.5000 0.0000 0.0833 0.0000
0 48.2963 12.9410 620.0000 0.9659 0.2588 0.0000 0.0417 0.0000
r10_flange
0 0.0000 0.0000 0.0000 0.0000 0.0000 1.0000 0.5000 0.5000
0 69.5467 18.6350 0.0000 0.0000 0.0000 1.0000 0.0000 0.0000
0 62.3538 36.0000 0.0000 0.0000 0.0000 1.0000 1.0000 0.0000
r10_flange
0 0.0000 0.0000 -10.0000 0.0000 0.0000 -1.0000 0.5000 0.5000
0 62.3538 36.0000 -10.0000 0.0000 0.0000 -1.0000 1.0000 0.0000
0 69.5467 18.6350 -10.0000 0.0000 0.0000 -1.0000 0.0000 0.0000
r10_flange
0 69.5467 18.6350 -10.0000 0.9659 0.2588 0.0000 0.0000 1.0000
0 62.3538 36.0000 -10.0000 0.8660 0.5000 0.0000 1.0000 1.0000
0 62.3538 36.0000 0.0000 0.8660 0.5000 0.0000 1.0000 0.0000
r10_flange
0 69.5467 18.6350 -10.0000 0.9659 0.2588 0.0000 0.0000 1.0000
0 62.3538 36.0000 0.0000 0.8660 0.5000 0.0000 1.0000 0.0000
0 69.5467 18.6350 0.0000 0.9659 0.2588 0.0000 0.0000 0.0000
r10_column
0 43.3013 25.0000 0.0000 0.8660 0.5000 0.0000 0.0833 2.0000
0 35.3553 35.3553 0.0000 0.7071 0.7071 0.0000 0.1250 2.0000
0 35.3553 35.3553 620.0000 0.7071 0.7071 0.0000 0.1250 0.0000
r10_column
0 43.3013 25.0000 0.0000 0.8660 0.5000 0.0000 0.0833 2.0000
0 35.3553 35.3553 620.0000 0.7071 0.7071 0.0000 0.1250 0.0000
0 43.3013 25.0000 620.0000 0.8660 0.5000 0.0000 0.0833 0.0000
r10_flange
0 0.0000 0.0000 0.0000 0.0000 0.0000 1.0000 0.5000 0.5000
0 62.3538 36.0000 0.0000 0.0000 0.0000 1.0000 0.0000 0.0000
0 50.9117 50.9117 0.0000 0.0000 0.0000 1.0000 1.0000 0.0000
r10_flange
0 0.0000 0.0000 -10.0000 0.0000 0.0000 -1.0000 0.5000 0.5000
0 50.9117 50.9117 -10.0000 0.0000 0.0000 -1.0000 1.0000 0.0000
0 62.3538 36.0000 -10.0000 0.0000 0.0000 -1.0000 0.0000 0.0000
r10_flange
0 62.3538 36.0000 -10.0000 0.8660 0.5000 0.0000 0.0000 1.0000
0 50.9117 50.9117 -10.0000 0.7071 0.7071 0.0000 1.0000 1.0000
0 50.9117 50.9117 0.0000 0.7071 0.7071 0.0000 1.0000 0.0000
r10_flange
0 62.3538 36.0000 -10.0000 0.8660 0.5000 0.0000 0.0000 1.0000
0 50.9117 50.9117 0.0000 0.7071 0.7071 0.0000 1.0000 0.0000
0 62.3538 36.0000 0.0000 0.8660 0.5000 0.0000 0.0000 0.0000
r10_column
0 35.3553 35.3553 0.0000 0.7071 0.7071 0.0000 0.1250 2.0000
0 25.0000 43.3013 0.0000 0.5000 0.8660 0.0000 0.1667 2.0000
0 25.0000 43.3013 620.0000 0.5000 0.8660 0.0000 0.1667 0.0000
r10_column
0 35.3553 35.3553 0.0000 0.7071 0.7071 0.0000 0.1250 2.0000
0 25.0000 43.3013 620.0000 0.5000 0.8660 0.0000 0.1667 0.0000
0 35.3553 35.3553 620.0000 0.7071 0.7071 0.0000 0.1250 0.0000
r10_flange
0 0.0000 0.0000 0.0000 0.0000 0.0000 1.0000 0.5000 0.5000
0 50.9117 50.9117 0.0000 0.0000 0.0000 1.0000 0.0000 0.0000
0 36.0000 62.3538 0.0000 0.0000 0.0000 1.0000 1.0000 0.0000
r10_flange
0 0.0000 0.0000 -10.0000 0.0000 0.0000 -1.0000 0.5000 0.5000
0 36.0000 62.3538 -10.0000 0.0000 0.0000 -1.0000 1.0000 0.0000
0 50.9117 50.9117 -10.0000 0.0000 0.0000 -1.0000 0.0000 0.0000
r10_flange
0 50.9117 50.9117 -10.0000 0.7071 0.7071 0.0000 0.0000 1.0000
0 36.0000 62.3538 -10.0000 0.5000 0.8660 0.0000 1.0000 1.0000
0 36.0000 62.3538 0.0000 0.5000 0.8660 0.0000 1.0000 0.0000
r10_flange
0 50.9117 50.9117 -10.0000 0.7071 0.7071 0.0000 0.0000 1.0000
0 36.0000 62.3538 0.0000 0.5000 0.8660 0.0000 1.0000 0.0000
0 50.9117 50.9117 0.0000 0.7071 0.7071 0.0000 0.0000 0.0000
r10_column
0 25.0000 43.3013 0.0000 0.5000 0.8660 0.0000 0.1667 2.0000
0 12.9410 48.2963 0.0000 0.2588 0.9659 0.0000 0.2083 2.0000
0 12.9410 48.2963 620.0000 0.2588 0.9659 0.0000 0.2083 0.0000
r10_column
0 25.0000 43.3013 0.0000 0.5000 0.8660 0.0000 0.1667 2.0000
0 12.9410 48.2963 620.0000 0.2588 0.9659 0.0000 0.2083 0.0000
0 25.0000 43.3013 620.0000 0.5000 0.8660 0.0000 0.1667 0.0000
r10_flange
0 0.0000 0.0000 0.0000 0.0000 0.0000 1.0000 0.5000 0.5000
0 36.0000 62.3538 0.0000 0.0000 0.0000 1.0000 0.0000 0.0000
0 18.6350 69.5467 0.0000 0.0000 0.0000 1.0000 1.0000 0.0000
r10_flange
0 0.0000 0.0000 -10.0000 0.0000 0.0000 -1.0000 0.5000 0.5000
0 18.6350 69.5467 -10.0000 0.0000 0.0000 -1.0000 1.0000 0.0000
0 36.0000 62.3538 -10.0000 0.0000 0.0000 -1.0000 0.0000 0.0000
r10_flange
0 36.0000 62.3538 -10.0000 0.5000 0.8660 0.0000 0.0000 1.0000
0 18.6350 69.5467 -10.0000 0.2588 0.9659 0.0000 1.0000 1.0000
0 18.6350 69.5467 0.0000 0.2588 0.9659 0.0000 1.0000 0.0000
r10_flange
0 36.0000 62.3538 -10.0000 0.5000 0.8660 0.0000 0.0000 1.0000
0 18.6350 69.5467 0.0000 0.2588 0.9659 0.0000 1.0000 0.0000
0 36.0000 62.3538 0.0000 0.5000 0.8660 0.0000 0.0000 0.0000
r10_column
0 12.9410 48.2963 0.0000 0.2588 0.9659 0.0000 0.2083 2.0000
0 0.0000 50.0000 0.0000 0.0000 1.0000 0.0000 0.2500 2.0000
0 0.0000 50.0000 620.0000 0.0000 1.0000 0.0000 0.2500 0.0000
r10_column
0 12.9410 48.2963 0.0000 0.2588 0.9659 0.0000 0.2083 2.0000
0 0.0000 50.0000 620.0000 0.0000 1.0000 0.0000 0.2500 0.0000
0 12.9410 48.2963 620.0000 0.2588 0.9659 0.0000 0.2083 0.0000
r10_flange
0 0.0000 0.0000 0.0000 0.0000 0.0000 1.0000 0.5000 0.5000
0 18.6350 69.5467 0.0000 0.0000 0.0000 1.0000 0.0000 0.0000
0 0.0000 72.0000 0.0000 0.0000 0.0000 1.0000 1.0000 0.0000
r10_flange
0 0.0000 0.0000 -10.0000 0.0000 0.0000 -1.0000 0.5000 0.5000
0 0.0000 72.0000 -10.0000 0.0000 0.0000 -1.0000 1.0000 0.0000
0 18.6350 69.5467 -10.0000 0.0000 0.0000 -1.0000 0.0000 0.0000
r10_flange
0 18.6350 69.5467 -10.0000 0.2588 0.9659 0.0000 0.0000 1.0000
0 0.0000 72.0000 -10.0000 0.0000 1.0000 0.0000 1.0000 1.0000
0 0.0000 72.0000 0.0000 0.0000 1.0000 0.0000 1.0000 0.0000
r10_flange
0 18.6350 69.5467 -10.0000 0.2588 0.9659 0.0000 0.0000 1.0000
0 0.0000 72.0000 0.0000 0.0000 1.0000 0.0000 1.0000 0.0000
0 18.6350 69.5467 0.0000 0.2588 0.9659 0.0000 0.0000 0.0000
r10_column
0 0.0000 50.0000 0.0000 0.0000 1.0000 0.0000 0.2500 2.0000
0 -12.9410 48.2963 0.0000 -0.2588 0.9659 0.0000 0.2917 2.0000
0 -12.9410 48.2963 620.0000 -0.2588 0.9659 0.0000 0.2917 0.0000
r10_column
0 0.0000 50.0000 0.0000 0.0000 1.0000 0.0000 0.2500 2.0000
0 -12.9410 48.2963 620.0000 -0.2588 0.9659 0.0000 0.2917 0.0000
0 0.0000 50.0000 620.0000 0.0000 1.0000 0.0000 0.2500 0.0000
r10_flange
0 0.0000 0.0000 0.0000 0.0000 0.0000 1.0000 0.5000 0.5000
0 0.0000 72.0000 0.0000 0.0000 0.0000 1.0000 0.0000 0.0000
0 -18.6350 69.5467 0.0000 0.0000 0.0000 1.0000 1.0000 0.0000
r10_flange
0 0.0000 0.0000 -10.0000 0.0000 0.0000 -1.0000 0.5000 0.5000
0 -18.6350 69.5467 -10.0000 0.0000 0.0000 -1.0000 1.0000 0.0000
0 0.0000 72.0000 -10.0000 0.0000 0.0000 -1.0000 0.0000 0.0000
r10_flange
0 0.0000 72.0000 -10.0000 0.0000 1.0000 0.0000 0.0000 1.0000
0 -18.6350 69.5467 -10.0000 -0.2588 0.9659 0.0000 1.0000 1.0000
0 -18.6350 69.5467 0.0000 -0.2588 0.9659 0.0000 1.0000 0.0000
r10_flange
0 0.0000 72.0000 -10.0000 0.0000 1.0000 0.0000 0.0000 1.0000
0 -18.6350 69.5467 0.0000 -0.2588 0.9659 0.0000 1.0000 0.0000
0 0.0000 72.0000 0.0000 0.0000 1.0000 0.0000 0.0000 0.0000
r10_column
0 -12.9410 48.2963 0.0000 -0.2588 0.9659 0.0000 0.2917 2.0000
0 -25.0000 43.3013 0.0000 -0.5000 0.8660 0.0000 0.3333 2.0000
0 -25.0000 43.3013 620.0000 -0.5000 0.8660 0.0000 0.3333 0.0000
r10_column
0 -12.9410 48.2963 0.0000 -0.2588 0.9659 0.0000 0.2917 2.0000
0 -25.0000 43.3013 620.0000 -0.5000 0.8660 0.0000 0.3333 0.0000
0 -12.9410 48.2963 620.0000 -0.2588 0.9659 0.0000 0.2917 0.0000
r10_flange
0 0.0000 0.0000 0.0000 0.0000 0.0000 1.0000 0.5000 0.5000
0 -18.6350 69.5467 0.0000 0.0000 0.0000 1.0000 0.0000 0.0000
0 -36.0000 62.3538 0.0000 0.0000 0.0000 1.0000 1.0000 0.0000
r10_flange
0 0.0000 0.0000 -10.0000 0.0000 0.0000 -1.0000 0.5000 0.5000
0 -36.0000 62.3538 -10.0000 0.0000 0.0000 -1.0000 1.0000 0.0000
0 -18.6350 69.5467 -10.0000 0.0000 0.0000 -1.0000 0.0000 0.0000
r10_flange
0 -18.6350 69.5467 -10.0000 -0.2588 0.9659 0.0000 0.0000 1.0000
0 -36.0000 62.3538 -10.0000 -0.5000 0.8660 0.0000 1.0000 1.0000
0 -36.0000 62.3538 0.0000 -0.5000 0.8660 0.0000 1.0000 0.0000
r10_flange
0 -18.6350 69.5467 -10.0000 -0.2588 0.9659 0.0000 0.0000 1.0000
0 -36.0000 62.3538 0.0000 -0.5000 0.8660 0.0000 1.0000 0.0000
0 -18.6350 69.5467 0.0000 -0.2588 0.9659 0.0000 0.0000 0.0000
r10_column
0 -25.0000 43.3013 0.0000 -0.5000 0.8660 0.0000 0.3333 2.0000
0 -35.3553 35.3553 0.0000 -0.7071 0.7071 0.0000 0.3750 2.0000
0 -35.3553 35.3553 620.0000 -0.7071 0.7071 0.0000 0.3750 0.0000
r10_column
0 -25.0000 43.3013 0.0000 -0.5000 0.8660 0.0000 0.3333 2.0000
0 -35.3553 35.3553 620.0000 -0.7071 0.7071 0.0000 0.3750 0.0000
0 -25.0000 43.3013 620.0000 -0.5000 0.8660 0.0000 0.3333 0.0000
r10_flange
0 0.0000 0.0000 0.0000 0.0000 0.0000 1.0000 0.5000 0.5000
0 -36.0000 62.3538 0.0000 0.0000 0.0000 1.0000 0.0000 0.0000
0 -50.9117 50.9117 0.0000 0.0000 0.0000 1.0000 1.0000 0.0000
r10_flange
0 0.0000 0.0000 -10.0000 0.0000 0.0000 -1.0000 0.5000 0.5000
0 -50.9117 50.9117 -10.0000 0.0000 0.0000 -1.0000 1.0000 0.0000
0 -36.0000 62.3538 -10.0000 0.0000 0.0000 -1.0000 0.0000 0.0000
r10_flange
0 -36.0000 62.3538 -10.0000 -0.5000 0.8660 0.0000 0.0000 1.0000
0 -50.9117 50.9117 -10.0000 -0.7071 0.7071 0.0000 1.0000 1.0000
0 -50.9117 50.9117 0.0000 -0.7071 0.7071 0.0000 1.0000 0.0000
r10_flange
0 -36.0000 62.3538 -10.0000 -0.5000 0.8660 0.0000 0.0000 1.0000
0 -50.9117 50.9117 0.0000 -0.7071 0.7071 0.0000 1.0000 0.0000
0 -36.0000 62.3538 0.0000 -0.5000 0.8660 0.0000 0.0000 0.0000
r10_column
0 -35.3553 35.3553 0.0000 -0.7071 0.7071 0.0000 0.3750 2.0000
0 -43.3013 25.0000 0.0000 -0.8660 0.5000 0.0000 0.4167 2.0000
0 -43.3013 25.0000 620.0000 -0.8660 0.5000 0.0000 0.4167 0.0000
r10_column
0 -35.3553 35.3553 0.0000 -0.7071 0.7071 0.0000 0.3750 2.0000
0 -43.3013 25.0000 620.0000 -0.8660 0.5000 0.0000 0.4167 0.0000
0 -35.3553 35.3553 620.0000 -0.7071 0.7071 0.0000 0.3750 0.0000
r10_flange
0 0.0000 0.0000 0.0000 0.0000 0.0000 1.0000 0.5000 0.5000
0 -50.9117 50.9117 0.0000 0.0000 0.0000 1.0000 0.0000 0.0000
0 -62.3538 36.0000 0.0000 0.0000 0.0000 1.0000 1.0000 0.0000
r10_flange
0 0.0000 0.0000 -10.0000 0.0000 0.0000 -1.0000 0.5000 0.5000
0 -62.3538 36.0000 -10.0000 0.0000 0.0000 -1.0000 1.0000 0.0000
0 -50.9117 50.9117 -10.0000 0.0000 0.0000 -1.0000 0.0000 0.0000
r10_flange
0 -50.9117 50.9117 -10.0000 -0.7071 0.7071 0.0000 0.0000 1.0000
0 -62.3538 36.0000 -10.0000 -0.8660 0.5000 0.0000 1.0000 1.0000
0 -62.3538 36.0000 0.0000 -0.8660 0.5000 0.0000 1.0000 0.0000
r10_flange
0 -50.9117 50.9117 -10.0000 -0.7071 0.7071 0.0000 0.0000 1.0000
0 -62.3538 36.0000 0.0000 -0.8660 0.5000 0.0000 1.0000 0.0000
0 -50.9117 50.9117 0.0000 -0.7071 0.7071 0.0000 0.0000 0.0000
r10_column
0 -43.3013 25.0000 0.0000 -0.8660 0.5000 0.0000 0.4167 2.0000
0 -48.2963 12.9410 0.0000 -0.9659 0.2588 0.0000 0.4583 2.0000
0 -48.2963 12.9410 620.0000 -0.9659 0.2588 0.0000 0.4583 0.0000
r10_column
0 -43.3013 25.0000 0.0000 -0.8660 0.5000 0.0000 0.4167 2.0000
0 -48.2963 12.9410 620.0000 -0.9659 0.2588 0.0000 0.4583 0.0000
0 -43.3013 25.0000 620.0000 -0.8660 0.5000 0.0000 0.4167 0.0000
r10_flange
0 0.0000 0.0000 0.0000 0.0000 0.0000 1.0000 0.5000 0.5000
0 -62.3538 36.0000 0.0000 0.0000 0.0000 1.0000 0.0000 0.0000
0 -69.5467 18.6350 0.0000 0.0000 0.0000 1.0000 1.0000 0.0000
r10_flange
0 0.0000 0.0000 -10.0000 0.0000 0.0000 -1.0000 0.5000 0.5000
0 -69.5467 18.6350 -10.0000 0.0000 0.0000 -1.0000 1.0000 0.0000
0 -62.3538 36.0000 -10.0000 0.0000 0.0000 -1.0000 0.0000 0.0000
r10_flange
0 -62.3538 36.0000 -10.0000 -0.8660 0.5000 0.0000 0.0000 1.0000
0 -69.5467 18.6350 -10.0000 -0.9659 0.2588 0.0000 1.0000 1.0000
0 -69.5467 18.6350 0.0000 -0.9659 0.2588 0.0000 1.0000 0.0000
r10_flange
0 -62.3538 36.0000 -10.0000 -0.8660 0.5000 0.0000 0.0000 1.0000
0 -69.5467 18.6350 0.0000 -0.9659 0.2588 0.0000 1.0000 0.0000
0 -62.3538 36.0000 0.0000 -0.8660 0.5000 0.0000 0.0000 0.0000
r10_column
0 -48.2963 12.9410 0.0000 -0.9659 0.2588 0.0000 0.4583 2.0000
0 -50.0000 0.0000 0.0000 -1.0000 0.0000 0.0000 0.5000 2.0000
0 -50.0000 0.0000 620.0000 -1.0000 0.0000 0.0000 0.5000 0.0000
r10_column
0 -48.2963 12.9410 0.0000 -0.9659 0.2588 0.0000 0.4583 2.0000
0 -50.0000 0.0000 620.0000 -1.0000 0.0000 0.0000 0.5000 0.0000
0 -48.2963 12.9410 620.0000 -0.9659 0.2588 0.0000 0.4583 0.0000
r10_flange
0 0.0000 0.0000 0.0000 0.0000 0.0000 1.0000 0.5000 0.5000
0 -69.5467 18.6350 0.0000 0.0000 0.0000 1.0000 0.0000 0.0000
0 -72.0000 0.0000 0.0000 0.0000 0.0000 1.0000 1.0000 0.0000
r10_flange
0 0.0000 0.0000 -10.0000 0.0000 0.0000 -1.0000 0.5000 0.5000
0 -72.0000 0.0000 -10.0000 0.0000 0.0000 -1.0000 1.0000 0.0000
0 -69.5467 18.6350 -10.0000 0.0000 0.0000 -1.0000 0.0000 0.0000
r10_flange
0 -69.5467 18.6350 -10.0000 -0.9659 0.2588 0.0000 0.0000 1.0000
0 -72.0000 0.0000 -10.0000 -1.0000 0.0000 0.0000 1.0000 1.0000
0 -72.0000 0.0000 0.0000 -1.0000 0.0000 0.0000 1.0000 0.0000
r10_flange
0 -69.5467 18.6350 -10.0000 -0.9659 0.2588 0.0000 0.0000 1.0000
0 -72.0000 0.0000 0.0000 -1.0000 0.0000 0.0000 1.0000 0.0000
0 -69.5467 18.6350 0.0000 -0.9659 0.2588 0.0000 0.0000 0.0000
r10_column
0 -50.0000 0.0000 0.0000 -1.0000 0.0000 0.0000 0.5000 2.0000
0 -48.2963 -12.9410 0.0000 -0.9659 -0.2588 0.0000 0.5417 2.0000
0 -48.2963 -12.9410 620.0000 -0.9659 -0.2588 0.0000 0.5417 0.0000
r10_column
0 -50.0000 0.0000 0.0000 -1.0000 0.0000 0.0000 0.5000 2.0000
0 -48.2963 -12.9410 620.0000 -0.9659 -0.2588 0.0000 0.5417 0.0000
0 -50.0000 0.0000 620.0000 -1.0000 0.0000 0.0000 0.5000 0.0000
r10_flange
0 0.0000 0.0000 0.0000 0.0000 0.0000 1.0000 0.5000 0.5000
0 -72.0000 0.0000 0.0000 0.0000 0.0000 1.0000 0.0000 0.0000
0 -69.5467 -18.6350 0.0000 0.0000 0.0000 1.0000 1.0000 0.0000
r10_flange
0 0.0000 0.0000 -10.0000 0.0000 0.0000 -1.0000 0.5000 0.5000
0 -69.5467 -18.6350 -10.0000 0.0000 0.0000 -1.0000 1.0000 0.0000
0 -72.0000 0.0000 -10.0000 0.0000 0.0000 -1.0000 0.0000 0.0000
r10_flange
0 -72.0000 0.0000 -10.0000 -1.0000 0.0000 0.0000 0.0000 1.0000
0 -69.5467 -18.6350 -10.0000 -0.9659 -0.2588 0.0000 1.0000 1.0000
0 -69.5467 -18.6350 0.0000 -0.9659 -0.2588 0.0000 1.0000 0.0000
r10_flange
0 -72.0000 0.0000 -10.0000 -1.0000 0.0000 0.0000 0.0000 1.0000
0 -69.5467 -18.6350 0.0000 -0.9659 -0.2588 0.0000 1.0000 0.0000
0 -72.0000 0.0000 0.0000 -1.0000 0.0000 0.0000 0.0000 0.0000
r10_column
0 -48.2963 -12.9410 0.0000 -0.9659 -0.2588 0.0000 0.5417 2.0000
0 -43.3013 -25.0000 0.0000 -0.8660 -0.5000 0.0000 0.5833 2.0000
0 -43.3013 -25.0000 620.0000 -0.8660 -0.5000 0.0000 0.5833 0.0000
r10_column
0 -48.2963 -12.9410 0.0000 -0.9659 -0.2588 0.0000 0.5417 2.0000
0 -43.3013 -25.0000 620.0000 -0.8660 -0.5000 0.0000 0.5833 0.0000
0 -48.2963 -12.9410 620.0000 -0.9659 -0.2588 0.0000 0.5417 0.0000
r10_flange
0 0.0000 0.0000 0.0000 0.0000 0.0000 1.0000 0.5000 0.5000
0 -69.5467 -18.6350 0.0000 0.0000 0.0000 1.0000 0.0000 0.0000
0 -62.3538 -36.0000 0.0000 0.0000 0.0000 1.0000 1.0000 0.0000
r10_flange
0 0.0000 0.0000 -10.0000 0.0000 0.0000 -1.0000 0.5000 0.5000
0 -62.3538 -36.0000 -10.0000 0.0000 0.0000 -1.0000 1.0000 0.0000
0 -69.5467 -18.6350 -10.0000 0.0000 0.0000 -1.0000 0.0000 0.0000
r10_flange
0 -69.5467 -18.6350 -10.0000 -0.9659 -0.2588 0.0000 0.0000 1.0000
0 -62.3538 -36.0000 -10.0000 -0.8660 -0.5000 0.0000 1.0000 1.0000
0 -62.3538 -36.0000 0.0000 -0.8660 -0.5000 0.0000 1.0000 0.0000
r10_flange
0 -69.5467 -18.6350 -10.0000 -0.9659 -0.2588 0.0000 0.0000 1.0000
0 -62.3538 -36.0000 0.0000 -0.8660 -0.5000 0.0000 1.0000 0.0000
0 -69.5467 -18.6350 0.0000 -0.9659 -0.2588 0.0000 0.0000 0.0000
r10_column
0 -43.3013 -25.0000 0.0000 -0.8660 -0.5000 0.0000 0.5833 2.0000
0 -35.3553 -35.3553 0.0000 -0.7071 -0.7071 0.0000 0.6250 2.0000
0 -35.3553 -35.3553 620.0000 -0.7071 -0.7071 0.0000 0.6250 0.0000
r10_column
0 -43.3013 -25.0000 0.0000 -0.8660 -0.5000 0.0000 0.5833 2.0000
0 -35.3553 -35.3553 620.0000 -0.7071 -0.7071 0.0000 0.6250 0.0000
0 -43.3013 -25.0000 620.0000 -0.8660 -0.5000 0.0000 0.5833 0.0000
r10_flange
0 0.0000 0.0000 0.0000 0.0000 0.0000 1.0000 0.5000 0.5000
0 -62.3538 -36.0000 0.0000 0.0000 0.0000 1.0000 0.0000 0.0000
0 -50.9117 -50.9117 0.0000 0.0000 0.0000 1.0000 1.0000 0.0000
r10_flange
0 0.0000 0.0000 -10.0000 0.0000 0.0000 -1.0000 0.5000 0.5000
0 -50.9117 -50.9117 -10.0000 0.0000 0.0000 -1.0000 1.0000 0.0000
0 -62.3538 -36.0000 -10.0000 0.0000 0.0000 -1.0000 0.0000 0.0000
r10_flange
0 -62.3538 -36.0000 -10.0000 -0.8660 -0.5000 0.0000 0.0000 1.0000
0 -50.9117 -50.9117 -10.0000 -0.7071 -0.7071 0.0000 1.0000 1.0000
0 -50.9117 -50.9117 0.0000 -0.7071 -0.7071 0.0000 1.0000 0.0000
r10_flange
0 -62.3538 -36.0000 -10.0000 -0.8660 -0.5000 0.0000 0.0000 1.0000
0 -50.9117 -50.9117 0.0000 -0.7071 -0.7071 0.0000 1.0000 0.0000
0 -62.3538 -36.0000 0.0000 -0.8660 -0.5000 0.0000 0.0000 0.0000
r10_column
0 -35.3553 -35.3553 0.0000 -0.7071 -0.7071 0.0000 0.6250 2.0000
0 -25.0000 -43.3013 0.0000 -0.5000 -0.8660 0.0000 0.6667 2.0000
0 -25.0000 -43.3013 620.0000 -0.5000 -0.8660 0.0000 0.6667 0.0000
r10_column
0 -35.3553 -35.3553 0.0000 -0.7071 -0.7071 0.0000 0.6250 2.0000
0 -25.0000 -43.3013 620.0000 -0.5000 -0.8660 0.0000 0.6667 0.0000
0 -35.3553 -35.3553 620.0000 -0.7071 -0.7071 0.0000 0.6250 0.0000
r10_flange
0 0.0000 0.0000 0.0000 0.0000 0.0000 1.0000 0.5000 0.5000
0 -50.9117 -50.9117 0.0000 0.0000 0.0000 1.0000 0.0000 0.0000
0 -36.0000 -62.3538 0.0000 0.0000 0.0000 1.0000 1.0000 0.0000
r10_flange
0 0.0000 0.0000 -10.0000 0.0000 0.0000 -1.0000 0.5000 0.5000
0 -36.0000 -62.3538 -10.0000 0.0000 0.0000 -1.0000 1.0000 0.0000
0 -50.9117 -50.9117 -10.0000 0.0000 0.0000 -1.0000 0.0000 0.0000
r10_flange
0 -50.9117 -50.9117 -10.0000 -0.7071 -0.7071 0.0000 0.0000 1.0000
0 -36.0000 -62.3538 -10.0000 -0.5000 -0.8660 0.0000 1.0000 1.0000
0 -36.0000 -62.3538 0.0000 -0.5000 -0.8660 0.0000 1.0000 0.0000
r10_flange
0 -50.9117 -50.9117 -10.0000 -0.7071 -0.7071 0.0000 0.0000 1.0000
0 -36.0000 -62.3538 0.0000 -0.5000 -0.8660 0.0000 1.0000 0.0000
0 -50.9117 -50.9117 0.0000 -0.7071 -0.7071 0.0000 0.0000 0.0000
r10_column
0 -25.0000 -43.3013 0.0000 -0.5000 -0.8660 0.0000 0.6667 2.0000
0 -12.9410 -48.2963 0.0000 -0.2588 -0.9659 0.0000 0.7083 2.0000
0 -12.9410 -48.2963 620.0000 -0.2588 -0.9659 0.0000 0.7083 0.0000
r10_column
0 -25.0000 -43.3013 0.0000 -0.5000 -0.8660 0.0000 0.6667 2.0000
0 -12.9410 -48.2963 620.0000 -0.2588 -0.9659 0.0000 0.7083 0.0000
0 -25.0000 -43.3013 620.0000 -0.5000 -0.8660 0.0000 0.6667 0.0000
r10_flange
0 0.0000 0.0000 0.0000 0.0000 0.0000 1.0000 0.5000 0.5000
0 -36.0000 -62.3538 0.0000 0.0000 0.0000 1.0000 0.0000 0.0000
0 -18.6350 -69.5467 0.0000 0.0000 0.0000 1.0000 1.0000 0.0000
r10_flange
0 0.0000 0.0000 -10.0000 0.0000 0.0000 -1.0000 0.5000 0.5000
0 -18.6350 -69.5467 -10.0000 0.0000 0.0000 -1.0000 1.0000 0.0000
0 -36.0000 -62.3538 -10.0000 0.0000 0.0000 -1.0000 0.0000 0.0000
r10_flange
0 -36.0000 -62.3538 -10.0000 -0.5000 -0.8660 0.0000 0.0000 1.0000
0 -18.6350 -69.5467 -10.0000 -0.2588 -0.9659 0.0000 1.0000 1.0000
0 -18.6350 -69.5467 0.0000 -0.2588 -0.9659 0.0000 1.0000 0.0000
r10_flange
0 -36.0000 -62.3538 -10.0000 -0.5000 -0.8660 0.0000 0.0000 1.0000
0 -18.6350 -69.5467 0.0000 -0.2588 -0.9659 0.0000 1.0000 0.0000
0 -36.0000 -62.3538 0.0000 -0.5000 -0.8660 0.0000 0.0000 0.0000
r10_column
0 -12.9410 -48.2963 0.0000 -0.2588 -0.9659 0.0000 0.7083 2.0000
0 -0.0000 -50.0000 0.0000 -0.0000 -1.0000 0.0000 0.7500 2.0000
0 -0.0000 -50.0000 620.0000 -0.0000 -1.0000 0.0000 0.7500 0.0000
r10_column
0 -12.9410 -48.2963 0.0000 -0.2588 -0.9659 0.0000 0.7083 2.0000
0 -0.0000 -50.0000 620.0000 -0.0000 -1.0000 0.0000 0.7500 0.0000
0 -12.9410 -48.2963 620.0000 -0.2588 -0.9659 0.0000 0.7083 0.0000
r10_flange
0 0.0000 0.0000 0.0000 0.0000 0.0000 1.0000 0.5000 0.5000
0 -18.6350 -69.5467 0.0000 0.0000 0.0000 1.0000 0.0000 0.0000
0 -0.0000 -72.0000 0.0000 0.0000 0.0000 1.0000 1.0000 0.0000
r10_flange
0 0.0000 0.0000 -10.0000 0.0000 0.0000 -1.0000 0.5000 0.5000
0 -0.0000 -72.0000 -10.0000 0.0000 0.0000 -1.0000 1.0000 0.0000
0 -18.6350 -69.5467 -10.0000 0.0000 0.0000 -1.0000 0.0000 0.0000
r10_flange
0 -18.6350 -69.5467 -10.0000 -0.2588 -0.9659 0.0000 0.0000 1.0000
0 -0.0000 -72.0000 -10.0000 -0.0000 -1.0000 0.0000 1.0000 1.0000
0 -0.0000 -72.0000 0.0000 -0.0000 -1.0000 0.0000 1.0000 0.0000
r10_flange
0 -18.6350 -69.5467 -10.0000 -0.2588 -0.9659 0.0000 0.0000 1.0000
0 -0.0000 -72.0000 0.0000 -0.0000 -1.0000 0.0000 1.0000 0.0000
0 -18.6350 -69.5467 0.0000 -0.2588 -0.9659 0.0000 0.0000 0.0000
r10_column
0 -0.0000 -50.0000 0.0000 -0.0000 -1.0000 0.0000 0.7500 2.0000
0 12.9410 -48.2963 0.0000 0.2588 -0.9659 0.0000 0.7917 2.0000
0 12.9410 -48.2963 620.0000 0.2588 -0.9659 0.0000 0.7917 0.0000
r10_column
0 -0.0000 -50.0000 0.0000 -0.0000 -1.0000 0.0000 0.7500 2.0000
0 12.9410 -48.2963 620.0000 0.2588 -0.9659 0.0000 0.7917 0.0000
0 -0.0000 -50.0000 620.0000 -0.0000 -1.0000 0.0000 0.7500 0.0000
r10_flange
0 0.0000 0.0000 0.0000 0.0000 0.0000 1.0000 0.5000 0.5000
0 -0.0000 -72.0000 0.0000 0.0000 0.0000 1.0000 0.0000 0.0000
0 18.6350 -69.5467 0.0000 0.0000 0.0000 1.0000 1.0000 0.0000
r10_flange
0 0.0000 0.0000 -10.0000 0.0000 0.0000 -1.0000 0.5000 0.5000
0 18.6350 -69.5467 -10.0000 0.0000 0.0000 -1.0000 1.0000 0.0000
0 -0.0000 -72.0000 -10.0000 0.0000 0.0000 -1.0000 0.0000 0.0000
r10_flange
0 -0.0000 -72.0000 -10.0000 -0.0000 -1.0000 0.0000 0.0000 1.0000
0 18.6350 -69.5467 -10.0000 0.2588 -0.9659 0.0000 1.0000 1.0000
0 18.6350 -69.5467 0.0000 0.2588 -0.9659 0.0000 1.0000 0.0000
r10_flange
0 -0.0000 -72.0000 -10.0000 -0.0000 -1.0000 0.0000 0.0000 1.0000
0 18.6350 -69.5467 0.0000 0.2588 -0.9659 0.0000 1.0000 0.0000
0 -0.0000 -72.0000 0.0000 -0.0000 -1.0000 0.0000 0.0000 0.0000
r10_column
0 12.9410 -48.2963 0.0000 0.2588 -0.9659 0.0000 0.7917 2.0000
0 25.0000 -43.3013 0.0000 0.5000 -0.8660 0.0000 0.8333 2.0000
0 25.0000 -43.3013 620.0000 0.5000 -0.8660 0.0000 0.8333 0.0000
r10_column
0 12.9410 -48.2963 0.0000 0.2588 -0.9659 0.0000 0.7917 2.0000
0 25.0000 -43.3013 620.0000 0.5000 -0.8660 0.0000 0.8333 0.0000
0 12.9410 -48.2963 620.0000 0.2588 -0.9659 0.0000 0.7917 0.0000
r10_flange
0 0.0000 0.0000 0.0000 0.0000 0.0000 1.0000 0.5000 0.5000
0 18.6350 -69.5467 0.0000 0.0000 0.0000 1.0000 0.0000 0.0000
0 36.0000 -62.3538 0.0000 0.0000 0.0000 1.0000 1.0000 0.0000
r10_flange
0 0.0000 0.0000 -10.0000 0.0000 0.0000 -1.0000 0.5000 0.5000
0 36.0000 -62.3538 -10.0000 0.0000 0.0000 -1.0000 1.0000 0.0000
0 18.6350 -69.5467 -10.0000 0.0000 0.0000 -1.0000 0.0000 0.0000
r10_flange
0 18.6350 -69.5467 -10.0000 0.2588 -0.9659 0.0000 0.0000 1.0000
0 36.0000 -62.3538 -10.0000 0.5000 -0.8660 0.0000 1.0000 1.0000
0 36.0000 -62.3538 0.0000 0.5000 -0.8660 0.0000 1.0000 0.0000
r10_flange
0 18.6350 -69.5467 -10.0000 0.2588 -0.9659 0.0000 0.0000 1.0000
0 36.0000 -62.3538 0.0000 0.5000 -0.8660 0.0000 1.0000 0.0000
0 18.6350 -69.5467 0.0000 0.2588 -0.9659 0.0000 0.0000 0.0000
r10_column
0 25.0000 -43.3013 0.0000 0.5000 -0.8660 0.0000 0.8333 2.0000
0 35.3553 -35.3553 0.0000 0.7071 -0.7071 0.0000 0.8750 2.0000
0 35.3553 -35.3553 620.0000 0.7071 -0.7071 0.0000 0.8750 0.0000
r10_column
0 25.0000 -43.3013 0.0000 0.5000 -0.8660 0.0000 0.8333 2.0000
0 35.3553 -35.3553 620.0000 0.7071 -0.7071 0.0000 0.8750 0.0000
0 25.0000 -43.3013 620.0000 0.5000 -0.8660 0.0000 0.8333 0.0000
r10_flange
0 0.0000 0.0000 0.0000 0.0000 0.0000 1.0000 0.5000 0.5000
0 36.0000 -62.3538 0.0000 0.0000 0.0000 1.0000 0.0000 0.0000
0 50.9117 -50.9117 0.0000 0.0000 0.0000 1.0000 1.0000 0.0000
r10_flange
0 0.0000 0.0000 -10.0000 0.0000 0.0000 -1.0000 0.5000 0.5000
0 50.9117 -50.9117 -10.0000 0.0000 0.0000 -1.0000 1.0000 0.0000
0 36.0000 -62.3538 -10.0000 0.0000 0.0000 -1.0000 0.0000 0.0000
r10_flange
0 36.0000 -62.3538 -10.0000 0.5000 -0.8660 0.0000 0.0000 1.0000
0 50.9117 -50.9117 -10.0000 0.7071 -0.7071 0.0000 1.0000 1.0000
0 50.9117 -50.9117 0.0000 0.7071 -0.7071 0.0000 1.0000 0.0000
r10_flange
0 36.0000 -62.3538 -10.0000 0.5000 -0.8660 0.0000 0.0000 1.0000
0 50.9117 -50.9117 0.0000 0.7071 -0.7071 0.0000 1.0000 0.0000
0 36.0000 -62.3538 0.0000 0.5000 -0.8660 0.0000 0.0000 0.0000
r10_column
0 35.3553 -35.3553 0.0000 0.7071 -0.7071 0.0000 0.8750 2.0000
0 43.3013 -25.0000 0.0000 0.8660 -0.5000 0.0000 0.9167 2.0000
0 43.3013 -25.0000 620.0000 0.8660 -0.5000 0.0000 0.9167 0.0000
r10_column
0 35.3553 -35.3553 0.0000 0.7071 -0.7071 0.0000 0.8750 2.0000
0 43.3013 -25.0000 620.0000 0.8660 -0.5000 0.0000 0.9167 0.0000
0 35.3553 -35.3553 620.0000 0.7071 -0.7071 0.0000 0.8750 0.0000
r10_flange
0 0.0000 0.0000 0.0000 0.0000 0.0000 1.0000 0.5000 0.5000
0 50.9117 -50.9117 0.0000 0.0000 0.0000 1.0000 0.0000 0.0000
0 62.3538 -36.0000 0.0000 0.0000 0.0000 1.0000 1.0000 0.0000
r10_flange
0 0.0000 0.0000 -10.0000 0.0000 0.0000 -1.0000 0.5000 0.5000
0 62.3538 -36.0000 -10.0000 0.0000 0.0000 -1.0000 1.0000 0.0000
0 50.9117 -50.9117 -10.0000 0.0000 0.0000 -1.0000 0.0000 0.0000
r10_flange
0 50.9117 -50.9117 -10.0000 0.7071 -0.7071 0.0000 0.0000 1.0000
0 62.3538 -36.0000 -10.0000 0.8660 -0.5000 0.0000 1.0000 1.0000
0 62.3538 -36.0000 0.0000 0.8660 -0.5000 0.0000 1.0000 0.0000
r10_flange
0 50.9117 -50.9117 -10.0000 0.7071 -0.7071 0.0000 0.0000 1.0000
0 62.3538 -36.0000 0.0000 0.8660 -0.5000 0.0000 1.0000 0.0000
0 50.9117 -50.9117 0.0000 0.7071 -0.7071 0.0000 0.0000 0.0000
r10_column
0 43.3013 -25.0000 0.0000 0.8660 -0.5000 0.0000 0.9167 2.0000
0 48.2963 -12.9410 0.0000 0.9659 -0.2588 0.0000 0.9583 2.0000
0 48.2963 -12.9410 620.0000 0.9659 -0.2588 0.0000 0.9583 0.0000
r10_column
0 43.3013 -25.0000 0.0000 0.8660 -0.5000 0.0000 0.9167 2.0000
0 48.2963 -12.9410 620.0000 0.9659 -0.2588 0.0000 0.9583 0.0000
0 43.3013 -25.0000 620.0000 0.8660 -0.5000 0.0000 0.9167 0.0000
r10_flange
0 0.0000 0.0000 0.0000 0.0000 0.0000 1.0000 0.5000 0.5000
0 62.3538 -36.0000 0.0000 0.0000 0.0000 1.0000 0.0000 0.0000
0 69.5467 -18.6350 0.0000 0.0000 0.0000 1.0000 1.0000 0.0000
r10_flange
0 0.0000 0.0000 -10.0000 0.0000 0.0000 -1.0000 0.5000 0.5000
0 69.5467 -18.6350 -10.0000 0.0000 0.0000 -1.0000 1.0000 0.0000
0 62.3538 -36.0000 -10.0000 0.0000 0.0000 -1.0000 0.0000 0.0000
r10_flange
0 62.3538 -36.0000 -10.0000 0.8660 -0.5000 0.0000 0.0000 1.0000
0 69.5467 -18.6350 -10.0000 0.9659 -0.2588 0.0000 1.0000 1.0000
0 69.5467 -18.6350 0.0000 0.9659 -0.2588 0.0000 1.0000 0.0000
r10_flange
0 62.3538 -36.0000 -10.0000 0.8660 -0.5000 0.0000 0.0000 1.0000
0 69.5467 -18.6350 0.0000 0.9659 -0.2588 0.0000 1.0000 0.0000
0 62.3538 -36.0000 0.0000 0.8660 -0.5000 0.0000 0.0000 0.0000
r10_column
0 48.2963 -12.9410 0.0000 0.9659 -0.2588 0.0000 0.9583 2.0000
0 50.0000 -0.0000 0.0000 1.0000 -0.0000 0.0000 1.0000 2.0000
0 50.0000 -0.0000 620.0000 1.0000 -0.0000 0.0000 1.0000 0.0000
r10_column
0 48.2963 -12.9410 0.0000 0.9659 -0.2588 0.0000 0.9583 2.0000
0 50.0000 -0.0000 620.0000 1.0000 -0.0000 0.0000 1.0000 0.0000
0 48.2963 -12.9410 620.0000 0.9659 -0.2588 0.0000 0.9583 0.0000
r10_flange
0 0.0000 0.0000 0.0000 0.0000 0.0000 1.0000 0.5000 0.5000
0 69.5467 -18.6350 0.0000 0.0000 0.0000 1.0000 0.0000 0.0000
0 72.0000 -0.0000 0.0000 0.0000 0.0000 1.0000 1.0000 0.0000
r10_flange
0 0.0000 0.0000 -10.0000 0.0000 0.0000 -1.0000 0.5000 0.5000
0 72.0000 -0.0000 -10.0000 0.0000 0.0000 -1.0000 1.0000 0.0000
0 69.5467 -18.6350 -10.0000 0.0000 0.0000 -1.0000 0.0000 0.0000
r10_flange
0 69.5467 -18.6350 -10.0000 0.9659 -0.2588 0.0000 0.0000 1.0000
0 72.0000 -0.0000 -10.0000 1.0000 -0.0000 0.0000 1.0000 1.0000
0 72.0000 -0.0000 0.0000 1.0000 -0.0000 0.0000 1.0000 0.0000
r10_flange
0 69.5467 -18.6350 -10.0000 0.9659 -0.2588 0.0000 0.0000 1.0000
0 72.0000 -0.0000 0.0000 1.0000 -0.0000 0.0000 1.0000 0.0000
0 69.5467 -18.6350 0.0000 0.9659 -0.2588 0.0000 0.0000 0.0000
end
