version 1
nodes
0 "root" -1
end
skeleton
time 0
0 0 0 0 0 0 0
end
triangles
tower_s3
0 -5.000000 113.911337 76.113122 -1.00000 0.00000 0.00000 0.8315 0.5556
0 -5.000000 124.720440 83.335530 -1.00000 0.00000 0.00000 0.9744 0.6511
0 -5.000000 147.117790 29.263550 -1.00000 0.00000 0.00000 0.1494 0.2286
tower_s3
0 -5.000000 113.911337 76.113122 -1.00000 0.00000 0.00000 0.8315 0.5556
0 -5.000000 147.117790 29.263550 -1.00000 0.00000 0.00000 0.1494 0.2286
0 -5.000000 134.367584 26.727372 -1.00000 0.00000 0.00000 0.9808 0.1951
tower_h3
0 -8.000000 98.113416 65.557285 -0.97695 0.19720 0.08168 0.6496 0.4340
0 -5.000000 113.911337 76.113122 -0.97695 0.19720 0.08168 0.8315 0.5556
0 -5.000000 134.367584 26.727372 -0.97695 0.19720 0.08168 0.9808 0.1951
tower_h3
0 -8.000000 98.113416 65.557285 -0.97695 0.19720 0.08168 0.6496 0.4340
0 -5.000000 134.367584 26.727372 -0.97695 0.19720 0.08168 0.9808 0.1951
0 -8.000000 115.732664 23.020655 -0.97695 0.19720 0.08168 0.7662 0.1524
tower_s3
0 5.000000 134.367584 26.727372 1.00000 0.00000 -0.00000 0.9808 0.1951
0 5.000000 147.117790 29.263550 1.00000 0.00000 -0.00000 0.1494 0.2286
0 5.000000 124.720440 83.335530 1.00000 0.00000 -0.00000 0.9744 0.6511
tower_s3
0 5.000000 134.367584 26.727372 1.00000 0.00000 -0.00000 0.9808 0.1951
0 5.000000 124.720440 83.335530 1.00000 0.00000 -0.00000 0.9744 0.6511
0 5.000000 113.911337 76.113122 1.00000 0.00000 -0.00000 0.8315 0.5556
tower_h3
0 8.000000 115.732664 23.020655 0.97695 0.19720 0.08168 0.7662 0.1524
0 5.000000 134.367584 26.727372 0.97695 0.19720 0.08168 0.9808 0.1951
0 5.000000 113.911337 76.113122 0.97695 0.19720 0.08168 0.8315 0.5556
tower_h3
0 8.000000 115.732664 23.020655 0.97695 0.19720 0.08168 0.7662 0.1524
0 5.000000 113.911337 76.113122 0.97695 0.19720 0.08168 0.8315 0.5556
0 8.000000 98.113416 65.557285 0.97695 0.19720 0.08168 0.6496 0.4340
tower_s3
0 -5.000000 124.720440 83.335530 -0.00000 0.92388 0.38268 0.9744 0.6511
0 5.000000 124.720440 83.335530 -0.00000 0.92388 0.38268 0.9744 0.6511
0 5.000000 147.117790 29.263550 -0.00000 0.92388 0.38268 0.1494 0.2286
tower_s3
0 -5.000000 124.720440 83.335530 -0.00000 0.92388 0.38268 0.9744 0.6511
0 5.000000 147.117790 29.263550 -0.00000 0.92388 0.38268 0.1494 0.2286
0 -5.000000 147.117790 29.263550 -0.00000 0.92388 0.38268 0.1494 0.2286
tower_lip
0 -8.000000 115.732664 23.020655 0.00000 -0.92388 -0.38268 0.7662 0.1524
0 8.000000 115.732664 23.020655 0.00000 -0.92388 -0.38268 0.7662 0.1524
0 8.000000 98.113416 65.557285 0.00000 -0.92388 -0.38268 0.6496 0.4340
tower_lip
0 -8.000000 115.732664 23.020655 0.00000 -0.92388 -0.38268 0.7662 0.1524
0 8.000000 98.113416 65.557285 0.00000 -0.92388 -0.38268 0.6496 0.4340
0 -8.000000 98.113416 65.557285 0.00000 -0.92388 -0.38268 0.6496 0.4340
tower_s3
0 -5.000000 76.113122 113.911337 -1.00000 0.00000 0.00000 0.5556 0.8315
0 -5.000000 83.335530 124.720440 -1.00000 0.00000 0.00000 0.6511 0.9744
0 -5.000000 124.720440 83.335530 -1.00000 0.00000 0.00000 0.9744 0.6511
tower_s3
0 -5.000000 76.113122 113.911337 -1.00000 0.00000 0.00000 0.5556 0.8315
0 -5.000000 124.720440 83.335530 -1.00000 0.00000 0.00000 0.9744 0.6511
0 -5.000000 113.911337 76.113122 -1.00000 0.00000 0.00000 0.8315 0.5556
tower_h3
0 -8.000000 65.557285 98.113416 -0.97695 0.15093 0.15093 0.4340 0.6496
0 -5.000000 76.113122 113.911337 -0.97695 0.15093 0.15093 0.5556 0.8315
0 -5.000000 113.911337 76.113122 -0.97695 0.15093 0.15093 0.8315 0.5556
tower_h3
0 -8.000000 65.557285 98.113416 -0.97695 0.15093 0.15093 0.4340 0.6496
0 -5.000000 113.911337 76.113122 -0.97695 0.15093 0.15093 0.8315 0.5556
0 -8.000000 98.113416 65.557285 -0.97695 0.15093 0.15093 0.6496 0.4340
tower_s3
0 5.000000 113.911337 76.113122 1.00000 0.00000 -0.00000 0.8315 0.5556
0 5.000000 124.720440 83.335530 1.00000 0.00000 -0.00000 0.9744 0.6511
0 5.000000 83.335530 124.720440 1.00000 0.00000 -0.00000 0.6511 0.9744
tower_s3
0 5.000000 113.911337 76.113122 1.00000 0.00000 -0.00000 0.8315 0.5556
0 5.000000 83.335530 124.720440 1.00000 0.00000 -0.00000 0.6511 0.9744
0 5.000000 76.113122 113.911337 1.00000 0.00000 -0.00000 0.5556 0.8315
tower_h3
0 8.000000 98.113416 65.557285 0.97695 0.15093 0.15093 0.6496 0.4340
0 5.000000 113.911337 76.113122 0.97695 0.15093 0.15093 0.8315 0.5556
0 5.000000 76.113122 113.911337 0.97695 0.15093 0.15093 0.5556 0.8315
tower_h3
0 8.000000 98.113416 65.557285 0.97695 0.15093 0.15093 0.6496 0.4340
0 5.000000 76.113122 113.911337 0.97695 0.15093 0.15093 0.5556 0.8315
0 8.000000 65.557285 98.113416 0.97695 0.15093 0.15093 0.4340 0.6496
tower_s3
0 -5.000000 83.335530 124.720440 -0.00000 0.70711 0.70711 0.6511 0.9744
0 5.000000 83.335530 124.720440 -0.00000 0.70711 0.70711 0.6511 0.9744
0 5.000000 124.720440 83.335530 -0.00000 0.70711 0.70711 0.9744 0.6511
tower_s3
0 -5.000000 83.335530 124.720440 -0.00000 0.70711 0.70711 0.6511 0.9744
0 5.000000 124.720440 83.335530 -0.00000 0.70711 0.70711 0.9744 0.6511
0 -5.000000 124.720440 83.335530 -0.00000 0.70711 0.70711 0.9744 0.6511
tower_lip
0 -8.000000 98.113416 65.557285 0.00000 -0.70711 -0.70711 0.6496 0.4340
0 8.000000 98.113416 65.557285 0.00000 -0.70711 -0.70711 0.6496 0.4340
0 8.000000 65.557285 98.113416 0.00000 -0.70711 -0.70711 0.4340 0.6496
tower_lip
0 -8.000000 98.113416 65.557285 0.00000 -0.70711 -0.70711 0.6496 0.4340
0 8.000000 65.557285 98.113416 0.00000 -0.70711 -0.70711 0.4340 0.6496
0 -8.000000 65.557285 98.113416 0.00000 -0.70711 -0.70711 0.4340 0.6496
tower_s3
0 -5.000000 26.727372 134.367584 -1.00000 0.00000 0.00000 0.1951 0.9808
0 -5.000000 29.263550 147.117790 -1.00000 0.00000 0.00000 0.2286 0.1494
0 -5.000000 83.335530 124.720440 -1.00000 0.00000 0.00000 0.6511 0.9744
tower_s3
0 -5.000000 26.727372 134.367584 -1.00000 0.00000 0.00000 0.1951 0.9808
0 -5.000000 83.335530 124.720440 -1.00000 0.00000 0.00000 0.6511 0.9744
0 -5.000000 76.113122 113.911337 -1.00000 0.00000 0.00000 0.5556 0.8315
tower_h3
0 -8.000000 23.020655 115.732664 -0.97695 0.08168 0.19720 0.1524 0.7662
0 -5.000000 26.727372 134.367584 -0.97695 0.08168 0.19720 0.1951 0.9808
0 -5.000000 76.113122 113.911337 -0.97695 0.08168 0.19720 0.5556 0.8315
tower_h3
0 -8.000000 23.020655 115.732664 -0.97695 0.08168 0.19720 0.1524 0.7662
0 -5.000000 76.113122 113.911337 -0.97695 0.08168 0.19720 0.5556 0.8315
0 -8.000000 65.557285 98.113416 -0.97695 0.08168 0.19720 0.4340 0.6496
tower_s3
0 5.000000 76.113122 113.911337 1.00000 0.00000 -0.00000 0.5556 0.8315
0 5.000000 83.335530 124.720440 1.00000 0.00000 -0.00000 0.6511 0.9744
0 5.000000 29.263550 147.117790 1.00000 0.00000 -0.00000 0.2286 0.1494
tower_s3
0 5.000000 76.113122 113.911337 1.00000 0.00000 -0.00000 0.5556 0.8315
0 5.000000 29.263550 147.117790 1.00000 0.00000 -0.00000 0.2286 0.1494
0 5.000000 26.727372 134.367584 1.00000 0.00000 -0.00000 0.1951 0.9808
tower_h3
0 8.000000 65.557285 98.113416 0.97695 0.08168 0.19720 0.4340 0.6496
0 5.000000 76.113122 113.911337 0.97695 0.08168 0.19720 0.5556 0.8315
0 5.000000 26.727372 134.367584 0.97695 0.08168 0.19720 0.1951 0.9808
tower_h3
0 8.000000 65.557285 98.113416 0.97695 0.08168 0.19720 0.4340 0.6496
0 5.000000 26.727372 134.367584 0.97695 0.08168 0.19720 0.1951 0.9808
0 8.000000 23.020655 115.732664 0.97695 0.08168 0.19720 0.1524 0.7662
tower_s3
0 -5.000000 29.263550 147.117790 -0.00000 0.38268 0.92388 0.2286 0.1494
0 5.000000 29.263550 147.117790 -0.00000 0.38268 0.92388 0.2286 0.1494
0 5.000000 83.335530 124.720440 -0.00000 0.38268 0.92388 0.6511 0.9744
tower_s3
0 -5.000000 29.263550 147.117790 -0.00000 0.38268 0.92388 0.2286 0.1494
0 5.000000 83.335530 124.720440 -0.00000 0.38268 0.92388 0.6511 0.9744
0 -5.000000 83.335530 124.720440 -0.00000 0.38268 0.92388 0.6511 0.9744
tower_lip
0 -8.000000 65.557285 98.113416 0.00000 -0.38268 -0.92388 0.4340 0.6496
0 8.000000 65.557285 98.113416 0.00000 -0.38268 -0.92388 0.4340 0.6496
0 8.000000 23.020655 115.732664 0.00000 -0.38268 -0.92388 0.1524 0.7662
tower_lip
0 -8.000000 65.557285 98.113416 0.00000 -0.38268 -0.92388 0.4340 0.6496
0 8.000000 23.020655 115.732664 0.00000 -0.38268 -0.92388 0.1524 0.7662
0 -8.000000 23.020655 115.732664 0.00000 -0.38268 -0.92388 0.1524 0.7662
tower_s3
0 -5.000000 -26.727372 134.367584 -1.00000 0.00000 0.00000 0.8049 0.9808
0 -5.000000 -29.263550 147.117790 -1.00000 0.00000 0.00000 0.7714 0.1494
0 -5.000000 29.263550 147.117790 -1.00000 0.00000 0.00000 0.2286 0.1494
tower_s3
0 -5.000000 -26.727372 134.367584 -1.00000 0.00000 0.00000 0.8049 0.9808
0 -5.000000 29.263550 147.117790 -1.00000 0.00000 0.00000 0.2286 0.1494
0 -5.000000 26.727372 134.367584 -1.00000 0.00000 0.00000 0.1951 0.9808
tower_h3
0 -8.000000 -23.020655 115.732664 -0.97695 0.00000 0.21345 0.8476 0.7662
0 -5.000000 -26.727372 134.367584 -0.97695 0.00000 0.21345 0.8049 0.9808
0 -5.000000 26.727372 134.367584 -0.97695 0.00000 0.21345 0.1951 0.9808
tower_h3
0 -8.000000 -23.020655 115.732664 -0.97695 0.00000 0.21345 0.8476 0.7662
0 -5.000000 26.727372 134.367584 -0.97695 0.00000 0.21345 0.1951 0.9808
0 -8.000000 23.020655 115.732664 -0.97695 0.00000 0.21345 0.1524 0.7662
tower_s3
0 5.000000 26.727372 134.367584 1.00000 0.00000 -0.00000 0.1951 0.9808
0 5.000000 29.263550 147.117790 1.00000 0.00000 -0.00000 0.2286 0.1494
0 5.000000 -29.263550 147.117790 1.00000 0.00000 -0.00000 0.7714 0.1494
tower_s3
0 5.000000 26.727372 134.367584 1.00000 0.00000 -0.00000 0.1951 0.9808
0 5.000000 -29.263550 147.117790 1.00000 0.00000 -0.00000 0.7714 0.1494
0 5.000000 -26.727372 134.367584 1.00000 0.00000 -0.00000 0.8049 0.9808
tower_h3
0 8.000000 23.020655 115.732664 0.97695 0.00000 0.21345 0.1524 0.7662
0 5.000000 26.727372 134.367584 0.97695 0.00000 0.21345 0.1951 0.9808
0 5.000000 -26.727372 134.367584 0.97695 0.00000 0.21345 0.8049 0.9808
tower_h3
0 8.000000 23.020655 115.732664 0.97695 0.00000 0.21345 0.1524 0.7662
0 5.000000 -26.727372 134.367584 0.97695 0.00000 0.21345 0.8049 0.9808
0 8.000000 -23.020655 115.732664 0.97695 0.00000 0.21345 0.8476 0.7662
tower_s3
0 -5.000000 -29.263550 147.117790 0.00000 0.00000 1.00000 0.7714 0.1494
0 5.000000 -29.263550 147.117790 0.00000 0.00000 1.00000 0.7714 0.1494
0 5.000000 29.263550 147.117790 0.00000 0.00000 1.00000 0.2286 0.1494
tower_s3
0 -5.000000 -29.263550 147.117790 0.00000 0.00000 1.00000 0.7714 0.1494
0 5.000000 29.263550 147.117790 0.00000 0.00000 1.00000 0.2286 0.1494
0 -5.000000 29.263550 147.117790 0.00000 0.00000 1.00000 0.2286 0.1494
tower_lip
0 -8.000000 23.020655 115.732664 0.00000 0.00000 -1.00000 0.1524 0.7662
0 8.000000 23.020655 115.732664 0.00000 0.00000 -1.00000 0.1524 0.7662
0 8.000000 -23.020655 115.732664 0.00000 0.00000 -1.00000 0.8476 0.7662
tower_lip
0 -8.000000 23.020655 115.732664 0.00000 0.00000 -1.00000 0.1524 0.7662
0 8.000000 -23.020655 115.732664 0.00000 0.00000 -1.00000 0.8476 0.7662
0 -8.000000 -23.020655 115.732664 0.00000 0.00000 -1.00000 0.8476 0.7662
tower_s2
0 -5.000000 -76.113122 113.911337 -1.00000 0.00000 0.00000 0.4444 0.8315
0 -5.000000 -83.335530 124.720440 -1.00000 0.00000 0.00000 0.3489 0.9744
0 -5.000000 -29.263550 147.117790 -1.00000 0.00000 0.00000 0.7714 0.1494
tower_s2
0 -5.000000 -76.113122 113.911337 -1.00000 0.00000 0.00000 0.4444 0.8315
0 -5.000000 -29.263550 147.117790 -1.00000 0.00000 0.00000 0.7714 0.1494
0 -5.000000 -26.727372 134.367584 -1.00000 0.00000 0.00000 0.8049 0.9808
tower_h2
0 -8.000000 -65.557285 98.113416 -0.97695 -0.08168 0.19720 0.5660 0.6496
0 -5.000000 -76.113122 113.911337 -0.97695 -0.08168 0.19720 0.4444 0.8315
0 -5.000000 -26.727372 134.367584 -0.97695 -0.08168 0.19720 0.8049 0.9808
tower_h2
0 -8.000000 -65.557285 98.113416 -0.97695 -0.08168 0.19720 0.5660 0.6496
0 -5.000000 -26.727372 134.367584 -0.97695 -0.08168 0.19720 0.8049 0.9808
0 -8.000000 -23.020655 115.732664 -0.97695 -0.08168 0.19720 0.8476 0.7662
tower_s2
0 5.000000 -26.727372 134.367584 1.00000 0.00000 0.00000 0.8049 0.9808
0 5.000000 -29.263550 147.117790 1.00000 0.00000 0.00000 0.7714 0.1494
0 5.000000 -83.335530 124.720440 1.00000 0.00000 0.00000 0.3489 0.9744
tower_s2
0 5.000000 -26.727372 134.367584 1.00000 0.00000 0.00000 0.8049 0.9808
0 5.000000 -83.335530 124.720440 1.00000 0.00000 0.00000 0.3489 0.9744
0 5.000000 -76.113122 113.911337 1.00000 0.00000 0.00000 0.4444 0.8315
tower_h2
0 8.000000 -23.020655 115.732664 0.97695 -0.08168 0.19720 0.8476 0.7662
0 5.000000 -26.727372 134.367584 0.97695 -0.08168 0.19720 0.8049 0.9808
0 5.000000 -76.113122 113.911337 0.97695 -0.08168 0.19720 0.4444 0.8315
tower_h2
0 8.000000 -23.020655 115.732664 0.97695 -0.08168 0.19720 0.8476 0.7662
0 5.000000 -76.113122 113.911337 0.97695 -0.08168 0.19720 0.4444 0.8315
0 8.000000 -65.557285 98.113416 0.97695 -0.08168 0.19720 0.5660 0.6496
tower_s2
0 -5.000000 -83.335530 124.720440 0.00000 -0.38268 0.92388 0.3489 0.9744
0 5.000000 -83.335530 124.720440 0.00000 -0.38268 0.92388 0.3489 0.9744
0 5.000000 -29.263550 147.117790 0.00000 -0.38268 0.92388 0.7714 0.1494
tower_s2
0 -5.000000 -83.335530 124.720440 0.00000 -0.38268 0.92388 0.3489 0.9744
0 5.000000 -29.263550 147.117790 0.00000 -0.38268 0.92388 0.7714 0.1494
0 -5.000000 -29.263550 147.117790 0.00000 -0.38268 0.92388 0.7714 0.1494
tower_lip
0 -8.000000 -23.020655 115.732664 0.00000 0.38268 -0.92388 0.8476 0.7662
0 8.000000 -23.020655 115.732664 0.00000 0.38268 -0.92388 0.8476 0.7662
0 8.000000 -65.557285 98.113416 0.00000 0.38268 -0.92388 0.5660 0.6496
tower_lip
0 -8.000000 -23.020655 115.732664 0.00000 0.38268 -0.92388 0.8476 0.7662
0 8.000000 -65.557285 98.113416 0.00000 0.38268 -0.92388 0.5660 0.6496
0 -8.000000 -65.557285 98.113416 0.00000 0.38268 -0.92388 0.5660 0.6496
tower_s1
0 -5.000000 -113.911337 76.113122 -1.00000 0.00000 0.00000 0.1685 0.5556
0 -5.000000 -124.720440 83.335530 -1.00000 0.00000 0.00000 0.0256 0.6511
0 -5.000000 -83.335530 124.720440 -1.00000 0.00000 0.00000 0.3489 0.9744
tower_s1
0 -5.000000 -113.911337 76.113122 -1.00000 0.00000 0.00000 0.1685 0.5556
0 -5.000000 -83.335530 124.720440 -1.00000 0.00000 0.00000 0.3489 0.9744
0 -5.000000 -76.113122 113.911337 -1.00000 0.00000 0.00000 0.4444 0.8315
tower_h1
0 -8.000000 -98.113416 65.557285 -0.97695 -0.15093 0.15093 0.3504 0.4340
0 -5.000000 -113.911337 76.113122 -0.97695 -0.15093 0.15093 0.1685 0.5556
0 -5.000000 -76.113122 113.911337 -0.97695 -0.15093 0.15093 0.4444 0.8315
tower_h1
0 -8.000000 -98.113416 65.557285 -0.97695 -0.15093 0.15093 0.3504 0.4340
0 -5.000000 -76.113122 113.911337 -0.97695 -0.15093 0.15093 0.4444 0.8315
0 -8.000000 -65.557285 98.113416 -0.97695 -0.15093 0.15093 0.5660 0.6496
tower_s1
0 5.000000 -76.113122 113.911337 1.00000 0.00000 0.00000 0.4444 0.8315
0 5.000000 -83.335530 124.720440 1.00000 0.00000 0.00000 0.3489 0.9744
0 5.000000 -124.720440 83.335530 1.00000 0.00000 0.00000 0.0256 0.6511
tower_s1
0 5.000000 -76.113122 113.911337 1.00000 0.00000 0.00000 0.4444 0.8315
0 5.000000 -124.720440 83.335530 1.00000 0.00000 0.00000 0.0256 0.6511
0 5.000000 -113.911337 76.113122 1.00000 0.00000 0.00000 0.1685 0.5556
tower_h1
0 8.000000 -65.557285 98.113416 0.97695 -0.15093 0.15093 0.5660 0.6496
0 5.000000 -76.113122 113.911337 0.97695 -0.15093 0.15093 0.4444 0.8315
0 5.000000 -113.911337 76.113122 0.97695 -0.15093 0.15093 0.1685 0.5556
tower_h1
0 8.000000 -65.557285 98.113416 0.97695 -0.15093 0.15093 0.5660 0.6496
0 5.000000 -113.911337 76.113122 0.97695 -0.15093 0.15093 0.1685 0.5556
0 8.000000 -98.113416 65.557285 0.97695 -0.15093 0.15093 0.3504 0.4340
tower_s1
0 -5.000000 -124.720440 83.335530 0.00000 -0.70711 0.70711 0.0256 0.6511
0 5.000000 -124.720440 83.335530 0.00000 -0.70711 0.70711 0.0256 0.6511
0 5.000000 -83.335530 124.720440 0.00000 -0.70711 0.70711 0.3489 0.9744
tower_s1
0 -5.000000 -124.720440 83.335530 0.00000 -0.70711 0.70711 0.0256 0.6511
0 5.000000 -83.335530 124.720440 0.00000 -0.70711 0.70711 0.3489 0.9744
0 -5.000000 -83.335530 124.720440 0.00000 -0.70711 0.70711 0.3489 0.9744
tower_lip
0 -8.000000 -65.557285 98.113416 0.00000 0.70711 -0.70711 0.5660 0.6496
0 8.000000 -65.557285 98.113416 0.00000 0.70711 -0.70711 0.5660 0.6496
0 8.000000 -98.113416 65.557285 0.00000 0.70711 -0.70711 0.3504 0.4340
tower_lip
0 -8.000000 -65.557285 98.113416 0.00000 0.70711 -0.70711 0.5660 0.6496
0 8.000000 -98.113416 65.557285 0.00000 0.70711 -0.70711 0.3504 0.4340
0 -8.000000 -98.113416 65.557285 0.00000 0.70711 -0.70711 0.3504 0.4340
tower_s1
0 -5.000000 -134.367584 26.727372 -1.00000 0.00000 0.00000 0.0192 0.1951
0 -5.000000 -147.117790 29.263550 -1.00000 0.00000 0.00000 0.8506 0.2286
0 -5.000000 -124.720440 83.335530 -1.00000 0.00000 0.00000 0.0256 0.6511
tower_s1
0 -5.000000 -134.367584 26.727372 -1.00000 0.00000 0.00000 0.0192 0.1951
0 -5.000000 -124.720440 83.335530 -1.00000 0.00000 0.00000 0.0256 0.6511
0 -5.000000 -113.911337 76.113122 -1.00000 0.00000 0.00000 0.1685 0.5556
tower_h1
0 -8.000000 -115.732664 23.020655 -0.97695 -0.19720 0.08168 0.2338 0.1524
0 -5.000000 -134.367584 26.727372 -0.97695 -0.19720 0.08168 0.0192 0.1951
0 -5.000000 -113.911337 76.113122 -0.97695 -0.19720 0.08168 0.1685 0.5556
tower_h1
0 -8.000000 -115.732664 23.020655 -0.97695 -0.19720 0.08168 0.2338 0.1524
0 -5.000000 -113.911337 76.113122 -0.97695 -0.19720 0.08168 0.1685 0.5556
0 -8.000000 -98.113416 65.557285 -0.97695 -0.19720 0.08168 0.3504 0.4340
tower_s1
0 5.000000 -113.911337 76.113122 1.00000 0.00000 0.00000 0.1685 0.5556
0 5.000000 -124.720440 83.335530 1.00000 0.00000 0.00000 0.0256 0.6511
0 5.000000 -147.117790 29.263550 1.00000 0.00000 0.00000 0.8506 0.2286
tower_s1
0 5.000000 -113.911337 76.113122 1.00000 0.00000 0.00000 0.1685 0.5556
0 5.000000 -147.117790 29.263550 1.00000 0.00000 0.00000 0.8506 0.2286
0 5.000000 -134.367584 26.727372 1.00000 0.00000 0.00000 0.0192 0.1951
tower_h1
0 8.000000 -98.113416 65.557285 0.97695 -0.19720 0.08168 0.3504 0.4340
0 5.000000 -113.911337 76.113122 0.97695 -0.19720 0.08168 0.1685 0.5556
0 5.000000 -134.367584 26.727372 0.97695 -0.19720 0.08168 0.0192 0.1951
tower_h1
0 8.000000 -98.113416 65.557285 0.97695 -0.19720 0.08168 0.3504 0.4340
0 5.000000 -134.367584 26.727372 0.97695 -0.19720 0.08168 0.0192 0.1951
0 8.000000 -115.732664 23.020655 0.97695 -0.19720 0.08168 0.2338 0.1524
tower_s1
0 -5.000000 -147.117790 29.263550 0.00000 -0.92388 0.38268 0.8506 0.2286
0 5.000000 -147.117790 29.263550 0.00000 -0.92388 0.38268 0.8506 0.2286
0 5.000000 -124.720440 83.335530 0.00000 -0.92388 0.38268 0.0256 0.6511
tower_s1
0 -5.000000 -147.117790 29.263550 0.00000 -0.92388 0.38268 0.8506 0.2286
0 5.000000 -124.720440 83.335530 0.00000 -0.92388 0.38268 0.0256 0.6511
0 -5.000000 -124.720440 83.335530 0.00000 -0.92388 0.38268 0.0256 0.6511
tower_lip
0 -8.000000 -98.113416 65.557285 0.00000 0.92388 -0.38268 0.3504 0.4340
0 8.000000 -98.113416 65.557285 0.00000 0.92388 -0.38268 0.3504 0.4340
0 8.000000 -115.732664 23.020655 0.00000 0.92388 -0.38268 0.2338 0.1524
tower_lip
0 -8.000000 -98.113416 65.557285 0.00000 0.92388 -0.38268 0.3504 0.4340
0 8.000000 -115.732664 23.020655 0.00000 0.92388 -0.38268 0.2338 0.1524
0 -8.000000 -115.732664 23.020655 0.00000 0.92388 -0.38268 0.2338 0.1524
tower_s0
0 -5.000000 -134.367584 -26.727372 -1.00000 -0.00000 0.00000 0.0192 0.8049
0 -5.000000 -147.117790 -29.263550 -1.00000 -0.00000 0.00000 0.8506 0.7714
0 -5.000000 -147.117790 29.263550 -1.00000 -0.00000 0.00000 0.8506 0.2286
tower_s0
0 -5.000000 -134.367584 -26.727372 -1.00000 -0.00000 0.00000 0.0192 0.8049
0 -5.000000 -147.117790 29.263550 -1.00000 -0.00000 0.00000 0.8506 0.2286
0 -5.000000 -134.367584 26.727372 -1.00000 -0.00000 0.00000 0.0192 0.1951
tower_h0
0 -8.000000 -115.732664 -23.020655 -0.97695 -0.21345 0.00000 0.2338 0.8476
0 -5.000000 -134.367584 -26.727372 -0.97695 -0.21345 0.00000 0.0192 0.8049
0 -5.000000 -134.367584 26.727372 -0.97695 -0.21345 0.00000 0.0192 0.1951
tower_h0
0 -8.000000 -115.732664 -23.020655 -0.97695 -0.21345 0.00000 0.2338 0.8476
0 -5.000000 -134.367584 26.727372 -0.97695 -0.21345 0.00000 0.0192 0.1951
0 -8.000000 -115.732664 23.020655 -0.97695 -0.21345 0.00000 0.2338 0.1524
tower_s0
0 5.000000 -134.367584 26.727372 1.00000 0.00000 0.00000 0.0192 0.1951
0 5.000000 -147.117790 29.263550 1.00000 0.00000 0.00000 0.8506 0.2286
0 5.000000 -147.117790 -29.263550 1.00000 0.00000 0.00000 0.8506 0.7714
tower_s0
0 5.000000 -134.367584 26.727372 1.00000 0.00000 0.00000 0.0192 0.1951
0 5.000000 -147.117790 -29.263550 1.00000 0.00000 0.00000 0.8506 0.7714
0 5.000000 -134.367584 -26.727372 1.00000 0.00000 0.00000 0.0192 0.8049
tower_h0
0 8.000000 -115.732664 23.020655 0.97695 -0.21345 0.00000 0.2338 0.1524
0 5.000000 -134.367584 26.727372 0.97695 -0.21345 0.00000 0.0192 0.1951
0 5.000000 -134.367584 -26.727372 0.97695 -0.21345 0.00000 0.0192 0.8049
tower_h0
0 8.000000 -115.732664 23.020655 0.97695 -0.21345 0.00000 0.2338 0.1524
0 5.000000 -134.367584 -26.727372 0.97695 -0.21345 0.00000 0.0192 0.8049
0 8.000000 -115.732664 -23.020655 0.97695 -0.21345 0.00000 0.2338 0.8476
tower_s0
0 -5.000000 -147.117790 -29.263550 0.00000 -1.00000 0.00000 0.8506 0.7714
0 5.000000 -147.117790 -29.263550 0.00000 -1.00000 0.00000 0.8506 0.7714
0 5.000000 -147.117790 29.263550 0.00000 -1.00000 0.00000 0.8506 0.2286
tower_s0
0 -5.000000 -147.117790 -29.263550 0.00000 -1.00000 0.00000 0.8506 0.7714
0 5.000000 -147.117790 29.263550 0.00000 -1.00000 0.00000 0.8506 0.2286
0 -5.000000 -147.117790 29.263550 0.00000 -1.00000 0.00000 0.8506 0.2286
tower_lip
0 -8.000000 -115.732664 23.020655 -0.00000 1.00000 0.00000 0.2338 0.1524
0 8.000000 -115.732664 23.020655 -0.00000 1.00000 0.00000 0.2338 0.1524
0 8.000000 -115.732664 -23.020655 -0.00000 1.00000 0.00000 0.2338 0.8476
tower_lip
0 -8.000000 -115.732664 23.020655 -0.00000 1.00000 0.00000 0.2338 0.1524
0 8.000000 -115.732664 -23.020655 -0.00000 1.00000 0.00000 0.2338 0.8476
0 -8.000000 -115.732664 -23.020655 -0.00000 1.00000 0.00000 0.2338 0.8476
tower_s0
0 -5.000000 -113.911337 -76.113122 -1.00000 -0.00000 0.00000 0.1685 0.4444
0 -5.000000 -124.720440 -83.335530 -1.00000 -0.00000 0.00000 0.0256 0.3489
0 -5.000000 -147.117790 -29.263550 -1.00000 -0.00000 0.00000 0.8506 0.7714
tower_s0
0 -5.000000 -113.911337 -76.113122 -1.00000 -0.00000 0.00000 0.1685 0.4444
0 -5.000000 -147.117790 -29.263550 -1.00000 -0.00000 0.00000 0.8506 0.7714
0 -5.000000 -134.367584 -26.727372 -1.00000 -0.00000 0.00000 0.0192 0.8049
tower_h0
0 -8.000000 -98.113416 -65.557285 -0.97695 -0.19720 -0.08168 0.3504 0.5660
0 -5.000000 -113.911337 -76.113122 -0.97695 -0.19720 -0.08168 0.1685 0.4444
0 -5.000000 -134.367584 -26.727372 -0.97695 -0.19720 -0.08168 0.0192 0.8049
tower_h0
0 -8.000000 -98.113416 -65.557285 -0.97695 -0.19720 -0.08168 0.3504 0.5660
0 -5.000000 -134.367584 -26.727372 -0.97695 -0.19720 -0.08168 0.0192 0.8049
0 -8.000000 -115.732664 -23.020655 -0.97695 -0.19720 -0.08168 0.2338 0.8476
tower_s0
0 5.000000 -134.367584 -26.727372 1.00000 0.00000 0.00000 0.0192 0.8049
0 5.000000 -147.117790 -29.263550 1.00000 0.00000 0.00000 0.8506 0.7714
0 5.000000 -124.720440 -83.335530 1.00000 0.00000 0.00000 0.0256 0.3489
tower_s0
0 5.000000 -134.367584 -26.727372 1.00000 0.00000 0.00000 0.0192 0.8049
0 5.000000 -124.720440 -83.335530 1.00000 0.00000 0.00000 0.0256 0.3489
0 5.000000 -113.911337 -76.113122 1.00000 0.00000 0.00000 0.1685 0.4444
tower_h0
0 8.000000 -115.732664 -23.020655 0.97695 -0.19720 -0.08168 0.2338 0.8476
0 5.000000 -134.367584 -26.727372 0.97695 -0.19720 -0.08168 0.0192 0.8049
0 5.000000 -113.911337 -76.113122 0.97695 -0.19720 -0.08168 0.1685 0.4444
tower_h0
0 8.000000 -115.732664 -23.020655 0.97695 -0.19720 -0.08168 0.2338 0.8476
0 5.000000 -113.911337 -76.113122 0.97695 -0.19720 -0.08168 0.1685 0.4444
0 8.000000 -98.113416 -65.557285 0.97695 -0.19720 -0.08168 0.3504 0.5660
tower_s0
0 -5.000000 -124.720440 -83.335530 0.00000 -0.92388 -0.38268 0.0256 0.3489
0 5.000000 -124.720440 -83.335530 0.00000 -0.92388 -0.38268 0.0256 0.3489
0 5.000000 -147.117790 -29.263550 0.00000 -0.92388 -0.38268 0.8506 0.7714
tower_s0
0 -5.000000 -124.720440 -83.335530 0.00000 -0.92388 -0.38268 0.0256 0.3489
0 5.000000 -147.117790 -29.263550 0.00000 -0.92388 -0.38268 0.8506 0.7714
0 -5.000000 -147.117790 -29.263550 0.00000 -0.92388 -0.38268 0.8506 0.7714
tower_lip
0 -8.000000 -115.732664 -23.020655 -0.00000 0.92388 0.38268 0.2338 0.8476
0 8.000000 -115.732664 -23.020655 -0.00000 0.92388 0.38268 0.2338 0.8476
0 8.000000 -98.113416 -65.557285 -0.00000 0.92388 0.38268 0.3504 0.5660
tower_lip
0 -8.000000 -115.732664 -23.020655 -0.00000 0.92388 0.38268 0.2338 0.8476
0 8.000000 -98.113416 -65.557285 -0.00000 0.92388 0.38268 0.3504 0.5660
0 -8.000000 -98.113416 -65.557285 -0.00000 0.92388 0.38268 0.3504 0.5660
tower_s0
0 -5.000000 -76.113122 -113.911337 -1.00000 -0.00000 0.00000 0.4444 0.1685
0 -5.000000 -83.335530 -124.720440 -1.00000 -0.00000 0.00000 0.3489 0.0256
0 -5.000000 -124.720440 -83.335530 -1.00000 -0.00000 0.00000 0.0256 0.3489
tower_s0
0 -5.000000 -76.113122 -113.911337 -1.00000 -0.00000 0.00000 0.4444 0.1685
0 -5.000000 -124.720440 -83.335530 -1.00000 -0.00000 0.00000 0.0256 0.3489
0 -5.000000 -113.911337 -76.113122 -1.00000 -0.00000 0.00000 0.1685 0.4444
tower_h0
0 -8.000000 -65.557285 -98.113416 -0.97695 -0.15093 -0.15093 0.5660 0.3504
0 -5.000000 -76.113122 -113.911337 -0.97695 -0.15093 -0.15093 0.4444 0.1685
0 -5.000000 -113.911337 -76.113122 -0.97695 -0.15093 -0.15093 0.1685 0.4444
tower_h0
0 -8.000000 -65.557285 -98.113416 -0.97695 -0.15093 -0.15093 0.5660 0.3504
0 -5.000000 -113.911337 -76.113122 -0.97695 -0.15093 -0.15093 0.1685 0.4444
0 -8.000000 -98.113416 -65.557285 -0.97695 -0.15093 -0.15093 0.3504 0.5660
tower_s0
0 5.000000 -113.911337 -76.113122 1.00000 0.00000 0.00000 0.1685 0.4444
0 5.000000 -124.720440 -83.335530 1.00000 0.00000 0.00000 0.0256 0.3489
0 5.000000 -83.335530 -124.720440 1.00000 0.00000 0.00000 0.3489 0.0256
tower_s0
0 5.000000 -113.911337 -76.113122 1.00000 0.00000 0.00000 0.1685 0.4444
0 5.000000 -83.335530 -124.720440 1.00000 0.00000 0.00000 0.3489 0.0256
0 5.000000 -76.113122 -113.911337 1.00000 0.00000 0.00000 0.4444 0.1685
tower_h0
0 8.000000 -98.113416 -65.557285 0.97695 -0.15093 -0.15093 0.3504 0.5660
0 5.000000 -113.911337 -76.113122 0.97695 -0.15093 -0.15093 0.1685 0.4444
0 5.000000 -76.113122 -113.911337 0.97695 -0.15093 -0.15093 0.4444 0.1685
tower_h0
0 8.000000 -98.113416 -65.557285 0.97695 -0.15093 -0.15093 0.3504 0.5660
0 5.000000 -76.113122 -113.911337 0.97695 -0.15093 -0.15093 0.4444 0.1685
0 8.000000 -65.557285 -98.113416 0.97695 -0.15093 -0.15093 0.5660 0.3504
tower_s0
0 -5.000000 -83.335530 -124.720440 0.00000 -0.70711 -0.70711 0.3489 0.0256
0 5.000000 -83.335530 -124.720440 0.00000 -0.70711 -0.70711 0.3489 0.0256
0 5.000000 -124.720440 -83.335530 0.00000 -0.70711 -0.70711 0.0256 0.3489
tower_s0
0 -5.000000 -83.335530 -124.720440 0.00000 -0.70711 -0.70711 0.3489 0.0256
0 5.000000 -124.720440 -83.335530 0.00000 -0.70711 -0.70711 0.0256 0.3489
0 -5.000000 -124.720440 -83.335530 0.00000 -0.70711 -0.70711 0.0256 0.3489
tower_lip
0 -8.000000 -98.113416 -65.557285 -0.00000 0.70711 0.70711 0.3504 0.5660
0 8.000000 -98.113416 -65.557285 -0.00000 0.70711 0.70711 0.3504 0.5660
0 8.000000 -65.557285 -98.113416 -0.00000 0.70711 0.70711 0.5660 0.3504
tower_lip
0 -8.000000 -98.113416 -65.557285 -0.00000 0.70711 0.70711 0.3504 0.5660
0 8.000000 -65.557285 -98.113416 -0.00000 0.70711 0.70711 0.5660 0.3504
0 -8.000000 -65.557285 -98.113416 -0.00000 0.70711 0.70711 0.5660 0.3504
tower_s0
0 -5.000000 -26.727372 -134.367584 -1.00000 -0.00000 0.00000 0.8049 0.0192
0 -5.000000 -29.263550 -147.117790 -1.00000 -0.00000 0.00000 0.7714 0.8506
0 -5.000000 -83.335530 -124.720440 -1.00000 -0.00000 0.00000 0.3489 0.0256
tower_s0
0 -5.000000 -26.727372 -134.367584 -1.00000 -0.00000 0.00000 0.8049 0.0192
0 -5.000000 -83.335530 -124.720440 -1.00000 -0.00000 0.00000 0.3489 0.0256
0 -5.000000 -76.113122 -113.911337 -1.00000 -0.00000 0.00000 0.4444 0.1685
tower_h0
0 -8.000000 -23.020655 -115.732664 -0.97695 -0.08168 -0.19720 0.8476 0.2338
0 -5.000000 -26.727372 -134.367584 -0.97695 -0.08168 -0.19720 0.8049 0.0192
0 -5.000000 -76.113122 -113.911337 -0.97695 -0.08168 -0.19720 0.4444 0.1685
tower_h0
0 -8.000000 -23.020655 -115.732664 -0.97695 -0.08168 -0.19720 0.8476 0.2338
0 -5.000000 -76.113122 -113.911337 -0.97695 -0.08168 -0.19720 0.4444 0.1685
0 -8.000000 -65.557285 -98.113416 -0.97695 -0.08168 -0.19720 0.5660 0.3504
tower_s0
0 5.000000 -76.113122 -113.911337 1.00000 0.00000 0.00000 0.4444 0.1685
0 5.000000 -83.335530 -124.720440 1.00000 0.00000 0.00000 0.3489 0.0256
0 5.000000 -29.263550 -147.117790 1.00000 0.00000 0.00000 0.7714 0.8506
tower_s0
0 5.000000 -76.113122 -113.911337 1.00000 0.00000 0.00000 0.4444 0.1685
0 5.000000 -29.263550 -147.117790 1.00000 0.00000 0.00000 0.7714 0.8506
0 5.000000 -26.727372 -134.367584 1.00000 0.00000 0.00000 0.8049 0.0192
tower_h0
0 8.000000 -65.557285 -98.113416 0.97695 -0.08168 -0.19720 0.5660 0.3504
0 5.000000 -76.113122 -113.911337 0.97695 -0.08168 -0.19720 0.4444 0.1685
0 5.000000 -26.727372 -134.367584 0.97695 -0.08168 -0.19720 0.8049 0.0192
tower_h0
0 8.000000 -65.557285 -98.113416 0.97695 -0.08168 -0.19720 0.5660 0.3504
0 5.000000 -26.727372 -134.367584 0.97695 -0.08168 -0.19720 0.8049 0.0192
0 8.000000 -23.020655 -115.732664 0.97695 -0.08168 -0.19720 0.8476 0.2338
tower_s0
0 -5.000000 -29.263550 -147.117790 0.00000 -0.38268 -0.92388 0.7714 0.8506
0 5.000000 -29.263550 -147.117790 0.00000 -0.38268 -0.92388 0.7714 0.8506
0 5.000000 -83.335530 -124.720440 0.00000 -0.38268 -0.92388 0.3489 0.0256
tower_s0
0 -5.000000 -29.263550 -147.117790 0.00000 -0.38268 -0.92388 0.7714 0.8506
0 5.000000 -83.335530 -124.720440 0.00000 -0.38268 -0.92388 0.3489 0.0256
0 -5.000000 -83.335530 -124.720440 0.00000 -0.38268 -0.92388 0.3489 0.0256
tower_lip
0 -8.000000 -65.557285 -98.113416 -0.00000 0.38268 0.92388 0.5660 0.3504
0 8.000000 -65.557285 -98.113416 -0.00000 0.38268 0.92388 0.5660 0.3504
0 8.000000 -23.020655 -115.732664 -0.00000 0.38268 0.92388 0.8476 0.2338
tower_lip
0 -8.000000 -65.557285 -98.113416 -0.00000 0.38268 0.92388 0.5660 0.3504
0 8.000000 -23.020655 -115.732664 -0.00000 0.38268 0.92388 0.8476 0.2338
0 -8.000000 -23.020655 -115.732664 -0.00000 0.38268 0.92388 0.8476 0.2338
tower_s0
0 -5.000000 26.727372 -134.367584 -1.00000 0.00000 -0.00000 0.1951 0.0192
0 -5.000000 29.263550 -147.117790 -1.00000 0.00000 -0.00000 0.2286 0.8506
0 -5.000000 -29.263550 -147.117790 -1.00000 0.00000 -0.00000 0.7714 0.8506
tower_s0
0 -5.000000 26.727372 -134.367584 -1.00000 0.00000 -0.00000 0.1951 0.0192
0 -5.000000 -29.263550 -147.117790 -1.00000 0.00000 -0.00000 0.7714 0.8506
0 -5.000000 -26.727372 -134.367584 -1.00000 0.00000 -0.00000 0.8049 0.0192
tower_h0
0 -8.000000 23.020655 -115.732664 -0.97695 -0.00000 -0.21345 0.1524 0.2338
0 -5.000000 26.727372 -134.367584 -0.97695 -0.00000 -0.21345 0.1951 0.0192
0 -5.000000 -26.727372 -134.367584 -0.97695 -0.00000 -0.21345 0.8049 0.0192
tower_h0
0 -8.000000 23.020655 -115.732664 -0.97695 -0.00000 -0.21345 0.1524 0.2338
0 -5.000000 -26.727372 -134.367584 -0.97695 -0.00000 -0.21345 0.8049 0.0192
0 -8.000000 -23.020655 -115.732664 -0.97695 -0.00000 -0.21345 0.8476 0.2338
tower_s0
0 5.000000 -26.727372 -134.367584 1.00000 0.00000 0.00000 0.8049 0.0192
0 5.000000 -29.263550 -147.117790 1.00000 0.00000 0.00000 0.7714 0.8506
0 5.000000 29.263550 -147.117790 1.00000 0.00000 0.00000 0.2286 0.8506
tower_s0
0 5.000000 -26.727372 -134.367584 1.00000 0.00000 0.00000 0.8049 0.0192
0 5.000000 29.263550 -147.117790 1.00000 0.00000 0.00000 0.2286 0.8506
0 5.000000 26.727372 -134.367584 1.00000 0.00000 0.00000 0.1951 0.0192
tower_h0
0 8.000000 -23.020655 -115.732664 0.97695 -0.00000 -0.21345 0.8476 0.2338
0 5.000000 -26.727372 -134.367584 0.97695 -0.00000 -0.21345 0.8049 0.0192
0 5.000000 26.727372 -134.367584 0.97695 -0.00000 -0.21345 0.1951 0.0192
tower_h0
0 8.000000 -23.020655 -115.732664 0.97695 -0.00000 -0.21345 0.8476 0.2338
0 5.000000 26.727372 -134.367584 0.97695 -0.00000 -0.21345 0.1951 0.0192
0 8.000000 23.020655 -115.732664 0.97695 -0.00000 -0.21345 0.1524 0.2338
tower_s0
0 -5.000000 29.263550 -147.117790 0.00000 0.00000 -1.00000 0.2286 0.8506
0 5.000000 29.263550 -147.117790 0.00000 0.00000 -1.00000 0.2286 0.8506
0 5.000000 -29.263550 -147.117790 0.00000 0.00000 -1.00000 0.7714 0.8506
tower_s0
0 -5.000000 29.263550 -147.117790 0.00000 0.00000 -1.00000 0.2286 0.8506
0 5.000000 -29.263550 -147.117790 0.00000 0.00000 -1.00000 0.7714 0.8506
0 -5.000000 -29.263550 -147.117790 0.00000 0.00000 -1.00000 0.7714 0.8506
tower_lip
0 -8.000000 -23.020655 -115.732664 -0.00000 0.00000 1.00000 0.8476 0.2338
0 8.000000 -23.020655 -115.732664 -0.00000 0.00000 1.00000 0.8476 0.2338
0 8.000000 23.020655 -115.732664 -0.00000 0.00000 1.00000 0.1524 0.2338
tower_lip
0 -8.000000 -23.020655 -115.732664 -0.00000 0.00000 1.00000 0.8476 0.2338
0 8.000000 23.020655 -115.732664 -0.00000 0.00000 1.00000 0.1524 0.2338
0 -8.000000 23.020655 -115.732664 -0.00000 0.00000 1.00000 0.1524 0.2338
tower_s0
0 -5.000000 76.113122 -113.911337 -1.00000 0.00000 -0.00000 0.5556 0.1685
0 -5.000000 83.335530 -124.720440 -1.00000 0.00000 -0.00000 0.6511 0.0256
0 -5.000000 29.263550 -147.117790 -1.00000 0.00000 -0.00000 0.2286 0.8506
tower_s0
0 -5.000000 76.113122 -113.911337 -1.00000 0.00000 -0.00000 0.5556 0.1685
0 -5.000000 29.263550 -147.117790 -1.00000 0.00000 -0.00000 0.2286 0.8506
0 -5.000000 26.727372 -134.367584 -1.00000 0.00000 -0.00000 0.1951 0.0192
tower_h0
0 -8.000000 65.557285 -98.113416 -0.97695 0.08168 -0.19720 0.4340 0.3504
0 -5.000000 76.113122 -113.911337 -0.97695 0.08168 -0.19720 0.5556 0.1685
0 -5.000000 26.727372 -134.367584 -0.97695 0.08168 -0.19720 0.1951 0.0192
tower_h0
0 -8.000000 65.557285 -98.113416 -0.97695 0.08168 -0.19720 0.4340 0.3504
0 -5.000000 26.727372 -134.367584 -0.97695 0.08168 -0.19720 0.1951 0.0192
0 -8.000000 23.020655 -115.732664 -0.97695 0.08168 -0.19720 0.1524 0.2338
tower_s0
0 5.000000 26.727372 -134.367584 1.00000 -0.00000 0.00000 0.1951 0.0192
0 5.000000 29.263550 -147.117790 1.00000 -0.00000 0.00000 0.2286 0.8506
0 5.000000 83.335530 -124.720440 1.00000 -0.00000 0.00000 0.6511 0.0256
tower_s0
0 5.000000 26.727372 -134.367584 1.00000 -0.00000 0.00000 0.1951 0.0192
0 5.000000 83.335530 -124.720440 1.00000 -0.00000 0.00000 0.6511 0.0256
0 5.000000 76.113122 -113.911337 1.00000 -0.00000 0.00000 0.5556 0.1685
tower_h0
0 8.000000 23.020655 -115.732664 0.97695 0.08168 -0.19720 0.1524 0.2338
0 5.000000 26.727372 -134.367584 0.97695 0.08168 -0.19720 0.1951 0.0192
0 5.000000 76.113122 -113.911337 0.97695 0.08168 -0.19720 0.5556 0.1685
tower_h0
0 8.000000 23.020655 -115.732664 0.97695 0.08168 -0.19720 0.1524 0.2338
0 5.000000 76.113122 -113.911337 0.97695 0.08168 -0.19720 0.5556 0.1685
0 8.000000 65.557285 -98.113416 0.97695 0.08168 -0.19720 0.4340 0.3504
tower_s0
0 -5.000000 83.335530 -124.720440 0.00000 0.38268 -0.92388 0.6511 0.0256
0 5.000000 83.335530 -124.720440 0.00000 0.38268 -0.92388 0.6511 0.0256
0 5.000000 29.263550 -147.117790 0.00000 0.38268 -0.92388 0.2286 0.8506
tower_s0
0 -5.000000 83.335530 -124.720440 0.00000 0.38268 -0.92388 0.6511 0.0256
0 5.000000 29.263550 -147.117790 0.00000 0.38268 -0.92388 0.2286 0.8506
0 -5.000000 29.263550 -147.117790 0.00000 0.38268 -0.92388 0.2286 0.8506
tower_lip
0 -8.000000 23.020655 -115.732664 0.00000 -0.38268 0.92388 0.1524 0.2338
0 8.000000 23.020655 -115.732664 0.00000 -0.38268 0.92388 0.1524 0.2338
0 8.000000 65.557285 -98.113416 0.00000 -0.38268 0.92388 0.4340 0.3504
tower_lip
0 -8.000000 23.020655 -115.732664 0.00000 -0.38268 0.92388 0.1524 0.2338
0 8.000000 65.557285 -98.113416 0.00000 -0.38268 0.92388 0.4340 0.3504
0 -8.000000 65.557285 -98.113416 0.00000 -0.38268 0.92388 0.4340 0.3504
tower_s1
0 -5.000000 113.911337 -76.113122 -1.00000 0.00000 -0.00000 0.8315 0.4444
0 -5.000000 124.720440 -83.335530 -1.00000 0.00000 -0.00000 0.9744 0.3489
0 -5.000000 83.335530 -124.720440 -1.00000 0.00000 -0.00000 0.6511 0.0256
tower_s1
0 -5.000000 113.911337 -76.113122 -1.00000 0.00000 -0.00000 0.8315 0.4444
0 -5.000000 83.335530 -124.720440 -1.00000 0.00000 -0.00000 0.6511 0.0256
0 -5.000000 76.113122 -113.911337 -1.00000 0.00000 -0.00000 0.5556 0.1685
tower_h1
0 -8.000000 98.113416 -65.557285 -0.97695 0.15093 -0.15093 0.6496 0.5660
0 -5.000000 113.911337 -76.113122 -0.97695 0.15093 -0.15093 0.8315 0.4444
0 -5.000000 76.113122 -113.911337 -0.97695 0.15093 -0.15093 0.5556 0.1685
tower_h1
0 -8.000000 98.113416 -65.557285 -0.97695 0.15093 -0.15093 0.6496 0.5660
0 -5.000000 76.113122 -113.911337 -0.97695 0.15093 -0.15093 0.5556 0.1685
0 -8.000000 65.557285 -98.113416 -0.97695 0.15093 -0.15093 0.4340 0.3504
tower_s1
0 5.000000 76.113122 -113.911337 1.00000 -0.00000 0.00000 0.5556 0.1685
0 5.000000 83.335530 -124.720440 1.00000 -0.00000 0.00000 0.6511 0.0256
0 5.000000 124.720440 -83.335530 1.00000 -0.00000 0.00000 0.9744 0.3489
tower_s1
0 5.000000 76.113122 -113.911337 1.00000 -0.00000 0.00000 0.5556 0.1685
0 5.000000 124.720440 -83.335530 1.00000 -0.00000 0.00000 0.9744 0.3489
0 5.000000 113.911337 -76.113122 1.00000 -0.00000 0.00000 0.8315 0.4444
tower_h1
0 8.000000 65.557285 -98.113416 0.97695 0.15093 -0.15093 0.4340 0.3504
0 5.000000 76.113122 -113.911337 0.97695 0.15093 -0.15093 0.5556 0.1685
0 5.000000 113.911337 -76.113122 0.97695 0.15093 -0.15093 0.8315 0.4444
tower_h1
0 8.000000 65.557285 -98.113416 0.97695 0.15093 -0.15093 0.4340 0.3504
0 5.000000 113.911337 -76.113122 0.97695 0.15093 -0.15093 0.8315 0.4444
0 8.000000 98.113416 -65.557285 0.97695 0.15093 -0.15093 0.6496 0.5660
tower_s1
0 -5.000000 124.720440 -83.335530 0.00000 0.70711 -0.70711 0.9744 0.3489
0 5.000000 124.720440 -83.335530 0.00000 0.70711 -0.70711 0.9744 0.3489
0 5.000000 83.335530 -124.720440 0.00000 0.70711 -0.70711 0.6511 0.0256
tower_s1
0 -5.000000 124.720440 -83.335530 0.00000 0.70711 -0.70711 0.9744 0.3489
0 5.000000 83.335530 -124.720440 0.00000 0.70711 -0.70711 0.6511 0.0256
0 -5.000000 83.335530 -124.720440 0.00000 0.70711 -0.70711 0.6511 0.0256
tower_lip
0 -8.000000 65.557285 -98.113416 0.00000 -0.70711 0.70711 0.4340 0.3504
0 8.000000 65.557285 -98.113416 0.00000 -0.70711 0.70711 0.4340 0.3504
0 8.000000 98.113416 -65.557285 0.00000 -0.70711 0.70711 0.6496 0.5660
tower_lip
0 -8.000000 65.557285 -98.113416 0.00000 -0.70711 0.70711 0.4340 0.3504
0 8.000000 98.113416 -65.557285 0.00000 -0.70711 0.70711 0.6496 0.5660
0 -8.000000 98.113416 -65.557285 0.00000 -0.70711 0.70711 0.6496 0.5660
tower_s1
0 -5.000000 134.367584 -26.727372 -1.00000 0.00000 -0.00000 0.9808 0.8049
0 -5.000000 147.117790 -29.263550 -1.00000 0.00000 -0.00000 0.1494 0.7714
0 -5.000000 124.720440 -83.335530 -1.00000 0.00000 -0.00000 0.9744 0.3489
tower_s1
0 -5.000000 134.367584 -26.727372 -1.00000 0.00000 -0.00000 0.9808 0.8049
0 -5.000000 124.720440 -83.335530 -1.00000 0.00000 -0.00000 0.9744 0.3489
0 -5.000000 113.911337 -76.113122 -1.00000 0.00000 -0.00000 0.8315 0.4444
tower_h1
0 -8.000000 115.732664 -23.020655 -0.97695 0.19720 -0.08168 0.7662 0.8476
0 -5.000000 134.367584 -26.727372 -0.97695 0.19720 -0.08168 0.9808 0.8049
0 -5.000000 113.911337 -76.113122 -0.97695 0.19720 -0.08168 0.8315 0.4444
tower_h1
0 -8.000000 115.732664 -23.020655 -0.97695 0.19720 -0.08168 0.7662 0.8476
0 -5.000000 113.911337 -76.113122 -0.97695 0.19720 -0.08168 0.8315 0.4444
0 -8.000000 98.113416 -65.557285 -0.97695 0.19720 -0.08168 0.6496 0.5660
tower_s1
0 5.000000 113.911337 -76.113122 1.00000 -0.00000 0.00000 0.8315 0.4444
0 5.000000 124.720440 -83.335530 1.00000 -0.00000 0.00000 0.9744 0.3489
0 5.000000 147.117790 -29.263550 1.00000 -0.00000 0.00000 0.1494 0.7714
tower_s1
0 5.000000 113.911337 -76.113122 1.00000 -0.00000 0.00000 0.8315 0.4444
0 5.000000 147.117790 -29.263550 1.00000 -0.00000 0.00000 0.1494 0.7714
0 5.000000 134.367584 -26.727372 1.00000 -0.00000 0.00000 0.9808 0.8049
tower_h1
0 8.000000 98.113416 -65.557285 0.97695 0.19720 -0.08168 0.6496 0.5660
0 5.000000 113.911337 -76.113122 0.97695 0.19720 -0.08168 0.8315 0.4444
0 5.000000 134.367584 -26.727372 0.97695 0.19720 -0.08168 0.9808 0.8049
tower_h1
0 8.000000 98.113416 -65.557285 0.97695 0.19720 -0.08168 0.6496 0.5660
0 5.000000 134.367584 -26.727372 0.97695 0.19720 -0.08168 0.9808 0.8049
0 8.000000 115.732664 -23.020655 0.97695 0.19720 -0.08168 0.7662 0.8476
tower_s1
0 -5.000000 147.117790 -29.263550 0.00000 0.92388 -0.38268 0.1494 0.7714
0 5.000000 147.117790 -29.263550 0.00000 0.92388 -0.38268 0.1494 0.7714
0 5.000000 124.720440 -83.335530 0.00000 0.92388 -0.38268 0.9744 0.3489
tower_s1
0 -5.000000 147.117790 -29.263550 0.00000 0.92388 -0.38268 0.1494 0.7714
0 5.000000 124.720440 -83.335530 0.00000 0.92388 -0.38268 0.9744 0.3489
0 -5.000000 124.720440 -83.335530 0.00000 0.92388 -0.38268 0.9744 0.3489
tower_lip
0 -8.000000 98.113416 -65.557285 0.00000 -0.92388 0.38268 0.6496 0.5660
0 8.000000 98.113416 -65.557285 0.00000 -0.92388 0.38268 0.6496 0.5660
0 8.000000 115.732664 -23.020655 0.00000 -0.92388 0.38268 0.7662 0.8476
tower_lip
0 -8.000000 98.113416 -65.557285 0.00000 -0.92388 0.38268 0.6496 0.5660
0 8.000000 115.732664 -23.020655 0.00000 -0.92388 0.38268 0.7662 0.8476
0 -8.000000 115.732664 -23.020655 0.00000 -0.92388 0.38268 0.7662 0.8476
tower_s2
0 -5.000000 134.367584 26.727372 -1.00000 0.00000 0.00000 0.9808 0.1951
0 -5.000000 147.117790 29.263550 -1.00000 0.00000 0.00000 0.1494 0.2286
0 -5.000000 147.117790 -29.263550 -1.00000 0.00000 0.00000 0.1494 0.7714
tower_s2
0 -5.000000 134.367584 26.727372 -1.00000 0.00000 0.00000 0.9808 0.1951
0 -5.000000 147.117790 -29.263550 -1.00000 0.00000 0.00000 0.1494 0.7714
0 -5.000000 134.367584 -26.727372 -1.00000 0.00000 0.00000 0.9808 0.8049
tower_h2
0 -8.000000 115.732664 23.020655 -0.97695 0.21345 -0.00000 0.7662 0.1524
0 -5.000000 134.367584 26.727372 -0.97695 0.21345 -0.00000 0.9808 0.1951
0 -5.000000 134.367584 -26.727372 -0.97695 0.21345 -0.00000 0.9808 0.8049
tower_h2
0 -8.000000 115.732664 23.020655 -0.97695 0.21345 -0.00000 0.7662 0.1524
0 -5.000000 134.367584 -26.727372 -0.97695 0.21345 -0.00000 0.9808 0.8049
0 -8.000000 115.732664 -23.020655 -0.97695 0.21345 -0.00000 0.7662 0.8476
tower_s2
0 5.000000 134.367584 -26.727372 1.00000 -0.00000 0.00000 0.9808 0.8049
0 5.000000 147.117790 -29.263550 1.00000 -0.00000 0.00000 0.1494 0.7714
0 5.000000 147.117790 29.263550 1.00000 -0.00000 0.00000 0.1494 0.2286
tower_s2
0 5.000000 134.367584 -26.727372 1.00000 -0.00000 0.00000 0.9808 0.8049
0 5.000000 147.117790 29.263550 1.00000 -0.00000 0.00000 0.1494 0.2286
0 5.000000 134.367584 26.727372 1.00000 -0.00000 0.00000 0.9808 0.1951
tower_h2
0 8.000000 115.732664 -23.020655 0.97695 0.21345 -0.00000 0.7662 0.8476
0 5.000000 134.367584 -26.727372 0.97695 0.21345 -0.00000 0.9808 0.8049
0 5.000000 134.367584 26.727372 0.97695 0.21345 -0.00000 0.9808 0.1951
tower_h2
0 8.000000 115.732664 -23.020655 0.97695 0.21345 -0.00000 0.7662 0.8476
0 5.000000 134.367584 26.727372 0.97695 0.21345 -0.00000 0.9808 0.1951
0 8.000000 115.732664 23.020655 0.97695 0.21345 -0.00000 0.7662 0.1524
tower_s2
0 -5.000000 147.117790 29.263550 -0.00000 1.00000 0.00000 0.1494 0.2286
0 5.000000 147.117790 29.263550 -0.00000 1.00000 0.00000 0.1494 0.2286
0 5.000000 147.117790 -29.263550 -0.00000 1.00000 0.00000 0.1494 0.7714
tower_s2
0 -5.000000 147.117790 29.263550 -0.00000 1.00000 0.00000 0.1494 0.2286
0 5.000000 147.117790 -29.263550 -0.00000 1.00000 0.00000 0.1494 0.7714
0 -5.000000 147.117790 -29.263550 -0.00000 1.00000 0.00000 0.1494 0.7714
tower_lip
0 -8.000000 115.732664 -23.020655 0.00000 -1.00000 0.00000 0.7662 0.8476
0 8.000000 115.732664 -23.020655 0.00000 -1.00000 0.00000 0.7662 0.8476
0 8.000000 115.732664 23.020655 0.00000 -1.00000 0.00000 0.7662 0.1524
tower_lip
0 -8.000000 115.732664 -23.020655 0.00000 -1.00000 0.00000 0.7662 0.8476
0 8.000000 115.732664 23.020655 0.00000 -1.00000 0.00000 0.7662 0.1524
0 -8.000000 115.732664 23.020655 0.00000 -1.00000 0.00000 0.7662 0.1524
end
