version 1
nodes
0 "root" -1
end
skeleton
time 0
0 0 0 0 0 0 0
end
triangles
tower_s3
0 -10.00000 106.42811 71.11299 -1.00000 0.00000 0.00000 0.8315 0.5556
0 -10.00000 124.72044 83.33553 -1.00000 0.00000 0.00000 0.9744 0.6511
0 -10.00000 147.11779 29.26355 -1.00000 0.00000 0.00000 0.1494 0.2286
tower_s3
0 -10.00000 106.42811 71.11299 -1.00000 0.00000 0.00000 0.8315 0.5556
0 -10.00000 147.11779 29.26355 -1.00000 0.00000 0.00000 0.1494 0.2286
0 -10.00000 125.54052 24.97156 -1.00000 0.00000 0.00000 0.9808 0.1951
tower_h3
0 -16.00000 83.14696 55.55702 -0.97695 0.19720 0.08168 0.6496 0.4340
0 -10.00000 106.42811 71.11299 -0.97695 0.19720 0.08168 0.8315 0.5556
0 -10.00000 125.54052 24.97156 -0.97695 0.19720 0.08168 0.9808 0.1951
tower_h3
0 -16.00000 83.14696 55.55702 -0.97695 0.19720 0.08168 0.6496 0.4340
0 -10.00000 125.54052 24.97156 -0.97695 0.19720 0.08168 0.9808 0.1951
0 -16.00000 98.07853 19.50903 -0.97695 0.19720 0.08168 0.7662 0.1524
tower_s3
0 10.00000 125.54052 24.97156 1.00000 0.00000 -0.00000 0.9808 0.1951
0 10.00000 147.11779 29.26355 1.00000 0.00000 -0.00000 0.1494 0.2286
0 10.00000 124.72044 83.33553 1.00000 0.00000 -0.00000 0.9744 0.6511
tower_s3
0 10.00000 125.54052 24.97156 1.00000 0.00000 -0.00000 0.9808 0.1951
0 10.00000 124.72044 83.33553 1.00000 0.00000 -0.00000 0.9744 0.6511
0 10.00000 106.42811 71.11299 1.00000 0.00000 -0.00000 0.8315 0.5556
tower_h3
0 16.00000 98.07853 19.50903 0.97695 0.19720 0.08168 0.7662 0.1524
0 10.00000 125.54052 24.97156 0.97695 0.19720 0.08168 0.9808 0.1951
0 10.00000 106.42811 71.11299 0.97695 0.19720 0.08168 0.8315 0.5556
tower_h3
0 16.00000 98.07853 19.50903 0.97695 0.19720 0.08168 0.7662 0.1524
0 10.00000 106.42811 71.11299 0.97695 0.19720 0.08168 0.8315 0.5556
0 16.00000 83.14696 55.55702 0.97695 0.19720 0.08168 0.6496 0.4340
tower_s3
0 -10.00000 124.72044 83.33553 -0.00000 0.92388 0.38268 0.9744 0.6511
0 10.00000 124.72044 83.33553 -0.00000 0.92388 0.38268 0.9744 0.6511
0 10.00000 147.11779 29.26355 -0.00000 0.92388 0.38268 0.1494 0.2286
tower_s3
0 -10.00000 124.72044 83.33553 -0.00000 0.92388 0.38268 0.9744 0.6511
0 10.00000 147.11779 29.26355 -0.00000 0.92388 0.38268 0.1494 0.2286
0 -10.00000 147.11779 29.26355 -0.00000 0.92388 0.38268 0.1494 0.2286
tower_lip
0 -16.00000 98.07853 19.50903 0.00000 -0.92388 -0.38268 0.7662 0.1524
0 16.00000 98.07853 19.50903 0.00000 -0.92388 -0.38268 0.7662 0.1524
0 16.00000 83.14696 55.55702 0.00000 -0.92388 -0.38268 0.6496 0.4340
tower_lip
0 -16.00000 98.07853 19.50903 0.00000 -0.92388 -0.38268 0.7662 0.1524
0 16.00000 83.14696 55.55702 0.00000 -0.92388 -0.38268 0.6496 0.4340
0 -16.00000 83.14696 55.55702 0.00000 -0.92388 -0.38268 0.6496 0.4340
tower_s3
0 -10.00000 71.11299 106.42811 -1.00000 0.00000 0.00000 0.5556 0.8315
0 -10.00000 83.33553 124.72044 -1.00000 0.00000 0.00000 0.6511 0.9744
0 -10.00000 124.72044 83.33553 -1.00000 0.00000 0.00000 0.9744 0.6511
tower_s3
0 -10.00000 71.11299 106.42811 -1.00000 0.00000 0.00000 0.5556 0.8315
0 -10.00000 124.72044 83.33553 -1.00000 0.00000 0.00000 0.9744 0.6511
0 -10.00000 106.42811 71.11299 -1.00000 0.00000 0.00000 0.8315 0.5556
tower_h3
0 -16.00000 55.55702 83.14696 -0.97695 0.15093 0.15093 0.4340 0.6496
0 -10.00000 71.11299 106.42811 -0.97695 0.15093 0.15093 0.5556 0.8315
0 -10.00000 106.42811 71.11299 -0.97695 0.15093 0.15093 0.8315 0.5556
tower_h3
0 -16.00000 55.55702 83.14696 -0.97695 0.15093 0.15093 0.4340 0.6496
0 -10.00000 106.42811 71.11299 -0.97695 0.15093 0.15093 0.8315 0.5556
0 -16.00000 83.14696 55.55702 -0.97695 0.15093 0.15093 0.6496 0.4340
tower_s3
0 10.00000 106.42811 71.11299 1.00000 0.00000 -0.00000 0.8315 0.5556
0 10.00000 124.72044 83.33553 1.00000 0.00000 -0.00000 0.9744 0.6511
0 10.00000 83.33553 124.72044 1.00000 0.00000 -0.00000 0.6511 0.9744
tower_s3
0 10.00000 106.42811 71.11299 1.00000 0.00000 -0.00000 0.8315 0.5556
0 10.00000 83.33553 124.72044 1.00000 0.00000 -0.00000 0.6511 0.9744
0 10.00000 71.11299 106.42811 1.00000 0.00000 -0.00000 0.5556 0.8315
tower_h3
0 16.00000 83.14696 55.55702 0.97695 0.15093 0.15093 0.6496 0.4340
0 10.00000 106.42811 71.11299 0.97695 0.15093 0.15093 0.8315 0.5556
0 10.00000 71.11299 106.42811 0.97695 0.15093 0.15093 0.5556 0.8315
tower_h3
0 16.00000 83.14696 55.55702 0.97695 0.15093 0.15093 0.6496 0.4340
0 10.00000 71.11299 106.42811 0.97695 0.15093 0.15093 0.5556 0.8315
0 16.00000 55.55702 83.14696 0.97695 0.15093 0.15093 0.4340 0.6496
tower_s3
0 -10.00000 83.33553 124.72044 -0.00000 0.70711 0.70711 0.6511 0.9744
0 10.00000 83.33553 124.72044 -0.00000 0.70711 0.70711 0.6511 0.9744
0 10.00000 124.72044 83.33553 -0.00000 0.70711 0.70711 0.9744 0.6511
tower_s3
0 -10.00000 83.33553 124.72044 -0.00000 0.70711 0.70711 0.6511 0.9744
0 10.00000 124.72044 83.33553 -0.00000 0.70711 0.70711 0.9744 0.6511
0 -10.00000 124.72044 83.33553 -0.00000 0.70711 0.70711 0.9744 0.6511
tower_lip
0 -16.00000 83.14696 55.55702 0.00000 -0.70711 -0.70711 0.6496 0.4340
0 16.00000 83.14696 55.55702 0.00000 -0.70711 -0.70711 0.6496 0.4340
0 16.00000 55.55702 83.14696 0.00000 -0.70711 -0.70711 0.4340 0.6496
tower_lip
0 -16.00000 83.14696 55.55702 0.00000 -0.70711 -0.70711 0.6496 0.4340
0 16.00000 55.55702 83.14696 0.00000 -0.70711 -0.70711 0.4340 0.6496
0 -16.00000 55.55702 83.14696 0.00000 -0.70711 -0.70711 0.4340 0.6496
tower_s3
0 -10.00000 24.97156 125.54052 -1.00000 0.00000 0.00000 0.1951 0.9808
0 -10.00000 29.26355 147.11779 -1.00000 0.00000 0.00000 0.2286 0.1494
0 -10.00000 83.33553 124.72044 -1.00000 0.00000 0.00000 0.6511 0.9744
tower_s3
0 -10.00000 24.97156 125.54052 -1.00000 0.00000 0.00000 0.1951 0.9808
0 -10.00000 83.33553 124.72044 -1.00000 0.00000 0.00000 0.6511 0.9744
0 -10.00000 71.11299 106.42811 -1.00000 0.00000 0.00000 0.5556 0.8315
tower_h3
0 -16.00000 19.50903 98.07853 -0.97695 0.08168 0.19720 0.1524 0.7662
0 -10.00000 24.97156 125.54052 -0.97695 0.08168 0.19720 0.1951 0.9808
0 -10.00000 71.11299 106.42811 -0.97695 0.08168 0.19720 0.5556 0.8315
tower_h3
0 -16.00000 19.50903 98.07853 -0.97695 0.08168 0.19720 0.1524 0.7662
0 -10.00000 71.11299 106.42811 -0.97695 0.08168 0.19720 0.5556 0.8315
0 -16.00000 55.55702 83.14696 -0.97695 0.08168 0.19720 0.4340 0.6496
tower_s3
0 10.00000 71.11299 106.42811 1.00000 0.00000 -0.00000 0.5556 0.8315
0 10.00000 83.33553 124.72044 1.00000 0.00000 -0.00000 0.6511 0.9744
0 10.00000 29.26355 147.11779 1.00000 0.00000 -0.00000 0.2286 0.1494
tower_s3
0 10.00000 71.11299 106.42811 1.00000 0.00000 -0.00000 0.5556 0.8315
0 10.00000 29.26355 147.11779 1.00000 0.00000 -0.00000 0.2286 0.1494
0 10.00000 24.97156 125.54052 1.00000 0.00000 -0.00000 0.1951 0.9808
tower_h3
0 16.00000 55.55702 83.14696 0.97695 0.08168 0.19720 0.4340 0.6496
0 10.00000 71.11299 106.42811 0.97695 0.08168 0.19720 0.5556 0.8315
0 10.00000 24.97156 125.54052 0.97695 0.08168 0.19720 0.1951 0.9808
tower_h3
0 16.00000 55.55702 83.14696 0.97695 0.08168 0.19720 0.4340 0.6496
0 10.00000 24.97156 125.54052 0.97695 0.08168 0.19720 0.1951 0.9808
0 16.00000 19.50903 98.07853 0.97695 0.08168 0.19720 0.1524 0.7662
tower_s3
0 -10.00000 29.26355 147.11779 -0.00000 0.38268 0.92388 0.2286 0.1494
0 10.00000 29.26355 147.11779 -0.00000 0.38268 0.92388 0.2286 0.1494
0 10.00000 83.33553 124.72044 -0.00000 0.38268 0.92388 0.6511 0.9744
tower_s3
0 -10.00000 29.26355 147.11779 -0.00000 0.38268 0.92388 0.2286 0.1494
0 10.00000 83.33553 124.72044 -0.00000 0.38268 0.92388 0.6511 0.9744
0 -10.00000 83.33553 124.72044 -0.00000 0.38268 0.92388 0.6511 0.9744
tower_lip
0 -16.00000 55.55702 83.14696 0.00000 -0.38268 -0.92388 0.4340 0.6496
0 16.00000 55.55702 83.14696 0.00000 -0.38268 -0.92388 0.4340 0.6496
0 16.00000 19.50903 98.07853 0.00000 -0.38268 -0.92388 0.1524 0.7662
tower_lip
0 -16.00000 55.55702 83.14696 0.00000 -0.38268 -0.92388 0.4340 0.6496
0 16.00000 19.50903 98.07853 0.00000 -0.38268 -0.92388 0.1524 0.7662
0 -16.00000 19.50903 98.07853 0.00000 -0.38268 -0.92388 0.1524 0.7662
tower_s3
0 -10.00000 -24.97156 125.54052 -1.00000 0.00000 0.00000 0.8049 0.9808
0 -10.00000 -29.26355 147.11779 -1.00000 0.00000 0.00000 0.7714 0.1494
0 -10.00000 29.26355 147.11779 -1.00000 0.00000 0.00000 0.2286 0.1494
tower_s3
0 -10.00000 -24.97156 125.54052 -1.00000 0.00000 0.00000 0.8049 0.9808
0 -10.00000 29.26355 147.11779 -1.00000 0.00000 0.00000 0.2286 0.1494
0 -10.00000 24.97156 125.54052 -1.00000 0.00000 0.00000 0.1951 0.9808
tower_h3
0 -16.00000 -19.50903 98.07853 -0.97695 0.00000 0.21345 0.8476 0.7662
0 -10.00000 -24.97156 125.54052 -0.97695 0.00000 0.21345 0.8049 0.9808
0 -10.00000 24.97156 125.54052 -0.97695 0.00000 0.21345 0.1951 0.9808
tower_h3
0 -16.00000 -19.50903 98.07853 -0.97695 0.00000 0.21345 0.8476 0.7662
0 -10.00000 24.97156 125.54052 -0.97695 0.00000 0.21345 0.1951 0.9808
0 -16.00000 19.50903 98.07853 -0.97695 0.00000 0.21345 0.1524 0.7662
tower_s3
0 10.00000 24.97156 125.54052 1.00000 0.00000 -0.00000 0.1951 0.9808
0 10.00000 29.26355 147.11779 1.00000 0.00000 -0.00000 0.2286 0.1494
0 10.00000 -29.26355 147.11779 1.00000 0.00000 -0.00000 0.7714 0.1494
tower_s3
0 10.00000 24.97156 125.54052 1.00000 0.00000 -0.00000 0.1951 0.9808
0 10.00000 -29.26355 147.11779 1.00000 0.00000 -0.00000 0.7714 0.1494
0 10.00000 -24.97156 125.54052 1.00000 0.00000 -0.00000 0.8049 0.9808
tower_h3
0 16.00000 19.50903 98.07853 0.97695 0.00000 0.21345 0.1524 0.7662
0 10.00000 24.97156 125.54052 0.97695 0.00000 0.21345 0.1951 0.9808
0 10.00000 -24.97156 125.54052 0.97695 0.00000 0.21345 0.8049 0.9808
tower_h3
0 16.00000 19.50903 98.07853 0.97695 0.00000 0.21345 0.1524 0.7662
0 10.00000 -24.97156 125.54052 0.97695 0.00000 0.21345 0.8049 0.9808
0 16.00000 -19.50903 98.07853 0.97695 0.00000 0.21345 0.8476 0.7662
tower_s3
0 -10.00000 -29.26355 147.11779 0.00000 0.00000 1.00000 0.7714 0.1494
0 10.00000 -29.26355 147.11779 0.00000 0.00000 1.00000 0.7714 0.1494
0 10.00000 29.26355 147.11779 0.00000 0.00000 1.00000 0.2286 0.1494
tower_s3
0 -10.00000 -29.26355 147.11779 0.00000 0.00000 1.00000 0.7714 0.1494
0 10.00000 29.26355 147.11779 0.00000 0.00000 1.00000 0.2286 0.1494
0 -10.00000 29.26355 147.11779 0.00000 0.00000 1.00000 0.2286 0.1494
tower_lip
0 -16.00000 19.50903 98.07853 0.00000 0.00000 -1.00000 0.1524 0.7662
0 16.00000 19.50903 98.07853 0.00000 0.00000 -1.00000 0.1524 0.7662
0 16.00000 -19.50903 98.07853 0.00000 0.00000 -1.00000 0.8476 0.7662
tower_lip
0 -16.00000 19.50903 98.07853 0.00000 0.00000 -1.00000 0.1524 0.7662
0 16.00000 -19.50903 98.07853 0.00000 0.00000 -1.00000 0.8476 0.7662
0 -16.00000 -19.50903 98.07853 0.00000 0.00000 -1.00000 0.8476 0.7662
tower_s2
0 -10.00000 -71.11299 106.42811 -1.00000 0.00000 0.00000 0.4444 0.8315
0 -10.00000 -83.33553 124.72044 -1.00000 0.00000 0.00000 0.3489 0.9744
0 -10.00000 -29.26355 147.11779 -1.00000 0.00000 0.00000 0.7714 0.1494
tower_s2
0 -10.00000 -71.11299 106.42811 -1.00000 0.00000 0.00000 0.4444 0.8315
0 -10.00000 -29.26355 147.11779 -1.00000 0.00000 0.00000 0.7714 0.1494
0 -10.00000 -24.97156 125.54052 -1.00000 0.00000 0.00000 0.8049 0.9808
tower_h2
0 -16.00000 -55.55702 83.14696 -0.97695 -0.08168 0.19720 0.5660 0.6496
0 -10.00000 -71.11299 106.42811 -0.97695 -0.08168 0.19720 0.4444 0.8315
0 -10.00000 -24.97156 125.54052 -0.97695 -0.08168 0.19720 0.8049 0.9808
tower_h2
0 -16.00000 -55.55702 83.14696 -0.97695 -0.08168 0.19720 0.5660 0.6496
0 -10.00000 -24.97156 125.54052 -0.97695 -0.08168 0.19720 0.8049 0.9808
0 -16.00000 -19.50903 98.07853 -0.97695 -0.08168 0.19720 0.8476 0.7662
tower_s2
0 10.00000 -24.97156 125.54052 1.00000 0.00000 0.00000 0.8049 0.9808
0 10.00000 -29.26355 147.11779 1.00000 0.00000 0.00000 0.7714 0.1494
0 10.00000 -83.33553 124.72044 1.00000 0.00000 0.00000 0.3489 0.9744
tower_s2
0 10.00000 -24.97156 125.54052 1.00000 0.00000 0.00000 0.8049 0.9808
0 10.00000 -83.33553 124.72044 1.00000 0.00000 0.00000 0.3489 0.9744
0 10.00000 -71.11299 106.42811 1.00000 0.00000 0.00000 0.4444 0.8315
tower_h2
0 16.00000 -19.50903 98.07853 0.97695 -0.08168 0.19720 0.8476 0.7662
0 10.00000 -24.97156 125.54052 0.97695 -0.08168 0.19720 0.8049 0.9808
0 10.00000 -71.11299 106.42811 0.97695 -0.08168 0.19720 0.4444 0.8315
tower_h2
0 16.00000 -19.50903 98.07853 0.97695 -0.08168 0.19720 0.8476 0.7662
0 10.00000 -71.11299 106.42811 0.97695 -0.08168 0.19720 0.4444 0.8315
0 16.00000 -55.55702 83.14696 0.97695 -0.08168 0.19720 0.5660 0.6496
tower_s2
0 -10.00000 -83.33553 124.72044 0.00000 -0.38268 0.92388 0.3489 0.9744
0 10.00000 -83.33553 124.72044 0.00000 -0.38268 0.92388 0.3489 0.9744
0 10.00000 -29.26355 147.11779 0.00000 -0.38268 0.92388 0.7714 0.1494
tower_s2
0 -10.00000 -83.33553 124.72044 0.00000 -0.38268 0.92388 0.3489 0.9744
0 10.00000 -29.26355 147.11779 0.00000 -0.38268 0.92388 0.7714 0.1494
0 -10.00000 -29.26355 147.11779 0.00000 -0.38268 0.92388 0.7714 0.1494
tower_lip
0 -16.00000 -19.50903 98.07853 0.00000 0.38268 -0.92388 0.8476 0.7662
0 16.00000 -19.50903 98.07853 0.00000 0.38268 -0.92388 0.8476 0.7662
0 16.00000 -55.55702 83.14696 0.00000 0.38268 -0.92388 0.5660 0.6496
tower_lip
0 -16.00000 -19.50903 98.07853 0.00000 0.38268 -0.92388 0.8476 0.7662
0 16.00000 -55.55702 83.14696 0.00000 0.38268 -0.92388 0.5660 0.6496
0 -16.00000 -55.55702 83.14696 0.00000 0.38268 -0.92388 0.5660 0.6496
tower_s1
0 -10.00000 -106.42811 71.11299 -1.00000 0.00000 0.00000 0.1685 0.5556
0 -10.00000 -124.72044 83.33553 -1.00000 0.00000 0.00000 0.0256 0.6511
0 -10.00000 -83.33553 124.72044 -1.00000 0.00000 0.00000 0.3489 0.9744
tower_s1
0 -10.00000 -106.42811 71.11299 -1.00000 0.00000 0.00000 0.1685 0.5556
0 -10.00000 -83.33553 124.72044 -1.00000 0.00000 0.00000 0.3489 0.9744
0 -10.00000 -71.11299 106.42811 -1.00000 0.00000 0.00000 0.4444 0.8315
tower_h1
0 -16.00000 -83.14696 55.55702 -0.97695 -0.15093 0.15093 0.3504 0.4340
0 -10.00000 -106.42811 71.11299 -0.97695 -0.15093 0.15093 0.1685 0.5556
0 -10.00000 -71.11299 106.42811 -0.97695 -0.15093 0.15093 0.4444 0.8315
tower_h1
0 -16.00000 -83.14696 55.55702 -0.97695 -0.15093 0.15093 0.3504 0.4340
0 -10.00000 -71.11299 106.42811 -0.97695 -0.15093 0.15093 0.4444 0.8315
0 -16.00000 -55.55702 83.14696 -0.97695 -0.15093 0.15093 0.5660 0.6496
tower_s1
0 10.00000 -71.11299 106.42811 1.00000 0.00000 0.00000 0.4444 0.8315
0 10.00000 -83.33553 124.72044 1.00000 0.00000 0.00000 0.3489 0.9744
0 10.00000 -124.72044 83.33553 1.00000 0.00000 0.00000 0.0256 0.6511
tower_s1
0 10.00000 -71.11299 106.42811 1.00000 0.00000 0.00000 0.4444 0.8315
0 10.00000 -124.72044 83.33553 1.00000 0.00000 0.00000 0.0256 0.6511
0 10.00000 -106.42811 71.11299 1.00000 0.00000 0.00000 0.1685 0.5556
tower_h1
0 16.00000 -55.55702 83.14696 0.97695 -0.15093 0.15093 0.5660 0.6496
0 10.00000 -71.11299 106.42811 0.97695 -0.15093 0.15093 0.4444 0.8315
0 10.00000 -106.42811 71.11299 0.97695 -0.15093 0.15093 0.1685 0.5556
tower_h1
0 16.00000 -55.55702 83.14696 0.97695 -0.15093 0.15093 0.5660 0.6496
0 10.00000 -106.42811 71.11299 0.97695 -0.15093 0.15093 0.1685 0.5556
0 16.00000 -83.14696 55.55702 0.97695 -0.15093 0.15093 0.3504 0.4340
tower_s1
0 -10.00000 -124.72044 83.33553 0.00000 -0.70711 0.70711 0.0256 0.6511
0 10.00000 -124.72044 83.33553 0.00000 -0.70711 0.70711 0.0256 0.6511
0 10.00000 -83.33553 124.72044 0.00000 -0.70711 0.70711 0.3489 0.9744
tower_s1
0 -10.00000 -124.72044 83.33553 0.00000 -0.70711 0.70711 0.0256 0.6511
0 10.00000 -83.33553 124.72044 0.00000 -0.70711 0.70711 0.3489 0.9744
0 -10.00000 -83.33553 124.72044 0.00000 -0.70711 0.70711 0.3489 0.9744
tower_lip
0 -16.00000 -55.55702 83.14696 0.00000 0.70711 -0.70711 0.5660 0.6496
0 16.00000 -55.55702 83.14696 0.00000 0.70711 -0.70711 0.5660 0.6496
0 16.00000 -83.14696 55.55702 0.00000 0.70711 -0.70711 0.3504 0.4340
tower_lip
0 -16.00000 -55.55702 83.14696 0.00000 0.70711 -0.70711 0.5660 0.6496
0 16.00000 -83.14696 55.55702 0.00000 0.70711 -0.70711 0.3504 0.4340
0 -16.00000 -83.14696 55.55702 0.00000 0.70711 -0.70711 0.3504 0.4340
tower_s1
0 -10.00000 -125.54052 24.97156 -1.00000 0.00000 0.00000 0.0192 0.1951
0 -10.00000 -147.11779 29.26355 -1.00000 0.00000 0.00000 0.8506 0.2286
0 -10.00000 -124.72044 83.33553 -1.00000 0.00000 0.00000 0.0256 0.6511
tower_s1
0 -10.00000 -125.54052 24.97156 -1.00000 0.00000 0.00000 0.0192 0.1951
0 -10.00000 -124.72044 83.33553 -1.00000 0.00000 0.00000 0.0256 0.6511
0 -10.00000 -106.42811 71.11299 -1.00000 0.00000 0.00000 0.1685 0.5556
tower_h1
0 -16.00000 -98.07853 19.50903 -0.97695 -0.19720 0.08168 0.2338 0.1524
0 -10.00000 -125.54052 24.97156 -0.97695 -0.19720 0.08168 0.0192 0.1951
0 -10.00000 -106.42811 71.11299 -0.97695 -0.19720 0.08168 0.1685 0.5556
tower_h1
0 -16.00000 -98.07853 19.50903 -0.97695 -0.19720 0.08168 0.2338 0.1524
0 -10.00000 -106.42811 71.11299 -0.97695 -0.19720 0.08168 0.1685 0.5556
0 -16.00000 -83.14696 55.55702 -0.97695 -0.19720 0.08168 0.3504 0.4340
tower_s1
0 10.00000 -106.42811 71.11299 1.00000 0.00000 0.00000 0.1685 0.5556
0 10.00000 -124.72044 83.33553 1.00000 0.00000 0.00000 0.0256 0.6511
0 10.00000 -147.11779 29.26355 1.00000 0.00000 0.00000 0.8506 0.2286
tower_s1
0 10.00000 -106.42811 71.11299 1.00000 0.00000 0.00000 0.1685 0.5556
0 10.00000 -147.11779 29.26355 1.00000 0.00000 0.00000 0.8506 0.2286
0 10.00000 -125.54052 24.97156 1.00000 0.00000 0.00000 0.0192 0.1951
tower_h1
0 16.00000 -83.14696 55.55702 0.97695 -0.19720 0.08168 0.3504 0.4340
0 10.00000 -106.42811 71.11299 0.97695 -0.19720 0.08168 0.1685 0.5556
0 10.00000 -125.54052 24.97156 0.97695 -0.19720 0.08168 0.0192 0.1951
tower_h1
0 16.00000 -83.14696 55.55702 0.97695 -0.19720 0.08168 0.3504 0.4340
0 10.00000 -125.54052 24.97156 0.97695 -0.19720 0.08168 0.0192 0.1951
0 16.00000 -98.07853 19.50903 0.97695 -0.19720 0.08168 0.2338 0.1524
tower_s1
0 -10.00000 -147.11779 29.26355 0.00000 -0.92388 0.38268 0.8506 0.2286
0 10.00000 -147.11779 29.26355 0.00000 -0.92388 0.38268 0.8506 0.2286
0 10.00000 -124.72044 83.33553 0.00000 -0.92388 0.38268 0.0256 0.6511
tower_s1
0 -10.00000 -147.11779 29.26355 0.00000 -0.92388 0.38268 0.8506 0.2286
0 10.00000 -124.72044 83.33553 0.00000 -0.92388 0.38268 0.0256 0.6511
0 -10.00000 -124.72044 83.33553 0.00000 -0.92388 0.38268 0.0256 0.6511
tower_lip
0 -16.00000 -83.14696 55.55702 0.00000 0.92388 -0.38268 0.3504 0.4340
0 16.00000 -83.14696 55.55702 0.00000 0.92388 -0.38268 0.3504 0.4340
0 16.00000 -98.07853 19.50903 0.00000 0.92388 -0.38268 0.2338 0.1524
tower_lip
0 -16.00000 -83.14696 55.55702 0.00000 0.92388 -0.38268 0.3504 0.4340
0 16.00000 -98.07853 19.50903 0.00000 0.92388 -0.38268 0.2338 0.1524
0 -16.00000 -98.07853 19.50903 0.00000 0.92388 -0.38268 0.2338 0.1524
tower_s0
0 -10.00000 -125.54052 -24.97156 -1.00000 -0.00000 0.00000 0.0192 0.8049
0 -10.00000 -147.11779 -29.26355 -1.00000 -0.00000 0.00000 0.8506 0.7714
0 -10.00000 -147.11779 29.26355 -1.00000 -0.00000 0.00000 0.8506 0.2286
tower_s0
0 -10.00000 -125.54052 -24.97156 -1.00000 -0.00000 0.00000 0.0192 0.8049
0 -10.00000 -147.11779 29.26355 -1.00000 -0.00000 0.00000 0.8506 0.2286
0 -10.00000 -125.54052 24.97156 -1.00000 -0.00000 0.00000 0.0192 0.1951
tower_h0
0 -16.00000 -98.07853 -19.50903 -0.97695 -0.21345 0.00000 0.2338 0.8476
0 -10.00000 -125.54052 -24.97156 -0.97695 -0.21345 0.00000 0.0192 0.8049
0 -10.00000 -125.54052 24.97156 -0.97695 -0.21345 0.00000 0.0192 0.1951
tower_h0
0 -16.00000 -98.07853 -19.50903 -0.97695 -0.21345 0.00000 0.2338 0.8476
0 -10.00000 -125.54052 24.97156 -0.97695 -0.21345 0.00000 0.0192 0.1951
0 -16.00000 -98.07853 19.50903 -0.97695 -0.21345 0.00000 0.2338 0.1524
tower_s0
0 10.00000 -125.54052 24.97156 1.00000 0.00000 0.00000 0.0192 0.1951
0 10.00000 -147.11779 29.26355 1.00000 0.00000 0.00000 0.8506 0.2286
0 10.00000 -147.11779 -29.26355 1.00000 0.00000 0.00000 0.8506 0.7714
tower_s0
0 10.00000 -125.54052 24.97156 1.00000 0.00000 0.00000 0.0192 0.1951
0 10.00000 -147.11779 -29.26355 1.00000 0.00000 0.00000 0.8506 0.7714
0 10.00000 -125.54052 -24.97156 1.00000 0.00000 0.00000 0.0192 0.8049
tower_h0
0 16.00000 -98.07853 19.50903 0.97695 -0.21345 0.00000 0.2338 0.1524
0 10.00000 -125.54052 24.97156 0.97695 -0.21345 0.00000 0.0192 0.1951
0 10.00000 -125.54052 -24.97156 0.97695 -0.21345 0.00000 0.0192 0.8049
tower_h0
0 16.00000 -98.07853 19.50903 0.97695 -0.21345 0.00000 0.2338 0.1524
0 10.00000 -125.54052 -24.97156 0.97695 -0.21345 0.00000 0.0192 0.8049
0 16.00000 -98.07853 -19.50903 0.97695 -0.21345 0.00000 0.2338 0.8476
tower_s0
0 -10.00000 -147.11779 -29.26355 0.00000 -1.00000 0.00000 0.8506 0.7714
0 10.00000 -147.11779 -29.26355 0.00000 -1.00000 0.00000 0.8506 0.7714
0 10.00000 -147.11779 29.26355 0.00000 -1.00000 0.00000 0.8506 0.2286
tower_s0
0 -10.00000 -147.11779 -29.26355 0.00000 -1.00000 0.00000 0.8506 0.7714
0 10.00000 -147.11779 29.26355 0.00000 -1.00000 0.00000 0.8506 0.2286
0 -10.00000 -147.11779 29.26355 0.00000 -1.00000 0.00000 0.8506 0.2286
tower_lip
0 -16.00000 -98.07853 19.50903 -0.00000 1.00000 0.00000 0.2338 0.1524
0 16.00000 -98.07853 19.50903 -0.00000 1.00000 0.00000 0.2338 0.1524
0 16.00000 -98.07853 -19.50903 -0.00000 1.00000 0.00000 0.2338 0.8476
tower_lip
0 -16.00000 -98.07853 19.50903 -0.00000 1.00000 0.00000 0.2338 0.1524
0 16.00000 -98.07853 -19.50903 -0.00000 1.00000 0.00000 0.2338 0.8476
0 -16.00000 -98.07853 -19.50903 -0.00000 1.00000 0.00000 0.2338 0.8476
tower_s0
0 -10.00000 -106.42811 -71.11299 -1.00000 -0.00000 0.00000 0.1685 0.4444
0 -10.00000 -124.72044 -83.33553 -1.00000 -0.00000 0.00000 0.0256 0.3489
0 -10.00000 -147.11779 -29.26355 -1.00000 -0.00000 0.00000 0.8506 0.7714
tower_s0
0 -10.00000 -106.42811 -71.11299 -1.00000 -0.00000 0.00000 0.1685 0.4444
0 -10.00000 -147.11779 -29.26355 -1.00000 -0.00000 0.00000 0.8506 0.7714
0 -10.00000 -125.54052 -24.97156 -1.00000 -0.00000 0.00000 0.0192 0.8049
tower_h0
0 -16.00000 -83.14696 -55.55702 -0.97695 -0.19720 -0.08168 0.3504 0.5660
0 -10.00000 -106.42811 -71.11299 -0.97695 -0.19720 -0.08168 0.1685 0.4444
0 -10.00000 -125.54052 -24.97156 -0.97695 -0.19720 -0.08168 0.0192 0.8049
tower_h0
0 -16.00000 -83.14696 -55.55702 -0.97695 -0.19720 -0.08168 0.3504 0.5660
0 -10.00000 -125.54052 -24.97156 -0.97695 -0.19720 -0.08168 0.0192 0.8049
0 -16.00000 -98.07853 -19.50903 -0.97695 -0.19720 -0.08168 0.2338 0.8476
tower_s0
0 10.00000 -125.54052 -24.97156 1.00000 0.00000 0.00000 0.0192 0.8049
0 10.00000 -147.11779 -29.26355 1.00000 0.00000 0.00000 0.8506 0.7714
0 10.00000 -124.72044 -83.33553 1.00000 0.00000 0.00000 0.0256 0.3489
tower_s0
0 10.00000 -125.54052 -24.97156 1.00000 0.00000 0.00000 0.0192 0.8049
0 10.00000 -124.72044 -83.33553 1.00000 0.00000 0.00000 0.0256 0.3489
0 10.00000 -106.42811 -71.11299 1.00000 0.00000 0.00000 0.1685 0.4444
tower_h0
0 16.00000 -98.07853 -19.50903 0.97695 -0.19720 -0.08168 0.2338 0.8476
0 10.00000 -125.54052 -24.97156 0.97695 -0.19720 -0.08168 0.0192 0.8049
0 10.00000 -106.42811 -71.11299 0.97695 -0.19720 -0.08168 0.1685 0.4444
tower_h0
0 16.00000 -98.07853 -19.50903 0.97695 -0.19720 -0.08168 0.2338 0.8476
0 10.00000 -106.42811 -71.11299 0.97695 -0.19720 -0.08168 0.1685 0.4444
0 16.00000 -83.14696 -55.55702 0.97695 -0.19720 -0.08168 0.3504 0.5660
tower_s0
0 -10.00000 -124.72044 -83.33553 0.00000 -0.92388 -0.38268 0.0256 0.3489
0 10.00000 -124.72044 -83.33553 0.00000 -0.92388 -0.38268 0.0256 0.3489
0 10.00000 -147.11779 -29.26355 0.00000 -0.92388 -0.38268 0.8506 0.7714
tower_s0
0 -10.00000 -124.72044 -83.33553 0.00000 -0.92388 -0.38268 0.0256 0.3489
0 10.00000 -147.11779 -29.26355 0.00000 -0.92388 -0.38268 0.8506 0.7714
0 -10.00000 -147.11779 -29.26355 0.00000 -0.92388 -0.38268 0.8506 0.7714
tower_lip
0 -16.00000 -98.07853 -19.50903 -0.00000 0.92388 0.38268 0.2338 0.8476
0 16.00000 -98.07853 -19.50903 -0.00000 0.92388 0.38268 0.2338 0.8476
0 16.00000 -83.14696 -55.55702 -0.00000 0.92388 0.38268 0.3504 0.5660
tower_lip
0 -16.00000 -98.07853 -19.50903 -0.00000 0.92388 0.38268 0.2338 0.8476
0 16.00000 -83.14696 -55.55702 -0.00000 0.92388 0.38268 0.3504 0.5660
0 -16.00000 -83.14696 -55.55702 -0.00000 0.92388 0.38268 0.3504 0.5660
tower_s0
0 -10.00000 -71.11299 -106.42811 -1.00000 -0.00000 0.00000 0.4444 0.1685
0 -10.00000 -83.33553 -124.72044 -1.00000 -0.00000 0.00000 0.3489 0.0256
0 -10.00000 -124.72044 -83.33553 -1.00000 -0.00000 0.00000 0.0256 0.3489
tower_s0
0 -10.00000 -71.11299 -106.42811 -1.00000 -0.00000 0.00000 0.4444 0.1685
0 -10.00000 -124.72044 -83.33553 -1.00000 -0.00000 0.00000 0.0256 0.3489
0 -10.00000 -106.42811 -71.11299 -1.00000 -0.00000 0.00000 0.1685 0.4444
tower_h0
0 -16.00000 -55.55702 -83.14696 -0.97695 -0.15093 -0.15093 0.5660 0.3504
0 -10.00000 -71.11299 -106.42811 -0.97695 -0.15093 -0.15093 0.4444 0.1685
0 -10.00000 -106.42811 -71.11299 -0.97695 -0.15093 -0.15093 0.1685 0.4444
tower_h0
0 -16.00000 -55.55702 -83.14696 -0.97695 -0.15093 -0.15093 0.5660 0.3504
0 -10.00000 -106.42811 -71.11299 -0.97695 -0.15093 -0.15093 0.1685 0.4444
0 -16.00000 -83.14696 -55.55702 -0.97695 -0.15093 -0.15093 0.3504 0.5660
tower_s0
0 10.00000 -106.42811 -71.11299 1.00000 0.00000 0.00000 0.1685 0.4444
0 10.00000 -124.72044 -83.33553 1.00000 0.00000 0.00000 0.0256 0.3489
0 10.00000 -83.33553 -124.72044 1.00000 0.00000 0.00000 0.3489 0.0256
tower_s0
0 10.00000 -106.42811 -71.11299 1.00000 0.00000 0.00000 0.1685 0.4444
0 10.00000 -83.33553 -124.72044 1.00000 0.00000 0.00000 0.3489 0.0256
0 10.00000 -71.11299 -106.42811 1.00000 0.00000 0.00000 0.4444 0.1685
tower_h0
0 16.00000 -83.14696 -55.55702 0.97695 -0.15093 -0.15093 0.3504 0.5660
0 10.00000 -106.42811 -71.11299 0.97695 -0.15093 -0.15093 0.1685 0.4444
0 10.00000 -71.11299 -106.42811 0.97695 -0.15093 -0.15093 0.4444 0.1685
tower_h0
0 16.00000 -83.14696 -55.55702 0.97695 -0.15093 -0.15093 0.3504 0.5660
0 10.00000 -71.11299 -106.42811 0.97695 -0.15093 -0.15093 0.4444 0.1685
0 16.00000 -55.55702 -83.14696 0.97695 -0.15093 -0.15093 0.5660 0.3504
tower_s0
0 -10.00000 -83.33553 -124.72044 0.00000 -0.70711 -0.70711 0.3489 0.0256
0 10.00000 -83.33553 -124.72044 0.00000 -0.70711 -0.70711 0.3489 0.0256
0 10.00000 -124.72044 -83.33553 0.00000 -0.70711 -0.70711 0.0256 0.3489
tower_s0
0 -10.00000 -83.33553 -124.72044 0.00000 -0.70711 -0.70711 0.3489 0.0256
0 10.00000 -124.72044 -83.33553 0.00000 -0.70711 -0.70711 0.0256 0.3489
0 -10.00000 -124.72044 -83.33553 0.00000 -0.70711 -0.70711 0.0256 0.3489
tower_lip
0 -16.00000 -83.14696 -55.55702 -0.00000 0.70711 0.70711 0.3504 0.5660
0 16.00000 -83.14696 -55.55702 -0.00000 0.70711 0.70711 0.3504 0.5660
0 16.00000 -55.55702 -83.14696 -0.00000 0.70711 0.70711 0.5660 0.3504
tower_lip
0 -16.00000 -83.14696 -55.55702 -0.00000 0.70711 0.70711 0.3504 0.5660
0 16.00000 -55.55702 -83.14696 -0.00000 0.70711 0.70711 0.5660 0.3504
0 -16.00000 -55.55702 -83.14696 -0.00000 0.70711 0.70711 0.5660 0.3504
tower_s0
0 -10.00000 -24.97156 -125.54052 -1.00000 -0.00000 0.00000 0.8049 0.0192
0 -10.00000 -29.26355 -147.11779 -1.00000 -0.00000 0.00000 0.7714 0.8506
0 -10.00000 -83.33553 -124.72044 -1.00000 -0.00000 0.00000 0.3489 0.0256
tower_s0
0 -10.00000 -24.97156 -125.54052 -1.00000 -0.00000 0.00000 0.8049 0.0192
0 -10.00000 -83.33553 -124.72044 -1.00000 -0.00000 0.00000 0.3489 0.0256
0 -10.00000 -71.11299 -106.42811 -1.00000 -0.00000 0.00000 0.4444 0.1685
tower_h0
0 -16.00000 -19.50903 -98.07853 -0.97695 -0.08168 -0.19720 0.8476 0.2338
0 -10.00000 -24.97156 -125.54052 -0.97695 -0.08168 -0.19720 0.8049 0.0192
0 -10.00000 -71.11299 -106.42811 -0.97695 -0.08168 -0.19720 0.4444 0.1685
tower_h0
0 -16.00000 -19.50903 -98.07853 -0.97695 -0.08168 -0.19720 0.8476 0.2338
0 -10.00000 -71.11299 -106.42811 -0.97695 -0.08168 -0.19720 0.4444 0.1685
0 -16.00000 -55.55702 -83.14696 -0.97695 -0.08168 -0.19720 0.5660 0.3504
tower_s0
0 10.00000 -71.11299 -106.42811 1.00000 0.00000 0.00000 0.4444 0.1685
0 10.00000 -83.33553 -124.72044 1.00000 0.00000 0.00000 0.3489 0.0256
0 10.00000 -29.26355 -147.11779 1.00000 0.00000 0.00000 0.7714 0.8506
tower_s0
0 10.00000 -71.11299 -106.42811 1.00000 0.00000 0.00000 0.4444 0.1685
0 10.00000 -29.26355 -147.11779 1.00000 0.00000 0.00000 0.7714 0.8506
0 10.00000 -24.97156 -125.54052 1.00000 0.00000 0.00000 0.8049 0.0192
tower_h0
0 16.00000 -55.55702 -83.14696 0.97695 -0.08168 -0.19720 0.5660 0.3504
0 10.00000 -71.11299 -106.42811 0.97695 -0.08168 -0.19720 0.4444 0.1685
0 10.00000 -24.97156 -125.54052 0.97695 -0.08168 -0.19720 0.8049 0.0192
tower_h0
0 16.00000 -55.55702 -83.14696 0.97695 -0.08168 -0.19720 0.5660 0.3504
0 10.00000 -24.97156 -125.54052 0.97695 -0.08168 -0.19720 0.8049 0.0192
0 16.00000 -19.50903 -98.07853 0.97695 -0.08168 -0.19720 0.8476 0.2338
tower_s0
0 -10.00000 -29.26355 -147.11779 0.00000 -0.38268 -0.92388 0.7714 0.8506
0 10.00000 -29.26355 -147.11779 0.00000 -0.38268 -0.92388 0.7714 0.8506
0 10.00000 -83.33553 -124.72044 0.00000 -0.38268 -0.92388 0.3489 0.0256
tower_s0
0 -10.00000 -29.26355 -147.11779 0.00000 -0.38268 -0.92388 0.7714 0.8506
0 10.00000 -83.33553 -124.72044 0.00000 -0.38268 -0.92388 0.3489 0.0256
0 -10.00000 -83.33553 -124.72044 0.00000 -0.38268 -0.92388 0.3489 0.0256
tower_lip
0 -16.00000 -55.55702 -83.14696 -0.00000 0.38268 0.92388 0.5660 0.3504
0 16.00000 -55.55702 -83.14696 -0.00000 0.38268 0.92388 0.5660 0.3504
0 16.00000 -19.50903 -98.07853 -0.00000 0.38268 0.92388 0.8476 0.2338
tower_lip
0 -16.00000 -55.55702 -83.14696 -0.00000 0.38268 0.92388 0.5660 0.3504
0 16.00000 -19.50903 -98.07853 -0.00000 0.38268 0.92388 0.8476 0.2338
0 -16.00000 -19.50903 -98.07853 -0.00000 0.38268 0.92388 0.8476 0.2338
tower_s0
0 -10.00000 24.97156 -125.54052 -1.00000 0.00000 -0.00000 0.1951 0.0192
0 -10.00000 29.26355 -147.11779 -1.00000 0.00000 -0.00000 0.2286 0.8506
0 -10.00000 -29.26355 -147.11779 -1.00000 0.00000 -0.00000 0.7714 0.8506
tower_s0
0 -10.00000 24.97156 -125.54052 -1.00000 0.00000 -0.00000 0.1951 0.0192
0 -10.00000 -29.26355 -147.11779 -1.00000 0.00000 -0.00000 0.7714 0.8506
0 -10.00000 -24.97156 -125.54052 -1.00000 0.00000 -0.00000 0.8049 0.0192
tower_h0
0 -16.00000 19.50903 -98.07853 -0.97695 -0.00000 -0.21345 0.1524 0.2338
0 -10.00000 24.97156 -125.54052 -0.97695 -0.00000 -0.21345 0.1951 0.0192
0 -10.00000 -24.97156 -125.54052 -0.97695 -0.00000 -0.21345 0.8049 0.0192
tower_h0
0 -16.00000 19.50903 -98.07853 -0.97695 -0.00000 -0.21345 0.1524 0.2338
0 -10.00000 -24.97156 -125.54052 -0.97695 -0.00000 -0.21345 0.8049 0.0192
0 -16.00000 -19.50903 -98.07853 -0.97695 -0.00000 -0.21345 0.8476 0.2338
tower_s0
0 10.00000 -24.97156 -125.54052 1.00000 0.00000 0.00000 0.8049 0.0192
0 10.00000 -29.26355 -147.11779 1.00000 0.00000 0.00000 0.7714 0.8506
0 10.00000 29.26355 -147.11779 1.00000 0.00000 0.00000 0.2286 0.8506
tower_s0
0 10.00000 -24.97156 -125.54052 1.00000 0.00000 0.00000 0.8049 0.0192
0 10.00000 29.26355 -147.11779 1.00000 0.00000 0.00000 0.2286 0.8506
0 10.00000 24.97156 -125.54052 1.00000 0.00000 0.00000 0.1951 0.0192
tower_h0
0 16.00000 -19.50903 -98.07853 0.97695 -0.00000 -0.21345 0.8476 0.2338
0 10.00000 -24.97156 -125.54052 0.97695 -0.00000 -0.21345 0.8049 0.0192
0 10.00000 24.97156 -125.54052 0.97695 -0.00000 -0.21345 0.1951 0.0192
tower_h0
0 16.00000 -19.50903 -98.07853 0.97695 -0.00000 -0.21345 0.8476 0.2338
0 10.00000 24.97156 -125.54052 0.97695 -0.00000 -0.21345 0.1951 0.0192
0 16.00000 19.50903 -98.07853 0.97695 -0.00000 -0.21345 0.1524 0.2338
tower_s0
0 -10.00000 29.26355 -147.11779 0.00000 0.00000 -1.00000 0.2286 0.8506
0 10.00000 29.26355 -147.11779 0.00000 0.00000 -1.00000 0.2286 0.8506
0 10.00000 -29.26355 -147.11779 0.00000 0.00000 -1.00000 0.7714 0.8506
tower_s0
0 -10.00000 29.26355 -147.11779 0.00000 0.00000 -1.00000 0.2286 0.8506
0 10.00000 -29.26355 -147.11779 0.00000 0.00000 -1.00000 0.7714 0.8506
0 -10.00000 -29.26355 -147.11779 0.00000 0.00000 -1.00000 0.7714 0.8506
tower_lip
0 -16.00000 -19.50903 -98.07853 -0.00000 0.00000 1.00000 0.8476 0.2338
0 16.00000 -19.50903 -98.07853 -0.00000 0.00000 1.00000 0.8476 0.2338
0 16.00000 19.50903 -98.07853 -0.00000 0.00000 1.00000 0.1524 0.2338
tower_lip
0 -16.00000 -19.50903 -98.07853 -0.00000 0.00000 1.00000 0.8476 0.2338
0 16.00000 19.50903 -98.07853 -0.00000 0.00000 1.00000 0.1524 0.2338
0 -16.00000 19.50903 -98.07853 -0.00000 0.00000 1.00000 0.1524 0.2338
tower_s0
0 -10.00000 71.11299 -106.42811 -1.00000 0.00000 -0.00000 0.5556 0.1685
0 -10.00000 83.33553 -124.72044 -1.00000 0.00000 -0.00000 0.6511 0.0256
0 -10.00000 29.26355 -147.11779 -1.00000 0.00000 -0.00000 0.2286 0.8506
tower_s0
0 -10.00000 71.11299 -106.42811 -1.00000 0.00000 -0.00000 0.5556 0.1685
0 -10.00000 29.26355 -147.11779 -1.00000 0.00000 -0.00000 0.2286 0.8506
0 -10.00000 24.97156 -125.54052 -1.00000 0.00000 -0.00000 0.1951 0.0192
tower_h0
0 -16.00000 55.55702 -83.14696 -0.97695 0.08168 -0.19720 0.4340 0.3504
0 -10.00000 71.11299 -106.42811 -0.97695 0.08168 -0.19720 0.5556 0.1685
0 -10.00000 24.97156 -125.54052 -0.97695 0.08168 -0.19720 0.1951 0.0192
tower_h0
0 -16.00000 55.55702 -83.14696 -0.97695 0.08168 -0.19720 0.4340 0.3504
0 -10.00000 24.97156 -125.54052 -0.97695 0.08168 -0.19720 0.1951 0.0192
0 -16.00000 19.50903 -98.07853 -0.97695 0.08168 -0.19720 0.1524 0.2338
tower_s0
0 10.00000 24.97156 -125.54052 1.00000 -0.00000 0.00000 0.1951 0.0192
0 10.00000 29.26355 -147.11779 1.00000 -0.00000 0.00000 0.2286 0.8506
0 10.00000 83.33553 -124.72044 1.00000 -0.00000 0.00000 0.6511 0.0256
tower_s0
0 10.00000 24.97156 -125.54052 1.00000 -0.00000 0.00000 0.1951 0.0192
0 10.00000 83.33553 -124.72044 1.00000 -0.00000 0.00000 0.6511 0.0256
0 10.00000 71.11299 -106.42811 1.00000 -0.00000 0.00000 0.5556 0.1685
tower_h0
0 16.00000 19.50903 -98.07853 0.97695 0.08168 -0.19720 0.1524 0.2338
0 10.00000 24.97156 -125.54052 0.97695 0.08168 -0.19720 0.1951 0.0192
0 10.00000 71.11299 -106.42811 0.97695 0.08168 -0.19720 0.5556 0.1685
tower_h0
0 16.00000 19.50903 -98.07853 0.97695 0.08168 -0.19720 0.1524 0.2338
0 10.00000 71.11299 -106.42811 0.97695 0.08168 -0.19720 0.5556 0.1685
0 16.00000 55.55702 -83.14696 0.97695 0.08168 -0.19720 0.4340 0.3504
tower_s0
0 -10.00000 83.33553 -124.72044 0.00000 0.38268 -0.92388 0.6511 0.0256
0 10.00000 83.33553 -124.72044 0.00000 0.38268 -0.92388 0.6511 0.0256
0 10.00000 29.26355 -147.11779 0.00000 0.38268 -0.92388 0.2286 0.8506
tower_s0
0 -10.00000 83.33553 -124.72044 0.00000 0.38268 -0.92388 0.6511 0.0256
0 10.00000 29.26355 -147.11779 0.00000 0.38268 -0.92388 0.2286 0.8506
0 -10.00000 29.26355 -147.11779 0.00000 0.38268 -0.92388 0.2286 0.8506
tower_lip
0 -16.00000 19.50903 -98.07853 0.00000 -0.38268 0.92388 0.1524 0.2338
0 16.00000 19.50903 -98.07853 0.00000 -0.38268 0.92388 0.1524 0.2338
0 16.00000 55.55702 -83.14696 0.00000 -0.38268 0.92388 0.4340 0.3504
tower_lip
0 -16.00000 19.50903 -98.07853 0.00000 -0.38268 0.92388 0.1524 0.2338
0 16.00000 55.55702 -83.14696 0.00000 -0.38268 0.92388 0.4340 0.3504
0 -16.00000 55.55702 -83.14696 0.00000 -0.38268 0.92388 0.4340 0.3504
tower_s1
0 -10.00000 106.42811 -71.11299 -1.00000 0.00000 -0.00000 0.8315 0.4444
0 -10.00000 124.72044 -83.33553 -1.00000 0.00000 -0.00000 0.9744 0.3489
0 -10.00000 83.33553 -124.72044 -1.00000 0.00000 -0.00000 0.6511 0.0256
tower_s1
0 -10.00000 106.42811 -71.11299 -1.00000 0.00000 -0.00000 0.8315 0.4444
0 -10.00000 83.33553 -124.72044 -1.00000 0.00000 -0.00000 0.6511 0.0256
0 -10.00000 71.11299 -106.42811 -1.00000 0.00000 -0.00000 0.5556 0.1685
tower_h1
0 -16.00000 83.14696 -55.55702 -0.97695 0.15093 -0.15093 0.6496 0.5660
0 -10.00000 106.42811 -71.11299 -0.97695 0.15093 -0.15093 0.8315 0.4444
0 -10.00000 71.11299 -106.42811 -0.97695 0.15093 -0.15093 0.5556 0.1685
tower_h1
0 -16.00000 83.14696 -55.55702 -0.97695 0.15093 -0.15093 0.6496 0.5660
0 -10.00000 71.11299 -106.42811 -0.97695 0.15093 -0.15093 0.5556 0.1685
0 -16.00000 55.55702 -83.14696 -0.97695 0.15093 -0.15093 0.4340 0.3504
tower_s1
0 10.00000 71.11299 -106.42811 1.00000 -0.00000 0.00000 0.5556 0.1685
0 10.00000 83.33553 -124.72044 1.00000 -0.00000 0.00000 0.6511 0.0256
0 10.00000 124.72044 -83.33553 1.00000 -0.00000 0.00000 0.9744 0.3489
tower_s1
0 10.00000 71.11299 -106.42811 1.00000 -0.00000 0.00000 0.5556 0.1685
0 10.00000 124.72044 -83.33553 1.00000 -0.00000 0.00000 0.9744 0.3489
0 10.00000 106.42811 -71.11299 1.00000 -0.00000 0.00000 0.8315 0.4444
tower_h1
0 16.00000 55.55702 -83.14696 0.97695 0.15093 -0.15093 0.4340 0.3504
0 10.00000 71.11299 -106.42811 0.97695 0.15093 -0.15093 0.5556 0.1685
0 10.00000 106.42811 -71.11299 0.97695 0.15093 -0.15093 0.8315 0.4444
tower_h1
0 16.00000 55.55702 -83.14696 0.97695 0.15093 -0.15093 0.4340 0.3504
0 10.00000 106.42811 -71.11299 0.97695 0.15093 -0.15093 0.8315 0.4444
0 16.00000 83.14696 -55.55702 0.97695 0.15093 -0.15093 0.6496 0.5660
tower_s1
0 -10.00000 124.72044 -83.33553 0.00000 0.70711 -0.70711 0.9744 0.3489
0 10.00000 124.72044 -83.33553 0.00000 0.70711 -0.70711 0.9744 0.3489
0 10.00000 83.33553 -124.72044 0.00000 0.70711 -0.70711 0.6511 0.0256
tower_s1
0 -10.00000 124.72044 -83.33553 0.00000 0.70711 -0.70711 0.9744 0.3489
0 10.00000 83.33553 -124.72044 0.00000 0.70711 -0.70711 0.6511 0.0256
0 -10.00000 83.33553 -124.72044 0.00000 0.70711 -0.70711 0.6511 0.0256
tower_lip
0 -16.00000 55.55702 -83.14696 0.00000 -0.70711 0.70711 0.4340 0.3504
0 16.00000 55.55702 -83.14696 0.00000 -0.70711 0.70711 0.4340 0.3504
0 16.00000 83.14696 -55.55702 0.00000 -0.70711 0.70711 0.6496 0.5660
tower_lip
0 -16.00000 55.55702 -83.14696 0.00000 -0.70711 0.70711 0.4340 0.3504
0 16.00000 83.14696 -55.55702 0.00000 -0.70711 0.70711 0.6496 0.5660
0 -16.00000 83.14696 -55.55702 0.00000 -0.70711 0.70711 0.6496 0.5660
tower_s1
0 -10.00000 125.54052 -24.97156 -1.00000 0.00000 -0.00000 0.9808 0.8049
0 -10.00000 147.11779 -29.26355 -1.00000 0.00000 -0.00000 0.1494 0.7714
0 -10.00000 124.72044 -83.33553 -1.00000 0.00000 -0.00000 0.9744 0.3489
tower_s1
0 -10.00000 125.54052 -24.97156 -1.00000 0.00000 -0.00000 0.9808 0.8049
0 -10.00000 124.72044 -83.33553 -1.00000 0.00000 -0.00000 0.9744 0.3489
0 -10.00000 106.42811 -71.11299 -1.00000 0.00000 -0.00000 0.8315 0.4444
tower_h1
0 -16.00000 98.07853 -19.50903 -0.97695 0.19720 -0.08168 0.7662 0.8476
0 -10.00000 125.54052 -24.97156 -0.97695 0.19720 -0.08168 0.9808 0.8049
0 -10.00000 106.42811 -71.11299 -0.97695 0.19720 -0.08168 0.8315 0.4444
tower_h1
0 -16.00000 98.07853 -19.50903 -0.97695 0.19720 -0.08168 0.7662 0.8476
0 -10.00000 106.42811 -71.11299 -0.97695 0.19720 -0.08168 0.8315 0.4444
0 -16.00000 83.14696 -55.55702 -0.97695 0.19720 -0.08168 0.6496 0.5660
tower_s1
0 10.00000 106.42811 -71.11299 1.00000 -0.00000 0.00000 0.8315 0.4444
0 10.00000 124.72044 -83.33553 1.00000 -0.00000 0.00000 0.9744 0.3489
0 10.00000 147.11779 -29.26355 1.00000 -0.00000 0.00000 0.1494 0.7714
tower_s1
0 10.00000 106.42811 -71.11299 1.00000 -0.00000 0.00000 0.8315 0.4444
0 10.00000 147.11779 -29.26355 1.00000 -0.00000 0.00000 0.1494 0.7714
0 10.00000 125.54052 -24.97156 1.00000 -0.00000 0.00000 0.9808 0.8049
tower_h1
0 16.00000 83.14696 -55.55702 0.97695 0.19720 -0.08168 0.6496 0.5660
0 10.00000 106.42811 -71.11299 0.97695 0.19720 -0.08168 0.8315 0.4444
0 10.00000 125.54052 -24.97156 0.97695 0.19720 -0.08168 0.9808 0.8049
tower_h1
0 16.00000 83.14696 -55.55702 0.97695 0.19720 -0.08168 0.6496 0.5660
0 10.00000 125.54052 -24.97156 0.97695 0.19720 -0.08168 0.9808 0.8049
0 16.00000 98.07853 -19.50903 0.97695 0.19720 -0.08168 0.7662 0.8476
tower_s1
0 -10.00000 147.11779 -29.26355 0.00000 0.92388 -0.38268 0.1494 0.7714
0 10.00000 147.11779 -29.26355 0.00000 0.92388 -0.38268 0.1494 0.7714
0 10.00000 124.72044 -83.33553 0.00000 0.92388 -0.38268 0.9744 0.3489
tower_s1
0 -10.00000 147.11779 -29.26355 0.00000 0.92388 -0.38268 0.1494 0.7714
0 10.00000 124.72044 -83.33553 0.00000 0.92388 -0.38268 0.9744 0.3489
0 -10.00000 124.72044 -83.33553 0.00000 0.92388 -0.38268 0.9744 0.3489
tower_lip
0 -16.00000 83.14696 -55.55702 0.00000 -0.92388 0.38268 0.6496 0.5660
0 16.00000 83.14696 -55.55702 0.00000 -0.92388 0.38268 0.6496 0.5660
0 16.00000 98.07853 -19.50903 0.00000 -0.92388 0.38268 0.7662 0.8476
tower_lip
0 -16.00000 83.14696 -55.55702 0.00000 -0.92388 0.38268 0.6496 0.5660
0 16.00000 98.07853 -19.50903 0.00000 -0.92388 0.38268 0.7662 0.8476
0 -16.00000 98.07853 -19.50903 0.00000 -0.92388 0.38268 0.7662 0.8476
tower_s2
0 -10.00000 125.54052 24.97156 -1.00000 0.00000 0.00000 0.9808 0.1951
0 -10.00000 147.11779 29.26355 -1.00000 0.00000 0.00000 0.1494 0.2286
0 -10.00000 147.11779 -29.26355 -1.00000 0.00000 0.00000 0.1494 0.7714
tower_s2
0 -10.00000 125.54052 24.97156 -1.00000 0.00000 0.00000 0.9808 0.1951
0 -10.00000 147.11779 -29.26355 -1.00000 0.00000 0.00000 0.1494 0.7714
0 -10.00000 125.54052 -24.97156 -1.00000 0.00000 0.00000 0.9808 0.8049
tower_h2
0 -16.00000 98.07853 19.50903 -0.97695 0.21345 -0.00000 0.7662 0.1524
0 -10.00000 125.54052 24.97156 -0.97695 0.21345 -0.00000 0.9808 0.1951
0 -10.00000 125.54052 -24.97156 -0.97695 0.21345 -0.00000 0.9808 0.8049
tower_h2
0 -16.00000 98.07853 19.50903 -0.97695 0.21345 -0.00000 0.7662 0.1524
0 -10.00000 125.54052 -24.97156 -0.97695 0.21345 -0.00000 0.9808 0.8049
0 -16.00000 98.07853 -19.50903 -0.97695 0.21345 -0.00000 0.7662 0.8476
tower_s2
0 10.00000 125.54052 -24.97156 1.00000 -0.00000 0.00000 0.9808 0.8049
0 10.00000 147.11779 -29.26355 1.00000 -0.00000 0.00000 0.1494 0.7714
0 10.00000 147.11779 29.26355 1.00000 -0.00000 0.00000 0.1494 0.2286
tower_s2
0 10.00000 125.54052 -24.97156 1.00000 -0.00000 0.00000 0.9808 0.8049
0 10.00000 147.11779 29.26355 1.00000 -0.00000 0.00000 0.1494 0.2286
0 10.00000 125.54052 24.97156 1.00000 -0.00000 0.00000 0.9808 0.1951
tower_h2
0 16.00000 98.07853 -19.50903 0.97695 0.21345 -0.00000 0.7662 0.8476
0 10.00000 125.54052 -24.97156 0.97695 0.21345 -0.00000 0.9808 0.8049
0 10.00000 125.54052 24.97156 0.97695 0.21345 -0.00000 0.9808 0.1951
tower_h2
0 16.00000 98.07853 -19.50903 0.97695 0.21345 -0.00000 0.7662 0.8476
0 10.00000 125.54052 24.97156 0.97695 0.21345 -0.00000 0.9808 0.1951
0 16.00000 98.07853 19.50903 0.97695 0.21345 -0.00000 0.7662 0.1524
tower_s2
0 -10.00000 147.11779 29.26355 -0.00000 1.00000 0.00000 0.1494 0.2286
0 10.00000 147.11779 29.26355 -0.00000 1.00000 0.00000 0.1494 0.2286
0 10.00000 147.11779 -29.26355 -0.00000 1.00000 0.00000 0.1494 0.7714
tower_s2
0 -10.00000 147.11779 29.26355 -0.00000 1.00000 0.00000 0.1494 0.2286
0 10.00000 147.11779 -29.26355 -0.00000 1.00000 0.00000 0.1494 0.7714
0 -10.00000 147.11779 -29.26355 -0.00000 1.00000 0.00000 0.1494 0.7714
tower_lip
0 -16.00000 98.07853 -19.50903 0.00000 -1.00000 0.00000 0.7662 0.8476
0 16.00000 98.07853 -19.50903 0.00000 -1.00000 0.00000 0.7662 0.8476
0 16.00000 98.07853 19.50903 0.00000 -1.00000 0.00000 0.7662 0.1524
tower_lip
0 -16.00000 98.07853 -19.50903 0.00000 -1.00000 0.00000 0.7662 0.8476
0 16.00000 98.07853 19.50903 0.00000 -1.00000 0.00000 0.7662 0.1524
0 -16.00000 98.07853 19.50903 0.00000 -1.00000 0.00000 0.7662 0.1524
end
