version 1
nodes
0 "root" -1
end
skeleton
time 0
0 0 0 0 0 0 0
end
triangles
tube_rail2
0 -42.00000 32.68402 33.78402 -1.00000 0.00000 0.00000 0.2553 0.2639
0 -42.00000 33.78402 33.78402 -1.00000 0.00000 0.00000 0.2639 0.2639
0 -42.00000 33.78402 32.68402 -1.00000 0.00000 0.00000 0.2639 0.2553
tube_rail2
0 -42.00000 32.68402 33.78402 -1.00000 0.00000 0.00000 0.2553 0.2639
0 -42.00000 33.78402 32.68402 -1.00000 0.00000 0.00000 0.2639 0.2553
0 -42.00000 32.68402 32.68402 -1.00000 0.00000 0.00000 0.2553 0.2553
tube_rail2
0 42.00000 32.68402 32.68402 1.00000 0.00000 0.00000 0.2553 0.2553
0 42.00000 33.78402 32.68402 1.00000 0.00000 0.00000 0.2639 0.2553
0 42.00000 33.78402 33.78402 1.00000 0.00000 0.00000 0.2639 0.2639
tube_rail2
0 42.00000 32.68402 32.68402 1.00000 0.00000 0.00000 0.2553 0.2553
0 42.00000 33.78402 33.78402 1.00000 0.00000 0.00000 0.2639 0.2639
0 42.00000 32.68402 33.78402 1.00000 0.00000 0.00000 0.2553 0.2639
tube_rail2
0 -42.00000 32.68402 32.68402 0.00000 -1.00000 0.00000 0.2553 0.2553
0 42.00000 32.68402 32.68402 0.00000 -1.00000 0.00000 0.2553 0.2553
0 42.00000 32.68402 33.78402 0.00000 -1.00000 0.00000 0.2553 0.2639
tube_rail2
0 -42.00000 32.68402 32.68402 0.00000 -1.00000 0.00000 0.2553 0.2553
0 42.00000 32.68402 33.78402 0.00000 -1.00000 0.00000 0.2553 0.2639
0 -42.00000 32.68402 33.78402 0.00000 -1.00000 0.00000 0.2553 0.2639
tube_rail2
0 -42.00000 33.78402 33.78402 -0.00000 1.00000 0.00000 0.2639 0.2639
0 42.00000 33.78402 33.78402 -0.00000 1.00000 0.00000 0.2639 0.2639
0 42.00000 33.78402 32.68402 -0.00000 1.00000 0.00000 0.2639 0.2553
tube_rail2
0 -42.00000 33.78402 33.78402 -0.00000 1.00000 0.00000 0.2639 0.2639
0 42.00000 33.78402 32.68402 -0.00000 1.00000 0.00000 0.2639 0.2553
0 -42.00000 33.78402 32.68402 -0.00000 1.00000 0.00000 0.2639 0.2553
tube_rail2
0 -42.00000 33.78402 32.68402 0.00000 0.00000 -1.00000 0.2639 0.2553
0 42.00000 33.78402 32.68402 0.00000 0.00000 -1.00000 0.2639 0.2553
0 42.00000 32.68402 32.68402 0.00000 0.00000 -1.00000 0.2553 0.2553
tube_rail2
0 -42.00000 33.78402 32.68402 0.00000 0.00000 -1.00000 0.2639 0.2553
0 42.00000 32.68402 32.68402 0.00000 0.00000 -1.00000 0.2553 0.2553
0 -42.00000 32.68402 32.68402 0.00000 0.00000 -1.00000 0.2553 0.2553
tube_rail2
0 -42.00000 32.68402 33.78402 0.00000 0.00000 1.00000 0.2553 0.2639
0 42.00000 32.68402 33.78402 0.00000 0.00000 1.00000 0.2553 0.2639
0 42.00000 33.78402 33.78402 0.00000 0.00000 1.00000 0.2639 0.2639
tube_rail2
0 -42.00000 32.68402 33.78402 0.00000 0.00000 1.00000 0.2553 0.2639
0 42.00000 33.78402 33.78402 0.00000 0.00000 1.00000 0.2639 0.2639
0 -42.00000 33.78402 33.78402 0.00000 0.00000 1.00000 0.2639 0.2639
tube_rail2
0 -42.00000 -33.78402 33.78402 -1.00000 0.00000 0.00000 0.7361 0.2639
0 -42.00000 -32.68402 33.78402 -1.00000 0.00000 0.00000 0.7447 0.2639
0 -42.00000 -32.68402 32.68402 -1.00000 0.00000 0.00000 0.7447 0.2553
tube_rail2
0 -42.00000 -33.78402 33.78402 -1.00000 0.00000 0.00000 0.7361 0.2639
0 -42.00000 -32.68402 32.68402 -1.00000 0.00000 0.00000 0.7447 0.2553
0 -42.00000 -33.78402 32.68402 -1.00000 0.00000 0.00000 0.7361 0.2553
tube_rail2
0 42.00000 -33.78402 32.68402 1.00000 0.00000 0.00000 0.7361 0.2553
0 42.00000 -32.68402 32.68402 1.00000 0.00000 0.00000 0.7447 0.2553
0 42.00000 -32.68402 33.78402 1.00000 0.00000 0.00000 0.7447 0.2639
tube_rail2
0 42.00000 -33.78402 32.68402 1.00000 0.00000 0.00000 0.7361 0.2553
0 42.00000 -32.68402 33.78402 1.00000 0.00000 0.00000 0.7447 0.2639
0 42.00000 -33.78402 33.78402 1.00000 0.00000 0.00000 0.7361 0.2639
tube_rail2
0 -42.00000 -33.78402 32.68402 0.00000 -1.00000 0.00000 0.7361 0.2553
0 42.00000 -33.78402 32.68402 0.00000 -1.00000 0.00000 0.7361 0.2553
0 42.00000 -33.78402 33.78402 0.00000 -1.00000 0.00000 0.7361 0.2639
tube_rail2
0 -42.00000 -33.78402 32.68402 0.00000 -1.00000 0.00000 0.7361 0.2553
0 42.00000 -33.78402 33.78402 0.00000 -1.00000 0.00000 0.7361 0.2639
0 -42.00000 -33.78402 33.78402 0.00000 -1.00000 0.00000 0.7361 0.2639
tube_rail2
0 -42.00000 -32.68402 33.78402 -0.00000 1.00000 0.00000 0.7447 0.2639
0 42.00000 -32.68402 33.78402 -0.00000 1.00000 0.00000 0.7447 0.2639
0 42.00000 -32.68402 32.68402 -0.00000 1.00000 0.00000 0.7447 0.2553
tube_rail2
0 -42.00000 -32.68402 33.78402 -0.00000 1.00000 0.00000 0.7447 0.2639
0 42.00000 -32.68402 32.68402 -0.00000 1.00000 0.00000 0.7447 0.2553
0 -42.00000 -32.68402 32.68402 -0.00000 1.00000 0.00000 0.7447 0.2553
tube_rail2
0 -42.00000 -32.68402 32.68402 0.00000 0.00000 -1.00000 0.7447 0.2553
0 42.00000 -32.68402 32.68402 0.00000 0.00000 -1.00000 0.7447 0.2553
0 42.00000 -33.78402 32.68402 0.00000 0.00000 -1.00000 0.7361 0.2553
tube_rail2
0 -42.00000 -32.68402 32.68402 0.00000 0.00000 -1.00000 0.7447 0.2553
0 42.00000 -33.78402 32.68402 0.00000 0.00000 -1.00000 0.7361 0.2553
0 -42.00000 -33.78402 32.68402 0.00000 0.00000 -1.00000 0.7361 0.2553
tube_rail2
0 -42.00000 -33.78402 33.78402 0.00000 0.00000 1.00000 0.7361 0.2639
0 42.00000 -33.78402 33.78402 0.00000 0.00000 1.00000 0.7361 0.2639
0 42.00000 -32.68402 33.78402 0.00000 0.00000 1.00000 0.7447 0.2639
tube_rail2
0 -42.00000 -33.78402 33.78402 0.00000 0.00000 1.00000 0.7361 0.2639
0 42.00000 -32.68402 33.78402 0.00000 0.00000 1.00000 0.7447 0.2639
0 -42.00000 -32.68402 33.78402 0.00000 0.00000 1.00000 0.7447 0.2639
tube_rail2
0 -42.00000 -33.78402 -32.68402 -1.00000 0.00000 0.00000 0.7361 0.7447
0 -42.00000 -32.68402 -32.68402 -1.00000 0.00000 0.00000 0.7447 0.7447
0 -42.00000 -32.68402 -33.78402 -1.00000 0.00000 0.00000 0.7447 0.7361
tube_rail2
0 -42.00000 -33.78402 -32.68402 -1.00000 0.00000 0.00000 0.7361 0.7447
0 -42.00000 -32.68402 -33.78402 -1.00000 0.00000 0.00000 0.7447 0.7361
0 -42.00000 -33.78402 -33.78402 -1.00000 0.00000 0.00000 0.7361 0.7361
tube_rail2
0 42.00000 -33.78402 -33.78402 1.00000 0.00000 0.00000 0.7361 0.7361
0 42.00000 -32.68402 -33.78402 1.00000 0.00000 0.00000 0.7447 0.7361
0 42.00000 -32.68402 -32.68402 1.00000 0.00000 0.00000 0.7447 0.7447
tube_rail2
0 42.00000 -33.78402 -33.78402 1.00000 0.00000 0.00000 0.7361 0.7361
0 42.00000 -32.68402 -32.68402 1.00000 0.00000 0.00000 0.7447 0.7447
0 42.00000 -33.78402 -32.68402 1.00000 0.00000 0.00000 0.7361 0.7447
tube_rail2
0 -42.00000 -33.78402 -33.78402 0.00000 -1.00000 0.00000 0.7361 0.7361
0 42.00000 -33.78402 -33.78402 0.00000 -1.00000 0.00000 0.7361 0.7361
0 42.00000 -33.78402 -32.68402 0.00000 -1.00000 0.00000 0.7361 0.7447
tube_rail2
0 -42.00000 -33.78402 -33.78402 0.00000 -1.00000 0.00000 0.7361 0.7361
0 42.00000 -33.78402 -32.68402 0.00000 -1.00000 0.00000 0.7361 0.7447
0 -42.00000 -33.78402 -32.68402 0.00000 -1.00000 0.00000 0.7361 0.7447
tube_rail2
0 -42.00000 -32.68402 -32.68402 -0.00000 1.00000 0.00000 0.7447 0.7447
0 42.00000 -32.68402 -32.68402 -0.00000 1.00000 0.00000 0.7447 0.7447
0 42.00000 -32.68402 -33.78402 -0.00000 1.00000 0.00000 0.7447 0.7361
tube_rail2
0 -42.00000 -32.68402 -32.68402 -0.00000 1.00000 0.00000 0.7447 0.7447
0 42.00000 -32.68402 -33.78402 -0.00000 1.00000 0.00000 0.7447 0.7361
0 -42.00000 -32.68402 -33.78402 -0.00000 1.00000 0.00000 0.7447 0.7361
tube_rail2
0 -42.00000 -32.68402 -33.78402 0.00000 0.00000 -1.00000 0.7447 0.7361
0 42.00000 -32.68402 -33.78402 0.00000 0.00000 -1.00000 0.7447 0.7361
0 42.00000 -33.78402 -33.78402 0.00000 0.00000 -1.00000 0.7361 0.7361
tube_rail2
0 -42.00000 -32.68402 -33.78402 0.00000 0.00000 -1.00000 0.7447 0.7361
0 42.00000 -33.78402 -33.78402 0.00000 0.00000 -1.00000 0.7361 0.7361
0 -42.00000 -33.78402 -33.78402 0.00000 0.00000 -1.00000 0.7361 0.7361
tube_rail2
0 -42.00000 -33.78402 -32.68402 0.00000 0.00000 1.00000 0.7361 0.7447
0 42.00000 -33.78402 -32.68402 0.00000 0.00000 1.00000 0.7361 0.7447
0 42.00000 -32.68402 -32.68402 0.00000 0.00000 1.00000 0.7447 0.7447
tube_rail2
0 -42.00000 -33.78402 -32.68402 0.00000 0.00000 1.00000 0.7361 0.7447
0 42.00000 -32.68402 -32.68402 0.00000 0.00000 1.00000 0.7447 0.7447
0 -42.00000 -32.68402 -32.68402 0.00000 0.00000 1.00000 0.7447 0.7447
tube_rail2
0 -42.00000 32.68402 -32.68402 -1.00000 0.00000 0.00000 0.2553 0.7447
0 -42.00000 33.78402 -32.68402 -1.00000 0.00000 0.00000 0.2639 0.7447
0 -42.00000 33.78402 -33.78402 -1.00000 0.00000 0.00000 0.2639 0.7361
tube_rail2
0 -42.00000 32.68402 -32.68402 -1.00000 0.00000 0.00000 0.2553 0.7447
0 -42.00000 33.78402 -33.78402 -1.00000 0.00000 0.00000 0.2639 0.7361
0 -42.00000 32.68402 -33.78402 -1.00000 0.00000 0.00000 0.2553 0.7361
tube_rail2
0 42.00000 32.68402 -33.78402 1.00000 0.00000 0.00000 0.2553 0.7361
0 42.00000 33.78402 -33.78402 1.00000 0.00000 0.00000 0.2639 0.7361
0 42.00000 33.78402 -32.68402 1.00000 0.00000 0.00000 0.2639 0.7447
tube_rail2
0 42.00000 32.68402 -33.78402 1.00000 0.00000 0.00000 0.2553 0.7361
0 42.00000 33.78402 -32.68402 1.00000 0.00000 0.00000 0.2639 0.7447
0 42.00000 32.68402 -32.68402 1.00000 0.00000 0.00000 0.2553 0.7447
tube_rail2
0 -42.00000 32.68402 -33.78402 0.00000 -1.00000 0.00000 0.2553 0.7361
0 42.00000 32.68402 -33.78402 0.00000 -1.00000 0.00000 0.2553 0.7361
0 42.00000 32.68402 -32.68402 0.00000 -1.00000 0.00000 0.2553 0.7447
tube_rail2
0 -42.00000 32.68402 -33.78402 0.00000 -1.00000 0.00000 0.2553 0.7361
0 42.00000 32.68402 -32.68402 0.00000 -1.00000 0.00000 0.2553 0.7447
0 -42.00000 32.68402 -32.68402 0.00000 -1.00000 0.00000 0.2553 0.7447
tube_rail2
0 -42.00000 33.78402 -32.68402 -0.00000 1.00000 0.00000 0.2639 0.7447
0 42.00000 33.78402 -32.68402 -0.00000 1.00000 0.00000 0.2639 0.7447
0 42.00000 33.78402 -33.78402 -0.00000 1.00000 0.00000 0.2639 0.7361
tube_rail2
0 -42.00000 33.78402 -32.68402 -0.00000 1.00000 0.00000 0.2639 0.7447
0 42.00000 33.78402 -33.78402 -0.00000 1.00000 0.00000 0.2639 0.7361
0 -42.00000 33.78402 -33.78402 -0.00000 1.00000 0.00000 0.2639 0.7361
tube_rail2
0 -42.00000 33.78402 -33.78402 0.00000 0.00000 -1.00000 0.2639 0.7361
0 42.00000 33.78402 -33.78402 0.00000 0.00000 -1.00000 0.2639 0.7361
0 42.00000 32.68402 -33.78402 0.00000 0.00000 -1.00000 0.2553 0.7361
tube_rail2
0 -42.00000 33.78402 -33.78402 0.00000 0.00000 -1.00000 0.2639 0.7361
0 42.00000 32.68402 -33.78402 0.00000 0.00000 -1.00000 0.2553 0.7361
0 -42.00000 32.68402 -33.78402 0.00000 0.00000 -1.00000 0.2553 0.7361
tube_rail2
0 -42.00000 32.68402 -32.68402 0.00000 0.00000 1.00000 0.2553 0.7447
0 42.00000 32.68402 -32.68402 0.00000 0.00000 1.00000 0.2553 0.7447
0 42.00000 33.78402 -32.68402 0.00000 0.00000 1.00000 0.2639 0.7447
tube_rail2
0 -42.00000 32.68402 -32.68402 0.00000 0.00000 1.00000 0.2553 0.7447
0 42.00000 33.78402 -32.68402 0.00000 0.00000 1.00000 0.2639 0.7447
0 -42.00000 33.78402 -32.68402 0.00000 0.00000 1.00000 0.2639 0.7447
end
