version 1
nodes
0 "root" -1
end
skeleton
time 0
0 0 0 0 0 0 0
end
triangles
transfer_yellow
0 -40.00000 0.00000 0.00000 0.21161 -0.97546 -0.06089 0.0000 0.0000
0 5.34923 9.97616 -2.21895 0.21161 -0.97546 -0.06089 0.0779 0.9827
0 5.42990 9.85514 0.00000 0.21161 -0.97546 -0.06089 0.0770 0.0000
transfer_yellow
0 -40.00000 0.00000 0.00000 0.20279 -0.96223 -0.18163 0.0000 0.0000
0 5.10859 10.33712 -4.39992 0.20279 -0.96223 -0.18163 0.0808 0.9656
0 5.34923 9.97616 -2.21895 0.20279 -0.96223 -0.18163 0.0779 0.9827
transfer_yellow
0 -40.00000 0.00000 0.00000 0.18531 -0.93600 -0.29926 0.0000 0.0000
0 4.71209 10.93186 -6.50562 0.18531 -0.93600 -0.29926 0.0854 0.9492
0 5.10859 10.33712 -4.39992 0.18531 -0.93600 -0.29926 0.0808 0.9656
transfer_yellow
0 -40.00000 0.00000 0.00000 0.15945 -0.89723 -0.41177 0.0000 0.0000
0 4.16654 11.75020 -8.50000 0.15945 -0.89723 -0.41177 0.0918 0.9336
0 4.71209 10.93186 -6.50562 0.15945 -0.89723 -0.41177 0.0854 0.9492
transfer_yellow
0 -40.00000 0.00000 0.00000 0.12568 -0.84656 -0.51724 0.0000 0.0000
0 3.48125 12.77813 -10.34894 0.12568 -0.84656 -0.51724 0.0998 0.9191
0 4.16654 11.75020 -8.50000 0.12568 -0.84656 -0.51724 0.0918 0.9336
transfer_yellow
0 -40.00000 0.00000 0.00000 0.08456 -0.78488 -0.61385 0.0000 0.0000
0 2.66795 13.99808 -12.02082 0.08456 -0.78488 -0.61385 0.1094 0.9061
0 3.48125 12.77813 -10.34894 0.08456 -0.78488 -0.61385 0.0998 0.9191
transfer_yellow
0 -40.00000 0.00000 0.00000 0.03679 -0.71323 -0.69996 0.0000 0.0000
0 1.74056 15.38916 -13.48701 0.03679 -0.71323 -0.69996 0.1202 0.8946
0 2.66795 13.99808 -12.02082 0.03679 -0.71323 -0.69996 0.1094 0.9061
transfer_yellow
0 -40.00000 0.00000 0.00000 -0.01680 -0.63284 -0.77410 0.0000 0.0000
0 0.71495 16.92757 -14.72243 -0.01680 -0.63284 -0.77410 0.1322 0.8850
0 1.74056 15.38916 -13.48701 -0.01680 -0.63284 -0.77410 0.1202 0.8946
transfer_yellow
0 -40.00000 0.00000 0.00000 -0.07530 -0.54509 -0.83499 0.0000 0.0000
0 -0.39133 18.58700 -15.70595 -0.07530 -0.54509 -0.83499 0.1452 0.8773
0 0.71495 16.92757 -14.72243 -0.07530 -0.54509 -0.83499 0.1322 0.8850
transfer_yellow
0 -40.00000 0.00000 0.00000 -0.13771 -0.45148 -0.88159 0.0000 0.0000
0 -1.55936 20.33904 -16.42074 -0.13771 -0.45148 -0.88159 0.1589 0.8717
0 -0.39133 18.58700 -15.70595 -0.13771 -0.45148 -0.88159 0.1452 0.8773
transfer_yellow
0 -40.00000 0.00000 0.00000 -0.20296 -0.35360 -0.91311 0.0000 0.0000
0 -2.76915 22.15373 -16.85456 -0.20296 -0.35360 -0.91311 0.1731 0.8683
0 -1.55936 20.33904 -16.42074 -0.20296 -0.35360 -0.91311 0.1589 0.8717
transfer_yellow
0 -40.00000 0.00000 0.00000 -0.26994 -0.25314 -0.92901 0.0000 0.0000
0 -4.00000 24.00000 -17.00000 -0.26994 -0.25314 -0.92901 0.1875 0.8672
0 -2.76915 22.15373 -16.85456 -0.26994 -0.25314 -0.92901 0.1731 0.8683
transfer_yellow
0 -40.00000 0.00000 0.00000 -0.33749 -0.15181 -0.92901 0.0000 0.0000
0 -5.23085 25.84627 -16.85456 -0.33749 -0.15181 -0.92901 0.2019 0.8683
0 -4.00000 24.00000 -17.00000 -0.33749 -0.15181 -0.92901 0.1875 0.8672
transfer_yellow
0 -40.00000 0.00000 0.00000 -0.40446 -0.05135 -0.91311 0.0000 0.0000
0 -6.44064 27.66096 -16.42074 -0.40446 -0.05135 -0.91311 0.2161 0.8717
0 -5.23085 25.84627 -16.85456 -0.40446 -0.05135 -0.91311 0.2019 0.8683
transfer_yellow
0 -40.00000 0.00000 0.00000 -0.46971 0.04652 -0.88159 0.0000 0.0000
0 -7.60867 29.41300 -15.70595 -0.46971 0.04652 -0.88159 0.2298 0.8773
0 -6.44064 27.66096 -16.42074 -0.46971 0.04652 -0.88159 0.2161 0.8717
transfer_yellow
0 -40.00000 0.00000 0.00000 -0.53212 0.14014 -0.83499 0.0000 0.0000
0 -8.71495 31.07243 -14.72243 -0.53212 0.14014 -0.83499 0.2428 0.8850
0 -7.60867 29.41300 -15.70595 -0.53212 0.14014 -0.83499 0.2298 0.8773
transfer_yellow
0 -40.00000 0.00000 0.00000 -0.59062 0.22789 -0.77410 0.0000 0.0000
0 -9.74056 32.61084 -13.48701 -0.59062 0.22789 -0.77410 0.2548 0.8946
0 -8.71495 31.07243 -14.72243 -0.59062 0.22789 -0.77410 0.2428 0.8850
transfer_yellow
0 -40.00000 0.00000 0.00000 -0.64422 0.30828 -0.69996 0.0000 0.0000
0 -10.66795 34.00192 -12.02082 -0.64422 0.30828 -0.69996 0.2656 0.9061
0 -9.74056 32.61084 -13.48701 -0.64422 0.30828 -0.69996 0.2548 0.8946
transfer_yellow
0 -40.00000 0.00000 0.00000 -0.69198 0.37993 -0.61385 0.0000 0.0000
0 -11.48125 35.22187 -10.34894 -0.69198 0.37993 -0.61385 0.2752 0.9191
0 -10.66795 34.00192 -12.02082 -0.69198 0.37993 -0.61385 0.2656 0.9061
transfer_yellow
0 -40.00000 0.00000 0.00000 -0.73311 0.44161 -0.51724 0.0000 0.0000
0 -12.16654 36.24980 -8.50000 -0.73311 0.44161 -0.51724 0.2832 0.9336
0 -11.48125 35.22187 -10.34894 -0.73311 0.44161 -0.51724 0.2752 0.9191
transfer_yellow
0 -40.00000 0.00000 0.00000 -0.76688 0.49228 -0.41177 0.0000 0.0000
0 -12.71209 37.06814 -6.50562 -0.76688 0.49228 -0.41177 0.2896 0.9492
0 -12.16654 36.24980 -8.50000 -0.76688 0.49228 -0.41177 0.2832 0.9336
transfer_yellow
0 -40.00000 0.00000 0.00000 -0.79273 0.53105 -0.29926 0.0000 0.0000
0 -13.10859 37.66288 -4.39992 -0.79273 0.53105 -0.29926 0.2942 0.9656
0 -12.71209 37.06814 -6.50562 -0.79273 0.53105 -0.29926 0.2896 0.9492
transfer_yellow
0 -40.00000 0.00000 0.00000 -0.81022 0.55728 -0.18163 0.0000 0.0000
0 -13.34923 38.02384 -2.21895 -0.81022 0.55728 -0.18163 0.2971 0.9827
0 -13.10859 37.66288 -4.39992 -0.81022 0.55728 -0.18163 0.2942 0.9656
transfer_yellow
0 -40.00000 0.00000 0.00000 -0.81903 0.57050 -0.06089 0.0000 0.0000
0 -13.42990 38.14486 -0.00000 -0.81903 0.57050 -0.06089 0.2980 1.0000
0 -13.34923 38.02384 -2.21895 -0.81903 0.57050 -0.06089 0.2971 0.9827
transfer_yellow
0 -40.00000 0.00000 0.00000 -0.81903 0.57050 0.06089 0.0000 0.0000
0 -13.34923 38.02384 2.21895 -0.81903 0.57050 0.06089 0.2971 0.0173
0 -13.42990 38.14486 -0.00000 -0.81903 0.57050 0.06089 0.2980 1.0000
transfer_yellow
0 -40.00000 0.00000 0.00000 -0.81022 0.55728 0.18163 0.0000 0.0000
0 -13.10859 37.66288 4.39992 -0.81022 0.55728 0.18163 0.2942 0.0344
0 -13.34923 38.02384 2.21895 -0.81022 0.55728 0.18163 0.2971 0.0173
transfer_yellow
0 -40.00000 0.00000 0.00000 -0.79273 0.53105 0.29926 0.0000 0.0000
0 -12.71209 37.06814 6.50562 -0.79273 0.53105 0.29926 0.2896 0.0508
0 -13.10859 37.66288 4.39992 -0.79273 0.53105 0.29926 0.2942 0.0344
transfer_yellow
0 -40.00000 0.00000 0.00000 -0.76688 0.49228 0.41177 0.0000 0.0000
0 -12.16654 36.24980 8.50000 -0.76688 0.49228 0.41177 0.2832 0.0664
0 -12.71209 37.06814 6.50562 -0.76688 0.49228 0.41177 0.2896 0.0508
transfer_yellow
0 -40.00000 0.00000 0.00000 -0.73311 0.44161 0.51724 0.0000 0.0000
0 -11.48125 35.22187 10.34894 -0.73311 0.44161 0.51724 0.2752 0.0809
0 -12.16654 36.24980 8.50000 -0.73311 0.44161 0.51724 0.2832 0.0664
transfer_yellow
0 -40.00000 0.00000 0.00000 -0.69198 0.37993 0.61385 0.0000 0.0000
0 -10.66795 34.00192 12.02082 -0.69198 0.37993 0.61385 0.2656 0.0939
0 -11.48125 35.22187 10.34894 -0.69198 0.37993 0.61385 0.2752 0.0809
transfer_yellow
0 -40.00000 0.00000 0.00000 -0.64422 0.30828 0.69996 0.0000 0.0000
0 -9.74056 32.61084 13.48701 -0.64422 0.30828 0.69996 0.2548 0.1054
0 -10.66795 34.00192 12.02082 -0.64422 0.30828 0.69996 0.2656 0.0939
transfer_yellow
0 -40.00000 0.00000 0.00000 -0.59062 0.22789 0.77410 0.0000 0.0000
0 -8.71495 31.07243 14.72243 -0.59062 0.22789 0.77410 0.2428 0.1150
0 -9.74056 32.61084 13.48701 -0.59062 0.22789 0.77410 0.2548 0.1054
transfer_yellow
0 -40.00000 0.00000 0.00000 -0.53212 0.14014 0.83499 0.0000 0.0000
0 -7.60867 29.41300 15.70595 -0.53212 0.14014 0.83499 0.2298 0.1227
0 -8.71495 31.07243 14.72243 -0.53212 0.14014 0.83499 0.2428 0.1150
transfer_yellow
0 -40.00000 0.00000 0.00000 -0.46971 0.04652 0.88159 0.0000 0.0000
0 -6.44064 27.66096 16.42074 -0.46971 0.04652 0.88159 0.2161 0.1283
0 -7.60867 29.41300 15.70595 -0.46971 0.04652 0.88159 0.2298 0.1227
transfer_yellow
0 -40.00000 0.00000 0.00000 -0.40446 -0.05135 0.91311 0.0000 0.0000
0 -5.23085 25.84627 16.85456 -0.40446 -0.05135 0.91311 0.2019 0.1317
0 -6.44064 27.66096 16.42074 -0.40446 -0.05135 0.91311 0.2161 0.1283
transfer_yellow
0 -40.00000 0.00000 0.00000 -0.33749 -0.15181 0.92901 0.0000 0.0000
0 -4.00000 24.00000 17.00000 -0.33749 -0.15181 0.92901 0.1875 0.1328
0 -5.23085 25.84627 16.85456 -0.33749 -0.15181 0.92901 0.2019 0.1317
transfer_yellow
0 -40.00000 0.00000 0.00000 -0.26994 -0.25314 0.92901 0.0000 0.0000
0 -2.76915 22.15373 16.85456 -0.26994 -0.25314 0.92901 0.1731 0.1317
0 -4.00000 24.00000 17.00000 -0.26994 -0.25314 0.92901 0.1875 0.1328
transfer_yellow
0 -40.00000 0.00000 0.00000 -0.20296 -0.35360 0.91311 0.0000 0.0000
0 -1.55936 20.33904 16.42074 -0.20296 -0.35360 0.91311 0.1589 0.1283
0 -2.76915 22.15373 16.85456 -0.20296 -0.35360 0.91311 0.1731 0.1317
transfer_yellow
0 -40.00000 0.00000 0.00000 -0.13771 -0.45148 0.88159 0.0000 0.0000
0 -0.39133 18.58700 15.70595 -0.13771 -0.45148 0.88159 0.1452 0.1227
0 -1.55936 20.33904 16.42074 -0.13771 -0.45148 0.88159 0.1589 0.1283
transfer_yellow
0 -40.00000 0.00000 0.00000 -0.07530 -0.54509 0.83499 0.0000 0.0000
0 0.71495 16.92757 14.72243 -0.07530 -0.54509 0.83499 0.1322 0.1150
0 -0.39133 18.58700 15.70595 -0.07530 -0.54509 0.83499 0.1452 0.1227
transfer_yellow
0 -40.00000 0.00000 0.00000 -0.01680 -0.63284 0.77410 0.0000 0.0000
0 1.74056 15.38916 13.48701 -0.01680 -0.63284 0.77410 0.1202 0.1054
0 0.71495 16.92757 14.72243 -0.01680 -0.63284 0.77410 0.1322 0.1150
transfer_yellow
0 -40.00000 0.00000 0.00000 0.03679 -0.71323 0.69996 0.0000 0.0000
0 2.66795 13.99808 12.02082 0.03679 -0.71323 0.69996 0.1094 0.0939
0 1.74056 15.38916 13.48701 0.03679 -0.71323 0.69996 0.1202 0.1054
transfer_yellow
0 -40.00000 0.00000 0.00000 0.08456 -0.78488 0.61385 0.0000 0.0000
0 3.48125 12.77813 10.34894 0.08456 -0.78488 0.61385 0.0998 0.0809
0 2.66795 13.99808 12.02082 0.08456 -0.78488 0.61385 0.1094 0.0939
transfer_yellow
0 -40.00000 0.00000 0.00000 0.12568 -0.84656 0.51724 0.0000 0.0000
0 4.16654 11.75020 8.50000 0.12568 -0.84656 0.51724 0.0918 0.0664
0 3.48125 12.77813 10.34894 0.12568 -0.84656 0.51724 0.0998 0.0809
transfer_yellow
0 -40.00000 0.00000 0.00000 0.15945 -0.89723 0.41177 0.0000 0.0000
0 4.71209 10.93186 6.50562 0.15945 -0.89723 0.41177 0.0854 0.0508
0 4.16654 11.75020 8.50000 0.15945 -0.89723 0.41177 0.0918 0.0664
transfer_yellow
0 -40.00000 0.00000 0.00000 0.18531 -0.93600 0.29926 0.0000 0.0000
0 5.10859 10.33712 4.39992 0.18531 -0.93600 0.29926 0.0808 0.0344
0 4.71209 10.93186 6.50562 0.18531 -0.93600 0.29926 0.0854 0.0508
transfer_yellow
0 -40.00000 0.00000 0.00000 0.20279 -0.96223 0.18163 0.0000 0.0000
0 5.34923 9.97616 2.21895 0.20279 -0.96223 0.18163 0.0779 0.0173
0 5.10859 10.33712 4.39992 0.20279 -0.96223 0.18163 0.0808 0.0344
transfer_yellow
0 -40.00000 0.00000 0.00000 0.21161 -0.97546 0.06089 0.0000 0.0000
0 5.42990 9.85514 0.00000 0.21161 -0.97546 0.06089 0.0770 0.0000
0 5.34923 9.97616 2.21895 0.21161 -0.97546 0.06089 0.0779 0.0173
transfer_yellow
0 -40.00000 0.00000 0.00000 -0.56974 -0.78935 -0.22875 0.0000 0.0000
0 -8.31863 -28.32672 18.83847 -0.56974 -0.78935 -0.22875 0.7787 0.1472
0 -9.37587 -28.12762 20.78461 -0.56974 -0.78935 -0.22875 0.7803 0.1624
transfer_yellow
0 -40.00000 0.00000 0.00000 -0.50969 -0.79261 -0.33465 0.0000 0.0000
0 -7.18750 -28.24648 16.92562 -0.50969 -0.79261 -0.33465 0.7793 0.1322
0 -8.31863 -28.32672 18.83847 -0.50969 -0.79261 -0.33465 0.7787 0.1472
transfer_yellow
0 -40.00000 0.00000 0.00000 -0.44612 -0.78057 -0.43782 0.0000 0.0000
0 -6.00184 -27.88825 15.07880 -0.44612 -0.78057 -0.43782 0.7821 0.1178
0 -7.18750 -28.24648 16.92562 -0.44612 -0.78057 -0.43782 0.7793 0.1322
transfer_yellow
0 -40.00000 0.00000 0.00000 -0.38010 -0.75345 -0.53650 0.0000 0.0000
0 -4.78191 -27.25817 13.32962 -0.38010 -0.75345 -0.53650 0.7870 0.1041
0 -6.00184 -27.88825 15.07880 -0.38010 -0.75345 -0.53650 0.7821 0.1178
transfer_yellow
0 -40.00000 0.00000 0.00000 -0.31278 -0.71171 -0.62900 0.0000 0.0000
0 -3.54861 -26.36702 11.70799 -0.31278 -0.71171 -0.62900 0.7940 0.0915
0 -4.78191 -27.25817 13.32962 -0.31278 -0.71171 -0.62900 0.7870 0.1041
transfer_yellow
0 -40.00000 0.00000 0.00000 -0.24531 -0.65606 -0.71373 0.0000 0.0000
0 -2.32304 -25.23004 10.24166 -0.24531 -0.65606 -0.71373 0.8029 0.0800
0 -3.54861 -26.36702 11.70799 -0.24531 -0.65606 -0.71373 0.7940 0.0915
transfer_yellow
0 -40.00000 0.00000 0.00000 -0.17883 -0.58744 -0.78926 0.0000 0.0000
0 -1.12615 -23.86669 8.95572 -0.17883 -0.58744 -0.78926 0.8135 0.0700
0 -2.32304 -25.23004 10.24166 -0.17883 -0.58744 -0.78926 0.8029 0.0800
transfer_yellow
0 -40.00000 0.00000 0.00000 -0.11450 -0.50705 -0.85428 0.0000 0.0000
0 0.02156 -22.30031 7.87218 -0.11450 -0.50705 -0.85428 0.8258 0.0615
0 -1.12615 -23.86669 8.95572 -0.11450 -0.50705 -0.85428 0.8135 0.0700
transfer_yellow
0 -40.00000 0.00000 0.00000 -0.05340 -0.41625 -0.90768 0.0000 0.0000
0 1.10046 -20.55768 7.00958 -0.05340 -0.41625 -0.90768 0.8394 0.0548
0 0.02156 -22.30031 7.87218 -0.05340 -0.41625 -0.90768 0.8258 0.0615
transfer_yellow
0 -40.00000 0.00000 0.00000 0.00342 -0.31659 -0.94856 0.0000 0.0000
0 2.09209 -18.66862 6.38267 0.00342 -0.31659 -0.94856 0.8542 0.0499
0 1.10046 -20.55768 7.00958 0.00342 -0.31659 -0.94856 0.8394 0.0548
transfer_yellow
0 -40.00000 0.00000 0.00000 0.05498 -0.20978 -0.97620 0.0000 0.0000
0 2.97948 -16.66547 6.00218 0.05498 -0.20978 -0.97620 0.8698 0.0469
0 2.09209 -18.66862 6.38267 0.05498 -0.20978 -0.97620 0.8542 0.0499
transfer_yellow
0 -40.00000 0.00000 0.00000 0.10041 -0.09765 -0.99014 0.0000 0.0000
0 3.74746 -14.58249 5.87462 0.10041 -0.09765 -0.99014 0.8861 0.0459
0 2.97948 -16.66547 6.00218 0.10041 -0.09765 -0.99014 0.8698 0.0469
transfer_yellow
0 -40.00000 0.00000 0.00000 0.13892 0.01788 -0.99014 0.0000 0.0000
0 4.38287 -12.45532 6.00218 0.13892 0.01788 -0.99014 0.9027 0.0469
0 3.74746 -14.58249 5.87462 0.13892 0.01788 -0.99014 0.8861 0.0459
transfer_yellow
0 -40.00000 0.00000 0.00000 0.16986 0.13483 -0.97620 0.0000 0.0000
0 4.87485 -10.32036 6.38267 0.16986 0.13483 -0.97620 0.9194 0.0499
0 4.38287 -12.45532 6.00218 0.16986 0.13483 -0.97620 0.9027 0.0469
transfer_yellow
0 -40.00000 0.00000 0.00000 0.19269 0.25122 -0.94856 0.0000 0.0000
0 5.21497 -8.21413 7.00958 0.19269 0.25122 -0.94856 0.9358 0.0548
0 4.87485 -10.32036 6.38267 0.19269 0.25122 -0.94856 0.9194 0.0499
transfer_yellow
0 -40.00000 0.00000 0.00000 0.20703 0.36503 -0.90768 0.0000 0.0000
0 5.39743 -6.17269 7.87218 0.20703 0.36503 -0.90768 0.9518 0.0615
0 5.21497 -8.21413 7.00958 0.20703 0.36503 -0.90768 0.9358 0.0548
transfer_yellow
0 -40.00000 0.00000 0.00000 0.21263 0.47434 -0.85428 0.0000 0.0000
0 5.41909 -4.23095 8.95572 0.21263 0.47434 -0.85428 0.9669 0.0700
0 5.39743 -6.17269 7.87218 0.21263 0.47434 -0.85428 0.9518 0.0615
transfer_yellow
0 -40.00000 0.00000 0.00000 0.20940 0.57726 -0.78926 0.0000 0.0000
0 5.27959 -2.42215 10.24166 0.20940 0.57726 -0.78926 0.9811 0.0800
0 5.41909 -4.23095 8.95572 0.20940 0.57726 -0.78926 0.9669 0.0700
transfer_yellow
0 -40.00000 0.00000 0.00000 0.19739 0.67203 -0.71373 0.0000 0.0000
0 4.98132 -0.77722 11.70799 0.19739 0.67203 -0.71373 0.9939 0.0915
0 5.27959 -2.42215 10.24166 0.19739 0.67203 -0.71373 0.9811 0.0800
transfer_yellow
0 -40.00000 0.00000 0.00000 0.17680 0.75704 -0.62900 0.0000 0.0000
0 4.52937 0.67568 13.32962 0.17680 0.75704 -0.62900 0.0053 0.1041
0 4.98132 -0.77722 11.70799 0.17680 0.75704 -0.62900 0.9939 0.0915
transfer_yellow
0 -40.00000 0.00000 0.00000 0.14799 0.83083 -0.53650 0.0000 0.0000
0 3.93148 1.91170 15.07880 0.14799 0.83083 -0.53650 0.0149 0.1178
0 4.52937 0.67568 13.32962 0.14799 0.83083 -0.53650 0.0053 0.1041
transfer_yellow
0 -40.00000 0.00000 0.00000 0.11145 0.89213 -0.43782 0.0000 0.0000
0 3.19788 2.90968 16.92562 0.11145 0.89213 -0.43782 0.0227 0.1322
0 3.93148 1.91170 15.07880 0.11145 0.89213 -0.43782 0.0149 0.1178
transfer_yellow
0 -40.00000 0.00000 0.00000 0.06781 0.93990 -0.33465 0.0000 0.0000
0 2.34113 3.65256 18.83847 0.06781 0.93990 -0.33465 0.0285 0.1472
0 3.19788 2.90968 16.92562 0.06781 0.93990 -0.33465 0.0227 0.1322
transfer_yellow
0 -40.00000 0.00000 0.00000 0.01781 0.97332 -0.22875 0.0000 0.0000
0 1.37587 4.12762 20.78461 0.01781 0.97332 -0.22875 0.0322 0.1624
0 2.34113 3.65256 18.83847 0.01781 0.97332 -0.22875 0.0285 0.1472
transfer_yellow
0 -40.00000 0.00000 0.00000 -0.03769 0.99182 -0.12194 0.0000 0.0000
0 0.31863 4.32672 22.73075 -0.03769 0.99182 -0.12194 0.0338 0.1776
0 1.37587 4.12762 20.78461 -0.03769 0.99182 -0.12194 0.0322 0.1624
transfer_yellow
0 -40.00000 0.00000 0.00000 -0.09774 0.99508 -0.01605 0.0000 0.0000
0 -0.81250 4.24648 24.64360 -0.09774 0.99508 -0.01605 0.0332 0.1925
0 0.31863 4.32672 22.73075 -0.09774 0.99508 -0.01605 0.0338 0.1776
transfer_yellow
0 -40.00000 0.00000 0.00000 -0.16131 0.98305 0.08712 0.0000 0.0000
0 -1.99816 3.88825 26.49041 -0.16131 0.98305 0.08712 0.0304 0.2070
0 -0.81250 4.24648 24.64360 -0.16131 0.98305 0.08712 0.0332 0.1925
transfer_yellow
0 -40.00000 0.00000 0.00000 -0.22732 0.95593 0.18580 0.0000 0.0000
0 -3.21809 3.25817 28.23960 -0.22732 0.95593 0.18580 0.0255 0.2206
0 -1.99816 3.88825 26.49041 -0.22732 0.95593 0.18580 0.0304 0.2070
transfer_yellow
0 -40.00000 0.00000 0.00000 -0.29464 0.91419 0.27830 0.0000 0.0000
0 -4.45139 2.36702 29.86123 -0.29464 0.91419 0.27830 0.0185 0.2333
0 -3.21809 3.25817 28.23960 -0.29464 0.91419 0.27830 0.0255 0.2206
transfer_yellow
0 -40.00000 0.00000 0.00000 -0.36212 0.85853 0.36303 0.0000 0.0000
0 -5.67696 1.23004 31.32756 -0.36212 0.85853 0.36303 0.0096 0.2447
0 -4.45139 2.36702 29.86123 -0.36212 0.85853 0.36303 0.0185 0.2333
transfer_yellow
0 -40.00000 0.00000 0.00000 -0.42859 0.78992 0.43856 0.0000 0.0000
0 -6.87385 -0.13331 32.61350 -0.42859 0.78992 0.43856 0.9990 0.2548
0 -5.67696 1.23004 31.32756 -0.42859 0.78992 0.43856 0.0096 0.2447
transfer_yellow
0 -40.00000 0.00000 0.00000 -0.49293 0.70953 0.50358 0.0000 0.0000
0 -8.02156 -1.69969 33.69704 -0.49293 0.70953 0.50358 0.9867 0.2633
0 -6.87385 -0.13331 32.61350 -0.49293 0.70953 0.50358 0.9990 0.2548
transfer_yellow
0 -40.00000 0.00000 0.00000 -0.55403 0.61872 0.55698 0.0000 0.0000
0 -9.10046 -3.44232 34.55964 -0.55403 0.61872 0.55698 0.9731 0.2700
0 -8.02156 -1.69969 33.69704 -0.55403 0.61872 0.55698 0.9867 0.2633
transfer_yellow
0 -40.00000 0.00000 0.00000 -0.61085 0.51906 0.59786 0.0000 0.0000
0 -10.09209 -5.33138 35.18655 -0.61085 0.51906 0.59786 0.9583 0.2749
0 -9.10046 -3.44232 34.55964 -0.61085 0.51906 0.59786 0.9731 0.2700
transfer_yellow
0 -40.00000 0.00000 0.00000 -0.66241 0.41226 0.62550 0.0000 0.0000
0 -10.97948 -7.33453 35.56704 -0.66241 0.41226 0.62550 0.9427 0.2779
0 -10.09209 -5.33138 35.18655 -0.66241 0.41226 0.62550 0.9583 0.2749
transfer_yellow
0 -40.00000 0.00000 0.00000 -0.70784 0.30013 0.63944 0.0000 0.0000
0 -11.74746 -9.41751 35.69460 -0.70784 0.30013 0.63944 0.9264 0.2789
0 -10.97948 -7.33453 35.56704 -0.70784 0.30013 0.63944 0.9427 0.2779
transfer_yellow
0 -40.00000 0.00000 0.00000 -0.74635 0.18460 0.63944 0.0000 0.0000
0 -12.38287 -11.54468 35.56704 -0.74635 0.18460 0.63944 0.9098 0.2779
0 -11.74746 -9.41751 35.69460 -0.74635 0.18460 0.63944 0.9264 0.2789
transfer_yellow
0 -40.00000 0.00000 0.00000 -0.77728 0.06764 0.62550 0.0000 0.0000
0 -12.87485 -13.67964 35.18655 -0.77728 0.06764 0.62550 0.8931 0.2749
0 -12.38287 -11.54468 35.56704 -0.77728 0.06764 0.62550 0.9098 0.2779
transfer_yellow
0 -40.00000 0.00000 0.00000 -0.80012 -0.04874 0.59786 0.0000 0.0000
0 -13.21497 -15.78587 34.55964 -0.80012 -0.04874 0.59786 0.8767 0.2700
0 -12.87485 -13.67964 35.18655 -0.80012 -0.04874 0.59786 0.8931 0.2749
transfer_yellow
0 -40.00000 0.00000 0.00000 -0.81446 -0.16256 0.55698 0.0000 0.0000
0 -13.39743 -17.82731 33.69704 -0.81446 -0.16256 0.55698 0.8607 0.2633
0 -13.21497 -15.78587 34.55964 -0.81446 -0.16256 0.55698 0.8767 0.2700
transfer_yellow
0 -40.00000 0.00000 0.00000 -0.82006 -0.27186 0.50358 0.0000 0.0000
0 -13.41909 -19.76905 32.61350 -0.82006 -0.27186 0.50358 0.8456 0.2548
0 -13.39743 -17.82731 33.69704 -0.82006 -0.27186 0.50358 0.8607 0.2633
transfer_yellow
0 -40.00000 0.00000 0.00000 -0.81683 -0.37478 0.43856 0.0000 0.0000
0 -13.27959 -21.57785 31.32756 -0.81683 -0.37478 0.43856 0.8314 0.2447
0 -13.41909 -19.76905 32.61350 -0.81683 -0.37478 0.43856 0.8456 0.2548
transfer_yellow
0 -40.00000 0.00000 0.00000 -0.80481 -0.46955 0.36303 0.0000 0.0000
0 -12.98132 -23.22278 29.86123 -0.80481 -0.46955 0.36303 0.8186 0.2333
0 -13.27959 -21.57785 31.32756 -0.80481 -0.46955 0.36303 0.8314 0.2447
transfer_yellow
0 -40.00000 0.00000 0.00000 -0.78423 -0.55456 0.27830 0.0000 0.0000
0 -12.52937 -24.67568 28.23960 -0.78423 -0.55456 0.27830 0.8072 0.2206
0 -12.98132 -23.22278 29.86123 -0.78423 -0.55456 0.27830 0.8186 0.2333
transfer_yellow
0 -40.00000 0.00000 0.00000 -0.75542 -0.62835 0.18580 0.0000 0.0000
0 -11.93148 -25.91170 26.49041 -0.75542 -0.62835 0.18580 0.7976 0.2070
0 -12.52937 -24.67568 28.23960 -0.75542 -0.62835 0.18580 0.8072 0.2206
transfer_yellow
0 -40.00000 0.00000 0.00000 -0.71888 -0.68965 0.08712 0.0000 0.0000
0 -11.19788 -26.90968 24.64360 -0.71888 -0.68965 0.08712 0.7898 0.1925
0 -11.93148 -25.91170 26.49041 -0.71888 -0.68965 0.08712 0.7976 0.2070
transfer_yellow
0 -40.00000 0.00000 0.00000 -0.67524 -0.73742 -0.01605 0.0000 0.0000
0 -10.34113 -27.65256 22.73075 -0.67524 -0.73742 -0.01605 0.7840 0.1776
0 -11.19788 -26.90968 24.64360 -0.67524 -0.73742 -0.01605 0.7898 0.1925
transfer_yellow
0 -40.00000 0.00000 0.00000 -0.62524 -0.77085 -0.12194 0.0000 0.0000
0 -9.37587 -28.12762 20.78461 -0.62524 -0.77085 -0.12194 0.7803 0.1624
0 -10.34113 -27.65256 22.73075 -0.62524 -0.77085 -0.12194 0.7840 0.1776
transfer_yellow
0 -40.00000 0.00000 0.00000 -0.62524 -0.77085 0.12194 0.0000 0.0000
0 -10.34113 -27.65256 -22.73075 -0.62524 -0.77085 0.12194 0.7840 0.8224
0 -9.37587 -28.12762 -20.78461 -0.62524 -0.77085 0.12194 0.7803 0.8376
transfer_yellow
0 -40.00000 0.00000 0.00000 -0.67524 -0.73742 0.01605 0.0000 0.0000
0 -11.19788 -26.90968 -24.64360 -0.67524 -0.73742 0.01605 0.7898 0.8075
0 -10.34113 -27.65256 -22.73075 -0.67524 -0.73742 0.01605 0.7840 0.8224
transfer_yellow
0 -40.00000 0.00000 0.00000 -0.71888 -0.68965 -0.08712 0.0000 0.0000
0 -11.93148 -25.91170 -26.49041 -0.71888 -0.68965 -0.08712 0.7976 0.7930
0 -11.19788 -26.90968 -24.64360 -0.71888 -0.68965 -0.08712 0.7898 0.8075
transfer_yellow
0 -40.00000 0.00000 0.00000 -0.75542 -0.62835 -0.18580 0.0000 0.0000
0 -12.52937 -24.67568 -28.23960 -0.75542 -0.62835 -0.18580 0.8072 0.7794
0 -11.93148 -25.91170 -26.49041 -0.75542 -0.62835 -0.18580 0.7976 0.7930
transfer_yellow
0 -40.00000 0.00000 0.00000 -0.78423 -0.55456 -0.27830 0.0000 0.0000
0 -12.98132 -23.22278 -29.86123 -0.78423 -0.55456 -0.27830 0.8186 0.7667
0 -12.52937 -24.67568 -28.23960 -0.78423 -0.55456 -0.27830 0.8072 0.7794
transfer_yellow
0 -40.00000 0.00000 0.00000 -0.80481 -0.46955 -0.36303 0.0000 0.0000
0 -13.27959 -21.57785 -31.32756 -0.80481 -0.46955 -0.36303 0.8314 0.7553
0 -12.98132 -23.22278 -29.86123 -0.80481 -0.46955 -0.36303 0.8186 0.7667
transfer_yellow
0 -40.00000 0.00000 0.00000 -0.81683 -0.37478 -0.43856 0.0000 0.0000
0 -13.41909 -19.76905 -32.61350 -0.81683 -0.37478 -0.43856 0.8456 0.7452
0 -13.27959 -21.57785 -31.32756 -0.81683 -0.37478 -0.43856 0.8314 0.7553
transfer_yellow
0 -40.00000 0.00000 0.00000 -0.82006 -0.27186 -0.50358 0.0000 0.0000
0 -13.39743 -17.82731 -33.69704 -0.82006 -0.27186 -0.50358 0.8607 0.7367
0 -13.41909 -19.76905 -32.61350 -0.82006 -0.27186 -0.50358 0.8456 0.7452
transfer_yellow
0 -40.00000 0.00000 0.00000 -0.81446 -0.16256 -0.55698 0.0000 0.0000
0 -13.21497 -15.78587 -34.55964 -0.81446 -0.16256 -0.55698 0.8767 0.7300
0 -13.39743 -17.82731 -33.69704 -0.81446 -0.16256 -0.55698 0.8607 0.7367
transfer_yellow
0 -40.00000 0.00000 0.00000 -0.80012 -0.04874 -0.59786 0.0000 0.0000
0 -12.87485 -13.67964 -35.18655 -0.80012 -0.04874 -0.59786 0.8931 0.7251
0 -13.21497 -15.78587 -34.55964 -0.80012 -0.04874 -0.59786 0.8767 0.7300
transfer_yellow
0 -40.00000 0.00000 0.00000 -0.77728 0.06764 -0.62550 0.0000 0.0000
0 -12.38287 -11.54468 -35.56704 -0.77728 0.06764 -0.62550 0.9098 0.7221
0 -12.87485 -13.67964 -35.18655 -0.77728 0.06764 -0.62550 0.8931 0.7251
transfer_yellow
0 -40.00000 0.00000 0.00000 -0.74635 0.18460 -0.63944 0.0000 0.0000
0 -11.74746 -9.41751 -35.69460 -0.74635 0.18460 -0.63944 0.9264 0.7211
0 -12.38287 -11.54468 -35.56704 -0.74635 0.18460 -0.63944 0.9098 0.7221
transfer_yellow
0 -40.00000 0.00000 0.00000 -0.70784 0.30013 -0.63944 0.0000 0.0000
0 -10.97948 -7.33453 -35.56704 -0.70784 0.30013 -0.63944 0.9427 0.7221
0 -11.74746 -9.41751 -35.69460 -0.70784 0.30013 -0.63944 0.9264 0.7211
transfer_yellow
0 -40.00000 0.00000 0.00000 -0.66241 0.41226 -0.62550 0.0000 0.0000
0 -10.09209 -5.33138 -35.18655 -0.66241 0.41226 -0.62550 0.9583 0.7251
0 -10.97948 -7.33453 -35.56704 -0.66241 0.41226 -0.62550 0.9427 0.7221
transfer_yellow
0 -40.00000 0.00000 0.00000 -0.61085 0.51906 -0.59786 0.0000 0.0000
0 -9.10046 -3.44232 -34.55964 -0.61085 0.51906 -0.59786 0.9731 0.7300
0 -10.09209 -5.33138 -35.18655 -0.61085 0.51906 -0.59786 0.9583 0.7251
transfer_yellow
0 -40.00000 0.00000 0.00000 -0.55403 0.61872 -0.55698 0.0000 0.0000
0 -8.02156 -1.69969 -33.69704 -0.55403 0.61872 -0.55698 0.9867 0.7367
0 -9.10046 -3.44232 -34.55964 -0.55403 0.61872 -0.55698 0.9731 0.7300
transfer_yellow
0 -40.00000 0.00000 0.00000 -0.49293 0.70953 -0.50358 0.0000 0.0000
0 -6.87385 -0.13331 -32.61350 -0.49293 0.70953 -0.50358 0.9990 0.7452
0 -8.02156 -1.69969 -33.69704 -0.49293 0.70953 -0.50358 0.9867 0.7367
transfer_yellow
0 -40.00000 0.00000 0.00000 -0.42859 0.78992 -0.43856 0.0000 0.0000
0 -5.67696 1.23004 -31.32756 -0.42859 0.78992 -0.43856 0.0096 0.7553
0 -6.87385 -0.13331 -32.61350 -0.42859 0.78992 -0.43856 0.9990 0.7452
transfer_yellow
0 -40.00000 0.00000 0.00000 -0.36212 0.85853 -0.36303 0.0000 0.0000
0 -4.45139 2.36702 -29.86123 -0.36212 0.85853 -0.36303 0.0185 0.7667
0 -5.67696 1.23004 -31.32756 -0.36212 0.85853 -0.36303 0.0096 0.7553
transfer_yellow
0 -40.00000 0.00000 0.00000 -0.29464 0.91419 -0.27830 0.0000 0.0000
0 -3.21809 3.25817 -28.23960 -0.29464 0.91419 -0.27830 0.0255 0.7794
0 -4.45139 2.36702 -29.86123 -0.29464 0.91419 -0.27830 0.0185 0.7667
transfer_yellow
0 -40.00000 0.00000 0.00000 -0.22732 0.95593 -0.18580 0.0000 0.0000
0 -1.99816 3.88825 -26.49041 -0.22732 0.95593 -0.18580 0.0304 0.7930
0 -3.21809 3.25817 -28.23960 -0.22732 0.95593 -0.18580 0.0255 0.7794
transfer_yellow
0 -40.00000 0.00000 0.00000 -0.16131 0.98305 -0.08712 0.0000 0.0000
0 -0.81250 4.24648 -24.64360 -0.16131 0.98305 -0.08712 0.0332 0.8075
0 -1.99816 3.88825 -26.49041 -0.16131 0.98305 -0.08712 0.0304 0.7930
transfer_yellow
0 -40.00000 0.00000 0.00000 -0.09774 0.99508 0.01605 0.0000 0.0000
0 0.31863 4.32672 -22.73075 -0.09774 0.99508 0.01605 0.0338 0.8224
0 -0.81250 4.24648 -24.64360 -0.09774 0.99508 0.01605 0.0332 0.8075
transfer_yellow
0 -40.00000 0.00000 0.00000 -0.03769 0.99182 0.12194 0.0000 0.0000
0 1.37587 4.12762 -20.78461 -0.03769 0.99182 0.12194 0.0322 0.8376
0 0.31863 4.32672 -22.73075 -0.03769 0.99182 0.12194 0.0338 0.8224
transfer_yellow
0 -40.00000 0.00000 0.00000 0.01781 0.97332 0.22875 0.0000 0.0000
0 2.34113 3.65256 -18.83847 0.01781 0.97332 0.22875 0.0285 0.8528
0 1.37587 4.12762 -20.78461 0.01781 0.97332 0.22875 0.0322 0.8376
transfer_yellow
0 -40.00000 0.00000 0.00000 0.06781 0.93990 0.33465 0.0000 0.0000
0 3.19788 2.90968 -16.92562 0.06781 0.93990 0.33465 0.0227 0.8678
0 2.34113 3.65256 -18.83847 0.06781 0.93990 0.33465 0.0285 0.8528
transfer_yellow
0 -40.00000 0.00000 0.00000 0.11145 0.89213 0.43782 0.0000 0.0000
0 3.93148 1.91170 -15.07880 0.11145 0.89213 0.43782 0.0149 0.8822
0 3.19788 2.90968 -16.92562 0.11145 0.89213 0.43782 0.0227 0.8678
transfer_yellow
0 -40.00000 0.00000 0.00000 0.14799 0.83083 0.53650 0.0000 0.0000
0 4.52937 0.67568 -13.32962 0.14799 0.83083 0.53650 0.0053 0.8959
0 3.93148 1.91170 -15.07880 0.14799 0.83083 0.53650 0.0149 0.8822
transfer_yellow
0 -40.00000 0.00000 0.00000 0.17680 0.75704 0.62900 0.0000 0.0000
0 4.98132 -0.77722 -11.70799 0.17680 0.75704 0.62900 0.9939 0.9085
0 4.52937 0.67568 -13.32962 0.17680 0.75704 0.62900 0.0053 0.8959
transfer_yellow
0 -40.00000 0.00000 0.00000 0.19739 0.67203 0.71373 0.0000 0.0000
0 5.27959 -2.42215 -10.24166 0.19739 0.67203 0.71373 0.9811 0.9200
0 4.98132 -0.77722 -11.70799 0.19739 0.67203 0.71373 0.9939 0.9085
transfer_yellow
0 -40.00000 0.00000 0.00000 0.20940 0.57726 0.78926 0.0000 0.0000
0 5.41909 -4.23095 -8.95572 0.20940 0.57726 0.78926 0.9669 0.9300
0 5.27959 -2.42215 -10.24166 0.20940 0.57726 0.78926 0.9811 0.9200
transfer_yellow
0 -40.00000 0.00000 0.00000 0.21263 0.47434 0.85428 0.0000 0.0000
0 5.39743 -6.17269 -7.87218 0.21263 0.47434 0.85428 0.9518 0.9385
0 5.41909 -4.23095 -8.95572 0.21263 0.47434 0.85428 0.9669 0.9300
transfer_yellow
0 -40.00000 0.00000 0.00000 0.20703 0.36503 0.90768 0.0000 0.0000
0 5.21497 -8.21413 -7.00958 0.20703 0.36503 0.90768 0.9358 0.9452
0 5.39743 -6.17269 -7.87218 0.20703 0.36503 0.90768 0.9518 0.9385
transfer_yellow
0 -40.00000 0.00000 0.00000 0.19269 0.25122 0.94856 0.0000 0.0000
0 4.87485 -10.32036 -6.38267 0.19269 0.25122 0.94856 0.9194 0.9501
0 5.21497 -8.21413 -7.00958 0.19269 0.25122 0.94856 0.9358 0.9452
transfer_yellow
0 -40.00000 0.00000 0.00000 0.16986 0.13483 0.97620 0.0000 0.0000
0 4.38287 -12.45532 -6.00218 0.16986 0.13483 0.97620 0.9027 0.9531
0 4.87485 -10.32036 -6.38267 0.16986 0.13483 0.97620 0.9194 0.9501
transfer_yellow
0 -40.00000 0.00000 0.00000 0.13892 0.01788 0.99014 0.0000 0.0000
0 3.74746 -14.58249 -5.87462 0.13892 0.01788 0.99014 0.8861 0.9541
0 4.38287 -12.45532 -6.00218 0.13892 0.01788 0.99014 0.9027 0.9531
transfer_yellow
0 -40.00000 0.00000 0.00000 0.10041 -0.09765 0.99014 0.0000 0.0000
0 2.97948 -16.66547 -6.00218 0.10041 -0.09765 0.99014 0.8698 0.9531
0 3.74746 -14.58249 -5.87462 0.10041 -0.09765 0.99014 0.8861 0.9541
transfer_yellow
0 -40.00000 0.00000 0.00000 0.05498 -0.20978 0.97620 0.0000 0.0000
0 2.09209 -18.66862 -6.38267 0.05498 -0.20978 0.97620 0.8542 0.9501
0 2.97948 -16.66547 -6.00218 0.05498 -0.20978 0.97620 0.8698 0.9531
transfer_yellow
0 -40.00000 0.00000 0.00000 0.00342 -0.31659 0.94856 0.0000 0.0000
0 1.10046 -20.55768 -7.00958 0.00342 -0.31659 0.94856 0.8394 0.9452
0 2.09209 -18.66862 -6.38267 0.00342 -0.31659 0.94856 0.8542 0.9501
transfer_yellow
0 -40.00000 0.00000 0.00000 -0.05340 -0.41625 0.90768 0.0000 0.0000
0 0.02156 -22.30031 -7.87218 -0.05340 -0.41625 0.90768 0.8258 0.9385
0 1.10046 -20.55768 -7.00958 -0.05340 -0.41625 0.90768 0.8394 0.9452
transfer_yellow
0 -40.00000 0.00000 0.00000 -0.11450 -0.50705 0.85428 0.0000 0.0000
0 -1.12615 -23.86669 -8.95572 -0.11450 -0.50705 0.85428 0.8135 0.9300
0 0.02156 -22.30031 -7.87218 -0.11450 -0.50705 0.85428 0.8258 0.9385
transfer_yellow
0 -40.00000 0.00000 0.00000 -0.17883 -0.58744 0.78926 0.0000 0.0000
0 -2.32304 -25.23004 -10.24166 -0.17883 -0.58744 0.78926 0.8029 0.9200
0 -1.12615 -23.86669 -8.95572 -0.17883 -0.58744 0.78926 0.8135 0.9300
transfer_yellow
0 -40.00000 0.00000 0.00000 -0.24531 -0.65606 0.71373 0.0000 0.0000
0 -3.54861 -26.36702 -11.70799 -0.24531 -0.65606 0.71373 0.7940 0.9085
0 -2.32304 -25.23004 -10.24166 -0.24531 -0.65606 0.71373 0.8029 0.9200
transfer_yellow
0 -40.00000 0.00000 0.00000 -0.31278 -0.71171 0.62900 0.0000 0.0000
0 -4.78191 -27.25817 -13.32962 -0.31278 -0.71171 0.62900 0.7870 0.8959
0 -3.54861 -26.36702 -11.70799 -0.31278 -0.71171 0.62900 0.7940 0.9085
transfer_yellow
0 -40.00000 0.00000 0.00000 -0.38010 -0.75345 0.53650 0.0000 0.0000
0 -6.00184 -27.88825 -15.07880 -0.38010 -0.75345 0.53650 0.7821 0.8822
0 -4.78191 -27.25817 -13.32962 -0.38010 -0.75345 0.53650 0.7870 0.8959
transfer_yellow
0 -40.00000 0.00000 0.00000 -0.44612 -0.78057 0.43782 0.0000 0.0000
0 -7.18750 -28.24648 -16.92562 -0.44612 -0.78057 0.43782 0.7793 0.8678
0 -6.00184 -27.88825 -15.07880 -0.44612 -0.78057 0.43782 0.7821 0.8822
transfer_yellow
0 -40.00000 0.00000 0.00000 -0.50969 -0.79261 0.33465 0.0000 0.0000
0 -8.31863 -28.32672 -18.83847 -0.50969 -0.79261 0.33465 0.7787 0.8528
0 -7.18750 -28.24648 -16.92562 -0.50969 -0.79261 0.33465 0.7793 0.8678
transfer_yellow
0 -40.00000 0.00000 0.00000 -0.56974 -0.78935 0.22875 0.0000 0.0000
0 -9.37587 -28.12762 -20.78461 -0.56974 -0.78935 0.22875 0.7803 0.8376
0 -8.31863 -28.32672 -18.83847 -0.56974 -0.78935 0.22875 0.7787 0.8528
end
