version 1
nodes
0 "root" -1
end
skeleton
time 0
0 0 0 0 0 0 0
end
triangles
early_tube3
0 -4.00000 56.49323 11.23720 -1.00000 -0.00000 0.00000 0.4414 0.0878
0 -4.00000 50.31428 10.00813 -1.00000 -0.00000 0.00000 0.3931 0.0782
0 -4.00000 42.65439 28.50075 -1.00000 -0.00000 0.00000 0.3332 0.2227
early_tube3
0 -4.00000 56.49323 11.23720 -1.00000 -0.00000 0.00000 0.4414 0.0878
0 -4.00000 42.65439 28.50075 -1.00000 -0.00000 0.00000 0.3332 0.2227
0 -4.00000 47.89265 32.00085 -1.00000 -0.00000 0.00000 0.3742 0.2500
early_tubeh3
0 -4.00000 50.31428 10.00813 -0.98264 0.17141 0.07100 0.3931 0.0782
0 -4.50000 47.66616 9.48139 -0.98264 0.17141 0.07100 0.3724 0.0741
0 -4.50000 40.40942 27.00071 -0.98264 0.17141 0.07100 0.3157 0.2109
early_tubeh3
0 -4.00000 50.31428 10.00813 -0.98264 0.17141 0.07100 0.3931 0.0782
0 -4.50000 40.40942 27.00071 -0.98264 0.17141 0.07100 0.3157 0.2109
0 -4.00000 42.65439 28.50075 -0.98264 0.17141 0.07100 0.3332 0.2227
early_tubeh3
0 -4.50000 47.66616 9.48139 -0.89767 0.40713 0.16864 0.3724 0.0741
0 -5.80000 45.01804 8.95465 -0.89767 0.40713 0.16864 0.3517 0.0700
0 -5.80000 38.16446 25.50067 -0.89767 0.40713 0.16864 0.2982 0.1992
early_tubeh3
0 -4.50000 47.66616 9.48139 -0.89767 0.40713 0.16864 0.3724 0.0741
0 -5.80000 38.16446 25.50067 -0.89767 0.40713 0.16864 0.2982 0.1992
0 -4.50000 40.40942 27.00071 -0.89767 0.40713 0.16864 0.3157 0.2109
early_tubeh3
0 -5.80000 45.01804 8.95465 -0.74826 0.61291 0.25387 0.3517 0.0700
0 -7.60000 42.98782 8.55081 -0.74826 0.61291 0.25387 0.3358 0.0668
0 -7.60000 36.44331 24.35064 -0.74826 0.61291 0.25387 0.2847 0.1902
early_tubeh3
0 -5.80000 45.01804 8.95465 -0.74826 0.61291 0.25387 0.3517 0.0700
0 -7.60000 36.44331 24.35064 -0.74826 0.61291 0.25387 0.2847 0.1902
0 -5.80000 38.16446 25.50067 -0.74826 0.61291 0.25387 0.2982 0.1992
early_tubeh3
0 -7.60000 42.98782 8.55081 -0.53015 0.78336 0.32448 0.3358 0.0668
0 -10.00000 41.48722 8.25232 -0.53015 0.78336 0.32448 0.3241 0.0645
0 -10.00000 35.17116 23.50062 -0.53015 0.78336 0.32448 0.2748 0.1836
early_tubeh3
0 -7.60000 42.98782 8.55081 -0.53015 0.78336 0.32448 0.3358 0.0668
0 -10.00000 35.17116 23.50062 -0.53015 0.78336 0.32448 0.2748 0.1836
0 -7.60000 36.44331 24.35064 -0.53015 0.78336 0.32448 0.2847 0.1902
early_tube_lip
0 -10.00000 41.48722 8.25232 0.00000 -0.92388 -0.38268 0.3241 0.0645
0 10.00000 41.48722 8.25232 0.00000 -0.92388 -0.38268 0.3241 0.0645
0 10.00000 35.17116 23.50062 0.00000 -0.92388 -0.38268 0.2748 0.1836
early_tube_lip
0 -10.00000 41.48722 8.25232 0.00000 -0.92388 -0.38268 0.3241 0.0645
0 10.00000 35.17116 23.50062 0.00000 -0.92388 -0.38268 0.2748 0.1836
0 -10.00000 35.17116 23.50062 0.00000 -0.92388 -0.38268 0.2748 0.1836
early_tubeh3
0 10.00000 41.48722 8.25232 0.53015 0.78336 0.32448 0.3241 0.0645
0 7.60000 42.98782 8.55081 0.53015 0.78336 0.32448 0.3358 0.0668
0 7.60000 36.44331 24.35064 0.53015 0.78336 0.32448 0.2847 0.1902
early_tubeh3
0 10.00000 41.48722 8.25232 0.53015 0.78336 0.32448 0.3241 0.0645
0 7.60000 36.44331 24.35064 0.53015 0.78336 0.32448 0.2847 0.1902
0 10.00000 35.17116 23.50062 0.53015 0.78336 0.32448 0.2748 0.1836
early_tubeh3
0 7.60000 42.98782 8.55081 0.74826 0.61291 0.25387 0.3358 0.0668
0 5.80000 45.01804 8.95465 0.74826 0.61291 0.25387 0.3517 0.0700
0 5.80000 38.16446 25.50067 0.74826 0.61291 0.25387 0.2982 0.1992
early_tubeh3
0 7.60000 42.98782 8.55081 0.74826 0.61291 0.25387 0.3358 0.0668
0 5.80000 38.16446 25.50067 0.74826 0.61291 0.25387 0.2982 0.1992
0 7.60000 36.44331 24.35064 0.74826 0.61291 0.25387 0.2847 0.1902
early_tubeh3
0 5.80000 45.01804 8.95465 0.89767 0.40713 0.16864 0.3517 0.0700
0 4.50000 47.66616 9.48139 0.89767 0.40713 0.16864 0.3724 0.0741
0 4.50000 40.40942 27.00071 0.89767 0.40713 0.16864 0.3157 0.2109
early_tubeh3
0 5.80000 45.01804 8.95465 0.89767 0.40713 0.16864 0.3517 0.0700
0 4.50000 40.40942 27.00071 0.89767 0.40713 0.16864 0.3157 0.2109
0 5.80000 38.16446 25.50067 0.89767 0.40713 0.16864 0.2982 0.1992
early_tubeh3
0 4.50000 47.66616 9.48139 0.98264 0.17141 0.07100 0.3724 0.0741
0 4.00000 50.31428 10.00813 0.98264 0.17141 0.07100 0.3931 0.0782
0 4.00000 42.65439 28.50075 0.98264 0.17141 0.07100 0.3332 0.2227
early_tubeh3
0 4.50000 47.66616 9.48139 0.98264 0.17141 0.07100 0.3724 0.0741
0 4.00000 42.65439 28.50075 0.98264 0.17141 0.07100 0.3332 0.2227
0 4.50000 40.40942 27.00071 0.98264 0.17141 0.07100 0.3157 0.2109
early_tube3
0 4.00000 50.31428 10.00813 1.00000 0.00000 -0.00000 0.3931 0.0782
0 4.00000 56.49323 11.23720 1.00000 0.00000 -0.00000 0.4414 0.0878
0 4.00000 47.89265 32.00085 1.00000 0.00000 -0.00000 0.3742 0.2500
early_tube3
0 4.00000 50.31428 10.00813 1.00000 0.00000 -0.00000 0.3931 0.0782
0 4.00000 47.89265 32.00085 1.00000 0.00000 -0.00000 0.3742 0.2500
0 4.00000 42.65439 28.50075 1.00000 0.00000 -0.00000 0.3332 0.2227
early_tube3
0 4.00000 56.49323 11.23720 0.00000 0.92388 0.38268 0.4414 0.0878
0 -4.00000 56.49323 11.23720 0.00000 0.92388 0.38268 0.4414 0.0878
0 -4.00000 47.89265 32.00085 0.00000 0.92388 0.38268 0.3742 0.2500
early_tube3
0 4.00000 56.49323 11.23720 0.00000 0.92388 0.38268 0.4414 0.0878
0 -4.00000 47.89265 32.00085 0.00000 0.92388 0.38268 0.3742 0.2500
0 4.00000 47.89265 32.00085 0.00000 0.92388 0.38268 0.3742 0.2500
early_tube3
0 -4.00000 47.89265 32.00085 -1.00000 -0.00000 0.00000 0.3742 0.2500
0 -4.00000 42.65439 28.50075 -1.00000 -0.00000 0.00000 0.3332 0.2227
0 -4.00000 28.50075 42.65439 -1.00000 -0.00000 0.00000 0.2227 0.3332
early_tube3
0 -4.00000 47.89265 32.00085 -1.00000 -0.00000 0.00000 0.3742 0.2500
0 -4.00000 28.50075 42.65439 -1.00000 -0.00000 0.00000 0.2227 0.3332
0 -4.00000 32.00085 47.89265 -1.00000 -0.00000 0.00000 0.2500 0.3742
early_tubeh3
0 -4.00000 42.65439 28.50075 -0.98264 0.13119 0.13119 0.3332 0.2227
0 -4.50000 40.40942 27.00071 -0.98264 0.13119 0.13119 0.3157 0.2109
0 -4.50000 27.00071 40.40942 -0.98264 0.13119 0.13119 0.2109 0.3157
early_tubeh3
0 -4.00000 42.65439 28.50075 -0.98264 0.13119 0.13119 0.3332 0.2227
0 -4.50000 27.00071 40.40942 -0.98264 0.13119 0.13119 0.2109 0.3157
0 -4.00000 28.50075 42.65439 -0.98264 0.13119 0.13119 0.2227 0.3332
early_tubeh3
0 -4.50000 40.40942 27.00071 -0.89767 0.31161 0.31161 0.3157 0.2109
0 -5.80000 38.16446 25.50067 -0.89767 0.31161 0.31161 0.2982 0.1992
0 -5.80000 25.50067 38.16446 -0.89767 0.31161 0.31161 0.1992 0.2982
early_tubeh3
0 -4.50000 40.40942 27.00071 -0.89767 0.31161 0.31161 0.3157 0.2109
0 -5.80000 25.50067 38.16446 -0.89767 0.31161 0.31161 0.1992 0.2982
0 -4.50000 27.00071 40.40942 -0.89767 0.31161 0.31161 0.2109 0.3157
early_tubeh3
0 -5.80000 38.16446 25.50067 -0.74826 0.46910 0.46910 0.2982 0.1992
0 -7.60000 36.44331 24.35064 -0.74826 0.46910 0.46910 0.2847 0.1902
0 -7.60000 24.35064 36.44331 -0.74826 0.46910 0.46910 0.1902 0.2847
early_tubeh3
0 -5.80000 38.16446 25.50067 -0.74826 0.46910 0.46910 0.2982 0.1992
0 -7.60000 24.35064 36.44331 -0.74826 0.46910 0.46910 0.1902 0.2847
0 -5.80000 25.50067 38.16446 -0.74826 0.46910 0.46910 0.1992 0.2982
early_tubeh3
0 -7.60000 36.44331 24.35064 -0.53015 0.59956 0.59956 0.2847 0.1902
0 -10.00000 35.17116 23.50062 -0.53015 0.59956 0.59956 0.2748 0.1836
0 -10.00000 23.50062 35.17116 -0.53015 0.59956 0.59956 0.1836 0.2748
early_tubeh3
0 -7.60000 36.44331 24.35064 -0.53015 0.59956 0.59956 0.2847 0.1902
0 -10.00000 23.50062 35.17116 -0.53015 0.59956 0.59956 0.1836 0.2748
0 -7.60000 24.35064 36.44331 -0.53015 0.59956 0.59956 0.1902 0.2847
early_tube_lip
0 -10.00000 35.17116 23.50062 0.00000 -0.70711 -0.70711 0.2748 0.1836
0 10.00000 35.17116 23.50062 0.00000 -0.70711 -0.70711 0.2748 0.1836
0 10.00000 23.50062 35.17116 0.00000 -0.70711 -0.70711 0.1836 0.2748
early_tube_lip
0 -10.00000 35.17116 23.50062 0.00000 -0.70711 -0.70711 0.2748 0.1836
0 10.00000 23.50062 35.17116 0.00000 -0.70711 -0.70711 0.1836 0.2748
0 -10.00000 23.50062 35.17116 0.00000 -0.70711 -0.70711 0.1836 0.2748
early_tubeh3
0 10.00000 35.17116 23.50062 0.53015 0.59956 0.59956 0.2748 0.1836
0 7.60000 36.44331 24.35064 0.53015 0.59956 0.59956 0.2847 0.1902
0 7.60000 24.35064 36.44331 0.53015 0.59956 0.59956 0.1902 0.2847
early_tubeh3
0 10.00000 35.17116 23.50062 0.53015 0.59956 0.59956 0.2748 0.1836
0 7.60000 24.35064 36.44331 0.53015 0.59956 0.59956 0.1902 0.2847
0 10.00000 23.50062 35.17116 0.53015 0.59956 0.59956 0.1836 0.2748
early_tubeh3
0 7.60000 36.44331 24.35064 0.74826 0.46910 0.46910 0.2847 0.1902
0 5.80000 38.16446 25.50067 0.74826 0.46910 0.46910 0.2982 0.1992
0 5.80000 25.50067 38.16446 0.74826 0.46910 0.46910 0.1992 0.2982
early_tubeh3
0 7.60000 36.44331 24.35064 0.74826 0.46910 0.46910 0.2847 0.1902
0 5.80000 25.50067 38.16446 0.74826 0.46910 0.46910 0.1992 0.2982
0 7.60000 24.35064 36.44331 0.74826 0.46910 0.46910 0.1902 0.2847
early_tubeh3
0 5.80000 38.16446 25.50067 0.89767 0.31161 0.31161 0.2982 0.1992
0 4.50000 40.40942 27.00071 0.89767 0.31161 0.31161 0.3157 0.2109
0 4.50000 27.00071 40.40942 0.89767 0.31161 0.31161 0.2109 0.3157
early_tubeh3
0 5.80000 38.16446 25.50067 0.89767 0.31161 0.31161 0.2982 0.1992
0 4.50000 27.00071 40.40942 0.89767 0.31161 0.31161 0.2109 0.3157
0 5.80000 25.50067 38.16446 0.89767 0.31161 0.31161 0.1992 0.2982
early_tubeh3
0 4.50000 40.40942 27.00071 0.98264 0.13119 0.13119 0.3157 0.2109
0 4.00000 42.65439 28.50075 0.98264 0.13119 0.13119 0.3332 0.2227
0 4.00000 28.50075 42.65439 0.98264 0.13119 0.13119 0.2227 0.3332
early_tubeh3
0 4.50000 40.40942 27.00071 0.98264 0.13119 0.13119 0.3157 0.2109
0 4.00000 28.50075 42.65439 0.98264 0.13119 0.13119 0.2227 0.3332
0 4.50000 27.00071 40.40942 0.98264 0.13119 0.13119 0.2109 0.3157
early_tube3
0 4.00000 42.65439 28.50075 1.00000 0.00000 -0.00000 0.3332 0.2227
0 4.00000 47.89265 32.00085 1.00000 0.00000 -0.00000 0.3742 0.2500
0 4.00000 32.00085 47.89265 1.00000 0.00000 -0.00000 0.2500 0.3742
early_tube3
0 4.00000 42.65439 28.50075 1.00000 0.00000 -0.00000 0.3332 0.2227
0 4.00000 32.00085 47.89265 1.00000 0.00000 -0.00000 0.2500 0.3742
0 4.00000 28.50075 42.65439 1.00000 0.00000 -0.00000 0.2227 0.3332
early_tube3
0 4.00000 47.89265 32.00085 0.00000 0.70711 0.70711 0.3742 0.2500
0 -4.00000 47.89265 32.00085 0.00000 0.70711 0.70711 0.3742 0.2500
0 -4.00000 32.00085 47.89265 0.00000 0.70711 0.70711 0.2500 0.3742
early_tube3
0 4.00000 47.89265 32.00085 0.00000 0.70711 0.70711 0.3742 0.2500
0 -4.00000 32.00085 47.89265 0.00000 0.70711 0.70711 0.2500 0.3742
0 4.00000 32.00085 47.89265 0.00000 0.70711 0.70711 0.2500 0.3742
early_tube3
0 -4.00000 32.00085 47.89265 -1.00000 -0.00000 0.00000 0.2500 0.3742
0 -4.00000 28.50075 42.65439 -1.00000 -0.00000 0.00000 0.2227 0.3332
0 -4.00000 10.00813 50.31428 -1.00000 -0.00000 0.00000 0.0782 0.3931
early_tube3
0 -4.00000 32.00085 47.89265 -1.00000 -0.00000 0.00000 0.2500 0.3742
0 -4.00000 10.00813 50.31428 -1.00000 -0.00000 0.00000 0.0782 0.3931
0 -4.00000 11.23720 56.49323 -1.00000 -0.00000 0.00000 0.0878 0.4414
early_tubeh3
0 -4.00000 28.50075 42.65439 -0.98264 0.07100 0.17141 0.2227 0.3332
0 -4.50000 27.00071 40.40942 -0.98264 0.07100 0.17141 0.2109 0.3157
0 -4.50000 9.48139 47.66616 -0.98264 0.07100 0.17141 0.0741 0.3724
early_tubeh3
0 -4.00000 28.50075 42.65439 -0.98264 0.07100 0.17141 0.2227 0.3332
0 -4.50000 9.48139 47.66616 -0.98264 0.07100 0.17141 0.0741 0.3724
0 -4.00000 10.00813 50.31428 -0.98264 0.07100 0.17141 0.0782 0.3931
early_tubeh3
0 -4.50000 27.00071 40.40942 -0.89767 0.16864 0.40713 0.2109 0.3157
0 -5.80000 25.50067 38.16446 -0.89767 0.16864 0.40713 0.1992 0.2982
0 -5.80000 8.95465 45.01804 -0.89767 0.16864 0.40713 0.0700 0.3517
early_tubeh3
0 -4.50000 27.00071 40.40942 -0.89767 0.16864 0.40713 0.2109 0.3157
0 -5.80000 8.95465 45.01804 -0.89767 0.16864 0.40713 0.0700 0.3517
0 -4.50000 9.48139 47.66616 -0.89767 0.16864 0.40713 0.0741 0.3724
early_tubeh3
0 -5.80000 25.50067 38.16446 -0.74826 0.25387 0.61291 0.1992 0.2982
0 -7.60000 24.35064 36.44331 -0.74826 0.25387 0.61291 0.1902 0.2847
0 -7.60000 8.55081 42.98782 -0.74826 0.25387 0.61291 0.0668 0.3358
early_tubeh3
0 -5.80000 25.50067 38.16446 -0.74826 0.25387 0.61291 0.1992 0.2982
0 -7.60000 8.55081 42.98782 -0.74826 0.25387 0.61291 0.0668 0.3358
0 -5.80000 8.95465 45.01804 -0.74826 0.25387 0.61291 0.0700 0.3517
early_tubeh3
0 -7.60000 24.35064 36.44331 -0.53015 0.32448 0.78336 0.1902 0.2847
0 -10.00000 23.50062 35.17116 -0.53015 0.32448 0.78336 0.1836 0.2748
0 -10.00000 8.25232 41.48722 -0.53015 0.32448 0.78336 0.0645 0.3241
early_tubeh3
0 -7.60000 24.35064 36.44331 -0.53015 0.32448 0.78336 0.1902 0.2847
0 -10.00000 8.25232 41.48722 -0.53015 0.32448 0.78336 0.0645 0.3241
0 -7.60000 8.55081 42.98782 -0.53015 0.32448 0.78336 0.0668 0.3358
early_tube_lip
0 -10.00000 23.50062 35.17116 0.00000 -0.38268 -0.92388 0.1836 0.2748
0 10.00000 23.50062 35.17116 0.00000 -0.38268 -0.92388 0.1836 0.2748
0 10.00000 8.25232 41.48722 0.00000 -0.38268 -0.92388 0.0645 0.3241
early_tube_lip
0 -10.00000 23.50062 35.17116 0.00000 -0.38268 -0.92388 0.1836 0.2748
0 10.00000 8.25232 41.48722 0.00000 -0.38268 -0.92388 0.0645 0.3241
0 -10.00000 8.25232 41.48722 0.00000 -0.38268 -0.92388 0.0645 0.3241
early_tubeh3
0 10.00000 23.50062 35.17116 0.53015 0.32448 0.78336 0.1836 0.2748
0 7.60000 24.35064 36.44331 0.53015 0.32448 0.78336 0.1902 0.2847
0 7.60000 8.55081 42.98782 0.53015 0.32448 0.78336 0.0668 0.3358
early_tubeh3
0 10.00000 23.50062 35.17116 0.53015 0.32448 0.78336 0.1836 0.2748
0 7.60000 8.55081 42.98782 0.53015 0.32448 0.78336 0.0668 0.3358
0 10.00000 8.25232 41.48722 0.53015 0.32448 0.78336 0.0645 0.3241
early_tubeh3
0 7.60000 24.35064 36.44331 0.74826 0.25387 0.61291 0.1902 0.2847
0 5.80000 25.50067 38.16446 0.74826 0.25387 0.61291 0.1992 0.2982
0 5.80000 8.95465 45.01804 0.74826 0.25387 0.61291 0.0700 0.3517
early_tubeh3
0 7.60000 24.35064 36.44331 0.74826 0.25387 0.61291 0.1902 0.2847
0 5.80000 8.95465 45.01804 0.74826 0.25387 0.61291 0.0700 0.3517
0 7.60000 8.55081 42.98782 0.74826 0.25387 0.61291 0.0668 0.3358
early_tubeh3
0 5.80000 25.50067 38.16446 0.89767 0.16864 0.40713 0.1992 0.2982
0 4.50000 27.00071 40.40942 0.89767 0.16864 0.40713 0.2109 0.3157
0 4.50000 9.48139 47.66616 0.89767 0.16864 0.40713 0.0741 0.3724
early_tubeh3
0 5.80000 25.50067 38.16446 0.89767 0.16864 0.40713 0.1992 0.2982
0 4.50000 9.48139 47.66616 0.89767 0.16864 0.40713 0.0741 0.3724
0 5.80000 8.95465 45.01804 0.89767 0.16864 0.40713 0.0700 0.3517
early_tubeh3
0 4.50000 27.00071 40.40942 0.98264 0.07100 0.17141 0.2109 0.3157
0 4.00000 28.50075 42.65439 0.98264 0.07100 0.17141 0.2227 0.3332
0 4.00000 10.00813 50.31428 0.98264 0.07100 0.17141 0.0782 0.3931
early_tubeh3
0 4.50000 27.00071 40.40942 0.98264 0.07100 0.17141 0.2109 0.3157
0 4.00000 10.00813 50.31428 0.98264 0.07100 0.17141 0.0782 0.3931
0 4.50000 9.48139 47.66616 0.98264 0.07100 0.17141 0.0741 0.3724
early_tube3
0 4.00000 28.50075 42.65439 1.00000 0.00000 -0.00000 0.2227 0.3332
0 4.00000 32.00085 47.89265 1.00000 0.00000 -0.00000 0.2500 0.3742
0 4.00000 11.23720 56.49323 1.00000 0.00000 -0.00000 0.0878 0.4414
early_tube3
0 4.00000 28.50075 42.65439 1.00000 0.00000 -0.00000 0.2227 0.3332
0 4.00000 11.23720 56.49323 1.00000 0.00000 -0.00000 0.0878 0.4414
0 4.00000 10.00813 50.31428 1.00000 0.00000 -0.00000 0.0782 0.3931
early_tube3
0 4.00000 32.00085 47.89265 0.00000 0.38268 0.92388 0.2500 0.3742
0 -4.00000 32.00085 47.89265 0.00000 0.38268 0.92388 0.2500 0.3742
0 -4.00000 11.23720 56.49323 0.00000 0.38268 0.92388 0.0878 0.4414
early_tube3
0 4.00000 32.00085 47.89265 0.00000 0.38268 0.92388 0.2500 0.3742
0 -4.00000 11.23720 56.49323 0.00000 0.38268 0.92388 0.0878 0.4414
0 4.00000 11.23720 56.49323 0.00000 0.38268 0.92388 0.0878 0.4414
early_tube3
0 -4.00000 11.23720 56.49323 -1.00000 0.00000 0.00000 0.0878 0.4414
0 -4.00000 10.00813 50.31428 -1.00000 0.00000 0.00000 0.0782 0.3931
0 -4.00000 -10.00813 50.31428 -1.00000 0.00000 0.00000 0.9218 0.3931
early_tube3
0 -4.00000 11.23720 56.49323 -1.00000 0.00000 0.00000 0.0878 0.4414
0 -4.00000 -10.00813 50.31428 -1.00000 0.00000 0.00000 0.9218 0.3931
0 -4.00000 -11.23720 56.49323 -1.00000 0.00000 0.00000 0.9122 0.4414
early_tubeh3
0 -4.00000 10.00813 50.31428 -0.98264 0.00000 0.18553 0.0782 0.3931
0 -4.50000 9.48139 47.66616 -0.98264 0.00000 0.18553 0.0741 0.3724
0 -4.50000 -9.48139 47.66616 -0.98264 0.00000 0.18553 0.9259 0.3724
early_tubeh3
0 -4.00000 10.00813 50.31428 -0.98264 0.00000 0.18553 0.0782 0.3931
0 -4.50000 -9.48139 47.66616 -0.98264 0.00000 0.18553 0.9259 0.3724
0 -4.00000 -10.00813 50.31428 -0.98264 0.00000 0.18553 0.9218 0.3931
early_tubeh3
0 -4.50000 9.48139 47.66616 -0.89767 0.00000 0.44068 0.0741 0.3724
0 -5.80000 8.95465 45.01804 -0.89767 0.00000 0.44068 0.0700 0.3517
0 -5.80000 -8.95465 45.01804 -0.89767 0.00000 0.44068 0.9300 0.3517
early_tubeh3
0 -4.50000 9.48139 47.66616 -0.89767 0.00000 0.44068 0.0741 0.3724
0 -5.80000 -8.95465 45.01804 -0.89767 0.00000 0.44068 0.9300 0.3517
0 -4.50000 -9.48139 47.66616 -0.89767 0.00000 0.44068 0.9259 0.3724
early_tubeh3
0 -5.80000 8.95465 45.01804 -0.74826 0.00000 0.66341 0.0700 0.3517
0 -7.60000 8.55081 42.98782 -0.74826 0.00000 0.66341 0.0668 0.3358
0 -7.60000 -8.55081 42.98782 -0.74826 0.00000 0.66341 0.9332 0.3358
early_tubeh3
0 -5.80000 8.95465 45.01804 -0.74826 0.00000 0.66341 0.0700 0.3517
0 -7.60000 -8.55081 42.98782 -0.74826 0.00000 0.66341 0.9332 0.3358
0 -5.80000 -8.95465 45.01804 -0.74826 0.00000 0.66341 0.9300 0.3517
early_tubeh3
0 -7.60000 8.55081 42.98782 -0.53015 0.00000 0.84790 0.0668 0.3358
0 -10.00000 8.25232 41.48722 -0.53015 0.00000 0.84790 0.0645 0.3241
0 -10.00000 -8.25232 41.48722 -0.53015 0.00000 0.84790 0.9355 0.3241
early_tubeh3
0 -7.60000 8.55081 42.98782 -0.53015 0.00000 0.84790 0.0668 0.3358
0 -10.00000 -8.25232 41.48722 -0.53015 0.00000 0.84790 0.9355 0.3241
0 -7.60000 -8.55081 42.98782 -0.53015 0.00000 0.84790 0.9332 0.3358
early_tube_lip
0 -10.00000 8.25232 41.48722 0.00000 0.00000 -1.00000 0.0645 0.3241
0 10.00000 8.25232 41.48722 0.00000 0.00000 -1.00000 0.0645 0.3241
0 10.00000 -8.25232 41.48722 0.00000 0.00000 -1.00000 0.9355 0.3241
early_tube_lip
0 -10.00000 8.25232 41.48722 0.00000 0.00000 -1.00000 0.0645 0.3241
0 10.00000 -8.25232 41.48722 0.00000 0.00000 -1.00000 0.9355 0.3241
0 -10.00000 -8.25232 41.48722 0.00000 0.00000 -1.00000 0.9355 0.3241
early_tubeh3
0 10.00000 8.25232 41.48722 0.53015 0.00000 0.84790 0.0645 0.3241
0 7.60000 8.55081 42.98782 0.53015 0.00000 0.84790 0.0668 0.3358
0 7.60000 -8.55081 42.98782 0.53015 0.00000 0.84790 0.9332 0.3358
early_tubeh3
0 10.00000 8.25232 41.48722 0.53015 0.00000 0.84790 0.0645 0.3241
0 7.60000 -8.55081 42.98782 0.53015 0.00000 0.84790 0.9332 0.3358
0 10.00000 -8.25232 41.48722 0.53015 0.00000 0.84790 0.9355 0.3241
early_tubeh3
0 7.60000 8.55081 42.98782 0.74826 0.00000 0.66341 0.0668 0.3358
0 5.80000 8.95465 45.01804 0.74826 0.00000 0.66341 0.0700 0.3517
0 5.80000 -8.95465 45.01804 0.74826 0.00000 0.66341 0.9300 0.3517
early_tubeh3
0 7.60000 8.55081 42.98782 0.74826 0.00000 0.66341 0.0668 0.3358
0 5.80000 -8.95465 45.01804 0.74826 0.00000 0.66341 0.9300 0.3517
0 7.60000 -8.55081 42.98782 0.74826 0.00000 0.66341 0.9332 0.3358
early_tubeh3
0 5.80000 8.95465 45.01804 0.89767 0.00000 0.44068 0.0700 0.3517
0 4.50000 9.48139 47.66616 0.89767 0.00000 0.44068 0.0741 0.3724
0 4.50000 -9.48139 47.66616 0.89767 0.00000 0.44068 0.9259 0.3724
early_tubeh3
0 5.80000 8.95465 45.01804 0.89767 0.00000 0.44068 0.0700 0.3517
0 4.50000 -9.48139 47.66616 0.89767 0.00000 0.44068 0.9259 0.3724
0 5.80000 -8.95465 45.01804 0.89767 0.00000 0.44068 0.9300 0.3517
early_tubeh3
0 4.50000 9.48139 47.66616 0.98264 0.00000 0.18553 0.0741 0.3724
0 4.00000 10.00813 50.31428 0.98264 0.00000 0.18553 0.0782 0.3931
0 4.00000 -10.00813 50.31428 0.98264 0.00000 0.18553 0.9218 0.3931
early_tubeh3
0 4.50000 9.48139 47.66616 0.98264 0.00000 0.18553 0.0741 0.3724
0 4.00000 -10.00813 50.31428 0.98264 0.00000 0.18553 0.9218 0.3931
0 4.50000 -9.48139 47.66616 0.98264 0.00000 0.18553 0.9259 0.3724
early_tube3
0 4.00000 10.00813 50.31428 1.00000 0.00000 -0.00000 0.0782 0.3931
0 4.00000 11.23720 56.49323 1.00000 0.00000 -0.00000 0.0878 0.4414
0 4.00000 -11.23720 56.49323 1.00000 0.00000 -0.00000 0.9122 0.4414
early_tube3
0 4.00000 10.00813 50.31428 1.00000 0.00000 -0.00000 0.0782 0.3931
0 4.00000 -11.23720 56.49323 1.00000 0.00000 -0.00000 0.9122 0.4414
0 4.00000 -10.00813 50.31428 1.00000 0.00000 -0.00000 0.9218 0.3931
early_tube3
0 4.00000 11.23720 56.49323 0.00000 0.00000 1.00000 0.0878 0.4414
0 -4.00000 11.23720 56.49323 0.00000 0.00000 1.00000 0.0878 0.4414
0 -4.00000 -11.23720 56.49323 0.00000 0.00000 1.00000 0.9122 0.4414
early_tube3
0 4.00000 11.23720 56.49323 0.00000 0.00000 1.00000 0.0878 0.4414
0 -4.00000 -11.23720 56.49323 0.00000 0.00000 1.00000 0.9122 0.4414
0 4.00000 -11.23720 56.49323 0.00000 0.00000 1.00000 0.9122 0.4414
early_tube2
0 -4.00000 -11.23720 56.49323 -1.00000 0.00000 -0.00000 0.9122 0.4414
0 -4.00000 -10.00813 50.31428 -1.00000 0.00000 -0.00000 0.9218 0.3931
0 -4.00000 -28.50075 42.65439 -1.00000 0.00000 -0.00000 0.7773 0.3332
early_tube2
0 -4.00000 -11.23720 56.49323 -1.00000 0.00000 -0.00000 0.9122 0.4414
0 -4.00000 -28.50075 42.65439 -1.00000 0.00000 -0.00000 0.7773 0.3332
0 -4.00000 -32.00085 47.89265 -1.00000 0.00000 -0.00000 0.7500 0.3742
early_tubeh2
0 -4.00000 -10.00813 50.31428 -0.98264 -0.07100 0.17141 0.9218 0.3931
0 -4.50000 -9.48139 47.66616 -0.98264 -0.07100 0.17141 0.9259 0.3724
0 -4.50000 -27.00071 40.40942 -0.98264 -0.07100 0.17141 0.7891 0.3157
early_tubeh2
0 -4.00000 -10.00813 50.31428 -0.98264 -0.07100 0.17141 0.9218 0.3931
0 -4.50000 -27.00071 40.40942 -0.98264 -0.07100 0.17141 0.7891 0.3157
0 -4.00000 -28.50075 42.65439 -0.98264 -0.07100 0.17141 0.7773 0.3332
early_tubeh2
0 -4.50000 -9.48139 47.66616 -0.89767 -0.16864 0.40713 0.9259 0.3724
0 -5.80000 -8.95465 45.01804 -0.89767 -0.16864 0.40713 0.9300 0.3517
0 -5.80000 -25.50067 38.16446 -0.89767 -0.16864 0.40713 0.8008 0.2982
early_tubeh2
0 -4.50000 -9.48139 47.66616 -0.89767 -0.16864 0.40713 0.9259 0.3724
0 -5.80000 -25.50067 38.16446 -0.89767 -0.16864 0.40713 0.8008 0.2982
0 -4.50000 -27.00071 40.40942 -0.89767 -0.16864 0.40713 0.7891 0.3157
early_tubeh2
0 -5.80000 -8.95465 45.01804 -0.74826 -0.25387 0.61291 0.9300 0.3517
0 -7.60000 -8.55081 42.98782 -0.74826 -0.25387 0.61291 0.9332 0.3358
0 -7.60000 -24.35064 36.44331 -0.74826 -0.25387 0.61291 0.8098 0.2847
early_tubeh2
0 -5.80000 -8.95465 45.01804 -0.74826 -0.25387 0.61291 0.9300 0.3517
0 -7.60000 -24.35064 36.44331 -0.74826 -0.25387 0.61291 0.8098 0.2847
0 -5.80000 -25.50067 38.16446 -0.74826 -0.25387 0.61291 0.8008 0.2982
early_tubeh2
0 -7.60000 -8.55081 42.98782 -0.53015 -0.32448 0.78336 0.9332 0.3358
0 -10.00000 -8.25232 41.48722 -0.53015 -0.32448 0.78336 0.9355 0.3241
0 -10.00000 -23.50062 35.17116 -0.53015 -0.32448 0.78336 0.8164 0.2748
early_tubeh2
0 -7.60000 -8.55081 42.98782 -0.53015 -0.32448 0.78336 0.9332 0.3358
0 -10.00000 -23.50062 35.17116 -0.53015 -0.32448 0.78336 0.8164 0.2748
0 -7.60000 -24.35064 36.44331 -0.53015 -0.32448 0.78336 0.8098 0.2847
early_tube_lip
0 -10.00000 -8.25232 41.48722 0.00000 0.38268 -0.92388 0.9355 0.3241
0 10.00000 -8.25232 41.48722 0.00000 0.38268 -0.92388 0.9355 0.3241
0 10.00000 -23.50062 35.17116 0.00000 0.38268 -0.92388 0.8164 0.2748
early_tube_lip
0 -10.00000 -8.25232 41.48722 0.00000 0.38268 -0.92388 0.9355 0.3241
0 10.00000 -23.50062 35.17116 0.00000 0.38268 -0.92388 0.8164 0.2748
0 -10.00000 -23.50062 35.17116 0.00000 0.38268 -0.92388 0.8164 0.2748
early_tubeh2
0 10.00000 -8.25232 41.48722 0.53015 -0.32448 0.78336 0.9355 0.3241
0 7.60000 -8.55081 42.98782 0.53015 -0.32448 0.78336 0.9332 0.3358
0 7.60000 -24.35064 36.44331 0.53015 -0.32448 0.78336 0.8098 0.2847
early_tubeh2
0 10.00000 -8.25232 41.48722 0.53015 -0.32448 0.78336 0.9355 0.3241
0 7.60000 -24.35064 36.44331 0.53015 -0.32448 0.78336 0.8098 0.2847
0 10.00000 -23.50062 35.17116 0.53015 -0.32448 0.78336 0.8164 0.2748
early_tubeh2
0 7.60000 -8.55081 42.98782 0.74826 -0.25387 0.61291 0.9332 0.3358
0 5.80000 -8.95465 45.01804 0.74826 -0.25387 0.61291 0.9300 0.3517
0 5.80000 -25.50067 38.16446 0.74826 -0.25387 0.61291 0.8008 0.2982
early_tubeh2
0 7.60000 -8.55081 42.98782 0.74826 -0.25387 0.61291 0.9332 0.3358
0 5.80000 -25.50067 38.16446 0.74826 -0.25387 0.61291 0.8008 0.2982
0 7.60000 -24.35064 36.44331 0.74826 -0.25387 0.61291 0.8098 0.2847
early_tubeh2
0 5.80000 -8.95465 45.01804 0.89767 -0.16864 0.40713 0.9300 0.3517
0 4.50000 -9.48139 47.66616 0.89767 -0.16864 0.40713 0.9259 0.3724
0 4.50000 -27.00071 40.40942 0.89767 -0.16864 0.40713 0.7891 0.3157
early_tubeh2
0 5.80000 -8.95465 45.01804 0.89767 -0.16864 0.40713 0.9300 0.3517
0 4.50000 -27.00071 40.40942 0.89767 -0.16864 0.40713 0.7891 0.3157
0 5.80000 -25.50067 38.16446 0.89767 -0.16864 0.40713 0.8008 0.2982
early_tubeh2
0 4.50000 -9.48139 47.66616 0.98264 -0.07100 0.17141 0.9259 0.3724
0 4.00000 -10.00813 50.31428 0.98264 -0.07100 0.17141 0.9218 0.3931
0 4.00000 -28.50075 42.65439 0.98264 -0.07100 0.17141 0.7773 0.3332
early_tubeh2
0 4.50000 -9.48139 47.66616 0.98264 -0.07100 0.17141 0.9259 0.3724
0 4.00000 -28.50075 42.65439 0.98264 -0.07100 0.17141 0.7773 0.3332
0 4.50000 -27.00071 40.40942 0.98264 -0.07100 0.17141 0.7891 0.3157
early_tube2
0 4.00000 -10.00813 50.31428 1.00000 0.00000 0.00000 0.9218 0.3931
0 4.00000 -11.23720 56.49323 1.00000 0.00000 0.00000 0.9122 0.4414
0 4.00000 -32.00085 47.89265 1.00000 0.00000 0.00000 0.7500 0.3742
early_tube2
0 4.00000 -10.00813 50.31428 1.00000 0.00000 0.00000 0.9218 0.3931
0 4.00000 -32.00085 47.89265 1.00000 0.00000 0.00000 0.7500 0.3742
0 4.00000 -28.50075 42.65439 1.00000 0.00000 0.00000 0.7773 0.3332
early_tube2
0 4.00000 -11.23720 56.49323 0.00000 -0.38268 0.92388 0.9122 0.4414
0 -4.00000 -11.23720 56.49323 0.00000 -0.38268 0.92388 0.9122 0.4414
0 -4.00000 -32.00085 47.89265 0.00000 -0.38268 0.92388 0.7500 0.3742
early_tube2
0 4.00000 -11.23720 56.49323 0.00000 -0.38268 0.92388 0.9122 0.4414
0 -4.00000 -32.00085 47.89265 0.00000 -0.38268 0.92388 0.7500 0.3742
0 4.00000 -32.00085 47.89265 0.00000 -0.38268 0.92388 0.7500 0.3742
early_tube1
0 -4.00000 -32.00085 47.89265 -1.00000 0.00000 -0.00000 0.7500 0.3742
0 -4.00000 -28.50075 42.65439 -1.00000 0.00000 -0.00000 0.7773 0.3332
0 -4.00000 -42.65439 28.50075 -1.00000 0.00000 -0.00000 0.6668 0.2227
early_tube1
0 -4.00000 -32.00085 47.89265 -1.00000 0.00000 -0.00000 0.7500 0.3742
0 -4.00000 -42.65439 28.50075 -1.00000 0.00000 -0.00000 0.6668 0.2227
0 -4.00000 -47.89265 32.00085 -1.00000 0.00000 -0.00000 0.6258 0.2500
early_tubeh1
0 -4.00000 -28.50075 42.65439 -0.98264 -0.13119 0.13119 0.7773 0.3332
0 -4.50000 -27.00071 40.40942 -0.98264 -0.13119 0.13119 0.7891 0.3157
0 -4.50000 -40.40942 27.00071 -0.98264 -0.13119 0.13119 0.6843 0.2109
early_tubeh1
0 -4.00000 -28.50075 42.65439 -0.98264 -0.13119 0.13119 0.7773 0.3332
0 -4.50000 -40.40942 27.00071 -0.98264 -0.13119 0.13119 0.6843 0.2109
0 -4.00000 -42.65439 28.50075 -0.98264 -0.13119 0.13119 0.6668 0.2227
early_tubeh1
0 -4.50000 -27.00071 40.40942 -0.89767 -0.31161 0.31161 0.7891 0.3157
0 -5.80000 -25.50067 38.16446 -0.89767 -0.31161 0.31161 0.8008 0.2982
0 -5.80000 -38.16446 25.50067 -0.89767 -0.31161 0.31161 0.7018 0.1992
early_tubeh1
0 -4.50000 -27.00071 40.40942 -0.89767 -0.31161 0.31161 0.7891 0.3157
0 -5.80000 -38.16446 25.50067 -0.89767 -0.31161 0.31161 0.7018 0.1992
0 -4.50000 -40.40942 27.00071 -0.89767 -0.31161 0.31161 0.6843 0.2109
early_tubeh1
0 -5.80000 -25.50067 38.16446 -0.74826 -0.46910 0.46910 0.8008 0.2982
0 -7.60000 -24.35064 36.44331 -0.74826 -0.46910 0.46910 0.8098 0.2847
0 -7.60000 -36.44331 24.35064 -0.74826 -0.46910 0.46910 0.7153 0.1902
early_tubeh1
0 -5.80000 -25.50067 38.16446 -0.74826 -0.46910 0.46910 0.8008 0.2982
0 -7.60000 -36.44331 24.35064 -0.74826 -0.46910 0.46910 0.7153 0.1902
0 -5.80000 -38.16446 25.50067 -0.74826 -0.46910 0.46910 0.7018 0.1992
early_tubeh1
0 -7.60000 -24.35064 36.44331 -0.53015 -0.59956 0.59956 0.8098 0.2847
0 -10.00000 -23.50062 35.17116 -0.53015 -0.59956 0.59956 0.8164 0.2748
0 -10.00000 -35.17116 23.50062 -0.53015 -0.59956 0.59956 0.7252 0.1836
early_tubeh1
0 -7.60000 -24.35064 36.44331 -0.53015 -0.59956 0.59956 0.8098 0.2847
0 -10.00000 -35.17116 23.50062 -0.53015 -0.59956 0.59956 0.7252 0.1836
0 -7.60000 -36.44331 24.35064 -0.53015 -0.59956 0.59956 0.7153 0.1902
early_tube_lip
0 -10.00000 -23.50062 35.17116 0.00000 0.70711 -0.70711 0.8164 0.2748
0 10.00000 -23.50062 35.17116 0.00000 0.70711 -0.70711 0.8164 0.2748
0 10.00000 -35.17116 23.50062 0.00000 0.70711 -0.70711 0.7252 0.1836
early_tube_lip
0 -10.00000 -23.50062 35.17116 0.00000 0.70711 -0.70711 0.8164 0.2748
0 10.00000 -35.17116 23.50062 0.00000 0.70711 -0.70711 0.7252 0.1836
0 -10.00000 -35.17116 23.50062 0.00000 0.70711 -0.70711 0.7252 0.1836
early_tubeh1
0 10.00000 -23.50062 35.17116 0.53015 -0.59956 0.59956 0.8164 0.2748
0 7.60000 -24.35064 36.44331 0.53015 -0.59956 0.59956 0.8098 0.2847
0 7.60000 -36.44331 24.35064 0.53015 -0.59956 0.59956 0.7153 0.1902
early_tubeh1
0 10.00000 -23.50062 35.17116 0.53015 -0.59956 0.59956 0.8164 0.2748
0 7.60000 -36.44331 24.35064 0.53015 -0.59956 0.59956 0.7153 0.1902
0 10.00000 -35.17116 23.50062 0.53015 -0.59956 0.59956 0.7252 0.1836
early_tubeh1
0 7.60000 -24.35064 36.44331 0.74826 -0.46910 0.46910 0.8098 0.2847
0 5.80000 -25.50067 38.16446 0.74826 -0.46910 0.46910 0.8008 0.2982
0 5.80000 -38.16446 25.50067 0.74826 -0.46910 0.46910 0.7018 0.1992
early_tubeh1
0 7.60000 -24.35064 36.44331 0.74826 -0.46910 0.46910 0.8098 0.2847
0 5.80000 -38.16446 25.50067 0.74826 -0.46910 0.46910 0.7018 0.1992
0 7.60000 -36.44331 24.35064 0.74826 -0.46910 0.46910 0.7153 0.1902
early_tubeh1
0 5.80000 -25.50067 38.16446 0.89767 -0.31161 0.31161 0.8008 0.2982
0 4.50000 -27.00071 40.40942 0.89767 -0.31161 0.31161 0.7891 0.3157
0 4.50000 -40.40942 27.00071 0.89767 -0.31161 0.31161 0.6843 0.2109
early_tubeh1
0 5.80000 -25.50067 38.16446 0.89767 -0.31161 0.31161 0.8008 0.2982
0 4.50000 -40.40942 27.00071 0.89767 -0.31161 0.31161 0.6843 0.2109
0 5.80000 -38.16446 25.50067 0.89767 -0.31161 0.31161 0.7018 0.1992
early_tubeh1
0 4.50000 -27.00071 40.40942 0.98264 -0.13119 0.13119 0.7891 0.3157
0 4.00000 -28.50075 42.65439 0.98264 -0.13119 0.13119 0.7773 0.3332
0 4.00000 -42.65439 28.50075 0.98264 -0.13119 0.13119 0.6668 0.2227
early_tubeh1
0 4.50000 -27.00071 40.40942 0.98264 -0.13119 0.13119 0.7891 0.3157
0 4.00000 -42.65439 28.50075 0.98264 -0.13119 0.13119 0.6668 0.2227
0 4.50000 -40.40942 27.00071 0.98264 -0.13119 0.13119 0.6843 0.2109
early_tube1
0 4.00000 -28.50075 42.65439 1.00000 0.00000 0.00000 0.7773 0.3332
0 4.00000 -32.00085 47.89265 1.00000 0.00000 0.00000 0.7500 0.3742
0 4.00000 -47.89265 32.00085 1.00000 0.00000 0.00000 0.6258 0.2500
early_tube1
0 4.00000 -28.50075 42.65439 1.00000 0.00000 0.00000 0.7773 0.3332
0 4.00000 -47.89265 32.00085 1.00000 0.00000 0.00000 0.6258 0.2500
0 4.00000 -42.65439 28.50075 1.00000 0.00000 0.00000 0.6668 0.2227
early_tube1
0 4.00000 -32.00085 47.89265 0.00000 -0.70711 0.70711 0.7500 0.3742
0 -4.00000 -32.00085 47.89265 0.00000 -0.70711 0.70711 0.7500 0.3742
0 -4.00000 -47.89265 32.00085 0.00000 -0.70711 0.70711 0.6258 0.2500
early_tube1
0 4.00000 -32.00085 47.89265 0.00000 -0.70711 0.70711 0.7500 0.3742
0 -4.00000 -47.89265 32.00085 0.00000 -0.70711 0.70711 0.6258 0.2500
0 4.00000 -47.89265 32.00085 0.00000 -0.70711 0.70711 0.6258 0.2500
early_tube1
0 -4.00000 -47.89265 32.00085 -1.00000 0.00000 -0.00000 0.6258 0.2500
0 -4.00000 -42.65439 28.50075 -1.00000 0.00000 -0.00000 0.6668 0.2227
0 -4.00000 -50.31428 10.00813 -1.00000 0.00000 -0.00000 0.6069 0.0782
early_tube1
0 -4.00000 -47.89265 32.00085 -1.00000 0.00000 -0.00000 0.6258 0.2500
0 -4.00000 -50.31428 10.00813 -1.00000 0.00000 -0.00000 0.6069 0.0782
0 -4.00000 -56.49323 11.23720 -1.00000 0.00000 -0.00000 0.5586 0.0878
early_tubeh1
0 -4.00000 -42.65439 28.50075 -0.98264 -0.17141 0.07100 0.6668 0.2227
0 -4.50000 -40.40942 27.00071 -0.98264 -0.17141 0.07100 0.6843 0.2109
0 -4.50000 -47.66616 9.48139 -0.98264 -0.17141 0.07100 0.6276 0.0741
early_tubeh1
0 -4.00000 -42.65439 28.50075 -0.98264 -0.17141 0.07100 0.6668 0.2227
0 -4.50000 -47.66616 9.48139 -0.98264 -0.17141 0.07100 0.6276 0.0741
0 -4.00000 -50.31428 10.00813 -0.98264 -0.17141 0.07100 0.6069 0.0782
early_tubeh1
0 -4.50000 -40.40942 27.00071 -0.89767 -0.40713 0.16864 0.6843 0.2109
0 -5.80000 -38.16446 25.50067 -0.89767 -0.40713 0.16864 0.7018 0.1992
0 -5.80000 -45.01804 8.95465 -0.89767 -0.40713 0.16864 0.6483 0.0700
early_tubeh1
0 -4.50000 -40.40942 27.00071 -0.89767 -0.40713 0.16864 0.6843 0.2109
0 -5.80000 -45.01804 8.95465 -0.89767 -0.40713 0.16864 0.6483 0.0700
0 -4.50000 -47.66616 9.48139 -0.89767 -0.40713 0.16864 0.6276 0.0741
early_tubeh1
0 -5.80000 -38.16446 25.50067 -0.74826 -0.61291 0.25387 0.7018 0.1992
0 -7.60000 -36.44331 24.35064 -0.74826 -0.61291 0.25387 0.7153 0.1902
0 -7.60000 -42.98782 8.55081 -0.74826 -0.61291 0.25387 0.6642 0.0668
early_tubeh1
0 -5.80000 -38.16446 25.50067 -0.74826 -0.61291 0.25387 0.7018 0.1992
0 -7.60000 -42.98782 8.55081 -0.74826 -0.61291 0.25387 0.6642 0.0668
0 -5.80000 -45.01804 8.95465 -0.74826 -0.61291 0.25387 0.6483 0.0700
early_tubeh1
0 -7.60000 -36.44331 24.35064 -0.53015 -0.78336 0.32448 0.7153 0.1902
0 -10.00000 -35.17116 23.50062 -0.53015 -0.78336 0.32448 0.7252 0.1836
0 -10.00000 -41.48722 8.25232 -0.53015 -0.78336 0.32448 0.6759 0.0645
early_tubeh1
0 -7.60000 -36.44331 24.35064 -0.53015 -0.78336 0.32448 0.7153 0.1902
0 -10.00000 -41.48722 8.25232 -0.53015 -0.78336 0.32448 0.6759 0.0645
0 -7.60000 -42.98782 8.55081 -0.53015 -0.78336 0.32448 0.6642 0.0668
early_tube_lip
0 -10.00000 -35.17116 23.50062 0.00000 0.92388 -0.38268 0.7252 0.1836
0 10.00000 -35.17116 23.50062 0.00000 0.92388 -0.38268 0.7252 0.1836
0 10.00000 -41.48722 8.25232 0.00000 0.92388 -0.38268 0.6759 0.0645
early_tube_lip
0 -10.00000 -35.17116 23.50062 0.00000 0.92388 -0.38268 0.7252 0.1836
0 10.00000 -41.48722 8.25232 0.00000 0.92388 -0.38268 0.6759 0.0645
0 -10.00000 -41.48722 8.25232 0.00000 0.92388 -0.38268 0.6759 0.0645
early_tubeh1
0 10.00000 -35.17116 23.50062 0.53015 -0.78336 0.32448 0.7252 0.1836
0 7.60000 -36.44331 24.35064 0.53015 -0.78336 0.32448 0.7153 0.1902
0 7.60000 -42.98782 8.55081 0.53015 -0.78336 0.32448 0.6642 0.0668
early_tubeh1
0 10.00000 -35.17116 23.50062 0.53015 -0.78336 0.32448 0.7252 0.1836
0 7.60000 -42.98782 8.55081 0.53015 -0.78336 0.32448 0.6642 0.0668
0 10.00000 -41.48722 8.25232 0.53015 -0.78336 0.32448 0.6759 0.0645
early_tubeh1
0 7.60000 -36.44331 24.35064 0.74826 -0.61291 0.25387 0.7153 0.1902
0 5.80000 -38.16446 25.50067 0.74826 -0.61291 0.25387 0.7018 0.1992
0 5.80000 -45.01804 8.95465 0.74826 -0.61291 0.25387 0.6483 0.0700
early_tubeh1
0 7.60000 -36.44331 24.35064 0.74826 -0.61291 0.25387 0.7153 0.1902
0 5.80000 -45.01804 8.95465 0.74826 -0.61291 0.25387 0.6483 0.0700
0 7.60000 -42.98782 8.55081 0.74826 -0.61291 0.25387 0.6642 0.0668
early_tubeh1
0 5.80000 -38.16446 25.50067 0.89767 -0.40713 0.16864 0.7018 0.1992
0 4.50000 -40.40942 27.00071 0.89767 -0.40713 0.16864 0.6843 0.2109
0 4.50000 -47.66616 9.48139 0.89767 -0.40713 0.16864 0.6276 0.0741
early_tubeh1
0 5.80000 -38.16446 25.50067 0.89767 -0.40713 0.16864 0.7018 0.1992
0 4.50000 -47.66616 9.48139 0.89767 -0.40713 0.16864 0.6276 0.0741
0 5.80000 -45.01804 8.95465 0.89767 -0.40713 0.16864 0.6483 0.0700
early_tubeh1
0 4.50000 -40.40942 27.00071 0.98264 -0.17141 0.07100 0.6843 0.2109
0 4.00000 -42.65439 28.50075 0.98264 -0.17141 0.07100 0.6668 0.2227
0 4.00000 -50.31428 10.00813 0.98264 -0.17141 0.07100 0.6069 0.0782
early_tubeh1
0 4.50000 -40.40942 27.00071 0.98264 -0.17141 0.07100 0.6843 0.2109
0 4.00000 -50.31428 10.00813 0.98264 -0.17141 0.07100 0.6069 0.0782
0 4.50000 -47.66616 9.48139 0.98264 -0.17141 0.07100 0.6276 0.0741
early_tube1
0 4.00000 -42.65439 28.50075 1.00000 0.00000 0.00000 0.6668 0.2227
0 4.00000 -47.89265 32.00085 1.00000 0.00000 0.00000 0.6258 0.2500
0 4.00000 -56.49323 11.23720 1.00000 0.00000 0.00000 0.5586 0.0878
early_tube1
0 4.00000 -42.65439 28.50075 1.00000 0.00000 0.00000 0.6668 0.2227
0 4.00000 -56.49323 11.23720 1.00000 0.00000 0.00000 0.5586 0.0878
0 4.00000 -50.31428 10.00813 1.00000 0.00000 0.00000 0.6069 0.0782
early_tube1
0 4.00000 -47.89265 32.00085 0.00000 -0.92388 0.38268 0.6258 0.2500
0 -4.00000 -47.89265 32.00085 0.00000 -0.92388 0.38268 0.6258 0.2500
0 -4.00000 -56.49323 11.23720 0.00000 -0.92388 0.38268 0.5586 0.0878
early_tube1
0 4.00000 -47.89265 32.00085 0.00000 -0.92388 0.38268 0.6258 0.2500
0 -4.00000 -56.49323 11.23720 0.00000 -0.92388 0.38268 0.5586 0.0878
0 4.00000 -56.49323 11.23720 0.00000 -0.92388 0.38268 0.5586 0.0878
early_tube0
0 -4.00000 -56.49323 11.23720 -1.00000 0.00000 0.00000 0.5586 0.0878
0 -4.00000 -50.31428 10.00813 -1.00000 0.00000 0.00000 0.6069 0.0782
0 -4.00000 -50.31428 -10.00813 -1.00000 0.00000 0.00000 0.6069 0.9218
early_tube0
0 -4.00000 -56.49323 11.23720 -1.00000 0.00000 0.00000 0.5586 0.0878
0 -4.00000 -50.31428 -10.00813 -1.00000 0.00000 0.00000 0.6069 0.9218
0 -4.00000 -56.49323 -11.23720 -1.00000 0.00000 0.00000 0.5586 0.9122
early_tubeh0
0 -4.00000 -50.31428 10.00813 -0.98264 -0.18553 0.00000 0.6069 0.0782
0 -4.50000 -47.66616 9.48139 -0.98264 -0.18553 0.00000 0.6276 0.0741
0 -4.50000 -47.66616 -9.48139 -0.98264 -0.18553 0.00000 0.6276 0.9259
early_tubeh0
0 -4.00000 -50.31428 10.00813 -0.98264 -0.18553 0.00000 0.6069 0.0782
0 -4.50000 -47.66616 -9.48139 -0.98264 -0.18553 0.00000 0.6276 0.9259
0 -4.00000 -50.31428 -10.00813 -0.98264 -0.18553 0.00000 0.6069 0.9218
early_tubeh0
0 -4.50000 -47.66616 9.48139 -0.89767 -0.44068 0.00000 0.6276 0.0741
0 -5.80000 -45.01804 8.95465 -0.89767 -0.44068 0.00000 0.6483 0.0700
0 -5.80000 -45.01804 -8.95465 -0.89767 -0.44068 0.00000 0.6483 0.9300
early_tubeh0
0 -4.50000 -47.66616 9.48139 -0.89767 -0.44068 0.00000 0.6276 0.0741
0 -5.80000 -45.01804 -8.95465 -0.89767 -0.44068 0.00000 0.6483 0.9300
0 -4.50000 -47.66616 -9.48139 -0.89767 -0.44068 0.00000 0.6276 0.9259
early_tubeh0
0 -5.80000 -45.01804 8.95465 -0.74826 -0.66341 0.00000 0.6483 0.0700
0 -7.60000 -42.98782 8.55081 -0.74826 -0.66341 0.00000 0.6642 0.0668
0 -7.60000 -42.98782 -8.55081 -0.74826 -0.66341 0.00000 0.6642 0.9332
early_tubeh0
0 -5.80000 -45.01804 8.95465 -0.74826 -0.66341 0.00000 0.6483 0.0700
0 -7.60000 -42.98782 -8.55081 -0.74826 -0.66341 0.00000 0.6642 0.9332
0 -5.80000 -45.01804 -8.95465 -0.74826 -0.66341 0.00000 0.6483 0.9300
early_tubeh0
0 -7.60000 -42.98782 8.55081 -0.53015 -0.84790 0.00000 0.6642 0.0668
0 -10.00000 -41.48722 8.25232 -0.53015 -0.84790 0.00000 0.6759 0.0645
0 -10.00000 -41.48722 -8.25232 -0.53015 -0.84790 0.00000 0.6759 0.9355
early_tubeh0
0 -7.60000 -42.98782 8.55081 -0.53015 -0.84790 0.00000 0.6642 0.0668
0 -10.00000 -41.48722 -8.25232 -0.53015 -0.84790 0.00000 0.6759 0.9355
0 -7.60000 -42.98782 -8.55081 -0.53015 -0.84790 0.00000 0.6642 0.9332
early_tube_lip
0 -10.00000 -41.48722 8.25232 -0.00000 1.00000 0.00000 0.6759 0.0645
0 10.00000 -41.48722 8.25232 -0.00000 1.00000 0.00000 0.6759 0.0645
0 10.00000 -41.48722 -8.25232 -0.00000 1.00000 0.00000 0.6759 0.9355
early_tube_lip
0 -10.00000 -41.48722 8.25232 -0.00000 1.00000 0.00000 0.6759 0.0645
0 10.00000 -41.48722 -8.25232 -0.00000 1.00000 0.00000 0.6759 0.9355
0 -10.00000 -41.48722 -8.25232 -0.00000 1.00000 0.00000 0.6759 0.9355
early_tubeh0
0 10.00000 -41.48722 8.25232 0.53015 -0.84790 0.00000 0.6759 0.0645
0 7.60000 -42.98782 8.55081 0.53015 -0.84790 0.00000 0.6642 0.0668
0 7.60000 -42.98782 -8.55081 0.53015 -0.84790 0.00000 0.6642 0.9332
early_tubeh0
0 10.00000 -41.48722 8.25232 0.53015 -0.84790 0.00000 0.6759 0.0645
0 7.60000 -42.98782 -8.55081 0.53015 -0.84790 0.00000 0.6642 0.9332
0 10.00000 -41.48722 -8.25232 0.53015 -0.84790 0.00000 0.6759 0.9355
early_tubeh0
0 7.60000 -42.98782 8.55081 0.74826 -0.66341 0.00000 0.6642 0.0668
0 5.80000 -45.01804 8.95465 0.74826 -0.66341 0.00000 0.6483 0.0700
0 5.80000 -45.01804 -8.95465 0.74826 -0.66341 0.00000 0.6483 0.9300
early_tubeh0
0 7.60000 -42.98782 8.55081 0.74826 -0.66341 0.00000 0.6642 0.0668
0 5.80000 -45.01804 -8.95465 0.74826 -0.66341 0.00000 0.6483 0.9300
0 7.60000 -42.98782 -8.55081 0.74826 -0.66341 0.00000 0.6642 0.9332
early_tubeh0
0 5.80000 -45.01804 8.95465 0.89767 -0.44068 0.00000 0.6483 0.0700
0 4.50000 -47.66616 9.48139 0.89767 -0.44068 0.00000 0.6276 0.0741
0 4.50000 -47.66616 -9.48139 0.89767 -0.44068 0.00000 0.6276 0.9259
early_tubeh0
0 5.80000 -45.01804 8.95465 0.89767 -0.44068 0.00000 0.6483 0.0700
0 4.50000 -47.66616 -9.48139 0.89767 -0.44068 0.00000 0.6276 0.9259
0 5.80000 -45.01804 -8.95465 0.89767 -0.44068 0.00000 0.6483 0.9300
early_tubeh0
0 4.50000 -47.66616 9.48139 0.98264 -0.18553 0.00000 0.6276 0.0741
0 4.00000 -50.31428 10.00813 0.98264 -0.18553 0.00000 0.6069 0.0782
0 4.00000 -50.31428 -10.00813 0.98264 -0.18553 0.00000 0.6069 0.9218
early_tubeh0
0 4.50000 -47.66616 9.48139 0.98264 -0.18553 0.00000 0.6276 0.0741
0 4.00000 -50.31428 -10.00813 0.98264 -0.18553 0.00000 0.6069 0.9218
0 4.50000 -47.66616 -9.48139 0.98264 -0.18553 0.00000 0.6276 0.9259
early_tube0
0 4.00000 -50.31428 10.00813 1.00000 0.00000 0.00000 0.6069 0.0782
0 4.00000 -56.49323 11.23720 1.00000 0.00000 0.00000 0.5586 0.0878
0 4.00000 -56.49323 -11.23720 1.00000 0.00000 0.00000 0.5586 0.9122
early_tube0
0 4.00000 -50.31428 10.00813 1.00000 0.00000 0.00000 0.6069 0.0782
0 4.00000 -56.49323 -11.23720 1.00000 0.00000 0.00000 0.5586 0.9122
0 4.00000 -50.31428 -10.00813 1.00000 0.00000 0.00000 0.6069 0.9218
early_tube0
0 4.00000 -56.49323 11.23720 -0.00000 -1.00000 0.00000 0.5586 0.0878
0 -4.00000 -56.49323 11.23720 -0.00000 -1.00000 0.00000 0.5586 0.0878
0 -4.00000 -56.49323 -11.23720 -0.00000 -1.00000 0.00000 0.5586 0.9122
early_tube0
0 4.00000 -56.49323 11.23720 -0.00000 -1.00000 0.00000 0.5586 0.0878
0 -4.00000 -56.49323 -11.23720 -0.00000 -1.00000 0.00000 0.5586 0.9122
0 4.00000 -56.49323 -11.23720 -0.00000 -1.00000 0.00000 0.5586 0.9122
early_tube0
0 -4.00000 -56.49323 -11.23720 -1.00000 0.00000 0.00000 0.5586 0.9122
0 -4.00000 -50.31428 -10.00813 -1.00000 0.00000 0.00000 0.6069 0.9218
0 -4.00000 -42.65439 -28.50075 -1.00000 0.00000 0.00000 0.6668 0.7773
early_tube0
0 -4.00000 -56.49323 -11.23720 -1.00000 0.00000 0.00000 0.5586 0.9122
0 -4.00000 -42.65439 -28.50075 -1.00000 0.00000 0.00000 0.6668 0.7773
0 -4.00000 -47.89265 -32.00085 -1.00000 0.00000 0.00000 0.6258 0.7500
early_tubeh0
0 -4.00000 -50.31428 -10.00813 -0.98264 -0.17141 -0.07100 0.6069 0.9218
0 -4.50000 -47.66616 -9.48139 -0.98264 -0.17141 -0.07100 0.6276 0.9259
0 -4.50000 -40.40942 -27.00071 -0.98264 -0.17141 -0.07100 0.6843 0.7891
early_tubeh0
0 -4.00000 -50.31428 -10.00813 -0.98264 -0.17141 -0.07100 0.6069 0.9218
0 -4.50000 -40.40942 -27.00071 -0.98264 -0.17141 -0.07100 0.6843 0.7891
0 -4.00000 -42.65439 -28.50075 -0.98264 -0.17141 -0.07100 0.6668 0.7773
early_tubeh0
0 -4.50000 -47.66616 -9.48139 -0.89767 -0.40713 -0.16864 0.6276 0.9259
0 -5.80000 -45.01804 -8.95465 -0.89767 -0.40713 -0.16864 0.6483 0.9300
0 -5.80000 -38.16446 -25.50067 -0.89767 -0.40713 -0.16864 0.7018 0.8008
early_tubeh0
0 -4.50000 -47.66616 -9.48139 -0.89767 -0.40713 -0.16864 0.6276 0.9259
0 -5.80000 -38.16446 -25.50067 -0.89767 -0.40713 -0.16864 0.7018 0.8008
0 -4.50000 -40.40942 -27.00071 -0.89767 -0.40713 -0.16864 0.6843 0.7891
early_tubeh0
0 -5.80000 -45.01804 -8.95465 -0.74826 -0.61291 -0.25387 0.6483 0.9300
0 -7.60000 -42.98782 -8.55081 -0.74826 -0.61291 -0.25387 0.6642 0.9332
0 -7.60000 -36.44331 -24.35064 -0.74826 -0.61291 -0.25387 0.7153 0.8098
early_tubeh0
0 -5.80000 -45.01804 -8.95465 -0.74826 -0.61291 -0.25387 0.6483 0.9300
0 -7.60000 -36.44331 -24.35064 -0.74826 -0.61291 -0.25387 0.7153 0.8098
0 -5.80000 -38.16446 -25.50067 -0.74826 -0.61291 -0.25387 0.7018 0.8008
early_tubeh0
0 -7.60000 -42.98782 -8.55081 -0.53015 -0.78336 -0.32448 0.6642 0.9332
0 -10.00000 -41.48722 -8.25232 -0.53015 -0.78336 -0.32448 0.6759 0.9355
0 -10.00000 -35.17116 -23.50062 -0.53015 -0.78336 -0.32448 0.7252 0.8164
early_tubeh0
0 -7.60000 -42.98782 -8.55081 -0.53015 -0.78336 -0.32448 0.6642 0.9332
0 -10.00000 -35.17116 -23.50062 -0.53015 -0.78336 -0.32448 0.7252 0.8164
0 -7.60000 -36.44331 -24.35064 -0.53015 -0.78336 -0.32448 0.7153 0.8098
early_tube_lip
0 -10.00000 -41.48722 -8.25232 -0.00000 0.92388 0.38268 0.6759 0.9355
0 10.00000 -41.48722 -8.25232 -0.00000 0.92388 0.38268 0.6759 0.9355
0 10.00000 -35.17116 -23.50062 -0.00000 0.92388 0.38268 0.7252 0.8164
early_tube_lip
0 -10.00000 -41.48722 -8.25232 -0.00000 0.92388 0.38268 0.6759 0.9355
0 10.00000 -35.17116 -23.50062 -0.00000 0.92388 0.38268 0.7252 0.8164
0 -10.00000 -35.17116 -23.50062 -0.00000 0.92388 0.38268 0.7252 0.8164
early_tubeh0
0 10.00000 -41.48722 -8.25232 0.53015 -0.78336 -0.32448 0.6759 0.9355
0 7.60000 -42.98782 -8.55081 0.53015 -0.78336 -0.32448 0.6642 0.9332
0 7.60000 -36.44331 -24.35064 0.53015 -0.78336 -0.32448 0.7153 0.8098
early_tubeh0
0 10.00000 -41.48722 -8.25232 0.53015 -0.78336 -0.32448 0.6759 0.9355
0 7.60000 -36.44331 -24.35064 0.53015 -0.78336 -0.32448 0.7153 0.8098
0 10.00000 -35.17116 -23.50062 0.53015 -0.78336 -0.32448 0.7252 0.8164
early_tubeh0
0 7.60000 -42.98782 -8.55081 0.74826 -0.61291 -0.25387 0.6642 0.9332
0 5.80000 -45.01804 -8.95465 0.74826 -0.61291 -0.25387 0.6483 0.9300
0 5.80000 -38.16446 -25.50067 0.74826 -0.61291 -0.25387 0.7018 0.8008
early_tubeh0
0 7.60000 -42.98782 -8.55081 0.74826 -0.61291 -0.25387 0.6642 0.9332
0 5.80000 -38.16446 -25.50067 0.74826 -0.61291 -0.25387 0.7018 0.8008
0 7.60000 -36.44331 -24.35064 0.74826 -0.61291 -0.25387 0.7153 0.8098
early_tubeh0
0 5.80000 -45.01804 -8.95465 0.89767 -0.40713 -0.16864 0.6483 0.9300
0 4.50000 -47.66616 -9.48139 0.89767 -0.40713 -0.16864 0.6276 0.9259
0 4.50000 -40.40942 -27.00071 0.89767 -0.40713 -0.16864 0.6843 0.7891
early_tubeh0
0 5.80000 -45.01804 -8.95465 0.89767 -0.40713 -0.16864 0.6483 0.9300
0 4.50000 -40.40942 -27.00071 0.89767 -0.40713 -0.16864 0.6843 0.7891
0 5.80000 -38.16446 -25.50067 0.89767 -0.40713 -0.16864 0.7018 0.8008
early_tubeh0
0 4.50000 -47.66616 -9.48139 0.98264 -0.17141 -0.07100 0.6276 0.9259
0 4.00000 -50.31428 -10.00813 0.98264 -0.17141 -0.07100 0.6069 0.9218
0 4.00000 -42.65439 -28.50075 0.98264 -0.17141 -0.07100 0.6668 0.7773
early_tubeh0
0 4.50000 -47.66616 -9.48139 0.98264 -0.17141 -0.07100 0.6276 0.9259
0 4.00000 -42.65439 -28.50075 0.98264 -0.17141 -0.07100 0.6668 0.7773
0 4.50000 -40.40942 -27.00071 0.98264 -0.17141 -0.07100 0.6843 0.7891
early_tube0
0 4.00000 -50.31428 -10.00813 1.00000 0.00000 0.00000 0.6069 0.9218
0 4.00000 -56.49323 -11.23720 1.00000 0.00000 0.00000 0.5586 0.9122
0 4.00000 -47.89265 -32.00085 1.00000 0.00000 0.00000 0.6258 0.7500
early_tube0
0 4.00000 -50.31428 -10.00813 1.00000 0.00000 0.00000 0.6069 0.9218
0 4.00000 -47.89265 -32.00085 1.00000 0.00000 0.00000 0.6258 0.7500
0 4.00000 -42.65439 -28.50075 1.00000 0.00000 0.00000 0.6668 0.7773
early_tube0
0 4.00000 -56.49323 -11.23720 -0.00000 -0.92388 -0.38268 0.5586 0.9122
0 -4.00000 -56.49323 -11.23720 -0.00000 -0.92388 -0.38268 0.5586 0.9122
0 -4.00000 -47.89265 -32.00085 -0.00000 -0.92388 -0.38268 0.6258 0.7500
early_tube0
0 4.00000 -56.49323 -11.23720 -0.00000 -0.92388 -0.38268 0.5586 0.9122
0 -4.00000 -47.89265 -32.00085 -0.00000 -0.92388 -0.38268 0.6258 0.7500
0 4.00000 -47.89265 -32.00085 -0.00000 -0.92388 -0.38268 0.6258 0.7500
early_tube0
0 -4.00000 -47.89265 -32.00085 -1.00000 0.00000 0.00000 0.6258 0.7500
0 -4.00000 -42.65439 -28.50075 -1.00000 0.00000 0.00000 0.6668 0.7773
0 -4.00000 -28.50075 -42.65439 -1.00000 0.00000 0.00000 0.7773 0.6668
early_tube0
0 -4.00000 -47.89265 -32.00085 -1.00000 0.00000 0.00000 0.6258 0.7500
0 -4.00000 -28.50075 -42.65439 -1.00000 0.00000 0.00000 0.7773 0.6668
0 -4.00000 -32.00085 -47.89265 -1.00000 0.00000 0.00000 0.7500 0.6258
early_tubeh0
0 -4.00000 -42.65439 -28.50075 -0.98264 -0.13119 -0.13119 0.6668 0.7773
0 -4.50000 -40.40942 -27.00071 -0.98264 -0.13119 -0.13119 0.6843 0.7891
0 -4.50000 -27.00071 -40.40942 -0.98264 -0.13119 -0.13119 0.7891 0.6843
early_tubeh0
0 -4.00000 -42.65439 -28.50075 -0.98264 -0.13119 -0.13119 0.6668 0.7773
0 -4.50000 -27.00071 -40.40942 -0.98264 -0.13119 -0.13119 0.7891 0.6843
0 -4.00000 -28.50075 -42.65439 -0.98264 -0.13119 -0.13119 0.7773 0.6668
early_tubeh0
0 -4.50000 -40.40942 -27.00071 -0.89767 -0.31161 -0.31161 0.6843 0.7891
0 -5.80000 -38.16446 -25.50067 -0.89767 -0.31161 -0.31161 0.7018 0.8008
0 -5.80000 -25.50067 -38.16446 -0.89767 -0.31161 -0.31161 0.8008 0.7018
early_tubeh0
0 -4.50000 -40.40942 -27.00071 -0.89767 -0.31161 -0.31161 0.6843 0.7891
0 -5.80000 -25.50067 -38.16446 -0.89767 -0.31161 -0.31161 0.8008 0.7018
0 -4.50000 -27.00071 -40.40942 -0.89767 -0.31161 -0.31161 0.7891 0.6843
early_tubeh0
0 -5.80000 -38.16446 -25.50067 -0.74826 -0.46910 -0.46910 0.7018 0.8008
0 -7.60000 -36.44331 -24.35064 -0.74826 -0.46910 -0.46910 0.7153 0.8098
0 -7.60000 -24.35064 -36.44331 -0.74826 -0.46910 -0.46910 0.8098 0.7153
early_tubeh0
0 -5.80000 -38.16446 -25.50067 -0.74826 -0.46910 -0.46910 0.7018 0.8008
0 -7.60000 -24.35064 -36.44331 -0.74826 -0.46910 -0.46910 0.8098 0.7153
0 -5.80000 -25.50067 -38.16446 -0.74826 -0.46910 -0.46910 0.8008 0.7018
early_tubeh0
0 -7.60000 -36.44331 -24.35064 -0.53015 -0.59956 -0.59956 0.7153 0.8098
0 -10.00000 -35.17116 -23.50062 -0.53015 -0.59956 -0.59956 0.7252 0.8164
0 -10.00000 -23.50062 -35.17116 -0.53015 -0.59956 -0.59956 0.8164 0.7252
early_tubeh0
0 -7.60000 -36.44331 -24.35064 -0.53015 -0.59956 -0.59956 0.7153 0.8098
0 -10.00000 -23.50062 -35.17116 -0.53015 -0.59956 -0.59956 0.8164 0.7252
0 -7.60000 -24.35064 -36.44331 -0.53015 -0.59956 -0.59956 0.8098 0.7153
early_tube_lip
0 -10.00000 -35.17116 -23.50062 -0.00000 0.70711 0.70711 0.7252 0.8164
0 10.00000 -35.17116 -23.50062 -0.00000 0.70711 0.70711 0.7252 0.8164
0 10.00000 -23.50062 -35.17116 -0.00000 0.70711 0.70711 0.8164 0.7252
early_tube_lip
0 -10.00000 -35.17116 -23.50062 -0.00000 0.70711 0.70711 0.7252 0.8164
0 10.00000 -23.50062 -35.17116 -0.00000 0.70711 0.70711 0.8164 0.7252
0 -10.00000 -23.50062 -35.17116 -0.00000 0.70711 0.70711 0.8164 0.7252
early_tubeh0
0 10.00000 -35.17116 -23.50062 0.53015 -0.59956 -0.59956 0.7252 0.8164
0 7.60000 -36.44331 -24.35064 0.53015 -0.59956 -0.59956 0.7153 0.8098
0 7.60000 -24.35064 -36.44331 0.53015 -0.59956 -0.59956 0.8098 0.7153
early_tubeh0
0 10.00000 -35.17116 -23.50062 0.53015 -0.59956 -0.59956 0.7252 0.8164
0 7.60000 -24.35064 -36.44331 0.53015 -0.59956 -0.59956 0.8098 0.7153
0 10.00000 -23.50062 -35.17116 0.53015 -0.59956 -0.59956 0.8164 0.7252
early_tubeh0
0 7.60000 -36.44331 -24.35064 0.74826 -0.46910 -0.46910 0.7153 0.8098
0 5.80000 -38.16446 -25.50067 0.74826 -0.46910 -0.46910 0.7018 0.8008
0 5.80000 -25.50067 -38.16446 0.74826 -0.46910 -0.46910 0.8008 0.7018
early_tubeh0
0 7.60000 -36.44331 -24.35064 0.74826 -0.46910 -0.46910 0.7153 0.8098
0 5.80000 -25.50067 -38.16446 0.74826 -0.46910 -0.46910 0.8008 0.7018
0 7.60000 -24.35064 -36.44331 0.74826 -0.46910 -0.46910 0.8098 0.7153
early_tubeh0
0 5.80000 -38.16446 -25.50067 0.89767 -0.31161 -0.31161 0.7018 0.8008
0 4.50000 -40.40942 -27.00071 0.89767 -0.31161 -0.31161 0.6843 0.7891
0 4.50000 -27.00071 -40.40942 0.89767 -0.31161 -0.31161 0.7891 0.6843
early_tubeh0
0 5.80000 -38.16446 -25.50067 0.89767 -0.31161 -0.31161 0.7018 0.8008
0 4.50000 -27.00071 -40.40942 0.89767 -0.31161 -0.31161 0.7891 0.6843
0 5.80000 -25.50067 -38.16446 0.89767 -0.31161 -0.31161 0.8008 0.7018
early_tubeh0
0 4.50000 -40.40942 -27.00071 0.98264 -0.13119 -0.13119 0.6843 0.7891
0 4.00000 -42.65439 -28.50075 0.98264 -0.13119 -0.13119 0.6668 0.7773
0 4.00000 -28.50075 -42.65439 0.98264 -0.13119 -0.13119 0.7773 0.6668
early_tubeh0
0 4.50000 -40.40942 -27.00071 0.98264 -0.13119 -0.13119 0.6843 0.7891
0 4.00000 -28.50075 -42.65439 0.98264 -0.13119 -0.13119 0.7773 0.6668
0 4.50000 -27.00071 -40.40942 0.98264 -0.13119 -0.13119 0.7891 0.6843
early_tube0
0 4.00000 -42.65439 -28.50075 1.00000 0.00000 0.00000 0.6668 0.7773
0 4.00000 -47.89265 -32.00085 1.00000 0.00000 0.00000 0.6258 0.7500
0 4.00000 -32.00085 -47.89265 1.00000 0.00000 0.00000 0.7500 0.6258
early_tube0
0 4.00000 -42.65439 -28.50075 1.00000 0.00000 0.00000 0.6668 0.7773
0 4.00000 -32.00085 -47.89265 1.00000 0.00000 0.00000 0.7500 0.6258
0 4.00000 -28.50075 -42.65439 1.00000 0.00000 0.00000 0.7773 0.6668
early_tube0
0 4.00000 -47.89265 -32.00085 -0.00000 -0.70711 -0.70711 0.6258 0.7500
0 -4.00000 -47.89265 -32.00085 -0.00000 -0.70711 -0.70711 0.6258 0.7500
0 -4.00000 -32.00085 -47.89265 -0.00000 -0.70711 -0.70711 0.7500 0.6258
early_tube0
0 4.00000 -47.89265 -32.00085 -0.00000 -0.70711 -0.70711 0.6258 0.7500
0 -4.00000 -32.00085 -47.89265 -0.00000 -0.70711 -0.70711 0.7500 0.6258
0 4.00000 -32.00085 -47.89265 -0.00000 -0.70711 -0.70711 0.7500 0.6258
early_tube0
0 -4.00000 -32.00085 -47.89265 -1.00000 0.00000 0.00000 0.7500 0.6258
0 -4.00000 -28.50075 -42.65439 -1.00000 0.00000 0.00000 0.7773 0.6668
0 -4.00000 -10.00813 -50.31428 -1.00000 0.00000 0.00000 0.9218 0.6069
early_tube0
0 -4.00000 -32.00085 -47.89265 -1.00000 0.00000 0.00000 0.7500 0.6258
0 -4.00000 -10.00813 -50.31428 -1.00000 0.00000 0.00000 0.9218 0.6069
0 -4.00000 -11.23720 -56.49323 -1.00000 0.00000 0.00000 0.9122 0.5586
early_tubeh0
0 -4.00000 -28.50075 -42.65439 -0.98264 -0.07100 -0.17141 0.7773 0.6668
0 -4.50000 -27.00071 -40.40942 -0.98264 -0.07100 -0.17141 0.7891 0.6843
0 -4.50000 -9.48139 -47.66616 -0.98264 -0.07100 -0.17141 0.9259 0.6276
early_tubeh0
0 -4.00000 -28.50075 -42.65439 -0.98264 -0.07100 -0.17141 0.7773 0.6668
0 -4.50000 -9.48139 -47.66616 -0.98264 -0.07100 -0.17141 0.9259 0.6276
0 -4.00000 -10.00813 -50.31428 -0.98264 -0.07100 -0.17141 0.9218 0.6069
early_tubeh0
0 -4.50000 -27.00071 -40.40942 -0.89767 -0.16864 -0.40713 0.7891 0.6843
0 -5.80000 -25.50067 -38.16446 -0.89767 -0.16864 -0.40713 0.8008 0.7018
0 -5.80000 -8.95465 -45.01804 -0.89767 -0.16864 -0.40713 0.9300 0.6483
early_tubeh0
0 -4.50000 -27.00071 -40.40942 -0.89767 -0.16864 -0.40713 0.7891 0.6843
0 -5.80000 -8.95465 -45.01804 -0.89767 -0.16864 -0.40713 0.9300 0.6483
0 -4.50000 -9.48139 -47.66616 -0.89767 -0.16864 -0.40713 0.9259 0.6276
early_tubeh0
0 -5.80000 -25.50067 -38.16446 -0.74826 -0.25387 -0.61291 0.8008 0.7018
0 -7.60000 -24.35064 -36.44331 -0.74826 -0.25387 -0.61291 0.8098 0.7153
0 -7.60000 -8.55081 -42.98782 -0.74826 -0.25387 -0.61291 0.9332 0.6642
early_tubeh0
0 -5.80000 -25.50067 -38.16446 -0.74826 -0.25387 -0.61291 0.8008 0.7018
0 -7.60000 -8.55081 -42.98782 -0.74826 -0.25387 -0.61291 0.9332 0.6642
0 -5.80000 -8.95465 -45.01804 -0.74826 -0.25387 -0.61291 0.9300 0.6483
early_tubeh0
0 -7.60000 -24.35064 -36.44331 -0.53015 -0.32448 -0.78336 0.8098 0.7153
0 -10.00000 -23.50062 -35.17116 -0.53015 -0.32448 -0.78336 0.8164 0.7252
0 -10.00000 -8.25232 -41.48722 -0.53015 -0.32448 -0.78336 0.9355 0.6759
early_tubeh0
0 -7.60000 -24.35064 -36.44331 -0.53015 -0.32448 -0.78336 0.8098 0.7153
0 -10.00000 -8.25232 -41.48722 -0.53015 -0.32448 -0.78336 0.9355 0.6759
0 -7.60000 -8.55081 -42.98782 -0.53015 -0.32448 -0.78336 0.9332 0.6642
early_tube_lip
0 -10.00000 -23.50062 -35.17116 -0.00000 0.38268 0.92388 0.8164 0.7252
0 10.00000 -23.50062 -35.17116 -0.00000 0.38268 0.92388 0.8164 0.7252
0 10.00000 -8.25232 -41.48722 -0.00000 0.38268 0.92388 0.9355 0.6759
early_tube_lip
0 -10.00000 -23.50062 -35.17116 -0.00000 0.38268 0.92388 0.8164 0.7252
0 10.00000 -8.25232 -41.48722 -0.00000 0.38268 0.92388 0.9355 0.6759
0 -10.00000 -8.25232 -41.48722 -0.00000 0.38268 0.92388 0.9355 0.6759
early_tubeh0
0 10.00000 -23.50062 -35.17116 0.53015 -0.32448 -0.78336 0.8164 0.7252
0 7.60000 -24.35064 -36.44331 0.53015 -0.32448 -0.78336 0.8098 0.7153
0 7.60000 -8.55081 -42.98782 0.53015 -0.32448 -0.78336 0.9332 0.6642
early_tubeh0
0 10.00000 -23.50062 -35.17116 0.53015 -0.32448 -0.78336 0.8164 0.7252
0 7.60000 -8.55081 -42.98782 0.53015 -0.32448 -0.78336 0.9332 0.6642
0 10.00000 -8.25232 -41.48722 0.53015 -0.32448 -0.78336 0.9355 0.6759
early_tubeh0
0 7.60000 -24.35064 -36.44331 0.74826 -0.25387 -0.61291 0.8098 0.7153
0 5.80000 -25.50067 -38.16446 0.74826 -0.25387 -0.61291 0.8008 0.7018
0 5.80000 -8.95465 -45.01804 0.74826 -0.25387 -0.61291 0.9300 0.6483
early_tubeh0
0 7.60000 -24.35064 -36.44331 0.74826 -0.25387 -0.61291 0.8098 0.7153
0 5.80000 -8.95465 -45.01804 0.74826 -0.25387 -0.61291 0.9300 0.6483
0 7.60000 -8.55081 -42.98782 0.74826 -0.25387 -0.61291 0.9332 0.6642
early_tubeh0
0 5.80000 -25.50067 -38.16446 0.89767 -0.16864 -0.40713 0.8008 0.7018
0 4.50000 -27.00071 -40.40942 0.89767 -0.16864 -0.40713 0.7891 0.6843
0 4.50000 -9.48139 -47.66616 0.89767 -0.16864 -0.40713 0.9259 0.6276
early_tubeh0
0 5.80000 -25.50067 -38.16446 0.89767 -0.16864 -0.40713 0.8008 0.7018
0 4.50000 -9.48139 -47.66616 0.89767 -0.16864 -0.40713 0.9259 0.6276
0 5.80000 -8.95465 -45.01804 0.89767 -0.16864 -0.40713 0.9300 0.6483
early_tubeh0
0 4.50000 -27.00071 -40.40942 0.98264 -0.07100 -0.17141 0.7891 0.6843
0 4.00000 -28.50075 -42.65439 0.98264 -0.07100 -0.17141 0.7773 0.6668
0 4.00000 -10.00813 -50.31428 0.98264 -0.07100 -0.17141 0.9218 0.6069
early_tubeh0
0 4.50000 -27.00071 -40.40942 0.98264 -0.07100 -0.17141 0.7891 0.6843
0 4.00000 -10.00813 -50.31428 0.98264 -0.07100 -0.17141 0.9218 0.6069
0 4.50000 -9.48139 -47.66616 0.98264 -0.07100 -0.17141 0.9259 0.6276
early_tube0
0 4.00000 -28.50075 -42.65439 1.00000 0.00000 0.00000 0.7773 0.6668
0 4.00000 -32.00085 -47.89265 1.00000 0.00000 0.00000 0.7500 0.6258
0 4.00000 -11.23720 -56.49323 1.00000 0.00000 0.00000 0.9122 0.5586
early_tube0
0 4.00000 -28.50075 -42.65439 1.00000 0.00000 0.00000 0.7773 0.6668
0 4.00000 -11.23720 -56.49323 1.00000 0.00000 0.00000 0.9122 0.5586
0 4.00000 -10.00813 -50.31428 1.00000 0.00000 0.00000 0.9218 0.6069
early_tube0
0 4.00000 -32.00085 -47.89265 -0.00000 -0.38268 -0.92388 0.7500 0.6258
0 -4.00000 -32.00085 -47.89265 -0.00000 -0.38268 -0.92388 0.7500 0.6258
0 -4.00000 -11.23720 -56.49323 -0.00000 -0.38268 -0.92388 0.9122 0.5586
early_tube0
0 4.00000 -32.00085 -47.89265 -0.00000 -0.38268 -0.92388 0.7500 0.6258
0 -4.00000 -11.23720 -56.49323 -0.00000 -0.38268 -0.92388 0.9122 0.5586
0 4.00000 -11.23720 -56.49323 -0.00000 -0.38268 -0.92388 0.9122 0.5586
early_tube0
0 -4.00000 -11.23720 -56.49323 -1.00000 0.00000 0.00000 0.9122 0.5586
0 -4.00000 -10.00813 -50.31428 -1.00000 0.00000 0.00000 0.9218 0.6069
0 -4.00000 10.00813 -50.31428 -1.00000 0.00000 0.00000 0.0782 0.6069
early_tube0
0 -4.00000 -11.23720 -56.49323 -1.00000 0.00000 0.00000 0.9122 0.5586
0 -4.00000 10.00813 -50.31428 -1.00000 0.00000 0.00000 0.0782 0.6069
0 -4.00000 11.23720 -56.49323 -1.00000 0.00000 0.00000 0.0878 0.5586
early_tubeh0
0 -4.00000 -10.00813 -50.31428 -0.98264 -0.00000 -0.18553 0.9218 0.6069
0 -4.50000 -9.48139 -47.66616 -0.98264 -0.00000 -0.18553 0.9259 0.6276
0 -4.50000 9.48139 -47.66616 -0.98264 -0.00000 -0.18553 0.0741 0.6276
early_tubeh0
0 -4.00000 -10.00813 -50.31428 -0.98264 -0.00000 -0.18553 0.9218 0.6069
0 -4.50000 9.48139 -47.66616 -0.98264 -0.00000 -0.18553 0.0741 0.6276
0 -4.00000 10.00813 -50.31428 -0.98264 -0.00000 -0.18553 0.0782 0.6069
early_tubeh0
0 -4.50000 -9.48139 -47.66616 -0.89767 -0.00000 -0.44068 0.9259 0.6276
0 -5.80000 -8.95465 -45.01804 -0.89767 -0.00000 -0.44068 0.9300 0.6483
0 -5.80000 8.95465 -45.01804 -0.89767 -0.00000 -0.44068 0.0700 0.6483
early_tubeh0
0 -4.50000 -9.48139 -47.66616 -0.89767 -0.00000 -0.44068 0.9259 0.6276
0 -5.80000 8.95465 -45.01804 -0.89767 -0.00000 -0.44068 0.0700 0.6483
0 -4.50000 9.48139 -47.66616 -0.89767 -0.00000 -0.44068 0.0741 0.6276
early_tubeh0
0 -5.80000 -8.95465 -45.01804 -0.74826 0.00000 -0.66341 0.9300 0.6483
0 -7.60000 -8.55081 -42.98782 -0.74826 0.00000 -0.66341 0.9332 0.6642
0 -7.60000 8.55081 -42.98782 -0.74826 0.00000 -0.66341 0.0668 0.6642
early_tubeh0
0 -5.80000 -8.95465 -45.01804 -0.74826 0.00000 -0.66341 0.9300 0.6483
0 -7.60000 8.55081 -42.98782 -0.74826 0.00000 -0.66341 0.0668 0.6642
0 -5.80000 8.95465 -45.01804 -0.74826 0.00000 -0.66341 0.0700 0.6483
early_tubeh0
0 -7.60000 -8.55081 -42.98782 -0.53015 -0.00000 -0.84790 0.9332 0.6642
0 -10.00000 -8.25232 -41.48722 -0.53015 -0.00000 -0.84790 0.9355 0.6759
0 -10.00000 8.25232 -41.48722 -0.53015 -0.00000 -0.84790 0.0645 0.6759
early_tubeh0
0 -7.60000 -8.55081 -42.98782 -0.53015 -0.00000 -0.84790 0.9332 0.6642
0 -10.00000 8.25232 -41.48722 -0.53015 -0.00000 -0.84790 0.0645 0.6759
0 -7.60000 8.55081 -42.98782 -0.53015 -0.00000 -0.84790 0.0668 0.6642
early_tube_lip
0 -10.00000 -8.25232 -41.48722 -0.00000 0.00000 1.00000 0.9355 0.6759
0 10.00000 -8.25232 -41.48722 -0.00000 0.00000 1.00000 0.9355 0.6759
0 10.00000 8.25232 -41.48722 -0.00000 0.00000 1.00000 0.0645 0.6759
early_tube_lip
0 -10.00000 -8.25232 -41.48722 -0.00000 0.00000 1.00000 0.9355 0.6759
0 10.00000 8.25232 -41.48722 -0.00000 0.00000 1.00000 0.0645 0.6759
0 -10.00000 8.25232 -41.48722 -0.00000 0.00000 1.00000 0.0645 0.6759
early_tubeh0
0 10.00000 -8.25232 -41.48722 0.53015 0.00000 -0.84790 0.9355 0.6759
0 7.60000 -8.55081 -42.98782 0.53015 0.00000 -0.84790 0.9332 0.6642
0 7.60000 8.55081 -42.98782 0.53015 0.00000 -0.84790 0.0668 0.6642
early_tubeh0
0 10.00000 -8.25232 -41.48722 0.53015 0.00000 -0.84790 0.9355 0.6759
0 7.60000 8.55081 -42.98782 0.53015 0.00000 -0.84790 0.0668 0.6642
0 10.00000 8.25232 -41.48722 0.53015 0.00000 -0.84790 0.0645 0.6759
early_tubeh0
0 7.60000 -8.55081 -42.98782 0.74826 -0.00000 -0.66341 0.9332 0.6642
0 5.80000 -8.95465 -45.01804 0.74826 -0.00000 -0.66341 0.9300 0.6483
0 5.80000 8.95465 -45.01804 0.74826 -0.00000 -0.66341 0.0700 0.6483
early_tubeh0
0 7.60000 -8.55081 -42.98782 0.74826 -0.00000 -0.66341 0.9332 0.6642
0 5.80000 8.95465 -45.01804 0.74826 -0.00000 -0.66341 0.0700 0.6483
0 7.60000 8.55081 -42.98782 0.74826 -0.00000 -0.66341 0.0668 0.6642
early_tubeh0
0 5.80000 -8.95465 -45.01804 0.89767 -0.00000 -0.44068 0.9300 0.6483
0 4.50000 -9.48139 -47.66616 0.89767 -0.00000 -0.44068 0.9259 0.6276
0 4.50000 9.48139 -47.66616 0.89767 -0.00000 -0.44068 0.0741 0.6276
early_tubeh0
0 5.80000 -8.95465 -45.01804 0.89767 -0.00000 -0.44068 0.9300 0.6483
0 4.50000 9.48139 -47.66616 0.89767 -0.00000 -0.44068 0.0741 0.6276
0 5.80000 8.95465 -45.01804 0.89767 -0.00000 -0.44068 0.0700 0.6483
early_tubeh0
0 4.50000 -9.48139 -47.66616 0.98264 -0.00000 -0.18553 0.9259 0.6276
0 4.00000 -10.00813 -50.31428 0.98264 -0.00000 -0.18553 0.9218 0.6069
0 4.00000 10.00813 -50.31428 0.98264 -0.00000 -0.18553 0.0782 0.6069
early_tubeh0
0 4.50000 -9.48139 -47.66616 0.98264 -0.00000 -0.18553 0.9259 0.6276
0 4.00000 10.00813 -50.31428 0.98264 -0.00000 -0.18553 0.0782 0.6069
0 4.50000 9.48139 -47.66616 0.98264 -0.00000 -0.18553 0.0741 0.6276
early_tube0
0 4.00000 -10.00813 -50.31428 1.00000 0.00000 0.00000 0.9218 0.6069
0 4.00000 -11.23720 -56.49323 1.00000 0.00000 0.00000 0.9122 0.5586
0 4.00000 11.23720 -56.49323 1.00000 0.00000 0.00000 0.0878 0.5586
early_tube0
0 4.00000 -10.00813 -50.31428 1.00000 0.00000 0.00000 0.9218 0.6069
0 4.00000 11.23720 -56.49323 1.00000 0.00000 0.00000 0.0878 0.5586
0 4.00000 10.00813 -50.31428 1.00000 0.00000 0.00000 0.0782 0.6069
early_tube0
0 4.00000 -11.23720 -56.49323 -0.00000 -0.00000 -1.00000 0.9122 0.5586
0 -4.00000 -11.23720 -56.49323 -0.00000 -0.00000 -1.00000 0.9122 0.5586
0 -4.00000 11.23720 -56.49323 -0.00000 -0.00000 -1.00000 0.0878 0.5586
early_tube0
0 4.00000 -11.23720 -56.49323 -0.00000 -0.00000 -1.00000 0.9122 0.5586
0 -4.00000 11.23720 -56.49323 -0.00000 -0.00000 -1.00000 0.0878 0.5586
0 4.00000 11.23720 -56.49323 -0.00000 -0.00000 -1.00000 0.0878 0.5586
early_tube0
0 -4.00000 11.23720 -56.49323 -1.00000 0.00000 0.00000 0.0878 0.5586
0 -4.00000 10.00813 -50.31428 -1.00000 0.00000 0.00000 0.0782 0.6069
0 -4.00000 28.50075 -42.65439 -1.00000 0.00000 0.00000 0.2227 0.6668
early_tube0
0 -4.00000 11.23720 -56.49323 -1.00000 0.00000 0.00000 0.0878 0.5586
0 -4.00000 28.50075 -42.65439 -1.00000 0.00000 0.00000 0.2227 0.6668
0 -4.00000 32.00085 -47.89265 -1.00000 0.00000 0.00000 0.2500 0.6258
early_tubeh0
0 -4.00000 10.00813 -50.31428 -0.98264 0.07100 -0.17141 0.0782 0.6069
0 -4.50000 9.48139 -47.66616 -0.98264 0.07100 -0.17141 0.0741 0.6276
0 -4.50000 27.00071 -40.40942 -0.98264 0.07100 -0.17141 0.2109 0.6843
early_tubeh0
0 -4.00000 10.00813 -50.31428 -0.98264 0.07100 -0.17141 0.0782 0.6069
0 -4.50000 27.00071 -40.40942 -0.98264 0.07100 -0.17141 0.2109 0.6843
0 -4.00000 28.50075 -42.65439 -0.98264 0.07100 -0.17141 0.2227 0.6668
early_tubeh0
0 -4.50000 9.48139 -47.66616 -0.89767 0.16864 -0.40713 0.0741 0.6276
0 -5.80000 8.95465 -45.01804 -0.89767 0.16864 -0.40713 0.0700 0.6483
0 -5.80000 25.50067 -38.16446 -0.89767 0.16864 -0.40713 0.1992 0.7018
early_tubeh0
0 -4.50000 9.48139 -47.66616 -0.89767 0.16864 -0.40713 0.0741 0.6276
0 -5.80000 25.50067 -38.16446 -0.89767 0.16864 -0.40713 0.1992 0.7018
0 -4.50000 27.00071 -40.40942 -0.89767 0.16864 -0.40713 0.2109 0.6843
early_tubeh0
0 -5.80000 8.95465 -45.01804 -0.74826 0.25387 -0.61291 0.0700 0.6483
0 -7.60000 8.55081 -42.98782 -0.74826 0.25387 -0.61291 0.0668 0.6642
0 -7.60000 24.35064 -36.44331 -0.74826 0.25387 -0.61291 0.1902 0.7153
early_tubeh0
0 -5.80000 8.95465 -45.01804 -0.74826 0.25387 -0.61291 0.0700 0.6483
0 -7.60000 24.35064 -36.44331 -0.74826 0.25387 -0.61291 0.1902 0.7153
0 -5.80000 25.50067 -38.16446 -0.74826 0.25387 -0.61291 0.1992 0.7018
early_tubeh0
0 -7.60000 8.55081 -42.98782 -0.53015 0.32448 -0.78336 0.0668 0.6642
0 -10.00000 8.25232 -41.48722 -0.53015 0.32448 -0.78336 0.0645 0.6759
0 -10.00000 23.50062 -35.17116 -0.53015 0.32448 -0.78336 0.1836 0.7252
early_tubeh0
0 -7.60000 8.55081 -42.98782 -0.53015 0.32448 -0.78336 0.0668 0.6642
0 -10.00000 23.50062 -35.17116 -0.53015 0.32448 -0.78336 0.1836 0.7252
0 -7.60000 24.35064 -36.44331 -0.53015 0.32448 -0.78336 0.1902 0.7153
early_tube_lip
0 -10.00000 8.25232 -41.48722 0.00000 -0.38268 0.92388 0.0645 0.6759
0 10.00000 8.25232 -41.48722 0.00000 -0.38268 0.92388 0.0645 0.6759
0 10.00000 23.50062 -35.17116 0.00000 -0.38268 0.92388 0.1836 0.7252
early_tube_lip
0 -10.00000 8.25232 -41.48722 0.00000 -0.38268 0.92388 0.0645 0.6759
0 10.00000 23.50062 -35.17116 0.00000 -0.38268 0.92388 0.1836 0.7252
0 -10.00000 23.50062 -35.17116 0.00000 -0.38268 0.92388 0.1836 0.7252
early_tubeh0
0 10.00000 8.25232 -41.48722 0.53015 0.32448 -0.78336 0.0645 0.6759
0 7.60000 8.55081 -42.98782 0.53015 0.32448 -0.78336 0.0668 0.6642
0 7.60000 24.35064 -36.44331 0.53015 0.32448 -0.78336 0.1902 0.7153
early_tubeh0
0 10.00000 8.25232 -41.48722 0.53015 0.32448 -0.78336 0.0645 0.6759
0 7.60000 24.35064 -36.44331 0.53015 0.32448 -0.78336 0.1902 0.7153
0 10.00000 23.50062 -35.17116 0.53015 0.32448 -0.78336 0.1836 0.7252
early_tubeh0
0 7.60000 8.55081 -42.98782 0.74826 0.25387 -0.61291 0.0668 0.6642
0 5.80000 8.95465 -45.01804 0.74826 0.25387 -0.61291 0.0700 0.6483
0 5.80000 25.50067 -38.16446 0.74826 0.25387 -0.61291 0.1992 0.7018
early_tubeh0
0 7.60000 8.55081 -42.98782 0.74826 0.25387 -0.61291 0.0668 0.6642
0 5.80000 25.50067 -38.16446 0.74826 0.25387 -0.61291 0.1992 0.7018
0 7.60000 24.35064 -36.44331 0.74826 0.25387 -0.61291 0.1902 0.7153
early_tubeh0
0 5.80000 8.95465 -45.01804 0.89767 0.16864 -0.40713 0.0700 0.6483
0 4.50000 9.48139 -47.66616 0.89767 0.16864 -0.40713 0.0741 0.6276
0 4.50000 27.00071 -40.40942 0.89767 0.16864 -0.40713 0.2109 0.6843
early_tubeh0
0 5.80000 8.95465 -45.01804 0.89767 0.16864 -0.40713 0.0700 0.6483
0 4.50000 27.00071 -40.40942 0.89767 0.16864 -0.40713 0.2109 0.6843
0 5.80000 25.50067 -38.16446 0.89767 0.16864 -0.40713 0.1992 0.7018
early_tubeh0
0 4.50000 9.48139 -47.66616 0.98264 0.07100 -0.17141 0.0741 0.6276
0 4.00000 10.00813 -50.31428 0.98264 0.07100 -0.17141 0.0782 0.6069
0 4.00000 28.50075 -42.65439 0.98264 0.07100 -0.17141 0.2227 0.6668
early_tubeh0
0 4.50000 9.48139 -47.66616 0.98264 0.07100 -0.17141 0.0741 0.6276
0 4.00000 28.50075 -42.65439 0.98264 0.07100 -0.17141 0.2227 0.6668
0 4.50000 27.00071 -40.40942 0.98264 0.07100 -0.17141 0.2109 0.6843
early_tube0
0 4.00000 10.00813 -50.31428 1.00000 -0.00000 0.00000 0.0782 0.6069
0 4.00000 11.23720 -56.49323 1.00000 -0.00000 0.00000 0.0878 0.5586
0 4.00000 32.00085 -47.89265 1.00000 -0.00000 0.00000 0.2500 0.6258
early_tube0
0 4.00000 10.00813 -50.31428 1.00000 -0.00000 0.00000 0.0782 0.6069
0 4.00000 32.00085 -47.89265 1.00000 -0.00000 0.00000 0.2500 0.6258
0 4.00000 28.50075 -42.65439 1.00000 -0.00000 0.00000 0.2227 0.6668
early_tube0
0 4.00000 11.23720 -56.49323 0.00000 0.38268 -0.92388 0.0878 0.5586
0 -4.00000 11.23720 -56.49323 0.00000 0.38268 -0.92388 0.0878 0.5586
0 -4.00000 32.00085 -47.89265 0.00000 0.38268 -0.92388 0.2500 0.6258
early_tube0
0 4.00000 11.23720 -56.49323 0.00000 0.38268 -0.92388 0.0878 0.5586
0 -4.00000 32.00085 -47.89265 0.00000 0.38268 -0.92388 0.2500 0.6258
0 4.00000 32.00085 -47.89265 0.00000 0.38268 -0.92388 0.2500 0.6258
early_tube1
0 -4.00000 32.00085 -47.89265 -1.00000 0.00000 0.00000 0.2500 0.6258
0 -4.00000 28.50075 -42.65439 -1.00000 0.00000 0.00000 0.2227 0.6668
0 -4.00000 42.65439 -28.50075 -1.00000 0.00000 0.00000 0.3332 0.7773
early_tube1
0 -4.00000 32.00085 -47.89265 -1.00000 0.00000 0.00000 0.2500 0.6258
0 -4.00000 42.65439 -28.50075 -1.00000 0.00000 0.00000 0.3332 0.7773
0 -4.00000 47.89265 -32.00085 -1.00000 0.00000 0.00000 0.3742 0.7500
early_tubeh1
0 -4.00000 28.50075 -42.65439 -0.98264 0.13119 -0.13119 0.2227 0.6668
0 -4.50000 27.00071 -40.40942 -0.98264 0.13119 -0.13119 0.2109 0.6843
0 -4.50000 40.40942 -27.00071 -0.98264 0.13119 -0.13119 0.3157 0.7891
early_tubeh1
0 -4.00000 28.50075 -42.65439 -0.98264 0.13119 -0.13119 0.2227 0.6668
0 -4.50000 40.40942 -27.00071 -0.98264 0.13119 -0.13119 0.3157 0.7891
0 -4.00000 42.65439 -28.50075 -0.98264 0.13119 -0.13119 0.3332 0.7773
early_tubeh1
0 -4.50000 27.00071 -40.40942 -0.89767 0.31161 -0.31161 0.2109 0.6843
0 -5.80000 25.50067 -38.16446 -0.89767 0.31161 -0.31161 0.1992 0.7018
0 -5.80000 38.16446 -25.50067 -0.89767 0.31161 -0.31161 0.2982 0.8008
early_tubeh1
0 -4.50000 27.00071 -40.40942 -0.89767 0.31161 -0.31161 0.2109 0.6843
0 -5.80000 38.16446 -25.50067 -0.89767 0.31161 -0.31161 0.2982 0.8008
0 -4.50000 40.40942 -27.00071 -0.89767 0.31161 -0.31161 0.3157 0.7891
early_tubeh1
0 -5.80000 25.50067 -38.16446 -0.74826 0.46910 -0.46910 0.1992 0.7018
0 -7.60000 24.35064 -36.44331 -0.74826 0.46910 -0.46910 0.1902 0.7153
0 -7.60000 36.44331 -24.35064 -0.74826 0.46910 -0.46910 0.2847 0.8098
early_tubeh1
0 -5.80000 25.50067 -38.16446 -0.74826 0.46910 -0.46910 0.1992 0.7018
0 -7.60000 36.44331 -24.35064 -0.74826 0.46910 -0.46910 0.2847 0.8098
0 -5.80000 38.16446 -25.50067 -0.74826 0.46910 -0.46910 0.2982 0.8008
early_tubeh1
0 -7.60000 24.35064 -36.44331 -0.53015 0.59956 -0.59956 0.1902 0.7153
0 -10.00000 23.50062 -35.17116 -0.53015 0.59956 -0.59956 0.1836 0.7252
0 -10.00000 35.17116 -23.50062 -0.53015 0.59956 -0.59956 0.2748 0.8164
early_tubeh1
0 -7.60000 24.35064 -36.44331 -0.53015 0.59956 -0.59956 0.1902 0.7153
0 -10.00000 35.17116 -23.50062 -0.53015 0.59956 -0.59956 0.2748 0.8164
0 -7.60000 36.44331 -24.35064 -0.53015 0.59956 -0.59956 0.2847 0.8098
early_tube_lip
0 -10.00000 23.50062 -35.17116 0.00000 -0.70711 0.70711 0.1836 0.7252
0 10.00000 23.50062 -35.17116 0.00000 -0.70711 0.70711 0.1836 0.7252
0 10.00000 35.17116 -23.50062 0.00000 -0.70711 0.70711 0.2748 0.8164
early_tube_lip
0 -10.00000 23.50062 -35.17116 0.00000 -0.70711 0.70711 0.1836 0.7252
0 10.00000 35.17116 -23.50062 0.00000 -0.70711 0.70711 0.2748 0.8164
0 -10.00000 35.17116 -23.50062 0.00000 -0.70711 0.70711 0.2748 0.8164
early_tubeh1
0 10.00000 23.50062 -35.17116 0.53015 0.59956 -0.59956 0.1836 0.7252
0 7.60000 24.35064 -36.44331 0.53015 0.59956 -0.59956 0.1902 0.7153
0 7.60000 36.44331 -24.35064 0.53015 0.59956 -0.59956 0.2847 0.8098
early_tubeh1
0 10.00000 23.50062 -35.17116 0.53015 0.59956 -0.59956 0.1836 0.7252
0 7.60000 36.44331 -24.35064 0.53015 0.59956 -0.59956 0.2847 0.8098
0 10.00000 35.17116 -23.50062 0.53015 0.59956 -0.59956 0.2748 0.8164
early_tubeh1
0 7.60000 24.35064 -36.44331 0.74826 0.46910 -0.46910 0.1902 0.7153
0 5.80000 25.50067 -38.16446 0.74826 0.46910 -0.46910 0.1992 0.7018
0 5.80000 38.16446 -25.50067 0.74826 0.46910 -0.46910 0.2982 0.8008
early_tubeh1
0 7.60000 24.35064 -36.44331 0.74826 0.46910 -0.46910 0.1902 0.7153
0 5.80000 38.16446 -25.50067 0.74826 0.46910 -0.46910 0.2982 0.8008
0 7.60000 36.44331 -24.35064 0.74826 0.46910 -0.46910 0.2847 0.8098
early_tubeh1
0 5.80000 25.50067 -38.16446 0.89767 0.31161 -0.31161 0.1992 0.7018
0 4.50000 27.00071 -40.40942 0.89767 0.31161 -0.31161 0.2109 0.6843
0 4.50000 40.40942 -27.00071 0.89767 0.31161 -0.31161 0.3157 0.7891
early_tubeh1
0 5.80000 25.50067 -38.16446 0.89767 0.31161 -0.31161 0.1992 0.7018
0 4.50000 40.40942 -27.00071 0.89767 0.31161 -0.31161 0.3157 0.7891
0 5.80000 38.16446 -25.50067 0.89767 0.31161 -0.31161 0.2982 0.8008
early_tubeh1
0 4.50000 27.00071 -40.40942 0.98264 0.13119 -0.13119 0.2109 0.6843
0 4.00000 28.50075 -42.65439 0.98264 0.13119 -0.13119 0.2227 0.6668
0 4.00000 42.65439 -28.50075 0.98264 0.13119 -0.13119 0.3332 0.7773
early_tubeh1
0 4.50000 27.00071 -40.40942 0.98264 0.13119 -0.13119 0.2109 0.6843
0 4.00000 42.65439 -28.50075 0.98264 0.13119 -0.13119 0.3332 0.7773
0 4.50000 40.40942 -27.00071 0.98264 0.13119 -0.13119 0.3157 0.7891
early_tube1
0 4.00000 28.50075 -42.65439 1.00000 -0.00000 0.00000 0.2227 0.6668
0 4.00000 32.00085 -47.89265 1.00000 -0.00000 0.00000 0.2500 0.6258
0 4.00000 47.89265 -32.00085 1.00000 -0.00000 0.00000 0.3742 0.7500
early_tube1
0 4.00000 28.50075 -42.65439 1.00000 -0.00000 0.00000 0.2227 0.6668
0 4.00000 47.89265 -32.00085 1.00000 -0.00000 0.00000 0.3742 0.7500
0 4.00000 42.65439 -28.50075 1.00000 -0.00000 0.00000 0.3332 0.7773
early_tube1
0 4.00000 32.00085 -47.89265 0.00000 0.70711 -0.70711 0.2500 0.6258
0 -4.00000 32.00085 -47.89265 0.00000 0.70711 -0.70711 0.2500 0.6258
0 -4.00000 47.89265 -32.00085 0.00000 0.70711 -0.70711 0.3742 0.7500
early_tube1
0 4.00000 32.00085 -47.89265 0.00000 0.70711 -0.70711 0.2500 0.6258
0 -4.00000 47.89265 -32.00085 0.00000 0.70711 -0.70711 0.3742 0.7500
0 4.00000 47.89265 -32.00085 0.00000 0.70711 -0.70711 0.3742 0.7500
early_tube1
0 -4.00000 47.89265 -32.00085 -1.00000 0.00000 0.00000 0.3742 0.7500
0 -4.00000 42.65439 -28.50075 -1.00000 0.00000 0.00000 0.3332 0.7773
0 -4.00000 50.31428 -10.00813 -1.00000 0.00000 0.00000 0.3931 0.9218
early_tube1
0 -4.00000 47.89265 -32.00085 -1.00000 0.00000 0.00000 0.3742 0.7500
0 -4.00000 50.31428 -10.00813 -1.00000 0.00000 0.00000 0.3931 0.9218
0 -4.00000 56.49323 -11.23720 -1.00000 0.00000 0.00000 0.4414 0.9122
early_tubeh1
0 -4.00000 42.65439 -28.50075 -0.98264 0.17141 -0.07100 0.3332 0.7773
0 -4.50000 40.40942 -27.00071 -0.98264 0.17141 -0.07100 0.3157 0.7891
0 -4.50000 47.66616 -9.48139 -0.98264 0.17141 -0.07100 0.3724 0.9259
early_tubeh1
0 -4.00000 42.65439 -28.50075 -0.98264 0.17141 -0.07100 0.3332 0.7773
0 -4.50000 47.66616 -9.48139 -0.98264 0.17141 -0.07100 0.3724 0.9259
0 -4.00000 50.31428 -10.00813 -0.98264 0.17141 -0.07100 0.3931 0.9218
early_tubeh1
0 -4.50000 40.40942 -27.00071 -0.89767 0.40713 -0.16864 0.3157 0.7891
0 -5.80000 38.16446 -25.50067 -0.89767 0.40713 -0.16864 0.2982 0.8008
0 -5.80000 45.01804 -8.95465 -0.89767 0.40713 -0.16864 0.3517 0.9300
early_tubeh1
0 -4.50000 40.40942 -27.00071 -0.89767 0.40713 -0.16864 0.3157 0.7891
0 -5.80000 45.01804 -8.95465 -0.89767 0.40713 -0.16864 0.3517 0.9300
0 -4.50000 47.66616 -9.48139 -0.89767 0.40713 -0.16864 0.3724 0.9259
early_tubeh1
0 -5.80000 38.16446 -25.50067 -0.74826 0.61291 -0.25387 0.2982 0.8008
0 -7.60000 36.44331 -24.35064 -0.74826 0.61291 -0.25387 0.2847 0.8098
0 -7.60000 42.98782 -8.55081 -0.74826 0.61291 -0.25387 0.3358 0.9332
early_tubeh1
0 -5.80000 38.16446 -25.50067 -0.74826 0.61291 -0.25387 0.2982 0.8008
0 -7.60000 42.98782 -8.55081 -0.74826 0.61291 -0.25387 0.3358 0.9332
0 -5.80000 45.01804 -8.95465 -0.74826 0.61291 -0.25387 0.3517 0.9300
early_tubeh1
0 -7.60000 36.44331 -24.35064 -0.53015 0.78336 -0.32448 0.2847 0.8098
0 -10.00000 35.17116 -23.50062 -0.53015 0.78336 -0.32448 0.2748 0.8164
0 -10.00000 41.48722 -8.25232 -0.53015 0.78336 -0.32448 0.3241 0.9355
early_tubeh1
0 -7.60000 36.44331 -24.35064 -0.53015 0.78336 -0.32448 0.2847 0.8098
0 -10.00000 41.48722 -8.25232 -0.53015 0.78336 -0.32448 0.3241 0.9355
0 -7.60000 42.98782 -8.55081 -0.53015 0.78336 -0.32448 0.3358 0.9332
early_tube_lip
0 -10.00000 35.17116 -23.50062 0.00000 -0.92388 0.38268 0.2748 0.8164
0 10.00000 35.17116 -23.50062 0.00000 -0.92388 0.38268 0.2748 0.8164
0 10.00000 41.48722 -8.25232 0.00000 -0.92388 0.38268 0.3241 0.9355
early_tube_lip
0 -10.00000 35.17116 -23.50062 0.00000 -0.92388 0.38268 0.2748 0.8164
0 10.00000 41.48722 -8.25232 0.00000 -0.92388 0.38268 0.3241 0.9355
0 -10.00000 41.48722 -8.25232 0.00000 -0.92388 0.38268 0.3241 0.9355
early_tubeh1
0 10.00000 35.17116 -23.50062 0.53015 0.78336 -0.32448 0.2748 0.8164
0 7.60000 36.44331 -24.35064 0.53015 0.78336 -0.32448 0.2847 0.8098
0 7.60000 42.98782 -8.55081 0.53015 0.78336 -0.32448 0.3358 0.9332
early_tubeh1
0 10.00000 35.17116 -23.50062 0.53015 0.78336 -0.32448 0.2748 0.8164
0 7.60000 42.98782 -8.55081 0.53015 0.78336 -0.32448 0.3358 0.9332
0 10.00000 41.48722 -8.25232 0.53015 0.78336 -0.32448 0.3241 0.9355
early_tubeh1
0 7.60000 36.44331 -24.35064 0.74826 0.61291 -0.25387 0.2847 0.8098
0 5.80000 38.16446 -25.50067 0.74826 0.61291 -0.25387 0.2982 0.8008
0 5.80000 45.01804 -8.95465 0.74826 0.61291 -0.25387 0.3517 0.9300
early_tubeh1
0 7.60000 36.44331 -24.35064 0.74826 0.61291 -0.25387 0.2847 0.8098
0 5.80000 45.01804 -8.95465 0.74826 0.61291 -0.25387 0.3517 0.9300
0 7.60000 42.98782 -8.55081 0.74826 0.61291 -0.25387 0.3358 0.9332
early_tubeh1
0 5.80000 38.16446 -25.50067 0.89767 0.40713 -0.16864 0.2982 0.8008
0 4.50000 40.40942 -27.00071 0.89767 0.40713 -0.16864 0.3157 0.7891
0 4.50000 47.66616 -9.48139 0.89767 0.40713 -0.16864 0.3724 0.9259
early_tubeh1
0 5.80000 38.16446 -25.50067 0.89767 0.40713 -0.16864 0.2982 0.8008
0 4.50000 47.66616 -9.48139 0.89767 0.40713 -0.16864 0.3724 0.9259
0 5.80000 45.01804 -8.95465 0.89767 0.40713 -0.16864 0.3517 0.9300
early_tubeh1
0 4.50000 40.40942 -27.00071 0.98264 0.17141 -0.07100 0.3157 0.7891
0 4.00000 42.65439 -28.50075 0.98264 0.17141 -0.07100 0.3332 0.7773
0 4.00000 50.31428 -10.00813 0.98264 0.17141 -0.07100 0.3931 0.9218
early_tubeh1
0 4.50000 40.40942 -27.00071 0.98264 0.17141 -0.07100 0.3157 0.7891
0 4.00000 50.31428 -10.00813 0.98264 0.17141 -0.07100 0.3931 0.9218
0 4.50000 47.66616 -9.48139 0.98264 0.17141 -0.07100 0.3724 0.9259
early_tube1
0 4.00000 42.65439 -28.50075 1.00000 -0.00000 0.00000 0.3332 0.7773
0 4.00000 47.89265 -32.00085 1.00000 -0.00000 0.00000 0.3742 0.7500
0 4.00000 56.49323 -11.23720 1.00000 -0.00000 0.00000 0.4414 0.9122
early_tube1
0 4.00000 42.65439 -28.50075 1.00000 -0.00000 0.00000 0.3332 0.7773
0 4.00000 56.49323 -11.23720 1.00000 -0.00000 0.00000 0.4414 0.9122
0 4.00000 50.31428 -10.00813 1.00000 -0.00000 0.00000 0.3931 0.9218
early_tube1
0 4.00000 47.89265 -32.00085 0.00000 0.92388 -0.38268 0.3742 0.7500
0 -4.00000 47.89265 -32.00085 0.00000 0.92388 -0.38268 0.3742 0.7500
0 -4.00000 56.49323 -11.23720 0.00000 0.92388 -0.38268 0.4414 0.9122
early_tube1
0 4.00000 47.89265 -32.00085 0.00000 0.92388 -0.38268 0.3742 0.7500
0 -4.00000 56.49323 -11.23720 0.00000 0.92388 -0.38268 0.4414 0.9122
0 4.00000 56.49323 -11.23720 0.00000 0.92388 -0.38268 0.4414 0.9122
early_tube2
0 -4.00000 56.49323 -11.23720 -1.00000 0.00000 0.00000 0.4414 0.9122
0 -4.00000 50.31428 -10.00813 -1.00000 0.00000 0.00000 0.3931 0.9218
0 -4.00000 50.31428 10.00813 -1.00000 0.00000 0.00000 0.3931 0.0782
early_tube2
0 -4.00000 56.49323 -11.23720 -1.00000 0.00000 0.00000 0.4414 0.9122
0 -4.00000 50.31428 10.00813 -1.00000 0.00000 0.00000 0.3931 0.0782
0 -4.00000 56.49323 11.23720 -1.00000 0.00000 0.00000 0.4414 0.0878
early_tubeh2
0 -4.00000 50.31428 -10.00813 -0.98264 0.18553 -0.00000 0.3931 0.9218
0 -4.50000 47.66616 -9.48139 -0.98264 0.18553 -0.00000 0.3724 0.9259
0 -4.50000 47.66616 9.48139 -0.98264 0.18553 -0.00000 0.3724 0.0741
early_tubeh2
0 -4.00000 50.31428 -10.00813 -0.98264 0.18553 -0.00000 0.3931 0.9218
0 -4.50000 47.66616 9.48139 -0.98264 0.18553 -0.00000 0.3724 0.0741
0 -4.00000 50.31428 10.00813 -0.98264 0.18553 -0.00000 0.3931 0.0782
early_tubeh2
0 -4.50000 47.66616 -9.48139 -0.89767 0.44068 -0.00000 0.3724 0.9259
0 -5.80000 45.01804 -8.95465 -0.89767 0.44068 -0.00000 0.3517 0.9300
0 -5.80000 45.01804 8.95465 -0.89767 0.44068 -0.00000 0.3517 0.0700
early_tubeh2
0 -4.50000 47.66616 -9.48139 -0.89767 0.44068 -0.00000 0.3724 0.9259
0 -5.80000 45.01804 8.95465 -0.89767 0.44068 -0.00000 0.3517 0.0700
0 -4.50000 47.66616 9.48139 -0.89767 0.44068 -0.00000 0.3724 0.0741
early_tubeh2
0 -5.80000 45.01804 -8.95465 -0.74826 0.66341 0.00000 0.3517 0.9300
0 -7.60000 42.98782 -8.55081 -0.74826 0.66341 0.00000 0.3358 0.9332
0 -7.60000 42.98782 8.55081 -0.74826 0.66341 0.00000 0.3358 0.0668
early_tubeh2
0 -5.80000 45.01804 -8.95465 -0.74826 0.66341 0.00000 0.3517 0.9300
0 -7.60000 42.98782 8.55081 -0.74826 0.66341 0.00000 0.3358 0.0668
0 -5.80000 45.01804 8.95465 -0.74826 0.66341 0.00000 0.3517 0.0700
early_tubeh2
0 -7.60000 42.98782 -8.55081 -0.53015 0.84790 -0.00000 0.3358 0.9332
0 -10.00000 41.48722 -8.25232 -0.53015 0.84790 -0.00000 0.3241 0.9355
0 -10.00000 41.48722 8.25232 -0.53015 0.84790 -0.00000 0.3241 0.0645
early_tubeh2
0 -7.60000 42.98782 -8.55081 -0.53015 0.84790 -0.00000 0.3358 0.9332
0 -10.00000 41.48722 8.25232 -0.53015 0.84790 -0.00000 0.3241 0.0645
0 -7.60000 42.98782 8.55081 -0.53015 0.84790 -0.00000 0.3358 0.0668
early_tube_lip
0 -10.00000 41.48722 -8.25232 0.00000 -1.00000 0.00000 0.3241 0.9355
0 10.00000 41.48722 -8.25232 0.00000 -1.00000 0.00000 0.3241 0.9355
0 10.00000 41.48722 8.25232 0.00000 -1.00000 0.00000 0.3241 0.0645
early_tube_lip
0 -10.00000 41.48722 -8.25232 0.00000 -1.00000 0.00000 0.3241 0.9355
0 10.00000 41.48722 8.25232 0.00000 -1.00000 0.00000 0.3241 0.0645
0 -10.00000 41.48722 8.25232 0.00000 -1.00000 0.00000 0.3241 0.0645
early_tubeh2
0 10.00000 41.48722 -8.25232 0.53015 0.84790 0.00000 0.3241 0.9355
0 7.60000 42.98782 -8.55081 0.53015 0.84790 0.00000 0.3358 0.9332
0 7.60000 42.98782 8.55081 0.53015 0.84790 0.00000 0.3358 0.0668
early_tubeh2
0 10.00000 41.48722 -8.25232 0.53015 0.84790 0.00000 0.3241 0.9355
0 7.60000 42.98782 8.55081 0.53015 0.84790 0.00000 0.3358 0.0668
0 10.00000 41.48722 8.25232 0.53015 0.84790 0.00000 0.3241 0.0645
early_tubeh2
0 7.60000 42.98782 -8.55081 0.74826 0.66341 -0.00000 0.3358 0.9332
0 5.80000 45.01804 -8.95465 0.74826 0.66341 -0.00000 0.3517 0.9300
0 5.80000 45.01804 8.95465 0.74826 0.66341 -0.00000 0.3517 0.0700
early_tubeh2
0 7.60000 42.98782 -8.55081 0.74826 0.66341 -0.00000 0.3358 0.9332
0 5.80000 45.01804 8.95465 0.74826 0.66341 -0.00000 0.3517 0.0700
0 7.60000 42.98782 8.55081 0.74826 0.66341 -0.00000 0.3358 0.0668
early_tubeh2
0 5.80000 45.01804 -8.95465 0.89767 0.44068 -0.00000 0.3517 0.9300
0 4.50000 47.66616 -9.48139 0.89767 0.44068 -0.00000 0.3724 0.9259
0 4.50000 47.66616 9.48139 0.89767 0.44068 -0.00000 0.3724 0.0741
early_tubeh2
0 5.80000 45.01804 -8.95465 0.89767 0.44068 -0.00000 0.3517 0.9300
0 4.50000 47.66616 9.48139 0.89767 0.44068 -0.00000 0.3724 0.0741
0 5.80000 45.01804 8.95465 0.89767 0.44068 -0.00000 0.3517 0.0700
early_tubeh2
0 4.50000 47.66616 -9.48139 0.98264 0.18553 -0.00000 0.3724 0.9259
0 4.00000 50.31428 -10.00813 0.98264 0.18553 -0.00000 0.3931 0.9218
0 4.00000 50.31428 10.00813 0.98264 0.18553 -0.00000 0.3931 0.0782
early_tubeh2
0 4.50000 47.66616 -9.48139 0.98264 0.18553 -0.00000 0.3724 0.9259
0 4.00000 50.31428 10.00813 0.98264 0.18553 -0.00000 0.3931 0.0782
0 4.50000 47.66616 9.48139 0.98264 0.18553 -0.00000 0.3724 0.0741
early_tube2
0 4.00000 50.31428 -10.00813 1.00000 -0.00000 0.00000 0.3931 0.9218
0 4.00000 56.49323 -11.23720 1.00000 -0.00000 0.00000 0.4414 0.9122
0 4.00000 56.49323 11.23720 1.00000 -0.00000 0.00000 0.4414 0.0878
early_tube2
0 4.00000 50.31428 -10.00813 1.00000 -0.00000 0.00000 0.3931 0.9218
0 4.00000 56.49323 11.23720 1.00000 -0.00000 0.00000 0.4414 0.0878
0 4.00000 50.31428 10.00813 1.00000 -0.00000 0.00000 0.3931 0.0782
early_tube2
0 4.00000 56.49323 -11.23720 0.00000 1.00000 -0.00000 0.4414 0.9122
0 -4.00000 56.49323 -11.23720 0.00000 1.00000 -0.00000 0.4414 0.9122
0 -4.00000 56.49323 11.23720 0.00000 1.00000 -0.00000 0.4414 0.0878
early_tube2
0 4.00000 56.49323 -11.23720 0.00000 1.00000 -0.00000 0.4414 0.9122
0 -4.00000 56.49323 11.23720 0.00000 1.00000 -0.00000 0.4414 0.0878
0 4.00000 56.49323 11.23720 0.00000 1.00000 -0.00000 0.4414 0.0878
end
