version 1
nodes
0 "root" -1
end
skeleton
time 0
0 0 0 0 0 0 0
end
triangles
tube_d3
0 -4.00000 46.56230 31.11193 -1.00000 0.00000 0.00000 0.3638 0.2431
0 -4.00000 53.21406 35.55649 -1.00000 0.00000 0.00000 0.4157 0.2778
0 -4.00000 62.77026 12.48578 -1.00000 0.00000 0.00000 0.4904 0.0975
tube_d3
0 -4.00000 46.56230 31.11193 -1.00000 0.00000 0.00000 0.3638 0.2431
0 -4.00000 62.77026 12.48578 -1.00000 0.00000 0.00000 0.4904 0.0975
0 -4.00000 54.92398 10.92506 -1.00000 0.00000 0.00000 0.4291 0.0854
tube_dh3
0 -9.00000 39.07907 26.11180 -0.87011 0.45535 0.18861 0.3053 0.2040
0 -4.00000 46.56230 31.11193 -0.87011 0.45535 0.18861 0.3638 0.2431
0 -4.00000 54.92398 10.92506 -0.87011 0.45535 0.18861 0.4291 0.0854
tube_dh3
0 -9.00000 39.07907 26.11180 -0.87011 0.45535 0.18861 0.3053 0.2040
0 -4.00000 54.92398 10.92506 -0.87011 0.45535 0.18861 0.4291 0.0854
0 -9.00000 46.09691 9.16925 -0.87011 0.45535 0.18861 0.3601 0.0716
tube_d3
0 4.00000 54.92398 10.92506 1.00000 0.00000 -0.00000 0.4291 0.0854
0 4.00000 62.77026 12.48578 1.00000 0.00000 -0.00000 0.4904 0.0975
0 4.00000 53.21406 35.55649 1.00000 0.00000 -0.00000 0.4157 0.2778
tube_d3
0 4.00000 54.92398 10.92506 1.00000 0.00000 -0.00000 0.4291 0.0854
0 4.00000 53.21406 35.55649 1.00000 0.00000 -0.00000 0.4157 0.2778
0 4.00000 46.56230 31.11193 1.00000 0.00000 -0.00000 0.3638 0.2431
tube_dh3
0 9.00000 46.09691 9.16925 0.87011 0.45535 0.18861 0.3601 0.0716
0 4.00000 54.92398 10.92506 0.87011 0.45535 0.18861 0.4291 0.0854
0 4.00000 46.56230 31.11193 0.87011 0.45535 0.18861 0.3638 0.2431
tube_dh3
0 9.00000 46.09691 9.16925 0.87011 0.45535 0.18861 0.3601 0.0716
0 4.00000 46.56230 31.11193 0.87011 0.45535 0.18861 0.3638 0.2431
0 9.00000 39.07907 26.11180 0.87011 0.45535 0.18861 0.3053 0.2040
tube_d3
0 -4.00000 53.21406 35.55649 -0.00000 0.92388 0.38268 0.4157 0.2778
0 4.00000 53.21406 35.55649 -0.00000 0.92388 0.38268 0.4157 0.2778
0 4.00000 62.77026 12.48578 -0.00000 0.92388 0.38268 0.4904 0.0975
tube_d3
0 -4.00000 53.21406 35.55649 -0.00000 0.92388 0.38268 0.4157 0.2778
0 4.00000 62.77026 12.48578 -0.00000 0.92388 0.38268 0.4904 0.0975
0 -4.00000 62.77026 12.48578 -0.00000 0.92388 0.38268 0.4904 0.0975
tube_dlip
0 -9.00000 46.09691 9.16925 0.00000 -0.92388 -0.38268 0.3601 0.0716
0 9.00000 46.09691 9.16925 0.00000 -0.92388 -0.38268 0.3601 0.0716
0 9.00000 39.07907 26.11180 0.00000 -0.92388 -0.38268 0.3053 0.2040
tube_dlip
0 -9.00000 46.09691 9.16925 0.00000 -0.92388 -0.38268 0.3601 0.0716
0 9.00000 39.07907 26.11180 0.00000 -0.92388 -0.38268 0.3053 0.2040
0 -9.00000 39.07907 26.11180 0.00000 -0.92388 -0.38268 0.3053 0.2040
tube_d3
0 -4.00000 31.11193 46.56230 -1.00000 0.00000 0.00000 0.2431 0.3638
0 -4.00000 35.55649 53.21406 -1.00000 0.00000 0.00000 0.2778 0.4157
0 -4.00000 53.21406 35.55649 -1.00000 0.00000 0.00000 0.4157 0.2778
tube_d3
0 -4.00000 31.11193 46.56230 -1.00000 0.00000 0.00000 0.2431 0.3638
0 -4.00000 53.21406 35.55649 -1.00000 0.00000 0.00000 0.4157 0.2778
0 -4.00000 46.56230 31.11193 -1.00000 0.00000 0.00000 0.3638 0.2431
tube_dh3
0 -9.00000 26.11180 39.07907 -0.87011 0.34851 0.34851 0.2040 0.3053
0 -4.00000 31.11193 46.56230 -0.87011 0.34851 0.34851 0.2431 0.3638
0 -4.00000 46.56230 31.11193 -0.87011 0.34851 0.34851 0.3638 0.2431
tube_dh3
0 -9.00000 26.11180 39.07907 -0.87011 0.34851 0.34851 0.2040 0.3053
0 -4.00000 46.56230 31.11193 -0.87011 0.34851 0.34851 0.3638 0.2431
0 -9.00000 39.07907 26.11180 -0.87011 0.34851 0.34851 0.3053 0.2040
tube_d3
0 4.00000 46.56230 31.11193 1.00000 0.00000 -0.00000 0.3638 0.2431
0 4.00000 53.21406 35.55649 1.00000 0.00000 -0.00000 0.4157 0.2778
0 4.00000 35.55649 53.21406 1.00000 0.00000 -0.00000 0.2778 0.4157
tube_d3
0 4.00000 46.56230 31.11193 1.00000 0.00000 -0.00000 0.3638 0.2431
0 4.00000 35.55649 53.21406 1.00000 0.00000 -0.00000 0.2778 0.4157
0 4.00000 31.11193 46.56230 1.00000 0.00000 -0.00000 0.2431 0.3638
tube_dh3
0 9.00000 39.07907 26.11180 0.87011 0.34851 0.34851 0.3053 0.2040
0 4.00000 46.56230 31.11193 0.87011 0.34851 0.34851 0.3638 0.2431
0 4.00000 31.11193 46.56230 0.87011 0.34851 0.34851 0.2431 0.3638
tube_dh3
0 9.00000 39.07907 26.11180 0.87011 0.34851 0.34851 0.3053 0.2040
0 4.00000 31.11193 46.56230 0.87011 0.34851 0.34851 0.2431 0.3638
0 9.00000 26.11180 39.07907 0.87011 0.34851 0.34851 0.2040 0.3053
tube_d3
0 -4.00000 35.55649 53.21406 -0.00000 0.70711 0.70711 0.2778 0.4157
0 4.00000 35.55649 53.21406 -0.00000 0.70711 0.70711 0.2778 0.4157
0 4.00000 53.21406 35.55649 -0.00000 0.70711 0.70711 0.4157 0.2778
tube_d3
0 -4.00000 35.55649 53.21406 -0.00000 0.70711 0.70711 0.2778 0.4157
0 4.00000 53.21406 35.55649 -0.00000 0.70711 0.70711 0.4157 0.2778
0 -4.00000 53.21406 35.55649 -0.00000 0.70711 0.70711 0.4157 0.2778
tube_dlip
0 -9.00000 39.07907 26.11180 0.00000 -0.70711 -0.70711 0.3053 0.2040
0 9.00000 39.07907 26.11180 0.00000 -0.70711 -0.70711 0.3053 0.2040
0 9.00000 26.11180 39.07907 0.00000 -0.70711 -0.70711 0.2040 0.3053
tube_dlip
0 -9.00000 39.07907 26.11180 0.00000 -0.70711 -0.70711 0.3053 0.2040
0 9.00000 26.11180 39.07907 0.00000 -0.70711 -0.70711 0.2040 0.3053
0 -9.00000 26.11180 39.07907 0.00000 -0.70711 -0.70711 0.2040 0.3053
tube_d3
0 -4.00000 10.92506 54.92398 -1.00000 0.00000 0.00000 0.0854 0.4291
0 -4.00000 12.48578 62.77026 -1.00000 0.00000 0.00000 0.0975 0.4904
0 -4.00000 35.55649 53.21406 -1.00000 0.00000 0.00000 0.2778 0.4157
tube_d3
0 -4.00000 10.92506 54.92398 -1.00000 0.00000 0.00000 0.0854 0.4291
0 -4.00000 35.55649 53.21406 -1.00000 0.00000 0.00000 0.2778 0.4157
0 -4.00000 31.11193 46.56230 -1.00000 0.00000 0.00000 0.2431 0.3638
tube_dh3
0 -9.00000 9.16925 46.09691 -0.87011 0.18861 0.45535 0.0716 0.3601
0 -4.00000 10.92506 54.92398 -0.87011 0.18861 0.45535 0.0854 0.4291
0 -4.00000 31.11193 46.56230 -0.87011 0.18861 0.45535 0.2431 0.3638
tube_dh3
0 -9.00000 9.16925 46.09691 -0.87011 0.18861 0.45535 0.0716 0.3601
0 -4.00000 31.11193 46.56230 -0.87011 0.18861 0.45535 0.2431 0.3638
0 -9.00000 26.11180 39.07907 -0.87011 0.18861 0.45535 0.2040 0.3053
tube_d3
0 4.00000 31.11193 46.56230 1.00000 0.00000 -0.00000 0.2431 0.3638
0 4.00000 35.55649 53.21406 1.00000 0.00000 -0.00000 0.2778 0.4157
0 4.00000 12.48578 62.77026 1.00000 0.00000 -0.00000 0.0975 0.4904
tube_d3
0 4.00000 31.11193 46.56230 1.00000 0.00000 -0.00000 0.2431 0.3638
0 4.00000 12.48578 62.77026 1.00000 0.00000 -0.00000 0.0975 0.4904
0 4.00000 10.92506 54.92398 1.00000 0.00000 -0.00000 0.0854 0.4291
tube_dh3
0 9.00000 26.11180 39.07907 0.87011 0.18861 0.45535 0.2040 0.3053
0 4.00000 31.11193 46.56230 0.87011 0.18861 0.45535 0.2431 0.3638
0 4.00000 10.92506 54.92398 0.87011 0.18861 0.45535 0.0854 0.4291
tube_dh3
0 9.00000 26.11180 39.07907 0.87011 0.18861 0.45535 0.2040 0.3053
0 4.00000 10.92506 54.92398 0.87011 0.18861 0.45535 0.0854 0.4291
0 9.00000 9.16925 46.09691 0.87011 0.18861 0.45535 0.0716 0.3601
tube_d3
0 -4.00000 12.48578 62.77026 -0.00000 0.38268 0.92388 0.0975 0.4904
0 4.00000 12.48578 62.77026 -0.00000 0.38268 0.92388 0.0975 0.4904
0 4.00000 35.55649 53.21406 -0.00000 0.38268 0.92388 0.2778 0.4157
tube_d3
0 -4.00000 12.48578 62.77026 -0.00000 0.38268 0.92388 0.0975 0.4904
0 4.00000 35.55649 53.21406 -0.00000 0.38268 0.92388 0.2778 0.4157
0 -4.00000 35.55649 53.21406 -0.00000 0.38268 0.92388 0.2778 0.4157
tube_dlip
0 -9.00000 26.11180 39.07907 0.00000 -0.38268 -0.92388 0.2040 0.3053
0 9.00000 26.11180 39.07907 0.00000 -0.38268 -0.92388 0.2040 0.3053
0 9.00000 9.16925 46.09691 0.00000 -0.38268 -0.92388 0.0716 0.3601
tube_dlip
0 -9.00000 26.11180 39.07907 0.00000 -0.38268 -0.92388 0.2040 0.3053
0 9.00000 9.16925 46.09691 0.00000 -0.38268 -0.92388 0.0716 0.3601
0 -9.00000 9.16925 46.09691 0.00000 -0.38268 -0.92388 0.0716 0.3601
tube_d3
0 -4.00000 -10.92506 54.92398 -1.00000 0.00000 0.00000 0.9146 0.4291
0 -4.00000 -12.48578 62.77026 -1.00000 0.00000 0.00000 0.9025 0.4904
0 -4.00000 12.48578 62.77026 -1.00000 0.00000 0.00000 0.0975 0.4904
tube_d3
0 -4.00000 -10.92506 54.92398 -1.00000 0.00000 0.00000 0.9146 0.4291
0 -4.00000 12.48578 62.77026 -1.00000 0.00000 0.00000 0.0975 0.4904
0 -4.00000 10.92506 54.92398 -1.00000 0.00000 0.00000 0.0854 0.4291
tube_dh3
0 -9.00000 -9.16925 46.09691 -0.87011 0.00000 0.49286 0.9284 0.3601
0 -4.00000 -10.92506 54.92398 -0.87011 0.00000 0.49286 0.9146 0.4291
0 -4.00000 10.92506 54.92398 -0.87011 0.00000 0.49286 0.0854 0.4291
tube_dh3
0 -9.00000 -9.16925 46.09691 -0.87011 0.00000 0.49286 0.9284 0.3601
0 -4.00000 10.92506 54.92398 -0.87011 0.00000 0.49286 0.0854 0.4291
0 -9.00000 9.16925 46.09691 -0.87011 0.00000 0.49286 0.0716 0.3601
tube_d3
0 4.00000 10.92506 54.92398 1.00000 0.00000 -0.00000 0.0854 0.4291
0 4.00000 12.48578 62.77026 1.00000 0.00000 -0.00000 0.0975 0.4904
0 4.00000 -12.48578 62.77026 1.00000 0.00000 -0.00000 0.9025 0.4904
tube_d3
0 4.00000 10.92506 54.92398 1.00000 0.00000 -0.00000 0.0854 0.4291
0 4.00000 -12.48578 62.77026 1.00000 0.00000 -0.00000 0.9025 0.4904
0 4.00000 -10.92506 54.92398 1.00000 0.00000 -0.00000 0.9146 0.4291
tube_dh3
0 9.00000 9.16925 46.09691 0.87011 0.00000 0.49286 0.0716 0.3601
0 4.00000 10.92506 54.92398 0.87011 0.00000 0.49286 0.0854 0.4291
0 4.00000 -10.92506 54.92398 0.87011 0.00000 0.49286 0.9146 0.4291
tube_dh3
0 9.00000 9.16925 46.09691 0.87011 0.00000 0.49286 0.0716 0.3601
0 4.00000 -10.92506 54.92398 0.87011 0.00000 0.49286 0.9146 0.4291
0 9.00000 -9.16925 46.09691 0.87011 0.00000 0.49286 0.9284 0.3601
tube_d3
0 -4.00000 -12.48578 62.77026 0.00000 0.00000 1.00000 0.9025 0.4904
0 4.00000 -12.48578 62.77026 0.00000 0.00000 1.00000 0.9025 0.4904
0 4.00000 12.48578 62.77026 0.00000 0.00000 1.00000 0.0975 0.4904
tube_d3
0 -4.00000 -12.48578 62.77026 0.00000 0.00000 1.00000 0.9025 0.4904
0 4.00000 12.48578 62.77026 0.00000 0.00000 1.00000 0.0975 0.4904
0 -4.00000 12.48578 62.77026 0.00000 0.00000 1.00000 0.0975 0.4904
tube_dlip
0 -9.00000 9.16925 46.09691 0.00000 0.00000 -1.00000 0.0716 0.3601
0 9.00000 9.16925 46.09691 0.00000 0.00000 -1.00000 0.0716 0.3601
0 9.00000 -9.16925 46.09691 0.00000 0.00000 -1.00000 0.9284 0.3601
tube_dlip
0 -9.00000 9.16925 46.09691 0.00000 0.00000 -1.00000 0.0716 0.3601
0 9.00000 -9.16925 46.09691 0.00000 0.00000 -1.00000 0.9284 0.3601
0 -9.00000 -9.16925 46.09691 0.00000 0.00000 -1.00000 0.9284 0.3601
tube_d2
0 -4.00000 -31.11193 46.56230 -1.00000 0.00000 0.00000 0.7569 0.3638
0 -4.00000 -35.55649 53.21406 -1.00000 0.00000 0.00000 0.7222 0.4157
0 -4.00000 -12.48578 62.77026 -1.00000 0.00000 0.00000 0.9025 0.4904
tube_d2
0 -4.00000 -31.11193 46.56230 -1.00000 0.00000 0.00000 0.7569 0.3638
0 -4.00000 -12.48578 62.77026 -1.00000 0.00000 0.00000 0.9025 0.4904
0 -4.00000 -10.92506 54.92398 -1.00000 0.00000 0.00000 0.9146 0.4291
tube_dh2
0 -9.00000 -26.11180 39.07907 -0.87011 -0.18861 0.45535 0.7960 0.3053
0 -4.00000 -31.11193 46.56230 -0.87011 -0.18861 0.45535 0.7569 0.3638
0 -4.00000 -10.92506 54.92398 -0.87011 -0.18861 0.45535 0.9146 0.4291
tube_dh2
0 -9.00000 -26.11180 39.07907 -0.87011 -0.18861 0.45535 0.7960 0.3053
0 -4.00000 -10.92506 54.92398 -0.87011 -0.18861 0.45535 0.9146 0.4291
0 -9.00000 -9.16925 46.09691 -0.87011 -0.18861 0.45535 0.9284 0.3601
tube_d2
0 4.00000 -10.92506 54.92398 1.00000 0.00000 0.00000 0.9146 0.4291
0 4.00000 -12.48578 62.77026 1.00000 0.00000 0.00000 0.9025 0.4904
0 4.00000 -35.55649 53.21406 1.00000 0.00000 0.00000 0.7222 0.4157
tube_d2
0 4.00000 -10.92506 54.92398 1.00000 0.00000 0.00000 0.9146 0.4291
0 4.00000 -35.55649 53.21406 1.00000 0.00000 0.00000 0.7222 0.4157
0 4.00000 -31.11193 46.56230 1.00000 0.00000 0.00000 0.7569 0.3638
tube_dh2
0 9.00000 -9.16925 46.09691 0.87011 -0.18861 0.45535 0.9284 0.3601
0 4.00000 -10.92506 54.92398 0.87011 -0.18861 0.45535 0.9146 0.4291
0 4.00000 -31.11193 46.56230 0.87011 -0.18861 0.45535 0.7569 0.3638
tube_dh2
0 9.00000 -9.16925 46.09691 0.87011 -0.18861 0.45535 0.9284 0.3601
0 4.00000 -31.11193 46.56230 0.87011 -0.18861 0.45535 0.7569 0.3638
0 9.00000 -26.11180 39.07907 0.87011 -0.18861 0.45535 0.7960 0.3053
tube_d2
0 -4.00000 -35.55649 53.21406 0.00000 -0.38268 0.92388 0.7222 0.4157
0 4.00000 -35.55649 53.21406 0.00000 -0.38268 0.92388 0.7222 0.4157
0 4.00000 -12.48578 62.77026 0.00000 -0.38268 0.92388 0.9025 0.4904
tube_d2
0 -4.00000 -35.55649 53.21406 0.00000 -0.38268 0.92388 0.7222 0.4157
0 4.00000 -12.48578 62.77026 0.00000 -0.38268 0.92388 0.9025 0.4904
0 -4.00000 -12.48578 62.77026 0.00000 -0.38268 0.92388 0.9025 0.4904
tube_dlip
0 -9.00000 -9.16925 46.09691 0.00000 0.38268 -0.92388 0.9284 0.3601
0 9.00000 -9.16925 46.09691 0.00000 0.38268 -0.92388 0.9284 0.3601
0 9.00000 -26.11180 39.07907 0.00000 0.38268 -0.92388 0.7960 0.3053
tube_dlip
0 -9.00000 -9.16925 46.09691 0.00000 0.38268 -0.92388 0.9284 0.3601
0 9.00000 -26.11180 39.07907 0.00000 0.38268 -0.92388 0.7960 0.3053
0 -9.00000 -26.11180 39.07907 0.00000 0.38268 -0.92388 0.7960 0.3053
tube_d1
0 -4.00000 -46.56230 31.11193 -1.00000 0.00000 0.00000 0.6362 0.2431
0 -4.00000 -53.21406 35.55649 -1.00000 0.00000 0.00000 0.5843 0.2778
0 -4.00000 -35.55649 53.21406 -1.00000 0.00000 0.00000 0.7222 0.4157
tube_d1
0 -4.00000 -46.56230 31.11193 -1.00000 0.00000 0.00000 0.6362 0.2431
0 -4.00000 -35.55649 53.21406 -1.00000 0.00000 0.00000 0.7222 0.4157
0 -4.00000 -31.11193 46.56230 -1.00000 0.00000 0.00000 0.7569 0.3638
tube_dh1
0 -9.00000 -39.07907 26.11180 -0.87011 -0.34851 0.34851 0.6947 0.2040
0 -4.00000 -46.56230 31.11193 -0.87011 -0.34851 0.34851 0.6362 0.2431
0 -4.00000 -31.11193 46.56230 -0.87011 -0.34851 0.34851 0.7569 0.3638
tube_dh1
0 -9.00000 -39.07907 26.11180 -0.87011 -0.34851 0.34851 0.6947 0.2040
0 -4.00000 -31.11193 46.56230 -0.87011 -0.34851 0.34851 0.7569 0.3638
0 -9.00000 -26.11180 39.07907 -0.87011 -0.34851 0.34851 0.7960 0.3053
tube_d1
0 4.00000 -31.11193 46.56230 1.00000 0.00000 0.00000 0.7569 0.3638
0 4.00000 -35.55649 53.21406 1.00000 0.00000 0.00000 0.7222 0.4157
0 4.00000 -53.21406 35.55649 1.00000 0.00000 0.00000 0.5843 0.2778
tube_d1
0 4.00000 -31.11193 46.56230 1.00000 0.00000 0.00000 0.7569 0.3638
0 4.00000 -53.21406 35.55649 1.00000 0.00000 0.00000 0.5843 0.2778
0 4.00000 -46.56230 31.11193 1.00000 0.00000 0.00000 0.6362 0.2431
tube_dh1
0 9.00000 -26.11180 39.07907 0.87011 -0.34851 0.34851 0.7960 0.3053
0 4.00000 -31.11193 46.56230 0.87011 -0.34851 0.34851 0.7569 0.3638
0 4.00000 -46.56230 31.11193 0.87011 -0.34851 0.34851 0.6362 0.2431
tube_dh1
0 9.00000 -26.11180 39.07907 0.87011 -0.34851 0.34851 0.7960 0.3053
0 4.00000 -46.56230 31.11193 0.87011 -0.34851 0.34851 0.6362 0.2431
0 9.00000 -39.07907 26.11180 0.87011 -0.34851 0.34851 0.6947 0.2040
tube_d1
0 -4.00000 -53.21406 35.55649 0.00000 -0.70711 0.70711 0.5843 0.2778
0 4.00000 -53.21406 35.55649 0.00000 -0.70711 0.70711 0.5843 0.2778
0 4.00000 -35.55649 53.21406 0.00000 -0.70711 0.70711 0.7222 0.4157
tube_d1
0 -4.00000 -53.21406 35.55649 0.00000 -0.70711 0.70711 0.5843 0.2778
0 4.00000 -35.55649 53.21406 0.00000 -0.70711 0.70711 0.7222 0.4157
0 -4.00000 -35.55649 53.21406 0.00000 -0.70711 0.70711 0.7222 0.4157
tube_dlip
0 -9.00000 -26.11180 39.07907 0.00000 0.70711 -0.70711 0.7960 0.3053
0 9.00000 -26.11180 39.07907 0.00000 0.70711 -0.70711 0.7960 0.3053
0 9.00000 -39.07907 26.11180 0.00000 0.70711 -0.70711 0.6947 0.2040
tube_dlip
0 -9.00000 -26.11180 39.07907 0.00000 0.70711 -0.70711 0.7960 0.3053
0 9.00000 -39.07907 26.11180 0.00000 0.70711 -0.70711 0.6947 0.2040
0 -9.00000 -39.07907 26.11180 0.00000 0.70711 -0.70711 0.6947 0.2040
tube_d1
0 -4.00000 -54.92398 10.92506 -1.00000 0.00000 0.00000 0.5709 0.0854
0 -4.00000 -62.77026 12.48578 -1.00000 0.00000 0.00000 0.5096 0.0975
0 -4.00000 -53.21406 35.55649 -1.00000 0.00000 0.00000 0.5843 0.2778
tube_d1
0 -4.00000 -54.92398 10.92506 -1.00000 0.00000 0.00000 0.5709 0.0854
0 -4.00000 -53.21406 35.55649 -1.00000 0.00000 0.00000 0.5843 0.2778
0 -4.00000 -46.56230 31.11193 -1.00000 0.00000 0.00000 0.6362 0.2431
tube_dh1
0 -9.00000 -46.09691 9.16925 -0.87011 -0.45535 0.18861 0.6399 0.0716
0 -4.00000 -54.92398 10.92506 -0.87011 -0.45535 0.18861 0.5709 0.0854
0 -4.00000 -46.56230 31.11193 -0.87011 -0.45535 0.18861 0.6362 0.2431
tube_dh1
0 -9.00000 -46.09691 9.16925 -0.87011 -0.45535 0.18861 0.6399 0.0716
0 -4.00000 -46.56230 31.11193 -0.87011 -0.45535 0.18861 0.6362 0.2431
0 -9.00000 -39.07907 26.11180 -0.87011 -0.45535 0.18861 0.6947 0.2040
tube_d1
0 4.00000 -46.56230 31.11193 1.00000 0.00000 0.00000 0.6362 0.2431
0 4.00000 -53.21406 35.55649 1.00000 0.00000 0.00000 0.5843 0.2778
0 4.00000 -62.77026 12.48578 1.00000 0.00000 0.00000 0.5096 0.0975
tube_d1
0 4.00000 -46.56230 31.11193 1.00000 0.00000 0.00000 0.6362 0.2431
0 4.00000 -62.77026 12.48578 1.00000 0.00000 0.00000 0.5096 0.0975
0 4.00000 -54.92398 10.92506 1.00000 0.00000 0.00000 0.5709 0.0854
tube_dh1
0 9.00000 -39.07907 26.11180 0.87011 -0.45535 0.18861 0.6947 0.2040
0 4.00000 -46.56230 31.11193 0.87011 -0.45535 0.18861 0.6362 0.2431
0 4.00000 -54.92398 10.92506 0.87011 -0.45535 0.18861 0.5709 0.0854
tube_dh1
0 9.00000 -39.07907 26.11180 0.87011 -0.45535 0.18861 0.6947 0.2040
0 4.00000 -54.92398 10.92506 0.87011 -0.45535 0.18861 0.5709 0.0854
0 9.00000 -46.09691 9.16925 0.87011 -0.45535 0.18861 0.6399 0.0716
tube_d1
0 -4.00000 -62.77026 12.48578 0.00000 -0.92388 0.38268 0.5096 0.0975
0 4.00000 -62.77026 12.48578 0.00000 -0.92388 0.38268 0.5096 0.0975
0 4.00000 -53.21406 35.55649 0.00000 -0.92388 0.38268 0.5843 0.2778
tube_d1
0 -4.00000 -62.77026 12.48578 0.00000 -0.92388 0.38268 0.5096 0.0975
0 4.00000 -53.21406 35.55649 0.00000 -0.92388 0.38268 0.5843 0.2778
0 -4.00000 -53.21406 35.55649 0.00000 -0.92388 0.38268 0.5843 0.2778
tube_dlip
0 -9.00000 -39.07907 26.11180 0.00000 0.92388 -0.38268 0.6947 0.2040
0 9.00000 -39.07907 26.11180 0.00000 0.92388 -0.38268 0.6947 0.2040
0 9.00000 -46.09691 9.16925 0.00000 0.92388 -0.38268 0.6399 0.0716
tube_dlip
0 -9.00000 -39.07907 26.11180 0.00000 0.92388 -0.38268 0.6947 0.2040
0 9.00000 -46.09691 9.16925 0.00000 0.92388 -0.38268 0.6399 0.0716
0 -9.00000 -46.09691 9.16925 0.00000 0.92388 -0.38268 0.6399 0.0716
tube_d0
0 -4.00000 -54.92398 -10.92506 -1.00000 -0.00000 0.00000 0.5709 0.9146
0 -4.00000 -62.77026 -12.48578 -1.00000 -0.00000 0.00000 0.5096 0.9025
0 -4.00000 -62.77026 12.48578 -1.00000 -0.00000 0.00000 0.5096 0.0975
tube_d0
0 -4.00000 -54.92398 -10.92506 -1.00000 -0.00000 0.00000 0.5709 0.9146
0 -4.00000 -62.77026 12.48578 -1.00000 -0.00000 0.00000 0.5096 0.0975
0 -4.00000 -54.92398 10.92506 -1.00000 -0.00000 0.00000 0.5709 0.0854
tube_dh0
0 -9.00000 -46.09691 -9.16925 -0.87011 -0.49286 0.00000 0.6399 0.9284
0 -4.00000 -54.92398 -10.92506 -0.87011 -0.49286 0.00000 0.5709 0.9146
0 -4.00000 -54.92398 10.92506 -0.87011 -0.49286 0.00000 0.5709 0.0854
tube_dh0
0 -9.00000 -46.09691 -9.16925 -0.87011 -0.49286 0.00000 0.6399 0.9284
0 -4.00000 -54.92398 10.92506 -0.87011 -0.49286 0.00000 0.5709 0.0854
0 -9.00000 -46.09691 9.16925 -0.87011 -0.49286 0.00000 0.6399 0.0716
tube_d0
0 4.00000 -54.92398 10.92506 1.00000 0.00000 0.00000 0.5709 0.0854
0 4.00000 -62.77026 12.48578 1.00000 0.00000 0.00000 0.5096 0.0975
0 4.00000 -62.77026 -12.48578 1.00000 0.00000 0.00000 0.5096 0.9025
tube_d0
0 4.00000 -54.92398 10.92506 1.00000 0.00000 0.00000 0.5709 0.0854
0 4.00000 -62.77026 -12.48578 1.00000 0.00000 0.00000 0.5096 0.9025
0 4.00000 -54.92398 -10.92506 1.00000 0.00000 0.00000 0.5709 0.9146
tube_dh0
0 9.00000 -46.09691 9.16925 0.87011 -0.49286 0.00000 0.6399 0.0716
0 4.00000 -54.92398 10.92506 0.87011 -0.49286 0.00000 0.5709 0.0854
0 4.00000 -54.92398 -10.92506 0.87011 -0.49286 0.00000 0.5709 0.9146
tube_dh0
0 9.00000 -46.09691 9.16925 0.87011 -0.49286 0.00000 0.6399 0.0716
0 4.00000 -54.92398 -10.92506 0.87011 -0.49286 0.00000 0.5709 0.9146
0 9.00000 -46.09691 -9.16925 0.87011 -0.49286 0.00000 0.6399 0.9284
tube_d0
0 -4.00000 -62.77026 -12.48578 0.00000 -1.00000 0.00000 0.5096 0.9025
0 4.00000 -62.77026 -12.48578 0.00000 -1.00000 0.00000 0.5096 0.9025
0 4.00000 -62.77026 12.48578 0.00000 -1.00000 0.00000 0.5096 0.0975
tube_d0
0 -4.00000 -62.77026 -12.48578 0.00000 -1.00000 0.00000 0.5096 0.9025
0 4.00000 -62.77026 12.48578 0.00000 -1.00000 0.00000 0.5096 0.0975
0 -4.00000 -62.77026 12.48578 0.00000 -1.00000 0.00000 0.5096 0.0975
tube_dlip
0 -9.00000 -46.09691 9.16925 -0.00000 1.00000 0.00000 0.6399 0.0716
0 9.00000 -46.09691 9.16925 -0.00000 1.00000 0.00000 0.6399 0.0716
0 9.00000 -46.09691 -9.16925 -0.00000 1.00000 0.00000 0.6399 0.9284
tube_dlip
0 -9.00000 -46.09691 9.16925 -0.00000 1.00000 0.00000 0.6399 0.0716
0 9.00000 -46.09691 -9.16925 -0.00000 1.00000 0.00000 0.6399 0.9284
0 -9.00000 -46.09691 -9.16925 -0.00000 1.00000 0.00000 0.6399 0.9284
tube_d0
0 -4.00000 -46.56230 -31.11193 -1.00000 -0.00000 0.00000 0.6362 0.7569
0 -4.00000 -53.21406 -35.55649 -1.00000 -0.00000 0.00000 0.5843 0.7222
0 -4.00000 -62.77026 -12.48578 -1.00000 -0.00000 0.00000 0.5096 0.9025
tube_d0
0 -4.00000 -46.56230 -31.11193 -1.00000 -0.00000 0.00000 0.6362 0.7569
0 -4.00000 -62.77026 -12.48578 -1.00000 -0.00000 0.00000 0.5096 0.9025
0 -4.00000 -54.92398 -10.92506 -1.00000 -0.00000 0.00000 0.5709 0.9146
tube_dh0
0 -9.00000 -39.07907 -26.11180 -0.87011 -0.45535 -0.18861 0.6947 0.7960
0 -4.00000 -46.56230 -31.11193 -0.87011 -0.45535 -0.18861 0.6362 0.7569
0 -4.00000 -54.92398 -10.92506 -0.87011 -0.45535 -0.18861 0.5709 0.9146
tube_dh0
0 -9.00000 -39.07907 -26.11180 -0.87011 -0.45535 -0.18861 0.6947 0.7960
0 -4.00000 -54.92398 -10.92506 -0.87011 -0.45535 -0.18861 0.5709 0.9146
0 -9.00000 -46.09691 -9.16925 -0.87011 -0.45535 -0.18861 0.6399 0.9284
tube_d0
0 4.00000 -54.92398 -10.92506 1.00000 0.00000 0.00000 0.5709 0.9146
0 4.00000 -62.77026 -12.48578 1.00000 0.00000 0.00000 0.5096 0.9025
0 4.00000 -53.21406 -35.55649 1.00000 0.00000 0.00000 0.5843 0.7222
tube_d0
0 4.00000 -54.92398 -10.92506 1.00000 0.00000 0.00000 0.5709 0.9146
0 4.00000 -53.21406 -35.55649 1.00000 0.00000 0.00000 0.5843 0.7222
0 4.00000 -46.56230 -31.11193 1.00000 0.00000 0.00000 0.6362 0.7569
tube_dh0
0 9.00000 -46.09691 -9.16925 0.87011 -0.45535 -0.18861 0.6399 0.9284
0 4.00000 -54.92398 -10.92506 0.87011 -0.45535 -0.18861 0.5709 0.9146
0 4.00000 -46.56230 -31.11193 0.87011 -0.45535 -0.18861 0.6362 0.7569
tube_dh0
0 9.00000 -46.09691 -9.16925 0.87011 -0.45535 -0.18861 0.6399 0.9284
0 4.00000 -46.56230 -31.11193 0.87011 -0.45535 -0.18861 0.6362 0.7569
0 9.00000 -39.07907 -26.11180 0.87011 -0.45535 -0.18861 0.6947 0.7960
tube_d0
0 -4.00000 -53.21406 -35.55649 0.00000 -0.92388 -0.38268 0.5843 0.7222
0 4.00000 -53.21406 -35.55649 0.00000 -0.92388 -0.38268 0.5843 0.7222
0 4.00000 -62.77026 -12.48578 0.00000 -0.92388 -0.38268 0.5096 0.9025
tube_d0
0 -4.00000 -53.21406 -35.55649 0.00000 -0.92388 -0.38268 0.5843 0.7222
0 4.00000 -62.77026 -12.48578 0.00000 -0.92388 -0.38268 0.5096 0.9025
0 -4.00000 -62.77026 -12.48578 0.00000 -0.92388 -0.38268 0.5096 0.9025
tube_dlip
0 -9.00000 -46.09691 -9.16925 -0.00000 0.92388 0.38268 0.6399 0.9284
0 9.00000 -46.09691 -9.16925 -0.00000 0.92388 0.38268 0.6399 0.9284
0 9.00000 -39.07907 -26.11180 -0.00000 0.92388 0.38268 0.6947 0.7960
tube_dlip
0 -9.00000 -46.09691 -9.16925 -0.00000 0.92388 0.38268 0.6399 0.9284
0 9.00000 -39.07907 -26.11180 -0.00000 0.92388 0.38268 0.6947 0.7960
0 -9.00000 -39.07907 -26.11180 -0.00000 0.92388 0.38268 0.6947 0.7960
tube_d0
0 -4.00000 -31.11193 -46.56230 -1.00000 -0.00000 0.00000 0.7569 0.6362
0 -4.00000 -35.55649 -53.21406 -1.00000 -0.00000 0.00000 0.7222 0.5843
0 -4.00000 -53.21406 -35.55649 -1.00000 -0.00000 0.00000 0.5843 0.7222
tube_d0
0 -4.00000 -31.11193 -46.56230 -1.00000 -0.00000 0.00000 0.7569 0.6362
0 -4.00000 -53.21406 -35.55649 -1.00000 -0.00000 0.00000 0.5843 0.7222
0 -4.00000 -46.56230 -31.11193 -1.00000 -0.00000 0.00000 0.6362 0.7569
tube_dh0
0 -9.00000 -26.11180 -39.07907 -0.87011 -0.34851 -0.34851 0.7960 0.6947
0 -4.00000 -31.11193 -46.56230 -0.87011 -0.34851 -0.34851 0.7569 0.6362
0 -4.00000 -46.56230 -31.11193 -0.87011 -0.34851 -0.34851 0.6362 0.7569
tube_dh0
0 -9.00000 -26.11180 -39.07907 -0.87011 -0.34851 -0.34851 0.7960 0.6947
0 -4.00000 -46.56230 -31.11193 -0.87011 -0.34851 -0.34851 0.6362 0.7569
0 -9.00000 -39.07907 -26.11180 -0.87011 -0.34851 -0.34851 0.6947 0.7960
tube_d0
0 4.00000 -46.56230 -31.11193 1.00000 0.00000 0.00000 0.6362 0.7569
0 4.00000 -53.21406 -35.55649 1.00000 0.00000 0.00000 0.5843 0.7222
0 4.00000 -35.55649 -53.21406 1.00000 0.00000 0.00000 0.7222 0.5843
tube_d0
0 4.00000 -46.56230 -31.11193 1.00000 0.00000 0.00000 0.6362 0.7569
0 4.00000 -35.55649 -53.21406 1.00000 0.00000 0.00000 0.7222 0.5843
0 4.00000 -31.11193 -46.56230 1.00000 0.00000 0.00000 0.7569 0.6362
tube_dh0
0 9.00000 -39.07907 -26.11180 0.87011 -0.34851 -0.34851 0.6947 0.7960
0 4.00000 -46.56230 -31.11193 0.87011 -0.34851 -0.34851 0.6362 0.7569
0 4.00000 -31.11193 -46.56230 0.87011 -0.34851 -0.34851 0.7569 0.6362
tube_dh0
0 9.00000 -39.07907 -26.11180 0.87011 -0.34851 -0.34851 0.6947 0.7960
0 4.00000 -31.11193 -46.56230 0.87011 -0.34851 -0.34851 0.7569 0.6362
0 9.00000 -26.11180 -39.07907 0.87011 -0.34851 -0.34851 0.7960 0.6947
tube_d0
0 -4.00000 -35.55649 -53.21406 0.00000 -0.70711 -0.70711 0.7222 0.5843
0 4.00000 -35.55649 -53.21406 0.00000 -0.70711 -0.70711 0.7222 0.5843
0 4.00000 -53.21406 -35.55649 0.00000 -0.70711 -0.70711 0.5843 0.7222
tube_d0
0 -4.00000 -35.55649 -53.21406 0.00000 -0.70711 -0.70711 0.7222 0.5843
0 4.00000 -53.21406 -35.55649 0.00000 -0.70711 -0.70711 0.5843 0.7222
0 -4.00000 -53.21406 -35.55649 0.00000 -0.70711 -0.70711 0.5843 0.7222
tube_dlip
0 -9.00000 -39.07907 -26.11180 -0.00000 0.70711 0.70711 0.6947 0.7960
0 9.00000 -39.07907 -26.11180 -0.00000 0.70711 0.70711 0.6947 0.7960
0 9.00000 -26.11180 -39.07907 -0.00000 0.70711 0.70711 0.7960 0.6947
tube_dlip
0 -9.00000 -39.07907 -26.11180 -0.00000 0.70711 0.70711 0.6947 0.7960
0 9.00000 -26.11180 -39.07907 -0.00000 0.70711 0.70711 0.7960 0.6947
0 -9.00000 -26.11180 -39.07907 -0.00000 0.70711 0.70711 0.7960 0.6947
tube_d0
0 -4.00000 -10.92506 -54.92398 -1.00000 -0.00000 0.00000 0.9146 0.5709
0 -4.00000 -12.48578 -62.77026 -1.00000 -0.00000 0.00000 0.9025 0.5096
0 -4.00000 -35.55649 -53.21406 -1.00000 -0.00000 0.00000 0.7222 0.5843
tube_d0
0 -4.00000 -10.92506 -54.92398 -1.00000 -0.00000 0.00000 0.9146 0.5709
0 -4.00000 -35.55649 -53.21406 -1.00000 -0.00000 0.00000 0.7222 0.5843
0 -4.00000 -31.11193 -46.56230 -1.00000 -0.00000 0.00000 0.7569 0.6362
tube_dh0
0 -9.00000 -9.16925 -46.09691 -0.87011 -0.18861 -0.45535 0.9284 0.6399
0 -4.00000 -10.92506 -54.92398 -0.87011 -0.18861 -0.45535 0.9146 0.5709
0 -4.00000 -31.11193 -46.56230 -0.87011 -0.18861 -0.45535 0.7569 0.6362
tube_dh0
0 -9.00000 -9.16925 -46.09691 -0.87011 -0.18861 -0.45535 0.9284 0.6399
0 -4.00000 -31.11193 -46.56230 -0.87011 -0.18861 -0.45535 0.7569 0.6362
0 -9.00000 -26.11180 -39.07907 -0.87011 -0.18861 -0.45535 0.7960 0.6947
tube_d0
0 4.00000 -31.11193 -46.56230 1.00000 0.00000 0.00000 0.7569 0.6362
0 4.00000 -35.55649 -53.21406 1.00000 0.00000 0.00000 0.7222 0.5843
0 4.00000 -12.48578 -62.77026 1.00000 0.00000 0.00000 0.9025 0.5096
tube_d0
0 4.00000 -31.11193 -46.56230 1.00000 0.00000 0.00000 0.7569 0.6362
0 4.00000 -12.48578 -62.77026 1.00000 0.00000 0.00000 0.9025 0.5096
0 4.00000 -10.92506 -54.92398 1.00000 0.00000 0.00000 0.9146 0.5709
tube_dh0
0 9.00000 -26.11180 -39.07907 0.87011 -0.18861 -0.45535 0.7960 0.6947
0 4.00000 -31.11193 -46.56230 0.87011 -0.18861 -0.45535 0.7569 0.6362
0 4.00000 -10.92506 -54.92398 0.87011 -0.18861 -0.45535 0.9146 0.5709
tube_dh0
0 9.00000 -26.11180 -39.07907 0.87011 -0.18861 -0.45535 0.7960 0.6947
0 4.00000 -10.92506 -54.92398 0.87011 -0.18861 -0.45535 0.9146 0.5709
0 9.00000 -9.16925 -46.09691 0.87011 -0.18861 -0.45535 0.9284 0.6399
tube_d0
0 -4.00000 -12.48578 -62.77026 0.00000 -0.38268 -0.92388 0.9025 0.5096
0 4.00000 -12.48578 -62.77026 0.00000 -0.38268 -0.92388 0.9025 0.5096
0 4.00000 -35.55649 -53.21406 0.00000 -0.38268 -0.92388 0.7222 0.5843
tube_d0
0 -4.00000 -12.48578 -62.77026 0.00000 -0.38268 -0.92388 0.9025 0.5096
0 4.00000 -35.55649 -53.21406 0.00000 -0.38268 -0.92388 0.7222 0.5843
0 -4.00000 -35.55649 -53.21406 0.00000 -0.38268 -0.92388 0.7222 0.5843
tube_dlip
0 -9.00000 -26.11180 -39.07907 -0.00000 0.38268 0.92388 0.7960 0.6947
0 9.00000 -26.11180 -39.07907 -0.00000 0.38268 0.92388 0.7960 0.6947
0 9.00000 -9.16925 -46.09691 -0.00000 0.38268 0.92388 0.9284 0.6399
tube_dlip
0 -9.00000 -26.11180 -39.07907 -0.00000 0.38268 0.92388 0.7960 0.6947
0 9.00000 -9.16925 -46.09691 -0.00000 0.38268 0.92388 0.9284 0.6399
0 -9.00000 -9.16925 -46.09691 -0.00000 0.38268 0.92388 0.9284 0.6399
tube_d0
0 -4.00000 10.92506 -54.92398 -1.00000 0.00000 -0.00000 0.0854 0.5709
0 -4.00000 12.48578 -62.77026 -1.00000 0.00000 -0.00000 0.0975 0.5096
0 -4.00000 -12.48578 -62.77026 -1.00000 0.00000 -0.00000 0.9025 0.5096
tube_d0
0 -4.00000 10.92506 -54.92398 -1.00000 0.00000 -0.00000 0.0854 0.5709
0 -4.00000 -12.48578 -62.77026 -1.00000 0.00000 -0.00000 0.9025 0.5096
0 -4.00000 -10.92506 -54.92398 -1.00000 0.00000 -0.00000 0.9146 0.5709
tube_dh0
0 -9.00000 9.16925 -46.09691 -0.87011 -0.00000 -0.49286 0.0716 0.6399
0 -4.00000 10.92506 -54.92398 -0.87011 -0.00000 -0.49286 0.0854 0.5709
0 -4.00000 -10.92506 -54.92398 -0.87011 -0.00000 -0.49286 0.9146 0.5709
tube_dh0
0 -9.00000 9.16925 -46.09691 -0.87011 -0.00000 -0.49286 0.0716 0.6399
0 -4.00000 -10.92506 -54.92398 -0.87011 -0.00000 -0.49286 0.9146 0.5709
0 -9.00000 -9.16925 -46.09691 -0.87011 -0.00000 -0.49286 0.9284 0.6399
tube_d0
0 4.00000 -10.92506 -54.92398 1.00000 0.00000 0.00000 0.9146 0.5709
0 4.00000 -12.48578 -62.77026 1.00000 0.00000 0.00000 0.9025 0.5096
0 4.00000 12.48578 -62.77026 1.00000 0.00000 0.00000 0.0975 0.5096
tube_d0
0 4.00000 -10.92506 -54.92398 1.00000 0.00000 0.00000 0.9146 0.5709
0 4.00000 12.48578 -62.77026 1.00000 0.00000 0.00000 0.0975 0.5096
0 4.00000 10.92506 -54.92398 1.00000 0.00000 0.00000 0.0854 0.5709
tube_dh0
0 9.00000 -9.16925 -46.09691 0.87011 -0.00000 -0.49286 0.9284 0.6399
0 4.00000 -10.92506 -54.92398 0.87011 -0.00000 -0.49286 0.9146 0.5709
0 4.00000 10.92506 -54.92398 0.87011 -0.00000 -0.49286 0.0854 0.5709
tube_dh0
0 9.00000 -9.16925 -46.09691 0.87011 -0.00000 -0.49286 0.9284 0.6399
0 4.00000 10.92506 -54.92398 0.87011 -0.00000 -0.49286 0.0854 0.5709
0 9.00000 9.16925 -46.09691 0.87011 -0.00000 -0.49286 0.0716 0.6399
tube_d0
0 -4.00000 12.48578 -62.77026 0.00000 -0.00000 -1.00000 0.0975 0.5096
0 4.00000 12.48578 -62.77026 0.00000 -0.00000 -1.00000 0.0975 0.5096
0 4.00000 -12.48578 -62.77026 0.00000 -0.00000 -1.00000 0.9025 0.5096
tube_d0
0 -4.00000 12.48578 -62.77026 0.00000 -0.00000 -1.00000 0.0975 0.5096
0 4.00000 -12.48578 -62.77026 0.00000 -0.00000 -1.00000 0.9025 0.5096
0 -4.00000 -12.48578 -62.77026 0.00000 -0.00000 -1.00000 0.9025 0.5096
tube_dlip
0 -9.00000 -9.16925 -46.09691 0.00000 0.00000 1.00000 0.9284 0.6399
0 9.00000 -9.16925 -46.09691 0.00000 0.00000 1.00000 0.9284 0.6399
0 9.00000 9.16925 -46.09691 0.00000 0.00000 1.00000 0.0716 0.6399
tube_dlip
0 -9.00000 -9.16925 -46.09691 0.00000 0.00000 1.00000 0.9284 0.6399
0 9.00000 9.16925 -46.09691 0.00000 0.00000 1.00000 0.0716 0.6399
0 -9.00000 9.16925 -46.09691 0.00000 0.00000 1.00000 0.0716 0.6399
tube_d0
0 -4.00000 31.11193 -46.56230 -1.00000 0.00000 -0.00000 0.2431 0.6362
0 -4.00000 35.55649 -53.21406 -1.00000 0.00000 -0.00000 0.2778 0.5843
0 -4.00000 12.48578 -62.77026 -1.00000 0.00000 -0.00000 0.0975 0.5096
tube_d0
0 -4.00000 31.11193 -46.56230 -1.00000 0.00000 -0.00000 0.2431 0.6362
0 -4.00000 12.48578 -62.77026 -1.00000 0.00000 -0.00000 0.0975 0.5096
0 -4.00000 10.92506 -54.92398 -1.00000 0.00000 -0.00000 0.0854 0.5709
tube_dh0
0 -9.00000 26.11180 -39.07907 -0.87011 0.18861 -0.45535 0.2040 0.6947
0 -4.00000 31.11193 -46.56230 -0.87011 0.18861 -0.45535 0.2431 0.6362
0 -4.00000 10.92506 -54.92398 -0.87011 0.18861 -0.45535 0.0854 0.5709
tube_dh0
0 -9.00000 26.11180 -39.07907 -0.87011 0.18861 -0.45535 0.2040 0.6947
0 -4.00000 10.92506 -54.92398 -0.87011 0.18861 -0.45535 0.0854 0.5709
0 -9.00000 9.16925 -46.09691 -0.87011 0.18861 -0.45535 0.0716 0.6399
tube_d0
0 4.00000 10.92506 -54.92398 1.00000 -0.00000 0.00000 0.0854 0.5709
0 4.00000 12.48578 -62.77026 1.00000 -0.00000 0.00000 0.0975 0.5096
0 4.00000 35.55649 -53.21406 1.00000 -0.00000 0.00000 0.2778 0.5843
tube_d0
0 4.00000 10.92506 -54.92398 1.00000 -0.00000 0.00000 0.0854 0.5709
0 4.00000 35.55649 -53.21406 1.00000 -0.00000 0.00000 0.2778 0.5843
0 4.00000 31.11193 -46.56230 1.00000 -0.00000 0.00000 0.2431 0.6362
tube_dh0
0 9.00000 9.16925 -46.09691 0.87011 0.18861 -0.45535 0.0716 0.6399
0 4.00000 10.92506 -54.92398 0.87011 0.18861 -0.45535 0.0854 0.5709
0 4.00000 31.11193 -46.56230 0.87011 0.18861 -0.45535 0.2431 0.6362
tube_dh0
0 9.00000 9.16925 -46.09691 0.87011 0.18861 -0.45535 0.0716 0.6399
0 4.00000 31.11193 -46.56230 0.87011 0.18861 -0.45535 0.2431 0.6362
0 9.00000 26.11180 -39.07907 0.87011 0.18861 -0.45535 0.2040 0.6947
tube_d0
0 -4.00000 35.55649 -53.21406 0.00000 0.38268 -0.92388 0.2778 0.5843
0 4.00000 35.55649 -53.21406 0.00000 0.38268 -0.92388 0.2778 0.5843
0 4.00000 12.48578 -62.77026 0.00000 0.38268 -0.92388 0.0975 0.5096
tube_d0
0 -4.00000 35.55649 -53.21406 0.00000 0.38268 -0.92388 0.2778 0.5843
0 4.00000 12.48578 -62.77026 0.00000 0.38268 -0.92388 0.0975 0.5096
0 -4.00000 12.48578 -62.77026 0.00000 0.38268 -0.92388 0.0975 0.5096
tube_dlip
0 -9.00000 9.16925 -46.09691 0.00000 -0.38268 0.92388 0.0716 0.6399
0 9.00000 9.16925 -46.09691 0.00000 -0.38268 0.92388 0.0716 0.6399
0 9.00000 26.11180 -39.07907 0.00000 -0.38268 0.92388 0.2040 0.6947
tube_dlip
0 -9.00000 9.16925 -46.09691 0.00000 -0.38268 0.92388 0.0716 0.6399
0 9.00000 26.11180 -39.07907 0.00000 -0.38268 0.92388 0.2040 0.6947
0 -9.00000 26.11180 -39.07907 0.00000 -0.38268 0.92388 0.2040 0.6947
tube_d1
0 -4.00000 46.56230 -31.11193 -1.00000 0.00000 -0.00000 0.3638 0.7569
0 -4.00000 53.21406 -35.55649 -1.00000 0.00000 -0.00000 0.4157 0.7222
0 -4.00000 35.55649 -53.21406 -1.00000 0.00000 -0.00000 0.2778 0.5843
tube_d1
0 -4.00000 46.56230 -31.11193 -1.00000 0.00000 -0.00000 0.3638 0.7569
0 -4.00000 35.55649 -53.21406 -1.00000 0.00000 -0.00000 0.2778 0.5843
0 -4.00000 31.11193 -46.56230 -1.00000 0.00000 -0.00000 0.2431 0.6362
tube_dh1
0 -9.00000 39.07907 -26.11180 -0.87011 0.34851 -0.34851 0.3053 0.7960
0 -4.00000 46.56230 -31.11193 -0.87011 0.34851 -0.34851 0.3638 0.7569
0 -4.00000 31.11193 -46.56230 -0.87011 0.34851 -0.34851 0.2431 0.6362
tube_dh1
0 -9.00000 39.07907 -26.11180 -0.87011 0.34851 -0.34851 0.3053 0.7960
0 -4.00000 31.11193 -46.56230 -0.87011 0.34851 -0.34851 0.2431 0.6362
0 -9.00000 26.11180 -39.07907 -0.87011 0.34851 -0.34851 0.2040 0.6947
tube_d1
0 4.00000 31.11193 -46.56230 1.00000 -0.00000 0.00000 0.2431 0.6362
0 4.00000 35.55649 -53.21406 1.00000 -0.00000 0.00000 0.2778 0.5843
0 4.00000 53.21406 -35.55649 1.00000 -0.00000 0.00000 0.4157 0.7222
tube_d1
0 4.00000 31.11193 -46.56230 1.00000 -0.00000 0.00000 0.2431 0.6362
0 4.00000 53.21406 -35.55649 1.00000 -0.00000 0.00000 0.4157 0.7222
0 4.00000 46.56230 -31.11193 1.00000 -0.00000 0.00000 0.3638 0.7569
tube_dh1
0 9.00000 26.11180 -39.07907 0.87011 0.34851 -0.34851 0.2040 0.6947
0 4.00000 31.11193 -46.56230 0.87011 0.34851 -0.34851 0.2431 0.6362
0 4.00000 46.56230 -31.11193 0.87011 0.34851 -0.34851 0.3638 0.7569
tube_dh1
0 9.00000 26.11180 -39.07907 0.87011 0.34851 -0.34851 0.2040 0.6947
0 4.00000 46.56230 -31.11193 0.87011 0.34851 -0.34851 0.3638 0.7569
0 9.00000 39.07907 -26.11180 0.87011 0.34851 -0.34851 0.3053 0.7960
tube_d1
0 -4.00000 53.21406 -35.55649 0.00000 0.70711 -0.70711 0.4157 0.7222
0 4.00000 53.21406 -35.55649 0.00000 0.70711 -0.70711 0.4157 0.7222
0 4.00000 35.55649 -53.21406 0.00000 0.70711 -0.70711 0.2778 0.5843
tube_d1
0 -4.00000 53.21406 -35.55649 0.00000 0.70711 -0.70711 0.4157 0.7222
0 4.00000 35.55649 -53.21406 0.00000 0.70711 -0.70711 0.2778 0.5843
0 -4.00000 35.55649 -53.21406 0.00000 0.70711 -0.70711 0.2778 0.5843
tube_dlip
0 -9.00000 26.11180 -39.07907 0.00000 -0.70711 0.70711 0.2040 0.6947
0 9.00000 26.11180 -39.07907 0.00000 -0.70711 0.70711 0.2040 0.6947
0 9.00000 39.07907 -26.11180 0.00000 -0.70711 0.70711 0.3053 0.7960
tube_dlip
0 -9.00000 26.11180 -39.07907 0.00000 -0.70711 0.70711 0.2040 0.6947
0 9.00000 39.07907 -26.11180 0.00000 -0.70711 0.70711 0.3053 0.7960
0 -9.00000 39.07907 -26.11180 0.00000 -0.70711 0.70711 0.3053 0.7960
tube_d1
0 -4.00000 54.92398 -10.92506 -1.00000 0.00000 -0.00000 0.4291 0.9146
0 -4.00000 62.77026 -12.48578 -1.00000 0.00000 -0.00000 0.4904 0.9025
0 -4.00000 53.21406 -35.55649 -1.00000 0.00000 -0.00000 0.4157 0.7222
tube_d1
0 -4.00000 54.92398 -10.92506 -1.00000 0.00000 -0.00000 0.4291 0.9146
0 -4.00000 53.21406 -35.55649 -1.00000 0.00000 -0.00000 0.4157 0.7222
0 -4.00000 46.56230 -31.11193 -1.00000 0.00000 -0.00000 0.3638 0.7569
tube_dh1
0 -9.00000 46.09691 -9.16925 -0.87011 0.45535 -0.18861 0.3601 0.9284
0 -4.00000 54.92398 -10.92506 -0.87011 0.45535 -0.18861 0.4291 0.9146
0 -4.00000 46.56230 -31.11193 -0.87011 0.45535 -0.18861 0.3638 0.7569
tube_dh1
0 -9.00000 46.09691 -9.16925 -0.87011 0.45535 -0.18861 0.3601 0.9284
0 -4.00000 46.56230 -31.11193 -0.87011 0.45535 -0.18861 0.3638 0.7569
0 -9.00000 39.07907 -26.11180 -0.87011 0.45535 -0.18861 0.3053 0.7960
tube_d1
0 4.00000 46.56230 -31.11193 1.00000 -0.00000 0.00000 0.3638 0.7569
0 4.00000 53.21406 -35.55649 1.00000 -0.00000 0.00000 0.4157 0.7222
0 4.00000 62.77026 -12.48578 1.00000 -0.00000 0.00000 0.4904 0.9025
tube_d1
0 4.00000 46.56230 -31.11193 1.00000 -0.00000 0.00000 0.3638 0.7569
0 4.00000 62.77026 -12.48578 1.00000 -0.00000 0.00000 0.4904 0.9025
0 4.00000 54.92398 -10.92506 1.00000 -0.00000 0.00000 0.4291 0.9146
tube_dh1
0 9.00000 39.07907 -26.11180 0.87011 0.45535 -0.18861 0.3053 0.7960
0 4.00000 46.56230 -31.11193 0.87011 0.45535 -0.18861 0.3638 0.7569
0 4.00000 54.92398 -10.92506 0.87011 0.45535 -0.18861 0.4291 0.9146
tube_dh1
0 9.00000 39.07907 -26.11180 0.87011 0.45535 -0.18861 0.3053 0.7960
0 4.00000 54.92398 -10.92506 0.87011 0.45535 -0.18861 0.4291 0.9146
0 9.00000 46.09691 -9.16925 0.87011 0.45535 -0.18861 0.3601 0.9284
tube_d1
0 -4.00000 62.77026 -12.48578 0.00000 0.92388 -0.38268 0.4904 0.9025
0 4.00000 62.77026 -12.48578 0.00000 0.92388 -0.38268 0.4904 0.9025
0 4.00000 53.21406 -35.55649 0.00000 0.92388 -0.38268 0.4157 0.7222
tube_d1
0 -4.00000 62.77026 -12.48578 0.00000 0.92388 -0.38268 0.4904 0.9025
0 4.00000 53.21406 -35.55649 0.00000 0.92388 -0.38268 0.4157 0.7222
0 -4.00000 53.21406 -35.55649 0.00000 0.92388 -0.38268 0.4157 0.7222
tube_dlip
0 -9.00000 39.07907 -26.11180 0.00000 -0.92388 0.38268 0.3053 0.7960
0 9.00000 39.07907 -26.11180 0.00000 -0.92388 0.38268 0.3053 0.7960
0 9.00000 46.09691 -9.16925 0.00000 -0.92388 0.38268 0.3601 0.9284
tube_dlip
0 -9.00000 39.07907 -26.11180 0.00000 -0.92388 0.38268 0.3053 0.7960
0 9.00000 46.09691 -9.16925 0.00000 -0.92388 0.38268 0.3601 0.9284
0 -9.00000 46.09691 -9.16925 0.00000 -0.92388 0.38268 0.3601 0.9284
tube_d2
0 -4.00000 54.92398 10.92506 -1.00000 0.00000 0.00000 0.4291 0.0854
0 -4.00000 62.77026 12.48578 -1.00000 0.00000 0.00000 0.4904 0.0975
0 -4.00000 62.77026 -12.48578 -1.00000 0.00000 0.00000 0.4904 0.9025
tube_d2
0 -4.00000 54.92398 10.92506 -1.00000 0.00000 0.00000 0.4291 0.0854
0 -4.00000 62.77026 -12.48578 -1.00000 0.00000 0.00000 0.4904 0.9025
0 -4.00000 54.92398 -10.92506 -1.00000 0.00000 0.00000 0.4291 0.9146
tube_dh2
0 -9.00000 46.09691 9.16925 -0.87011 0.49286 -0.00000 0.3601 0.0716
0 -4.00000 54.92398 10.92506 -0.87011 0.49286 -0.00000 0.4291 0.0854
0 -4.00000 54.92398 -10.92506 -0.87011 0.49286 -0.00000 0.4291 0.9146
tube_dh2
0 -9.00000 46.09691 9.16925 -0.87011 0.49286 -0.00000 0.3601 0.0716
0 -4.00000 54.92398 -10.92506 -0.87011 0.49286 -0.00000 0.4291 0.9146
0 -9.00000 46.09691 -9.16925 -0.87011 0.49286 -0.00000 0.3601 0.9284
tube_d2
0 4.00000 54.92398 -10.92506 1.00000 -0.00000 0.00000 0.4291 0.9146
0 4.00000 62.77026 -12.48578 1.00000 -0.00000 0.00000 0.4904 0.9025
0 4.00000 62.77026 12.48578 1.00000 -0.00000 0.00000 0.4904 0.0975
tube_d2
0 4.00000 54.92398 -10.92506 1.00000 -0.00000 0.00000 0.4291 0.9146
0 4.00000 62.77026 12.48578 1.00000 -0.00000 0.00000 0.4904 0.0975
0 4.00000 54.92398 10.92506 1.00000 -0.00000 0.00000 0.4291 0.0854
tube_dh2
0 9.00000 46.09691 -9.16925 0.87011 0.49286 -0.00000 0.3601 0.9284
0 4.00000 54.92398 -10.92506 0.87011 0.49286 -0.00000 0.4291 0.9146
0 4.00000 54.92398 10.92506 0.87011 0.49286 -0.00000 0.4291 0.0854
tube_dh2
0 9.00000 46.09691 -9.16925 0.87011 0.49286 -0.00000 0.3601 0.9284
0 4.00000 54.92398 10.92506 0.87011 0.49286 -0.00000 0.4291 0.0854
0 9.00000 46.09691 9.16925 0.87011 0.49286 -0.00000 0.3601 0.0716
tube_d2
0 -4.00000 62.77026 12.48578 0.00000 1.00000 -0.00000 0.4904 0.0975
0 4.00000 62.77026 12.48578 0.00000 1.00000 -0.00000 0.4904 0.0975
0 4.00000 62.77026 -12.48578 0.00000 1.00000 -0.00000 0.4904 0.9025
tube_d2
0 -4.00000 62.77026 12.48578 0.00000 1.00000 -0.00000 0.4904 0.0975
0 4.00000 62.77026 -12.48578 0.00000 1.00000 -0.00000 0.4904 0.9025
0 -4.00000 62.77026 -12.48578 0.00000 1.00000 -0.00000 0.4904 0.9025
tube_dlip
0 -9.00000 46.09691 -9.16925 0.00000 -1.00000 0.00000 0.3601 0.9284
0 9.00000 46.09691 -9.16925 0.00000 -1.00000 0.00000 0.3601 0.9284
0 9.00000 46.09691 9.16925 0.00000 -1.00000 0.00000 0.3601 0.0716
tube_dlip
0 -9.00000 46.09691 -9.16925 0.00000 -1.00000 0.00000 0.3601 0.9284
0 9.00000 46.09691 9.16925 0.00000 -1.00000 0.00000 0.3601 0.0716
0 -9.00000 46.09691 9.16925 0.00000 -1.00000 0.00000 0.3601 0.0716
tube_glass
0 -42.00000 45.27010 18.75149 -0.00000 0.98079 0.19509 0.3537 0.1465
0 42.00000 45.27010 18.75149 -0.00000 0.98079 0.19509 0.3537 0.1465
0 42.00000 49.00000 0.00000 -0.00000 0.98079 0.19509 0.3828 0.0000
tube_glass
0 -42.00000 45.27010 18.75149 -0.00000 0.98079 0.19509 0.3537 0.1465
0 42.00000 49.00000 0.00000 -0.00000 0.98079 0.19509 0.3828 0.0000
0 -42.00000 49.00000 0.00000 -0.00000 0.98079 0.19509 0.3828 0.0000
tube_glass
0 -42.00000 34.64823 34.64823 -0.00000 0.83147 0.55557 0.2707 0.2707
0 42.00000 34.64823 34.64823 -0.00000 0.83147 0.55557 0.2707 0.2707
0 42.00000 45.27010 18.75149 -0.00000 0.83147 0.55557 0.3537 0.1465
tube_glass
0 -42.00000 34.64823 34.64823 -0.00000 0.83147 0.55557 0.2707 0.2707
0 42.00000 45.27010 18.75149 -0.00000 0.83147 0.55557 0.3537 0.1465
0 -42.00000 45.27010 18.75149 -0.00000 0.83147 0.55557 0.3537 0.1465
tube_glass
0 -42.00000 18.75149 45.27010 -0.00000 0.55557 0.83147 0.1465 0.3537
0 42.00000 18.75149 45.27010 -0.00000 0.55557 0.83147 0.1465 0.3537
0 42.00000 34.64823 34.64823 -0.00000 0.55557 0.83147 0.2707 0.2707
tube_glass
0 -42.00000 18.75149 45.27010 -0.00000 0.55557 0.83147 0.1465 0.3537
0 42.00000 34.64823 34.64823 -0.00000 0.55557 0.83147 0.2707 0.2707
0 -42.00000 34.64823 34.64823 -0.00000 0.55557 0.83147 0.2707 0.2707
tube_glass
0 -42.00000 0.00000 49.00000 -0.00000 0.19509 0.98079 0.0000 0.3828
0 42.00000 0.00000 49.00000 -0.00000 0.19509 0.98079 0.0000 0.3828
0 42.00000 18.75149 45.27010 -0.00000 0.19509 0.98079 0.1465 0.3537
tube_glass
0 -42.00000 0.00000 49.00000 -0.00000 0.19509 0.98079 0.0000 0.3828
0 42.00000 18.75149 45.27010 -0.00000 0.19509 0.98079 0.1465 0.3537
0 -42.00000 18.75149 45.27010 -0.00000 0.19509 0.98079 0.1465 0.3537
tube_glass
0 -42.00000 -18.75149 45.27010 0.00000 -0.19509 0.98079 0.8535 0.3537
0 42.00000 -18.75149 45.27010 0.00000 -0.19509 0.98079 0.8535 0.3537
0 42.00000 0.00000 49.00000 0.00000 -0.19509 0.98079 0.0000 0.3828
tube_glass
0 -42.00000 -18.75149 45.27010 0.00000 -0.19509 0.98079 0.8535 0.3537
0 42.00000 0.00000 49.00000 0.00000 -0.19509 0.98079 0.0000 0.3828
0 -42.00000 0.00000 49.00000 0.00000 -0.19509 0.98079 0.0000 0.3828
tube_glass
0 -42.00000 -34.64823 34.64823 0.00000 -0.55557 0.83147 0.7293 0.2707
0 42.00000 -34.64823 34.64823 0.00000 -0.55557 0.83147 0.7293 0.2707
0 42.00000 -18.75149 45.27010 0.00000 -0.55557 0.83147 0.8535 0.3537
tube_glass
0 -42.00000 -34.64823 34.64823 0.00000 -0.55557 0.83147 0.7293 0.2707
0 42.00000 -18.75149 45.27010 0.00000 -0.55557 0.83147 0.8535 0.3537
0 -42.00000 -18.75149 45.27010 0.00000 -0.55557 0.83147 0.8535 0.3537
tube_glass
0 -42.00000 -45.27010 18.75149 0.00000 -0.83147 0.55557 0.6463 0.1465
0 42.00000 -45.27010 18.75149 0.00000 -0.83147 0.55557 0.6463 0.1465
0 42.00000 -34.64823 34.64823 0.00000 -0.83147 0.55557 0.7293 0.2707
tube_glass
0 -42.00000 -45.27010 18.75149 0.00000 -0.83147 0.55557 0.6463 0.1465
0 42.00000 -34.64823 34.64823 0.00000 -0.83147 0.55557 0.7293 0.2707
0 -42.00000 -34.64823 34.64823 0.00000 -0.83147 0.55557 0.7293 0.2707
tube_glass
0 -42.00000 -49.00000 0.00000 0.00000 -0.98079 0.19509 0.6172 0.0000
0 42.00000 -49.00000 0.00000 0.00000 -0.98079 0.19509 0.6172 0.0000
0 42.00000 -45.27010 18.75149 0.00000 -0.98079 0.19509 0.6463 0.1465
tube_glass
0 -42.00000 -49.00000 0.00000 0.00000 -0.98079 0.19509 0.6172 0.0000
0 42.00000 -45.27010 18.75149 0.00000 -0.98079 0.19509 0.6463 0.1465
0 -42.00000 -45.27010 18.75149 0.00000 -0.98079 0.19509 0.6463 0.1465
tube_glass
0 -42.00000 -45.27010 -18.75149 0.00000 -0.98079 -0.19509 0.6463 0.8535
0 42.00000 -45.27010 -18.75149 0.00000 -0.98079 -0.19509 0.6463 0.8535
0 42.00000 -49.00000 0.00000 0.00000 -0.98079 -0.19509 0.6172 0.0000
tube_glass
0 -42.00000 -45.27010 -18.75149 0.00000 -0.98079 -0.19509 0.6463 0.8535
0 42.00000 -49.00000 0.00000 0.00000 -0.98079 -0.19509 0.6172 0.0000
0 -42.00000 -49.00000 0.00000 0.00000 -0.98079 -0.19509 0.6172 0.0000
tube_glass
0 -42.00000 -34.64823 -34.64823 0.00000 -0.83147 -0.55557 0.7293 0.7293
0 42.00000 -34.64823 -34.64823 0.00000 -0.83147 -0.55557 0.7293 0.7293
0 42.00000 -45.27010 -18.75149 0.00000 -0.83147 -0.55557 0.6463 0.8535
tube_glass
0 -42.00000 -34.64823 -34.64823 0.00000 -0.83147 -0.55557 0.7293 0.7293
0 42.00000 -45.27010 -18.75149 0.00000 -0.83147 -0.55557 0.6463 0.8535
0 -42.00000 -45.27010 -18.75149 0.00000 -0.83147 -0.55557 0.6463 0.8535
tube_glass
0 -42.00000 -18.75149 -45.27010 0.00000 -0.55557 -0.83147 0.8535 0.6463
0 42.00000 -18.75149 -45.27010 0.00000 -0.55557 -0.83147 0.8535 0.6463
0 42.00000 -34.64823 -34.64823 0.00000 -0.55557 -0.83147 0.7293 0.7293
tube_glass
0 -42.00000 -18.75149 -45.27010 0.00000 -0.55557 -0.83147 0.8535 0.6463
0 42.00000 -34.64823 -34.64823 0.00000 -0.55557 -0.83147 0.7293 0.7293
0 -42.00000 -34.64823 -34.64823 0.00000 -0.55557 -0.83147 0.7293 0.7293
tube_glass
0 -42.00000 -0.00000 -49.00000 0.00000 -0.19509 -0.98079 1.0000 0.6172
0 42.00000 -0.00000 -49.00000 0.00000 -0.19509 -0.98079 1.0000 0.6172
0 42.00000 -18.75149 -45.27010 0.00000 -0.19509 -0.98079 0.8535 0.6463
tube_glass
0 -42.00000 -0.00000 -49.00000 0.00000 -0.19509 -0.98079 1.0000 0.6172
0 42.00000 -18.75149 -45.27010 0.00000 -0.19509 -0.98079 0.8535 0.6463
0 -42.00000 -18.75149 -45.27010 0.00000 -0.19509 -0.98079 0.8535 0.6463
tube_glass
0 -42.00000 18.75149 -45.27010 0.00000 0.19509 -0.98079 0.1465 0.6463
0 42.00000 18.75149 -45.27010 0.00000 0.19509 -0.98079 0.1465 0.6463
0 42.00000 -0.00000 -49.00000 0.00000 0.19509 -0.98079 1.0000 0.6172
tube_glass
0 -42.00000 18.75149 -45.27010 0.00000 0.19509 -0.98079 0.1465 0.6463
0 42.00000 -0.00000 -49.00000 0.00000 0.19509 -0.98079 1.0000 0.6172
0 -42.00000 -0.00000 -49.00000 0.00000 0.19509 -0.98079 1.0000 0.6172
tube_glass
0 -42.00000 34.64823 -34.64823 0.00000 0.55557 -0.83147 0.2707 0.7293
0 42.00000 34.64823 -34.64823 0.00000 0.55557 -0.83147 0.2707 0.7293
0 42.00000 18.75149 -45.27010 0.00000 0.55557 -0.83147 0.1465 0.6463
tube_glass
0 -42.00000 34.64823 -34.64823 0.00000 0.55557 -0.83147 0.2707 0.7293
0 42.00000 18.75149 -45.27010 0.00000 0.55557 -0.83147 0.1465 0.6463
0 -42.00000 18.75149 -45.27010 0.00000 0.55557 -0.83147 0.1465 0.6463
tube_glass
0 -42.00000 45.27010 -18.75149 0.00000 0.83147 -0.55557 0.3537 0.8535
0 42.00000 45.27010 -18.75149 0.00000 0.83147 -0.55557 0.3537 0.8535
0 42.00000 34.64823 -34.64823 0.00000 0.83147 -0.55557 0.2707 0.7293
tube_glass
0 -42.00000 45.27010 -18.75149 0.00000 0.83147 -0.55557 0.3537 0.8535
0 42.00000 34.64823 -34.64823 0.00000 0.83147 -0.55557 0.2707 0.7293
0 -42.00000 34.64823 -34.64823 0.00000 0.83147 -0.55557 0.2707 0.7293
tube_glass
0 -42.00000 49.00000 -0.00000 0.00000 0.98079 -0.19509 0.3828 1.0000
0 42.00000 49.00000 -0.00000 0.00000 0.98079 -0.19509 0.3828 1.0000
0 42.00000 45.27010 -18.75149 0.00000 0.98079 -0.19509 0.3537 0.8535
tube_glass
0 -42.00000 49.00000 -0.00000 0.00000 0.98079 -0.19509 0.3828 1.0000
0 42.00000 45.27010 -18.75149 0.00000 0.98079 -0.19509 0.3537 0.8535
0 -42.00000 45.27010 -18.75149 0.00000 0.98079 -0.19509 0.3537 0.8535
tube_rail2
0 -42.00000 32.68402 33.78402 -1.00000 0.00000 0.00000 0.2553 0.2639
0 -42.00000 33.78402 33.78402 -1.00000 0.00000 0.00000 0.2639 0.2639
0 -42.00000 33.78402 32.68402 -1.00000 0.00000 0.00000 0.2639 0.2553
tube_rail2
0 -42.00000 32.68402 33.78402 -1.00000 0.00000 0.00000 0.2553 0.2639
0 -42.00000 33.78402 32.68402 -1.00000 0.00000 0.00000 0.2639 0.2553
0 -42.00000 32.68402 32.68402 -1.00000 0.00000 0.00000 0.2553 0.2553
tube_rail2
0 42.00000 32.68402 32.68402 1.00000 0.00000 0.00000 0.2553 0.2553
0 42.00000 33.78402 32.68402 1.00000 0.00000 0.00000 0.2639 0.2553
0 42.00000 33.78402 33.78402 1.00000 0.00000 0.00000 0.2639 0.2639
tube_rail2
0 42.00000 32.68402 32.68402 1.00000 0.00000 0.00000 0.2553 0.2553
0 42.00000 33.78402 33.78402 1.00000 0.00000 0.00000 0.2639 0.2639
0 42.00000 32.68402 33.78402 1.00000 0.00000 0.00000 0.2553 0.2639
tube_rail2
0 -42.00000 32.68402 32.68402 0.00000 -1.00000 0.00000 0.2553 0.2553
0 42.00000 32.68402 32.68402 0.00000 -1.00000 0.00000 0.2553 0.2553
0 42.00000 32.68402 33.78402 0.00000 -1.00000 0.00000 0.2553 0.2639
tube_rail2
0 -42.00000 32.68402 32.68402 0.00000 -1.00000 0.00000 0.2553 0.2553
0 42.00000 32.68402 33.78402 0.00000 -1.00000 0.00000 0.2553 0.2639
0 -42.00000 32.68402 33.78402 0.00000 -1.00000 0.00000 0.2553 0.2639
tube_rail2
0 -42.00000 33.78402 33.78402 -0.00000 1.00000 0.00000 0.2639 0.2639
0 42.00000 33.78402 33.78402 -0.00000 1.00000 0.00000 0.2639 0.2639
0 42.00000 33.78402 32.68402 -0.00000 1.00000 0.00000 0.2639 0.2553
tube_rail2
0 -42.00000 33.78402 33.78402 -0.00000 1.00000 0.00000 0.2639 0.2639
0 42.00000 33.78402 32.68402 -0.00000 1.00000 0.00000 0.2639 0.2553
0 -42.00000 33.78402 32.68402 -0.00000 1.00000 0.00000 0.2639 0.2553
tube_rail2
0 -42.00000 33.78402 32.68402 0.00000 0.00000 -1.00000 0.2639 0.2553
0 42.00000 33.78402 32.68402 0.00000 0.00000 -1.00000 0.2639 0.2553
0 42.00000 32.68402 32.68402 0.00000 0.00000 -1.00000 0.2553 0.2553
tube_rail2
0 -42.00000 33.78402 32.68402 0.00000 0.00000 -1.00000 0.2639 0.2553
0 42.00000 32.68402 32.68402 0.00000 0.00000 -1.00000 0.2553 0.2553
0 -42.00000 32.68402 32.68402 0.00000 0.00000 -1.00000 0.2553 0.2553
tube_rail2
0 -42.00000 32.68402 33.78402 0.00000 0.00000 1.00000 0.2553 0.2639
0 42.00000 32.68402 33.78402 0.00000 0.00000 1.00000 0.2553 0.2639
0 42.00000 33.78402 33.78402 0.00000 0.00000 1.00000 0.2639 0.2639
tube_rail2
0 -42.00000 32.68402 33.78402 0.00000 0.00000 1.00000 0.2553 0.2639
0 42.00000 33.78402 33.78402 0.00000 0.00000 1.00000 0.2639 0.2639
0 -42.00000 33.78402 33.78402 0.00000 0.00000 1.00000 0.2639 0.2639
tube_rail2
0 -42.00000 -33.78402 33.78402 -1.00000 0.00000 0.00000 0.7361 0.2639
0 -42.00000 -32.68402 33.78402 -1.00000 0.00000 0.00000 0.7447 0.2639
0 -42.00000 -32.68402 32.68402 -1.00000 0.00000 0.00000 0.7447 0.2553
tube_rail2
0 -42.00000 -33.78402 33.78402 -1.00000 0.00000 0.00000 0.7361 0.2639
0 -42.00000 -32.68402 32.68402 -1.00000 0.00000 0.00000 0.7447 0.2553
0 -42.00000 -33.78402 32.68402 -1.00000 0.00000 0.00000 0.7361 0.2553
tube_rail2
0 42.00000 -33.78402 32.68402 1.00000 0.00000 0.00000 0.7361 0.2553
0 42.00000 -32.68402 32.68402 1.00000 0.00000 0.00000 0.7447 0.2553
0 42.00000 -32.68402 33.78402 1.00000 0.00000 0.00000 0.7447 0.2639
tube_rail2
0 42.00000 -33.78402 32.68402 1.00000 0.00000 0.00000 0.7361 0.2553
0 42.00000 -32.68402 33.78402 1.00000 0.00000 0.00000 0.7447 0.2639
0 42.00000 -33.78402 33.78402 1.00000 0.00000 0.00000 0.7361 0.2639
tube_rail2
0 -42.00000 -33.78402 32.68402 0.00000 -1.00000 0.00000 0.7361 0.2553
0 42.00000 -33.78402 32.68402 0.00000 -1.00000 0.00000 0.7361 0.2553
0 42.00000 -33.78402 33.78402 0.00000 -1.00000 0.00000 0.7361 0.2639
tube_rail2
0 -42.00000 -33.78402 32.68402 0.00000 -1.00000 0.00000 0.7361 0.2553
0 42.00000 -33.78402 33.78402 0.00000 -1.00000 0.00000 0.7361 0.2639
0 -42.00000 -33.78402 33.78402 0.00000 -1.00000 0.00000 0.7361 0.2639
tube_rail2
0 -42.00000 -32.68402 33.78402 -0.00000 1.00000 0.00000 0.7447 0.2639
0 42.00000 -32.68402 33.78402 -0.00000 1.00000 0.00000 0.7447 0.2639
0 42.00000 -32.68402 32.68402 -0.00000 1.00000 0.00000 0.7447 0.2553
tube_rail2
0 -42.00000 -32.68402 33.78402 -0.00000 1.00000 0.00000 0.7447 0.2639
0 42.00000 -32.68402 32.68402 -0.00000 1.00000 0.00000 0.7447 0.2553
0 -42.00000 -32.68402 32.68402 -0.00000 1.00000 0.00000 0.7447 0.2553
tube_rail2
0 -42.00000 -32.68402 32.68402 0.00000 0.00000 -1.00000 0.7447 0.2553
0 42.00000 -32.68402 32.68402 0.00000 0.00000 -1.00000 0.7447 0.2553
0 42.00000 -33.78402 32.68402 0.00000 0.00000 -1.00000 0.7361 0.2553
tube_rail2
0 -42.00000 -32.68402 32.68402 0.00000 0.00000 -1.00000 0.7447 0.2553
0 42.00000 -33.78402 32.68402 0.00000 0.00000 -1.00000 0.7361 0.2553
0 -42.00000 -33.78402 32.68402 0.00000 0.00000 -1.00000 0.7361 0.2553
tube_rail2
0 -42.00000 -33.78402 33.78402 0.00000 0.00000 1.00000 0.7361 0.2639
0 42.00000 -33.78402 33.78402 0.00000 0.00000 1.00000 0.7361 0.2639
0 42.00000 -32.68402 33.78402 0.00000 0.00000 1.00000 0.7447 0.2639
tube_rail2
0 -42.00000 -33.78402 33.78402 0.00000 0.00000 1.00000 0.7361 0.2639
0 42.00000 -32.68402 33.78402 0.00000 0.00000 1.00000 0.7447 0.2639
0 -42.00000 -32.68402 33.78402 0.00000 0.00000 1.00000 0.7447 0.2639
tube_rail2
0 -42.00000 -33.78402 -32.68402 -1.00000 0.00000 0.00000 0.7361 0.7447
0 -42.00000 -32.68402 -32.68402 -1.00000 0.00000 0.00000 0.7447 0.7447
0 -42.00000 -32.68402 -33.78402 -1.00000 0.00000 0.00000 0.7447 0.7361
tube_rail2
0 -42.00000 -33.78402 -32.68402 -1.00000 0.00000 0.00000 0.7361 0.7447
0 -42.00000 -32.68402 -33.78402 -1.00000 0.00000 0.00000 0.7447 0.7361
0 -42.00000 -33.78402 -33.78402 -1.00000 0.00000 0.00000 0.7361 0.7361
tube_rail2
0 42.00000 -33.78402 -33.78402 1.00000 0.00000 0.00000 0.7361 0.7361
0 42.00000 -32.68402 -33.78402 1.00000 0.00000 0.00000 0.7447 0.7361
0 42.00000 -32.68402 -32.68402 1.00000 0.00000 0.00000 0.7447 0.7447
tube_rail2
0 42.00000 -33.78402 -33.78402 1.00000 0.00000 0.00000 0.7361 0.7361
0 42.00000 -32.68402 -32.68402 1.00000 0.00000 0.00000 0.7447 0.7447
0 42.00000 -33.78402 -32.68402 1.00000 0.00000 0.00000 0.7361 0.7447
tube_rail2
0 -42.00000 -33.78402 -33.78402 0.00000 -1.00000 0.00000 0.7361 0.7361
0 42.00000 -33.78402 -33.78402 0.00000 -1.00000 0.00000 0.7361 0.7361
0 42.00000 -33.78402 -32.68402 0.00000 -1.00000 0.00000 0.7361 0.7447
tube_rail2
0 -42.00000 -33.78402 -33.78402 0.00000 -1.00000 0.00000 0.7361 0.7361
0 42.00000 -33.78402 -32.68402 0.00000 -1.00000 0.00000 0.7361 0.7447
0 -42.00000 -33.78402 -32.68402 0.00000 -1.00000 0.00000 0.7361 0.7447
tube_rail2
0 -42.00000 -32.68402 -32.68402 -0.00000 1.00000 0.00000 0.7447 0.7447
0 42.00000 -32.68402 -32.68402 -0.00000 1.00000 0.00000 0.7447 0.7447
0 42.00000 -32.68402 -33.78402 -0.00000 1.00000 0.00000 0.7447 0.7361
tube_rail2
0 -42.00000 -32.68402 -32.68402 -0.00000 1.00000 0.00000 0.7447 0.7447
0 42.00000 -32.68402 -33.78402 -0.00000 1.00000 0.00000 0.7447 0.7361
0 -42.00000 -32.68402 -33.78402 -0.00000 1.00000 0.00000 0.7447 0.7361
tube_rail2
0 -42.00000 -32.68402 -33.78402 0.00000 0.00000 -1.00000 0.7447 0.7361
0 42.00000 -32.68402 -33.78402 0.00000 0.00000 -1.00000 0.7447 0.7361
0 42.00000 -33.78402 -33.78402 0.00000 0.00000 -1.00000 0.7361 0.7361
tube_rail2
0 -42.00000 -32.68402 -33.78402 0.00000 0.00000 -1.00000 0.7447 0.7361
0 42.00000 -33.78402 -33.78402 0.00000 0.00000 -1.00000 0.7361 0.7361
0 -42.00000 -33.78402 -33.78402 0.00000 0.00000 -1.00000 0.7361 0.7361
tube_rail2
0 -42.00000 -33.78402 -32.68402 0.00000 0.00000 1.00000 0.7361 0.7447
0 42.00000 -33.78402 -32.68402 0.00000 0.00000 1.00000 0.7361 0.7447
0 42.00000 -32.68402 -32.68402 0.00000 0.00000 1.00000 0.7447 0.7447
tube_rail2
0 -42.00000 -33.78402 -32.68402 0.00000 0.00000 1.00000 0.7361 0.7447
0 42.00000 -32.68402 -32.68402 0.00000 0.00000 1.00000 0.7447 0.7447
0 -42.00000 -32.68402 -32.68402 0.00000 0.00000 1.00000 0.7447 0.7447
tube_rail2
0 -42.00000 32.68402 -32.68402 -1.00000 0.00000 0.00000 0.2553 0.7447
0 -42.00000 33.78402 -32.68402 -1.00000 0.00000 0.00000 0.2639 0.7447
0 -42.00000 33.78402 -33.78402 -1.00000 0.00000 0.00000 0.2639 0.7361
tube_rail2
0 -42.00000 32.68402 -32.68402 -1.00000 0.00000 0.00000 0.2553 0.7447
0 -42.00000 33.78402 -33.78402 -1.00000 0.00000 0.00000 0.2639 0.7361
0 -42.00000 32.68402 -33.78402 -1.00000 0.00000 0.00000 0.2553 0.7361
tube_rail2
0 42.00000 32.68402 -33.78402 1.00000 0.00000 0.00000 0.2553 0.7361
0 42.00000 33.78402 -33.78402 1.00000 0.00000 0.00000 0.2639 0.7361
0 42.00000 33.78402 -32.68402 1.00000 0.00000 0.00000 0.2639 0.7447
tube_rail2
0 42.00000 32.68402 -33.78402 1.00000 0.00000 0.00000 0.2553 0.7361
0 42.00000 33.78402 -32.68402 1.00000 0.00000 0.00000 0.2639 0.7447
0 42.00000 32.68402 -32.68402 1.00000 0.00000 0.00000 0.2553 0.7447
tube_rail2
0 -42.00000 32.68402 -33.78402 0.00000 -1.00000 0.00000 0.2553 0.7361
0 42.00000 32.68402 -33.78402 0.00000 -1.00000 0.00000 0.2553 0.7361
0 42.00000 32.68402 -32.68402 0.00000 -1.00000 0.00000 0.2553 0.7447
tube_rail2
0 -42.00000 32.68402 -33.78402 0.00000 -1.00000 0.00000 0.2553 0.7361
0 42.00000 32.68402 -32.68402 0.00000 -1.00000 0.00000 0.2553 0.7447
0 -42.00000 32.68402 -32.68402 0.00000 -1.00000 0.00000 0.2553 0.7447
tube_rail2
0 -42.00000 33.78402 -32.68402 -0.00000 1.00000 0.00000 0.2639 0.7447
0 42.00000 33.78402 -32.68402 -0.00000 1.00000 0.00000 0.2639 0.7447
0 42.00000 33.78402 -33.78402 -0.00000 1.00000 0.00000 0.2639 0.7361
tube_rail2
0 -42.00000 33.78402 -32.68402 -0.00000 1.00000 0.00000 0.2639 0.7447
0 42.00000 33.78402 -33.78402 -0.00000 1.00000 0.00000 0.2639 0.7361
0 -42.00000 33.78402 -33.78402 -0.00000 1.00000 0.00000 0.2639 0.7361
tube_rail2
0 -42.00000 33.78402 -33.78402 0.00000 0.00000 -1.00000 0.2639 0.7361
0 42.00000 33.78402 -33.78402 0.00000 0.00000 -1.00000 0.2639 0.7361
0 42.00000 32.68402 -33.78402 0.00000 0.00000 -1.00000 0.2553 0.7361
tube_rail2
0 -42.00000 33.78402 -33.78402 0.00000 0.00000 -1.00000 0.2639 0.7361
0 42.00000 32.68402 -33.78402 0.00000 0.00000 -1.00000 0.2553 0.7361
0 -42.00000 32.68402 -33.78402 0.00000 0.00000 -1.00000 0.2553 0.7361
tube_rail2
0 -42.00000 32.68402 -32.68402 0.00000 0.00000 1.00000 0.2553 0.7447
0 42.00000 32.68402 -32.68402 0.00000 0.00000 1.00000 0.2553 0.7447
0 42.00000 33.78402 -32.68402 0.00000 0.00000 1.00000 0.2639 0.7447
tube_rail2
0 -42.00000 32.68402 -32.68402 0.00000 0.00000 1.00000 0.2553 0.7447
0 42.00000 33.78402 -32.68402 0.00000 0.00000 1.00000 0.2639 0.7447
0 -42.00000 33.78402 -32.68402 0.00000 0.00000 1.00000 0.2639 0.7447
end
