version 1
nodes
0 "root" -1
end
skeleton
time 0
0 0 0 0 0 0 0
end
triangles
transfer_white
0 -7.00000 -17.00000 14.00000 -1.00000 0.00000 0.00000 0.8672 0.1094
0 -7.00000 17.00000 14.00000 -1.00000 0.00000 0.00000 0.1328 0.1094
0 -7.00000 17.00000 -14.00000 -1.00000 0.00000 0.00000 0.1328 0.8906
transfer_white
0 -7.00000 -17.00000 14.00000 -1.00000 0.00000 0.00000 0.8672 0.1094
0 -7.00000 17.00000 -14.00000 -1.00000 0.00000 0.00000 0.1328 0.8906
0 -7.00000 -17.00000 -14.00000 -1.00000 0.00000 0.00000 0.8672 0.8906
transfer_white
0 7.00000 -17.00000 -14.00000 1.00000 0.00000 0.00000 0.8672 0.8906
0 7.00000 17.00000 -14.00000 1.00000 0.00000 0.00000 0.1328 0.8906
0 7.00000 17.00000 14.00000 1.00000 0.00000 0.00000 0.1328 0.1094
transfer_white
0 7.00000 -17.00000 -14.00000 1.00000 0.00000 0.00000 0.8672 0.8906
0 7.00000 17.00000 14.00000 1.00000 0.00000 0.00000 0.1328 0.1094
0 7.00000 -17.00000 14.00000 1.00000 0.00000 0.00000 0.8672 0.1094
transfer_white
0 -7.00000 -17.00000 -14.00000 0.00000 -1.00000 0.00000 0.8672 0.8906
0 7.00000 -17.00000 -14.00000 0.00000 -1.00000 0.00000 0.8672 0.8906
0 7.00000 -17.00000 14.00000 0.00000 -1.00000 0.00000 0.8672 0.1094
transfer_white
0 -7.00000 -17.00000 -14.00000 0.00000 -1.00000 0.00000 0.8672 0.8906
0 7.00000 -17.00000 14.00000 0.00000 -1.00000 0.00000 0.8672 0.1094
0 -7.00000 -17.00000 14.00000 0.00000 -1.00000 0.00000 0.8672 0.1094
transfer_white
0 -7.00000 17.00000 14.00000 0.00000 1.00000 0.00000 0.1328 0.1094
0 7.00000 17.00000 14.00000 0.00000 1.00000 0.00000 0.1328 0.1094
0 7.00000 17.00000 -14.00000 0.00000 1.00000 0.00000 0.1328 0.8906
transfer_white
0 -7.00000 17.00000 14.00000 0.00000 1.00000 0.00000 0.1328 0.1094
0 7.00000 17.00000 -14.00000 0.00000 1.00000 0.00000 0.1328 0.8906
0 -7.00000 17.00000 -14.00000 0.00000 1.00000 0.00000 0.1328 0.8906
transfer_white
0 -7.00000 17.00000 -14.00000 0.00000 0.00000 -1.00000 0.1328 0.8906
0 7.00000 17.00000 -14.00000 0.00000 0.00000 -1.00000 0.1328 0.8906
0 7.00000 -17.00000 -14.00000 0.00000 0.00000 -1.00000 0.8672 0.8906
transfer_white
0 -7.00000 17.00000 -14.00000 0.00000 0.00000 -1.00000 0.1328 0.8906
0 7.00000 -17.00000 -14.00000 0.00000 0.00000 -1.00000 0.8672 0.8906
0 -7.00000 -17.00000 -14.00000 0.00000 0.00000 -1.00000 0.8672 0.8906
transfer_white
0 -7.00000 -17.00000 14.00000 0.00000 0.00000 1.00000 0.8672 0.1094
0 7.00000 -17.00000 14.00000 0.00000 0.00000 1.00000 0.8672 0.1094
0 7.00000 17.00000 14.00000 0.00000 0.00000 1.00000 0.1328 0.1094
transfer_white
0 -7.00000 -17.00000 14.00000 0.00000 0.00000 1.00000 0.8672 0.1094
0 7.00000 17.00000 14.00000 0.00000 0.00000 1.00000 0.1328 0.1094
0 -7.00000 17.00000 14.00000 0.00000 0.00000 1.00000 0.1328 0.1094
transfer_black
0 -7.10000 -12.00000 9.00000 -1.00000 0.00000 0.00000 0.9062 0.0703
0 -7.10000 12.00000 9.00000 -1.00000 0.00000 0.00000 0.0938 0.0703
0 -7.10000 12.00000 -9.00000 -1.00000 0.00000 0.00000 0.0938 0.9297
transfer_black
0 -7.10000 -12.00000 9.00000 -1.00000 0.00000 0.00000 0.9062 0.0703
0 -7.10000 12.00000 -9.00000 -1.00000 0.00000 0.00000 0.0938 0.9297
0 -7.10000 -12.00000 -9.00000 -1.00000 0.00000 0.00000 0.9062 0.9297
transfer_black
0 -7.00000 -12.00000 -9.00000 1.00000 0.00000 0.00000 0.9062 0.9297
0 -7.00000 12.00000 -9.00000 1.00000 0.00000 0.00000 0.0938 0.9297
0 -7.00000 12.00000 9.00000 1.00000 0.00000 0.00000 0.0938 0.0703
transfer_black
0 -7.00000 -12.00000 -9.00000 1.00000 0.00000 0.00000 0.9062 0.9297
0 -7.00000 12.00000 9.00000 1.00000 0.00000 0.00000 0.0938 0.0703
0 -7.00000 -12.00000 9.00000 1.00000 0.00000 0.00000 0.9062 0.0703
transfer_black
0 -7.10000 -12.00000 -9.00000 0.00000 -1.00000 0.00000 0.9062 0.9297
0 -7.00000 -12.00000 -9.00000 0.00000 -1.00000 0.00000 0.9062 0.9297
0 -7.00000 -12.00000 9.00000 0.00000 -1.00000 0.00000 0.9062 0.0703
transfer_black
0 -7.10000 -12.00000 -9.00000 0.00000 -1.00000 0.00000 0.9062 0.9297
0 -7.00000 -12.00000 9.00000 0.00000 -1.00000 0.00000 0.9062 0.0703
0 -7.10000 -12.00000 9.00000 0.00000 -1.00000 0.00000 0.9062 0.0703
transfer_black
0 -7.10000 12.00000 9.00000 0.00000 1.00000 0.00000 0.0938 0.0703
0 -7.00000 12.00000 9.00000 0.00000 1.00000 0.00000 0.0938 0.0703
0 -7.00000 12.00000 -9.00000 0.00000 1.00000 0.00000 0.0938 0.9297
transfer_black
0 -7.10000 12.00000 9.00000 0.00000 1.00000 0.00000 0.0938 0.0703
0 -7.00000 12.00000 -9.00000 0.00000 1.00000 0.00000 0.0938 0.9297
0 -7.10000 12.00000 -9.00000 0.00000 1.00000 0.00000 0.0938 0.9297
transfer_black
0 -7.10000 12.00000 -9.00000 0.00000 0.00000 -1.00000 0.0938 0.9297
0 -7.00000 12.00000 -9.00000 0.00000 0.00000 -1.00000 0.0938 0.9297
0 -7.00000 -12.00000 -9.00000 0.00000 0.00000 -1.00000 0.9062 0.9297
transfer_black
0 -7.10000 12.00000 -9.00000 0.00000 0.00000 -1.00000 0.0938 0.9297
0 -7.00000 -12.00000 -9.00000 0.00000 0.00000 -1.00000 0.9062 0.9297
0 -7.10000 -12.00000 -9.00000 0.00000 0.00000 -1.00000 0.9062 0.9297
transfer_black
0 -7.10000 -12.00000 9.00000 0.00000 0.00000 1.00000 0.9062 0.0703
0 -7.00000 -12.00000 9.00000 0.00000 0.00000 1.00000 0.9062 0.0703
0 -7.00000 12.00000 9.00000 0.00000 0.00000 1.00000 0.0938 0.0703
transfer_black
0 -7.10000 -12.00000 9.00000 0.00000 0.00000 1.00000 0.9062 0.0703
0 -7.00000 12.00000 9.00000 0.00000 0.00000 1.00000 0.0938 0.0703
0 -7.10000 12.00000 9.00000 0.00000 0.00000 1.00000 0.0938 0.0703
transfer_grey
0 -10.00000 0.00000 0.00000 -1.00000 0.00000 0.00000 0.0000 0.0000
0 -10.00000 7.93156 1.04421 -1.00000 0.00000 0.00000 0.0620 0.0082
0 -10.00000 8.00000 0.00000 -1.00000 0.00000 0.00000 0.0625 0.0000
transfer_grey
0 -10.00000 0.00000 0.00000 -1.00000 0.00000 0.00000 0.0000 0.0000
0 -10.00000 7.72741 2.07055 -1.00000 0.00000 0.00000 0.0604 0.0162
0 -10.00000 7.93156 1.04421 -1.00000 0.00000 0.00000 0.0620 0.0082
transfer_grey
0 -10.00000 0.00000 0.00000 -1.00000 0.00000 0.00000 0.0000 0.0000
0 -10.00000 7.39104 3.06147 -1.00000 0.00000 0.00000 0.0577 0.0239
0 -10.00000 7.72741 2.07055 -1.00000 0.00000 0.00000 0.0604 0.0162
transfer_grey
0 -10.00000 0.00000 0.00000 -1.00000 0.00000 0.00000 0.0000 0.0000
0 -10.00000 6.92820 4.00000 -1.00000 0.00000 0.00000 0.0541 0.0312
0 -10.00000 7.39104 3.06147 -1.00000 0.00000 0.00000 0.0577 0.0239
transfer_grey
0 -10.00000 0.00000 0.00000 -1.00000 0.00000 0.00000 0.0000 0.0000
0 -10.00000 6.34683 4.87009 -1.00000 0.00000 0.00000 0.0496 0.0380
0 -10.00000 6.92820 4.00000 -1.00000 0.00000 0.00000 0.0541 0.0312
transfer_grey
0 -10.00000 0.00000 0.00000 -1.00000 0.00000 0.00000 0.0000 0.0000
0 -10.00000 5.65685 5.65685 -1.00000 0.00000 0.00000 0.0442 0.0442
0 -10.00000 6.34683 4.87009 -1.00000 0.00000 0.00000 0.0496 0.0380
transfer_grey
0 -10.00000 0.00000 0.00000 -1.00000 0.00000 0.00000 0.0000 0.0000
0 -10.00000 4.87009 6.34683 -1.00000 0.00000 0.00000 0.0380 0.0496
0 -10.00000 5.65685 5.65685 -1.00000 0.00000 0.00000 0.0442 0.0442
transfer_grey
0 -10.00000 0.00000 0.00000 -1.00000 0.00000 0.00000 0.0000 0.0000
0 -10.00000 4.00000 6.92820 -1.00000 0.00000 0.00000 0.0313 0.0541
0 -10.00000 4.87009 6.34683 -1.00000 0.00000 0.00000 0.0380 0.0496
transfer_grey
0 -10.00000 0.00000 0.00000 -1.00000 0.00000 0.00000 0.0000 0.0000
0 -10.00000 3.06147 7.39104 -1.00000 0.00000 0.00000 0.0239 0.0577
0 -10.00000 4.00000 6.92820 -1.00000 0.00000 0.00000 0.0313 0.0541
transfer_grey
0 -10.00000 0.00000 0.00000 -1.00000 0.00000 0.00000 0.0000 0.0000
0 -10.00000 2.07055 7.72741 -1.00000 0.00000 0.00000 0.0162 0.0604
0 -10.00000 3.06147 7.39104 -1.00000 0.00000 0.00000 0.0239 0.0577
transfer_grey
0 -10.00000 0.00000 0.00000 -1.00000 0.00000 0.00000 0.0000 0.0000
0 -10.00000 1.04421 7.93156 -1.00000 0.00000 0.00000 0.0082 0.0620
0 -10.00000 2.07055 7.72741 -1.00000 0.00000 0.00000 0.0162 0.0604
transfer_grey
0 -10.00000 0.00000 0.00000 -1.00000 0.00000 0.00000 0.0000 0.0000
0 -10.00000 0.00000 8.00000 -1.00000 0.00000 0.00000 0.0000 0.0625
0 -10.00000 1.04421 7.93156 -1.00000 0.00000 0.00000 0.0082 0.0620
transfer_grey
0 -10.00000 0.00000 0.00000 -1.00000 0.00000 0.00000 0.0000 0.0000
0 -10.00000 -1.04421 7.93156 -1.00000 0.00000 0.00000 0.9918 0.0620
0 -10.00000 0.00000 8.00000 -1.00000 0.00000 0.00000 0.0000 0.0625
transfer_grey
0 -10.00000 0.00000 0.00000 -1.00000 0.00000 0.00000 0.0000 0.0000
0 -10.00000 -2.07055 7.72741 -1.00000 0.00000 0.00000 0.9838 0.0604
0 -10.00000 -1.04421 7.93156 -1.00000 0.00000 0.00000 0.9918 0.0620
transfer_grey
0 -10.00000 0.00000 0.00000 -1.00000 0.00000 0.00000 0.0000 0.0000
0 -10.00000 -3.06147 7.39104 -1.00000 0.00000 0.00000 0.9761 0.0577
0 -10.00000 -2.07055 7.72741 -1.00000 0.00000 0.00000 0.9838 0.0604
transfer_grey
0 -10.00000 0.00000 0.00000 -1.00000 0.00000 0.00000 0.0000 0.0000
0 -10.00000 -4.00000 6.92820 -1.00000 0.00000 0.00000 0.9688 0.0541
0 -10.00000 -3.06147 7.39104 -1.00000 0.00000 0.00000 0.9761 0.0577
transfer_grey
0 -10.00000 0.00000 0.00000 -1.00000 0.00000 0.00000 0.0000 0.0000
0 -10.00000 -4.87009 6.34683 -1.00000 0.00000 0.00000 0.9620 0.0496
0 -10.00000 -4.00000 6.92820 -1.00000 0.00000 0.00000 0.9688 0.0541
transfer_grey
0 -10.00000 0.00000 0.00000 -1.00000 0.00000 0.00000 0.0000 0.0000
0 -10.00000 -5.65685 5.65685 -1.00000 0.00000 0.00000 0.9558 0.0442
0 -10.00000 -4.87009 6.34683 -1.00000 0.00000 0.00000 0.9620 0.0496
transfer_grey
0 -10.00000 0.00000 0.00000 -1.00000 0.00000 0.00000 0.0000 0.0000
0 -10.00000 -6.34683 4.87009 -1.00000 0.00000 0.00000 0.9504 0.0380
0 -10.00000 -5.65685 5.65685 -1.00000 0.00000 0.00000 0.9558 0.0442
transfer_grey
0 -10.00000 0.00000 0.00000 -1.00000 0.00000 0.00000 0.0000 0.0000
0 -10.00000 -6.92820 4.00000 -1.00000 0.00000 0.00000 0.9459 0.0312
0 -10.00000 -6.34683 4.87009 -1.00000 0.00000 0.00000 0.9504 0.0380
transfer_grey
0 -10.00000 0.00000 0.00000 -1.00000 0.00000 0.00000 0.0000 0.0000
0 -10.00000 -7.39104 3.06147 -1.00000 0.00000 0.00000 0.9423 0.0239
0 -10.00000 -6.92820 4.00000 -1.00000 0.00000 0.00000 0.9459 0.0312
transfer_grey
0 -10.00000 0.00000 0.00000 -1.00000 0.00000 0.00000 0.0000 0.0000
0 -10.00000 -7.72741 2.07055 -1.00000 0.00000 0.00000 0.9396 0.0162
0 -10.00000 -7.39104 3.06147 -1.00000 0.00000 0.00000 0.9423 0.0239
transfer_grey
0 -10.00000 0.00000 0.00000 -1.00000 0.00000 0.00000 0.0000 0.0000
0 -10.00000 -7.93156 1.04421 -1.00000 0.00000 0.00000 0.9380 0.0082
0 -10.00000 -7.72741 2.07055 -1.00000 0.00000 0.00000 0.9396 0.0162
transfer_grey
0 -10.00000 0.00000 0.00000 -1.00000 0.00000 0.00000 0.0000 0.0000
0 -10.00000 -8.00000 0.00000 -1.00000 0.00000 0.00000 0.9375 0.0000
0 -10.00000 -7.93156 1.04421 -1.00000 0.00000 0.00000 0.9380 0.0082
transfer_grey
0 -10.00000 0.00000 0.00000 -1.00000 -0.00000 0.00000 0.0000 0.0000
0 -10.00000 -7.93156 -1.04421 -1.00000 -0.00000 0.00000 0.9380 0.9918
0 -10.00000 -8.00000 0.00000 -1.00000 -0.00000 0.00000 0.9375 0.0000
transfer_grey
0 -10.00000 0.00000 0.00000 -1.00000 0.00000 0.00000 0.0000 0.0000
0 -10.00000 -7.72741 -2.07055 -1.00000 0.00000 0.00000 0.9396 0.9838
0 -10.00000 -7.93156 -1.04421 -1.00000 0.00000 0.00000 0.9380 0.9918
transfer_grey
0 -10.00000 0.00000 0.00000 -1.00000 0.00000 0.00000 0.0000 0.0000
0 -10.00000 -7.39104 -3.06147 -1.00000 0.00000 0.00000 0.9423 0.9761
0 -10.00000 -7.72741 -2.07055 -1.00000 0.00000 0.00000 0.9396 0.9838
transfer_grey
0 -10.00000 0.00000 0.00000 -1.00000 0.00000 0.00000 0.0000 0.0000
0 -10.00000 -6.92820 -4.00000 -1.00000 0.00000 0.00000 0.9459 0.9688
0 -10.00000 -7.39104 -3.06147 -1.00000 0.00000 0.00000 0.9423 0.9761
transfer_grey
0 -10.00000 0.00000 0.00000 -1.00000 0.00000 0.00000 0.0000 0.0000
0 -10.00000 -6.34683 -4.87009 -1.00000 0.00000 0.00000 0.9504 0.9620
0 -10.00000 -6.92820 -4.00000 -1.00000 0.00000 0.00000 0.9459 0.9688
transfer_grey
0 -10.00000 0.00000 0.00000 -1.00000 0.00000 0.00000 0.0000 0.0000
0 -10.00000 -5.65685 -5.65685 -1.00000 0.00000 0.00000 0.9558 0.9558
0 -10.00000 -6.34683 -4.87009 -1.00000 0.00000 0.00000 0.9504 0.9620
transfer_grey
0 -10.00000 0.00000 0.00000 -1.00000 0.00000 0.00000 0.0000 0.0000
0 -10.00000 -4.87009 -6.34683 -1.00000 0.00000 0.00000 0.9620 0.9504
0 -10.00000 -5.65685 -5.65685 -1.00000 0.00000 0.00000 0.9558 0.9558
transfer_grey
0 -10.00000 0.00000 0.00000 -1.00000 0.00000 0.00000 0.0000 0.0000
0 -10.00000 -4.00000 -6.92820 -1.00000 0.00000 0.00000 0.9688 0.9459
0 -10.00000 -4.87009 -6.34683 -1.00000 0.00000 0.00000 0.9620 0.9504
transfer_grey
0 -10.00000 0.00000 0.00000 -1.00000 0.00000 0.00000 0.0000 0.0000
0 -10.00000 -3.06147 -7.39104 -1.00000 0.00000 0.00000 0.9761 0.9423
0 -10.00000 -4.00000 -6.92820 -1.00000 0.00000 0.00000 0.9688 0.9459
transfer_grey
0 -10.00000 0.00000 0.00000 -1.00000 0.00000 0.00000 0.0000 0.0000
0 -10.00000 -2.07055 -7.72741 -1.00000 0.00000 0.00000 0.9838 0.9396
0 -10.00000 -3.06147 -7.39104 -1.00000 0.00000 0.00000 0.9761 0.9423
transfer_grey
0 -10.00000 0.00000 0.00000 -1.00000 0.00000 0.00000 0.0000 0.0000
0 -10.00000 -1.04421 -7.93156 -1.00000 0.00000 0.00000 0.9918 0.9380
0 -10.00000 -2.07055 -7.72741 -1.00000 0.00000 0.00000 0.9838 0.9396
transfer_grey
0 -10.00000 0.00000 0.00000 -1.00000 0.00000 0.00000 0.0000 0.0000
0 -10.00000 -0.00000 -8.00000 -1.00000 0.00000 0.00000 1.0000 0.9375
0 -10.00000 -1.04421 -7.93156 -1.00000 0.00000 0.00000 0.9918 0.9380
transfer_grey
0 -10.00000 0.00000 0.00000 -1.00000 0.00000 -0.00000 0.0000 0.0000
0 -10.00000 1.04421 -7.93156 -1.00000 0.00000 -0.00000 0.0082 0.9380
0 -10.00000 -0.00000 -8.00000 -1.00000 0.00000 -0.00000 1.0000 0.9375
transfer_grey
0 -10.00000 0.00000 0.00000 -1.00000 0.00000 0.00000 0.0000 0.0000
0 -10.00000 2.07055 -7.72741 -1.00000 0.00000 0.00000 0.0162 0.9396
0 -10.00000 1.04421 -7.93156 -1.00000 0.00000 0.00000 0.0082 0.9380
transfer_grey
0 -10.00000 0.00000 0.00000 -1.00000 0.00000 0.00000 0.0000 0.0000
0 -10.00000 3.06147 -7.39104 -1.00000 0.00000 0.00000 0.0239 0.9423
0 -10.00000 2.07055 -7.72741 -1.00000 0.00000 0.00000 0.0162 0.9396
transfer_grey
0 -10.00000 0.00000 0.00000 -1.00000 0.00000 0.00000 0.0000 0.0000
0 -10.00000 4.00000 -6.92820 -1.00000 0.00000 0.00000 0.0313 0.9459
0 -10.00000 3.06147 -7.39104 -1.00000 0.00000 0.00000 0.0239 0.9423
transfer_grey
0 -10.00000 0.00000 0.00000 -1.00000 0.00000 0.00000 0.0000 0.0000
0 -10.00000 4.87009 -6.34683 -1.00000 0.00000 0.00000 0.0380 0.9504
0 -10.00000 4.00000 -6.92820 -1.00000 0.00000 0.00000 0.0313 0.9459
transfer_grey
0 -10.00000 0.00000 0.00000 -1.00000 0.00000 0.00000 0.0000 0.0000
0 -10.00000 5.65685 -5.65685 -1.00000 0.00000 0.00000 0.0442 0.9558
0 -10.00000 4.87009 -6.34683 -1.00000 0.00000 0.00000 0.0380 0.9504
transfer_grey
0 -10.00000 0.00000 0.00000 -1.00000 0.00000 0.00000 0.0000 0.0000
0 -10.00000 6.34683 -4.87009 -1.00000 0.00000 0.00000 0.0496 0.9620
0 -10.00000 5.65685 -5.65685 -1.00000 0.00000 0.00000 0.0442 0.9558
transfer_grey
0 -10.00000 0.00000 0.00000 -1.00000 0.00000 0.00000 0.0000 0.0000
0 -10.00000 6.92820 -4.00000 -1.00000 0.00000 0.00000 0.0541 0.9688
0 -10.00000 6.34683 -4.87009 -1.00000 0.00000 0.00000 0.0496 0.9620
transfer_grey
0 -10.00000 0.00000 0.00000 -1.00000 0.00000 0.00000 0.0000 0.0000
0 -10.00000 7.39104 -3.06147 -1.00000 0.00000 0.00000 0.0577 0.9761
0 -10.00000 6.92820 -4.00000 -1.00000 0.00000 0.00000 0.0541 0.9688
transfer_grey
0 -10.00000 0.00000 0.00000 -1.00000 0.00000 0.00000 0.0000 0.0000
0 -10.00000 7.72741 -2.07055 -1.00000 0.00000 0.00000 0.0604 0.9838
0 -10.00000 7.39104 -3.06147 -1.00000 0.00000 0.00000 0.0577 0.9761
transfer_grey
0 -10.00000 0.00000 0.00000 -1.00000 0.00000 0.00000 0.0000 0.0000
0 -10.00000 7.93156 -1.04421 -1.00000 0.00000 0.00000 0.0620 0.9918
0 -10.00000 7.72741 -2.07055 -1.00000 0.00000 0.00000 0.0604 0.9838
transfer_grey
0 -10.00000 0.00000 0.00000 -1.00000 0.00000 0.00000 0.0000 0.0000
0 -10.00000 8.00000 -0.00000 -1.00000 0.00000 0.00000 0.0625 1.0000
0 -10.00000 7.93156 -1.04421 -1.00000 0.00000 0.00000 0.0620 0.9918
transfer_grey
0 -10.00000 7.93156 1.04421 -0.00000 0.99786 0.06540 0.0620 0.0082
0 -6.00000 7.93156 1.04421 -0.00000 0.99786 0.06540 0.0620 0.0082
0 -6.00000 8.00000 0.00000 -0.00000 0.99786 0.06540 0.0625 0.0000
transfer_grey
0 -10.00000 7.93156 1.04421 -0.00000 0.99786 0.06540 0.0620 0.0082
0 -6.00000 8.00000 0.00000 -0.00000 0.99786 0.06540 0.0625 0.0000
0 -10.00000 8.00000 0.00000 -0.00000 0.99786 0.06540 0.0625 0.0000
transfer_grey
0 -10.00000 7.72741 2.07055 -0.00000 0.98079 0.19509 0.0604 0.0162
0 -6.00000 7.72741 2.07055 -0.00000 0.98079 0.19509 0.0604 0.0162
0 -6.00000 7.93156 1.04421 -0.00000 0.98079 0.19509 0.0620 0.0082
transfer_grey
0 -10.00000 7.72741 2.07055 -0.00000 0.98079 0.19509 0.0604 0.0162
0 -6.00000 7.93156 1.04421 -0.00000 0.98079 0.19509 0.0620 0.0082
0 -10.00000 7.93156 1.04421 -0.00000 0.98079 0.19509 0.0620 0.0082
transfer_grey
0 -10.00000 7.39104 3.06147 -0.00000 0.94693 0.32144 0.0577 0.0239
0 -6.00000 7.39104 3.06147 -0.00000 0.94693 0.32144 0.0577 0.0239
0 -6.00000 7.72741 2.07055 -0.00000 0.94693 0.32144 0.0604 0.0162
transfer_grey
0 -10.00000 7.39104 3.06147 -0.00000 0.94693 0.32144 0.0577 0.0239
0 -6.00000 7.72741 2.07055 -0.00000 0.94693 0.32144 0.0604 0.0162
0 -10.00000 7.72741 2.07055 -0.00000 0.94693 0.32144 0.0604 0.0162
transfer_grey
0 -10.00000 6.92820 4.00000 -0.00000 0.89687 0.44229 0.0541 0.0312
0 -6.00000 6.92820 4.00000 -0.00000 0.89687 0.44229 0.0541 0.0312
0 -6.00000 7.39104 3.06147 -0.00000 0.89687 0.44229 0.0577 0.0239
transfer_grey
0 -10.00000 6.92820 4.00000 -0.00000 0.89687 0.44229 0.0541 0.0312
0 -6.00000 7.39104 3.06147 -0.00000 0.89687 0.44229 0.0577 0.0239
0 -10.00000 7.39104 3.06147 -0.00000 0.89687 0.44229 0.0577 0.0239
transfer_grey
0 -10.00000 6.34683 4.87009 -0.00000 0.83147 0.55557 0.0496 0.0380
0 -6.00000 6.34683 4.87009 -0.00000 0.83147 0.55557 0.0496 0.0380
0 -6.00000 6.92820 4.00000 -0.00000 0.83147 0.55557 0.0541 0.0312
transfer_grey
0 -10.00000 6.34683 4.87009 -0.00000 0.83147 0.55557 0.0496 0.0380
0 -6.00000 6.92820 4.00000 -0.00000 0.83147 0.55557 0.0541 0.0312
0 -10.00000 6.92820 4.00000 -0.00000 0.83147 0.55557 0.0541 0.0312
transfer_grey
0 -10.00000 5.65685 5.65685 -0.00000 0.75184 0.65935 0.0442 0.0442
0 -6.00000 5.65685 5.65685 -0.00000 0.75184 0.65935 0.0442 0.0442
0 -6.00000 6.34683 4.87009 -0.00000 0.75184 0.65935 0.0496 0.0380
transfer_grey
0 -10.00000 5.65685 5.65685 -0.00000 0.75184 0.65935 0.0442 0.0442
0 -6.00000 6.34683 4.87009 -0.00000 0.75184 0.65935 0.0496 0.0380
0 -10.00000 6.34683 4.87009 -0.00000 0.75184 0.65935 0.0496 0.0380
transfer_grey
0 -10.00000 4.87009 6.34683 -0.00000 0.65935 0.75184 0.0380 0.0496
0 -6.00000 4.87009 6.34683 -0.00000 0.65935 0.75184 0.0380 0.0496
0 -6.00000 5.65685 5.65685 -0.00000 0.65935 0.75184 0.0442 0.0442
transfer_grey
0 -10.00000 4.87009 6.34683 -0.00000 0.65935 0.75184 0.0380 0.0496
0 -6.00000 5.65685 5.65685 -0.00000 0.65935 0.75184 0.0442 0.0442
0 -10.00000 5.65685 5.65685 -0.00000 0.65935 0.75184 0.0442 0.0442
transfer_grey
0 -10.00000 4.00000 6.92820 -0.00000 0.55557 0.83147 0.0313 0.0541
0 -6.00000 4.00000 6.92820 -0.00000 0.55557 0.83147 0.0313 0.0541
0 -6.00000 4.87009 6.34683 -0.00000 0.55557 0.83147 0.0380 0.0496
transfer_grey
0 -10.00000 4.00000 6.92820 -0.00000 0.55557 0.83147 0.0313 0.0541
0 -6.00000 4.87009 6.34683 -0.00000 0.55557 0.83147 0.0380 0.0496
0 -10.00000 4.87009 6.34683 -0.00000 0.55557 0.83147 0.0380 0.0496
transfer_grey
0 -10.00000 3.06147 7.39104 -0.00000 0.44229 0.89687 0.0239 0.0577
0 -6.00000 3.06147 7.39104 -0.00000 0.44229 0.89687 0.0239 0.0577
0 -6.00000 4.00000 6.92820 -0.00000 0.44229 0.89687 0.0313 0.0541
transfer_grey
0 -10.00000 3.06147 7.39104 -0.00000 0.44229 0.89687 0.0239 0.0577
0 -6.00000 4.00000 6.92820 -0.00000 0.44229 0.89687 0.0313 0.0541
0 -10.00000 4.00000 6.92820 -0.00000 0.44229 0.89687 0.0313 0.0541
transfer_grey
0 -10.00000 2.07055 7.72741 -0.00000 0.32144 0.94693 0.0162 0.0604
0 -6.00000 2.07055 7.72741 -0.00000 0.32144 0.94693 0.0162 0.0604
0 -6.00000 3.06147 7.39104 -0.00000 0.32144 0.94693 0.0239 0.0577
transfer_grey
0 -10.00000 2.07055 7.72741 -0.00000 0.32144 0.94693 0.0162 0.0604
0 -6.00000 3.06147 7.39104 -0.00000 0.32144 0.94693 0.0239 0.0577
0 -10.00000 3.06147 7.39104 -0.00000 0.32144 0.94693 0.0239 0.0577
transfer_grey
0 -10.00000 1.04421 7.93156 -0.00000 0.19509 0.98079 0.0082 0.0620
0 -6.00000 1.04421 7.93156 -0.00000 0.19509 0.98079 0.0082 0.0620
0 -6.00000 2.07055 7.72741 -0.00000 0.19509 0.98079 0.0162 0.0604
transfer_grey
0 -10.00000 1.04421 7.93156 -0.00000 0.19509 0.98079 0.0082 0.0620
0 -6.00000 2.07055 7.72741 -0.00000 0.19509 0.98079 0.0162 0.0604
0 -10.00000 2.07055 7.72741 -0.00000 0.19509 0.98079 0.0162 0.0604
transfer_grey
0 -10.00000 0.00000 8.00000 -0.00000 0.06540 0.99786 0.0000 0.0625
0 -6.00000 0.00000 8.00000 -0.00000 0.06540 0.99786 0.0000 0.0625
0 -6.00000 1.04421 7.93156 -0.00000 0.06540 0.99786 0.0082 0.0620
transfer_grey
0 -10.00000 0.00000 8.00000 -0.00000 0.06540 0.99786 0.0000 0.0625
0 -6.00000 1.04421 7.93156 -0.00000 0.06540 0.99786 0.0082 0.0620
0 -10.00000 1.04421 7.93156 -0.00000 0.06540 0.99786 0.0082 0.0620
transfer_grey
0 -10.00000 -1.04421 7.93156 0.00000 -0.06540 0.99786 0.9918 0.0620
0 -6.00000 -1.04421 7.93156 0.00000 -0.06540 0.99786 0.9918 0.0620
0 -6.00000 0.00000 8.00000 0.00000 -0.06540 0.99786 0.0000 0.0625
transfer_grey
0 -10.00000 -1.04421 7.93156 0.00000 -0.06540 0.99786 0.9918 0.0620
0 -6.00000 0.00000 8.00000 0.00000 -0.06540 0.99786 0.0000 0.0625
0 -10.00000 0.00000 8.00000 0.00000 -0.06540 0.99786 0.0000 0.0625
transfer_grey
0 -10.00000 -2.07055 7.72741 0.00000 -0.19509 0.98079 0.9838 0.0604
0 -6.00000 -2.07055 7.72741 0.00000 -0.19509 0.98079 0.9838 0.0604
0 -6.00000 -1.04421 7.93156 0.00000 -0.19509 0.98079 0.9918 0.0620
transfer_grey
0 -10.00000 -2.07055 7.72741 0.00000 -0.19509 0.98079 0.9838 0.0604
0 -6.00000 -1.04421 7.93156 0.00000 -0.19509 0.98079 0.9918 0.0620
0 -10.00000 -1.04421 7.93156 0.00000 -0.19509 0.98079 0.9918 0.0620
transfer_grey
0 -10.00000 -3.06147 7.39104 0.00000 -0.32144 0.94693 0.9761 0.0577
0 -6.00000 -3.06147 7.39104 0.00000 -0.32144 0.94693 0.9761 0.0577
0 -6.00000 -2.07055 7.72741 0.00000 -0.32144 0.94693 0.9838 0.0604
transfer_grey
0 -10.00000 -3.06147 7.39104 0.00000 -0.32144 0.94693 0.9761 0.0577
0 -6.00000 -2.07055 7.72741 0.00000 -0.32144 0.94693 0.9838 0.0604
0 -10.00000 -2.07055 7.72741 0.00000 -0.32144 0.94693 0.9838 0.0604
transfer_grey
0 -10.00000 -4.00000 6.92820 0.00000 -0.44229 0.89687 0.9688 0.0541
0 -6.00000 -4.00000 6.92820 0.00000 -0.44229 0.89687 0.9688 0.0541
0 -6.00000 -3.06147 7.39104 0.00000 -0.44229 0.89687 0.9761 0.0577
transfer_grey
0 -10.00000 -4.00000 6.92820 0.00000 -0.44229 0.89687 0.9688 0.0541
0 -6.00000 -3.06147 7.39104 0.00000 -0.44229 0.89687 0.9761 0.0577
0 -10.00000 -3.06147 7.39104 0.00000 -0.44229 0.89687 0.9761 0.0577
transfer_grey
0 -10.00000 -4.87009 6.34683 0.00000 -0.55557 0.83147 0.9620 0.0496
0 -6.00000 -4.87009 6.34683 0.00000 -0.55557 0.83147 0.9620 0.0496
0 -6.00000 -4.00000 6.92820 0.00000 -0.55557 0.83147 0.9688 0.0541
transfer_grey
0 -10.00000 -4.87009 6.34683 0.00000 -0.55557 0.83147 0.9620 0.0496
0 -6.00000 -4.00000 6.92820 0.00000 -0.55557 0.83147 0.9688 0.0541
0 -10.00000 -4.00000 6.92820 0.00000 -0.55557 0.83147 0.9688 0.0541
transfer_grey
0 -10.00000 -5.65685 5.65685 0.00000 -0.65935 0.75184 0.9558 0.0442
0 -6.00000 -5.65685 5.65685 0.00000 -0.65935 0.75184 0.9558 0.0442
0 -6.00000 -4.87009 6.34683 0.00000 -0.65935 0.75184 0.9620 0.0496
transfer_grey
0 -10.00000 -5.65685 5.65685 0.00000 -0.65935 0.75184 0.9558 0.0442
0 -6.00000 -4.87009 6.34683 0.00000 -0.65935 0.75184 0.9620 0.0496
0 -10.00000 -4.87009 6.34683 0.00000 -0.65935 0.75184 0.9620 0.0496
transfer_grey
0 -10.00000 -6.34683 4.87009 0.00000 -0.75184 0.65935 0.9504 0.0380
0 -6.00000 -6.34683 4.87009 0.00000 -0.75184 0.65935 0.9504 0.0380
0 -6.00000 -5.65685 5.65685 0.00000 -0.75184 0.65935 0.9558 0.0442
transfer_grey
0 -10.00000 -6.34683 4.87009 0.00000 -0.75184 0.65935 0.9504 0.0380
0 -6.00000 -5.65685 5.65685 0.00000 -0.75184 0.65935 0.9558 0.0442
0 -10.00000 -5.65685 5.65685 0.00000 -0.75184 0.65935 0.9558 0.0442
transfer_grey
0 -10.00000 -6.92820 4.00000 0.00000 -0.83147 0.55557 0.9459 0.0312
0 -6.00000 -6.92820 4.00000 0.00000 -0.83147 0.55557 0.9459 0.0312
0 -6.00000 -6.34683 4.87009 0.00000 -0.83147 0.55557 0.9504 0.0380
transfer_grey
0 -10.00000 -6.92820 4.00000 0.00000 -0.83147 0.55557 0.9459 0.0312
0 -6.00000 -6.34683 4.87009 0.00000 -0.83147 0.55557 0.9504 0.0380
0 -10.00000 -6.34683 4.87009 0.00000 -0.83147 0.55557 0.9504 0.0380
transfer_grey
0 -10.00000 -7.39104 3.06147 0.00000 -0.89687 0.44229 0.9423 0.0239
0 -6.00000 -7.39104 3.06147 0.00000 -0.89687 0.44229 0.9423 0.0239
0 -6.00000 -6.92820 4.00000 0.00000 -0.89687 0.44229 0.9459 0.0312
transfer_grey
0 -10.00000 -7.39104 3.06147 0.00000 -0.89687 0.44229 0.9423 0.0239
0 -6.00000 -6.92820 4.00000 0.00000 -0.89687 0.44229 0.9459 0.0312
0 -10.00000 -6.92820 4.00000 0.00000 -0.89687 0.44229 0.9459 0.0312
transfer_grey
0 -10.00000 -7.72741 2.07055 0.00000 -0.94693 0.32144 0.9396 0.0162
0 -6.00000 -7.72741 2.07055 0.00000 -0.94693 0.32144 0.9396 0.0162
0 -6.00000 -7.39104 3.06147 0.00000 -0.94693 0.32144 0.9423 0.0239
transfer_grey
0 -10.00000 -7.72741 2.07055 0.00000 -0.94693 0.32144 0.9396 0.0162
0 -6.00000 -7.39104 3.06147 0.00000 -0.94693 0.32144 0.9423 0.0239
0 -10.00000 -7.39104 3.06147 0.00000 -0.94693 0.32144 0.9423 0.0239
transfer_grey
0 -10.00000 -7.93156 1.04421 0.00000 -0.98079 0.19509 0.9380 0.0082
0 -6.00000 -7.93156 1.04421 0.00000 -0.98079 0.19509 0.9380 0.0082
0 -6.00000 -7.72741 2.07055 0.00000 -0.98079 0.19509 0.9396 0.0162
transfer_grey
0 -10.00000 -7.93156 1.04421 0.00000 -0.98079 0.19509 0.9380 0.0082
0 -6.00000 -7.72741 2.07055 0.00000 -0.98079 0.19509 0.9396 0.0162
0 -10.00000 -7.72741 2.07055 0.00000 -0.98079 0.19509 0.9396 0.0162
transfer_grey
0 -10.00000 -8.00000 0.00000 0.00000 -0.99786 0.06540 0.9375 0.0000
0 -6.00000 -8.00000 0.00000 0.00000 -0.99786 0.06540 0.9375 0.0000
0 -6.00000 -7.93156 1.04421 0.00000 -0.99786 0.06540 0.9380 0.0082
transfer_grey
0 -10.00000 -8.00000 0.00000 0.00000 -0.99786 0.06540 0.9375 0.0000
0 -6.00000 -7.93156 1.04421 0.00000 -0.99786 0.06540 0.9380 0.0082
0 -10.00000 -7.93156 1.04421 0.00000 -0.99786 0.06540 0.9380 0.0082
transfer_grey
0 -10.00000 -7.93156 -1.04421 0.00000 -0.99786 -0.06540 0.9380 0.9918
0 -6.00000 -7.93156 -1.04421 0.00000 -0.99786 -0.06540 0.9380 0.9918
0 -6.00000 -8.00000 0.00000 0.00000 -0.99786 -0.06540 0.9375 0.0000
transfer_grey
0 -10.00000 -7.93156 -1.04421 0.00000 -0.99786 -0.06540 0.9380 0.9918
0 -6.00000 -8.00000 0.00000 0.00000 -0.99786 -0.06540 0.9375 0.0000
0 -10.00000 -8.00000 0.00000 0.00000 -0.99786 -0.06540 0.9375 0.0000
transfer_grey
0 -10.00000 -7.72741 -2.07055 0.00000 -0.98079 -0.19509 0.9396 0.9838
0 -6.00000 -7.72741 -2.07055 0.00000 -0.98079 -0.19509 0.9396 0.9838
0 -6.00000 -7.93156 -1.04421 0.00000 -0.98079 -0.19509 0.9380 0.9918
transfer_grey
0 -10.00000 -7.72741 -2.07055 0.00000 -0.98079 -0.19509 0.9396 0.9838
0 -6.00000 -7.93156 -1.04421 0.00000 -0.98079 -0.19509 0.9380 0.9918
0 -10.00000 -7.93156 -1.04421 0.00000 -0.98079 -0.19509 0.9380 0.9918
transfer_grey
0 -10.00000 -7.39104 -3.06147 0.00000 -0.94693 -0.32144 0.9423 0.9761
0 -6.00000 -7.39104 -3.06147 0.00000 -0.94693 -0.32144 0.9423 0.9761
0 -6.00000 -7.72741 -2.07055 0.00000 -0.94693 -0.32144 0.9396 0.9838
transfer_grey
0 -10.00000 -7.39104 -3.06147 0.00000 -0.94693 -0.32144 0.9423 0.9761
0 -6.00000 -7.72741 -2.07055 0.00000 -0.94693 -0.32144 0.9396 0.9838
0 -10.00000 -7.72741 -2.07055 0.00000 -0.94693 -0.32144 0.9396 0.9838
transfer_grey
0 -10.00000 -6.92820 -4.00000 0.00000 -0.89687 -0.44229 0.9459 0.9688
0 -6.00000 -6.92820 -4.00000 0.00000 -0.89687 -0.44229 0.9459 0.9688
0 -6.00000 -7.39104 -3.06147 0.00000 -0.89687 -0.44229 0.9423 0.9761
transfer_grey
0 -10.00000 -6.92820 -4.00000 0.00000 -0.89687 -0.44229 0.9459 0.9688
0 -6.00000 -7.39104 -3.06147 0.00000 -0.89687 -0.44229 0.9423 0.9761
0 -10.00000 -7.39104 -3.06147 0.00000 -0.89687 -0.44229 0.9423 0.9761
transfer_grey
0 -10.00000 -6.34683 -4.87009 0.00000 -0.83147 -0.55557 0.9504 0.9620
0 -6.00000 -6.34683 -4.87009 0.00000 -0.83147 -0.55557 0.9504 0.9620
0 -6.00000 -6.92820 -4.00000 0.00000 -0.83147 -0.55557 0.9459 0.9688
transfer_grey
0 -10.00000 -6.34683 -4.87009 0.00000 -0.83147 -0.55557 0.9504 0.9620
0 -6.00000 -6.92820 -4.00000 0.00000 -0.83147 -0.55557 0.9459 0.9688
0 -10.00000 -6.92820 -4.00000 0.00000 -0.83147 -0.55557 0.9459 0.9688
transfer_grey
0 -10.00000 -5.65685 -5.65685 0.00000 -0.75184 -0.65935 0.9558 0.9558
0 -6.00000 -5.65685 -5.65685 0.00000 -0.75184 -0.65935 0.9558 0.9558
0 -6.00000 -6.34683 -4.87009 0.00000 -0.75184 -0.65935 0.9504 0.9620
transfer_grey
0 -10.00000 -5.65685 -5.65685 0.00000 -0.75184 -0.65935 0.9558 0.9558
0 -6.00000 -6.34683 -4.87009 0.00000 -0.75184 -0.65935 0.9504 0.9620
0 -10.00000 -6.34683 -4.87009 0.00000 -0.75184 -0.65935 0.9504 0.9620
transfer_grey
0 -10.00000 -4.87009 -6.34683 0.00000 -0.65935 -0.75184 0.9620 0.9504
0 -6.00000 -4.87009 -6.34683 0.00000 -0.65935 -0.75184 0.9620 0.9504
0 -6.00000 -5.65685 -5.65685 0.00000 -0.65935 -0.75184 0.9558 0.9558
transfer_grey
0 -10.00000 -4.87009 -6.34683 0.00000 -0.65935 -0.75184 0.9620 0.9504
0 -6.00000 -5.65685 -5.65685 0.00000 -0.65935 -0.75184 0.9558 0.9558
0 -10.00000 -5.65685 -5.65685 0.00000 -0.65935 -0.75184 0.9558 0.9558
transfer_grey
0 -10.00000 -4.00000 -6.92820 0.00000 -0.55557 -0.83147 0.9688 0.9459
0 -6.00000 -4.00000 -6.92820 0.00000 -0.55557 -0.83147 0.9688 0.9459
0 -6.00000 -4.87009 -6.34683 0.00000 -0.55557 -0.83147 0.9620 0.9504
transfer_grey
0 -10.00000 -4.00000 -6.92820 0.00000 -0.55557 -0.83147 0.9688 0.9459
0 -6.00000 -4.87009 -6.34683 0.00000 -0.55557 -0.83147 0.9620 0.9504
0 -10.00000 -4.87009 -6.34683 0.00000 -0.55557 -0.83147 0.9620 0.9504
transfer_grey
0 -10.00000 -3.06147 -7.39104 0.00000 -0.44229 -0.89687 0.9761 0.9423
0 -6.00000 -3.06147 -7.39104 0.00000 -0.44229 -0.89687 0.9761 0.9423
0 -6.00000 -4.00000 -6.92820 0.00000 -0.44229 -0.89687 0.9688 0.9459
transfer_grey
0 -10.00000 -3.06147 -7.39104 0.00000 -0.44229 -0.89687 0.9761 0.9423
0 -6.00000 -4.00000 -6.92820 0.00000 -0.44229 -0.89687 0.9688 0.9459
0 -10.00000 -4.00000 -6.92820 0.00000 -0.44229 -0.89687 0.9688 0.9459
transfer_grey
0 -10.00000 -2.07055 -7.72741 0.00000 -0.32144 -0.94693 0.9838 0.9396
0 -6.00000 -2.07055 -7.72741 0.00000 -0.32144 -0.94693 0.9838 0.9396
0 -6.00000 -3.06147 -7.39104 0.00000 -0.32144 -0.94693 0.9761 0.9423
transfer_grey
0 -10.00000 -2.07055 -7.72741 0.00000 -0.32144 -0.94693 0.9838 0.9396
0 -6.00000 -3.06147 -7.39104 0.00000 -0.32144 -0.94693 0.9761 0.9423
0 -10.00000 -3.06147 -7.39104 0.00000 -0.32144 -0.94693 0.9761 0.9423
transfer_grey
0 -10.00000 -1.04421 -7.93156 0.00000 -0.19509 -0.98079 0.9918 0.9380
0 -6.00000 -1.04421 -7.93156 0.00000 -0.19509 -0.98079 0.9918 0.9380
0 -6.00000 -2.07055 -7.72741 0.00000 -0.19509 -0.98079 0.9838 0.9396
transfer_grey
0 -10.00000 -1.04421 -7.93156 0.00000 -0.19509 -0.98079 0.9918 0.9380
0 -6.00000 -2.07055 -7.72741 0.00000 -0.19509 -0.98079 0.9838 0.9396
0 -10.00000 -2.07055 -7.72741 0.00000 -0.19509 -0.98079 0.9838 0.9396
transfer_grey
0 -10.00000 -0.00000 -8.00000 0.00000 -0.06540 -0.99786 1.0000 0.9375
0 -6.00000 -0.00000 -8.00000 0.00000 -0.06540 -0.99786 1.0000 0.9375
0 -6.00000 -1.04421 -7.93156 0.00000 -0.06540 -0.99786 0.9918 0.9380
transfer_grey
0 -10.00000 -0.00000 -8.00000 0.00000 -0.06540 -0.99786 1.0000 0.9375
0 -6.00000 -1.04421 -7.93156 0.00000 -0.06540 -0.99786 0.9918 0.9380
0 -10.00000 -1.04421 -7.93156 0.00000 -0.06540 -0.99786 0.9918 0.9380
transfer_grey
0 -10.00000 1.04421 -7.93156 0.00000 0.06540 -0.99786 0.0082 0.9380
0 -6.00000 1.04421 -7.93156 0.00000 0.06540 -0.99786 0.0082 0.9380
0 -6.00000 -0.00000 -8.00000 0.00000 0.06540 -0.99786 1.0000 0.9375
transfer_grey
0 -10.00000 1.04421 -7.93156 0.00000 0.06540 -0.99786 0.0082 0.9380
0 -6.00000 -0.00000 -8.00000 0.00000 0.06540 -0.99786 1.0000 0.9375
0 -10.00000 -0.00000 -8.00000 0.00000 0.06540 -0.99786 1.0000 0.9375
transfer_grey
0 -10.00000 2.07055 -7.72741 0.00000 0.19509 -0.98079 0.0162 0.9396
0 -6.00000 2.07055 -7.72741 0.00000 0.19509 -0.98079 0.0162 0.9396
0 -6.00000 1.04421 -7.93156 0.00000 0.19509 -0.98079 0.0082 0.9380
transfer_grey
0 -10.00000 2.07055 -7.72741 0.00000 0.19509 -0.98079 0.0162 0.9396
0 -6.00000 1.04421 -7.93156 0.00000 0.19509 -0.98079 0.0082 0.9380
0 -10.00000 1.04421 -7.93156 0.00000 0.19509 -0.98079 0.0082 0.9380
transfer_grey
0 -10.00000 3.06147 -7.39104 0.00000 0.32144 -0.94693 0.0239 0.9423
0 -6.00000 3.06147 -7.39104 0.00000 0.32144 -0.94693 0.0239 0.9423
0 -6.00000 2.07055 -7.72741 0.00000 0.32144 -0.94693 0.0162 0.9396
transfer_grey
0 -10.00000 3.06147 -7.39104 0.00000 0.32144 -0.94693 0.0239 0.9423
0 -6.00000 2.07055 -7.72741 0.00000 0.32144 -0.94693 0.0162 0.9396
0 -10.00000 2.07055 -7.72741 0.00000 0.32144 -0.94693 0.0162 0.9396
transfer_grey
0 -10.00000 4.00000 -6.92820 0.00000 0.44229 -0.89687 0.0313 0.9459
0 -6.00000 4.00000 -6.92820 0.00000 0.44229 -0.89687 0.0313 0.9459
0 -6.00000 3.06147 -7.39104 0.00000 0.44229 -0.89687 0.0239 0.9423
transfer_grey
0 -10.00000 4.00000 -6.92820 0.00000 0.44229 -0.89687 0.0313 0.9459
0 -6.00000 3.06147 -7.39104 0.00000 0.44229 -0.89687 0.0239 0.9423
0 -10.00000 3.06147 -7.39104 0.00000 0.44229 -0.89687 0.0239 0.9423
transfer_grey
0 -10.00000 4.87009 -6.34683 0.00000 0.55557 -0.83147 0.0380 0.9504
0 -6.00000 4.87009 -6.34683 0.00000 0.55557 -0.83147 0.0380 0.9504
0 -6.00000 4.00000 -6.92820 0.00000 0.55557 -0.83147 0.0313 0.9459
transfer_grey
0 -10.00000 4.87009 -6.34683 0.00000 0.55557 -0.83147 0.0380 0.9504
0 -6.00000 4.00000 -6.92820 0.00000 0.55557 -0.83147 0.0313 0.9459
0 -10.00000 4.00000 -6.92820 0.00000 0.55557 -0.83147 0.0313 0.9459
transfer_grey
0 -10.00000 5.65685 -5.65685 0.00000 0.65935 -0.75184 0.0442 0.9558
0 -6.00000 5.65685 -5.65685 0.00000 0.65935 -0.75184 0.0442 0.9558
0 -6.00000 4.87009 -6.34683 0.00000 0.65935 -0.75184 0.0380 0.9504
transfer_grey
0 -10.00000 5.65685 -5.65685 0.00000 0.65935 -0.75184 0.0442 0.9558
0 -6.00000 4.87009 -6.34683 0.00000 0.65935 -0.75184 0.0380 0.9504
0 -10.00000 4.87009 -6.34683 0.00000 0.65935 -0.75184 0.0380 0.9504
transfer_grey
0 -10.00000 6.34683 -4.87009 0.00000 0.75184 -0.65935 0.0496 0.9620
0 -6.00000 6.34683 -4.87009 0.00000 0.75184 -0.65935 0.0496 0.9620
0 -6.00000 5.65685 -5.65685 0.00000 0.75184 -0.65935 0.0442 0.9558
transfer_grey
0 -10.00000 6.34683 -4.87009 0.00000 0.75184 -0.65935 0.0496 0.9620
0 -6.00000 5.65685 -5.65685 0.00000 0.75184 -0.65935 0.0442 0.9558
0 -10.00000 5.65685 -5.65685 0.00000 0.75184 -0.65935 0.0442 0.9558
transfer_grey
0 -10.00000 6.92820 -4.00000 0.00000 0.83147 -0.55557 0.0541 0.9688
0 -6.00000 6.92820 -4.00000 0.00000 0.83147 -0.55557 0.0541 0.9688
0 -6.00000 6.34683 -4.87009 0.00000 0.83147 -0.55557 0.0496 0.9620
transfer_grey
0 -10.00000 6.92820 -4.00000 0.00000 0.83147 -0.55557 0.0541 0.9688
0 -6.00000 6.34683 -4.87009 0.00000 0.83147 -0.55557 0.0496 0.9620
0 -10.00000 6.34683 -4.87009 0.00000 0.83147 -0.55557 0.0496 0.9620
transfer_grey
0 -10.00000 7.39104 -3.06147 0.00000 0.89687 -0.44229 0.0577 0.9761
0 -6.00000 7.39104 -3.06147 0.00000 0.89687 -0.44229 0.0577 0.9761
0 -6.00000 6.92820 -4.00000 0.00000 0.89687 -0.44229 0.0541 0.9688
transfer_grey
0 -10.00000 7.39104 -3.06147 0.00000 0.89687 -0.44229 0.0577 0.9761
0 -6.00000 6.92820 -4.00000 0.00000 0.89687 -0.44229 0.0541 0.9688
0 -10.00000 6.92820 -4.00000 0.00000 0.89687 -0.44229 0.0541 0.9688
transfer_grey
0 -10.00000 7.72741 -2.07055 0.00000 0.94693 -0.32144 0.0604 0.9838
0 -6.00000 7.72741 -2.07055 0.00000 0.94693 -0.32144 0.0604 0.9838
0 -6.00000 7.39104 -3.06147 0.00000 0.94693 -0.32144 0.0577 0.9761
transfer_grey
0 -10.00000 7.72741 -2.07055 0.00000 0.94693 -0.32144 0.0604 0.9838
0 -6.00000 7.39104 -3.06147 0.00000 0.94693 -0.32144 0.0577 0.9761
0 -10.00000 7.39104 -3.06147 0.00000 0.94693 -0.32144 0.0577 0.9761
transfer_grey
0 -10.00000 7.93156 -1.04421 0.00000 0.98079 -0.19509 0.0620 0.9918
0 -6.00000 7.93156 -1.04421 0.00000 0.98079 -0.19509 0.0620 0.9918
0 -6.00000 7.72741 -2.07055 0.00000 0.98079 -0.19509 0.0604 0.9838
transfer_grey
0 -10.00000 7.93156 -1.04421 0.00000 0.98079 -0.19509 0.0620 0.9918
0 -6.00000 7.72741 -2.07055 0.00000 0.98079 -0.19509 0.0604 0.9838
0 -10.00000 7.72741 -2.07055 0.00000 0.98079 -0.19509 0.0604 0.9838
transfer_grey
0 -10.00000 8.00000 -0.00000 0.00000 0.99786 -0.06540 0.0625 1.0000
0 -6.00000 8.00000 -0.00000 0.00000 0.99786 -0.06540 0.0625 1.0000
0 -6.00000 7.93156 -1.04421 0.00000 0.99786 -0.06540 0.0620 0.9918
transfer_grey
0 -10.00000 8.00000 -0.00000 0.00000 0.99786 -0.06540 0.0625 1.0000
0 -6.00000 7.93156 -1.04421 0.00000 0.99786 -0.06540 0.0620 0.9918
0 -10.00000 7.93156 -1.04421 0.00000 0.99786 -0.06540 0.0620 0.9918
transfer_grey
0 -6.00000 8.00000 0.00000 1.00000 0.00000 0.00000 0.0625 0.0000
0 -6.00000 7.93156 1.04421 1.00000 0.00000 0.00000 0.0620 0.0082
0 -6.00000 0.00000 0.00000 1.00000 0.00000 0.00000 0.0000 0.0000
transfer_grey
0 -6.00000 7.93156 1.04421 1.00000 0.00000 0.00000 0.0620 0.0082
0 -6.00000 7.72741 2.07055 1.00000 0.00000 0.00000 0.0604 0.0162
0 -6.00000 0.00000 0.00000 1.00000 0.00000 0.00000 0.0000 0.0000
transfer_grey
0 -6.00000 7.72741 2.07055 1.00000 0.00000 0.00000 0.0604 0.0162
0 -6.00000 7.39104 3.06147 1.00000 0.00000 0.00000 0.0577 0.0239
0 -6.00000 0.00000 0.00000 1.00000 0.00000 0.00000 0.0000 0.0000
transfer_grey
0 -6.00000 7.39104 3.06147 1.00000 0.00000 0.00000 0.0577 0.0239
0 -6.00000 6.92820 4.00000 1.00000 0.00000 0.00000 0.0541 0.0312
0 -6.00000 0.00000 0.00000 1.00000 0.00000 0.00000 0.0000 0.0000
transfer_grey
0 -6.00000 6.92820 4.00000 1.00000 0.00000 0.00000 0.0541 0.0312
0 -6.00000 6.34683 4.87009 1.00000 0.00000 0.00000 0.0496 0.0380
0 -6.00000 0.00000 0.00000 1.00000 0.00000 0.00000 0.0000 0.0000
transfer_grey
0 -6.00000 6.34683 4.87009 1.00000 0.00000 0.00000 0.0496 0.0380
0 -6.00000 5.65685 5.65685 1.00000 0.00000 0.00000 0.0442 0.0442
0 -6.00000 0.00000 0.00000 1.00000 0.00000 0.00000 0.0000 0.0000
transfer_grey
0 -6.00000 5.65685 5.65685 1.00000 0.00000 0.00000 0.0442 0.0442
0 -6.00000 4.87009 6.34683 1.00000 0.00000 0.00000 0.0380 0.0496
0 -6.00000 0.00000 0.00000 1.00000 0.00000 0.00000 0.0000 0.0000
transfer_grey
0 -6.00000 4.87009 6.34683 1.00000 0.00000 0.00000 0.0380 0.0496
0 -6.00000 4.00000 6.92820 1.00000 0.00000 0.00000 0.0313 0.0541
0 -6.00000 0.00000 0.00000 1.00000 0.00000 0.00000 0.0000 0.0000
transfer_grey
0 -6.00000 4.00000 6.92820 1.00000 0.00000 0.00000 0.0313 0.0541
0 -6.00000 3.06147 7.39104 1.00000 0.00000 0.00000 0.0239 0.0577
0 -6.00000 0.00000 0.00000 1.00000 0.00000 0.00000 0.0000 0.0000
transfer_grey
0 -6.00000 3.06147 7.39104 1.00000 0.00000 0.00000 0.0239 0.0577
0 -6.00000 2.07055 7.72741 1.00000 0.00000 0.00000 0.0162 0.0604
0 -6.00000 0.00000 0.00000 1.00000 0.00000 0.00000 0.0000 0.0000
transfer_grey
0 -6.00000 2.07055 7.72741 1.00000 0.00000 0.00000 0.0162 0.0604
0 -6.00000 1.04421 7.93156 1.00000 0.00000 0.00000 0.0082 0.0620
0 -6.00000 0.00000 0.00000 1.00000 0.00000 0.00000 0.0000 0.0000
transfer_grey
0 -6.00000 1.04421 7.93156 1.00000 0.00000 0.00000 0.0082 0.0620
0 -6.00000 0.00000 8.00000 1.00000 0.00000 0.00000 0.0000 0.0625
0 -6.00000 0.00000 0.00000 1.00000 0.00000 0.00000 0.0000 0.0000
transfer_grey
0 -6.00000 0.00000 8.00000 1.00000 0.00000 0.00000 0.0000 0.0625
0 -6.00000 -1.04421 7.93156 1.00000 0.00000 0.00000 0.9918 0.0620
0 -6.00000 0.00000 0.00000 1.00000 0.00000 0.00000 0.0000 0.0000
transfer_grey
0 -6.00000 -1.04421 7.93156 1.00000 0.00000 0.00000 0.9918 0.0620
0 -6.00000 -2.07055 7.72741 1.00000 0.00000 0.00000 0.9838 0.0604
0 -6.00000 0.00000 0.00000 1.00000 0.00000 0.00000 0.0000 0.0000
transfer_grey
0 -6.00000 -2.07055 7.72741 1.00000 0.00000 0.00000 0.9838 0.0604
0 -6.00000 -3.06147 7.39104 1.00000 0.00000 0.00000 0.9761 0.0577
0 -6.00000 0.00000 0.00000 1.00000 0.00000 0.00000 0.0000 0.0000
transfer_grey
0 -6.00000 -3.06147 7.39104 1.00000 0.00000 0.00000 0.9761 0.0577
0 -6.00000 -4.00000 6.92820 1.00000 0.00000 0.00000 0.9688 0.0541
0 -6.00000 0.00000 0.00000 1.00000 0.00000 0.00000 0.0000 0.0000
transfer_grey
0 -6.00000 -4.00000 6.92820 1.00000 0.00000 0.00000 0.9688 0.0541
0 -6.00000 -4.87009 6.34683 1.00000 0.00000 0.00000 0.9620 0.0496
0 -6.00000 0.00000 0.00000 1.00000 0.00000 0.00000 0.0000 0.0000
transfer_grey
0 -6.00000 -4.87009 6.34683 1.00000 0.00000 0.00000 0.9620 0.0496
0 -6.00000 -5.65685 5.65685 1.00000 0.00000 0.00000 0.9558 0.0442
0 -6.00000 0.00000 0.00000 1.00000 0.00000 0.00000 0.0000 0.0000
transfer_grey
0 -6.00000 -5.65685 5.65685 1.00000 0.00000 0.00000 0.9558 0.0442
0 -6.00000 -6.34683 4.87009 1.00000 0.00000 0.00000 0.9504 0.0380
0 -6.00000 0.00000 0.00000 1.00000 0.00000 0.00000 0.0000 0.0000
transfer_grey
0 -6.00000 -6.34683 4.87009 1.00000 0.00000 0.00000 0.9504 0.0380
0 -6.00000 -6.92820 4.00000 1.00000 0.00000 0.00000 0.9459 0.0312
0 -6.00000 0.00000 0.00000 1.00000 0.00000 0.00000 0.0000 0.0000
transfer_grey
0 -6.00000 -6.92820 4.00000 1.00000 0.00000 0.00000 0.9459 0.0312
0 -6.00000 -7.39104 3.06147 1.00000 0.00000 0.00000 0.9423 0.0239
0 -6.00000 0.00000 0.00000 1.00000 0.00000 0.00000 0.0000 0.0000
transfer_grey
0 -6.00000 -7.39104 3.06147 1.00000 0.00000 0.00000 0.9423 0.0239
0 -6.00000 -7.72741 2.07055 1.00000 0.00000 0.00000 0.9396 0.0162
0 -6.00000 0.00000 0.00000 1.00000 0.00000 0.00000 0.0000 0.0000
transfer_grey
0 -6.00000 -7.72741 2.07055 1.00000 0.00000 0.00000 0.9396 0.0162
0 -6.00000 -7.93156 1.04421 1.00000 0.00000 0.00000 0.9380 0.0082
0 -6.00000 0.00000 0.00000 1.00000 0.00000 0.00000 0.0000 0.0000
transfer_grey
0 -6.00000 -7.93156 1.04421 1.00000 0.00000 0.00000 0.9380 0.0082
0 -6.00000 -8.00000 0.00000 1.00000 0.00000 0.00000 0.9375 0.0000
0 -6.00000 0.00000 0.00000 1.00000 0.00000 0.00000 0.0000 0.0000
transfer_grey
0 -6.00000 -8.00000 0.00000 1.00000 0.00000 0.00000 0.9375 0.0000
0 -6.00000 -7.93156 -1.04421 1.00000 0.00000 0.00000 0.9380 0.9918
0 -6.00000 0.00000 0.00000 1.00000 0.00000 0.00000 0.0000 0.0000
transfer_grey
0 -6.00000 -7.93156 -1.04421 1.00000 -0.00000 0.00000 0.9380 0.9918
0 -6.00000 -7.72741 -2.07055 1.00000 -0.00000 0.00000 0.9396 0.9838
0 -6.00000 0.00000 0.00000 1.00000 -0.00000 0.00000 0.0000 0.0000
transfer_grey
0 -6.00000 -7.72741 -2.07055 1.00000 -0.00000 0.00000 0.9396 0.9838
0 -6.00000 -7.39104 -3.06147 1.00000 -0.00000 0.00000 0.9423 0.9761
0 -6.00000 0.00000 0.00000 1.00000 -0.00000 0.00000 0.0000 0.0000
transfer_grey
0 -6.00000 -7.39104 -3.06147 1.00000 -0.00000 0.00000 0.9423 0.9761
0 -6.00000 -6.92820 -4.00000 1.00000 -0.00000 0.00000 0.9459 0.9688
0 -6.00000 0.00000 0.00000 1.00000 -0.00000 0.00000 0.0000 0.0000
transfer_grey
0 -6.00000 -6.92820 -4.00000 1.00000 -0.00000 0.00000 0.9459 0.9688
0 -6.00000 -6.34683 -4.87009 1.00000 -0.00000 0.00000 0.9504 0.9620
0 -6.00000 0.00000 0.00000 1.00000 -0.00000 0.00000 0.0000 0.0000
transfer_grey
0 -6.00000 -6.34683 -4.87009 1.00000 -0.00000 0.00000 0.9504 0.9620
0 -6.00000 -5.65685 -5.65685 1.00000 -0.00000 0.00000 0.9558 0.9558
0 -6.00000 0.00000 0.00000 1.00000 -0.00000 0.00000 0.0000 0.0000
transfer_grey
0 -6.00000 -5.65685 -5.65685 1.00000 -0.00000 0.00000 0.9558 0.9558
0 -6.00000 -4.87009 -6.34683 1.00000 -0.00000 0.00000 0.9620 0.9504
0 -6.00000 0.00000 0.00000 1.00000 -0.00000 0.00000 0.0000 0.0000
transfer_grey
0 -6.00000 -4.87009 -6.34683 1.00000 -0.00000 0.00000 0.9620 0.9504
0 -6.00000 -4.00000 -6.92820 1.00000 -0.00000 0.00000 0.9688 0.9459
0 -6.00000 0.00000 0.00000 1.00000 -0.00000 0.00000 0.0000 0.0000
transfer_grey
0 -6.00000 -4.00000 -6.92820 1.00000 -0.00000 0.00000 0.9688 0.9459
0 -6.00000 -3.06147 -7.39104 1.00000 -0.00000 0.00000 0.9761 0.9423
0 -6.00000 0.00000 0.00000 1.00000 -0.00000 0.00000 0.0000 0.0000
transfer_grey
0 -6.00000 -3.06147 -7.39104 1.00000 -0.00000 0.00000 0.9761 0.9423
0 -6.00000 -2.07055 -7.72741 1.00000 -0.00000 0.00000 0.9838 0.9396
0 -6.00000 0.00000 0.00000 1.00000 -0.00000 0.00000 0.0000 0.0000
transfer_grey
0 -6.00000 -2.07055 -7.72741 1.00000 -0.00000 0.00000 0.9838 0.9396
0 -6.00000 -1.04421 -7.93156 1.00000 -0.00000 0.00000 0.9918 0.9380
0 -6.00000 0.00000 0.00000 1.00000 -0.00000 0.00000 0.0000 0.0000
transfer_grey
0 -6.00000 -1.04421 -7.93156 1.00000 -0.00000 0.00000 0.9918 0.9380
0 -6.00000 -0.00000 -8.00000 1.00000 -0.00000 0.00000 1.0000 0.9375
0 -6.00000 0.00000 0.00000 1.00000 -0.00000 0.00000 0.0000 0.0000
transfer_grey
0 -6.00000 -0.00000 -8.00000 1.00000 0.00000 0.00000 1.0000 0.9375
0 -6.00000 1.04421 -7.93156 1.00000 0.00000 0.00000 0.0082 0.9380
0 -6.00000 0.00000 0.00000 1.00000 0.00000 0.00000 0.0000 0.0000
transfer_grey
0 -6.00000 1.04421 -7.93156 1.00000 0.00000 -0.00000 0.0082 0.9380
0 -6.00000 2.07055 -7.72741 1.00000 0.00000 -0.00000 0.0162 0.9396
0 -6.00000 0.00000 0.00000 1.00000 0.00000 -0.00000 0.0000 0.0000
transfer_grey
0 -6.00000 2.07055 -7.72741 1.00000 0.00000 -0.00000 0.0162 0.9396
0 -6.00000 3.06147 -7.39104 1.00000 0.00000 -0.00000 0.0239 0.9423
0 -6.00000 0.00000 0.00000 1.00000 0.00000 -0.00000 0.0000 0.0000
transfer_grey
0 -6.00000 3.06147 -7.39104 1.00000 0.00000 -0.00000 0.0239 0.9423
0 -6.00000 4.00000 -6.92820 1.00000 0.00000 -0.00000 0.0313 0.9459
0 -6.00000 0.00000 0.00000 1.00000 0.00000 -0.00000 0.0000 0.0000
transfer_grey
0 -6.00000 4.00000 -6.92820 1.00000 0.00000 -0.00000 0.0313 0.9459
0 -6.00000 4.87009 -6.34683 1.00000 0.00000 -0.00000 0.0380 0.9504
0 -6.00000 0.00000 0.00000 1.00000 0.00000 -0.00000 0.0000 0.0000
transfer_grey
0 -6.00000 4.87009 -6.34683 1.00000 0.00000 -0.00000 0.0380 0.9504
0 -6.00000 5.65685 -5.65685 1.00000 0.00000 -0.00000 0.0442 0.9558
0 -6.00000 0.00000 0.00000 1.00000 0.00000 -0.00000 0.0000 0.0000
transfer_grey
0 -6.00000 5.65685 -5.65685 1.00000 0.00000 -0.00000 0.0442 0.9558
0 -6.00000 6.34683 -4.87009 1.00000 0.00000 -0.00000 0.0496 0.9620
0 -6.00000 0.00000 0.00000 1.00000 0.00000 -0.00000 0.0000 0.0000
transfer_grey
0 -6.00000 6.34683 -4.87009 1.00000 0.00000 -0.00000 0.0496 0.9620
0 -6.00000 6.92820 -4.00000 1.00000 0.00000 -0.00000 0.0541 0.9688
0 -6.00000 0.00000 0.00000 1.00000 0.00000 -0.00000 0.0000 0.0000
transfer_grey
0 -6.00000 6.92820 -4.00000 1.00000 0.00000 -0.00000 0.0541 0.9688
0 -6.00000 7.39104 -3.06147 1.00000 0.00000 -0.00000 0.0577 0.9761
0 -6.00000 0.00000 0.00000 1.00000 0.00000 -0.00000 0.0000 0.0000
transfer_grey
0 -6.00000 7.39104 -3.06147 1.00000 0.00000 -0.00000 0.0577 0.9761
0 -6.00000 7.72741 -2.07055 1.00000 0.00000 -0.00000 0.0604 0.9838
0 -6.00000 0.00000 0.00000 1.00000 0.00000 -0.00000 0.0000 0.0000
transfer_grey
0 -6.00000 7.72741 -2.07055 1.00000 0.00000 -0.00000 0.0604 0.9838
0 -6.00000 7.93156 -1.04421 1.00000 0.00000 -0.00000 0.0620 0.9918
0 -6.00000 0.00000 0.00000 1.00000 0.00000 -0.00000 0.0000 0.0000
transfer_grey
0 -6.00000 7.93156 -1.04421 1.00000 0.00000 -0.00000 0.0620 0.9918
0 -6.00000 8.00000 -0.00000 1.00000 0.00000 -0.00000 0.0625 1.0000
0 -6.00000 0.00000 0.00000 1.00000 0.00000 -0.00000 0.0000 0.0000
end
