version 1
nodes
0 "root" -1
end
skeleton
time 0
0 0 0 0 0 0 0
end
triangles
disc_dark
0 3.00000 0.00000 0.00000 1.00000 0.00000 0.00000 0.0000 0.0000
0 3.00000 26.00000 0.00000 1.00000 0.00000 0.00000 0.2031 0.0000
0 3.00000 25.11407 6.72930 1.00000 0.00000 0.00000 0.1962 0.0526
disc_dark
0 -3.00000 0.00000 0.00000 -1.00000 0.00000 0.00000 0.0000 0.0000
0 -3.00000 25.11407 6.72930 -1.00000 0.00000 0.00000 0.1962 0.0526
0 -3.00000 26.00000 0.00000 -1.00000 0.00000 0.00000 0.2031 0.0000
disc_dark
0 -3.00000 25.11407 6.72930 -0.00000 0.99144 0.13053 0.1962 0.0526
0 3.00000 25.11407 6.72930 -0.00000 0.99144 0.13053 0.1962 0.0526
0 3.00000 26.00000 0.00000 -0.00000 0.99144 0.13053 0.2031 0.0000
disc_dark
0 -3.00000 25.11407 6.72930 -0.00000 0.99144 0.13053 0.1962 0.0526
0 3.00000 26.00000 0.00000 -0.00000 0.99144 0.13053 0.2031 0.0000
0 -3.00000 26.00000 0.00000 -0.00000 0.99144 0.13053 0.2031 0.0000
disc_white
0 3.00000 0.00000 0.00000 1.00000 0.00000 0.00000 0.0000 0.0000
0 3.00000 25.11407 6.72930 1.00000 0.00000 0.00000 0.1962 0.0526
0 3.00000 22.51666 13.00000 1.00000 0.00000 0.00000 0.1759 0.1016
disc_white
0 -3.00000 0.00000 0.00000 -1.00000 0.00000 0.00000 0.0000 0.0000
0 -3.00000 22.51666 13.00000 -1.00000 0.00000 0.00000 0.1759 0.1016
0 -3.00000 25.11407 6.72930 -1.00000 0.00000 0.00000 0.1962 0.0526
disc_dark
0 -3.00000 22.51666 13.00000 -0.00000 0.92388 0.38268 0.1759 0.1016
0 3.00000 22.51666 13.00000 -0.00000 0.92388 0.38268 0.1759 0.1016
0 3.00000 25.11407 6.72930 -0.00000 0.92388 0.38268 0.1962 0.0526
disc_dark
0 -3.00000 22.51666 13.00000 -0.00000 0.92388 0.38268 0.1759 0.1016
0 3.00000 25.11407 6.72930 -0.00000 0.92388 0.38268 0.1962 0.0526
0 -3.00000 25.11407 6.72930 -0.00000 0.92388 0.38268 0.1962 0.0526
disc_white
0 3.00000 0.00000 0.00000 1.00000 0.00000 0.00000 0.0000 0.0000
0 3.00000 22.51666 13.00000 1.00000 0.00000 0.00000 0.1759 0.1016
0 3.00000 18.38478 18.38478 1.00000 0.00000 0.00000 0.1436 0.1436
disc_white
0 -3.00000 0.00000 0.00000 -1.00000 0.00000 0.00000 0.0000 0.0000
0 -3.00000 18.38478 18.38478 -1.00000 0.00000 0.00000 0.1436 0.1436
0 -3.00000 22.51666 13.00000 -1.00000 0.00000 0.00000 0.1759 0.1016
disc_dark
0 -3.00000 18.38478 18.38478 -0.00000 0.79335 0.60876 0.1436 0.1436
0 3.00000 18.38478 18.38478 -0.00000 0.79335 0.60876 0.1436 0.1436
0 3.00000 22.51666 13.00000 -0.00000 0.79335 0.60876 0.1759 0.1016
disc_dark
0 -3.00000 18.38478 18.38478 -0.00000 0.79335 0.60876 0.1436 0.1436
0 3.00000 22.51666 13.00000 -0.00000 0.79335 0.60876 0.1759 0.1016
0 -3.00000 22.51666 13.00000 -0.00000 0.79335 0.60876 0.1759 0.1016
disc_white
0 3.00000 0.00000 0.00000 1.00000 0.00000 0.00000 0.0000 0.0000
0 3.00000 18.38478 18.38478 1.00000 0.00000 0.00000 0.1436 0.1436
0 3.00000 13.00000 22.51666 1.00000 0.00000 0.00000 0.1016 0.1759
disc_white
0 -3.00000 0.00000 0.00000 -1.00000 0.00000 0.00000 0.0000 0.0000
0 -3.00000 13.00000 22.51666 -1.00000 0.00000 0.00000 0.1016 0.1759
0 -3.00000 18.38478 18.38478 -1.00000 0.00000 0.00000 0.1436 0.1436
disc_dark
0 -3.00000 13.00000 22.51666 -0.00000 0.60876 0.79335 0.1016 0.1759
0 3.00000 13.00000 22.51666 -0.00000 0.60876 0.79335 0.1016 0.1759
0 3.00000 18.38478 18.38478 -0.00000 0.60876 0.79335 0.1436 0.1436
disc_dark
0 -3.00000 13.00000 22.51666 -0.00000 0.60876 0.79335 0.1016 0.1759
0 3.00000 18.38478 18.38478 -0.00000 0.60876 0.79335 0.1436 0.1436
0 -3.00000 18.38478 18.38478 -0.00000 0.60876 0.79335 0.1436 0.1436
disc_white
0 3.00000 0.00000 0.00000 1.00000 0.00000 0.00000 0.0000 0.0000
0 3.00000 13.00000 22.51666 1.00000 0.00000 0.00000 0.1016 0.1759
0 3.00000 6.72930 25.11407 1.00000 0.00000 0.00000 0.0526 0.1962
disc_white
0 -3.00000 0.00000 0.00000 -1.00000 0.00000 0.00000 0.0000 0.0000
0 -3.00000 6.72930 25.11407 -1.00000 0.00000 0.00000 0.0526 0.1962
0 -3.00000 13.00000 22.51666 -1.00000 0.00000 0.00000 0.1016 0.1759
disc_dark
0 -3.00000 6.72930 25.11407 -0.00000 0.38268 0.92388 0.0526 0.1962
0 3.00000 6.72930 25.11407 -0.00000 0.38268 0.92388 0.0526 0.1962
0 3.00000 13.00000 22.51666 -0.00000 0.38268 0.92388 0.1016 0.1759
disc_dark
0 -3.00000 6.72930 25.11407 -0.00000 0.38268 0.92388 0.0526 0.1962
0 3.00000 13.00000 22.51666 -0.00000 0.38268 0.92388 0.1016 0.1759
0 -3.00000 13.00000 22.51666 -0.00000 0.38268 0.92388 0.1016 0.1759
disc_white
0 3.00000 0.00000 0.00000 1.00000 0.00000 0.00000 0.0000 0.0000
0 3.00000 6.72930 25.11407 1.00000 0.00000 0.00000 0.0526 0.1962
0 3.00000 0.00000 26.00000 1.00000 0.00000 0.00000 0.0000 0.2031
disc_white
0 -3.00000 0.00000 0.00000 -1.00000 0.00000 0.00000 0.0000 0.0000
0 -3.00000 0.00000 26.00000 -1.00000 0.00000 0.00000 0.0000 0.2031
0 -3.00000 6.72930 25.11407 -1.00000 0.00000 0.00000 0.0526 0.1962
disc_dark
0 -3.00000 0.00000 26.00000 -0.00000 0.13053 0.99144 0.0000 0.2031
0 3.00000 0.00000 26.00000 -0.00000 0.13053 0.99144 0.0000 0.2031
0 3.00000 6.72930 25.11407 -0.00000 0.13053 0.99144 0.0526 0.1962
disc_dark
0 -3.00000 0.00000 26.00000 -0.00000 0.13053 0.99144 0.0000 0.2031
0 3.00000 6.72930 25.11407 -0.00000 0.13053 0.99144 0.0526 0.1962
0 -3.00000 6.72930 25.11407 -0.00000 0.13053 0.99144 0.0526 0.1962
disc_dark
0 3.00000 0.00000 0.00000 1.00000 0.00000 -0.00000 0.0000 0.0000
0 3.00000 0.00000 26.00000 1.00000 0.00000 -0.00000 0.0000 0.2031
0 3.00000 -6.72930 25.11407 1.00000 0.00000 -0.00000 0.9474 0.1962
disc_dark
0 -3.00000 0.00000 0.00000 -1.00000 0.00000 0.00000 0.0000 0.0000
0 -3.00000 -6.72930 25.11407 -1.00000 0.00000 0.00000 0.9474 0.1962
0 -3.00000 0.00000 26.00000 -1.00000 0.00000 0.00000 0.0000 0.2031
disc_dark
0 -3.00000 -6.72930 25.11407 0.00000 -0.13053 0.99144 0.9474 0.1962
0 3.00000 -6.72930 25.11407 0.00000 -0.13053 0.99144 0.9474 0.1962
0 3.00000 0.00000 26.00000 0.00000 -0.13053 0.99144 0.0000 0.2031
disc_dark
0 -3.00000 -6.72930 25.11407 0.00000 -0.13053 0.99144 0.9474 0.1962
0 3.00000 0.00000 26.00000 0.00000 -0.13053 0.99144 0.0000 0.2031
0 -3.00000 0.00000 26.00000 0.00000 -0.13053 0.99144 0.0000 0.2031
disc_white
0 3.00000 0.00000 0.00000 1.00000 0.00000 0.00000 0.0000 0.0000
0 3.00000 -6.72930 25.11407 1.00000 0.00000 0.00000 0.9474 0.1962
0 3.00000 -13.00000 22.51666 1.00000 0.00000 0.00000 0.8984 0.1759
disc_white
0 -3.00000 0.00000 0.00000 -1.00000 0.00000 0.00000 0.0000 0.0000
0 -3.00000 -13.00000 22.51666 -1.00000 0.00000 0.00000 0.8984 0.1759
0 -3.00000 -6.72930 25.11407 -1.00000 0.00000 0.00000 0.9474 0.1962
disc_dark
0 -3.00000 -13.00000 22.51666 0.00000 -0.38268 0.92388 0.8984 0.1759
0 3.00000 -13.00000 22.51666 0.00000 -0.38268 0.92388 0.8984 0.1759
0 3.00000 -6.72930 25.11407 0.00000 -0.38268 0.92388 0.9474 0.1962
disc_dark
0 -3.00000 -13.00000 22.51666 0.00000 -0.38268 0.92388 0.8984 0.1759
0 3.00000 -6.72930 25.11407 0.00000 -0.38268 0.92388 0.9474 0.1962
0 -3.00000 -6.72930 25.11407 0.00000 -0.38268 0.92388 0.9474 0.1962
disc_white
0 3.00000 0.00000 0.00000 1.00000 0.00000 0.00000 0.0000 0.0000
0 3.00000 -13.00000 22.51666 1.00000 0.00000 0.00000 0.8984 0.1759
0 3.00000 -18.38478 18.38478 1.00000 0.00000 0.00000 0.8564 0.1436
disc_white
0 -3.00000 0.00000 0.00000 -1.00000 0.00000 0.00000 0.0000 0.0000
0 -3.00000 -18.38478 18.38478 -1.00000 0.00000 0.00000 0.8564 0.1436
0 -3.00000 -13.00000 22.51666 -1.00000 0.00000 0.00000 0.8984 0.1759
disc_dark
0 -3.00000 -18.38478 18.38478 0.00000 -0.60876 0.79335 0.8564 0.1436
0 3.00000 -18.38478 18.38478 0.00000 -0.60876 0.79335 0.8564 0.1436
0 3.00000 -13.00000 22.51666 0.00000 -0.60876 0.79335 0.8984 0.1759
disc_dark
0 -3.00000 -18.38478 18.38478 0.00000 -0.60876 0.79335 0.8564 0.1436
0 3.00000 -13.00000 22.51666 0.00000 -0.60876 0.79335 0.8984 0.1759
0 -3.00000 -13.00000 22.51666 0.00000 -0.60876 0.79335 0.8984 0.1759
disc_white
0 3.00000 0.00000 0.00000 1.00000 0.00000 0.00000 0.0000 0.0000
0 3.00000 -18.38478 18.38478 1.00000 0.00000 0.00000 0.8564 0.1436
0 3.00000 -22.51666 13.00000 1.00000 0.00000 0.00000 0.8241 0.1016
disc_white
0 -3.00000 0.00000 0.00000 -1.00000 0.00000 0.00000 0.0000 0.0000
0 -3.00000 -22.51666 13.00000 -1.00000 0.00000 0.00000 0.8241 0.1016
0 -3.00000 -18.38478 18.38478 -1.00000 0.00000 0.00000 0.8564 0.1436
disc_dark
0 -3.00000 -22.51666 13.00000 0.00000 -0.79335 0.60876 0.8241 0.1016
0 3.00000 -22.51666 13.00000 0.00000 -0.79335 0.60876 0.8241 0.1016
0 3.00000 -18.38478 18.38478 0.00000 -0.79335 0.60876 0.8564 0.1436
disc_dark
0 -3.00000 -22.51666 13.00000 0.00000 -0.79335 0.60876 0.8241 0.1016
0 3.00000 -18.38478 18.38478 0.00000 -0.79335 0.60876 0.8564 0.1436
0 -3.00000 -18.38478 18.38478 0.00000 -0.79335 0.60876 0.8564 0.1436
disc_white
0 3.00000 0.00000 0.00000 1.00000 0.00000 0.00000 0.0000 0.0000
0 3.00000 -22.51666 13.00000 1.00000 0.00000 0.00000 0.8241 0.1016
0 3.00000 -25.11407 6.72930 1.00000 0.00000 0.00000 0.8038 0.0526
disc_white
0 -3.00000 0.00000 0.00000 -1.00000 0.00000 0.00000 0.0000 0.0000
0 -3.00000 -25.11407 6.72930 -1.00000 0.00000 0.00000 0.8038 0.0526
0 -3.00000 -22.51666 13.00000 -1.00000 0.00000 0.00000 0.8241 0.1016
disc_dark
0 -3.00000 -25.11407 6.72930 0.00000 -0.92388 0.38268 0.8038 0.0526
0 3.00000 -25.11407 6.72930 0.00000 -0.92388 0.38268 0.8038 0.0526
0 3.00000 -22.51666 13.00000 0.00000 -0.92388 0.38268 0.8241 0.1016
disc_dark
0 -3.00000 -25.11407 6.72930 0.00000 -0.92388 0.38268 0.8038 0.0526
0 3.00000 -22.51666 13.00000 0.00000 -0.92388 0.38268 0.8241 0.1016
0 -3.00000 -22.51666 13.00000 0.00000 -0.92388 0.38268 0.8241 0.1016
disc_white
0 3.00000 0.00000 0.00000 1.00000 0.00000 0.00000 0.0000 0.0000
0 3.00000 -25.11407 6.72930 1.00000 0.00000 0.00000 0.8038 0.0526
0 3.00000 -26.00000 0.00000 1.00000 0.00000 0.00000 0.7969 0.0000
disc_white
0 -3.00000 0.00000 0.00000 -1.00000 0.00000 0.00000 0.0000 0.0000
0 -3.00000 -26.00000 0.00000 -1.00000 0.00000 0.00000 0.7969 0.0000
0 -3.00000 -25.11407 6.72930 -1.00000 0.00000 0.00000 0.8038 0.0526
disc_dark
0 -3.00000 -26.00000 0.00000 0.00000 -0.99144 0.13053 0.7969 0.0000
0 3.00000 -26.00000 0.00000 0.00000 -0.99144 0.13053 0.7969 0.0000
0 3.00000 -25.11407 6.72930 0.00000 -0.99144 0.13053 0.8038 0.0526
disc_dark
0 -3.00000 -26.00000 0.00000 0.00000 -0.99144 0.13053 0.7969 0.0000
0 3.00000 -25.11407 6.72930 0.00000 -0.99144 0.13053 0.8038 0.0526
0 -3.00000 -25.11407 6.72930 0.00000 -0.99144 0.13053 0.8038 0.0526
disc_dark
0 3.00000 0.00000 0.00000 1.00000 0.00000 0.00000 0.0000 0.0000
0 3.00000 -26.00000 0.00000 1.00000 0.00000 0.00000 0.7969 0.0000
0 3.00000 -25.11407 -6.72930 1.00000 0.00000 0.00000 0.8038 0.9474
disc_dark
0 -3.00000 0.00000 0.00000 -1.00000 -0.00000 0.00000 0.0000 0.0000
0 -3.00000 -25.11407 -6.72930 -1.00000 -0.00000 0.00000 0.8038 0.9474
0 -3.00000 -26.00000 0.00000 -1.00000 -0.00000 0.00000 0.7969 0.0000
disc_dark
0 -3.00000 -25.11407 -6.72930 0.00000 -0.99144 -0.13053 0.8038 0.9474
0 3.00000 -25.11407 -6.72930 0.00000 -0.99144 -0.13053 0.8038 0.9474
0 3.00000 -26.00000 0.00000 0.00000 -0.99144 -0.13053 0.7969 0.0000
disc_dark
0 -3.00000 -25.11407 -6.72930 0.00000 -0.99144 -0.13053 0.8038 0.9474
0 3.00000 -26.00000 0.00000 0.00000 -0.99144 -0.13053 0.7969 0.0000
0 -3.00000 -26.00000 0.00000 0.00000 -0.99144 -0.13053 0.7969 0.0000
disc_white
0 3.00000 0.00000 0.00000 1.00000 0.00000 0.00000 0.0000 0.0000
0 3.00000 -25.11407 -6.72930 1.00000 0.00000 0.00000 0.8038 0.9474
0 3.00000 -22.51666 -13.00000 1.00000 0.00000 0.00000 0.8241 0.8984
disc_white
0 -3.00000 0.00000 0.00000 -1.00000 0.00000 0.00000 0.0000 0.0000
0 -3.00000 -22.51666 -13.00000 -1.00000 0.00000 0.00000 0.8241 0.8984
0 -3.00000 -25.11407 -6.72930 -1.00000 0.00000 0.00000 0.8038 0.9474
disc_dark
0 -3.00000 -22.51666 -13.00000 0.00000 -0.92388 -0.38268 0.8241 0.8984
0 3.00000 -22.51666 -13.00000 0.00000 -0.92388 -0.38268 0.8241 0.8984
0 3.00000 -25.11407 -6.72930 0.00000 -0.92388 -0.38268 0.8038 0.9474
disc_dark
0 -3.00000 -22.51666 -13.00000 0.00000 -0.92388 -0.38268 0.8241 0.8984
0 3.00000 -25.11407 -6.72930 0.00000 -0.92388 -0.38268 0.8038 0.9474
0 -3.00000 -25.11407 -6.72930 0.00000 -0.92388 -0.38268 0.8038 0.9474
disc_white
0 3.00000 0.00000 0.00000 1.00000 0.00000 0.00000 0.0000 0.0000
0 3.00000 -22.51666 -13.00000 1.00000 0.00000 0.00000 0.8241 0.8984
0 3.00000 -18.38478 -18.38478 1.00000 0.00000 0.00000 0.8564 0.8564
disc_white
0 -3.00000 0.00000 0.00000 -1.00000 0.00000 0.00000 0.0000 0.0000
0 -3.00000 -18.38478 -18.38478 -1.00000 0.00000 0.00000 0.8564 0.8564
0 -3.00000 -22.51666 -13.00000 -1.00000 0.00000 0.00000 0.8241 0.8984
disc_dark
0 -3.00000 -18.38478 -18.38478 0.00000 -0.79335 -0.60876 0.8564 0.8564
0 3.00000 -18.38478 -18.38478 0.00000 -0.79335 -0.60876 0.8564 0.8564
0 3.00000 -22.51666 -13.00000 0.00000 -0.79335 -0.60876 0.8241 0.8984
disc_dark
0 -3.00000 -18.38478 -18.38478 0.00000 -0.79335 -0.60876 0.8564 0.8564
0 3.00000 -22.51666 -13.00000 0.00000 -0.79335 -0.60876 0.8241 0.8984
0 -3.00000 -22.51666 -13.00000 0.00000 -0.79335 -0.60876 0.8241 0.8984
disc_white
0 3.00000 0.00000 0.00000 1.00000 0.00000 0.00000 0.0000 0.0000
0 3.00000 -18.38478 -18.38478 1.00000 0.00000 0.00000 0.8564 0.8564
0 3.00000 -13.00000 -22.51666 1.00000 0.00000 0.00000 0.8984 0.8241
disc_white
0 -3.00000 0.00000 0.00000 -1.00000 0.00000 0.00000 0.0000 0.0000
0 -3.00000 -13.00000 -22.51666 -1.00000 0.00000 0.00000 0.8984 0.8241
0 -3.00000 -18.38478 -18.38478 -1.00000 0.00000 0.00000 0.8564 0.8564
disc_dark
0 -3.00000 -13.00000 -22.51666 0.00000 -0.60876 -0.79335 0.8984 0.8241
0 3.00000 -13.00000 -22.51666 0.00000 -0.60876 -0.79335 0.8984 0.8241
0 3.00000 -18.38478 -18.38478 0.00000 -0.60876 -0.79335 0.8564 0.8564
disc_dark
0 -3.00000 -13.00000 -22.51666 0.00000 -0.60876 -0.79335 0.8984 0.8241
0 3.00000 -18.38478 -18.38478 0.00000 -0.60876 -0.79335 0.8564 0.8564
0 -3.00000 -18.38478 -18.38478 0.00000 -0.60876 -0.79335 0.8564 0.8564
disc_white
0 3.00000 0.00000 0.00000 1.00000 0.00000 0.00000 0.0000 0.0000
0 3.00000 -13.00000 -22.51666 1.00000 0.00000 0.00000 0.8984 0.8241
0 3.00000 -6.72930 -25.11407 1.00000 0.00000 0.00000 0.9474 0.8038
disc_white
0 -3.00000 0.00000 0.00000 -1.00000 0.00000 0.00000 0.0000 0.0000
0 -3.00000 -6.72930 -25.11407 -1.00000 0.00000 0.00000 0.9474 0.8038
0 -3.00000 -13.00000 -22.51666 -1.00000 0.00000 0.00000 0.8984 0.8241
disc_dark
0 -3.00000 -6.72930 -25.11407 0.00000 -0.38268 -0.92388 0.9474 0.8038
0 3.00000 -6.72930 -25.11407 0.00000 -0.38268 -0.92388 0.9474 0.8038
0 3.00000 -13.00000 -22.51666 0.00000 -0.38268 -0.92388 0.8984 0.8241
disc_dark
0 -3.00000 -6.72930 -25.11407 0.00000 -0.38268 -0.92388 0.9474 0.8038
0 3.00000 -13.00000 -22.51666 0.00000 -0.38268 -0.92388 0.8984 0.8241
0 -3.00000 -13.00000 -22.51666 0.00000 -0.38268 -0.92388 0.8984 0.8241
disc_white
0 3.00000 0.00000 0.00000 1.00000 0.00000 0.00000 0.0000 0.0000
0 3.00000 -6.72930 -25.11407 1.00000 0.00000 0.00000 0.9474 0.8038
0 3.00000 -0.00000 -26.00000 1.00000 0.00000 0.00000 1.0000 0.7969
disc_white
0 -3.00000 0.00000 0.00000 -1.00000 0.00000 0.00000 0.0000 0.0000
0 -3.00000 -0.00000 -26.00000 -1.00000 0.00000 0.00000 1.0000 0.7969
0 -3.00000 -6.72930 -25.11407 -1.00000 0.00000 0.00000 0.9474 0.8038
disc_dark
0 -3.00000 -0.00000 -26.00000 0.00000 -0.13053 -0.99144 1.0000 0.7969
0 3.00000 -0.00000 -26.00000 0.00000 -0.13053 -0.99144 1.0000 0.7969
0 3.00000 -6.72930 -25.11407 0.00000 -0.13053 -0.99144 0.9474 0.8038
disc_dark
0 -3.00000 -0.00000 -26.00000 0.00000 -0.13053 -0.99144 1.0000 0.7969
0 3.00000 -6.72930 -25.11407 0.00000 -0.13053 -0.99144 0.9474 0.8038
0 -3.00000 -6.72930 -25.11407 0.00000 -0.13053 -0.99144 0.9474 0.8038
disc_dark
0 3.00000 0.00000 0.00000 1.00000 0.00000 0.00000 0.0000 0.0000
0 3.00000 -0.00000 -26.00000 1.00000 0.00000 0.00000 1.0000 0.7969
0 3.00000 6.72930 -25.11407 1.00000 0.00000 0.00000 0.0526 0.8038
disc_dark
0 -3.00000 0.00000 0.00000 -1.00000 0.00000 -0.00000 0.0000 0.0000
0 -3.00000 6.72930 -25.11407 -1.00000 0.00000 -0.00000 0.0526 0.8038
0 -3.00000 -0.00000 -26.00000 -1.00000 0.00000 -0.00000 1.0000 0.7969
disc_dark
0 -3.00000 6.72930 -25.11407 0.00000 0.13053 -0.99144 0.0526 0.8038
0 3.00000 6.72930 -25.11407 0.00000 0.13053 -0.99144 0.0526 0.8038
0 3.00000 -0.00000 -26.00000 0.00000 0.13053 -0.99144 1.0000 0.7969
disc_dark
0 -3.00000 6.72930 -25.11407 0.00000 0.13053 -0.99144 0.0526 0.8038
0 3.00000 -0.00000 -26.00000 0.00000 0.13053 -0.99144 1.0000 0.7969
0 -3.00000 -0.00000 -26.00000 0.00000 0.13053 -0.99144 1.0000 0.7969
disc_white
0 3.00000 0.00000 0.00000 1.00000 0.00000 0.00000 0.0000 0.0000
0 3.00000 6.72930 -25.11407 1.00000 0.00000 0.00000 0.0526 0.8038
0 3.00000 13.00000 -22.51666 1.00000 0.00000 0.00000 0.1016 0.8241
disc_white
0 -3.00000 0.00000 0.00000 -1.00000 0.00000 0.00000 0.0000 0.0000
0 -3.00000 13.00000 -22.51666 -1.00000 0.00000 0.00000 0.1016 0.8241
0 -3.00000 6.72930 -25.11407 -1.00000 0.00000 0.00000 0.0526 0.8038
disc_dark
0 -3.00000 13.00000 -22.51666 0.00000 0.38268 -0.92388 0.1016 0.8241
0 3.00000 13.00000 -22.51666 0.00000 0.38268 -0.92388 0.1016 0.8241
0 3.00000 6.72930 -25.11407 0.00000 0.38268 -0.92388 0.0526 0.8038
disc_dark
0 -3.00000 13.00000 -22.51666 0.00000 0.38268 -0.92388 0.1016 0.8241
0 3.00000 6.72930 -25.11407 0.00000 0.38268 -0.92388 0.0526 0.8038
0 -3.00000 6.72930 -25.11407 0.00000 0.38268 -0.92388 0.0526 0.8038
disc_white
0 3.00000 0.00000 0.00000 1.00000 0.00000 0.00000 0.0000 0.0000
0 3.00000 13.00000 -22.51666 1.00000 0.00000 0.00000 0.1016 0.8241
0 3.00000 18.38478 -18.38478 1.00000 0.00000 0.00000 0.1436 0.8564
disc_white
0 -3.00000 0.00000 0.00000 -1.00000 0.00000 0.00000 0.0000 0.0000
0 -3.00000 18.38478 -18.38478 -1.00000 0.00000 0.00000 0.1436 0.8564
0 -3.00000 13.00000 -22.51666 -1.00000 0.00000 0.00000 0.1016 0.8241
disc_dark
0 -3.00000 18.38478 -18.38478 0.00000 0.60876 -0.79335 0.1436 0.8564
0 3.00000 18.38478 -18.38478 0.00000 0.60876 -0.79335 0.1436 0.8564
0 3.00000 13.00000 -22.51666 0.00000 0.60876 -0.79335 0.1016 0.8241
disc_dark
0 -3.00000 18.38478 -18.38478 0.00000 0.60876 -0.79335 0.1436 0.8564
0 3.00000 13.00000 -22.51666 0.00000 0.60876 -0.79335 0.1016 0.8241
0 -3.00000 13.00000 -22.51666 0.00000 0.60876 -0.79335 0.1016 0.8241
disc_white
0 3.00000 0.00000 0.00000 1.00000 0.00000 0.00000 0.0000 0.0000
0 3.00000 18.38478 -18.38478 1.00000 0.00000 0.00000 0.1436 0.8564
0 3.00000 22.51666 -13.00000 1.00000 0.00000 0.00000 0.1759 0.8984
disc_white
0 -3.00000 0.00000 0.00000 -1.00000 0.00000 0.00000 0.0000 0.0000
0 -3.00000 22.51666 -13.00000 -1.00000 0.00000 0.00000 0.1759 0.8984
0 -3.00000 18.38478 -18.38478 -1.00000 0.00000 0.00000 0.1436 0.8564
disc_dark
0 -3.00000 22.51666 -13.00000 0.00000 0.79335 -0.60876 0.1759 0.8984
0 3.00000 22.51666 -13.00000 0.00000 0.79335 -0.60876 0.1759 0.8984
0 3.00000 18.38478 -18.38478 0.00000 0.79335 -0.60876 0.1436 0.8564
disc_dark
0 -3.00000 22.51666 -13.00000 0.00000 0.79335 -0.60876 0.1759 0.8984
0 3.00000 18.38478 -18.38478 0.00000 0.79335 -0.60876 0.1436 0.8564
0 -3.00000 18.38478 -18.38478 0.00000 0.79335 -0.60876 0.1436 0.8564
disc_white
0 3.00000 0.00000 0.00000 1.00000 0.00000 0.00000 0.0000 0.0000
0 3.00000 22.51666 -13.00000 1.00000 0.00000 0.00000 0.1759 0.8984
0 3.00000 25.11407 -6.72930 1.00000 0.00000 0.00000 0.1962 0.9474
disc_white
0 -3.00000 0.00000 0.00000 -1.00000 0.00000 0.00000 0.0000 0.0000
0 -3.00000 25.11407 -6.72930 -1.00000 0.00000 0.00000 0.1962 0.9474
0 -3.00000 22.51666 -13.00000 -1.00000 0.00000 0.00000 0.1759 0.8984
disc_dark
0 -3.00000 25.11407 -6.72930 0.00000 0.92388 -0.38268 0.1962 0.9474
0 3.00000 25.11407 -6.72930 0.00000 0.92388 -0.38268 0.1962 0.9474
0 3.00000 22.51666 -13.00000 0.00000 0.92388 -0.38268 0.1759 0.8984
disc_dark
0 -3.00000 25.11407 -6.72930 0.00000 0.92388 -0.38268 0.1962 0.9474
0 3.00000 22.51666 -13.00000 0.00000 0.92388 -0.38268 0.1759 0.8984
0 -3.00000 22.51666 -13.00000 0.00000 0.92388 -0.38268 0.1759 0.8984
disc_white
0 3.00000 0.00000 0.00000 1.00000 0.00000 0.00000 0.0000 0.0000
0 3.00000 25.11407 -6.72930 1.00000 0.00000 0.00000 0.1962 0.9474
0 3.00000 26.00000 -0.00000 1.00000 0.00000 0.00000 0.2031 1.0000
disc_white
0 -3.00000 0.00000 0.00000 -1.00000 0.00000 0.00000 0.0000 0.0000
0 -3.00000 26.00000 -0.00000 -1.00000 0.00000 0.00000 0.2031 1.0000
0 -3.00000 25.11407 -6.72930 -1.00000 0.00000 0.00000 0.1962 0.9474
disc_dark
0 -3.00000 26.00000 -0.00000 0.00000 0.99144 -0.13053 0.2031 1.0000
0 3.00000 26.00000 -0.00000 0.00000 0.99144 -0.13053 0.2031 1.0000
0 3.00000 25.11407 -6.72930 0.00000 0.99144 -0.13053 0.1962 0.9474
disc_dark
0 -3.00000 26.00000 -0.00000 0.00000 0.99144 -0.13053 0.2031 1.0000
0 3.00000 25.11407 -6.72930 0.00000 0.99144 -0.13053 0.1962 0.9474
0 -3.00000 25.11407 -6.72930 0.00000 0.99144 -0.13053 0.1962 0.9474
disc_dark
0 -4.00000 -5.00000 5.00000 -1.00000 0.00000 0.00000 0.9609 0.0391
0 -4.00000 5.00000 5.00000 -1.00000 0.00000 0.00000 0.0391 0.0391
0 -4.00000 5.00000 -5.00000 -1.00000 0.00000 0.00000 0.0391 0.9609
disc_dark
0 -4.00000 -5.00000 5.00000 -1.00000 0.00000 0.00000 0.9609 0.0391
0 -4.00000 5.00000 -5.00000 -1.00000 0.00000 0.00000 0.0391 0.9609
0 -4.00000 -5.00000 -5.00000 -1.00000 0.00000 0.00000 0.9609 0.9609
disc_dark
0 4.00000 -5.00000 -5.00000 1.00000 0.00000 0.00000 0.9609 0.9609
0 4.00000 5.00000 -5.00000 1.00000 0.00000 0.00000 0.0391 0.9609
0 4.00000 5.00000 5.00000 1.00000 0.00000 0.00000 0.0391 0.0391
disc_dark
0 4.00000 -5.00000 -5.00000 1.00000 0.00000 0.00000 0.9609 0.9609
0 4.00000 5.00000 5.00000 1.00000 0.00000 0.00000 0.0391 0.0391
0 4.00000 -5.00000 5.00000 1.00000 0.00000 0.00000 0.9609 0.0391
disc_dark
0 -4.00000 -5.00000 -5.00000 0.00000 -1.00000 0.00000 0.9609 0.9609
0 4.00000 -5.00000 -5.00000 0.00000 -1.00000 0.00000 0.9609 0.9609
0 4.00000 -5.00000 5.00000 0.00000 -1.00000 0.00000 0.9609 0.0391
disc_dark
0 -4.00000 -5.00000 -5.00000 0.00000 -1.00000 0.00000 0.9609 0.9609
0 4.00000 -5.00000 5.00000 0.00000 -1.00000 0.00000 0.9609 0.0391
0 -4.00000 -5.00000 5.00000 0.00000 -1.00000 0.00000 0.9609 0.0391
disc_dark
0 -4.00000 5.00000 5.00000 0.00000 1.00000 0.00000 0.0391 0.0391
0 4.00000 5.00000 5.00000 0.00000 1.00000 0.00000 0.0391 0.0391
0 4.00000 5.00000 -5.00000 0.00000 1.00000 0.00000 0.0391 0.9609
disc_dark
0 -4.00000 5.00000 5.00000 0.00000 1.00000 0.00000 0.0391 0.0391
0 4.00000 5.00000 -5.00000 0.00000 1.00000 0.00000 0.0391 0.9609
0 -4.00000 5.00000 -5.00000 0.00000 1.00000 0.00000 0.0391 0.9609
disc_dark
0 -4.00000 5.00000 -5.00000 0.00000 0.00000 -1.00000 0.0391 0.9609
0 4.00000 5.00000 -5.00000 0.00000 0.00000 -1.00000 0.0391 0.9609
0 4.00000 -5.00000 -5.00000 0.00000 0.00000 -1.00000 0.9609 0.9609
disc_dark
0 -4.00000 5.00000 -5.00000 0.00000 0.00000 -1.00000 0.0391 0.9609
0 4.00000 -5.00000 -5.00000 0.00000 0.00000 -1.00000 0.9609 0.9609
0 -4.00000 -5.00000 -5.00000 0.00000 0.00000 -1.00000 0.9609 0.9609
disc_dark
0 -4.00000 -5.00000 5.00000 0.00000 0.00000 1.00000 0.9609 0.0391
0 4.00000 -5.00000 5.00000 0.00000 0.00000 1.00000 0.9609 0.0391
0 4.00000 5.00000 5.00000 0.00000 0.00000 1.00000 0.0391 0.0391
disc_dark
0 -4.00000 -5.00000 5.00000 0.00000 0.00000 1.00000 0.9609 0.0391
0 4.00000 5.00000 5.00000 0.00000 0.00000 1.00000 0.0391 0.0391
0 -4.00000 5.00000 5.00000 0.00000 0.00000 1.00000 0.0391 0.0391
end
